version 1
nodes
0 "Box01" -1
end
skeleton
time 0
0 -0.014721 -0.075443 0.000000 0.000000 0.000000 0.000000
end
triangles
c_wall06.jpg
0 -50.014702 -50.075401 281.290802 0.000000 0.277084 0.960846 0.000500 1.420400
0 49.985298 -50.075401 281.290802 0.000000 0.277084 0.960846 0.999500 1.420400
0 49.985298 49.924599 252.456802 0.000000 0.277084 0.960846 0.999500 1.014800
c_wall06.jpg
0 49.985298 49.924599 252.456802 0.000000 0.277084 0.960846 0.999500 1.014800
0 -50.014702 49.924599 252.456802 0.000000 0.277084 0.960846 0.000500 1.014800
0 -50.014702 -50.075401 281.290802 0.000000 0.277084 0.960846 0.000500 1.420400
c_wall06.jpg
0 49.985298 49.924599 0.000000 0.000000 1.000000 0.000000 0.999500 -0.008600
0 -50.014702 49.924599 0.000000 0.000000 1.000000 0.000000 0.000500 -0.008600
0 -50.014702 49.924599 252.456802 0.000000 1.000000 0.000000 0.000500 1.014800
c_wall06.jpg
0 -50.014702 49.924599 252.456802 0.000000 1.000000 0.000000 0.000500 1.014800
0 49.985298 49.924599 252.456802 0.000000 1.000000 0.000000 0.999500 1.014800
0 49.985298 49.924599 0.000000 0.000000 1.000000 0.000000 0.999500 -0.008600
c_wall06.jpg
0 28.735300 -74.075401 -57.700001 0.916023 -0.070902 -0.394810 -0.503900 -0.284600
0 41.672798 -68.682602 22.634300 0.887613 -0.458807 -0.040501 -0.442500 0.107400
0 10.916800 -133.419403 56.155602 0.728606 -0.676806 0.105201 -1.179800 0.270900
c_wall06.jpg
0 10.916800 -133.419403 56.155602 0.392897 -0.917894 0.055700 -1.179800 0.270900
0 10.916800 -147.395096 -174.173492 0.608212 -0.792316 0.048101 -1.339000 -0.852900
0 28.735300 -74.075401 -57.700001 0.965563 -0.259690 0.015799 -0.503900 -0.284600
c_wall06.jpg
0 49.985298 -50.075401 0.000000 0.855103 -0.508002 -0.103600 -0.230500 -0.003100
0 41.672798 -68.682602 22.634300 0.887613 -0.458807 -0.040501 -0.442500 0.107400
0 28.735300 -74.075401 -57.700001 0.916023 -0.070902 -0.394810 -0.503900 -0.284600
c_wall06.jpg
0 -41.702202 -68.682602 22.634300 -0.887613 -0.458807 -0.040501 -0.442500 0.107400
0 -50.014702 -50.075401 0.000000 -0.855103 -0.508002 -0.103600 -0.230500 -0.003100
0 -28.764700 -74.075401 -57.700001 -0.763461 0.314384 -0.564171 -0.503900 -0.284600
c_wall06.jpg
0 -10.946300 -133.419403 56.155602 -0.602471 -0.785463 0.141693 -1.179800 0.270900
0 -41.702202 -68.682602 22.634300 -0.887613 -0.458807 -0.040501 -0.442500 0.107400
0 -28.764700 -74.075401 -57.700001 -0.763461 0.314384 -0.564171 -0.503900 -0.284600
c_wall06.jpg
0 -10.946300 -133.419403 56.155602 -0.608212 -0.792316 0.048101 -1.179800 0.270900
0 -28.764700 -74.075401 -57.700001 -0.965563 -0.259690 0.015799 -0.503900 -0.284600
0 -10.946300 -147.395096 -174.173492 -0.392897 -0.917894 0.055700 -1.339000 -0.852900
c_wall05.jpg
0 -10.946300 -133.419403 56.155602 -0.602471 -0.785463 0.141693 0.390800 0.500200
0 10.916800 -133.419403 56.155602 0.728606 -0.676806 0.105201 0.609200 0.500200
0 6.775100 -84.049301 259.897308 0.493609 -0.858616 0.138303 0.567800 1.290300
c_wall05.jpg
0 6.775100 -84.049301 259.897308 0.493609 -0.858616 0.138303 0.567800 1.290300
0 -6.804500 -84.049301 259.897308 -0.362709 -0.929224 0.070602 0.432200 1.290300
0 -10.946300 -133.419403 56.155602 -0.602471 -0.785463 0.141693 0.390800 0.500200
c_wall05.jpg
0 10.916800 -133.419403 56.155602 0.392897 -0.917894 0.055700 0.609200 0.500200
0 -10.946300 -133.419403 56.155602 -0.608212 -0.792316 0.048101 0.390800 0.500200
0 -10.946300 -147.395096 -174.173492 -0.392897 -0.917894 0.055700 0.390800 -0.665900
c_wall05.jpg
0 -10.946300 -147.395096 -174.173492 -0.392897 -0.917894 0.055700 0.390800 -0.665900
0 10.916800 -147.395096 -174.173492 0.608212 -0.792316 0.048101 0.609200 -0.665900
0 10.916800 -133.419403 56.155602 0.392897 -0.917894 0.055700 0.609200 0.500200
c_wall05.jpg
0 22.395100 -31.325701 333.640411 0.000000 -0.700880 0.713279 0.723900 1.663600
0 -20.121901 -31.325701 333.640411 0.000000 -0.700880 0.713279 0.299100 1.663600
0 -11.011200 -65.896400 299.668091 0.000000 -0.700880 0.713279 0.390100 1.491600
c_wall05.jpg
0 -11.011200 -65.896400 299.668091 0.000000 -0.700880 0.713279 0.390100 1.491600
0 13.284300 -65.896400 299.668091 0.000000 -0.700880 0.713279 0.632900 1.491600
0 22.395100 -31.325701 333.640411 0.000000 -0.700880 0.713279 0.723900 1.663600
c_wall05.jpg
0 13.284300 -65.896400 299.668091 0.775195 0.348198 0.527097 0.632900 1.491600
0 -11.011200 -65.896400 299.668091 -0.682465 0.544172 0.487975 0.390100 1.491600
0 -3.482300 -87.325401 334.092987 -0.831528 0.022701 0.555019 0.465400 1.665900
c_wall05.jpg
0 -3.482300 -87.325401 334.092987 -0.831528 0.022701 0.555019 0.465400 1.665900
0 5.755500 -87.325401 334.092987 0.520393 -0.818889 0.242097 0.557600 1.665900
0 13.284300 -65.896400 299.668091 0.775195 0.348198 0.527097 0.632900 1.491600
c_wall05.jpg
0 -28.764700 -74.075401 -57.700001 -0.763461 0.314384 -0.564171 0.212800 -0.076200
0 28.735300 -74.075401 -57.700001 0.916023 -0.070902 -0.394810 0.787200 -0.076200
0 10.916800 -147.395096 -174.173492 0.000000 0.846303 -0.532702 0.609200 -0.665900
c_wall05.jpg
0 10.916800 -147.395096 -174.173492 0.000000 0.846303 -0.532702 0.609200 -0.665900
0 -10.946300 -147.395096 -174.173492 0.000000 0.846303 -0.532702 0.390800 -0.665900
0 -28.764700 -74.075401 -57.700001 -0.763461 0.314384 -0.564171 0.212800 -0.076200
c_wall05.jpg
0 49.985298 -50.075401 281.290802 0.000000 0.941429 -0.337210 0.999500 1.398600
0 -50.014702 -50.075401 281.290802 0.000000 0.941429 -0.337210 0.000500 1.398600
0 -20.121901 -31.325701 333.640411 0.000000 0.941429 -0.337210 0.299100 1.663600
c_wall05.jpg
0 -20.121901 -31.325701 333.640411 0.000000 0.941429 -0.337210 0.299100 1.663600
0 22.395100 -31.325701 333.640411 0.000000 0.941429 -0.337210 0.723900 1.663600
0 49.985298 -50.075401 281.290802 0.000000 0.941429 -0.337210 0.999500 1.398600
c_wall05.jpg
0 -6.804500 -84.049301 259.897308 -0.362709 -0.929224 0.070602 0.432200 1.290300
0 6.775100 -84.049301 259.897308 0.493609 -0.858616 0.138303 0.567800 1.290300
0 5.755500 -87.325401 334.092987 0.520393 -0.818889 0.242097 0.557600 1.665900
c_wall05.jpg
0 5.755500 -87.325401 334.092987 0.520393 -0.818889 0.242097 0.557600 1.665900
0 -3.482300 -87.325401 334.092987 -0.831528 0.022701 0.555019 0.465400 1.665900
0 -6.804500 -84.049301 259.897308 -0.362709 -0.929224 0.070602 0.432200 1.290300
c_wall05.jpg
0 -50.014702 -50.075401 281.290802 -0.623286 -0.758083 0.191896 0.000500 1.398600
0 -17.871901 -68.682503 259.897308 -0.452215 -0.887130 0.092203 0.321600 1.290300
0 -11.011200 -65.896400 299.668091 -0.487987 -0.801478 0.345691 0.390100 1.491600
c_wall05.jpg
0 -11.011200 -65.896400 299.668091 -0.487987 -0.801478 0.345691 0.390100 1.491600
0 -20.121901 -31.325701 333.640411 -0.521724 -0.663930 0.535725 0.299100 1.663600
0 -50.014702 -50.075401 281.290802 -0.623286 -0.758083 0.191896 0.000500 1.398600
c_wall05.jpg
0 -17.871901 -68.682503 259.897308 -0.902897 -0.415199 0.111300 0.321600 1.290300
0 -6.804500 -84.049301 259.897308 -0.362709 -0.929224 0.070602 0.432200 1.290300
0 -3.482300 -87.325401 334.092987 -0.831528 0.022701 0.555019 0.465400 1.665900
c_wall05.jpg
0 -3.482300 -87.325401 334.092987 -0.831528 0.022701 0.555019 0.465400 1.665900
0 -11.011200 -65.896400 299.668091 -0.682465 0.544172 0.487975 0.390100 1.491600
0 -17.871901 -68.682503 259.897308 -0.902897 -0.415199 0.111300 0.321600 1.290300
c_wall05.jpg
0 6.775100 -84.049301 259.897308 0.493609 -0.858616 0.138303 0.567800 1.290300
0 17.842400 -68.682602 259.897308 0.845858 -0.517874 0.127794 0.678400 1.290300
0 13.284300 -65.896400 299.668091 0.775195 0.348198 0.527097 0.632900 1.491600
c_wall05.jpg
0 6.775100 -84.049301 259.897308 0.493609 -0.858616 0.138303 0.567800 1.290300
0 13.284300 -65.896400 299.668091 0.775195 0.348198 0.527097 0.632900 1.491600
0 5.755500 -87.325401 334.092987 0.520393 -0.818889 0.242097 0.557600 1.665900
c_wall05.jpg
0 13.284300 -65.896400 299.668091 0.507463 -0.797143 0.327176 0.632900 1.491600
0 17.842400 -68.682602 259.897308 0.458719 -0.884936 0.080403 0.678400 1.290300
0 49.985298 -50.075401 281.290802 0.631612 -0.753715 0.181604 0.999500 1.398600
c_wall05.jpg
0 13.284300 -65.896400 299.668091 0.507463 -0.797143 0.327176 0.632900 1.491600
0 49.985298 -50.075401 281.290802 0.631612 -0.753715 0.181604 0.999500 1.398600
0 22.395100 -31.325701 333.640411 0.544413 -0.656516 0.522112 0.723900 1.663600
c_wall04.jpg
0 49.985298 -50.075401 0.000000 1.000000 0.000000 0.000000 -0.230500 -0.003100
0 49.985298 49.924599 0.000000 1.000000 0.000000 0.000000 0.908400 -0.003100
0 49.985298 49.924599 252.456802 1.000000 0.000000 0.000000 0.908400 0.996100
c_wall04.jpg
0 49.985298 49.924599 252.456802 1.000000 0.000000 0.000000 0.908400 0.996100
0 49.985298 -50.075401 281.290802 1.000000 0.000000 0.000000 -0.230500 1.136800
0 49.985298 -50.075401 0.000000 1.000000 0.000000 0.000000 -0.230500 -0.003100
c_wall04.jpg
0 -50.014702 49.924599 0.000000 -1.000000 0.000000 0.000000 0.908400 -0.003100
0 -50.014702 -50.075401 0.000000 -1.000000 0.000000 0.000000 -0.230500 -0.003100
0 -50.014702 -50.075401 281.290802 -1.000000 0.000000 0.000000 -0.230500 1.136800
c_wall04.jpg
0 -50.014702 -50.075401 281.290802 -1.000000 0.000000 0.000000 -0.230500 1.136800
0 -50.014702 49.924599 252.456802 -1.000000 0.000000 0.000000 0.908400 0.996100
0 -50.014702 49.924599 0.000000 -1.000000 0.000000 0.000000 0.908400 -0.003100
c_wall04.jpg
0 -50.014702 -50.075401 281.290802 -0.623286 -0.758083 0.191896 -0.230500 1.136800
0 -50.014702 -50.075401 0.000000 -0.913022 -0.407910 0.000000 -0.230500 -0.003100
0 -41.702202 -68.682602 22.634300 -0.733701 -0.679001 0.025300 -0.442500 0.107400
c_wall04.jpg
0 -41.702202 -68.682602 22.634300 -0.733701 -0.679001 0.025300 -0.442500 0.107400
0 -17.871901 -68.682503 259.897308 -0.452215 -0.887130 0.092203 -0.442500 1.032400
0 -50.014702 -50.075401 281.290802 -0.623286 -0.758083 0.191896 -0.230500 1.136800
c_wall04.jpg
0 -17.871901 -68.682503 259.897308 -0.902897 -0.415199 0.111300 -0.442500 1.032400
0 -41.702202 -68.682602 22.634300 -0.887613 -0.458807 -0.040501 -0.442500 0.107400
0 -10.946300 -133.419403 56.155602 -0.602471 -0.785463 0.141693 -1.179800 0.270900
c_wall04.jpg
0 -10.946300 -133.419403 56.155602 -0.602471 -0.785463 0.141693 -1.179800 0.270900
0 -6.804500 -84.049301 259.897308 -0.362709 -0.929224 0.070602 -0.617500 1.032400
0 -17.871901 -68.682503 259.897308 -0.902897 -0.415199 0.111300 -0.442500 1.032400
c_wall04.jpg
0 41.672798 -68.682602 22.634300 0.733701 -0.679001 0.025300 -0.442500 0.107400
0 49.985298 -50.075401 0.000000 0.913022 -0.407910 0.000000 -0.230500 -0.003100
0 49.985298 -50.075401 281.290802 0.631612 -0.753715 0.181604 -0.230500 1.136800
c_wall04.jpg
0 41.672798 -68.682602 22.634300 0.733701 -0.679001 0.025300 -0.442500 0.107400
0 49.985298 -50.075401 281.290802 0.631612 -0.753715 0.181604 -0.230500 1.136800
0 17.842400 -68.682602 259.897308 0.458719 -0.884936 0.080403 -0.442500 1.032400
c_wall04.jpg
0 10.916800 -133.419403 56.155602 0.728606 -0.676806 0.105201 -1.179800 0.270900
0 41.672798 -68.682602 22.634300 0.887613 -0.458807 -0.040501 -0.442500 0.107400
0 17.842400 -68.682602 259.897308 0.845858 -0.517874 0.127794 -0.442500 1.032400
c_wall04.jpg
0 10.916800 -133.419403 56.155602 0.728606 -0.676806 0.105201 -1.179800 0.270900
0 17.842400 -68.682602 259.897308 0.845858 -0.517874 0.127794 -0.442500 1.032400
0 6.775100 -84.049301 259.897308 0.493609 -0.858616 0.138303 -0.617500 1.032400
end
