version 1
nodes
0 "QuadPatch01" -1
1 "QuadPatch02" -1
2 "QuadPatch03" -1
3 "QuadPatch04" -1
4 "QuadPatch05" -1
end
skeleton
time 0
0 -15.491014 103.789009 0.000000 0.000000 0.000000 -2.530727
1 127.600594 11.329903 0.000000 0.000000 0.000000 2.443461
2 -106.705276 -117.098244 0.000000 0.000000 0.000000 -0.872665
3 14.098662 -94.061577 0.000000 0.000000 0.000000 -2.530727
4 -110.172516 61.939827 0.000000 0.000000 0.000000 0.959931
end
triangles
tree_08.tga
0 -46.316299 74.652100 2.673200 -0.020100 -0.186201 0.982306 0.000000 0.000000
0 -14.803200 99.361603 7.263900 0.050301 -0.038000 0.998011 1.000000 0.000000
0 -39.767300 134.609207 24.150499 -0.077101 -0.216602 0.973211 1.000000 1.000000
tree_08.tga
0 -39.767300 134.609207 24.150499 -0.077101 -0.216602 0.973211 1.000000 1.000000
0 -66.179710 102.850197 14.398500 -0.235105 -0.063101 0.969920 0.000000 1.000000
0 -46.316299 74.652100 2.673200 -0.020100 -0.186201 0.982306 0.000000 0.000000
tree_08.tga
0 -66.179710 102.850197 14.398500 -0.235105 -0.063101 0.969920 0.000000 0.000000
0 -39.767300 134.609207 24.150499 -0.077101 -0.216602 0.973211 1.000000 0.000000
0 -71.114098 163.791504 7.083700 -0.371205 0.081001 0.925011 1.000000 1.000000
tree_08.tga
0 -71.114098 163.791504 7.083700 -0.371205 0.081001 0.925011 1.000000 1.000000
0 -88.047501 152.238602 2.438700 -0.318613 0.087503 0.943837 0.000000 1.000000
0 -66.179710 102.850197 14.398500 -0.235105 -0.063101 0.969920 0.000000 0.000000
tree_08.tga
0 -23.044203 40.430595 14.656700 0.003100 0.123997 0.992278 0.000000 0.000000
0 12.215600 61.289600 3.041200 0.267095 0.083098 0.960081 1.000000 0.000000
0 -14.803200 99.361603 7.263900 0.050301 -0.038000 0.998011 1.000000 1.000000
tree_08.tga
0 -14.803200 99.361603 7.263900 0.050301 -0.038000 0.998011 1.000000 1.000000
0 -46.316299 74.652100 2.673200 -0.020100 -0.186201 0.982306 0.000000 1.000000
0 -23.044203 40.430595 14.656700 0.003100 0.123997 0.992278 0.000000 0.000000
tree_08.tga
0 -30.901199 152.117004 3.041200 -0.164801 0.216801 0.962205 0.000000 0.000000
0 -5.197900 130.538803 20.464199 -0.147905 0.204007 0.967732 1.000000 0.000000
0 18.252502 157.337494 12.745700 0.012600 0.004800 0.999909 1.000000 1.000000
tree_08.tga
0 18.252502 157.337494 12.745700 0.012600 0.004800 0.999909 1.000000 1.000000
0 -7.647099 190.547119 24.150499 0.216009 -0.121205 0.968839 0.000000 1.000000
0 -30.901199 152.117004 3.041200 -0.164801 0.216801 0.962205 0.000000 0.000000
tree_08.tga
0 -7.647099 190.547119 24.150499 0.216009 -0.121205 0.968839 0.000000 0.000000
0 18.252502 157.337494 12.745700 0.012600 0.004800 0.999909 1.000000 0.000000
0 43.705097 204.972794 2.871800 0.374198 0.034800 0.926696 1.000000 1.000000
tree_08.tga
0 43.705097 204.972794 2.871800 0.374198 0.034800 0.926696 1.000000 1.000000
0 31.506496 215.505005 6.650500 0.360998 0.084899 0.928694 0.000000 1.000000
0 -7.647099 190.547119 24.150499 0.216009 -0.121205 0.968839 0.000000 0.000000
tree_08.tga
0 -64.751602 129.674393 14.398500 -0.102002 0.059301 0.993015 0.000000 0.000000
0 -30.879601 102.169403 3.499500 -0.083700 -0.454502 0.886804 1.000000 0.000000
0 -5.197900 130.538803 20.464199 -0.147905 0.204007 0.967732 1.000000 1.000000
tree_08.tga
0 -5.197900 130.538803 20.464199 -0.147905 0.204007 0.967732 1.000000 1.000000
0 -30.901199 152.117004 3.041200 -0.164801 0.216801 0.962205 0.000000 1.000000
0 -64.751602 129.674393 14.398500 -0.102002 0.059301 0.993015 0.000000 0.000000
tree_08.tga
0 28.263206 111.352303 8.093600 -0.234195 0.059299 0.970379 0.000000 0.000000
0 8.955100 83.853500 -0.544900 -0.157302 -0.067901 0.985213 1.000000 0.000000
0 44.626003 51.600197 24.150499 -0.048402 0.124505 0.991038 1.000000 1.000000
tree_08.tga
0 44.626003 51.600197 24.150499 -0.048402 0.124505 0.991038 1.000000 1.000000
0 69.494698 85.423691 14.656700 0.259208 0.087703 0.961831 0.000000 1.000000
0 28.263206 111.352303 8.093600 -0.234195 0.059299 0.970379 0.000000 0.000000
tree_08.tga
0 69.494698 85.423691 14.656700 0.259208 0.087703 0.961831 0.000000 0.000000
0 44.626003 51.600197 24.150499 -0.048402 0.124505 0.991038 1.000000 0.000000
0 88.406311 36.281502 6.886700 0.374181 -0.002600 0.927352 1.000000 1.000000
tree_08.tga
0 88.406311 36.281502 6.886700 0.374181 -0.002600 0.927352 1.000000 1.000000
0 98.582001 51.381199 2.635700 0.383514 0.001600 0.923534 0.000000 1.000000
0 69.494698 85.423691 14.656700 0.259208 0.087703 0.961831 0.000000 0.000000
tree_08.tga
0 -0.450499 131.417801 6.712600 0.033499 -0.144295 0.988967 0.000000 0.000000
0 -26.387199 95.695702 9.436800 0.239199 -0.100100 0.965797 1.000000 0.000000
0 8.955100 83.853500 -0.544900 -0.157302 -0.067901 0.985213 1.000000 1.000000
tree_08.tga
0 8.955100 83.853500 -0.544900 -0.157302 -0.067901 0.985213 1.000000 1.000000
0 28.263206 111.352303 8.093600 -0.234195 0.059299 0.970379 0.000000 1.000000
0 -0.450499 131.417801 6.712600 0.033499 -0.144295 0.988967 0.000000 0.000000
tree_08.tga
0 31.385700 108.087097 2.775200 0.006100 0.267603 0.963510 0.000000 0.000000
0 3.671201 121.510399 0.563700 0.057402 -0.044902 0.997341 1.000000 0.000000
0 -10.431600 91.512001 11.838100 -0.126103 0.325708 0.937023 1.000000 1.000000
tree_08.tga
0 -10.431600 91.512001 11.838100 -0.126103 0.325708 0.937023 1.000000 1.000000
0 9.168801 58.639397 28.378099 -0.239889 0.064497 0.968656 0.000000 1.000000
0 31.385700 108.087097 2.775200 0.006100 0.267603 0.963510 0.000000 0.000000
tree_08.tga
0 9.168801 58.639397 28.378099 -0.239889 0.064497 0.968656 0.000000 0.000000
0 -10.431600 91.512001 11.838100 -0.126103 0.325708 0.937023 1.000000 0.000000
0 -27.256302 44.177898 12.169700 -0.352283 -0.148393 0.924055 1.000000 1.000000
tree_08.tga
0 -27.256302 44.177898 12.169700 -0.352283 -0.148393 0.924055 1.000000 1.000000
0 -2.140703 32.466301 12.169700 -0.208897 -0.447994 0.869289 0.000000 1.000000
0 9.168801 58.639397 28.378099 -0.239889 0.064497 0.968656 0.000000 0.000000
tree_08.tga
0 47.400002 142.076996 3.499500 0.043399 -0.230997 0.971986 0.000000 0.000000
0 10.509902 164.771896 21.993601 0.156801 -0.458204 0.874907 1.000000 0.000000
0 3.671201 121.510399 0.563700 0.057402 -0.044902 0.997341 1.000000 1.000000
tree_08.tga
0 3.671201 121.510399 0.563700 0.057402 -0.044902 0.997341 1.000000 1.000000
0 31.385700 108.087097 2.775200 0.006100 0.267603 0.963510 0.000000 1.000000
0 47.400002 142.076996 3.499500 0.043399 -0.230997 0.971986 0.000000 0.000000
tree_08.tga
1 91.478302 33.563702 2.673200 -0.185100 -0.028800 0.982298 0.000000 0.000000
1 123.502098 9.519600 7.263900 -0.023700 -0.058401 0.998012 1.000000 0.000000
1 151.087402 42.755798 24.150499 -0.229201 0.018400 0.973205 1.000000 1.000000
tree_08.tga
1 151.087402 42.755798 24.150499 -0.229201 0.018400 0.973205 1.000000 1.000000
1 113.574600 60.048401 14.398500 -0.121801 0.210802 0.969911 0.000000 1.000000
1 91.478302 33.563702 2.673200 -0.185100 -0.028800 0.982298 0.000000 0.000000
tree_08.tga
1 113.574600 60.048401 14.398500 -0.121801 0.210802 0.969911 0.000000 0.000000
1 151.087402 42.755798 24.150499 -0.229201 0.018400 0.973205 1.000000 0.000000
1 171.162292 80.587502 7.083700 -0.017900 0.379506 0.925016 1.000000 1.000000
tree_08.tga
1 171.162292 80.587502 7.083700 -0.017900 0.379506 0.925016 1.000000 1.000000
1 155.620300 93.953796 2.438700 0.002100 0.330412 0.943834 0.000000 1.000000
1 113.574600 60.048401 14.398500 -0.121801 0.210802 0.969911 0.000000 0.000000
tree_08.tga
1 64.446106 2.227300 14.656700 0.120597 0.029099 0.992275 0.000000 0.000000
1 93.720299 -26.432297 3.041200 0.149397 -0.236495 0.960079 1.000000 0.000000
1 123.502098 9.519600 7.263900 -0.023700 -0.058401 0.998012 1.000000 1.000000
tree_08.tga
1 123.502098 9.519600 7.263900 -0.023700 -0.058401 0.998012 1.000000 1.000000
1 91.478302 33.563702 2.673200 -0.185100 -0.028800 0.982298 0.000000 1.000000
1 64.446106 2.227300 14.656700 0.120597 0.029099 0.992275 0.000000 0.000000
tree_08.tga
1 170.293396 38.723198 3.041200 0.166800 0.215299 0.962198 0.000000 0.000000
1 156.102905 8.310900 20.464199 0.158709 0.195611 0.967754 1.000000 0.000000
1 188.057907 -7.404499 12.745700 0.007900 -0.010900 0.999909 1.000000 1.000000
tree_08.tga
1 188.057907 -7.404499 12.745700 0.007900 -0.010900 0.999909 1.000000 1.000000
1 213.432587 26.207897 24.150499 -0.061103 -0.240011 0.968845 0.000000 1.000000
1 170.293396 38.723198 3.041200 0.166800 0.215299 0.962198 0.000000 0.000000
tree_08.tga
1 213.432587 26.207897 24.150499 -0.061103 -0.240011 0.968845 0.000000 0.000000
1 188.057907 -7.404499 12.745700 0.007900 -0.010900 0.999909 1.000000 0.000000
1 240.657700 -19.660902 2.871800 0.130501 -0.352402 0.926705 1.000000 1.000000
tree_08.tga
1 240.657700 -19.660902 2.871800 0.130501 -0.352402 0.926705 1.000000 1.000000
1 247.673798 -5.152000 6.650500 0.175402 -0.326703 0.928708 0.000000 1.000000
1 213.432587 26.207897 24.150499 -0.061103 -0.240011 0.968845 0.000000 0.000000
tree_08.tga
1 139.854401 65.611603 14.398500 0.030900 0.113901 0.993011 0.000000 0.000000
1 122.053398 25.774900 3.499500 -0.460697 -0.036800 0.886794 1.000000 0.000000
1 156.102905 8.310900 20.464199 0.158709 0.195611 0.967754 1.000000 1.000000
tree_08.tga
1 156.102905 8.310900 20.464199 0.158709 0.195611 0.967754 1.000000 1.000000
1 170.293396 38.723198 3.041200 0.166800 0.215299 0.962198 0.000000 1.000000
1 139.854401 65.611603 14.398500 0.030900 0.113901 0.993011 0.000000 0.000000
tree_08.tga
1 146.230499 -28.975899 8.093600 -0.003400 0.241593 0.970372 0.000000 0.000000
1 114.671501 -17.442999 -0.544900 -0.106302 0.134303 0.985222 1.000000 0.000000
1 92.749496 -60.246101 24.150499 0.107704 0.079003 0.991039 1.000000 1.000000
tree_08.tga
1 92.749496 -60.246101 24.150499 0.107704 0.079003 0.991039 1.000000 1.000000
1 131.856995 -75.513298 14.656700 0.151807 -0.227611 0.961846 0.000000 1.000000
1 146.230499 -28.975899 8.093600 -0.003400 0.241593 0.970372 0.000000 0.000000
tree_08.tga
1 131.856995 -75.513298 14.656700 0.151807 -0.227611 0.961846 0.000000 0.000000
1 92.749496 -60.246101 24.150499 0.107704 0.079003 0.991039 1.000000 0.000000
1 89.283897 -106.499489 6.886700 0.094296 -0.362086 0.927363 1.000000 1.000000
tree_08.tga
1 89.283897 -106.499489 6.886700 0.094296 -0.362086 0.927363 1.000000 1.000000
1 106.502800 -112.420311 2.635700 0.100804 -0.370016 0.923540 0.000000 1.000000
1 131.856995 -75.513298 14.656700 0.151807 -0.227611 0.961846 0.000000 0.000000
tree_08.tga
1 158.180695 3.952799 6.712600 -0.130696 -0.069698 0.988970 0.000000 0.000000
1 116.962997 19.760099 9.436800 -0.034700 -0.256997 0.965789 1.000000 0.000000
1 114.671501 -17.442999 -0.544900 -0.106302 0.134303 0.985222 1.000000 1.000000
tree_08.tga
1 114.671501 -17.442999 -0.544900 -0.106302 0.134303 0.985222 1.000000 1.000000
1 146.230499 -28.975899 8.093600 -0.003400 0.241593 0.970372 0.000000 1.000000
1 158.180695 3.952799 6.712600 -0.130696 -0.069698 0.988970 0.000000 0.000000
tree_08.tga
1 143.884796 -32.837101 2.775200 0.260100 0.063400 0.963498 0.000000 0.000000
1 149.677704 -2.592699 0.563700 -0.028501 -0.067103 0.997339 1.000000 0.000000
1 117.051399 3.265300 11.838100 0.281912 0.206109 0.937040 1.000000 1.000000
tree_08.tga
1 117.051399 3.265300 11.838100 0.281912 0.206109 0.937040 1.000000 1.000000
1 90.371811 -24.175198 28.378099 0.000200 0.248390 0.968660 0.000000 1.000000
1 143.884796 -32.837101 2.775200 0.260100 0.063400 0.963498 0.000000 0.000000
tree_08.tga
1 90.371811 -24.175198 28.378099 0.000200 0.248390 0.968660 0.000000 0.000000
1 117.051399 3.265300 11.838100 0.281912 0.206109 0.937040 1.000000 0.000000
1 66.975601 7.265799 12.169700 -0.234489 0.301886 0.924056 1.000000 1.000000
tree_08.tga
1 66.975601 7.265799 12.169700 -0.234489 0.301886 0.924056 1.000000 1.000000
1 62.163506 -20.025200 12.169700 -0.486796 0.085799 0.869292 0.000000 1.000000
1 90.371811 -24.175198 28.378099 0.000200 0.248390 0.968660 0.000000 0.000000
tree_08.tga
1 180.861404 -39.508499 3.499500 -0.211897 -0.101699 0.971986 0.000000 0.000000
1 193.235001 1.998400 21.993601 -0.402009 -0.270006 0.874920 1.000000 0.000000
1 149.677704 -2.592699 0.563700 -0.028501 -0.067103 0.997339 1.000000 1.000000
tree_08.tga
1 149.677704 -2.592699 0.563700 -0.028501 -0.067103 0.997339 1.000000 1.000000
1 143.884796 -32.837101 2.775200 0.260100 0.063400 0.963498 0.000000 1.000000
1 180.861404 -39.508499 3.499500 -0.211897 -0.101699 0.971986 0.000000 0.000000
tree_08.tga
2 -74.992599 -145.266800 2.673200 0.187299 -0.003800 0.982296 0.000000 0.000000
2 -102.354599 -116.027199 7.263900 0.033500 0.053401 0.998011 1.000000 0.000000
2 -135.292404 -143.968307 24.150499 0.222503 -0.057901 0.973211 1.000000 1.000000
tree_08.tga
2 -135.292404 -143.968307 24.150499 0.222503 -0.057901 0.973211 1.000000 1.000000
2 -101.352203 -167.512207 14.398500 0.083401 -0.228704 0.969917 0.000000 1.000000
2 -74.992599 -145.266800 2.673200 0.187299 -0.003800 0.982296 0.000000 0.000000
tree_08.tga
2 -101.352203 -167.512207 14.398500 0.083401 -0.228704 0.969917 0.000000 0.000000
2 -135.292404 -143.968307 24.150499 0.222503 -0.057901 0.973211 1.000000 0.000000
2 -161.631607 -177.739197 7.083700 -0.048300 -0.376898 0.924995 1.000000 1.000000
tree_08.tga
2 -161.631607 -177.739197 7.083700 -0.048300 -0.376898 0.924995 1.000000 1.000000
2 -148.646805 -193.601303 2.438700 -0.059403 -0.325014 0.943842 0.000000 1.000000
2 -101.352203 -167.512207 14.398500 0.083401 -0.228704 0.969917 0.000000 0.000000
tree_08.tga
2 -42.929596 -119.100594 14.656700 -0.123797 -0.007700 0.992278 0.000000 0.000000
2 -66.782303 -85.792999 3.041200 -0.105997 0.258893 0.960073 1.000000 0.000000
2 -102.354599 -116.027199 7.263900 0.033500 0.053401 0.998011 1.000000 1.000000
tree_08.tga
2 -102.354599 -116.027199 7.263900 0.033500 0.053401 0.998011 1.000000 1.000000
2 -74.992599 -145.266800 2.673200 0.187299 -0.003800 0.982296 0.000000 1.000000
2 -42.929596 -119.100594 14.656700 -0.123797 -0.007700 0.992278 0.000000 0.000000
tree_08.tga
2 -153.506302 -136.661804 3.041200 -0.201696 -0.183097 0.962182 0.000000 0.000000
2 -134.250397 -109.175697 20.464199 -0.190308 -0.165107 0.967741 1.000000 0.000000
2 -162.990906 -88.150200 12.745700 -0.005900 0.012100 0.999909 1.000000 1.000000
tree_08.tga
2 -162.990906 -88.150200 12.745700 -0.005900 0.012100 0.999909 1.000000 1.000000
2 -193.816803 -116.845604 24.150499 0.101903 0.225806 0.968828 0.000000 1.000000
2 -153.506302 -136.661804 3.041200 -0.201696 -0.183097 0.962182 0.000000 0.000000
tree_08.tga
2 -193.816803 -116.845604 24.150499 0.101903 0.225806 0.968828 0.000000 0.000000
2 -162.990906 -88.150200 12.745700 -0.005900 0.012100 0.999909 1.000000 0.000000
2 -212.663300 -66.946098 2.871800 -0.067301 0.369704 0.926709 1.000000 1.000000
tree_08.tga
2 -212.663300 -66.946098 2.871800 -0.067301 0.369704 0.926709 1.000000 1.000000
2 -222.092316 -80.016296 6.650500 -0.116001 0.352203 0.928707 0.000000 1.000000
2 -193.816803 -116.845604 24.150499 0.101903 0.225806 0.968828 0.000000 0.000000
tree_08.tga
2 -128.198807 -168.427505 14.398500 -0.050201 -0.106801 0.993012 0.000000 0.000000
2 -103.750702 -132.287094 3.499500 0.460094 -0.043799 0.886789 1.000000 0.000000
2 -134.250397 -109.175697 20.464199 -0.190308 -0.165107 0.967741 1.000000 1.000000
tree_08.tga
2 -134.250397 -109.175697 20.464199 -0.190308 -0.165107 0.967741 1.000000 1.000000
2 -153.506302 -136.661804 3.041200 -0.201696 -0.183097 0.962182 0.000000 1.000000
2 -128.198807 -168.427505 14.398500 -0.050201 -0.106801 0.993012 0.000000 0.000000
tree_08.tga
2 -118.053207 -74.169701 8.093600 -0.038599 -0.238494 0.970377 0.000000 0.000000
2 -88.976196 -91.007599 -0.544900 0.081301 -0.150802 0.985215 1.000000 0.000000
2 -59.954601 -52.661392 24.150499 -0.119804 -0.059102 0.991037 1.000000 1.000000
tree_08.tga
2 -59.954601 -52.661392 24.150499 -0.119804 -0.059102 0.991037 1.000000 1.000000
2 -95.816803 -30.835297 14.656700 -0.110005 0.250511 0.961844 0.000000 1.000000
2 -118.053207 -74.169701 8.093600 -0.038599 -0.238494 0.970377 0.000000 0.000000
tree_08.tga
2 -95.816803 -30.835297 14.656700 -0.110005 0.250511 0.961844 0.000000 0.000000
2 -59.954601 -52.661392 24.150499 -0.119804 -0.059102 0.991037 1.000000 0.000000
2 -48.509895 -7.712593 6.886700 -0.029999 0.372981 0.927354 1.000000 1.000000
tree_08.tga
2 -48.509895 -7.712593 6.886700 -0.029999 0.372981 0.927354 1.000000 1.000000
2 -64.439011 1.108307 2.635700 -0.035001 0.381914 0.923535 0.000000 1.000000
2 -95.816803 -30.835297 14.656700 -0.110005 0.250511 0.961844 0.000000 0.000000
tree_08.tga
2 -135.539795 -104.523003 6.712600 0.140796 0.045899 0.988974 0.000000 0.000000
2 -97.693100 -127.247597 9.436800 0.078799 0.247095 0.965782 1.000000 0.000000
2 -88.976196 -91.007599 -0.544900 0.081301 -0.150802 0.985215 1.000000 1.000000
tree_08.tga
2 -88.976196 -91.007599 -0.544900 0.081301 -0.150802 0.985215 1.000000 1.000000
2 -118.053207 -74.169701 8.093600 -0.038599 -0.238494 0.970377 0.000000 1.000000
2 -135.539795 -104.523003 6.712600 0.140796 0.045899 0.988974 0.000000 0.000000
tree_08.tga
2 -115.072601 -70.774490 2.775200 -0.267104 -0.017200 0.963514 0.000000 0.000000
2 -126.029297 -99.553497 0.563700 0.039702 0.061103 0.997342 1.000000 0.000000
2 -94.916000 -110.987999 11.838100 -0.313415 -0.154007 0.937045 1.000000 1.000000
tree_08.tga
2 -94.916000 -110.987999 11.838100 -0.313415 -0.154007 0.937045 1.000000 1.000000
2 -63.876701 -88.597290 28.378099 -0.043398 -0.244589 0.968655 0.000000 1.000000
2 -115.072601 -70.774490 2.775200 -0.267104 -0.017200 0.963514 0.000000 0.000000
tree_08.tga
2 -63.876701 -88.597290 28.378099 -0.043398 -0.244589 0.968655 0.000000 0.000000
2 -94.916000 -110.987999 11.838100 -0.313415 -0.154007 0.937045 1.000000 0.000000
2 -46.295597 -123.623299 12.169700 0.178494 -0.337989 0.924069 1.000000 1.000000
tree_08.tga
2 -46.295597 -123.623299 12.169700 0.178494 -0.337989 0.924069 1.000000 1.000000
2 -36.817596 -97.582603 12.169700 0.464491 -0.169097 0.869284 0.000000 1.000000
2 -63.876701 -88.597290 28.378099 -0.043398 -0.244589 0.968655 0.000000 0.000000
tree_08.tga
2 -150.328903 -57.783600 3.499500 0.226393 0.063398 0.971971 0.000000 0.000000
2 -169.722198 -96.511200 21.993601 0.442805 0.196102 0.874910 1.000000 0.000000
2 -126.029297 -99.553497 0.563700 0.039702 0.061103 0.997342 1.000000 1.000000
tree_08.tga
2 -126.029297 -99.553497 0.563700 0.039702 0.061103 0.997342 1.000000 1.000000
2 -115.072601 -70.774490 2.775200 -0.267104 -0.017200 0.963514 0.000000 1.000000
2 -150.328903 -57.783600 3.499500 0.226393 0.063398 0.971971 0.000000 0.000000
tree_08.tga
3 -16.726601 -123.198502 2.673200 -0.020100 -0.186201 0.982306 0.000000 0.000000
3 14.786500 -98.488998 7.263900 0.050301 -0.038000 0.998011 1.000000 0.000000
3 -10.177600 -63.241402 24.150499 -0.077101 -0.216602 0.973211 1.000000 1.000000
tree_08.tga
3 -10.177600 -63.241402 24.150499 -0.077101 -0.216602 0.973211 1.000000 1.000000
3 -36.590000 -95.000397 14.398500 -0.235105 -0.063101 0.969920 0.000000 1.000000
3 -16.726601 -123.198502 2.673200 -0.020100 -0.186201 0.982306 0.000000 0.000000
tree_08.tga
3 -36.590000 -95.000397 14.398500 -0.235105 -0.063101 0.969920 0.000000 0.000000
3 -10.177600 -63.241402 24.150499 -0.077101 -0.216602 0.973211 1.000000 0.000000
3 -41.524403 -34.059101 7.083700 -0.371205 0.081001 0.925011 1.000000 1.000000
tree_08.tga
3 -41.524403 -34.059101 7.083700 -0.371205 0.081001 0.925011 1.000000 1.000000
3 -58.457802 -45.612000 2.438700 -0.318613 0.087503 0.943837 0.000000 1.000000
3 -36.590000 -95.000397 14.398500 -0.235105 -0.063101 0.969920 0.000000 0.000000
tree_08.tga
3 6.545501 -157.419998 14.656700 0.003100 0.123997 0.992278 0.000000 0.000000
3 41.805302 -136.561005 3.041200 0.267095 0.083098 0.960081 1.000000 0.000000
3 14.786500 -98.488998 7.263900 0.050301 -0.038000 0.998011 1.000000 1.000000
tree_08.tga
3 14.786500 -98.488998 7.263900 0.050301 -0.038000 0.998011 1.000000 1.000000
3 -16.726601 -123.198502 2.673200 -0.020100 -0.186201 0.982306 0.000000 1.000000
3 6.545501 -157.419998 14.656700 0.003100 0.123997 0.992278 0.000000 0.000000
tree_08.tga
3 -1.311502 -45.733597 3.041200 -0.164801 0.216801 0.962205 0.000000 0.000000
3 24.391800 -67.311798 20.464199 -0.147905 0.204007 0.967732 1.000000 0.000000
3 47.842205 -40.513096 12.745700 0.012600 0.004800 0.999909 1.000000 1.000000
tree_08.tga
3 47.842205 -40.513096 12.745700 0.012600 0.004800 0.999909 1.000000 1.000000
3 21.942598 -7.303497 24.150499 0.216009 -0.121205 0.968839 0.000000 1.000000
3 -1.311502 -45.733597 3.041200 -0.164801 0.216801 0.962205 0.000000 0.000000
tree_08.tga
3 21.942598 -7.303497 24.150499 0.216009 -0.121205 0.968839 0.000000 0.000000
3 47.842205 -40.513096 12.745700 0.012600 0.004800 0.999909 1.000000 0.000000
3 73.294800 7.122200 2.871800 0.374198 0.034800 0.926696 1.000000 1.000000
tree_08.tga
3 73.294800 7.122200 2.871800 0.374198 0.034800 0.926696 1.000000 1.000000
3 61.096203 17.654396 6.650500 0.360998 0.084899 0.928694 0.000000 1.000000
3 21.942598 -7.303497 24.150499 0.216009 -0.121205 0.968839 0.000000 0.000000
tree_08.tga
3 -35.161900 -68.176201 14.398500 -0.102002 0.059301 0.993015 0.000000 0.000000
3 -1.289901 -95.681099 3.499500 -0.083700 -0.454502 0.886804 1.000000 0.000000
3 24.391800 -67.311798 20.464199 -0.147905 0.204007 0.967732 1.000000 1.000000
tree_08.tga
3 24.391800 -67.311798 20.464199 -0.147905 0.204007 0.967732 1.000000 1.000000
3 -1.311502 -45.733597 3.041200 -0.164801 0.216801 0.962205 0.000000 1.000000
3 -35.161900 -68.176201 14.398500 -0.102002 0.059301 0.993015 0.000000 0.000000
tree_08.tga
3 57.852798 -86.498299 8.093600 -0.234195 0.059299 0.970379 0.000000 0.000000
3 38.544800 -113.997101 -0.544900 -0.157302 -0.067901 0.985213 1.000000 0.000000
3 74.215698 -146.250305 24.150499 -0.048402 0.124505 0.991038 1.000000 1.000000
tree_08.tga
3 74.215698 -146.250305 24.150499 -0.048402 0.124505 0.991038 1.000000 1.000000
3 99.084404 -112.426903 14.656700 0.259208 0.087703 0.961831 0.000000 1.000000
3 57.852798 -86.498299 8.093600 -0.234195 0.059299 0.970379 0.000000 0.000000
tree_08.tga
3 99.084404 -112.426903 14.656700 0.259208 0.087703 0.961831 0.000000 0.000000
3 74.215698 -146.250305 24.150499 -0.048402 0.124505 0.991038 1.000000 0.000000
3 117.996002 -161.569107 6.886700 0.374181 -0.002600 0.927352 1.000000 1.000000
tree_08.tga
3 117.996002 -161.569107 6.886700 0.374181 -0.002600 0.927352 1.000000 1.000000
3 128.171600 -146.469299 2.635700 0.383514 0.001600 0.923534 0.000000 1.000000
3 99.084404 -112.426903 14.656700 0.259208 0.087703 0.961831 0.000000 0.000000
tree_08.tga
3 29.139099 -66.432800 6.712600 0.033499 -0.144295 0.988967 0.000000 0.000000
3 3.202499 -102.154800 9.436800 0.239199 -0.100100 0.965797 1.000000 0.000000
3 38.544800 -113.997101 -0.544900 -0.157302 -0.067901 0.985213 1.000000 1.000000
tree_08.tga
3 38.544800 -113.997101 -0.544900 -0.157302 -0.067901 0.985213 1.000000 1.000000
3 57.852798 -86.498299 8.093600 -0.234195 0.059299 0.970379 0.000000 1.000000
3 29.139099 -66.432800 6.712600 0.033499 -0.144295 0.988967 0.000000 0.000000
tree_08.tga
3 60.975399 -89.763496 2.775200 0.006100 0.267603 0.963510 0.000000 0.000000
3 33.260799 -76.340202 0.563700 0.057402 -0.044902 0.997341 1.000000 0.000000
3 19.158100 -106.338501 11.838100 -0.126103 0.325708 0.937023 1.000000 1.000000
tree_08.tga
3 19.158100 -106.338501 11.838100 -0.126103 0.325708 0.937023 1.000000 1.000000
3 38.758400 -139.211197 28.378099 -0.239889 0.064497 0.968656 0.000000 1.000000
3 60.975399 -89.763496 2.775200 0.006100 0.267603 0.963510 0.000000 0.000000
tree_08.tga
3 38.758400 -139.211197 28.378099 -0.239889 0.064497 0.968656 0.000000 0.000000
3 19.158100 -106.338501 11.838100 -0.126103 0.325708 0.937023 1.000000 0.000000
3 2.333397 -153.672699 12.169700 -0.352283 -0.148393 0.924055 1.000000 1.000000
tree_08.tga
3 2.333397 -153.672699 12.169700 -0.352283 -0.148393 0.924055 1.000000 1.000000
3 27.448997 -165.384201 12.169700 -0.208897 -0.447994 0.869289 0.000000 1.000000
3 38.758400 -139.211197 28.378099 -0.239889 0.064497 0.968656 0.000000 0.000000
tree_08.tga
3 76.989601 -55.773602 3.499500 0.043399 -0.230997 0.971986 0.000000 0.000000
3 40.099602 -33.078701 21.993601 0.156801 -0.458204 0.874907 1.000000 0.000000
3 33.260799 -76.340202 0.563700 0.057402 -0.044902 0.997341 1.000000 1.000000
tree_08.tga
3 33.260799 -76.340202 0.563700 0.057402 -0.044902 0.997341 1.000000 1.000000
3 60.975399 -89.763496 2.775200 0.006100 0.267603 0.963510 0.000000 1.000000
3 76.989601 -55.773602 3.499500 0.043399 -0.230997 0.971986 0.000000 0.000000
tree_08.tga
4 -91.171600 99.862396 2.673200 -0.044800 0.181899 0.982296 0.000000 0.000000
4 -112.333099 65.864998 7.263900 -0.060301 0.018500 0.998009 1.000000 0.000000
4 -76.819099 41.281303 24.150499 -0.001700 0.229903 0.973212 1.000000 1.000000
tree_08.tga
4 -76.819099 41.281303 24.150499 -0.001700 0.229903 0.973212 1.000000 1.000000
4 -62.861900 80.158600 14.398500 0.199402 0.139701 0.969909 0.000000 1.000000
4 -91.171600 99.862396 2.673200 -0.044800 0.181899 0.982296 0.000000 0.000000
tree_08.tga
4 -62.861900 80.158600 14.398500 0.199402 0.139701 0.969909 0.000000 0.000000
4 -76.819099 41.281303 24.150499 -0.001700 0.229903 0.973212 1.000000 0.000000
4 -37.381897 24.580101 7.083700 0.376506 0.050901 0.925015 1.000000 1.000000
tree_08.tga
4 -37.381897 24.580101 7.083700 0.376506 0.050901 0.925015 1.000000 1.000000
4 -25.420998 41.227905 2.438700 0.329314 0.026801 0.943840 0.000000 1.000000
4 -62.861900 80.158600 14.398500 0.199402 0.139701 0.969909 0.000000 0.000000
tree_08.tga
4 -124.744698 124.060608 14.656700 0.039499 -0.117597 0.992276 0.000000 0.000000
4 -150.743896 92.400002 3.041200 -0.222596 -0.169397 0.960081 1.000000 0.000000
4 -112.333099 65.864998 7.263900 -0.060301 0.018500 0.998009 1.000000 1.000000
tree_08.tga
4 -112.333099 65.864998 7.263900 -0.060301 0.018500 0.998009 1.000000 1.000000
4 -91.171600 99.862396 2.673200 -0.044800 0.181899 0.982296 0.000000 1.000000
4 -124.744698 124.060608 14.656700 0.039499 -0.117597 0.992276 0.000000 0.000000
tree_08.tga
4 -79.162598 21.797001 3.041200 0.229095 -0.147397 0.962180 0.000000 0.000000
4 -110.695900 33.282799 20.464199 0.208710 -0.141106 0.967744 1.000000 0.000000
4 -123.566399 0.079796 12.745700 -0.010200 -0.008800 0.999909 1.000000 1.000000
tree_08.tga
4 -123.566399 0.079796 12.745700 -0.010200 -0.008800 0.999909 1.000000 1.000000
4 -87.870399 -22.268898 24.150499 -0.244506 0.040001 0.968822 0.000000 1.000000
4 -79.162598 21.797001 3.041200 0.229095 -0.147397 0.962180 0.000000 0.000000
tree_08.tga
4 -87.870399 -22.268898 24.150499 -0.244506 0.040001 0.968822 0.000000 0.000000
4 -123.566399 0.079796 12.745700 -0.010200 -0.008800 0.999909 1.000000 0.000000
4 -131.191803 -53.388107 2.871800 -0.339701 -0.160701 0.926703 1.000000 1.000000
tree_08.tga
4 -131.191803 -53.388107 2.871800 -0.339701 -0.160701 0.926703 1.000000 1.000000
4 -116.126595 -59.112900 6.650500 -0.310200 -0.203200 0.928701 0.000000 1.000000
4 -87.870399 -22.268898 24.150499 -0.244506 0.040001 0.968822 0.000000 0.000000
tree_08.tga
4 -55.029400 54.463699 14.398500 0.116102 -0.020800 0.993019 0.000000 0.000000
4 -96.265900 68.724899 3.499500 -0.076801 0.455706 0.886811 1.000000 0.000000
4 -110.695900 33.282799 20.464199 0.208710 -0.141106 0.967744 1.000000 1.000000
tree_08.tga
4 -110.695900 33.282799 20.464199 0.208710 -0.141106 0.967744 1.000000 1.000000
4 -79.162598 21.797001 3.041200 0.229095 -0.147397 0.962180 0.000000 1.000000
4 -55.029400 54.463699 14.398500 0.116102 -0.020800 0.993019 0.000000 0.000000
tree_08.tga
4 -148.701202 39.867897 8.093600 0.240392 0.024399 0.970369 0.000000 0.000000
4 -139.962708 72.311996 -0.544900 0.124602 0.117602 0.985213 1.000000 0.000000
4 -184.513611 90.419998 24.150499 0.088103 -0.100404 0.991038 1.000000 1.000000
tree_08.tga
4 -184.513611 90.419998 24.150499 0.088103 -0.100404 0.991038 1.000000 1.000000
4 -196.314301 50.130798 14.656700 -0.213509 -0.171107 0.961840 0.000000 1.000000
4 -148.701202 39.867897 8.093600 0.240392 0.024399 0.970369 0.000000 0.000000
tree_08.tga
4 -196.314301 50.130798 14.656700 -0.213509 -0.171107 0.961840 0.000000 0.000000
4 -184.513611 90.419998 24.150499 0.088103 -0.100404 0.991038 1.000000 0.000000
4 -230.893005 89.841202 6.886700 -0.352486 -0.125495 0.927364 1.000000 1.000000
tree_08.tga
4 -230.893005 89.841202 6.886700 -0.352486 -0.125495 0.927364 1.000000 1.000000
4 -235.290619 72.171799 2.635700 -0.359820 -0.132607 0.923550 0.000000 1.000000
4 -196.314301 50.130798 14.656700 -0.213509 -0.171107 0.961840 0.000000 0.000000
tree_08.tga
4 -114.856300 30.833099 6.712600 -0.080798 0.124097 0.988975 0.000000 0.000000
4 -102.701500 73.271698 9.436800 -0.259000 0.012200 0.965800 1.000000 0.000000
4 -139.962708 72.311996 -0.544900 0.124602 0.117602 0.985213 1.000000 1.000000
tree_08.tga
4 -139.962708 72.311996 -0.544900 0.124602 0.117602 0.985213 1.000000 1.000000
4 -148.701202 39.867897 8.093600 0.240392 0.024399 0.970369 0.000000 1.000000
4 -114.856300 30.833099 6.712600 -0.080798 0.124097 0.988975 0.000000 0.000000
tree_08.tga
4 -152.752197 41.868095 2.775200 0.085800 -0.253599 0.963497 0.000000 0.000000
4 -122.117996 38.733299 0.563700 -0.069303 0.022601 0.997340 1.000000 0.000000
4 -119.125801 71.746002 11.838100 0.229907 -0.262908 0.937028 1.000000 1.000000
tree_08.tga
4 -119.125801 71.746002 11.838100 0.229907 -0.262908 0.937028 1.000000 1.000000
4 -148.787201 95.932404 28.378099 0.247488 0.021399 0.968655 0.000000 1.000000
4 -152.752197 41.868095 2.775200 0.085800 -0.253599 0.963497 0.000000 0.000000
tree_08.tga
4 -148.787201 95.932404 28.378099 0.247488 0.021399 0.968655 0.000000 0.000000
4 -119.125801 71.746002 11.838100 0.229907 -0.262908 0.937028 1.000000 0.000000
4 -119.504997 121.979904 12.169700 0.280289 0.259890 0.924065 1.000000 1.000000
tree_08.tga
4 -119.504997 121.979904 12.169700 0.280289 0.259890 0.924065 1.000000 1.000000
4 -147.111496 124.395111 12.169700 0.043098 0.492476 0.869258 0.000000 1.000000
4 -148.787201 95.932404 28.378099 0.247488 0.021399 0.968655 0.000000 0.000000
tree_08.tga
4 -156.175400 4.450897 3.499500 -0.119799 0.202198 0.971990 0.000000 0.000000
4 -113.748001 -4.258202 21.993601 -0.304012 0.376915 0.874935 1.000000 0.000000
4 -122.117996 38.733299 0.563700 -0.069303 0.022601 0.997340 1.000000 1.000000
tree_08.tga
4 -122.117996 38.733299 0.563700 -0.069303 0.022601 0.997340 1.000000 1.000000
4 -152.752197 41.868095 2.775200 0.085800 -0.253599 0.963497 0.000000 1.000000
4 -156.175400 4.450897 3.499500 -0.119799 0.202198 0.971990 0.000000 0.000000
end
