version 1
nodes
0 "Bone01" -1
1 "Bone02" 0
2 "Bone03" 1
3 "Bone04" 2
4 "Bone05" 2
5 "Bone06" 4
6 "Bone07" 2
7 "Bone08" 6
8 "Bone09" 7
9 "Sphere02" 0
end
skeleton
time 0
0 6.113506 -0.000000 0.444733 0.000000 0.000000 0.000000
1 -3.525833 -0.000000 5.288757 0.000000 0.000000 0.000000
2 -1.762916 -0.000009 211.549973 0.000000 0.000000 0.000000
3 1.762916 -0.000013 306.747437 0.000000 0.000000 0.000000
4 22.917913 -0.000002 49.361649 0.000000 0.000000 0.000000
5 68.753738 -0.000006 146.322052 0.000000 0.000000 0.000000
6 -0.000000 -0.000000 3.525833 0.000000 0.000000 0.000000
7 -31.732496 -0.000003 75.805389 0.000000 0.000000 0.000000
8 -37.021248 -0.000006 130.455811 0.000000 0.000000 0.000000
9 60.544239 32.150848 -0.498180 0.000000 0.000000 0.000000
time 1
0 6.113506 -0.000000 0.444733 0.000000 0.000000 0.000000
1 -3.525833 -0.000000 5.288757 0.000000 0.000102 0.000000
2 -1.762916 -0.000009 211.549973 0.000000 -0.000040 0.000000
3 1.762916 -0.000013 306.747406 0.000000 0.000000 0.000000
4 22.917913 -0.000002 49.361645 0.000000 0.009997 0.000000
5 68.753731 -0.000006 146.322037 0.000000 0.000000 0.000000
6 -0.000000 -0.000000 3.525840 0.000000 -0.000154 0.000000
7 -31.732496 -0.000003 75.805389 0.000000 -0.012201 0.000000
8 -37.021248 -0.000006 130.455826 0.000000 0.000000 0.000000
9 60.544239 32.150848 -0.498180 0.000000 0.000000 0.000000
time 2
0 6.113506 -0.000000 0.444733 0.000000 0.000000 0.000000
1 -3.525833 -0.000000 5.288757 0.000000 0.004455 0.000000
2 -1.762917 -0.000009 211.549988 0.000000 -0.006897 0.000000
3 1.762916 -0.000013 306.747406 0.000000 0.000000 0.000000
4 22.917913 -0.000002 49.361637 0.000000 0.017669 0.000000
5 68.753738 -0.000006 146.322037 0.000000 0.000000 0.000000
6 0.000000 -0.000000 3.525824 0.000000 -0.004344 0.000000
7 -31.732498 -0.000003 75.805405 0.000000 -0.019350 0.000000
8 -37.021252 -0.000006 130.455826 0.000000 0.000000 0.000000
9 60.544239 32.150848 -0.498180 0.000000 0.000000 0.000000
time 3
0 6.113506 -0.000000 0.444733 0.000000 0.000000 0.000000
1 -3.525833 -0.000000 5.288757 0.000000 0.009253 0.000000
2 -1.762916 -0.000009 211.549988 0.000000 -0.014945 0.000000
3 1.762916 -0.000013 306.747437 0.000000 0.000000 0.000000
4 22.917913 -0.000002 49.361637 0.000000 0.025127 0.000000
5 68.753738 -0.000006 146.322052 0.000000 0.000000 0.000000
6 -0.000000 -0.000000 3.525833 0.000000 -0.009117 0.000000
7 -31.732496 -0.000003 75.805397 0.000000 -0.024152 0.000000
8 -37.021244 -0.000006 130.455811 0.000000 0.000000 0.000000
9 60.544239 32.150848 -0.498180 0.000000 0.000000 0.000000
time 4
0 6.113506 -0.000000 0.444733 0.000000 0.000000 0.000000
1 -3.525833 -0.000000 5.288757 0.000000 0.014152 0.000000
2 -1.762916 -0.000009 211.549973 0.000000 -0.023214 0.000000
3 1.762916 -0.000013 306.747406 0.000000 0.000000 0.000000
4 22.917913 -0.000002 49.361660 0.000000 0.031913 0.000000
5 68.753738 -0.000006 146.322037 0.000000 0.000000 0.000000
6 -0.000000 -0.000000 3.525848 0.000000 -0.014173 0.000000
7 -31.732494 -0.000003 75.805374 0.000000 -0.027615 0.000000
8 -37.021252 -0.000006 130.455811 0.000000 0.000000 0.000000
9 60.544239 32.150848 -0.498180 0.000000 0.000000 0.000000
time 5
0 6.113506 -0.000000 0.444733 0.000000 0.000000 0.000000
1 -3.525833 -0.000000 5.288757 0.000000 0.018933 0.000000
2 -1.762916 -0.000009 211.549957 0.000000 -0.031314 0.000000
3 1.762916 -0.000013 306.747406 0.000000 0.000000 0.000000
4 22.917913 -0.000002 49.361629 0.000000 0.038060 0.000000
5 68.753738 -0.000006 146.322052 0.000000 0.000000 0.000000
6 0.000000 -0.000000 3.525822 0.000000 -0.019328 0.000000
7 -31.732498 -0.000003 75.805374 0.000000 -0.029970 0.000000
8 -37.021248 -0.000006 130.455841 0.000000 0.000000 0.000000
9 60.544239 32.150848 -0.498180 0.000000 0.000000 0.000000
time 6
0 6.113506 -0.000000 0.444733 0.000000 0.000000 0.000000
1 -3.525833 -0.000000 5.288757 0.000000 0.023448 0.000000
2 -1.762917 -0.000009 211.549973 0.000000 -0.038986 0.000000
3 1.762916 -0.000013 306.747437 0.000000 0.000000 0.000000
4 22.917915 -0.000002 49.361645 0.000000 0.043590 0.000000
5 68.753738 -0.000006 146.322052 0.000000 0.000000 0.000000
6 -0.000000 -0.000000 3.525824 0.000000 -0.024472 0.000000
7 -31.732496 -0.000003 75.805382 0.000000 -0.031351 0.000000
8 -37.021244 -0.000006 130.455826 0.000000 0.000000 0.000000
9 60.544239 32.150848 -0.498180 0.000000 0.000000 0.000000
time 7
0 6.113506 -0.000000 0.444733 0.000000 0.000000 0.000000
1 -3.525833 -0.000000 5.288757 0.000000 0.027607 0.000000
2 -1.762916 -0.000009 211.549957 0.000000 -0.046068 0.000000
3 1.762916 -0.000013 306.747467 0.000000 0.000000 0.000000
4 22.917912 -0.000002 49.361652 0.000000 0.048516 0.000000
5 68.753738 -0.000006 146.322052 0.000000 0.000000 0.000000
6 -0.000000 -0.000000 3.525831 0.000000 -0.029548 0.000000
7 -31.732496 -0.000003 75.805367 0.000000 -0.031830 0.000000
8 -37.021252 -0.000006 130.455811 0.000000 0.000000 0.000000
9 60.544239 32.150848 -0.498180 0.000000 0.000000 0.000000
time 8
0 6.113506 -0.000000 0.444733 0.000000 0.000000 0.000000
1 -3.525833 -0.000000 5.288757 0.000000 0.031353 0.000000
2 -1.762917 -0.000009 211.549973 0.000000 -0.052461 0.000000
3 1.762916 -0.000013 306.747406 0.000000 0.000000 0.000000
4 22.917913 -0.000002 49.361652 0.000000 0.052847 0.000000
5 68.753731 -0.000006 146.322052 0.000000 0.000000 0.000000
6 0.000000 -0.000000 3.525837 0.000000 -0.034529 0.000000
7 -31.732494 -0.000003 75.805382 0.000000 -0.031442 0.000000
8 -37.021244 -0.000006 130.455811 0.000000 0.000000 0.000000
9 60.544239 32.150848 -0.498180 0.000000 0.000000 0.000000
time 9
0 6.113506 -0.000000 0.444733 0.000000 0.000000 0.000000
1 -3.525833 -0.000000 5.288757 0.000000 0.034661 0.000000
2 -1.762916 -0.000009 211.549957 0.000000 -0.058115 0.000000
3 1.762916 -0.000013 306.747437 0.000000 0.000000 0.000000
4 22.917915 -0.000002 49.361664 0.000000 0.056586 0.000000
5 68.753738 -0.000006 146.322052 0.000000 0.000000 0.000000
6 0.000000 -0.000000 3.525833 0.000000 -0.039407 0.000000
7 -31.732496 -0.000003 75.805382 0.000000 -0.030196 0.000000
8 -37.021252 -0.000006 130.455811 0.000000 0.000000 0.000000
9 60.544239 32.150848 -0.498180 0.000000 0.000000 0.000000
time 10
0 6.113506 -0.000000 0.444733 0.000000 0.000000 0.000000
1 -3.525833 -0.000000 5.288757 0.000000 0.037519 0.000000
2 -1.762917 -0.000009 211.549973 0.000000 -0.063009 0.000000
3 1.762916 -0.000013 306.747437 0.000000 0.000000 0.000000
4 22.917913 -0.000002 49.361633 0.000000 0.059734 0.000000
5 68.753738 -0.000006 146.322083 0.000000 0.000000 0.000000
6 -0.000000 -0.000000 3.525830 0.000000 -0.044188 0.000000
7 -31.732496 -0.000003 75.805389 0.000000 -0.028090 0.000000
8 -37.021252 -0.000006 130.455795 0.000000 0.000000 0.000000
9 60.544239 32.150848 -0.498180 0.000000 0.000000 0.000000
time 11
0 6.113506 -0.000000 0.444733 0.000000 0.000000 0.000000
1 -3.525833 -0.000000 5.288757 0.000000 0.039928 0.000000
2 -1.762916 -0.000009 211.549973 0.000000 -0.067144 0.000000
3 1.762917 -0.000013 306.747467 0.000000 0.000000 0.000000
4 22.917913 -0.000002 49.361652 0.000000 0.062290 0.000000
5 68.753731 -0.000006 146.322021 0.000000 0.000000 0.000000
6 -0.000001 -0.000000 3.525823 0.000000 -0.048880 0.000000
7 -31.732496 -0.000003 75.805382 0.000000 -0.025113 0.000000
8 -37.021252 -0.000006 130.455795 0.000000 0.000000 0.000000
9 60.544239 32.150848 -0.498180 0.000000 0.000000 0.000000
time 12
0 6.113506 -0.000000 0.444733 0.000000 0.000000 0.000000
1 -3.525833 -0.000000 5.288757 0.000000 0.041895 0.000000
2 -1.762916 -0.000009 211.549957 0.000000 -0.070530 0.000000
3 1.762916 -0.000013 306.747406 0.000000 0.000000 0.000000
4 22.917912 -0.000002 49.361633 0.000000 0.064253 0.000000
5 68.753738 -0.000006 146.322052 0.000000 0.000000 0.000000
6 -0.000000 -0.000000 3.525826 0.000000 -0.053494 0.000000
7 -31.732496 -0.000003 75.805374 0.000000 -0.021257 0.000000
8 -37.021248 -0.000006 130.455795 0.000000 0.000000 0.000000
9 60.544239 32.150848 -0.498180 0.000000 0.000000 0.000000
time 13
0 6.113506 -0.000000 0.444733 0.000000 0.000000 0.000000
1 -3.525833 -0.000000 5.288757 0.000000 0.043430 0.000000
2 -1.762917 -0.000009 211.549973 0.000000 -0.073183 0.000000
3 1.762916 -0.000013 306.747437 0.000000 0.000000 0.000000
4 22.917912 -0.000002 49.361629 0.000000 0.065621 0.000000
5 68.753738 -0.000006 146.322052 0.000000 0.000000 0.000000
6 -0.000000 -0.000000 3.525831 0.000000 -0.058034 0.000000
7 -31.732496 -0.000003 75.805374 0.000000 -0.016519 0.000000
8 -37.021244 -0.000006 130.455841 0.000000 0.000000 0.000000
9 60.544239 32.150848 -0.498180 0.000000 0.000000 0.000000
time 14
0 6.113506 -0.000000 0.444733 0.000000 0.000000 0.000000
1 -3.525833 -0.000000 5.288757 0.000000 0.044543 0.000000
2 -1.762916 -0.000009 211.549957 0.000000 -0.075122 0.000000
3 1.762916 -0.000013 306.747437 0.000000 0.000000 0.000000
4 22.917913 -0.000002 49.361656 0.000000 0.066393 0.000000
5 68.753731 -0.000006 146.322037 0.000000 0.000000 0.000000
6 -0.000001 -0.000000 3.525838 0.000000 -0.062498 0.000000
7 -31.732494 -0.000003 75.805389 0.000000 -0.010908 0.000000
8 -37.021248 -0.000006 130.455811 0.000000 0.000000 0.000000
9 60.544239 32.150848 -0.498180 0.000000 0.000000 0.000000
time 15
0 6.113506 -0.000000 0.444733 0.000000 0.000000 0.000000
1 -3.525833 -0.000000 5.288757 0.000000 0.045242 0.000000
2 -1.762916 -0.000009 211.549973 0.000000 -0.076360 0.000000
3 1.762915 -0.000013 306.747437 0.000000 0.000000 0.000000
4 22.917913 -0.000002 49.361664 0.000000 0.066567 0.000000
5 68.753738 -0.000006 146.322052 0.000000 0.000000 0.000000
6 -0.000000 -0.000000 3.525839 0.000000 -0.066872 0.000000
7 -31.732494 -0.000003 75.805389 0.000000 -0.004451 0.000000
8 -37.021248 -0.000006 130.455795 0.000000 0.000000 0.000000
9 60.544239 32.150848 -0.498180 0.000000 0.000000 0.000000
time 16
0 6.113506 -0.000000 0.444733 0.000000 0.000000 0.000000
1 -3.525833 -0.000000 5.288757 0.000000 0.045535 0.000000
2 -1.762917 -0.000009 211.549988 0.000000 -0.076912 0.000000
3 1.762917 -0.000013 306.747437 0.000000 0.000000 0.000000
4 22.917913 -0.000002 49.361660 0.000000 0.066142 0.000000
5 68.753738 -0.000006 146.322052 0.000000 0.000000 0.000000
6 -0.000000 -0.000000 3.525828 0.000000 -0.071129 0.000000
7 -31.732496 -0.000003 75.805367 0.000000 0.002805 0.000000
8 -37.021248 -0.000006 130.455811 0.000000 0.000000 0.000000
9 60.544239 32.150848 -0.498180 0.000000 0.000000 0.000000
time 17
0 6.113506 -0.000000 0.444733 0.000000 0.000000 0.000000
1 -3.525833 -0.000000 5.288757 0.000000 0.045531 0.000000
2 -1.762917 -0.000009 211.549957 0.000000 -0.076931 0.000000
3 1.762916 -0.000013 306.747437 0.000000 0.000000 0.000000
4 22.917912 -0.000002 49.361645 0.000000 0.065057 0.000000
5 68.753731 -0.000006 146.322067 0.000000 0.000000 0.000000
6 0.000001 -0.000000 3.525837 0.000000 -0.071330 0.000000
7 -31.732494 -0.000003 75.805389 0.000000 0.004454 0.000000
8 -37.021248 -0.000006 130.455780 0.000000 0.000000 0.000000
9 60.544239 32.150848 -0.498180 0.000000 0.000000 0.000000
time 18
0 6.113506 -0.000000 0.444733 0.000000 0.000000 0.000000
1 -3.525833 -0.000000 5.288757 0.000000 0.045091 0.000000
2 -1.762917 -0.000009 211.549988 0.000000 -0.076262 0.000000
3 1.762915 -0.000013 306.747437 0.000000 0.000000 0.000000
4 22.917913 -0.000002 49.361656 0.000000 0.063435 0.000000
5 68.753738 -0.000006 146.322037 0.000000 0.000000 0.000000
6 -0.000001 -0.000000 3.525837 0.000000 -0.075152 0.000000
7 -31.732500 -0.000003 75.805382 0.000000 0.013003 0.000000
8 -37.021248 -0.000006 130.455811 0.000000 0.000000 0.000000
9 60.544239 32.150848 -0.498180 0.000000 0.000000 0.000000
time 19
0 6.113506 -0.000000 0.444733 0.000000 0.000000 0.000000
1 -3.525833 -0.000000 5.288757 0.000000 0.044237 0.000000
2 -1.762916 -0.000009 211.549973 0.000000 -0.074877 0.000000
3 1.762917 -0.000013 306.747467 0.000000 0.000000 0.000000
4 22.917915 -0.000002 49.361656 0.000000 0.061201 0.000000
5 68.753746 -0.000006 146.322052 0.000000 0.000000 0.000000
6 0.000001 -0.000000 3.525841 0.000000 -0.078688 0.000000
7 -31.732494 -0.000003 75.805397 0.000000 0.022045 0.000000
8 -37.021255 -0.000006 130.455811 0.000000 0.000000 0.000000
9 60.544239 32.150848 -0.498180 0.000000 0.000000 0.000000
time 20
0 6.113506 -0.000000 0.444733 0.000000 0.000000 0.000000
1 -3.525833 -0.000000 5.288757 0.000000 0.043084 0.000000
2 -1.762916 -0.000009 211.549957 0.000000 -0.072992 0.000000
3 1.762916 -0.000013 306.747437 0.000000 0.000000 0.000000
4 22.917912 -0.000002 49.361645 0.000000 0.058349 0.000000
5 68.753738 -0.000006 146.322067 0.000000 0.000000 0.000000
6 -0.000000 -0.000000 3.525844 0.000000 -0.081499 0.000000
7 -31.732496 -0.000003 75.805397 0.000000 0.030890 0.000000
8 -37.021248 -0.000006 130.455826 0.000000 0.000000 0.000000
9 60.544239 32.150848 -0.498180 0.000000 0.000000 0.000000
time 21
0 6.113506 -0.000000 0.444733 0.000000 0.000000 0.000000
1 -3.525833 -0.000000 5.288757 0.000000 0.041679 0.000000
2 -1.762916 -0.000009 211.549973 0.000000 -0.070692 0.000000
3 1.762915 -0.000013 306.747406 0.000000 0.000000 0.000000
4 22.917912 -0.000002 49.361641 0.000000 0.054870 0.000000
5 68.753738 -0.000006 146.322037 0.000000 0.000000 0.000000
6 0.000000 -0.000000 3.525840 0.000000 -0.083528 0.000000
7 -31.732496 -0.000003 75.805374 0.000000 0.039438 0.000000
8 -37.021248 -0.000006 130.455795 0.000000 0.000000 0.000000
9 60.544239 32.150848 -0.498180 0.000000 0.000000 0.000000
time 22
0 6.113506 -0.000000 0.444733 0.000000 0.000000 0.000000
1 -3.525833 -0.000000 5.288757 0.000000 0.040070 0.000000
2 -1.762917 -0.000009 211.549988 0.000000 -0.068062 0.000000
3 1.762917 -0.000013 306.747437 0.000000 0.000000 0.000000
4 22.917913 -0.000002 49.361656 0.000000 0.050757 0.000000
5 68.753746 -0.000006 146.322067 0.000000 0.000000 0.000000
6 -0.000000 -0.000000 3.525822 0.000000 -0.084739 0.000000
7 -31.732498 -0.000003 75.805405 0.000000 0.047621 0.000000
8 -37.021252 -0.000006 130.455841 0.000000 0.000000 0.000000
9 60.544239 32.150848 -0.498180 0.000000 0.000000 0.000000
time 23
0 6.113506 -0.000000 0.444733 0.000000 0.000000 0.000000
1 -3.525833 -0.000000 5.288757 0.000000 0.038064 0.000000
2 -1.762916 -0.000009 211.549973 0.000000 -0.064758 0.000000
3 1.762916 -0.000013 306.747437 0.000000 0.000000 0.000000
4 22.917913 -0.000002 49.361641 0.000000 0.046037 0.000000
5 68.753731 -0.000006 146.322052 0.000000 0.000000 0.000000
6 0.000000 -0.000000 3.525842 0.000000 -0.085244 0.000000
7 -31.732494 -0.000003 75.805397 0.000000 0.055645 0.000000
8 -37.021244 -0.000006 130.455826 0.000000 0.000000 0.000000
9 60.544239 32.150848 -0.498180 0.000000 0.000000 0.000000
time 24
0 6.113506 -0.000000 0.444733 0.000000 0.000000 0.000000
1 -3.525833 -0.000000 5.288757 0.000000 0.035967 0.000000
2 -1.762916 -0.000009 211.549973 0.000000 -0.061323 0.000000
3 1.762916 -0.000013 306.747437 0.000000 0.000000 0.000000
4 22.917912 -0.000002 49.361637 0.000000 0.040663 0.000000
5 68.753731 -0.000006 146.322037 0.000000 0.000000 0.000000
6 -0.000000 -0.000000 3.525841 0.000000 -0.084906 0.000000
7 -31.732494 -0.000003 75.805397 0.000000 0.063242 0.000000
8 -37.021248 -0.000006 130.455811 0.000000 0.000000 0.000000
9 60.544239 32.150848 -0.498180 0.000000 0.000000 0.000000
time 25
0 6.113506 -0.000000 0.444733 0.000000 0.000000 0.000000
1 -3.525833 -0.000000 5.288757 0.000000 0.033468 0.000000
2 -1.762916 -0.000009 211.549973 0.000000 -0.057203 0.000000
3 1.762917 -0.000013 306.747467 0.000000 0.000000 0.000000
4 22.917915 -0.000002 49.361660 0.000000 0.034678 0.000000
5 68.753738 -0.000006 146.322052 0.000000 0.000000 0.000000
6 -0.000000 -0.000000 3.525842 0.000000 -0.083631 0.000000
7 -31.732498 -0.000003 75.805389 0.000000 0.070301 0.000000
8 -37.021252 -0.000006 130.455811 0.000000 0.000000 0.000000
9 60.544239 32.150848 -0.498180 0.000000 0.000000 0.000000
time 26
0 6.113506 -0.000000 0.444733 0.000000 0.000000 0.000000
1 -3.525833 -0.000000 5.288757 0.000000 0.030795 0.000000
2 -1.762916 -0.000009 211.549973 0.000000 -0.052802 0.000000
3 1.762916 -0.000013 306.747437 0.000000 0.000000 0.000000
4 22.917913 -0.000002 49.361637 0.000000 0.028047 0.000000
5 68.753746 -0.000006 146.322067 0.000000 0.000000 0.000000
6 0.000000 -0.000000 3.525829 0.000000 -0.081442 0.000000
7 -31.732494 -0.000003 75.805382 0.000000 0.076815 0.000000
8 -37.021248 -0.000006 130.455811 0.000000 0.000000 0.000000
9 60.544239 32.150848 -0.498180 0.000000 0.000000 0.000000
time 27
0 6.113506 -0.000000 0.444733 0.000000 0.000000 0.000000
1 -3.525833 -0.000000 5.288757 0.000000 0.027979 0.000000
2 -1.762916 -0.000009 211.549988 0.000000 -0.048177 0.000000
3 1.762915 -0.000013 306.747437 0.000000 0.000000 0.000000
4 22.917915 -0.000002 49.361660 0.000000 0.020759 0.000000
5 68.753738 -0.000006 146.322052 0.000000 0.000000 0.000000
6 -0.000000 -0.000000 3.525840 0.000000 -0.078328 0.000000
7 -31.732500 -0.000003 75.805389 0.000000 0.082750 0.000000
8 -37.021248 -0.000006 130.455826 0.000000 0.000000 0.000000
9 60.544239 32.150848 -0.498180 0.000000 0.000000 0.000000
time 28
0 6.113506 -0.000000 0.444733 0.000000 0.000000 0.000000
1 -3.525833 -0.000000 5.288757 0.000000 0.023957 0.000000
2 -1.762916 -0.000009 211.549973 0.000000 -0.041427 0.000000
3 1.762916 -0.000013 306.747437 0.000000 0.000000 0.000000
4 22.917915 -0.000002 49.361660 0.000000 0.012980 0.000000
5 68.753746 -0.000006 146.322067 0.000000 0.000000 0.000000
6 -0.000000 -0.000000 3.525835 0.000000 -0.072826 0.000000
7 -31.732496 -0.000003 75.805374 0.000000 0.085941 0.000000
8 -37.021248 -0.000006 130.455811 0.000000 0.000000 0.000000
9 60.544239 32.150848 -0.498180 0.000000 0.000000 0.000000
time 29
0 6.113506 -0.000000 0.444733 0.000000 0.000000 0.000000
1 -3.525833 -0.000000 5.288757 0.000000 0.017932 0.000000
2 -1.762916 -0.000009 211.549973 0.000000 -0.031136 0.000000
3 1.762916 -0.000013 306.747406 0.000000 0.000000 0.000000
4 22.917913 -0.000002 49.361641 0.000000 0.004831 0.000000
5 68.753746 -0.000006 146.322083 0.000000 0.000000 0.000000
6 -0.000000 -0.000000 3.525835 0.000000 -0.063005 0.000000
7 -31.732498 -0.000003 75.805389 0.000000 0.083445 0.000000
8 -37.021248 -0.000006 130.455826 0.000000 0.000000 0.000000
9 60.544239 32.150848 -0.498180 0.000000 0.000000 0.000000
time 30
0 6.113506 -0.000000 0.444733 0.000000 0.000000 0.000000
1 -3.525833 -0.000000 5.288757 0.000000 0.012272 0.000000
2 -1.762917 -0.000009 211.549973 0.000000 -0.021524 0.000000
3 1.762917 -0.000013 306.747437 0.000000 0.000000 0.000000
4 22.917913 -0.000002 49.361668 0.000000 -0.004056 0.000000
5 68.753738 -0.000006 146.322052 0.000000 0.000000 0.000000
6 0.000000 -0.000000 3.525837 0.000000 -0.052003 0.000000
7 -31.732496 -0.000003 75.805374 0.000000 0.079866 0.000000
8 -37.021244 -0.000006 130.455826 0.000000 0.000000 0.000000
9 60.544239 32.150848 -0.498180 0.000000 0.000000 0.000000
end
