version 1
nodes
0 "Box07" -1
1 "Bone01" -1
end
skeleton
time 0
0 -380.239655 293.464111 134.723267 1.570796 -0.785398 0.000000
1 0.000001 -28.691610 62.382984 0.000000 -0.000000 0.000000
end
triangles
tile_02.jpg
0 19.328705 0.476257 48.183670 0.629897 -0.743504 0.224569 1.127800 0.604100
0 15.432953 0.502472 54.523422 0.587764 -0.722437 0.364169 1.127800 0.730500
0 -0.002228 -16.874847 44.962463 0.230690 -0.946254 0.226684 0.488000 0.730400
tile_02.jpg
0 -0.002228 -16.874847 44.962463 0.230690 -0.946254 0.226684 0.488000 0.730400
0 -0.002106 -17.556366 38.588554 -0.257469 -0.943307 0.209478 0.488000 0.603100
0 19.328705 0.476257 48.183670 0.629897 -0.743504 0.224569 1.127800 0.604100
tile_02.jpg
0 -0.002106 -17.556366 38.588554 -0.257469 -0.943307 0.209478 0.488000 0.603100
0 -0.002228 -16.874847 44.962463 0.230690 -0.946254 0.226684 0.488000 0.730400
0 -15.732391 0.511383 54.534767 -0.639292 -0.740273 0.208090 -0.158600 0.730500
tile_02.jpg
0 -15.732391 0.511383 54.534767 -0.639292 -0.740273 0.208090 -0.158600 0.730500
0 -19.627899 0.485016 48.194839 -0.542655 -0.769550 0.336628 -0.158600 0.604100
0 -0.002106 -17.556366 38.588554 -0.257469 -0.943307 0.209478 0.488000 0.603100
tile_02.jpg
0 15.432953 0.502472 54.523422 -0.730570 0.617337 0.291827 1.127800 0.730500
0 15.432922 0.499542 47.453659 -0.615411 0.788207 -0.000323 1.127800 0.604100
0 -0.002136 -11.554260 41.387421 -0.357369 0.744995 0.563267 0.488000 0.603100
tile_02.jpg
0 -0.002136 -11.554260 41.387421 -0.357369 0.744995 0.563267 0.488000 0.603100
0 -0.002228 -16.874847 44.962463 0.293443 0.740791 0.604252 0.488000 0.730400
0 15.432953 0.502472 54.523422 -0.730570 0.617337 0.291827 1.127800 0.730500
tile_02.jpg
0 -0.002228 -16.874847 44.962463 0.293443 0.740791 0.604252 0.488000 0.730400
0 -0.002136 -11.554260 41.387421 -0.357369 0.744995 0.563267 0.488000 0.603100
0 -15.732361 0.508301 47.464973 0.717917 0.598439 0.355620 -0.158600 0.604100
tile_02.jpg
0 -15.732361 0.508301 47.464973 0.717917 0.598439 0.355620 -0.158600 0.604100
0 -15.732391 0.511383 54.534767 0.741462 0.670995 -0.000290 -0.158600 0.730500
0 -0.002228 -16.874847 44.962463 0.293443 0.740791 0.604252 0.488000 0.730400
tile_02.jpg
0 0.010437 -2.106110 0.759399 0.706097 -0.617315 -0.346915 0.165900 0.020400
0 2.410370 0.069000 1.773697 0.706096 -0.617316 -0.346915 0.226400 0.020400
0 6.417999 -22.273102 49.687126 0.706101 -0.617311 -0.346914 0.327500 0.698300
tile_02.jpg
0 6.417999 -22.273102 49.687126 0.706101 -0.617311 -0.346914 0.327500 0.698300
0 0.010162 -28.080719 46.979004 0.706101 -0.617311 -0.346914 0.165900 0.698300
0 0.010437 -2.106110 0.759399 0.706097 -0.617315 -0.346915 0.165900 0.020400
tile_02.jpg
0 2.410370 0.069000 1.773697 0.706095 0.662558 0.249893 0.226400 0.020400
0 0.010376 2.244171 2.787979 0.706095 0.662558 0.249893 0.165900 0.020400
0 0.010071 -16.465546 52.395241 0.706094 0.662560 0.249893 0.165900 0.698300
tile_02.jpg
0 0.010071 -16.465546 52.395241 0.706094 0.662560 0.249893 0.165900 0.698300
0 6.417999 -22.273102 49.687126 0.706094 0.662560 0.249893 0.327500 0.698300
0 2.410370 0.069000 1.773697 0.706095 0.662558 0.249893 0.226400 0.020400
tile_02.jpg
0 0.010376 2.244171 2.787979 -0.706100 0.662557 0.249883 0.165900 0.020400
0 -2.389648 0.069000 1.773666 -0.706100 0.662557 0.249883 0.105400 0.020400
0 -6.397949 -22.273254 49.687050 -0.706098 0.662558 0.249883 0.004300 0.698300
tile_02.jpg
0 -6.397949 -22.273254 49.687050 -0.706098 0.662558 0.249883 0.004300 0.698300
0 0.010071 -16.465546 52.395241 -0.706098 0.662558 0.249883 0.165900 0.698300
0 0.010376 2.244171 2.787979 -0.706100 0.662557 0.249883 0.165900 0.020400
tile_02.jpg
0 -2.389648 0.069000 1.773666 -0.706081 -0.617325 -0.346930 0.105400 0.020400
0 0.010437 -2.106110 0.759399 -0.706081 -0.617324 -0.346929 0.165900 0.020400
0 0.010162 -28.080719 46.979004 -0.706078 -0.617327 -0.346931 0.165900 0.698300
tile_02.jpg
0 0.010162 -28.080719 46.979004 -0.706078 -0.617327 -0.346931 0.165900 0.698300
0 -6.397949 -22.273254 49.687050 -0.706078 -0.617327 -0.346931 0.004300 0.698300
0 -2.389648 0.069000 1.773666 -0.706081 -0.617325 -0.346930 0.105400 0.020400
tile_02.jpg
0 0.010162 -28.080719 46.979004 0.672769 -0.479628 -0.563329 0.165900 0.698300
0 6.417999 -22.273102 49.687126 0.672771 -0.479617 -0.563336 0.327500 0.698300
0 9.237549 -24.877167 55.271500 0.672770 -0.479623 -0.563332 0.398600 0.803000
tile_02.jpg
0 9.237549 -24.877167 55.271500 0.672770 -0.479623 -0.563332 0.398600 0.803000
0 0.010010 -33.240143 51.371719 0.672768 -0.479632 -0.563326 0.165900 0.803000
0 0.010162 -28.080719 46.979004 0.672769 -0.479628 -0.563329 0.165900 0.698300
tile_02.jpg
0 6.417999 -22.273102 49.687126 0.672763 0.739839 0.005324 0.327500 0.698300
0 0.010071 -16.465546 52.395241 0.672770 0.739833 0.005332 0.165900 0.698300
0 0.009827 -16.514191 59.171074 0.672766 0.739836 0.005327 0.165900 0.803000
tile_02.jpg
0 0.009827 -16.514191 59.171074 0.672766 0.739836 0.005327 0.165900 0.803000
0 9.237549 -24.877167 55.271500 0.672761 0.739841 0.005320 0.398600 0.803000
0 6.417999 -22.273102 49.687126 0.672763 0.739839 0.005324 0.327500 0.698300
tile_02.jpg
0 0.010071 -16.465546 52.395241 -0.672769 0.739834 0.005293 0.165900 0.698300
0 -6.397949 -22.273254 49.687050 -0.672768 0.739835 0.005300 0.004300 0.698300
0 -9.217499 -24.877228 55.271431 -0.672768 0.739834 0.005296 -0.066800 0.803000
tile_02.jpg
0 -9.217499 -24.877228 55.271431 -0.672768 0.739834 0.005296 -0.066800 0.803000
0 0.009827 -16.514191 59.171074 -0.672770 0.739833 0.005291 0.165900 0.803000
0 0.010071 -16.465546 52.395241 -0.672769 0.739834 0.005293 0.165900 0.698300
tile_02.jpg
0 -6.397949 -22.273254 49.687050 -0.672758 -0.479631 -0.563339 0.004300 0.698300
0 0.010162 -28.080719 46.979004 -0.672745 -0.479625 -0.563360 0.165900 0.698300
0 0.010010 -33.240143 51.371719 -0.672753 -0.479628 -0.563348 0.165900 0.803000
tile_02.jpg
0 0.010010 -33.240143 51.371719 -0.672753 -0.479628 -0.563348 0.165900 0.803000
0 -9.217499 -24.877228 55.271431 -0.672764 -0.479632 -0.563331 -0.066800 0.803000
0 -6.397949 -22.273254 49.687050 -0.672758 -0.479631 -0.563339 0.004300 0.698300
fire_light_01.tga
0 0.010010 -33.240143 51.371719 0.704798 -0.604619 -0.371074 0.000000 0.000000
0 9.237549 -24.877167 55.271500 0.704795 -0.604623 -0.371073 1.000000 0.000000
0 11.524658 -33.309479 73.355011 0.704799 -0.604617 -0.371074 1.000000 1.000000
fire_light_01.tga
0 11.524658 -33.309479 73.355011 0.704799 -0.604617 -0.371074 1.000000 1.000000
0 0.010071 -43.745422 68.488670 0.704802 -0.604613 -0.371076 0.000000 1.000000
0 0.010010 -33.240143 51.371719 0.704798 -0.604619 -0.371074 0.000000 0.000000
fire_light_01.tga
0 9.237549 -24.877167 55.271500 0.704789 0.672912 0.224640 0.000000 0.000000
0 0.009827 -16.514191 59.171074 0.704788 0.672913 0.224639 1.000000 0.000000
0 0.009888 -22.873688 78.221191 0.704789 0.672912 0.224640 1.000000 1.000000
fire_light_01.tga
0 0.009888 -22.873688 78.221191 0.704789 0.672912 0.224640 1.000000 1.000000
0 11.524658 -33.309479 73.355011 0.704790 0.672911 0.224640 0.000000 1.000000
0 9.237549 -24.877167 55.271500 0.704789 0.672912 0.224640 0.000000 0.000000
fire_light_01.tga
0 0.009827 -16.514191 59.171074 -0.704800 0.672901 0.224634 0.000000 0.000000
0 -9.217499 -24.877228 55.271431 -0.704802 0.672900 0.224631 1.000000 0.000000
0 -11.504761 -33.309570 73.354813 -0.704799 0.672902 0.224634 1.000000 1.000000
fire_light_01.tga
0 -11.504761 -33.309570 73.354813 -0.704799 0.672902 0.224634 1.000000 1.000000
0 0.009888 -22.873688 78.221191 -0.704798 0.672902 0.224638 0.000000 1.000000
0 0.009827 -16.514191 59.171074 -0.704800 0.672901 0.224634 0.000000 0.000000
fire_light_01.tga
0 -9.217499 -24.877228 55.271431 -0.704792 -0.604622 -0.371080 0.000000 0.000000
0 0.010010 -33.240143 51.371719 -0.704792 -0.604622 -0.371079 1.000000 0.000000
0 0.010071 -43.745422 68.488670 -0.704792 -0.604622 -0.371080 1.000000 1.000000
fire_light_01.tga
0 0.010071 -43.745422 68.488670 -0.704792 -0.604622 -0.371080 1.000000 1.000000
0 -11.504761 -33.309570 73.354813 -0.704791 -0.604623 -0.371080 0.000000 1.000000
0 -9.217499 -24.877228 55.271431 -0.704792 -0.604622 -0.371080 0.000000 0.000000
copra_gate.jpg
0 0.010010 -33.240143 51.371719 -0.000001 -0.422614 0.906310 0.946000 0.619900
0 9.237549 -24.877167 55.271500 -0.000010 -0.422614 0.906310 0.978300 0.652200
0 0.009827 -16.514191 59.171074 -0.000001 -0.422614 0.906310 0.946000 0.684400
copra_gate.jpg
0 0.009827 -16.514191 59.171074 -0.000001 -0.422614 0.906310 0.946000 0.684400
0 -9.217499 -24.877228 55.271431 0.000007 -0.422614 0.906310 0.913700 0.652200
0 0.010010 -33.240143 51.371719 -0.000001 -0.422614 0.906310 0.946000 0.619900
end
