version 1
nodes
0 "Box01" -1
1 "Box02" -1
2 "Box03" -1
3 "Box04" -1
end
skeleton
time 0
0 4.744955 -17.629133 43.262344 1.570796 0.000000 -0.523599
1 -102.329170 -62.198135 38.343452 1.570796 0.000000 -1.396263
2 63.517582 59.480507 38.106915 -1.570796 -3.141593 -1.483530
3 -64.808067 66.790520 22.988396 -1.570796 -3.141593 1.047197
end
triangles
tree_09.tga
0 -3.359399 -5.776799 0.412201 -0.895229 -0.332011 0.297210 0.002500 0.000500
0 8.235600 -34.785999 0.412201 -0.891545 -0.356318 0.279614 0.999500 0.000500
0 18.499100 -30.222500 38.950802 -0.866279 -0.313692 0.388791 0.999500 0.250200
tree_09.tga
0 18.499100 -30.222500 38.950802 -0.866279 -0.313692 0.388791 0.999500 0.250200
0 8.634600 -1.403000 38.950802 -0.782246 -0.099593 0.614957 0.002500 0.250200
0 -3.359399 -5.776799 0.412201 -0.895229 -0.332011 0.297210 0.002500 0.000500
tree_09.tga
0 8.634600 -1.403000 38.950802 -0.782246 -0.099593 0.614957 0.002500 0.250200
0 18.499100 -30.222500 38.950802 -0.866279 -0.313692 0.388791 0.999500 0.250200
0 33.867401 -25.794401 62.539101 -0.258289 0.228890 0.938561 0.999500 0.500000
tree_09.tga
0 33.867401 -25.794401 62.539101 -0.258289 0.228890 0.938561 0.999500 0.500000
0 27.462502 1.612497 48.819199 0.407106 0.474907 0.780211 0.002500 0.500000
0 8.634600 -1.403000 38.950802 -0.782246 -0.099593 0.614957 0.002500 0.250200
tree_09.tga
0 27.462502 1.612497 48.819199 0.407106 0.474907 0.780211 0.002500 0.500000
0 33.867401 -25.794401 62.539101 -0.258289 0.228890 0.938561 0.999500 0.500000
0 44.819397 -25.100000 46.222900 0.661492 0.443594 0.604692 0.999500 0.749800
tree_09.tga
0 44.819397 -25.100000 46.222900 0.661492 0.443594 0.604692 0.999500 0.749800
0 39.733803 1.745499 32.502899 0.573717 0.450213 0.684220 0.002500 0.749800
0 27.462502 1.612497 48.819199 0.407106 0.474907 0.780211 0.002500 0.500000
tree_09.tga
0 39.733803 1.745499 32.502899 0.573717 0.450213 0.684220 0.002500 0.749800
0 44.819397 -25.100000 46.222900 0.661492 0.443594 0.604692 0.999500 0.749800
0 69.784599 -29.358805 31.946100 0.489227 0.459425 0.741341 0.999500 0.999500
tree_09.tga
0 69.784599 -29.358805 31.946100 0.489227 0.459425 0.741341 0.999500 0.999500
0 67.424995 -3.971905 18.226200 0.480797 0.451097 0.751895 0.002500 0.999500
0 39.733803 1.745499 32.502899 0.573717 0.450213 0.684220 0.002500 0.749800
tree_09.tga
0 -17.860500 -22.518200 0.458900 0.182301 -0.957105 0.225201 0.000500 0.007900
0 18.545401 -14.901801 0.458900 0.200097 -0.956588 0.211897 0.997500 0.007900
0 17.058201 -4.657600 48.114399 0.164696 -0.886177 0.433089 0.997500 0.335000
tree_09.tga
0 17.058201 -4.657600 48.114399 0.164696 -0.886177 0.433089 0.997500 0.335000
0 -20.550800 -11.114999 48.114399 0.176198 -0.785391 0.593393 0.000500 0.335000
0 -17.860500 -22.518200 0.458900 0.182301 -0.957105 0.225201 0.000500 0.007900
tree_09.tga
0 -20.550800 -11.114999 48.114399 0.176198 -0.785391 0.593393 0.000500 0.335000
0 17.058201 -4.657600 48.114399 0.164696 -0.886177 0.433089 0.997500 0.335000
0 20.390003 27.172197 72.506897 0.236912 -0.398719 0.885943 0.997500 0.662200
tree_09.tga
0 20.390003 27.172197 72.506897 0.236912 -0.398719 0.885943 0.997500 0.662200
0 -21.620995 26.337000 86.226898 0.371504 -0.191302 0.908509 0.000500 0.662200
0 -20.550800 -11.114999 48.114399 0.176198 -0.785391 0.593393 0.000500 0.335000
tree_09.tga
0 -21.620995 26.337000 86.226898 0.371504 -0.191302 0.908509 0.000500 0.662200
0 20.390003 27.172197 72.506897 0.236912 -0.398719 0.885943 0.997500 0.662200
0 31.873604 66.258293 59.419300 0.395503 0.084101 0.914606 0.997500 0.989400
tree_09.tga
0 31.873604 66.258293 59.419300 0.395503 0.084101 0.914606 0.997500 0.989400
0 10.428406 95.767097 73.139198 0.481025 -0.057103 0.874845 0.000500 0.989400
0 -21.620995 26.337000 86.226898 0.371504 -0.191302 0.908509 0.000500 0.662200
tree_09.tga
0 14.451300 -13.176800 0.297798 -0.534485 0.791877 0.295392 0.002500 0.000500
0 -14.978300 -32.691597 0.297798 -0.526974 0.794761 0.301085 0.999500 0.000500
0 -6.455101 -43.306499 43.237701 -0.477400 0.704900 0.524600 0.999500 0.250200
tree_09.tga
0 -6.455101 -43.306499 43.237701 -0.477400 0.704900 0.524600 0.999500 0.250200
0 20.610600 -24.717100 43.237701 -0.532103 0.575303 0.621203 0.002500 0.250200
0 14.451300 -13.176800 0.297798 -0.534485 0.791877 0.295392 0.002500 0.000500
tree_09.tga
0 20.610600 -24.717100 43.237701 -0.532103 0.575303 0.621203 0.002500 0.250200
0 -6.455101 -43.306499 43.237701 -0.477400 0.704900 0.524600 0.999500 0.250200
0 9.084099 -57.337502 54.253601 -0.317995 0.014200 0.947986 0.999500 0.500000
tree_09.tga
0 9.084099 -57.337502 54.253601 -0.317995 0.014200 0.947986 0.999500 0.500000
0 31.610300 -40.192799 67.973503 -0.076597 -0.576680 0.813372 0.002500 0.500000
0 20.610600 -24.717100 43.237701 -0.532103 0.575303 0.621203 0.002500 0.250200
tree_09.tga
0 31.610300 -40.192799 67.973503 -0.076597 -0.576680 0.813372 0.002500 0.500000
0 9.084099 -57.337502 54.253601 -0.317995 0.014200 0.947986 0.999500 0.500000
0 20.446898 -65.099800 36.040100 0.200904 -0.778814 0.594211 0.999500 0.749800
tree_09.tga
0 20.446898 -65.099800 36.040100 0.200904 -0.778814 0.594211 0.999500 0.749800
0 41.070694 -49.664703 49.759998 0.218800 -0.720802 0.657702 0.002500 0.749800
0 31.610300 -40.192799 67.973503 -0.076597 -0.576680 0.813372 0.002500 0.500000
tree_09.tga
0 41.070694 -49.664703 49.759998 0.218800 -0.720802 0.657702 0.002500 0.749800
0 20.446898 -65.099800 36.040100 0.200904 -0.778814 0.594211 0.999500 0.749800
0 50.682091 -78.028999 20.103201 0.206106 -0.672920 0.710421 0.999500 0.999500
tree_09.tga
0 50.682091 -78.028999 20.103201 0.206106 -0.672920 0.710421 0.999500 0.999500
0 69.253403 -67.794998 20.103201 0.342307 -0.621113 0.705014 0.002500 0.999500
0 41.070694 -49.664703 49.759998 0.218800 -0.720802 0.657702 0.002500 0.749800
tree_09.tga
0 -4.539301 -33.033401 0.957100 0.939002 0.269300 0.213900 0.000500 0.007900
0 -13.182198 -1.383499 0.957100 0.940503 0.256801 0.222501 0.997500 0.007900
0 -22.939499 -4.255099 45.505798 0.859760 0.249188 0.445779 0.997500 0.335000
tree_09.tga
0 -22.939499 -4.255099 45.505798 0.859760 0.249188 0.445779 0.997500 0.335000
0 -13.221201 -36.596100 45.505798 0.733765 0.328384 0.594772 0.000500 0.335000
0 -4.539301 -33.033401 0.957100 0.939002 0.269300 0.213900 0.000500 0.007900
tree_09.tga
0 -13.221201 -36.596100 45.505798 0.733765 0.328384 0.594772 0.000500 0.335000
0 -22.939499 -4.255099 45.505798 0.859760 0.249188 0.445779 0.997500 0.335000
0 -50.106400 -19.018698 66.171600 0.260286 0.322582 0.910051 0.997500 0.662200
tree_09.tga
0 -50.106400 -19.018698 66.171600 0.260286 0.322582 0.910051 0.997500 0.662200
0 -37.790398 -52.533592 79.891502 -0.147503 0.161903 0.975720 0.000500 0.662200
0 -13.221201 -36.596100 45.505798 0.733765 0.328384 0.594772 0.000500 0.335000
tree_09.tga
0 -37.790398 -52.533592 79.891502 -0.147503 0.161903 0.975720 0.000500 0.662200
0 -50.106400 -19.018698 66.171600 0.260286 0.322582 0.910051 0.997500 0.662200
0 -82.683601 -48.598495 55.083500 -0.486291 -0.047899 0.872483 0.997500 0.989400
tree_09.tga
0 -82.683601 -48.598495 55.083500 -0.486291 -0.047899 0.872483 0.997500 0.989400
0 -62.678505 -83.358299 55.083500 -0.483110 -0.278106 0.830218 0.000500 0.989400
0 -37.790398 -52.533592 79.891502 -0.147503 0.161903 0.975720 0.000500 0.662200
tree_09.tga
1 -99.484497 -50.036701 0.755600 -0.826021 0.476912 0.300408 0.002500 0.000500
1 -113.167297 -73.735901 0.755600 -0.826021 0.476912 0.300408 0.999500 0.000500
1 -103.671799 -78.582001 34.561401 -0.790077 0.456087 0.409588 0.999500 0.250200
tree_09.tga
1 -103.671799 -78.582001 34.561401 -0.790077 0.456087 0.409588 0.999500 0.250200
1 -89.988998 -54.882801 34.561401 -0.601393 0.506494 0.617892 0.002500 0.250200
1 -99.484497 -50.036701 0.755600 -0.826021 0.476912 0.300408 0.002500 0.000500
tree_09.tga
1 -89.988998 -54.882801 34.561401 -0.601393 0.506494 0.617892 0.002500 0.250200
1 -103.671799 -78.582001 34.561401 -0.790077 0.456087 0.409588 0.999500 0.250200
1 -89.360603 -85.736198 55.252899 -0.035000 0.358196 0.932990 0.999500 0.500000
tree_09.tga
1 -89.360603 -85.736198 55.252899 -0.035000 0.358196 0.932990 0.999500 0.500000
1 -75.460297 -63.270901 43.217899 0.564422 0.090304 0.820532 0.002500 0.500000
1 -89.988998 -54.882801 34.561401 -0.601393 0.506494 0.617892 0.002500 0.250200
tree_09.tga
1 -75.460297 -63.270901 43.217899 0.564422 0.090304 0.820532 0.002500 0.500000
1 -89.360603 -85.736198 55.252899 -0.035000 0.358196 0.932990 0.999500 0.500000
1 -79.527000 -91.413696 40.940399 0.710296 -0.063900 0.700996 0.999500 0.749800
tree_09.tga
1 -79.527000 -91.413696 40.940399 0.710296 -0.063900 0.700996 0.999500 0.749800
1 -65.626701 -68.948402 28.905399 0.618311 0.038001 0.785014 0.002500 0.749800
1 -75.460297 -63.270901 43.217899 0.564422 0.090304 0.820532 0.002500 0.500000
tree_09.tga
1 -65.626701 -68.948402 28.905399 0.618311 0.038001 0.785014 0.002500 0.749800
1 -79.527000 -91.413696 40.940399 0.710296 -0.063900 0.700996 0.999500 0.749800
1 -55.097900 -105.517807 28.416901 0.513183 0.136395 0.847372 0.999500 0.999500
tree_09.tga
1 -55.097900 -105.517807 28.416901 0.513183 0.136395 0.847372 0.999500 0.999500
1 -41.197498 -83.052498 16.381901 0.513183 0.136395 0.847372 0.002500 0.999500
1 -65.626701 -68.948402 28.905399 0.618311 0.038001 0.785014 0.002500 0.749800
tree_09.tga
1 -116.761703 -48.698601 0.796501 -0.627334 -0.747641 0.217912 0.000500 0.007900
1 -92.018303 -69.460800 0.796501 -0.627334 -0.747641 0.217912 0.997500 0.007900
1 -86.440598 -61.956600 42.599701 -0.580499 -0.691898 0.429299 0.997500 0.335000
tree_09.tga
1 -86.440598 -61.956600 42.599701 -0.580499 -0.691898 0.429299 0.997500 0.335000
1 -111.184097 -41.194401 42.599701 -0.469222 -0.673532 0.571127 0.000500 0.335000
1 -116.761703 -48.698601 0.796501 -0.627334 -0.747641 0.217912 0.000500 0.007900
tree_09.tga
1 -111.184097 -41.194401 42.599701 -0.469222 -0.673532 0.571127 0.000500 0.335000
1 -86.440598 -61.956600 42.599701 -0.580499 -0.691898 0.429299 0.997500 0.335000
1 -68.958603 -41.122299 63.996601 -0.093300 -0.436602 0.894804 0.997500 0.662200
tree_09.tga
1 -68.958603 -41.122299 63.996601 -0.093300 -0.436602 0.894804 0.997500 0.662200
1 -93.919601 -19.126198 76.031601 0.249891 -0.327888 0.911067 0.000500 0.662200
1 -111.184097 -41.194401 42.599701 -0.469222 -0.673532 0.571127 0.000500 0.335000
tree_09.tga
1 -93.919601 -19.126198 76.031601 0.249891 -0.327888 0.911067 0.000500 0.662200
1 -68.958603 -41.122299 63.996601 -0.093300 -0.436602 0.894804 0.997500 0.662200
1 -51.239700 -14.736401 52.516201 0.486998 -0.071200 0.870496 0.997500 0.989400
tree_09.tga
1 -51.239700 -14.736401 52.516201 0.486998 -0.071200 0.870496 0.997500 0.989400
1 -59.390301 16.059608 64.551300 0.488485 -0.202394 0.848775 0.000500 0.989400
1 -93.919601 -19.126198 76.031601 0.249891 -0.327888 0.911067 0.000500 0.662200
tree_09.tga
1 -93.520599 -65.851898 0.655300 0.326399 0.896896 0.298399 0.002500 0.000500
1 -122.225899 -55.403900 0.655300 0.326399 0.896896 0.298399 0.999500 0.000500
1 -126.591904 -66.348198 38.321800 0.289695 0.795986 0.531491 0.999500 0.250200
tree_09.tga
1 -126.591904 -66.348198 38.321800 0.289695 0.795986 0.531491 0.999500 0.250200
1 -97.886703 -76.796097 38.321800 0.172502 0.753507 0.634406 0.002500 0.250200
1 -93.520599 -65.851898 0.655300 0.326399 0.896896 0.298399 0.002500 0.000500
tree_09.tga
1 -97.886703 -76.796097 38.321800 0.172502 0.753507 0.634406 0.002500 0.250200
1 -126.591904 -66.348198 38.321800 0.289695 0.795986 0.531491 0.999500 0.250200
1 -132.996902 -83.945900 47.984901 -0.138498 0.265596 0.954085 0.999500 0.500000
tree_09.tga
1 -132.996902 -83.945900 47.984901 -0.138498 0.265596 0.954085 0.999500 0.500000
1 -104.509300 -93.160004 60.019901 -0.441700 -0.234400 0.866001 0.002500 0.500000
1 -97.886703 -76.796097 38.321800 0.172502 0.753507 0.634406 0.002500 0.250200
tree_09.tga
1 -104.509300 -93.160004 60.019901 -0.441700 -0.234400 0.866001 0.002500 0.500000
1 -132.996902 -83.945900 47.984901 -0.138498 0.265596 0.954085 0.999500 0.500000
1 -137.332199 -95.856697 32.008099 -0.469686 -0.524984 0.709779 0.999500 0.749800
tree_09.tga
1 -137.332199 -95.856697 32.008099 -0.469686 -0.524984 0.709779 0.999500 0.749800
1 -108.844498 -105.070702 44.043201 -0.384804 -0.506505 0.771608 0.002500 0.749800
1 -104.509300 -93.160004 60.019901 -0.441700 -0.234400 0.866001 0.002500 0.500000
tree_09.tga
1 -108.844498 -105.070702 44.043201 -0.384804 -0.506505 0.771608 0.002500 0.749800
1 -137.332199 -95.856697 32.008099 -0.469686 -0.524984 0.709779 0.999500 0.749800
1 -148.101898 -125.446198 18.028400 -0.335992 -0.425489 0.840279 0.999500 0.999500
tree_09.tga
1 -148.101898 -125.446198 18.028400 -0.335992 -0.425489 0.840279 0.999500 0.999500
1 -119.396400 -135.893997 18.028400 -0.213401 -0.586403 0.781404 0.002500 0.999500
1 -108.844498 -105.070702 44.043201 -0.384804 -0.506505 0.771608 0.002500 0.749800
tree_09.tga
1 -117.960999 -63.458199 1.233601 0.802285 -0.561690 0.202096 0.000500 0.007900
1 -102.264702 -41.041698 1.233601 0.802285 -0.561690 0.202096 0.997500 0.007900
1 -108.555901 -35.969101 40.311401 0.743689 -0.520692 0.419294 0.997500 0.335000
tree_09.tga
1 -108.555901 -35.969101 40.311401 0.743689 -0.520692 0.419294 0.997500 0.335000
1 -124.252098 -58.385601 40.311401 0.726882 -0.403690 0.555586 0.000500 0.335000
1 -117.960999 -63.458199 1.233601 0.802285 -0.561690 0.202096 0.000500 0.007900
tree_09.tga
1 -124.252098 -58.385601 40.311401 0.726882 -0.403690 0.555586 0.000500 0.335000
1 -108.555901 -35.969101 40.311401 0.743689 -0.520692 0.419294 0.997500 0.335000
1 -127.430901 -22.752701 58.439301 0.491989 -0.037799 0.869780 0.997500 0.662200
tree_09.tga
1 -127.430901 -22.752701 58.439301 0.491989 -0.037799 0.869780 0.997500 0.662200
1 -143.344604 -43.935295 70.474297 0.118405 0.253210 0.960138 0.000500 0.662200
1 -124.252098 -58.385601 40.311401 0.726882 -0.403690 0.555586 0.000500 0.335000
tree_09.tga
1 -143.344604 -43.935295 70.474297 0.118405 0.253210 0.960138 0.000500 0.662200
1 -127.430901 -22.752701 58.439301 0.491989 -0.037799 0.869780 0.997500 0.662200
1 -152.145203 -5.447502 48.712898 -0.251698 0.432096 0.865992 0.997500 0.989400
tree_09.tga
1 -152.145203 -5.447502 48.712898 -0.251698 0.432096 0.865992 0.997500 0.989400
1 -167.841400 -27.863998 48.712898 -0.488578 0.342085 0.802664 0.000500 0.989400
1 -143.344604 -43.935295 70.474297 0.118405 0.253210 0.960138 0.000500 0.662200
tree_09.tga
2 90.142403 -12.645798 0.186409 0.708399 -0.643799 0.289300 0.002500 0.000500
2 107.732208 6.717297 0.186409 0.708585 -0.643686 0.289094 0.999500 0.000500
2 99.115097 12.551899 34.291405 0.679407 -0.617406 0.396504 0.999500 0.250200
tree_09.tga
2 99.115097 12.551899 34.291405 0.679407 -0.617406 0.396504 0.999500 0.250200
2 81.501999 -6.823799 34.291405 0.490395 -0.635193 0.596694 0.002500 0.250200
2 90.142403 -12.645798 0.186409 0.708399 -0.643799 0.289300 0.002500 0.000500
tree_09.tga
2 81.501999 -6.823799 34.291405 0.490395 -0.635193 0.596694 0.002500 0.250200
2 99.115097 12.551899 34.291405 0.679407 -0.617406 0.396504 0.999500 0.250200
2 86.114799 21.249298 55.166004 -0.030701 -0.384008 0.922819 0.999500 0.500000
tree_09.tga
2 86.114799 21.249298 55.166004 -0.030701 -0.384008 0.922819 0.999500 0.500000
2 68.459297 3.009998 43.024506 -0.575320 0.012801 0.817828 0.002500 0.500000
2 81.501999 -6.823799 34.291405 0.490395 -0.635193 0.596694 0.002500 0.250200
tree_09.tga
2 68.459297 3.009998 43.024506 -0.575320 0.012801 0.817828 0.002500 0.500000
2 86.114799 21.249298 55.166004 -0.030701 -0.384008 0.922819 0.999500 0.500000
2 77.323502 27.943398 40.726902 -0.686694 0.199998 0.698894 0.999500 0.749800
tree_09.tga
2 77.323502 27.943398 40.726902 -0.686694 0.199998 0.698894 0.999500 0.749800
2 59.643101 9.695900 28.585304 -0.614970 0.074096 0.785062 0.002500 0.749800
2 68.459297 3.009998 43.024506 -0.575320 0.012801 0.817828 0.002500 0.500000
tree_09.tga
2 59.643101 9.695900 28.585304 -0.614970 0.074096 0.785062 0.002500 0.749800
2 77.323502 27.943398 40.726902 -0.686694 0.199998 0.698894 0.999500 0.749800
2 55.522701 44.677502 28.092602 -0.528894 -0.050399 0.847190 0.999500 0.999500
tree_09.tga
2 55.522701 44.677502 28.092602 -0.528894 -0.050399 0.847190 0.999500 0.999500
2 37.780201 26.409496 15.951002 -0.528285 -0.050299 0.847576 0.002500 0.999500
2 59.643101 9.695900 28.585304 -0.614970 0.074096 0.785062 0.002500 0.749800
tree_09.tga
2 107.113701 -16.427803 0.227707 0.712726 0.669424 0.209508 0.000500 0.007900
2 85.974800 6.090096 0.227707 0.712890 0.669190 0.209697 0.997500 0.007900
2 79.159103 0.136101 42.400803 0.661993 0.621793 0.418495 0.997500 0.335000
tree_09.tga
2 79.159103 0.136101 42.400803 0.661993 0.621793 0.418495 0.997500 0.335000
2 100.325302 -22.388206 42.400806 0.553020 0.621922 0.554420 0.000500 0.335000
2 107.113701 -16.427803 0.227707 0.712726 0.669424 0.209508 0.000500 0.007900
tree_09.tga
2 100.325302 -22.388206 42.400806 0.553020 0.621922 0.554420 0.000500 0.335000
2 79.159103 0.136101 42.400803 0.661993 0.621793 0.418495 0.997500 0.335000
2 58.287498 -16.181793 63.987106 0.153700 0.442899 0.883299 0.997500 0.662200
tree_09.tga
2 58.287498 -16.181793 63.987106 0.153700 0.442899 0.883299 0.997500 0.662200
2 79.546898 -39.887398 76.128609 -0.199800 0.386001 0.900602 0.000500 0.662200
2 100.325302 -22.388206 42.400806 0.553020 0.621922 0.554420 0.000500 0.335000
tree_09.tga
2 79.546898 -39.887398 76.128609 -0.199800 0.386001 0.900602 0.000500 0.662200
2 58.287498 -16.181793 63.987106 0.153700 0.442899 0.883299 0.997500 0.662200
2 36.335899 -37.692909 52.405109 -0.468789 0.160096 0.868680 0.997500 0.989400
tree_09.tga
2 36.335899 -37.692909 52.405109 -0.468789 0.160096 0.868680 0.997500 0.989400
2 39.568401 -67.111702 64.546608 -0.447589 0.298693 0.842880 0.000500 0.989400
2 79.546898 -39.887398 76.128609 -0.199800 0.386001 0.900602 0.000500 0.662200
tree_09.tga
2 86.858200 2.589096 0.085205 -0.439611 -0.853821 0.278807 0.002500 0.000500
2 113.663406 -11.187408 0.085205 -0.439000 -0.854300 0.278300 0.999500 0.000500
2 119.837097 -1.979004 38.085102 -0.393591 -0.764183 0.510989 0.999500 0.250200
tree_09.tga
2 119.837097 -1.979004 38.085102 -0.393591 -0.764183 0.510989 0.999500 0.250200
2 93.057899 11.829895 38.085102 -0.280402 -0.742605 0.608204 0.002500 0.250200
2 86.858200 2.589096 0.085205 -0.439611 -0.853821 0.278807 0.002500 0.000500
tree_09.tga
2 93.057899 11.829895 38.085102 -0.280402 -0.742605 0.608204 0.002500 0.250200
2 119.837097 -1.979004 38.085102 -0.393591 -0.764183 0.510989 0.999500 0.250200
2 129.188705 12.872601 47.833702 0.092002 -0.304608 0.948024 0.999500 0.500000
tree_09.tga
2 129.188705 12.872601 47.833702 0.092002 -0.304608 0.948024 0.999500 0.500000
2 102.454399 25.588200 59.975204 0.478408 0.184603 0.858515 0.002500 0.500000
2 93.057899 11.829895 38.085102 -0.280402 -0.742605 0.608204 0.002500 0.250200
tree_09.tga
2 102.454399 25.588200 59.975204 0.478408 0.184603 0.858515 0.002500 0.500000
2 129.188705 12.872601 47.833702 0.092002 -0.304608 0.948024 0.999500 0.500000
2 135.544006 22.892197 31.715504 0.540989 0.470090 0.697385 0.999500 0.749800
tree_09.tga
2 135.544006 22.892197 31.715504 0.540989 0.470090 0.697385 0.999500 0.749800
2 108.836197 35.646004 43.857105 0.457732 0.465233 0.757654 0.002500 0.749800
2 102.454399 25.588200 59.975204 0.478408 0.184603 0.858515 0.002500 0.500000
tree_09.tga
2 108.836197 35.646004 43.857105 0.457732 0.465233 0.757654 0.002500 0.749800
2 135.544006 22.892197 31.715504 0.540989 0.470090 0.697385 0.999500 0.749800
2 151.421707 47.669296 17.612101 0.400704 0.390104 0.829009 0.999500 0.999500
tree_09.tga
2 151.421707 47.669296 17.612101 0.400704 0.390104 0.829009 0.999500 0.999500
2 124.784897 61.660702 17.612103 0.303613 0.578026 0.757433 0.002500 0.999500
2 108.836197 35.646004 43.857105 0.457732 0.465233 0.757654 0.002500 0.749800
tree_09.tga
2 110.765900 -3.283203 0.668705 -0.667291 0.719491 0.192497 0.000500 0.007900
2 91.422302 -21.211304 0.668709 -0.667003 0.719703 0.192701 0.997500 0.007900
2 96.853104 -26.732109 40.092209 -0.621501 0.670001 0.406000 0.997500 0.335000
tree_09.tga
2 96.853104 -26.732109 40.092209 -0.621501 0.670001 0.406000 0.997500 0.335000
2 116.176201 -8.801399 40.092209 -0.633537 0.551232 0.542931 0.000500 0.335000
2 110.765900 -3.283203 0.668705 -0.667291 0.719491 0.192497 0.000500 0.007900
tree_09.tga
2 116.176201 -8.801399 40.092209 -0.633537 0.551232 0.542931 0.000500 0.335000
2 96.853104 -26.732109 40.092209 -0.621501 0.670001 0.406000 0.997500 0.335000
2 113.504799 -41.412994 58.380608 -0.479589 0.130197 0.867780 0.997500 0.662200
tree_09.tga
2 113.504799 -41.412994 58.380608 -0.479589 0.130197 0.867780 0.997500 0.662200
2 132.787903 -24.623695 70.522110 -0.156599 -0.252298 0.954894 0.000500 0.662200
2 116.176201 -8.801399 40.092209 -0.633537 0.551232 0.542931 0.000500 0.335000
tree_09.tga
2 132.787903 -24.623695 70.522110 -0.156599 -0.252298 0.954894 0.000500 0.662200
2 113.504799 -41.412994 58.380608 -0.479589 0.130197 0.867780 0.997500 0.662200
2 135.374496 -60.482399 48.568111 0.178004 -0.504410 0.844917 0.997500 0.989400
tree_09.tga
2 135.374496 -60.482399 48.568111 0.178004 -0.504410 0.844917 0.997500 0.989400
2 154.572693 -42.553505 48.568108 0.421388 -0.451187 0.786678 0.000500 0.989400
2 132.787903 -24.623695 70.522110 -0.156599 -0.252298 0.954894 0.000500 0.662200
tree_09.tga
3 -55.714500 73.205803 -0.889898 -0.300193 0.861179 0.410190 0.002500 0.000500
3 -80.130402 64.337601 0.147697 -0.295094 0.860881 0.414491 0.999500 0.000500
3 -75.777298 55.709000 21.164898 -0.275288 0.795864 0.539275 0.999500 0.250200
tree_09.tga
3 -75.777298 55.709000 21.164898 -0.275288 0.795864 0.539275 0.999500 0.250200
3 -51.351002 64.595200 20.672501 -0.125903 0.665815 0.735417 0.002500 0.250200
3 -55.714500 73.205803 -0.889898 -0.300193 0.861179 0.410190 0.002500 0.000500
tree_09.tga
3 -51.351002 64.595200 20.672501 -0.125903 0.665815 0.735417 0.002500 0.250200
3 -75.777298 55.709000 21.164898 -0.275288 0.795864 0.539275 0.999500 0.250200
3 -69.627502 41.943100 33.914299 0.142592 0.206288 0.968046 0.999500 0.500000
tree_09.tga
3 -69.627502 41.943100 33.914299 0.142592 0.206288 0.968046 0.999500 0.500000
3 -45.841400 49.720200 26.296801 0.363483 -0.220790 0.905059 0.002500 0.500000
3 -51.351002 64.595200 20.672501 -0.125903 0.665815 0.735417 0.002500 0.250200
tree_09.tga
3 -45.841400 49.720200 26.296801 0.363483 -0.220790 0.905059 0.002500 0.500000
3 -69.627502 41.943100 33.914299 0.142592 0.206288 0.968046 0.999500 0.500000
3 -65.997002 31.704399 25.385498 0.395793 -0.382293 0.834985 0.999500 0.749800
tree_09.tga
3 -65.997002 31.704399 25.385498 0.395793 -0.382293 0.834985 0.999500 0.749800
3 -42.254902 39.405403 17.620098 0.375494 -0.259396 0.889785 0.002500 0.749800
3 -45.841400 49.720200 26.296801 0.363483 -0.220790 0.905059 0.002500 0.500000
tree_09.tga
3 -42.254902 39.405403 17.620098 0.375494 -0.259396 0.889785 0.002500 0.749800
3 -65.997002 31.704399 25.385498 0.395793 -0.382293 0.834985 0.999500 0.749800
3 -56.920300 6.368900 18.387695 0.347107 -0.132503 0.928418 0.999500 0.999500
tree_09.tga
3 -56.920300 6.368900 18.387695 0.347107 -0.132503 0.928418 0.999500 0.999500
3 -33.215199 14.005905 10.602397 0.347602 -0.132701 0.928205 0.002500 0.999500
3 -42.254902 39.405403 17.620098 0.375494 -0.259396 0.889785 0.002500 0.749800
tree_09.tga
3 -67.472801 84.726196 -1.077499 -0.927532 -0.154505 0.340312 0.000500 0.007900
3 -62.128502 54.534805 0.146399 -0.926740 -0.150106 0.344415 0.997500 0.007900
3 -53.033401 57.375401 25.857800 -0.819338 -0.133606 0.557526 0.997500 0.335000
tree_09.tga
3 -53.033401 57.375401 25.857800 -0.819338 -0.133606 0.557526 0.997500 0.335000
3 -58.363800 87.591202 25.429703 -0.689183 -0.178796 0.702182 0.000500 0.335000
3 -67.472801 84.726196 -1.077499 -0.927532 -0.154505 0.340312 0.000500 0.007900
tree_09.tga
3 -58.363800 87.591202 25.429703 -0.689183 -0.178796 0.702182 0.000500 0.335000
3 -53.033401 57.375401 25.857800 -0.819338 -0.133606 0.557526 0.997500 0.335000
3 -27.525002 61.972301 39.174400 -0.265808 -0.196306 0.943827 0.997500 0.662200
tree_09.tga
3 -27.525002 61.972301 39.174400 -0.265808 -0.196306 0.943827 0.997500 0.662200
3 -32.274105 93.194801 47.054302 -0.034600 -0.298797 0.953689 0.000500 0.662200
3 -58.363800 87.591202 25.429703 -0.689183 -0.178796 0.702182 0.000500 0.335000
tree_09.tga
3 -32.274105 93.194801 47.054302 -0.034600 -0.298797 0.953689 0.000500 0.662200
3 -27.525002 61.972301 39.174400 -0.265808 -0.196306 0.943827 0.997500 0.662200
3 1.461601 70.318497 31.645401 0.241495 -0.271394 0.931679 0.997500 0.989400
tree_09.tga
3 1.461601 70.318497 31.645401 0.241495 -0.271394 0.931679 0.997500 0.989400
3 14.356400 97.743210 39.505508 0.182795 -0.349390 0.918974 0.000500 0.989400
3 -32.274105 93.194801 47.054302 -0.034600 -0.298797 0.953689 0.000500 0.662200
tree_09.tga
3 -61.022701 58.070305 -0.129900 0.789376 0.464686 0.401188 0.002500 0.000500
3 -75.542702 83.185501 -0.887098 0.789078 0.468187 0.397689 0.999500 0.000500
3 -84.961800 78.651299 23.138399 0.669611 0.397306 0.627510 0.999500 0.250200
tree_09.tga
3 -84.961800 78.651299 23.138399 0.669611 0.397306 0.627510 0.999500 0.250200
3 -70.449997 53.522099 23.452997 0.530708 0.403006 0.745611 0.002500 0.250200
3 -61.022701 58.070305 -0.129900 0.789376 0.464686 0.401188 0.002500 0.000500
tree_09.tga
3 -70.449997 53.522099 23.452997 0.530708 0.403006 0.745611 0.002500 0.250200
3 -84.961800 78.651299 23.138399 0.669611 0.397306 0.627510 0.999500 0.250200
3 -100.314598 69.850098 29.391300 0.036699 0.208794 0.977271 0.999500 0.500000
tree_09.tga
3 -100.314598 69.850098 29.391300 0.036699 0.208794 0.977271 0.999500 0.500000
3 -85.176300 45.806099 36.818497 -0.328000 0.084400 0.940900 0.002500 0.500000
3 -70.449997 53.522099 23.452997 0.530708 0.403006 0.745611 0.002500 0.250200
tree_09.tga
3 -85.176300 45.806099 36.818497 -0.328000 0.084400 0.940900 0.002500 0.500000
3 -100.314598 69.850098 29.391300 0.036699 0.208794 0.977271 0.999500 0.500000
3 -110.840500 63.660400 19.885098 -0.526680 -0.068897 0.847267 0.999500 0.749800
tree_09.tga
3 -110.840500 63.660400 19.885098 -0.526680 -0.068897 0.847267 0.999500 0.749800
3 -95.654701 39.698799 27.381596 -0.443918 -0.084904 0.892036 0.002500 0.749800
3 -85.176300 45.806099 36.818497 -0.328000 0.084400 0.940900 0.002500 0.500000
tree_09.tga
3 -95.654701 39.698799 27.381596 -0.443918 -0.084904 0.892036 0.002500 0.749800
3 -110.840500 63.660400 19.885098 -0.526680 -0.068897 0.847267 0.999500 0.749800
3 -136.874405 48.482300 12.430895 -0.350409 -0.052501 0.935124 0.999500 0.999500
tree_09.tga
3 -136.874405 48.482300 12.430895 -0.350409 -0.052501 0.935124 0.999500 0.999500
3 -122.358902 23.359200 12.983994 -0.370794 -0.194197 0.908185 0.002500 0.999500
3 -95.654701 39.698799 27.381596 -0.443918 -0.084904 0.892036 0.002500 0.749800
tree_09.tga
3 -77.342201 74.745697 -0.095501 0.252696 -0.913587 0.318595 0.000500 0.007900
3 -52.243099 81.452904 -1.046198 0.256111 -0.913740 0.315414 0.997500 0.007900
3 -53.274799 89.763802 23.871202 0.227210 -0.809534 0.541323 0.997500 0.335000
tree_09.tga
3 -53.274799 89.763802 23.871202 0.227210 -0.809534 0.541323 0.997500 0.335000
3 -78.384399 83.038498 24.240101 0.264406 -0.675915 0.687916 0.000500 0.335000
3 -77.342201 74.745697 -0.095501 0.252696 -0.913587 0.318595 0.000500 0.007900
tree_09.tga
3 -78.384399 83.038498 24.240101 0.264406 -0.675915 0.687916 0.000500 0.335000
3 -53.274799 89.763802 23.871202 0.227210 -0.809534 0.541323 0.997500 0.335000
3 -58.866001 111.036697 35.492805 0.265391 -0.260191 0.928369 0.997500 0.662200
tree_09.tga
3 -58.866001 111.036697 35.492805 0.265391 -0.260191 0.928369 0.997500 0.662200
3 -83.380203 105.342499 43.339905 0.186708 0.066803 0.980142 0.000500 0.662200
3 -78.384399 83.038498 24.240101 0.264406 -0.675915 0.687916 0.000500 0.335000
tree_09.tga
3 -83.380203 105.342499 43.339905 0.186708 0.066803 0.980142 0.000500 0.662200
3 -58.866001 111.036697 35.492805 0.265391 -0.260191 0.928369 0.997500 0.662200
3 -66.315002 138.668900 28.821606 0.061500 0.371998 0.926194 0.997500 0.989400
tree_09.tga
3 -66.315002 138.668900 28.821606 0.061500 0.371998 0.926194 0.997500 0.989400
3 -91.425697 131.941803 29.065403 -0.110296 0.443885 0.889270 0.000500 0.989400
3 -83.380203 105.342499 43.339905 0.186708 0.066803 0.980142 0.000500 0.662200
end
