version 1
nodes
0 "Mesh01" -1
end
skeleton
time 0
0 -1.236460 1.824290 23.137222 -0.000000 0.000000 3.141593
end
triangles
grave_01.jpg
0 69.059189 122.972107 23.008499 0.000000 -0.000000 1.000000 0.595700 1.001900
0 -71.532104 122.972092 23.008499 0.000000 -0.000000 1.000000 0.003600 1.001900
0 -71.532196 -119.479309 23.008499 0.000000 -0.000000 1.000000 0.003600 0.002900
grave_01.jpg
0 -71.532196 -119.479309 23.008499 0.000000 -0.000000 1.000000 0.003600 0.002900
0 69.059204 -119.479294 23.008499 0.000000 -0.000000 1.000000 0.595700 0.002900
0 69.059189 122.972107 23.008499 0.000000 -0.000000 1.000000 0.595700 1.001900
grave_01.jpg
0 69.059204 -119.479294 -0.039400 0.000000 -1.000000 0.000000 0.630800 0.215100
0 69.059204 -119.479294 23.008499 0.000000 -1.000000 0.000000 0.728400 0.215100
0 -71.532196 -119.479309 23.008499 0.000000 -1.000000 0.000000 0.728400 0.770400
grave_01.jpg
0 -71.532196 -119.479309 23.008499 0.000000 -1.000000 0.000000 0.728400 0.770400
0 -71.532196 -119.479309 -0.039400 0.000000 -1.000000 0.000000 0.630800 0.770400
0 69.059204 -119.479294 -0.039400 0.000000 -1.000000 0.000000 0.630800 0.215100
grave_01.jpg
0 69.059189 122.991905 -0.039400 1.000000 0.000000 0.000000 0.625100 0.002900
0 69.059189 122.972107 23.008499 1.000000 0.000000 0.000000 0.734100 0.003000
0 69.059204 -119.479294 23.008499 1.000000 0.000000 0.000000 0.734100 1.001900
grave_01.jpg
0 69.059204 -119.479294 23.008499 1.000000 0.000000 0.000000 0.734100 1.001900
0 69.059204 -119.479294 -0.039400 1.000000 0.000000 0.000000 0.625100 1.001900
0 69.059189 122.991905 -0.039400 1.000000 0.000000 0.000000 0.625100 0.002900
grave_01.jpg
0 -71.532104 122.991890 -0.039400 -0.000000 1.000000 0.001000 0.630800 0.770400
0 -71.532104 122.972092 23.008499 -0.000000 1.000000 0.001000 0.728400 0.770400
0 69.059189 122.972107 23.008499 -0.000000 1.000000 0.001000 0.728400 0.215100
grave_01.jpg
0 69.059189 122.972107 23.008499 -0.000000 1.000000 0.001000 0.728400 0.215100
0 69.059189 122.991905 -0.039400 -0.000000 1.000000 0.001000 0.630800 0.215100
0 -71.532104 122.991890 -0.039400 -0.000000 1.000000 0.001000 0.630800 0.770400
grave_01.jpg
0 -71.532196 -119.479309 -0.039400 -1.000000 -0.000000 0.000000 0.625100 1.001900
0 -71.532196 -119.479309 23.008499 -1.000000 -0.000000 0.000000 0.734100 1.001900
0 -71.532104 122.972092 23.008499 -1.000000 -0.000000 0.000000 0.734100 0.003000
grave_01.jpg
0 -71.532104 122.972092 23.008499 -1.000000 -0.000000 0.000000 0.734100 0.003000
0 -71.532104 122.991890 -0.039400 -1.000000 -0.000000 0.000000 0.625100 0.002900
0 -71.532196 -119.479309 -0.039400 -1.000000 -0.000000 0.000000 0.625100 1.001900
grave_01.jpg
0 -21.486191 -110.530701 49.187099 -0.542899 -0.000000 0.839798 0.220700 0.039800
0 -21.486202 24.488400 49.187099 -0.542899 -0.000000 0.839798 0.220700 0.596100
0 -61.985588 -110.530708 23.007200 -0.542899 -0.000000 0.839798 0.045000 0.039800
grave_01.jpg
0 -61.985600 1.256395 23.007200 -0.542899 -0.000000 0.839798 0.045000 0.500400
0 -61.985588 -110.530708 23.007200 -0.542899 -0.000000 0.839798 0.045000 0.039800
0 -21.486202 24.488400 49.187099 -0.542899 -0.000000 0.839798 0.220700 0.596100
grave_01.jpg
0 19.013309 -110.530701 49.187099 0.000000 -0.000000 1.000000 0.378600 0.039800
0 19.013298 24.488400 49.187099 0.000000 -0.000000 1.000000 0.378600 0.596100
0 -21.486191 -110.530701 49.187099 0.000000 -0.000000 1.000000 0.220700 0.039800
grave_01.jpg
0 -21.486202 24.488400 49.187099 0.000000 -0.000000 1.000000 0.220700 0.596100
0 -21.486191 -110.530701 49.187099 0.000000 -0.000000 1.000000 0.220700 0.039800
0 19.013298 24.488400 49.187099 0.000000 -0.000000 1.000000 0.378600 0.596100
grave_01.jpg
0 59.512711 -110.530693 23.007200 0.542899 0.000000 0.839798 0.554300 0.039800
0 59.512699 1.256405 23.007200 0.542899 0.000000 0.839798 0.554300 0.500400
0 19.013309 -110.530701 49.187099 0.542899 0.000000 0.839798 0.378600 0.039800
grave_01.jpg
0 19.013298 24.488400 49.187099 0.542899 0.000000 0.839798 0.378600 0.596100
0 19.013309 -110.530701 49.187099 0.542899 0.000000 0.839798 0.378600 0.039800
0 59.512699 1.256405 23.007200 0.542899 0.000000 0.839798 0.554300 0.500400
grave_01.jpg
0 -21.486202 24.488400 49.187099 0.000000 -0.000000 1.000000 0.220700 0.596100
0 -21.486206 64.543594 49.187099 0.000000 -0.000000 1.000000 0.220700 0.761200
0 -61.985603 24.488396 49.187099 0.000000 -0.000000 1.000000 0.045000 0.596100
grave_01.jpg
0 -61.985603 64.543594 49.187099 0.000000 -0.000000 1.000000 0.045000 0.761200
0 -61.985603 24.488396 49.187099 0.000000 -0.000000 1.000000 0.045000 0.596100
0 -21.486206 64.543594 49.187099 0.000000 -0.000000 1.000000 0.220700 0.761200
grave_01.jpg
0 19.013298 24.488400 49.187099 0.000000 -0.000000 1.000000 0.378600 0.596100
0 19.013294 64.543602 49.187099 0.000000 -0.000000 1.000000 0.378600 0.761200
0 -21.486202 24.488400 49.187099 0.000000 -0.000000 1.000000 0.220700 0.596100
grave_01.jpg
0 -21.486206 64.543594 49.187099 0.000000 -0.000000 1.000000 0.220700 0.761200
0 -21.486202 24.488400 49.187099 0.000000 -0.000000 1.000000 0.220700 0.596100
0 19.013294 64.543602 49.187099 0.000000 -0.000000 1.000000 0.378600 0.761200
grave_01.jpg
0 59.512695 24.488403 49.187099 0.000000 -0.000000 1.000000 0.554300 0.596100
0 59.512695 64.543602 49.187099 0.000000 -0.000000 1.000000 0.554300 0.761200
0 19.013298 24.488400 49.187099 0.000000 -0.000000 1.000000 0.378600 0.596100
grave_01.jpg
0 19.013294 64.543602 49.187099 0.000000 -0.000000 1.000000 0.378600 0.761200
0 19.013298 24.488400 49.187099 0.000000 -0.000000 1.000000 0.378600 0.596100
0 59.512695 64.543602 49.187099 0.000000 -0.000000 1.000000 0.554300 0.761200
grave_01.jpg
0 -21.486206 64.543594 49.187099 -0.542899 -0.000000 0.839798 0.220700 0.761200
0 -21.486210 114.179199 49.187099 -0.542899 -0.000000 0.839798 0.220700 0.965700
0 -61.985607 87.775696 23.007200 -0.542899 -0.000000 0.839798 0.045000 0.856900
grave_01.jpg
0 -61.985611 114.179192 23.007200 -0.542899 -0.000000 0.839798 0.045000 0.965700
0 -61.985607 87.775696 23.007200 -0.542899 -0.000000 0.839798 0.045000 0.856900
0 -21.486210 114.179199 49.187099 -0.542899 -0.000000 0.839798 0.220700 0.965700
grave_01.jpg
0 19.013294 64.543602 49.187099 0.000000 -0.000000 1.000000 0.378600 0.761200
0 19.013290 114.179199 49.187099 0.000000 -0.000000 1.000000 0.378600 0.965700
0 -21.486206 64.543594 49.187099 0.000000 -0.000000 1.000000 0.220700 0.761200
grave_01.jpg
0 -21.486210 114.179199 49.187099 0.000000 -0.000000 1.000000 0.220700 0.965700
0 -21.486206 64.543594 49.187099 0.000000 -0.000000 1.000000 0.220700 0.761200
0 19.013290 114.179199 49.187099 0.000000 -0.000000 1.000000 0.378600 0.965700
grave_01.jpg
0 59.512691 87.775711 23.007200 0.542899 0.000000 0.839798 0.554300 0.856900
0 59.512688 114.179207 23.007200 0.542899 0.000000 0.839798 0.554300 0.965700
0 19.013294 64.543602 49.187099 0.542899 0.000000 0.839798 0.378600 0.761200
grave_01.jpg
0 19.013290 114.179199 49.187099 0.542899 0.000000 0.839798 0.378600 0.965700
0 19.013294 64.543602 49.187099 0.542899 0.000000 0.839798 0.378600 0.761200
0 59.512688 114.179207 23.007200 0.542899 0.000000 0.839798 0.554300 0.965700
grave_01.jpg
0 59.512711 -110.530693 23.007200 0.000000 -1.000000 0.000000 0.966900 0.432100
0 19.013309 -110.530701 49.187099 0.000000 -1.000000 0.000000 0.866100 0.298900
0 -61.985588 -110.530708 23.007200 0.000000 -1.000000 0.000000 0.966900 0.032500
grave_01.jpg
0 -21.486191 -110.530701 49.187099 0.000000 -1.000000 0.000000 0.866100 0.165700
0 -61.985588 -110.530708 23.007200 0.000000 -1.000000 0.000000 0.966900 0.032500
0 19.013309 -110.530701 49.187099 0.000000 -1.000000 0.000000 0.866100 0.298900
grave_01.jpg
0 -61.985611 114.179192 23.007200 -0.000000 1.000000 0.000000 0.966800 0.032500
0 -21.486210 114.179199 49.187099 -0.000000 1.000000 0.000000 0.865900 0.165700
0 59.512688 114.179207 23.007200 -0.000000 1.000000 0.000000 0.966800 0.432100
grave_01.jpg
0 19.013290 114.179199 49.187099 -0.000000 1.000000 0.000000 0.865900 0.298900
0 59.512688 114.179207 23.007200 -0.000000 1.000000 0.000000 0.966800 0.432100
0 -21.486210 114.179199 49.187099 -0.000000 1.000000 0.000000 0.865900 0.165700
grave_01.jpg
0 -61.985603 24.488396 49.187099 0.000000 -0.709303 0.704903 0.965700 0.324900
0 -61.985600 1.256395 23.007200 0.000000 -0.709303 0.704903 0.965700 0.428200
0 -21.486202 24.488400 49.187099 0.000000 -0.709303 0.704903 0.782800 0.324900
grave_01.jpg
0 59.512699 1.256405 23.007200 0.000000 -0.709303 0.704903 0.965400 0.043500
0 59.512695 24.488403 49.187099 0.000000 -0.709303 0.704903 0.965400 0.146800
0 19.013298 24.488400 49.187099 0.000000 -0.709303 0.704903 0.782400 0.146800
grave_01.jpg
0 -61.985607 87.775696 23.007200 -0.000000 0.709303 0.704903 0.965700 0.043500
0 -61.985603 64.543594 49.187099 -0.000000 0.709303 0.704903 0.965700 0.146800
0 -21.486206 64.543594 49.187099 -0.000000 0.709303 0.704903 0.782800 0.146800
grave_01.jpg
0 -61.985600 1.256395 23.007200 -1.000000 -0.000000 0.000000 0.983200 0.097000
0 -61.985603 24.488396 49.187099 -1.000000 -0.000000 0.000000 0.889100 0.175900
0 -61.985607 87.775696 23.007200 -1.000000 -0.000000 0.000000 0.983200 0.390900
grave_01.jpg
0 -61.985603 64.543594 49.187099 -1.000000 -0.000000 0.000000 0.889100 0.312000
0 -61.985607 87.775696 23.007200 -1.000000 -0.000000 0.000000 0.983200 0.390900
0 -61.985603 24.488396 49.187099 -1.000000 -0.000000 0.000000 0.889100 0.175900
grave_01.jpg
0 59.512691 87.775711 23.007200 1.000000 0.000000 0.000000 0.983200 0.390900
0 59.512695 64.543602 49.187099 1.000000 0.000000 0.000000 0.889100 0.312000
0 59.512699 1.256405 23.007200 1.000000 0.000000 0.000000 0.983200 0.097000
grave_01.jpg
0 59.512695 24.488403 49.187099 1.000000 0.000000 0.000000 0.889100 0.175900
0 59.512699 1.256405 23.007200 1.000000 0.000000 0.000000 0.983200 0.097000
0 59.512695 64.543602 49.187099 1.000000 0.000000 0.000000 0.889100 0.312000
grave_01.jpg
0 59.512695 64.543602 49.187099 -0.000000 0.709303 0.704903 0.965400 0.324900
0 59.512691 87.775711 23.007200 -0.000000 0.709303 0.704903 0.965400 0.428200
0 19.013294 64.543602 49.187099 -0.000000 0.709303 0.704903 0.782400 0.324900
end
