version 1
nodes
0 "Bone01" -1
1 "Bone02" 0
2 "Bone03" 1
3 "Cylinder01" 0
end
skeleton
time 0
0 -72.030304 -0.000003 66.263084 0.000000 0.000000 0.000000
1 -0.269966 0.000000 -8.369003 0.000000 0.000000 0.000000
2 0.539932 0.000003 -60.472782 0.000000 0.000000 0.000000
3 36.848671 1.690460 -4.193909 -0.000000 -1.570451 0.000000
end
triangles
notice.jpg
0 -0.127411 1.690500 66.262001 0.000000 0.500011 0.866019 0.002400 0.314400
0 -112.307014 5.321500 59.972801 0.000000 0.866019 0.500011 0.044600 0.004100
0 -112.307014 1.690500 66.262001 0.000000 -0.500011 0.866019 0.002400 0.004100
notice.jpg
0 -0.127411 1.690500 66.262001 0.000000 0.500011 0.866019 0.002400 0.314400
0 -0.127411 5.321500 59.972801 0.000000 0.866019 0.500011 0.044600 0.314400
0 -112.307014 5.321500 59.972801 0.000000 0.866019 0.500011 0.044600 0.004100
notice.jpg
0 -0.127411 -1.940600 59.972801 0.000000 -0.866019 0.500011 0.044600 0.314400
0 -112.307014 1.690500 66.262001 0.000000 -0.500011 0.866019 0.002400 0.004100
0 -112.307014 -1.940600 59.972801 0.000000 -0.866019 0.500011 0.044600 0.004100
notice.jpg
0 -0.127411 -1.940600 59.972801 0.000000 -0.866019 0.500011 0.044600 0.314400
0 -0.127411 1.690500 66.262001 0.000000 0.500011 0.866019 0.002400 0.314400
0 -112.307014 1.690500 66.262001 0.000000 -0.500011 0.866019 0.002400 0.004100
notice.jpg
0 -112.307014 1.690500 66.262001 -1.000000 0.000000 0.000000 0.002400 0.004100
0 -112.307014 5.321500 59.972801 -1.000000 0.000000 0.000000 0.044600 0.004100
0 -112.307014 -1.940600 59.972801 -1.000000 0.000000 0.000000 0.044600 0.004100
notice.jpg
0 0.924187 1.690500 32.766899 0.536807 0.431005 0.725309 0.003400 0.314400
0 -43.836910 5.052600 59.940601 0.049999 0.996279 0.070199 0.044600 0.004100
0 -35.815613 1.690500 59.858601 0.535590 -0.435392 0.723586 0.003600 0.004200
notice.jpg
0 0.924187 1.690500 32.766899 0.536807 0.431005 0.725309 0.003400 0.314400
0 0.799988 5.052600 26.649498 -0.518205 0.498705 -0.694807 0.044900 0.314200
0 -43.836910 5.052600 59.940601 0.049999 0.996279 0.070199 0.044600 0.004100
notice.jpg
0 0.799988 5.052600 26.649498 -0.518205 0.498705 -0.694807 0.044900 0.314200
0 -43.836910 -1.671700 59.940601 -0.518602 -0.497602 -0.695302 0.044600 0.004100
0 -43.836910 5.052600 59.940601 0.049999 0.996279 0.070199 0.044600 0.004100
notice.jpg
0 0.799988 5.052600 26.649498 -0.518205 0.498705 -0.694807 0.044900 0.314200
0 0.799988 -1.671700 26.649498 0.048401 -0.996517 0.067901 0.044900 0.314200
0 -43.836910 -1.671700 59.940601 -0.518602 -0.497602 -0.695302 0.044600 0.004100
notice.jpg
0 0.799988 -1.671700 26.649498 0.048401 -0.996517 0.067901 0.044900 0.314200
0 -35.815613 1.690500 59.858601 0.535590 -0.435392 0.723586 0.003600 0.004200
0 -43.836910 -1.671700 59.940601 -0.518602 -0.497602 -0.695302 0.044600 0.004100
notice.jpg
0 0.799988 -1.671700 26.649498 0.048401 -0.996517 0.067901 0.044900 0.314200
0 0.924187 1.690500 32.766899 0.536807 0.431005 0.725309 0.003400 0.314400
0 -35.815613 1.690500 59.858601 0.535590 -0.435392 0.723586 0.003600 0.004200
notice.jpg
0 -35.815613 1.690500 59.858601 0.010200 0.000000 0.999948 0.003600 0.004200
0 -43.836910 5.052600 59.940601 0.010200 0.000000 0.999948 0.044600 0.004100
0 -43.836910 -1.671700 59.940601 0.010200 0.000000 0.999948 0.044600 0.004100
notice.jpg
1 -102.867004 5.141400 0.050999 0.000000 1.000000 0.000000 0.999500 0.319300
1 -102.867004 5.141400 52.913200 0.000000 1.000000 0.000000 0.999500 1.004300
1 -43.704109 5.141400 52.913200 0.000000 1.000000 0.000000 0.000500 0.999500
notice.jpg
1 -43.704109 5.141400 52.913200 0.000000 1.000000 0.000000 0.000500 0.999500
1 -43.704109 5.141400 0.050999 0.000000 1.000000 0.000000 -0.001500 0.321800
1 -102.867004 5.141400 0.050999 0.000000 1.000000 0.000000 0.999500 0.319300
notice.jpg
1 -102.867004 -2.277800 0.050999 0.000000 -1.000000 0.000000 0.000500 0.321800
1 -43.704109 -2.277800 0.050999 0.000000 -1.000000 0.000000 0.999500 0.321800
1 -43.704109 -2.277800 52.913200 0.000000 -1.000000 0.000000 0.999500 0.999500
notice.jpg
1 -43.704109 -2.277800 52.913200 0.000000 -1.000000 0.000000 0.999500 0.999500
1 -102.867004 -2.277800 52.913200 0.000000 -1.000000 0.000000 0.000500 0.999500
1 -102.867004 -2.277800 0.050999 0.000000 -1.000000 0.000000 0.000500 0.321800
notice.jpg
1 -102.867004 5.141400 0.050999 0.000000 0.000000 -1.000000 0.219600 0.385600
1 -43.704109 5.141400 0.050999 0.000000 0.000000 -1.000000 0.918700 0.401800
1 -43.704109 -2.277800 0.050999 0.000000 0.000000 -1.000000 0.915600 0.348800
notice.jpg
1 -43.704109 -2.277800 0.050999 0.000000 0.000000 -1.000000 0.915600 0.348800
1 -102.867004 -2.277800 0.050999 0.000000 0.000000 -1.000000 0.223400 0.341100
1 -102.867004 5.141400 0.050999 0.000000 0.000000 -1.000000 0.219600 0.385600
notice.jpg
1 -43.704109 5.141400 0.050999 1.000000 0.000000 0.000000 0.946300 0.323300
1 -43.704109 5.141400 52.913200 1.000000 0.000000 0.000000 0.946300 0.997100
1 -43.704109 -2.277800 52.913200 1.000000 0.000000 0.000000 0.998500 0.997300
notice.jpg
1 -43.704109 -2.277800 52.913200 1.000000 0.000000 0.000000 0.998500 0.997300
1 -43.704109 -2.277800 0.050999 1.000000 0.000000 0.000000 0.997500 0.322300
1 -43.704109 5.141400 0.050999 1.000000 0.000000 0.000000 0.946300 0.323300
notice.jpg
1 -43.704109 5.141400 52.913200 0.000000 0.000000 1.000000 0.832800 0.506700
1 -102.867004 5.141400 52.913200 0.000000 0.000000 1.000000 0.229400 0.506200
1 -102.867004 -2.277800 52.913200 0.000000 0.000000 1.000000 0.230300 0.436400
notice.jpg
1 -102.867004 -2.277800 52.913200 0.000000 0.000000 1.000000 0.230300 0.436400
1 -43.704109 -2.277800 52.913200 0.000000 0.000000 1.000000 0.829800 0.444100
1 -43.704109 5.141400 52.913200 0.000000 0.000000 1.000000 0.832800 0.506700
notice.jpg
1 -102.867004 5.141400 52.913200 -1.000000 0.000000 0.000000 0.071000 0.990500
1 -102.867004 5.141400 0.050999 -1.000000 0.000000 0.000000 0.071900 0.324000
1 -102.867004 -2.277800 0.050999 -1.000000 0.000000 0.000000 0.004900 0.325400
notice.jpg
1 -102.867004 -2.277800 0.050999 -1.000000 0.000000 0.000000 0.004900 0.325400
1 -102.867004 -2.277800 52.913200 -1.000000 0.000000 0.000000 0.004900 0.991900
1 -102.867004 5.141400 52.913200 -1.000000 0.000000 0.000000 0.071000 0.990500
signboard.tga
0 -118.877708 1.495300 55.201698 0.000000 -1.000000 0.000000 0.000500 0.000500
0 -11.047607 1.495300 55.201698 0.000000 -1.000000 0.000000 0.999500 0.000500
0 -11.047607 1.495300 81.772400 0.000000 -1.000000 0.000000 0.999500 0.999500
signboard.tga
0 -11.047607 1.495300 81.772400 0.000000 -1.000000 0.000000 0.999500 0.999500
0 -118.877708 1.495300 81.772400 0.000000 -1.000000 0.000000 0.000500 0.999500
0 -118.877708 1.495300 55.201698 0.000000 -1.000000 0.000000 0.000500 0.000500
doorknob.tga
1 -90.409012 7.930900 49.764900 -1.000000 0.000000 0.000000 0.000500 0.999500
1 -90.409012 -4.635500 49.764900 -1.000000 0.000000 0.000000 0.000500 0.000500
1 -90.409012 -4.635500 62.331299 -1.000000 0.000000 0.000000 0.999500 0.000500
doorknob.tga
1 -90.409012 -4.635500 62.331299 -1.000000 0.000000 0.000000 0.999500 0.000500
1 -90.409012 7.930900 62.331299 -1.000000 0.000000 0.000000 0.999500 0.999500
1 -90.409012 7.930900 49.764900 -1.000000 0.000000 0.000000 0.000500 0.999500
doorknob.tga
1 -54.091408 7.930900 49.764900 -1.000000 0.000000 0.000000 0.000500 0.999500
1 -54.091408 -4.635500 49.764900 -1.000000 0.000000 0.000000 0.000500 0.000500
1 -54.091408 -4.635500 62.331299 -1.000000 0.000000 0.000000 0.999500 0.000500
doorknob.tga
1 -54.091408 -4.635500 62.331299 -1.000000 0.000000 0.000000 0.999500 0.000500
1 -54.091408 7.930900 62.331299 -1.000000 0.000000 0.000000 0.999500 0.999500
1 -54.091408 7.930900 49.764900 -1.000000 0.000000 0.000000 0.000500 0.999500
end
