version 1
nodes
0 "ston02" -1
end
skeleton
time 0
0 19.150909 -11.221741 2.552612 0.000000 -0.270526 -0.907571
end
triangles
ston01.jpg
0 77.756401 9.207001 63.400097 0.983614 -0.155402 0.091401 0.903300 0.832100
0 84.656097 -13.998403 -4.756799 0.979192 -0.143299 0.143699 1.152000 0.589000
0 72.254608 44.515594 -7.583601 0.823813 0.491508 -0.282404 0.814400 0.731300
ston01.jpg
0 77.756401 9.207001 63.400097 0.983614 -0.155402 0.091401 0.903300 0.832100
0 72.254608 44.515594 -7.583601 0.823813 0.491508 -0.282404 0.814400 0.731300
0 81.085403 70.727600 78.820389 0.814986 0.576690 -0.056799 0.583400 1.135700
ston01.jpg
0 72.254608 44.515594 -7.583601 0.823813 0.491508 -0.282404 0.814400 0.731300
0 24.738699 64.813591 -6.249802 0.193201 0.775002 -0.601702 0.526400 0.520300
0 34.239204 81.775902 18.649696 0.282990 0.889769 -0.358088 0.439600 0.716300
ston01.jpg
0 72.254608 44.515594 -7.583601 0.823813 0.491508 -0.282404 0.814400 0.731300
0 34.239204 81.775902 18.649696 0.282990 0.889769 -0.358088 0.439600 0.716300
0 81.085403 70.727600 78.820389 0.814986 0.576690 -0.056799 0.583400 1.135700
ston01.jpg
0 81.085403 70.727600 78.820389 0.814986 0.576690 -0.056799 0.583400 1.135700
0 34.239204 81.775902 18.649696 0.282990 0.889769 -0.358088 0.439600 0.716300
0 43.245499 83.106407 102.242493 0.364104 0.929010 -0.066101 0.338500 1.017200
ston01.jpg
0 77.756401 9.207001 63.400097 0.983614 -0.155402 0.091401 0.903300 0.832100
0 81.085403 70.727600 78.820389 0.814986 0.576690 -0.056799 0.583400 1.135700
0 74.809608 52.001205 163.331085 0.988464 -0.058998 0.139495 0.522500 1.267000
ston01.jpg
0 81.085403 70.727600 78.820389 0.814986 0.576690 -0.056799 0.583400 1.135700
0 43.245499 83.106407 102.242493 0.364104 0.929010 -0.066101 0.338500 1.017200
0 59.744404 83.027397 203.450684 0.526183 0.774874 0.350288 0.246300 1.409500
ston01.jpg
0 81.085403 70.727600 78.820389 0.814986 0.576690 -0.056799 0.583400 1.135700
0 59.744404 83.027397 203.450684 0.526183 0.774874 0.350288 0.246300 1.409500
0 74.809608 52.001205 163.331085 0.988464 -0.058998 0.139495 0.522500 1.267000
ston01.jpg
0 74.809608 52.001205 163.331085 0.988464 -0.058998 0.139495 0.522500 1.267000
0 59.744404 83.027397 203.450684 0.526183 0.774874 0.350288 0.246300 1.409500
0 52.324299 34.095108 249.659286 0.677379 0.096497 0.729277 0.391900 1.306400
ston01.jpg
0 77.756401 9.207001 63.400097 0.983614 -0.155402 0.091401 0.903300 0.832100
0 74.809608 52.001205 163.331085 0.988464 -0.058998 0.139495 0.522500 1.267000
0 50.970398 -20.402199 112.029793 0.968485 -0.218097 0.120298 0.873100 0.691300
ston01.jpg
0 74.809608 52.001205 163.331085 0.988464 -0.058998 0.139495 0.522500 1.267000
0 52.324299 34.095108 249.659286 0.677379 0.096497 0.729277 0.391900 1.306400
0 61.790195 -29.522097 212.531693 0.884948 -0.391221 0.252614 0.805400 1.011400
ston01.jpg
0 74.809608 52.001205 163.331085 0.988464 -0.058998 0.139495 0.522500 1.267000
0 61.790195 -29.522097 212.531693 0.884948 -0.391221 0.252614 0.805400 1.011400
0 50.970398 -20.402199 112.029793 0.968485 -0.218097 0.120298 0.873100 0.691300
ston01.jpg
0 50.970398 -20.402199 112.029793 0.968485 -0.218097 0.120298 0.873100 0.691300
0 61.790195 -29.522097 212.531693 0.884948 -0.391221 0.252614 0.805400 1.011400
0 47.036800 -63.223000 130.142700 0.921503 -0.361401 0.142201 1.044900 0.552900
ston01.jpg
0 77.756401 9.207001 63.400097 0.983614 -0.155402 0.091401 0.903300 0.832100
0 50.970398 -20.402199 112.029793 0.968485 -0.218097 0.120298 0.873100 0.691300
0 84.656097 -13.998403 -4.756799 0.979192 -0.143299 0.143699 1.152000 0.589000
ston01.jpg
0 50.970398 -20.402199 112.029793 0.968485 -0.218097 0.120298 0.873100 0.691300
0 47.036800 -63.223000 130.142700 0.921503 -0.361401 0.142201 1.044900 0.552900
0 64.465698 -75.326706 54.874905 0.935141 -0.312814 0.166307 1.289600 0.397400
ston01.jpg
0 50.970398 -20.402199 112.029793 0.968485 -0.218097 0.120298 0.873100 0.691300
0 64.465698 -75.326706 54.874905 0.935141 -0.312814 0.166307 1.289600 0.397400
0 84.656097 -13.998403 -4.756799 0.979192 -0.143299 0.143699 1.152000 0.589000
ston01.jpg
0 84.656097 -13.998403 -4.756799 0.979192 -0.143299 0.143699 1.152000 0.589000
0 64.465698 -75.326706 54.874905 0.935141 -0.312814 0.166307 1.289600 0.397400
0 72.554199 -53.346401 -6.214097 0.940710 -0.339204 0.002500 1.304900 0.357300
ston01.jpg
0 43.221504 -124.066101 -7.147096 0.449394 -0.891888 0.050799 1.548000 -0.101100
0 -5.944403 -116.769394 58.252102 -0.368210 -0.921124 0.126303 1.219800 -0.188800
0 -13.158901 -96.202499 -10.771796 -0.652966 -0.735762 -0.179691 1.195300 -0.351800
ston01.jpg
0 -25.183304 69.287598 -7.582803 -0.070999 0.789686 -0.609389 0.312700 0.225300
0 -69.263397 18.148300 -2.780502 -0.867558 0.167792 -0.468177 0.391400 -0.231700
0 -70.619499 101.334000 38.518795 -0.583691 0.740688 -0.332695 -0.095400 0.201300
ston01.jpg
0 43.245499 83.106407 102.242493 0.364104 0.929010 -0.066101 0.338500 1.017200
0 -19.769501 106.448601 64.715492 0.122095 0.979060 -0.162893 0.035300 0.610600
0 19.117098 101.918610 171.754791 0.177496 0.957679 0.226595 0.043100 1.140700
ston01.jpg
0 -19.769501 106.448601 64.715492 0.122095 0.979060 -0.162893 0.035300 0.610600
0 -70.619499 101.334000 38.518795 -0.583691 0.740688 -0.332695 -0.095400 0.201300
0 -49.710808 96.388199 146.706879 -0.560686 0.800879 0.210295 -0.156900 0.622000
ston01.jpg
0 -19.769501 106.448601 64.715492 0.122095 0.979060 -0.162893 0.035300 0.610600
0 -49.710808 96.388199 146.706879 -0.560686 0.800879 0.210295 -0.156900 0.622000
0 19.117098 101.918610 171.754791 0.177496 0.957679 0.226595 0.043100 1.140700
ston01.jpg
0 19.117098 101.918610 171.754791 0.177496 0.957679 0.226595 0.043100 1.140700
0 -49.710808 96.388199 146.706879 -0.560686 0.800879 0.210295 -0.156900 0.622000
0 -20.500004 96.305603 206.166489 -0.556416 0.578316 0.596617 -0.135300 0.973000
ston01.jpg
0 52.324299 34.095108 249.659286 0.677379 0.096497 0.729277 0.391900 1.306400
0 8.526896 24.541504 258.267883 -0.229004 0.416508 0.879817 0.257000 1.023400
0 12.128598 -33.356895 252.900497 -0.096398 -0.548790 0.830384 0.570000 0.805600
ston01.jpg
0 8.526896 24.541504 258.267883 -0.229004 0.416508 0.879817 0.257000 1.023400
0 -20.500004 96.305603 206.166489 -0.556416 0.578316 0.596617 -0.135300 0.973000
0 -24.590904 7.677504 214.547882 -0.832095 -0.095799 0.546297 0.281000 0.627800
ston01.jpg
0 8.526896 24.541504 258.267883 -0.229004 0.416508 0.879817 0.257000 1.023400
0 -24.590904 7.677504 214.547882 -0.832095 -0.095799 0.546297 0.281000 0.627800
0 12.128598 -33.356895 252.900497 -0.096398 -0.548790 0.830384 0.570000 0.805600
ston01.jpg
0 12.128598 -33.356895 252.900497 -0.096398 -0.548790 0.830384 0.570000 0.805600
0 -24.590904 7.677504 214.547882 -0.832095 -0.095799 0.546297 0.281000 0.627800
0 -10.638100 -50.268394 206.107986 -0.575708 -0.669210 0.469807 0.639100 0.464900
ston01.jpg
0 47.036800 -63.223000 130.142700 0.921503 -0.361401 0.142201 1.044900 0.552900
0 35.625996 -65.943092 181.873901 0.330107 -0.868318 0.370208 0.934400 0.620300
0 33.974701 -104.137703 92.986092 0.461399 -0.827898 0.318899 1.257300 0.206600
ston01.jpg
0 35.625996 -65.943092 181.873901 0.330107 -0.868318 0.370208 0.934400 0.620300
0 -10.638100 -50.268394 206.107986 -0.575708 -0.669210 0.469807 0.639100 0.464900
0 -18.152500 -76.739891 139.503204 -0.406708 -0.829116 0.383608 0.845900 0.124400
ston01.jpg
0 35.625996 -65.943092 181.873901 0.330107 -0.868318 0.370208 0.934400 0.620300
0 -18.152500 -76.739891 139.503204 -0.406708 -0.829116 0.383608 0.845900 0.124400
0 33.974701 -104.137703 92.986092 0.461399 -0.827898 0.318899 1.257300 0.206600
ston01.jpg
0 33.974701 -104.137703 92.986092 0.461399 -0.827898 0.318899 1.257300 0.206600
0 -18.152500 -76.739891 139.503204 -0.406708 -0.829116 0.383608 0.845900 0.124400
0 -5.944403 -116.769394 58.252102 -0.368210 -0.921124 0.126303 1.219800 -0.188800
ston01.jpg
0 -70.619499 101.334000 38.518795 -0.583691 0.740688 -0.332695 -0.095400 0.201300
0 -19.769501 106.448601 64.715492 0.122095 0.979060 -0.162893 0.035300 0.610600
0 -25.183304 69.287598 -7.582803 -0.070999 0.789686 -0.609389 0.312700 0.225300
ston01.jpg
0 -19.769501 106.448601 64.715492 0.122095 0.979060 -0.162893 0.035300 0.610600
0 43.245499 83.106407 102.242493 0.364104 0.929010 -0.066101 0.338500 1.017200
0 34.239204 81.775902 18.649696 0.282990 0.889769 -0.358088 0.439600 0.716300
ston01.jpg
0 -19.769501 106.448601 64.715492 0.122095 0.979060 -0.162893 0.035300 0.610600
0 34.239204 81.775902 18.649696 0.282990 0.889769 -0.358088 0.439600 0.716300
0 -25.183304 69.287598 -7.582803 -0.070999 0.789686 -0.609389 0.312700 0.225300
ston01.jpg
0 -25.183304 69.287598 -7.582803 -0.070999 0.789686 -0.609389 0.312700 0.225300
0 34.239204 81.775902 18.649696 0.282990 0.889769 -0.358088 0.439600 0.716300
0 24.738699 64.813591 -6.249802 0.193201 0.775002 -0.601702 0.526400 0.520300
ston01.jpg
0 -20.500004 96.305603 206.166489 -0.556416 0.578316 0.596617 -0.135300 0.973000
0 8.526896 24.541504 258.267883 -0.229004 0.416508 0.879817 0.257000 1.023400
0 19.117098 101.918610 171.754791 0.177496 0.957679 0.226595 0.043100 1.140700
ston01.jpg
0 8.526896 24.541504 258.267883 -0.229004 0.416508 0.879817 0.257000 1.023400
0 52.324299 34.095108 249.659286 0.677379 0.096497 0.729277 0.391900 1.306400
0 59.744404 83.027397 203.450684 0.526183 0.774874 0.350288 0.246300 1.409500
ston01.jpg
0 8.526896 24.541504 258.267883 -0.229004 0.416508 0.879817 0.257000 1.023400
0 59.744404 83.027397 203.450684 0.526183 0.774874 0.350288 0.246300 1.409500
0 19.117098 101.918610 171.754791 0.177496 0.957679 0.226595 0.043100 1.140700
ston01.jpg
0 19.117098 101.918610 171.754791 0.177496 0.957679 0.226595 0.043100 1.140700
0 59.744404 83.027397 203.450684 0.526183 0.774874 0.350288 0.246300 1.409500
0 43.245499 83.106407 102.242493 0.364104 0.929010 -0.066101 0.338500 1.017200
ston01.jpg
0 -10.638100 -50.268394 206.107986 -0.575708 -0.669210 0.469807 0.639100 0.464900
0 35.625996 -65.943092 181.873901 0.330107 -0.868318 0.370208 0.934400 0.620300
0 12.128598 -33.356895 252.900497 -0.096398 -0.548790 0.830384 0.570000 0.805600
ston01.jpg
0 35.625996 -65.943092 181.873901 0.330107 -0.868318 0.370208 0.934400 0.620300
0 47.036800 -63.223000 130.142700 0.921503 -0.361401 0.142201 1.044900 0.552900
0 61.790195 -29.522097 212.531693 0.884948 -0.391221 0.252614 0.805400 1.011400
ston01.jpg
0 35.625996 -65.943092 181.873901 0.330107 -0.868318 0.370208 0.934400 0.620300
0 61.790195 -29.522097 212.531693 0.884948 -0.391221 0.252614 0.805400 1.011400
0 12.128598 -33.356895 252.900497 -0.096398 -0.548790 0.830384 0.570000 0.805600
ston01.jpg
0 12.128598 -33.356895 252.900497 -0.096398 -0.548790 0.830384 0.570000 0.805600
0 61.790195 -29.522097 212.531693 0.884948 -0.391221 0.252614 0.805400 1.011400
0 52.324299 34.095108 249.659286 0.677379 0.096497 0.729277 0.391900 1.306400
ston01.jpg
0 -5.944403 -116.769394 58.252102 -0.368210 -0.921124 0.126303 1.219800 -0.188800
0 43.221504 -124.066101 -7.147096 0.449394 -0.891888 0.050799 1.548000 -0.101100
0 33.974701 -104.137703 92.986092 0.461399 -0.827898 0.318899 1.257300 0.206600
ston01.jpg
0 43.221504 -124.066101 -7.147096 0.449394 -0.891888 0.050799 1.548000 -0.101100
0 72.554199 -53.346401 -6.214097 0.940710 -0.339204 0.002500 1.304900 0.357300
0 64.465698 -75.326706 54.874905 0.935141 -0.312814 0.166307 1.289600 0.397400
ston01.jpg
0 43.221504 -124.066101 -7.147096 0.449394 -0.891888 0.050799 1.548000 -0.101100
0 64.465698 -75.326706 54.874905 0.935141 -0.312814 0.166307 1.289600 0.397400
0 33.974701 -104.137703 92.986092 0.461399 -0.827898 0.318899 1.257300 0.206600
ston01.jpg
0 33.974701 -104.137703 92.986092 0.461399 -0.827898 0.318899 1.257300 0.206600
0 64.465698 -75.326706 54.874905 0.935141 -0.312814 0.166307 1.289600 0.397400
0 47.036800 -63.223000 130.142700 0.921503 -0.361401 0.142201 1.044900 0.552900
ston01.jpg
0 -71.522003 -9.806396 95.146103 -0.954275 -0.201295 0.220994 0.371700 -0.073000
0 -87.354797 62.539787 69.068596 -0.991289 0.116199 0.061999 -0.012700 0.035100
0 -73.985397 -28.881296 29.872099 -0.954751 -0.293685 -0.046898 0.558800 -0.349700
ston01.jpg
0 -87.354797 62.539787 69.068596 -0.991289 0.116199 0.061999 -0.012700 0.035100
0 -70.619499 101.334000 38.518795 -0.583691 0.740688 -0.332695 -0.095400 0.201300
0 -69.263397 18.148300 -2.780502 -0.867558 0.167792 -0.468177 0.391400 -0.231700
ston01.jpg
0 -87.354797 62.539787 69.068596 -0.991289 0.116199 0.061999 -0.012700 0.035100
0 -69.263397 18.148300 -2.780502 -0.867558 0.167792 -0.468177 0.391400 -0.231700
0 -73.985397 -28.881296 29.872099 -0.954751 -0.293685 -0.046898 0.558800 -0.349700
ston01.jpg
0 -71.522003 -9.806396 95.146103 -0.954275 -0.201295 0.220994 0.371700 -0.073000
0 -56.254906 64.146408 162.011078 -0.910680 0.082498 0.404791 -0.044000 0.500400
0 -87.354797 62.539787 69.068596 -0.991289 0.116199 0.061999 -0.012700 0.035100
ston01.jpg
0 -56.254906 64.146408 162.011078 -0.910680 0.082498 0.404791 -0.044000 0.500400
0 -20.500004 96.305603 206.166489 -0.556416 0.578316 0.596617 -0.135300 0.973000
0 -49.710808 96.388199 146.706879 -0.560686 0.800879 0.210295 -0.156900 0.622000
ston01.jpg
0 -56.254906 64.146408 162.011078 -0.910680 0.082498 0.404791 -0.044000 0.500400
0 -49.710808 96.388199 146.706879 -0.560686 0.800879 0.210295 -0.156900 0.622000
0 -87.354797 62.539787 69.068596 -0.991289 0.116199 0.061999 -0.012700 0.035100
ston01.jpg
0 -87.354797 62.539787 69.068596 -0.991289 0.116199 0.061999 -0.012700 0.035100
0 -49.710808 96.388199 146.706879 -0.560686 0.800879 0.210295 -0.156900 0.622000
0 -70.619499 101.334000 38.518795 -0.583691 0.740688 -0.332695 -0.095400 0.201300
ston01.jpg
0 -71.522003 -9.806396 95.146103 -0.954275 -0.201295 0.220994 0.371700 -0.073000
0 -47.502800 -33.591995 156.657578 -0.856687 -0.349495 0.379394 0.489000 0.159800
0 -56.254906 64.146408 162.011078 -0.910680 0.082498 0.404791 -0.044000 0.500400
ston01.jpg
0 -47.502800 -33.591995 156.657578 -0.856687 -0.349495 0.379394 0.489000 0.159800
0 -10.638100 -50.268394 206.107986 -0.575708 -0.669210 0.469807 0.639100 0.464900
0 -24.590904 7.677504 214.547882 -0.832095 -0.095799 0.546297 0.281000 0.627800
ston01.jpg
0 -47.502800 -33.591995 156.657578 -0.856687 -0.349495 0.379394 0.489000 0.159800
0 -24.590904 7.677504 214.547882 -0.832095 -0.095799 0.546297 0.281000 0.627800
0 -56.254906 64.146408 162.011078 -0.910680 0.082498 0.404791 -0.044000 0.500400
ston01.jpg
0 -56.254906 64.146408 162.011078 -0.910680 0.082498 0.404791 -0.044000 0.500400
0 -24.590904 7.677504 214.547882 -0.832095 -0.095799 0.546297 0.281000 0.627800
0 -20.500004 96.305603 206.166489 -0.556416 0.578316 0.596617 -0.135300 0.973000
ston01.jpg
0 -71.522003 -9.806396 95.146103 -0.954275 -0.201295 0.220994 0.371700 -0.073000
0 -53.425301 -71.626198 82.211502 -0.809570 -0.573779 0.123995 0.772200 -0.238200
0 -47.502800 -33.591995 156.657578 -0.856687 -0.349495 0.379394 0.489000 0.159800
ston01.jpg
0 -53.425301 -71.626198 82.211502 -0.809570 -0.573779 0.123995 0.772200 -0.238200
0 -5.944403 -116.769394 58.252102 -0.368210 -0.921124 0.126303 1.219800 -0.188800
0 -18.152500 -76.739891 139.503204 -0.406708 -0.829116 0.383608 0.845900 0.124400
ston01.jpg
0 -53.425301 -71.626198 82.211502 -0.809570 -0.573779 0.123995 0.772200 -0.238200
0 -18.152500 -76.739891 139.503204 -0.406708 -0.829116 0.383608 0.845900 0.124400
0 -47.502800 -33.591995 156.657578 -0.856687 -0.349495 0.379394 0.489000 0.159800
ston01.jpg
0 -47.502800 -33.591995 156.657578 -0.856687 -0.349495 0.379394 0.489000 0.159800
0 -18.152500 -76.739891 139.503204 -0.406708 -0.829116 0.383608 0.845900 0.124400
0 -10.638100 -50.268394 206.107986 -0.575708 -0.669210 0.469807 0.639100 0.464900
ston01.jpg
0 -71.522003 -9.806396 95.146103 -0.954275 -0.201295 0.220994 0.371700 -0.073000
0 -73.985397 -28.881296 29.872099 -0.954751 -0.293685 -0.046898 0.558800 -0.349700
0 -53.425301 -71.626198 82.211502 -0.809570 -0.573779 0.123995 0.772200 -0.238200
ston01.jpg
0 -73.985397 -28.881296 29.872099 -0.954751 -0.293685 -0.046898 0.558800 -0.349700
0 -13.158901 -96.202499 -10.771796 -0.652966 -0.735762 -0.179691 1.195300 -0.351800
0 -53.425301 -71.626198 82.211502 -0.809570 -0.573779 0.123995 0.772200 -0.238200
ston01.jpg
0 -53.425301 -71.626198 82.211502 -0.809570 -0.573779 0.123995 0.772200 -0.238200
0 -13.158901 -96.202499 -10.771796 -0.652966 -0.735762 -0.179691 1.195300 -0.351800
0 -5.944403 -116.769394 58.252102 -0.368210 -0.921124 0.126303 1.219800 -0.188800
ston01.jpg
0 -86.496696 -130.153687 25.543600 -0.011700 -0.999667 0.022999 0.508000 0.369900
0 -118.748596 -114.521194 -2.164499 -0.557195 -0.610294 -0.563094 0.350300 0.255000
0 -79.764809 -106.882896 -11.787498 0.365290 -0.439188 -0.820778 0.542100 0.219400
ston01.jpg
0 -86.496696 -130.153687 25.543600 -0.011700 -0.999667 0.022999 0.508000 0.369900
0 -79.764809 -106.882896 -11.787498 0.365290 -0.439188 -0.820778 0.542100 0.219400
0 -34.020802 -104.767296 44.218700 0.921020 -0.376908 -0.098302 0.766800 0.533000
ston01.jpg
0 -86.496696 -130.153687 25.543600 -0.011700 -0.999667 0.022999 0.508000 0.369900
0 -34.020802 -104.767296 44.218700 0.921020 -0.376908 -0.098302 0.766800 0.533000
0 -57.088104 -105.071793 76.713501 0.062097 -0.379381 0.923154 0.653500 0.712300
ston01.jpg
0 -86.496696 -130.153687 25.543600 -0.011700 -0.999667 0.022999 0.508000 0.369900
0 -57.088104 -105.071793 76.713501 0.062097 -0.379381 0.923154 0.653500 0.712300
0 -126.115799 -101.045898 34.702999 -0.751706 -0.430504 0.499604 0.314700 0.491300
ston01.jpg
0 -86.496696 -130.153687 25.543600 -0.011700 -0.999667 0.022999 0.508000 0.369900
0 -126.115799 -101.045898 34.702999 -0.751706 -0.430504 0.499604 0.314700 0.491300
0 -118.748596 -114.521194 -2.164499 -0.557195 -0.610294 -0.563094 0.350300 0.255000
ston01.jpg
0 -118.748596 -114.521194 -2.164499 -0.557195 -0.610294 -0.563094 0.350300 0.255000
0 -143.187286 -46.754501 3.477298 -0.911030 0.293710 -0.289410 0.233200 0.449500
0 -105.224701 -68.606598 -17.294300 -0.099100 0.197400 -0.975301 0.418700 0.281500
ston01.jpg
0 -79.764809 -106.882896 -11.787498 0.365290 -0.439188 -0.820778 0.542100 0.219400
0 -105.224701 -68.606598 -17.294300 -0.099100 0.197400 -0.975301 0.418700 0.281500
0 -58.807098 -33.679596 6.428199 0.656213 0.386607 -0.648012 0.648200 0.495500
ston01.jpg
0 -34.020802 -104.767296 44.218700 0.921020 -0.376908 -0.098302 0.766800 0.533000
0 -58.807098 -33.679596 6.428199 0.656213 0.386607 -0.648012 0.648200 0.495500
0 -51.642006 -28.604898 55.842297 0.644213 0.588512 0.488510 0.683600 0.780600
ston01.jpg
0 -57.088104 -105.071793 76.713501 0.062097 -0.379381 0.923154 0.653500 0.712300
0 -51.642006 -28.604898 55.842297 0.644213 0.588512 0.488510 0.683600 0.780600
0 -104.584106 -26.294096 53.431293 -0.474112 0.444511 0.760019 0.423600 0.774000
ston01.jpg
0 -126.115799 -101.045898 34.702999 -0.751706 -0.430504 0.499604 0.314700 0.491300
0 -104.584106 -26.294096 53.431293 -0.474112 0.444511 0.760019 0.423600 0.774000
0 -143.187286 -46.754501 3.477298 -0.911030 0.293710 -0.289410 0.233200 0.449500
ston01.jpg
0 -105.224701 -68.606598 -17.294300 -0.099100 0.197400 -0.975301 0.418700 0.281500
0 -79.764809 -106.882896 -11.787498 0.365290 -0.439188 -0.820778 0.542100 0.219400
0 -118.748596 -114.521194 -2.164499 -0.557195 -0.610294 -0.563094 0.350300 0.255000
ston01.jpg
0 -58.807098 -33.679596 6.428199 0.656213 0.386607 -0.648012 0.648200 0.495500
0 -34.020802 -104.767296 44.218700 0.921020 -0.376908 -0.098302 0.766800 0.533000
0 -79.764809 -106.882896 -11.787498 0.365290 -0.439188 -0.820778 0.542100 0.219400
ston01.jpg
0 -51.642006 -28.604898 55.842297 0.644213 0.588512 0.488510 0.683600 0.780600
0 -57.088104 -105.071793 76.713501 0.062097 -0.379381 0.923154 0.653500 0.712300
0 -34.020802 -104.767296 44.218700 0.921020 -0.376908 -0.098302 0.766800 0.533000
ston01.jpg
0 -104.584106 -26.294096 53.431293 -0.474112 0.444511 0.760019 0.423600 0.774000
0 -126.115799 -101.045898 34.702999 -0.751706 -0.430504 0.499604 0.314700 0.491300
0 -57.088104 -105.071793 76.713501 0.062097 -0.379381 0.923154 0.653500 0.712300
ston01.jpg
0 -143.187286 -46.754501 3.477298 -0.911030 0.293710 -0.289410 0.233200 0.449500
0 -118.748596 -114.521194 -2.164499 -0.557195 -0.610294 -0.563094 0.350300 0.255000
0 -126.115799 -101.045898 34.702999 -0.751706 -0.430504 0.499604 0.314700 0.491300
ston01.jpg
0 -87.161606 -5.666794 25.293695 -0.025200 0.957299 -0.288000 0.510100 0.667700
0 -58.807098 -33.679596 6.428199 0.656213 0.386607 -0.648012 0.648200 0.495500
0 -105.224701 -68.606598 -17.294300 -0.099100 0.197400 -0.975301 0.418700 0.281500
ston01.jpg
0 -87.161606 -5.666794 25.293695 -0.025200 0.957299 -0.288000 0.510100 0.667700
0 -51.642006 -28.604898 55.842297 0.644213 0.588512 0.488510 0.683600 0.780600
0 -58.807098 -33.679596 6.428199 0.656213 0.386607 -0.648012 0.648200 0.495500
ston01.jpg
0 -87.161606 -5.666794 25.293695 -0.025200 0.957299 -0.288000 0.510100 0.667700
0 -104.584106 -26.294096 53.431293 -0.474112 0.444511 0.760019 0.423600 0.774000
0 -51.642006 -28.604898 55.842297 0.644213 0.588512 0.488510 0.683600 0.780600
ston01.jpg
0 -87.161606 -5.666794 25.293695 -0.025200 0.957299 -0.288000 0.510100 0.667700
0 -143.187286 -46.754501 3.477298 -0.911030 0.293710 -0.289410 0.233200 0.449500
0 -104.584106 -26.294096 53.431293 -0.474112 0.444511 0.760019 0.423600 0.774000
ston01.jpg
0 -87.161606 -5.666794 25.293695 -0.025200 0.957299 -0.288000 0.510100 0.667700
0 -105.224701 -68.606598 -17.294300 -0.099100 0.197400 -0.975301 0.418700 0.281500
0 -143.187286 -46.754501 3.477298 -0.911030 0.293710 -0.289410 0.233200 0.449500
ston01.jpg
0 -14.682602 -93.771500 42.708099 0.428880 0.211890 0.878160 0.544800 0.709000
0 7.830597 -91.149498 10.396402 0.979572 0.159095 0.122996 0.709000 0.486600
0 -15.615803 -54.792599 16.795900 0.367795 0.856089 0.363095 0.540400 0.645200
ston01.jpg
0 -14.682602 -93.771500 42.708099 0.428880 0.211890 0.878160 0.544800 0.709000
0 -15.615803 -54.792599 16.795900 0.367795 0.856089 0.363095 0.540400 0.645200
0 -42.849709 -75.906700 32.846100 -0.630387 0.499790 0.593988 0.340600 0.694900
ston01.jpg
0 -14.682602 -93.771500 42.708099 0.428880 0.211890 0.878160 0.544800 0.709000
0 -42.849709 -75.906700 32.846100 -0.630387 0.499790 0.593988 0.340600 0.694900
0 -41.677902 -116.329803 45.853199 -0.487676 -0.442178 0.752762 0.346600 0.662300
ston01.jpg
0 -14.682602 -93.771500 42.708099 0.428880 0.211890 0.878160 0.544800 0.709000
0 -41.677902 -116.329803 45.853199 -0.487676 -0.442178 0.752762 0.346600 0.662300
0 -3.851698 -128.933807 26.030802 0.706016 -0.576513 0.411309 0.621500 0.481200
ston01.jpg
0 -14.682602 -93.771500 42.708099 0.428880 0.211890 0.878160 0.544800 0.709000
0 -3.851698 -128.933807 26.030802 0.706016 -0.576513 0.411309 0.621500 0.481200
0 7.830597 -91.149498 10.396402 0.979572 0.159095 0.122996 0.709000 0.486600
ston01.jpg
0 7.830597 -91.149498 10.396402 0.979572 0.159095 0.122996 0.709000 0.486600
0 -0.690298 -112.240601 -7.947898 0.590505 -0.383103 -0.710306 0.645600 0.291000
0 -8.400297 -66.698502 -12.420997 0.480516 0.427514 -0.765726 0.592300 0.400300
ston01.jpg
0 -15.615803 -54.792599 16.795900 0.367795 0.856089 0.363095 0.540400 0.645200
0 -8.400297 -66.698502 -12.420997 0.480516 0.427514 -0.765726 0.592300 0.400300
0 -39.221798 -58.112801 -6.300599 -0.604421 0.610422 -0.511918 0.368200 0.471200
ston01.jpg
0 -42.849709 -75.906700 32.846100 -0.630387 0.499790 0.593988 0.340600 0.694900
0 -39.221798 -58.112801 -6.300599 -0.604421 0.610422 -0.511918 0.368200 0.471200
0 -49.446304 -99.934898 5.013102 -0.922266 -0.194793 -0.333888 0.291000 0.422600
ston01.jpg
0 -41.677902 -116.329803 45.853199 -0.487676 -0.442178 0.752762 0.346600 0.662300
0 -49.446304 -99.934898 5.013102 -0.922266 -0.194793 -0.333888 0.291000 0.422600
0 -21.555904 -137.812897 9.933002 -0.245093 -0.869276 -0.429288 0.491900 0.339700
ston01.jpg
0 -3.851698 -128.933807 26.030802 0.706016 -0.576513 0.411309 0.621500 0.481200
0 -21.555904 -137.812897 9.933002 -0.245093 -0.869276 -0.429288 0.491900 0.339700
0 -0.690298 -112.240601 -7.947898 0.590505 -0.383103 -0.710306 0.645600 0.291000
ston01.jpg
0 -8.400297 -66.698502 -12.420997 0.480516 0.427514 -0.765726 0.592300 0.400300
0 -15.615803 -54.792599 16.795900 0.367795 0.856089 0.363095 0.540400 0.645200
0 7.830597 -91.149498 10.396402 0.979572 0.159095 0.122996 0.709000 0.486600
ston01.jpg
0 -39.221798 -58.112801 -6.300599 -0.604421 0.610422 -0.511918 0.368200 0.471200
0 -42.849709 -75.906700 32.846100 -0.630387 0.499790 0.593988 0.340600 0.694900
0 -15.615803 -54.792599 16.795900 0.367795 0.856089 0.363095 0.540400 0.645200
ston01.jpg
0 -49.446304 -99.934898 5.013102 -0.922266 -0.194793 -0.333888 0.291000 0.422600
0 -41.677902 -116.329803 45.853199 -0.487676 -0.442178 0.752762 0.346600 0.662300
0 -42.849709 -75.906700 32.846100 -0.630387 0.499790 0.593988 0.340600 0.694900
ston01.jpg
0 -21.555904 -137.812897 9.933002 -0.245093 -0.869276 -0.429288 0.491900 0.339700
0 -3.851698 -128.933807 26.030802 0.706016 -0.576513 0.411309 0.621500 0.481200
0 -41.677902 -116.329803 45.853199 -0.487676 -0.442178 0.752762 0.346600 0.662300
ston01.jpg
0 -0.690298 -112.240601 -7.947898 0.590505 -0.383103 -0.710306 0.645600 0.291000
0 7.830597 -91.149498 10.396402 0.979572 0.159095 0.122996 0.709000 0.486600
0 -3.851698 -128.933807 26.030802 0.706016 -0.576513 0.411309 0.621500 0.481200
ston01.jpg
0 -30.569801 -91.824600 -11.325498 -0.304313 -0.196709 -0.932040 0.429100 0.330900
0 -39.221798 -58.112801 -6.300599 -0.604421 0.610422 -0.511918 0.368200 0.471200
0 -8.400297 -66.698502 -12.420997 0.480516 0.427514 -0.765726 0.592300 0.400300
ston01.jpg
0 -30.569801 -91.824600 -11.325498 -0.304313 -0.196709 -0.932040 0.429100 0.330900
0 -49.446304 -99.934898 5.013102 -0.922266 -0.194793 -0.333888 0.291000 0.422600
0 -39.221798 -58.112801 -6.300599 -0.604421 0.610422 -0.511918 0.368200 0.471200
ston01.jpg
0 -30.569801 -91.824600 -11.325498 -0.304313 -0.196709 -0.932040 0.429100 0.330900
0 -21.555904 -137.812897 9.933002 -0.245093 -0.869276 -0.429288 0.491900 0.339700
0 -49.446304 -99.934898 5.013102 -0.922266 -0.194793 -0.333888 0.291000 0.422600
ston01.jpg
0 -30.569801 -91.824600 -11.325498 -0.304313 -0.196709 -0.932040 0.429100 0.330900
0 -0.690298 -112.240601 -7.947898 0.590505 -0.383103 -0.710306 0.645600 0.291000
0 -21.555904 -137.812897 9.933002 -0.245093 -0.869276 -0.429288 0.491900 0.339700
ston01.jpg
0 -30.569801 -91.824600 -11.325498 -0.304313 -0.196709 -0.932040 0.429100 0.330900
0 -8.400297 -66.698502 -12.420997 0.480516 0.427514 -0.765726 0.592300 0.400300
0 -0.690298 -112.240601 -7.947898 0.590505 -0.383103 -0.710306 0.645600 0.291000
ston01.jpg
0 46.933399 -60.855499 5.291503 -0.000000 0.000000 1.000000 0.590300 0.201300
0 46.933399 -49.084900 -6.479099 0.000000 0.707107 0.707107 0.590300 0.250800
0 35.162701 -60.855503 -6.479097 -0.707107 0.000000 0.707107 0.473600 0.201300
ston01.jpg
0 46.933399 -60.855499 5.291503 -0.000000 0.000000 1.000000 0.590300 0.201300
0 35.162701 -60.855503 -6.479097 -0.707107 0.000000 0.707107 0.473600 0.201300
0 46.933403 -72.626099 -6.479096 0.000000 -0.707107 0.707107 0.590300 0.151800
ston01.jpg
0 46.933399 -60.855499 5.291503 -0.000000 0.000000 1.000000 0.590300 0.201300
0 46.933403 -72.626099 -6.479096 0.000000 -0.707107 0.707107 0.590300 0.151800
0 58.704002 -60.855499 -6.479098 0.707107 -0.000000 0.707107 0.707100 0.201300
ston01.jpg
0 46.933399 -60.855499 5.291503 -0.000000 0.000000 1.000000 0.590300 0.201300
0 58.704002 -60.855499 -6.479098 0.707107 -0.000000 0.707107 0.707100 0.201300
0 46.933399 -49.084900 -6.479099 0.000000 0.707107 0.707107 0.590300 0.250800
ston01.jpg
0 79.417603 -87.962196 2.284006 -0.000000 0.000000 1.000000 0.912600 0.087300
0 79.417603 -79.198997 -6.479099 0.000000 0.707107 0.707107 0.912600 0.124200
0 70.654404 -87.962196 -6.479095 -0.707107 0.000000 0.707107 0.825600 0.087300
ston01.jpg
0 79.417603 -87.962196 2.284006 -0.000000 0.000000 1.000000 0.912600 0.087300
0 70.654404 -87.962196 -6.479095 -0.707107 0.000000 0.707107 0.825600 0.087300
0 79.417603 -96.725304 -6.479094 0.000000 -0.707107 0.707107 0.912600 0.050500
ston01.jpg
0 79.417603 -87.962196 2.284006 -0.000000 0.000000 1.000000 0.912600 0.087300
0 79.417603 -96.725304 -6.479094 0.000000 -0.707107 0.707107 0.912600 0.050500
0 88.180702 -87.962204 -6.479096 0.707107 -0.000000 0.707107 0.999500 0.087300
ston01.jpg
0 79.417603 -87.962196 2.284006 -0.000000 0.000000 1.000000 0.912600 0.087300
0 88.180702 -87.962204 -6.479096 0.707107 -0.000000 0.707107 0.999500 0.087300
0 79.417603 -79.198997 -6.479099 0.000000 0.707107 0.707107 0.912600 0.124200
ston01.jpg
0 6.452603 103.591690 17.740395 0.012100 -0.040600 0.999102 0.188800 0.892700
0 2.196703 128.994293 -4.551505 -0.200496 0.626988 0.752786 0.146600 0.999500
0 -12.530003 103.124901 -0.687407 -0.672901 -0.241500 0.699201 0.000500 0.890700
ston01.jpg
0 6.452603 103.591690 17.740395 0.012100 -0.040600 0.999102 0.188800 0.892700
0 -12.530003 103.124901 -0.687407 -0.672901 -0.241500 0.699201 0.000500 0.890700
0 11.805701 92.211197 0.722798 0.244505 -0.768715 0.591012 0.241900 0.844900
ston01.jpg
0 6.452603 103.591690 17.740395 0.012100 -0.040600 0.999102 0.188800 0.892700
0 11.805701 92.211197 0.722798 0.244505 -0.768715 0.591012 0.241900 0.844900
0 27.382195 117.696411 -3.669904 0.646709 0.169302 0.743710 0.396400 0.952000
ston01.jpg
0 6.452603 103.591690 17.740395 0.012100 -0.040600 0.999102 0.188800 0.892700
0 27.382195 117.696411 -3.669904 0.646709 0.169302 0.743710 0.396400 0.952000
0 2.196703 128.994293 -4.551505 -0.200496 0.626988 0.752786 0.146600 0.999500
ston01.jpg
0 21.590200 -93.074600 18.044802 0.430496 0.000000 0.902592 0.339000 0.065800
0 14.899702 -77.533600 4.017802 -0.000000 1.000000 -0.000000 0.272600 0.131200
0 0.872704 -93.074593 10.708401 -0.902592 0.000000 0.430496 0.133400 0.065800
ston01.jpg
0 21.590200 -93.074600 18.044802 0.430496 0.000000 0.902592 0.339000 0.065800
0 0.872704 -93.074593 10.708401 -0.902592 0.000000 0.430496 0.133400 0.065800
0 14.899700 -108.615494 4.017802 0.000000 -1.000000 0.000000 0.272600 0.000500
ston01.jpg
0 21.590200 -93.074600 18.044802 0.430496 0.000000 0.902592 0.339000 0.065800
0 14.899700 -108.615494 4.017802 0.000000 -1.000000 0.000000 0.272600 0.000500
0 28.926699 -93.074600 -2.672698 0.902592 -0.000000 -0.430496 0.411700 0.065800
ston01.jpg
0 21.590200 -93.074600 18.044802 0.430496 0.000000 0.902592 0.339000 0.065800
0 28.926699 -93.074600 -2.672698 0.902592 -0.000000 -0.430496 0.411700 0.065800
0 14.899702 -77.533600 4.017802 -0.000000 1.000000 -0.000000 0.272600 0.131200
ston01.jpg
0 8.209103 -93.074600 -10.009198 -0.430496 -0.000000 -0.902592 0.206200 0.065800
0 0.872704 -93.074593 10.708401 -0.902592 0.000000 0.430496 0.133400 0.065800
0 14.899702 -77.533600 4.017802 -0.000000 1.000000 -0.000000 0.272600 0.131200
ston01.jpg
0 8.209103 -93.074600 -10.009198 -0.430496 -0.000000 -0.902592 0.206200 0.065800
0 14.899700 -108.615494 4.017802 0.000000 -1.000000 0.000000 0.272600 0.000500
0 0.872704 -93.074593 10.708401 -0.902592 0.000000 0.430496 0.133400 0.065800
ston01.jpg
0 8.209103 -93.074600 -10.009198 -0.430496 -0.000000 -0.902592 0.206200 0.065800
0 28.926699 -93.074600 -2.672698 0.902592 -0.000000 -0.430496 0.411700 0.065800
0 14.899700 -108.615494 4.017802 0.000000 -1.000000 0.000000 0.272600 0.000500
ston01.jpg
0 8.209103 -93.074600 -10.009198 -0.430496 -0.000000 -0.902592 0.206200 0.065800
0 14.899702 -77.533600 4.017802 -0.000000 1.000000 -0.000000 0.272600 0.131200
0 28.926699 -93.074600 -2.672698 0.902592 -0.000000 -0.430496 0.411700 0.065800
ston02.tga
0 -66.469902 -119.338593 -5.806599 0.011300 -0.992441 -0.122205 0.000500 0.000500
0 -37.114296 -119.338600 -5.806598 0.000000 -0.992978 -0.118297 0.999500 0.000500
0 -39.977703 -128.274704 69.210098 0.011300 -0.992441 -0.122205 0.999500 0.999500
ston02.tga
0 -39.977703 -128.274704 69.210098 0.011300 -0.992441 -0.122205 0.999500 0.999500
0 -81.000900 -128.274597 61.884102 0.022499 -0.991763 -0.126095 0.000500 0.999500
0 -66.469902 -119.338593 -5.806599 0.011300 -0.992441 -0.122205 0.000500 0.000500
ston02.tga
0 62.967102 -75.576599 -13.254795 0.901798 -0.349999 -0.253499 0.000500 0.000500
0 71.913010 -47.991299 -17.812994 0.904673 -0.336590 -0.261292 0.999500 0.000500
0 90.151497 -47.921005 45.255199 0.901798 -0.349999 -0.253499 0.999500 0.999500
ston02.tga
0 90.151497 -47.921005 45.255199 0.901798 -0.349999 -0.253499 0.999500 0.999500
0 85.014900 -81.290703 75.828003 0.898608 -0.363503 -0.245702 0.000500 0.999500
0 62.967102 -75.576599 -13.254795 0.901798 -0.349999 -0.253499 0.000500 0.000500
ston02.tga
0 -20.392498 79.995300 -20.044003 0.621287 0.697486 -0.357093 0.000500 0.000500
0 -36.897903 107.908798 -12.587205 0.802372 0.541481 -0.250991 0.999500 0.000500
0 -24.286301 107.798698 27.486292 0.621287 0.697486 -0.357093 0.999500 0.999500
ston02.tga
0 -24.286301 107.798698 27.486292 0.621287 0.697486 -0.357093 0.999500 0.999500
0 5.411102 79.770103 2.928596 0.397695 0.805790 -0.438795 0.000500 0.999500
0 -20.392498 79.995300 -20.044003 0.621287 0.697486 -0.357093 0.000500 0.000500
ston02.tga
0 -18.851803 114.216606 -19.739906 -0.587323 0.734929 0.339013 0.000500 0.000500
0 -34.443104 90.304901 -12.891303 -0.778013 0.577910 0.246404 0.999500 0.000500
0 -21.831497 90.194893 27.182095 -0.587323 0.734929 0.339013 0.999500 0.999500
ston02.tga
0 -21.831497 90.194893 27.182095 -0.587323 0.734929 0.339013 0.999500 0.999500
0 6.951701 113.991402 3.232796 -0.355784 0.840863 0.407882 0.000500 0.999500
0 -18.851803 114.216606 -19.739906 -0.587323 0.734929 0.339013 0.000500 0.000500
ston02.tga
0 -63.220398 -137.567993 -10.240898 0.782563 -0.622571 0.001200 0.000500 0.000500
0 -46.965202 -117.132408 -13.161198 0.782699 -0.622399 0.001100 0.999500 0.000500
0 -44.979797 -114.531189 45.136002 0.782563 -0.622571 0.001200 0.999500 0.999500
ston02.tga
0 -44.979797 -114.531189 45.136002 0.782563 -0.622571 0.001200 0.999500 0.999500
0 -72.341599 -148.929703 37.809902 0.782475 -0.622680 0.001300 0.000500 0.999500
0 -63.220398 -137.567993 -10.240898 0.782563 -0.622571 0.001200 0.000500 0.000500
ston02.tga
0 85.395699 -12.676398 -7.278998 0.992552 -0.116894 -0.034298 0.000500 0.000500
0 87.544197 20.494402 -7.278999 0.995543 -0.064503 -0.068803 0.999500 0.000500
0 91.411400 22.527702 46.791595 0.992552 -0.116894 -0.034298 0.999500 0.999500
ston02.tga
0 91.411400 22.527702 46.791595 0.992552 -0.116894 -0.034298 0.999500 0.999500
0 85.395699 -12.571100 67.269997 0.985652 -0.168792 0.000200 0.000500 0.999500
0 85.395699 -12.676398 -7.278998 0.992552 -0.116894 -0.034298 0.000500 0.000500
ston02.tga
0 0.631802 -125.148903 -11.667494 0.183299 -0.975694 -0.120099 0.000500 0.000500
0 29.541502 -120.051300 -11.667396 0.172499 -0.978096 -0.116499 0.999500 0.000500
0 26.721498 -129.484589 63.349300 0.183299 -0.975694 -0.120099 0.999500 0.999500
ston02.tga
0 26.721498 -129.484589 63.349300 0.183299 -0.975694 -0.120099 0.999500 0.999500
0 -13.678497 -136.608307 56.023201 0.193995 -0.973173 -0.123697 0.000500 0.999500
0 0.631802 -125.148903 -11.667494 0.183299 -0.975694 -0.120099 0.000500 0.000500
ston02.tga
0 47.777702 -126.052101 -16.101692 0.879009 -0.476805 0.000700 0.000500 0.000500
0 60.237301 -103.104301 -19.022095 0.878860 -0.477078 0.000900 0.999500 0.000500
0 61.759205 -100.196198 39.275105 0.879009 -0.476805 0.000700 0.999500 0.999500
ston02.tga
0 61.759205 -100.196198 39.275105 0.879009 -0.476805 0.000700 0.999500 0.999500
0 40.786301 -138.928696 4.787905 0.879180 -0.476489 0.000500 0.000500 0.999500
0 47.777702 -126.052101 -16.101692 0.879009 -0.476805 0.000700 0.000500 0.000500
ston02.tga
0 -88.669998 -1.416597 -2.876203 0.461595 0.887090 -0.001300 0.000500 0.000500
0 -114.708710 12.138405 -2.876204 0.461714 0.887028 -0.001200 0.999500 0.000500
0 -112.168793 10.921402 71.884491 0.461595 0.887090 -0.001300 0.999500 0.999500
ston02.tga
0 -112.168793 10.921402 71.884491 0.461595 0.887090 -0.001300 0.999500 0.999500
0 -75.780701 -8.020996 64.558395 0.461516 0.887131 -0.001300 0.000500 0.999500
0 -88.669998 -1.416597 -2.876203 0.461595 0.887090 -0.001300 0.000500 0.000500
ston02.tga
0 -88.809700 -0.539398 -7.310502 -0.406806 0.913513 -0.001800 0.000500 0.000500
0 -112.664307 -11.160199 -10.230801 -0.406602 0.913604 -0.001600 0.999500 0.000500
0 -115.578003 -12.352105 48.066395 -0.406806 0.913513 -0.001800 0.999500 0.999500
ston02.tga
0 -115.578003 -12.352105 48.066395 -0.406806 0.913513 -0.001800 0.999500 0.999500
0 -75.424301 5.525400 40.740295 -0.407010 0.913422 -0.001900 0.000500 0.999500
0 -88.809700 -0.539398 -7.310502 -0.406806 0.913513 -0.001800 0.000500 0.000500
ston02.tga
0 102.089401 -1.237103 -7.278996 0.274292 0.961270 -0.026899 0.000500 0.000500
0 70.699203 9.697800 -7.278998 0.329009 0.944326 -0.001300 0.999500 0.000500
0 70.699203 9.803003 67.269997 0.274292 0.961270 -0.026899 0.999500 0.999500
ston02.tga
0 70.699203 9.803003 67.269997 0.274292 0.961270 -0.026899 0.999500 0.999500
0 105.956596 0.796302 46.791695 0.218603 0.974411 -0.052301 0.000500 0.999500
0 102.089401 -1.237103 -7.278996 0.274292 0.961270 -0.026899 0.000500 0.000500
ston02.tga
0 9.902297 94.798607 -4.585204 0.803181 -0.564187 -0.191295 0.000500 0.000500
0 25.175507 119.135590 -10.601503 0.807913 -0.555609 -0.196403 0.999500 0.000500
0 41.130997 116.866898 61.433987 0.803181 -0.564187 -0.191295 0.999500 0.999500
ston02.tga
0 41.130997 116.866898 61.433987 0.803181 -0.564187 -0.191295 0.999500 0.999500
0 17.102297 82.857101 63.025196 0.798325 -0.572718 -0.186206 0.000500 0.999500
0 9.902297 94.798607 -4.585204 0.803181 -0.564187 -0.191295 0.000500 0.000500
ston02.tga
0 21.997105 83.940498 -13.330801 0.903302 0.369901 -0.217300 0.000500 0.000500
0 13.621000 108.844101 -13.170203 0.930077 0.313992 -0.190695 0.999500 0.000500
0 24.140099 111.991089 43.311996 0.903302 0.369901 -0.217300 0.999500 0.999500
ston02.tga
0 24.140099 111.991089 43.311996 0.903302 0.369901 -0.217300 0.999500 0.999500
0 33.752499 69.966499 4.490397 0.872441 0.424020 -0.243011 0.000500 0.999500
0 21.997105 83.940498 -13.330801 0.903302 0.369901 -0.217300 0.000500 0.000500
ston02.tga
0 -131.735199 -23.856800 -2.774002 -0.913568 0.406686 -0.000600 0.000500 0.000500
0 -143.675201 -50.674500 -2.774002 -0.913551 0.406723 -0.000600 0.999500 0.000500
0 -142.510620 -47.953300 71.986694 -0.913568 0.406686 -0.000600 0.999500 0.999500
ston02.tga
0 -142.510620 -47.953300 71.986694 -0.913568 0.406686 -0.000600 0.999500 0.999500
0 -125.824997 -10.476697 64.660690 -0.913605 0.406602 -0.000600 0.000500 0.999500
0 -131.735199 -23.856800 -2.774002 -0.913568 0.406686 -0.000600 0.000500 0.000500
ston02.tga
0 -142.506699 -32.914299 -7.208200 -0.887028 -0.461715 0.000900 0.000500 0.000500
0 -130.449402 -56.076099 -10.128600 -0.886987 -0.461793 0.000800 0.999500 0.000500
0 -128.976807 -58.799801 48.168594 -0.887028 -0.461715 0.000900 0.999500 0.999500
ston02.tga
0 -128.976807 -58.799801 48.168594 -0.887028 -0.461715 0.000900 0.999500 0.999500
0 -149.272293 -19.812405 40.842598 -0.887090 -0.461595 0.001000 0.000500 0.999500
0 -142.506699 -32.914299 -7.208200 -0.887028 -0.461715 0.000900 0.000500 0.000500
ston02.tga
0 -11.283907 -64.411591 188.939194 0.185410 -0.972651 -0.139907 0.000500 0.000500
0 21.814594 -61.344597 188.939194 0.092297 -0.995571 -0.017899 0.999500 0.000500
0 27.701796 -61.344597 219.283890 0.185410 -0.972651 -0.139907 0.999500 0.999500
ston02.tga
0 27.701796 -61.344597 219.283890 0.185410 -0.972651 -0.139907 0.999500 0.999500
0 -13.240303 -67.769791 198.893280 0.274188 -0.926258 -0.258588 0.000500 0.999500
0 -11.283907 -64.411591 188.939194 0.185410 -0.972651 -0.139907 0.000500 0.000500
ston02.tga
0 69.073296 19.501204 188.900406 0.990734 0.130905 -0.036201 0.000500 0.000500
0 66.295303 52.625202 188.900391 0.996474 0.083598 -0.007100 0.999500 0.000500
0 66.256302 58.512207 252.884277 0.990734 0.130905 -0.036201 0.999500 0.999500
ston02.tga
0 66.256302 58.512207 252.884277 0.990734 0.130905 -0.036201 0.999500 0.999500
0 72.323990 17.515606 232.493790 0.981928 0.177705 -0.065102 0.000500 0.999500
0 69.073296 19.501204 188.900406 0.990734 0.130905 -0.036201 0.000500 0.000500
end
