version 1
nodes
0 "Box02" -1
end
skeleton
time 0
0 -37.591766 0.015255 0.000000 0.000000 0.000000 0.000000
end
triangles
tile_wood01.jpg
0 -42.279301 -4.672200 0.000000 0.000000 0.000000 -1.000000 0.690500 0.746400
0 -42.279301 4.702800 0.000000 0.000000 0.000000 -1.000000 0.690500 0.842900
0 -32.904301 4.702800 0.000000 0.000000 0.000000 -1.000000 0.787100 0.842900
tile_wood01.jpg
0 -32.904301 4.702800 0.000000 0.000000 0.000000 -1.000000 0.787100 0.842900
0 -32.904301 -4.672200 0.000000 0.000000 0.000000 -1.000000 0.787100 0.746400
0 -42.279301 -4.672200 0.000000 0.000000 0.000000 -1.000000 0.690500 0.746400
tile_wood01.jpg
0 -42.279301 -4.672200 330.000000 0.000000 0.000000 1.000000 0.690500 0.746400
0 -32.904301 -4.672200 330.000000 0.000000 0.000000 1.000000 0.787100 0.746400
0 -32.904301 4.702800 330.000000 0.000000 0.000000 1.000000 0.787100 0.842900
tile_wood01.jpg
0 -32.904301 4.702800 330.000000 0.000000 0.000000 1.000000 0.787100 0.842900
0 -42.279301 4.702800 330.000000 0.000000 0.000000 1.000000 0.690500 0.842900
0 -42.279301 -4.672200 330.000000 0.000000 0.000000 1.000000 0.690500 0.746400
tile_wood01.jpg
0 -42.279301 -4.672200 0.000000 0.000000 -1.000000 0.000000 -0.504000 0.112800
0 -32.904301 -4.672200 0.000000 0.000000 -1.000000 0.000000 -0.504000 0.057900
0 -32.904301 -4.672200 330.000000 0.000000 -1.000000 0.000000 1.504000 0.057900
tile_wood01.jpg
0 -32.904301 -4.672200 330.000000 0.000000 -1.000000 0.000000 1.504000 0.057900
0 -42.279301 -4.672200 330.000000 0.000000 -1.000000 0.000000 1.504000 0.112800
0 -42.279301 -4.672200 0.000000 0.000000 -1.000000 0.000000 -0.504000 0.112800
tile_wood01.jpg
0 -32.904301 -4.672200 0.000000 1.000000 0.000000 0.000000 -0.504000 0.057900
0 -32.904301 4.702800 0.000000 1.000000 0.000000 0.000000 -0.504000 0.003200
0 -32.904301 4.702800 330.000000 1.000000 0.000000 0.000000 1.504000 0.003200
tile_wood01.jpg
0 -32.904301 4.702800 330.000000 1.000000 0.000000 0.000000 1.504000 0.003200
0 -32.904301 -4.672200 330.000000 1.000000 0.000000 0.000000 1.504000 0.057900
0 -32.904301 -4.672200 0.000000 1.000000 0.000000 0.000000 -0.504000 0.057900
tile_wood01.jpg
0 -32.904301 4.702800 0.000000 0.000000 1.000000 0.000000 -0.504000 0.003200
0 -42.279301 4.702800 0.000000 0.000000 1.000000 0.000000 -0.504000 0.058000
0 -42.279301 4.702800 330.000000 0.000000 1.000000 0.000000 1.504000 0.058000
tile_wood01.jpg
0 -42.279301 4.702800 330.000000 0.000000 1.000000 0.000000 1.504000 0.058000
0 -32.904301 4.702800 330.000000 0.000000 1.000000 0.000000 1.504000 0.003200
0 -32.904301 4.702800 0.000000 0.000000 1.000000 0.000000 -0.504000 0.003200
tile_wood01.jpg
0 -42.279301 4.702800 0.000000 -1.000000 0.000000 0.000000 -0.504000 0.058000
0 -42.279301 -4.672200 0.000000 -1.000000 0.000000 0.000000 -0.504000 0.112800
0 -42.279301 -4.672200 330.000000 -1.000000 0.000000 0.000000 1.504000 0.112800
tile_wood01.jpg
0 -42.279301 -4.672200 330.000000 -1.000000 0.000000 0.000000 1.504000 0.112800
0 -42.279301 4.702800 330.000000 -1.000000 0.000000 0.000000 1.504000 0.058000
0 -42.279301 4.702800 0.000000 -1.000000 0.000000 0.000000 -0.504000 0.058000
tile_wood01.jpg
0 -32.942699 0.068300 289.764801 0.000000 0.177600 -0.984103 0.000500 0.065100
0 32.341202 3.110500 295.033905 0.000000 0.781989 -0.623292 0.999500 0.112000
0 32.341202 0.068300 289.764801 0.000000 -0.177600 -0.984103 0.999500 0.065100
tile_wood01.jpg
0 -32.942699 0.068300 289.764801 0.000000 0.177600 -0.984103 0.000500 0.065100
0 -32.942699 3.110500 295.033905 0.000000 0.390997 0.920392 0.000500 0.112000
0 32.341202 3.110500 295.033905 0.000000 0.781989 -0.623292 0.999500 0.112000
tile_wood01.jpg
0 -32.942699 3.110500 295.033905 0.000000 0.390997 0.920392 0.000500 0.112000
0 32.341202 -2.973800 295.033905 0.000000 -0.390997 0.920392 0.999500 0.011500
0 32.341202 3.110500 295.033905 0.000000 0.781989 -0.623292 0.999500 0.112000
tile_wood01.jpg
0 -32.942699 3.110500 295.033905 0.000000 0.390997 0.920392 0.000500 0.112000
0 -32.942699 -2.973800 295.033905 0.000000 -0.781989 -0.623292 0.000500 0.011500
0 32.341202 -2.973800 295.033905 0.000000 -0.390997 0.920392 0.999500 0.011500
tile_wood01.jpg
0 -32.942699 -2.973800 295.033905 0.000000 -0.781989 -0.623292 0.000500 0.011500
0 32.341202 0.068300 289.764801 0.000000 -0.177600 -0.984103 0.999500 0.065100
0 32.341202 -2.973800 295.033905 0.000000 -0.390997 0.920392 0.999500 0.011500
tile_wood01.jpg
0 -32.942699 -2.973800 295.033905 0.000000 -0.781989 -0.623292 0.000500 0.011500
0 -32.942699 0.068300 289.764801 0.000000 0.177600 -0.984103 0.000500 0.065100
0 32.341202 0.068300 289.764801 0.000000 -0.177600 -0.984103 0.999500 0.065100
tile_wood01.jpg
0 -32.942699 0.068300 256.669891 0.000000 0.177600 -0.984103 0.000500 0.065100
0 32.341202 3.110500 261.939087 0.000000 0.781989 -0.623292 0.999500 0.112000
0 32.341202 0.068300 256.670013 0.000000 -0.177600 -0.984103 0.999500 0.065100
tile_wood01.jpg
0 -32.942699 0.068300 256.669891 0.000000 0.177600 -0.984103 0.000500 0.065100
0 -32.942699 3.110500 261.939087 0.000000 0.390997 0.920392 0.000500 0.112000
0 32.341202 3.110500 261.939087 0.000000 0.781989 -0.623292 0.999500 0.112000
tile_wood01.jpg
0 -32.942699 3.110500 261.939087 0.000000 0.390997 0.920392 0.000500 0.112000
0 32.341202 -2.973800 261.939087 0.000000 -0.390997 0.920392 0.999500 0.011500
0 32.341202 3.110500 261.939087 0.000000 0.781989 -0.623292 0.999500 0.112000
tile_wood01.jpg
0 -32.942699 3.110500 261.939087 0.000000 0.390997 0.920392 0.000500 0.112000
0 -32.942699 -2.973800 261.939087 0.000000 -0.781989 -0.623292 0.000500 0.011500
0 32.341202 -2.973800 261.939087 0.000000 -0.390997 0.920392 0.999500 0.011500
tile_wood01.jpg
0 -32.942699 -2.973800 261.939087 0.000000 -0.781989 -0.623292 0.000500 0.011500
0 32.341202 0.068300 256.670013 0.000000 -0.177600 -0.984103 0.999500 0.065100
0 32.341202 -2.973800 261.939087 0.000000 -0.390997 0.920392 0.999500 0.011500
tile_wood01.jpg
0 -32.942699 -2.973800 261.939087 0.000000 -0.781989 -0.623292 0.000500 0.011500
0 -32.942699 0.068300 256.669891 0.000000 0.177600 -0.984103 0.000500 0.065100
0 32.341202 0.068300 256.670013 0.000000 -0.177600 -0.984103 0.999500 0.065100
tile_wood01.jpg
0 -32.942699 0.068300 225.745499 0.000000 0.177600 -0.984103 0.000500 0.065100
0 32.341202 3.110500 231.014603 0.000000 0.781989 -0.623292 0.999500 0.112000
0 32.341202 0.068300 225.745499 0.000000 -0.177600 -0.984103 0.999500 0.065100
tile_wood01.jpg
0 -32.942699 0.068300 225.745499 0.000000 0.177600 -0.984103 0.000500 0.065100
0 -32.942699 3.110500 231.014603 0.000000 0.390997 0.920392 0.000500 0.112000
0 32.341202 3.110500 231.014603 0.000000 0.781989 -0.623292 0.999500 0.112000
tile_wood01.jpg
0 -32.942699 3.110500 231.014603 0.000000 0.390997 0.920392 0.000500 0.112000
0 32.341202 -2.973800 231.014603 0.000000 -0.390997 0.920392 0.999500 0.011500
0 32.341202 3.110500 231.014603 0.000000 0.781989 -0.623292 0.999500 0.112000
tile_wood01.jpg
0 -32.942699 3.110500 231.014603 0.000000 0.390997 0.920392 0.000500 0.112000
0 -32.942699 -2.973800 231.014603 0.000000 -0.781989 -0.623292 0.000500 0.011500
0 32.341202 -2.973800 231.014603 0.000000 -0.390997 0.920392 0.999500 0.011500
tile_wood01.jpg
0 -32.942699 -2.973800 231.014603 0.000000 -0.781989 -0.623292 0.000500 0.011500
0 32.341202 0.068300 225.745499 0.000000 -0.177600 -0.984103 0.999500 0.065100
0 32.341202 -2.973800 231.014603 0.000000 -0.390997 0.920392 0.999500 0.011500
tile_wood01.jpg
0 -32.942699 -2.973800 231.014603 0.000000 -0.781989 -0.623292 0.000500 0.011500
0 -32.942699 0.068300 225.745499 0.000000 0.177600 -0.984103 0.000500 0.065100
0 32.341202 0.068300 225.745499 0.000000 -0.177600 -0.984103 0.999500 0.065100
tile_wood01.jpg
0 -32.942699 0.068300 193.416504 0.000000 0.177600 -0.984103 0.000500 0.065100
0 32.341202 3.110500 198.685593 0.000000 0.781989 -0.623292 0.999500 0.112000
0 32.341202 0.068300 193.416504 0.000000 -0.177600 -0.984103 0.999500 0.065100
tile_wood01.jpg
0 -32.942699 0.068300 193.416504 0.000000 0.177600 -0.984103 0.000500 0.065100
0 -32.942699 3.110500 198.685593 0.000000 0.390997 0.920392 0.000500 0.112000
0 32.341202 3.110500 198.685593 0.000000 0.781989 -0.623292 0.999500 0.112000
tile_wood01.jpg
0 -32.942699 3.110500 198.685593 0.000000 0.390997 0.920392 0.000500 0.112000
0 32.341202 -2.973800 198.685593 0.000000 -0.390997 0.920392 0.999500 0.011500
0 32.341202 3.110500 198.685593 0.000000 0.781989 -0.623292 0.999500 0.112000
tile_wood01.jpg
0 -32.942699 3.110500 198.685593 0.000000 0.390997 0.920392 0.000500 0.112000
0 -32.942699 -2.973800 198.685593 0.000000 -0.781989 -0.623292 0.000500 0.011500
0 32.341202 -2.973800 198.685593 0.000000 -0.390997 0.920392 0.999500 0.011500
tile_wood01.jpg
0 -32.942699 -2.973800 198.685593 0.000000 -0.781989 -0.623292 0.000500 0.011500
0 32.341202 0.068300 193.416504 0.000000 -0.177600 -0.984103 0.999500 0.065100
0 32.341202 -2.973800 198.685593 0.000000 -0.390997 0.920392 0.999500 0.011500
tile_wood01.jpg
0 -32.942699 -2.973800 198.685593 0.000000 -0.781989 -0.623292 0.000500 0.011500
0 -32.942699 0.068300 193.416504 0.000000 0.177600 -0.984103 0.000500 0.065100
0 32.341202 0.068300 193.416504 0.000000 -0.177600 -0.984103 0.999500 0.065100
tile_wood01.jpg
0 -32.942699 0.068300 160.321594 0.000000 0.177600 -0.984103 0.000500 0.065100
0 32.341202 3.110500 165.590805 0.000000 0.781989 -0.623292 0.999500 0.112000
0 32.341202 0.068300 160.321701 0.000000 -0.177600 -0.984103 0.999500 0.065100
tile_wood01.jpg
0 -32.942699 0.068300 160.321594 0.000000 0.177600 -0.984103 0.000500 0.065100
0 -32.942699 3.110500 165.590805 0.000000 0.390997 0.920392 0.000500 0.112000
0 32.341202 3.110500 165.590805 0.000000 0.781989 -0.623292 0.999500 0.112000
tile_wood01.jpg
0 -32.942699 3.110500 165.590805 0.000000 0.390997 0.920392 0.000500 0.112000
0 32.341202 -2.973800 165.590698 0.000000 -0.390997 0.920392 0.999500 0.011500
0 32.341202 3.110500 165.590805 0.000000 0.781989 -0.623292 0.999500 0.112000
tile_wood01.jpg
0 -32.942699 3.110500 165.590805 0.000000 0.390997 0.920392 0.000500 0.112000
0 -32.942699 -2.973800 165.590698 0.000000 -0.781989 -0.623292 0.000500 0.011500
0 32.341202 -2.973800 165.590698 0.000000 -0.390997 0.920392 0.999500 0.011500
tile_wood01.jpg
0 -32.942699 -2.973800 165.590698 0.000000 -0.781989 -0.623292 0.000500 0.011500
0 32.341202 0.068300 160.321701 0.000000 -0.177600 -0.984103 0.999500 0.065100
0 32.341202 -2.973800 165.590698 0.000000 -0.390997 0.920392 0.999500 0.011500
tile_wood01.jpg
0 -32.942699 -2.973800 165.590698 0.000000 -0.781989 -0.623292 0.000500 0.011500
0 -32.942699 0.068300 160.321594 0.000000 0.177600 -0.984103 0.000500 0.065100
0 32.341202 0.068300 160.321701 0.000000 -0.177600 -0.984103 0.999500 0.065100
tile_wood01.jpg
0 -32.942699 0.068300 129.397202 0.000000 0.177600 -0.984103 0.000500 0.065100
0 32.341202 3.110500 134.666306 0.000000 0.781989 -0.623292 0.999500 0.112000
0 32.341202 0.068400 129.397202 0.000000 -0.177600 -0.984103 0.999500 0.065100
tile_wood01.jpg
0 -32.942699 0.068300 129.397202 0.000000 0.177600 -0.984103 0.000500 0.065100
0 -32.942699 3.110500 134.666306 0.000000 0.390997 0.920392 0.000500 0.112000
0 32.341202 3.110500 134.666306 0.000000 0.781989 -0.623292 0.999500 0.112000
tile_wood01.jpg
0 -32.942699 3.110500 134.666306 0.000000 0.390997 0.920392 0.000500 0.112000
0 32.341202 -2.973800 134.666306 0.000000 -0.390997 0.920392 0.999500 0.011500
0 32.341202 3.110500 134.666306 0.000000 0.781989 -0.623292 0.999500 0.112000
tile_wood01.jpg
0 -32.942699 3.110500 134.666306 0.000000 0.390997 0.920392 0.000500 0.112000
0 -32.942699 -2.973800 134.666306 0.000000 -0.781989 -0.623292 0.000500 0.011500
0 32.341202 -2.973800 134.666306 0.000000 -0.390997 0.920392 0.999500 0.011500
tile_wood01.jpg
0 -32.942699 -2.973800 134.666306 0.000000 -0.781989 -0.623292 0.000500 0.011500
0 32.341202 0.068400 129.397202 0.000000 -0.177600 -0.984103 0.999500 0.065100
0 32.341202 -2.973800 134.666306 0.000000 -0.390997 0.920392 0.999500 0.011500
tile_wood01.jpg
0 -32.942699 -2.973800 134.666306 0.000000 -0.781989 -0.623292 0.000500 0.011500
0 -32.942699 0.068300 129.397202 0.000000 0.177600 -0.984103 0.000500 0.065100
0 32.341202 0.068400 129.397202 0.000000 -0.177600 -0.984103 0.999500 0.065100
tile_wood01.jpg
0 -32.942699 0.068400 98.260101 0.000000 0.177600 -0.984103 0.000500 0.065100
0 32.341202 3.110500 103.529198 0.000000 0.781989 -0.623292 0.999500 0.112000
0 32.341202 0.068400 98.260101 0.000000 -0.177600 -0.984103 0.999500 0.065100
tile_wood01.jpg
0 -32.942699 0.068400 98.260101 0.000000 0.177600 -0.984103 0.000500 0.065100
0 -32.942699 3.110500 103.529198 0.000000 0.390997 0.920392 0.000500 0.112000
0 32.341202 3.110500 103.529198 0.000000 0.781989 -0.623292 0.999500 0.112000
tile_wood01.jpg
0 -32.942699 3.110500 103.529198 0.000000 0.390997 0.920392 0.000500 0.112000
0 32.341202 -2.973800 103.529198 0.000000 -0.390997 0.920392 0.999500 0.011500
0 32.341202 3.110500 103.529198 0.000000 0.781989 -0.623292 0.999500 0.112000
tile_wood01.jpg
0 -32.942699 3.110500 103.529198 0.000000 0.390997 0.920392 0.000500 0.112000
0 -32.942699 -2.973800 103.529198 0.000000 -0.781989 -0.623292 0.000500 0.011500
0 32.341202 -2.973800 103.529198 0.000000 -0.390997 0.920392 0.999500 0.011500
tile_wood01.jpg
0 -32.942699 -2.973800 103.529198 0.000000 -0.781989 -0.623292 0.000500 0.011500
0 32.341202 0.068400 98.260101 0.000000 -0.177600 -0.984103 0.999500 0.065100
0 32.341202 -2.973800 103.529198 0.000000 -0.390997 0.920392 0.999500 0.011500
tile_wood01.jpg
0 -32.942699 -2.973800 103.529198 0.000000 -0.781989 -0.623292 0.000500 0.011500
0 -32.942699 0.068400 98.260101 0.000000 0.177600 -0.984103 0.000500 0.065100
0 32.341202 0.068400 98.260101 0.000000 -0.177600 -0.984103 0.999500 0.065100
tile_wood01.jpg
0 -32.942699 0.068400 65.165199 0.000000 0.177600 -0.984103 0.000500 0.065100
0 32.341202 3.110500 70.434402 0.000000 0.781989 -0.623292 0.999500 0.112000
0 32.341202 0.068400 65.165298 0.000000 -0.177600 -0.984103 0.999500 0.065100
tile_wood01.jpg
0 -32.942699 0.068400 65.165199 0.000000 0.177600 -0.984103 0.000500 0.065100
0 -32.942699 3.110500 70.434402 0.000000 0.390997 0.920392 0.000500 0.112000
0 32.341202 3.110500 70.434402 0.000000 0.781989 -0.623292 0.999500 0.112000
tile_wood01.jpg
0 -32.942699 3.110500 70.434402 0.000000 0.390997 0.920392 0.000500 0.112000
0 32.341202 -2.973800 70.434402 0.000000 -0.390997 0.920392 0.999500 0.011500
0 32.341202 3.110500 70.434402 0.000000 0.781989 -0.623292 0.999500 0.112000
tile_wood01.jpg
0 -32.942699 3.110500 70.434402 0.000000 0.390997 0.920392 0.000500 0.112000
0 -32.942699 -2.973800 70.434402 0.000000 -0.781989 -0.623292 0.000500 0.011500
0 32.341202 -2.973800 70.434402 0.000000 -0.390997 0.920392 0.999500 0.011500
tile_wood01.jpg
0 -32.942699 -2.973800 70.434402 0.000000 -0.781989 -0.623292 0.000500 0.011500
0 32.341202 0.068400 65.165298 0.000000 -0.177600 -0.984103 0.999500 0.065100
0 32.341202 -2.973800 70.434402 0.000000 -0.390997 0.920392 0.999500 0.011500
tile_wood01.jpg
0 -32.942699 -2.973800 70.434402 0.000000 -0.781989 -0.623292 0.000500 0.011500
0 -32.942699 0.068400 65.165199 0.000000 0.177600 -0.984103 0.000500 0.065100
0 32.341202 0.068400 65.165298 0.000000 -0.177600 -0.984103 0.999500 0.065100
tile_wood01.jpg
0 -32.942699 0.068400 34.240799 0.000000 0.177600 -0.984103 0.000500 0.065100
0 32.341202 3.110500 39.509899 0.000000 0.781989 -0.623292 0.999500 0.112000
0 32.341202 0.068400 34.240799 0.000000 -0.177600 -0.984103 0.999500 0.065100
tile_wood01.jpg
0 -32.942699 0.068400 34.240799 0.000000 0.177600 -0.984103 0.000500 0.065100
0 -32.942699 3.110500 39.509899 0.000000 0.390997 0.920392 0.000500 0.112000
0 32.341202 3.110500 39.509899 0.000000 0.781989 -0.623292 0.999500 0.112000
tile_wood01.jpg
0 -32.942699 3.110500 39.509899 0.000000 0.390997 0.920392 0.000500 0.112000
0 32.341202 -2.973800 39.509899 0.000000 -0.390997 0.920392 0.999500 0.011500
0 32.341202 3.110500 39.509899 0.000000 0.781989 -0.623292 0.999500 0.112000
tile_wood01.jpg
0 -32.942699 3.110500 39.509899 0.000000 0.390997 0.920392 0.000500 0.112000
0 -32.942699 -2.973800 39.509899 0.000000 -0.781989 -0.623292 0.000500 0.011500
0 32.341202 -2.973800 39.509899 0.000000 -0.390997 0.920392 0.999500 0.011500
tile_wood01.jpg
0 -32.942699 -2.973800 39.509899 0.000000 -0.781989 -0.623292 0.000500 0.011500
0 32.341202 0.068400 34.240799 0.000000 -0.177600 -0.984103 0.999500 0.065100
0 32.341202 -2.973800 39.509899 0.000000 -0.390997 0.920392 0.999500 0.011500
tile_wood01.jpg
0 -32.942699 -2.973800 39.509899 0.000000 -0.781989 -0.623292 0.000500 0.011500
0 -32.942699 0.068400 34.240799 0.000000 0.177600 -0.984103 0.000500 0.065100
0 32.341202 0.068400 34.240799 0.000000 -0.177600 -0.984103 0.999500 0.065100
tile_wood01.jpg
0 32.667404 -4.672200 0.000000 0.000000 0.000000 -1.000000 0.690500 0.746400
0 32.667404 4.702800 0.000000 0.000000 0.000000 -1.000000 0.690500 0.842900
0 42.042404 4.702800 0.000000 0.000000 0.000000 -1.000000 0.787100 0.842900
tile_wood01.jpg
0 42.042404 4.702800 0.000000 0.000000 0.000000 -1.000000 0.787100 0.842900
0 42.042404 -4.672200 0.000000 0.000000 0.000000 -1.000000 0.787100 0.746400
0 32.667404 -4.672200 0.000000 0.000000 0.000000 -1.000000 0.690500 0.746400
tile_wood01.jpg
0 32.667404 -4.672200 330.000000 0.000000 0.000000 1.000000 0.690500 0.746400
0 42.042404 -4.672200 330.000000 0.000000 0.000000 1.000000 0.787100 0.746400
0 42.042404 4.702800 330.000000 0.000000 0.000000 1.000000 0.787100 0.842900
tile_wood01.jpg
0 42.042404 4.702800 330.000000 0.000000 0.000000 1.000000 0.787100 0.842900
0 32.667404 4.702800 330.000000 0.000000 0.000000 1.000000 0.690500 0.842900
0 32.667404 -4.672200 330.000000 0.000000 0.000000 1.000000 0.690500 0.746400
tile_wood01.jpg
0 32.667404 -4.672200 0.000000 0.000000 -1.000000 0.000000 -0.504000 0.112800
0 42.042404 -4.672200 0.000000 0.000000 -1.000000 0.000000 -0.504000 0.057900
0 42.042404 -4.672200 330.000000 0.000000 -1.000000 0.000000 1.504000 0.057900
tile_wood01.jpg
0 42.042404 -4.672200 330.000000 0.000000 -1.000000 0.000000 1.504000 0.057900
0 32.667404 -4.672200 330.000000 0.000000 -1.000000 0.000000 1.504000 0.112800
0 32.667404 -4.672200 0.000000 0.000000 -1.000000 0.000000 -0.504000 0.112800
tile_wood01.jpg
0 42.042404 -4.672200 0.000000 1.000000 0.000000 0.000000 -0.504000 0.057900
0 42.042404 4.702800 0.000000 1.000000 0.000000 0.000000 -0.504000 0.003200
0 42.042404 4.702800 330.000000 1.000000 0.000000 0.000000 1.504000 0.003200
tile_wood01.jpg
0 42.042404 4.702800 330.000000 1.000000 0.000000 0.000000 1.504000 0.003200
0 42.042404 -4.672200 330.000000 1.000000 0.000000 0.000000 1.504000 0.057900
0 42.042404 -4.672200 0.000000 1.000000 0.000000 0.000000 -0.504000 0.057900
tile_wood01.jpg
0 42.042404 4.702800 0.000000 0.000000 1.000000 0.000000 -0.504000 0.003200
0 32.667404 4.702800 0.000000 0.000000 1.000000 0.000000 -0.504000 0.058000
0 32.667404 4.702800 330.000000 0.000000 1.000000 0.000000 1.504000 0.058000
tile_wood01.jpg
0 32.667404 4.702800 330.000000 0.000000 1.000000 0.000000 1.504000 0.058000
0 42.042404 4.702800 330.000000 0.000000 1.000000 0.000000 1.504000 0.003200
0 42.042404 4.702800 0.000000 0.000000 1.000000 0.000000 -0.504000 0.003200
tile_wood01.jpg
0 32.667404 4.702800 0.000000 -1.000000 0.000000 0.000000 -0.504000 0.058000
0 32.667404 -4.672200 0.000000 -1.000000 0.000000 0.000000 -0.504000 0.112800
0 32.667404 -4.672200 330.000000 -1.000000 0.000000 0.000000 1.504000 0.112800
tile_wood01.jpg
0 32.667404 -4.672200 330.000000 -1.000000 0.000000 0.000000 1.504000 0.112800
0 32.667404 4.702800 330.000000 -1.000000 0.000000 0.000000 1.504000 0.058000
0 32.667404 4.702800 0.000000 -1.000000 0.000000 0.000000 -0.504000 0.058000
end
