version 1
nodes
0 "Dummy00" -1
1 "Dummy01" -1
2 "Dummy02" -1
3 "Mesh02" -1
4 "Cylinder02" -1
5 "Bone01" -1
6 "Bone02" 5
7 "Bone03" 6
8 "Bone04" 7
9 "Bone05" 8
10 "Mesh01" 5
end
skeleton
time 0
0 0.000000 0.000000 0.000000 0.000000 0.000000 0.000000
1 0.000000 0.000000 0.000000 0.000000 0.000000 0.000000
2 0.000000 0.000000 0.000000 0.000000 0.000000 0.000000
3 0.055099 -62.288750 208.164734 -0.000253 0.000000 0.000000
4 0.055099 -62.277519 208.146988 0.000000 0.000000 0.000000
5 -0.081355 -62.322540 248.572464 0.000000 0.000000 0.000000
6 -0.144830 0.000000 -2.606949 0.000000 -0.001538 0.000000
7 0.434491 0.000000 -40.117970 0.000000 0.087228 0.000000
8 -0.434490 0.000000 11.007090 0.000000 -0.699160 0.000000
9 0.868985 0.000000 9.848447 0.000000 0.000000 0.000000
10 0.136453 0.033791 -40.407730 -0.000253 0.000000 0.000000
end
triangles
streetlight.jpg
3 -6.605101 -6.360752 245.464005 -1.000000 0.000000 0.000000 0.164800 0.949800
3 -6.605101 6.812637 258.296906 -1.000000 0.000000 0.000000 0.000500 0.999500
3 -6.605101 -6.422752 0.342209 -1.000000 0.000000 0.000000 0.164800 0.000500
streetlight.jpg
3 -6.605101 6.747345 0.338898 -1.000000 0.000000 0.000000 0.000500 0.000500
3 -6.605101 -6.422752 0.342209 -1.000000 0.000000 0.000000 0.164800 0.000500
3 -6.605101 6.812637 258.296906 -1.000000 0.000000 0.000000 0.000500 0.999500
streetlight.jpg
3 6.564999 6.747345 0.338898 1.000000 0.000000 0.000000 0.000500 0.000500
3 6.564999 6.812637 258.296906 1.000000 0.000000 0.000000 0.000500 0.999500
3 6.564999 -6.422752 0.342209 1.000000 0.000000 0.000000 0.164800 0.000500
streetlight.jpg
3 6.564999 -6.360752 245.464005 1.000000 0.000000 0.000000 0.164800 0.949800
3 6.564999 -6.422752 0.342209 1.000000 0.000000 0.000000 0.164800 0.000500
3 6.564999 6.812637 258.296906 1.000000 0.000000 0.000000 0.000500 0.999500
streetlight.jpg
3 -6.605101 6.747345 0.338898 0.000000 1.000000 -0.000300 0.872800 0.000900
3 -6.605101 6.812637 258.296906 0.000000 1.000000 -0.000300 0.877400 0.999200
3 6.564999 6.747345 0.338898 0.000000 1.000000 -0.000300 0.988900 0.001200
streetlight.jpg
3 6.564999 6.812637 258.296906 0.000000 1.000000 -0.000300 0.991500 0.999500
3 6.564999 6.747345 0.338898 0.000000 1.000000 -0.000300 0.988900 0.001200
3 -6.605101 6.812637 258.296906 0.000000 1.000000 -0.000300 0.877400 0.999200
streetlight.jpg
3 -6.605101 -6.360752 245.464005 0.000000 -1.000000 0.000300 0.875100 0.950800
3 -6.605101 -6.422752 0.342209 0.000000 -1.000000 0.000300 0.875100 0.002900
3 6.564999 -6.360752 245.464005 0.000000 -1.000000 0.000300 0.987200 0.951100
streetlight.jpg
3 6.564999 -6.422752 0.342209 0.000000 -1.000000 0.000300 0.987200 0.003300
3 6.564999 -6.360752 245.464005 0.000000 -1.000000 0.000300 0.987200 0.951100
3 -6.605101 -6.422752 0.342209 0.000000 -1.000000 0.000300 0.875100 0.002900
streetlight.jpg
3 -6.605101 -73.273148 245.480896 0.000000 -1.000000 0.000300 0.738700 0.800100
3 6.564999 -73.273148 245.480896 0.000000 -1.000000 0.000300 0.850800 0.800300
3 6.564999 -73.269951 258.317200 0.000000 -1.000000 0.000300 0.849500 0.864500
streetlight.jpg
3 6.564999 -73.269951 258.317200 0.000000 -1.000000 0.000300 0.739000 0.864500
3 -6.605101 -73.269951 258.317200 0.000000 -1.000000 0.000300 0.849500 0.864500
3 -6.605101 -73.273148 245.480896 0.000000 -1.000000 0.000300 0.738700 0.800100
streetlight.jpg
3 6.564999 6.812637 258.296906 0.000000 0.000300 1.000000 0.000800 0.997100
3 -6.605101 6.812637 258.296906 0.000000 0.000300 1.000000 0.003100 0.950900
3 -6.605101 -73.269951 258.317200 0.000000 0.000300 1.000000 0.863700 0.951500
streetlight.jpg
3 -6.605101 -73.269951 258.317200 0.000000 0.000300 1.000000 0.863700 0.951500
3 6.564999 -73.269951 258.317200 0.000000 0.000300 1.000000 0.861400 0.996600
3 6.564999 6.812637 258.296906 0.000000 0.000300 1.000000 0.000800 0.997100
streetlight.jpg
3 -6.605101 6.812637 258.296906 -1.000000 0.000000 0.000000 0.000500 0.999500
3 -6.605101 -6.360752 245.464005 -1.000000 0.000000 0.000000 0.164800 0.949800
3 -6.605101 -73.273148 245.480896 -1.000000 0.000000 0.000000 0.865300 0.949800
streetlight.jpg
3 -6.605101 -73.273148 245.480896 -1.000000 0.000000 0.000000 0.865300 0.949800
3 -6.605101 -73.269951 258.317200 -1.000000 0.000000 0.000000 0.865300 0.999500
3 -6.605101 6.812637 258.296906 -1.000000 0.000000 0.000000 0.000500 0.999500
streetlight.jpg
3 6.564999 -6.360752 245.464005 1.000000 0.000000 0.000000 0.164800 0.949800
3 6.564999 6.812637 258.296906 1.000000 0.000000 0.000000 0.000500 0.999500
3 6.564999 -73.269951 258.317200 1.000000 0.000000 0.000000 0.865300 0.999500
streetlight.jpg
3 6.564999 -73.269951 258.317200 1.000000 0.000000 0.000000 0.865300 0.999500
3 6.564999 -73.273148 245.480896 1.000000 0.000000 0.000000 0.865300 0.949800
3 6.564999 -6.360752 245.464005 1.000000 0.000000 0.000000 0.164800 0.949800
streetlight.jpg
3 -5.342801 -5.396854 224.826599 -1.000000 0.000000 0.000000 0.152700 0.869900
3 -5.342801 -5.318352 212.108307 -1.000000 0.000000 0.000000 0.151700 0.820600
3 -5.342801 -37.035049 245.744507 -1.000000 0.000000 0.000000 0.496100 0.950800
streetlight.jpg
3 -5.342801 -53.163750 245.657806 -1.000000 0.000000 0.000000 0.697300 0.950500
3 -5.342801 -37.035049 245.744507 -1.000000 0.000000 0.000000 0.496100 0.950800
3 -5.342801 -5.318352 212.108307 -1.000000 0.000000 0.000000 0.151700 0.820600
streetlight.jpg
3 5.338499 -53.163750 245.657806 1.000000 0.000000 0.000000 0.697300 0.950500
3 5.338499 -5.318352 212.108307 1.000000 0.000000 0.000000 0.151700 0.820600
3 5.338499 -37.035049 245.744598 1.000000 0.000000 0.000000 0.496100 0.950800
streetlight.jpg
3 5.338499 -5.396854 224.826599 1.000000 0.000000 0.000000 0.152700 0.869900
3 5.338499 -37.035049 245.744598 1.000000 0.000000 0.000000 0.496100 0.950800
3 5.338499 -5.318352 212.108307 1.000000 0.000000 0.000000 0.151700 0.820600
streetlight.jpg
3 -5.342801 -53.163750 245.657806 0.000000 -0.574093 -0.818790 0.851300 0.937600
3 -5.342801 -5.318352 212.108307 0.000000 -0.574093 -0.818790 0.852400 0.694000
3 5.338499 -53.163750 245.657806 0.000000 -0.574093 -0.818790 0.744800 0.938100
streetlight.jpg
3 5.338499 -5.318352 212.108307 0.000000 -0.574093 -0.818790 0.745900 0.694500
3 5.338499 -53.163750 245.657806 0.000000 -0.574093 -0.818790 0.744800 0.938100
3 -5.342801 -5.318352 212.108307 0.000000 -0.574093 -0.818790 0.852400 0.694000
streetlight.jpg
3 -5.342801 -5.396854 224.826599 0.000000 0.551488 0.834182 0.974100 0.635200
3 -5.342801 -37.035049 245.744507 0.000000 0.551488 0.834182 0.971100 0.894600
3 5.338499 -5.396854 224.826599 0.000000 0.551488 0.834182 0.887300 0.633300
streetlight.jpg
3 5.338499 -37.035049 245.744598 0.000000 0.551488 0.834182 0.884300 0.895200
3 5.338499 -5.396854 224.826599 0.000000 0.551488 0.834182 0.887300 0.633300
3 -5.342801 -37.035049 245.744507 0.000000 0.551488 0.834182 0.971100 0.894600
streetlight.jpg
6 4.247489 -55.317650 206.377853 0.370874 0.880706 0.294633 0.211900 0.166600
6 0.241703 -62.286949 215.262512 0.002167 0.000300 0.999998 0.467400 0.039900
6 8.272493 -62.289150 206.370880 0.948390 0.119702 0.293646 0.288400 0.166600
streetlight.jpg
6 -3.802505 -55.317650 206.395264 -0.576846 0.761025 0.296800 0.594200 0.166600
6 0.241703 -62.286949 215.262512 0.002167 0.000300 0.999998 0.467400 0.039900
6 4.247489 -55.317650 206.377853 0.370874 0.880706 0.294633 0.670600 0.166600
streetlight.jpg
6 -7.827495 -62.289249 206.405746 -0.947120 -0.119599 0.297758 0.517700 0.166600
6 0.241703 -62.286949 215.262512 0.002167 0.000300 0.999998 0.467400 0.039900
6 -3.802505 -55.317650 206.395264 -0.576846 0.761025 0.296800 0.594200 0.166600
streetlight.jpg
6 -3.802491 -69.260750 206.398773 -0.369642 -0.880537 0.296681 0.441300 0.166600
6 0.241703 -62.286949 215.262512 0.002167 0.000300 0.999998 0.467400 0.039900
6 -7.827495 -62.289249 206.405746 -0.947120 -0.119599 0.297758 0.517700 0.166600
streetlight.jpg
6 4.247504 -69.260750 206.381348 0.578160 -0.760882 0.294602 0.364800 0.166600
6 0.241703 -62.286949 215.262512 0.002167 0.000300 0.999998 0.467400 0.039900
6 -3.802491 -69.260750 206.398773 -0.369642 -0.880537 0.296681 0.441300 0.166600
streetlight.jpg
6 8.272493 -62.289150 206.370880 0.948390 0.119702 0.293646 0.288400 0.166600
6 0.241703 -62.286949 215.262512 0.002167 0.000300 0.999998 0.467400 0.039900
6 4.247504 -69.260750 206.381348 0.578160 -0.760882 0.294602 0.364800 0.166600
streetlight.jpg
6 8.272493 -62.289150 206.370880 0.948390 0.119702 0.293646 0.288400 0.166600
6 4.262093 -55.315948 213.134430 0.654693 0.755893 -0.001597 0.211900 0.232900
6 8.287096 -62.287449 213.127472 0.981976 -0.188995 -0.002096 0.288400 0.232900
streetlight.jpg
6 8.272493 -62.289150 206.370880 0.948390 0.119702 0.293646 0.288400 0.166600
6 4.247489 -55.317650 206.377853 0.370874 0.880706 0.294633 0.211900 0.166600
6 4.262093 -55.315948 213.134430 0.654693 0.755893 -0.001597 0.211900 0.232900
streetlight.jpg
6 4.247489 -55.317650 206.377853 0.370874 0.880706 0.294633 0.670600 0.166600
6 -3.787902 -55.315948 213.151871 -0.327307 0.944918 0.000498 0.594200 0.232900
6 4.262093 -55.315948 213.134430 0.654693 0.755893 -0.001597 0.670600 0.232900
streetlight.jpg
6 4.247489 -55.317650 206.377853 0.370874 0.880706 0.294633 0.670600 0.166600
6 -3.802505 -55.317650 206.395264 -0.576846 0.761025 0.296800 0.594200 0.166600
6 -3.787902 -55.315948 213.151871 -0.327307 0.944918 0.000498 0.594200 0.232900
streetlight.jpg
6 -3.802505 -55.317650 206.395264 -0.576846 0.761025 0.296800 0.594200 0.166600
6 -7.812892 -62.287449 213.162354 -0.981976 0.188995 0.002096 0.517700 0.232900
6 -3.787902 -55.315948 213.151871 -0.327307 0.944918 0.000498 0.594200 0.232900
streetlight.jpg
6 -3.802505 -55.317650 206.395264 -0.576846 0.761025 0.296800 0.594200 0.166600
6 -7.827495 -62.289249 206.405746 -0.947120 -0.119599 0.297758 0.517700 0.166600
6 -7.812892 -62.287449 213.162354 -0.981976 0.188995 0.002096 0.517700 0.232900
streetlight.jpg
6 -7.827495 -62.289249 206.405746 -0.947120 -0.119599 0.297758 0.517700 0.166600
6 -3.787888 -69.259048 213.155365 -0.654693 -0.755893 0.001597 0.441300 0.232900
6 -7.812892 -62.287449 213.162354 -0.981976 0.188995 0.002096 0.517700 0.232900
streetlight.jpg
6 -7.827495 -62.289249 206.405746 -0.947120 -0.119599 0.297758 0.517700 0.166600
6 -3.802491 -69.260750 206.398773 -0.369642 -0.880537 0.296681 0.441300 0.166600
6 -3.787888 -69.259048 213.155365 -0.654693 -0.755893 0.001597 0.441300 0.232900
streetlight.jpg
6 -3.802491 -69.260750 206.398773 -0.369642 -0.880537 0.296681 0.441300 0.166600
6 4.262107 -69.259048 213.137939 0.327307 -0.944918 -0.000498 0.364800 0.232900
6 -3.787888 -69.259048 213.155365 -0.654693 -0.755893 0.001597 0.441300 0.232900
streetlight.jpg
6 -3.802491 -69.260750 206.398773 -0.369642 -0.880537 0.296681 0.441300 0.166600
6 4.247504 -69.260750 206.381348 0.578160 -0.760882 0.294602 0.364800 0.166600
6 4.262107 -69.259048 213.137939 0.327307 -0.944918 -0.000498 0.364800 0.232900
streetlight.jpg
6 4.247504 -69.260750 206.381348 0.578160 -0.760882 0.294602 0.364800 0.166600
6 8.287096 -62.287449 213.127472 0.981976 -0.188995 -0.002096 0.288400 0.232900
6 4.262107 -69.259048 213.137939 0.327307 -0.944918 -0.000498 0.364800 0.232900
streetlight.jpg
6 4.247504 -69.260750 206.381348 0.578160 -0.760882 0.294602 0.364800 0.166600
6 8.272493 -62.289150 206.370880 0.948390 0.119702 0.293646 0.288400 0.166600
6 8.287096 -62.287449 213.127472 0.981976 -0.188995 -0.002096 0.288400 0.232900
streetlight.jpg
6 0.307126 -62.279350 245.467377 0.002167 0.000300 0.999998 0.431400 0.237300
6 9.625675 -62.281052 238.528854 0.597218 0.000200 0.802079 0.675100 0.179400
6 4.958870 -54.197952 238.536972 0.299480 0.515890 0.802602 0.598700 0.179400
streetlight.jpg
6 0.307126 -62.279350 245.467377 0.002167 0.000300 0.999998 0.431400 0.237300
6 4.958870 -54.197952 238.536972 0.299480 0.515890 0.802602 0.598700 0.179400
6 -4.374624 -54.197952 238.557098 -0.296013 0.515900 0.803880 0.522200 0.179400
streetlight.jpg
6 0.307126 -62.279350 245.467377 0.002167 0.000300 0.999998 0.431400 0.237300
6 -4.374624 -54.197952 238.557098 -0.296013 0.515900 0.803880 0.522200 0.179400
6 -9.041412 -62.281052 238.569305 -0.593720 0.000200 0.804672 0.431400 0.179400
streetlight.jpg
6 0.307126 -62.279350 245.467377 0.002167 0.000300 0.999998 0.431400 0.237300
6 -9.041412 -62.281052 238.569305 -0.593720 0.000200 0.804672 0.431400 0.179400
6 -4.374608 -70.364151 238.561203 -0.296002 -0.515482 0.804153 0.354900 0.179400
streetlight.jpg
6 0.307126 -62.279350 245.467377 0.002167 0.000300 0.999998 0.431400 0.237300
6 -4.374608 -70.364151 238.561203 -0.296002 -0.515482 0.804153 0.354900 0.179400
6 4.958886 -70.364151 238.540970 0.299495 -0.515513 0.802838 0.278500 0.179400
streetlight.jpg
6 0.307126 -62.279350 245.467377 0.002167 0.000300 0.999998 0.431400 0.237300
6 4.958886 -70.364151 238.540970 0.299495 -0.515513 0.802838 0.278500 0.179400
6 9.625675 -62.281052 238.528854 0.597218 0.000200 0.802079 0.202000 0.179400
streetlight_brightness2.jpg
6 8.287096 -62.287449 213.127472 0.822832 0.158398 -0.545763 0.750000 0.000500
6 5.922009 -52.458450 218.126389 0.455668 0.814678 -0.358701 0.906400 0.197000
6 11.596015 -62.286247 218.116577 0.933069 0.011900 -0.359500 0.750000 0.197000
streetlight_brightness2.jpg
6 8.287096 -62.287449 213.127472 0.822832 0.158398 -0.545763 0.750000 0.000500
6 4.262093 -55.315948 213.134430 0.273443 0.792805 -0.544692 0.906400 0.000500
6 5.922009 -52.458450 218.126389 0.455668 0.814678 -0.358701 0.906400 0.197000
streetlight_brightness2.jpg
6 4.262093 -55.315948 213.134430 0.273443 0.792805 -0.544692 -0.093600 0.000500
6 -5.426083 -52.458450 218.151001 -0.478135 0.802627 -0.356618 0.093600 0.197000
6 5.922009 -52.458450 218.126389 0.455668 0.814678 -0.358701 -0.093600 0.197000
streetlight_brightness2.jpg
6 4.262093 -55.315948 213.134430 0.273443 0.792805 -0.544692 -0.093600 0.000500
6 -3.787902 -55.315948 213.151871 -0.550534 0.634173 -0.542897 0.093600 0.000500
6 -5.426083 -52.458450 218.151001 -0.478135 0.802627 -0.356618 0.093600 0.197000
streetlight_brightness2.jpg
6 -3.787902 -55.315948 213.151871 -0.550534 0.634173 -0.542897 0.093600 0.000500
6 -11.100169 -62.286247 218.165726 -0.934602 -0.012100 -0.355489 0.250000 0.197000
6 -5.426083 -52.458450 218.151001 -0.478135 0.802627 -0.356618 0.093600 0.197000
streetlight_brightness2.jpg
6 -3.787902 -55.315948 213.151871 -0.550534 0.634173 -0.542897 0.093600 0.000500
6 -7.812892 -62.287449 213.162354 -0.825167 -0.158702 -0.542137 0.250000 0.000500
6 -11.100169 -62.286247 218.165726 -0.934602 -0.012100 -0.355489 0.250000 0.197000
streetlight_brightness2.jpg
6 -7.812892 -62.287449 213.162354 -0.825167 -0.158702 -0.542137 0.250000 0.000500
6 -5.426063 -72.113953 218.155914 -0.457322 -0.814808 -0.356292 0.406400 0.197000
6 -11.100169 -62.286247 218.165726 -0.934602 -0.012100 -0.355489 0.250000 0.197000
streetlight_brightness2.jpg
6 -7.812892 -62.287449 213.162354 -0.825167 -0.158702 -0.542137 0.250000 0.000500
6 -3.787888 -69.259048 213.155365 -0.275869 -0.793034 -0.543133 0.406400 0.000500
6 -5.426063 -72.113953 218.155914 -0.457322 -0.814808 -0.356292 0.406400 0.197000
streetlight_brightness2.jpg
6 -3.787888 -69.259048 213.155365 -0.275869 -0.793034 -0.543133 0.406400 0.000500
6 5.922029 -72.113953 218.131393 0.476584 -0.802803 -0.358295 0.593600 0.197000
6 -5.426063 -72.113953 218.155914 -0.457322 -0.814808 -0.356292 0.406400 0.197000
streetlight_brightness2.jpg
6 -3.787888 -69.259048 213.155365 -0.275869 -0.793034 -0.543133 0.406400 0.000500
6 4.262107 -69.259048 213.137939 0.548128 -0.634483 -0.544965 0.593600 0.000500
6 5.922029 -72.113953 218.131393 0.476584 -0.802803 -0.358295 0.593600 0.197000
streetlight_brightness2.jpg
6 4.262107 -69.259048 213.137939 0.548128 -0.634483 -0.544965 0.593600 0.000500
6 11.596015 -62.286247 218.116577 0.933069 0.011900 -0.359500 0.750000 0.197000
6 5.922029 -72.113953 218.131393 0.476584 -0.802803 -0.358295 0.593600 0.197000
streetlight_brightness2.jpg
6 4.262107 -69.259048 213.137939 0.548128 -0.634483 -0.544965 0.593600 0.000500
6 8.287096 -62.287449 213.127472 0.822832 0.158398 -0.545763 0.750000 0.000500
6 11.596015 -62.286247 218.116577 0.933069 0.011900 -0.359500 0.750000 0.197000
streetlight_brightness2.jpg
6 11.596015 -62.286247 218.116577 0.933069 0.011900 -0.359500 0.750000 0.197000
6 6.448389 -51.572151 225.405563 0.500660 0.864575 0.043013 0.906400 0.483300
6 12.633096 -62.284348 225.394928 0.999111 -0.001200 0.042139 0.750000 0.483300
streetlight_brightness2.jpg
6 11.596015 -62.286247 218.116577 0.933069 0.011900 -0.359500 0.750000 0.197000
6 5.922009 -52.458450 218.126389 0.455668 0.814678 -0.358701 0.906400 0.197000
6 6.448389 -51.572151 225.405563 0.500660 0.864575 0.043013 0.906400 0.483300
streetlight_brightness2.jpg
6 5.922009 -52.458450 218.126389 0.455668 0.814678 -0.358701 -0.093600 0.197000
6 -5.921002 -51.572151 225.432327 -0.498405 0.865766 0.045176 0.093600 0.483300
6 6.448389 -51.572151 225.405563 0.500660 0.864575 0.043013 -0.093600 0.483300
streetlight_brightness2.jpg
6 5.922009 -52.458450 218.126389 0.455668 0.814678 -0.358701 -0.093600 0.197000
6 -5.426083 -52.458450 218.151001 -0.478135 0.802627 -0.356618 0.093600 0.197000
6 -5.921002 -51.572151 225.432327 -0.498405 0.865766 0.045176 0.093600 0.483300
streetlight_brightness2.jpg
6 -5.426083 -52.458450 218.151001 -0.478135 0.802627 -0.356618 0.093600 0.197000
6 -12.105686 -62.284348 225.448471 -0.998919 0.001200 0.046463 0.250000 0.483300
6 -5.921002 -51.572151 225.432327 -0.498405 0.865766 0.045176 0.093600 0.483300
streetlight_brightness2.jpg
6 -5.426083 -52.458450 218.151001 -0.478135 0.802627 -0.356618 0.093600 0.197000
6 -11.100169 -62.286247 218.165726 -0.934602 -0.012100 -0.355489 0.250000 0.197000
6 -12.105686 -62.284348 225.448471 -0.998919 0.001200 0.046463 0.250000 0.483300
streetlight_brightness2.jpg
6 -11.100169 -62.286247 218.165726 -0.934602 -0.012100 -0.355489 0.250000 0.197000
6 -5.920980 -72.996651 225.437729 -0.500414 -0.864585 0.045585 0.406400 0.483300
6 -12.105686 -62.284348 225.448471 -0.998919 0.001200 0.046463 0.250000 0.483300
streetlight_brightness2.jpg
6 -11.100169 -62.286247 218.165726 -0.934602 -0.012100 -0.355489 0.250000 0.197000
6 -5.426063 -72.113953 218.155914 -0.457322 -0.814808 -0.356292 0.406400 0.197000
6 -5.920980 -72.996651 225.437729 -0.500414 -0.864585 0.045585 0.406400 0.483300
streetlight_brightness2.jpg
6 -5.426063 -72.113953 218.155914 -0.457322 -0.814808 -0.356292 0.406400 0.197000
6 6.448411 -72.996651 225.410965 0.498558 -0.865768 0.043421 0.593600 0.483300
6 -5.920980 -72.996651 225.437729 -0.500414 -0.864585 0.045585 0.406400 0.483300
streetlight_brightness2.jpg
6 -5.426063 -72.113953 218.155914 -0.457322 -0.814808 -0.356292 0.406400 0.197000
6 5.922029 -72.113953 218.131393 0.476584 -0.802803 -0.358295 0.593600 0.197000
6 6.448411 -72.996651 225.410965 0.498558 -0.865768 0.043421 0.593600 0.483300
streetlight_brightness2.jpg
6 5.922029 -72.113953 218.131393 0.476584 -0.802803 -0.358295 0.593600 0.197000
6 12.633096 -62.284348 225.394928 0.999111 -0.001200 0.042139 0.750000 0.483300
6 6.448411 -72.996651 225.410965 0.498558 -0.865768 0.043421 0.593600 0.483300
streetlight_brightness2.jpg
6 5.922029 -72.113953 218.131393 0.476584 -0.802803 -0.358295 0.593600 0.197000
6 11.596015 -62.286247 218.116577 0.933069 0.011900 -0.359500 0.750000 0.197000
6 12.633096 -62.284348 225.394928 0.999111 -0.001200 0.042139 0.750000 0.483300
streetlight_brightness2.jpg
6 12.633096 -62.284348 225.394928 0.999111 -0.001200 0.042139 0.750000 0.483300
6 4.958870 -54.197952 238.536972 0.638887 0.737211 0.219871 0.906400 0.999500
6 9.625675 -62.281052 238.528854 0.958088 -0.184202 0.219403 0.750000 0.999500
streetlight_brightness2.jpg
6 12.633096 -62.284348 225.394928 0.999111 -0.001200 0.042139 0.750000 0.483300
6 6.448389 -51.572151 225.405563 0.500660 0.864575 0.043013 0.906400 0.483300
6 4.958870 -54.197952 238.536972 0.638887 0.737211 0.219871 0.906400 0.999500
streetlight_brightness2.jpg
6 6.448389 -51.572151 225.405563 0.500660 0.864575 0.043013 -0.093600 0.483300
6 -4.374624 -54.197952 238.557098 -0.318727 0.921513 0.221869 0.093600 0.999500
6 4.958870 -54.197952 238.536972 0.638887 0.737211 0.219871 -0.093600 0.999500
streetlight_brightness2.jpg
6 6.448389 -51.572151 225.405563 0.500660 0.864575 0.043013 -0.093600 0.483300
6 -5.921002 -51.572151 225.432327 -0.498405 0.865766 0.045176 0.093600 0.483300
6 -4.374624 -54.197952 238.557098 -0.318727 0.921513 0.221869 0.093600 0.999500
streetlight_brightness2.jpg
6 -5.921002 -51.572151 225.432327 -0.498405 0.865766 0.045176 0.093600 0.483300
6 -9.041412 -62.281052 238.569305 -0.957122 0.184300 0.223499 0.250000 0.999500
6 -4.374624 -54.197952 238.557098 -0.318727 0.921513 0.221869 0.093600 0.999500
streetlight_brightness2.jpg
6 -5.921002 -51.572151 225.432327 -0.498405 0.865766 0.045176 0.093600 0.483300
6 -12.105686 -62.284348 225.448471 -0.998919 0.001200 0.046463 0.250000 0.483300
6 -9.041412 -62.281052 238.569305 -0.957122 0.184300 0.223499 0.250000 0.999500
streetlight_brightness2.jpg
6 -12.105686 -62.284348 225.448471 -0.998919 0.001200 0.046463 0.250000 0.483300
6 -4.374608 -70.364151 238.561203 -0.637920 -0.737099 0.223032 0.406400 0.999500
6 -9.041412 -62.281052 238.569305 -0.957122 0.184300 0.223499 0.250000 0.999500
streetlight_brightness2.jpg
6 -12.105686 -62.284348 225.448471 -0.998919 0.001200 0.046463 0.250000 0.483300
6 -5.920980 -72.996651 225.437729 -0.500414 -0.864585 0.045585 0.406400 0.483300
6 -4.374608 -70.364151 238.561203 -0.637920 -0.737099 0.223032 0.406400 0.999500
streetlight_brightness2.jpg
6 -5.920980 -72.996651 225.437729 -0.500414 -0.864585 0.045585 0.406400 0.483300
6 4.958886 -70.364151 238.540970 0.319675 -0.921387 0.221030 0.593600 0.999500
6 -4.374608 -70.364151 238.561203 -0.637920 -0.737099 0.223032 0.406400 0.999500
streetlight_brightness2.jpg
6 -5.920980 -72.996651 225.437729 -0.500414 -0.864585 0.045585 0.406400 0.483300
6 6.448411 -72.996651 225.410965 0.498558 -0.865768 0.043421 0.593600 0.483300
6 4.958886 -70.364151 238.540970 0.319675 -0.921387 0.221030 0.593600 0.999500
streetlight_brightness2.jpg
6 6.448411 -72.996651 225.410965 0.498558 -0.865768 0.043421 0.593600 0.483300
6 9.625675 -62.281052 238.528854 0.958088 -0.184202 0.219403 0.750000 0.999500
6 4.958886 -70.364151 238.540970 0.319675 -0.921387 0.221030 0.593600 0.999500
streetlight_brightness2.jpg
6 6.448411 -72.996651 225.410965 0.498558 -0.865768 0.043421 0.593600 0.483300
6 12.633096 -62.284348 225.394928 0.999111 -0.001200 0.042139 0.750000 0.483300
6 9.625675 -62.281052 238.528854 0.958088 -0.184202 0.219403 0.750000 0.999500
end
