version 1
nodes
0 "boness01" -1
1 "boness02" 0
2 "boness" 1
3 "Mesh01" 0
end
skeleton
time 0
0 0.843857 14.115675 209.799805 0.000000 0.000000 0.000000
1 -1.055359 -1.636780 28.322693 0.000000 0.000000 0.000000
2 -0.762698 1.708619 30.844086 0.000000 -0.000000 0.000000
3 -133.568008 -143.205994 -209.115494 0.000000 0.000000 0.000000
end
triangles
tile_house01.jpg
0 -154.202438 -201.177353 326.907410 0.167095 0.092697 0.981573 0.979300 1.000400
0 -0.560928 -201.177353 296.939606 0.137498 0.095499 0.985888 0.979300 0.514200
0 -151.583237 -197.761765 326.139191 0.180096 0.109998 0.977479 0.962300 0.992100
tile_house01.jpg
0 -151.583237 -197.761765 326.139191 0.180096 0.109998 0.977479 0.962300 0.992100
0 -154.202438 -0.444017 304.154205 0.192803 0.015600 0.981114 -0.014400 1.000400
0 -154.202438 -201.177353 326.907410 0.167095 0.092697 0.981573 0.979300 1.000400
tile_house01.jpg
0 -0.560928 -201.177353 296.939606 0.137498 0.095499 0.985888 0.979300 0.514200
0 156.021057 -201.177353 284.176300 0.042200 0.084800 0.995504 0.979300 0.998100
1 87.967575 -77.793747 276.549896 0.078902 0.033201 0.996329 0.362300 0.782800
tile_house01.jpg
1 88.042068 -0.458727 280.663086 0.076597 0.000700 0.997062 -0.014500 0.783000
1 -0.697937 -0.444017 281.757904 0.075299 0.023500 0.996884 -0.014400 0.514700
1 -0.496933 -77.954453 284.294495 0.113098 0.061499 0.991679 0.363100 0.514000
tile_house01.jpg
0 -154.202438 -0.444017 304.154205 0.192803 0.015600 0.981114 -0.014400 1.000400
1 -87.591232 91.318192 302.086395 0.194297 -0.115798 0.974084 0.444500 0.789600
0 -154.202438 200.289139 326.907410 0.186609 -0.108305 0.976446 0.989500 1.000400
tile_house01.jpg
0 -0.560928 200.289139 296.939606 0.156602 -0.110902 0.981416 0.989500 0.514200
0 -154.202438 200.289139 326.907410 0.186609 -0.108305 0.976446 0.989500 1.000400
1 -87.591232 91.318192 302.086395 0.194297 -0.115798 0.974084 0.444500 0.789600
tile_house01.jpg
1 -0.697937 -0.444017 281.757904 0.075299 0.023500 0.996884 -0.014400 0.514700
1 88.042068 -0.458727 280.663086 0.076597 0.000700 0.997062 -0.014500 0.783000
1 87.973373 91.050186 277.141602 0.061797 -0.025899 0.997753 0.443200 0.782800
tile_house01.jpg
0 156.021057 200.289139 284.176300 0.053501 -0.097302 0.993816 0.989500 0.998100
0 -0.560928 200.289139 296.939606 0.156602 -0.110902 0.981416 0.989500 0.514200
1 -0.496933 91.131241 284.347412 0.122898 -0.087198 0.988581 0.443600 0.514000
tile_house01.jpg
0 156.021057 -0.444017 271.382294 0.068403 -0.003700 0.997651 -0.014400 0.998100
1 88.042068 -0.458727 280.663086 0.076597 0.000700 0.997062 -0.014500 0.783000
1 87.967575 -77.793747 276.549896 0.078902 0.033201 0.996329 0.362300 0.782800
tile_house01.jpg
1 87.973373 91.050186 277.141602 0.061797 -0.025899 0.997753 0.443200 0.782800
0 156.021057 -0.444017 271.382294 0.068403 -0.003700 0.997651 -0.014400 0.998100
0 156.021057 200.289139 284.176300 0.053501 -0.097302 0.993816 0.989500 0.998100
tile_house01.jpg
1 -87.679535 -0.458727 290.284607 0.160606 -0.018901 0.986838 -0.014500 0.789900
0 -154.202438 -0.444017 304.154205 0.192803 0.015600 0.981114 -0.014400 1.000400
1 -88.449432 -77.844528 297.670105 0.165399 0.096499 0.981494 0.362500 0.792400
tile_house01.jpg
0 -151.583237 -197.761765 326.139191 0.180096 0.109998 0.977479 0.962300 0.992100
0 -0.560928 -201.177353 296.939606 0.137498 0.095499 0.985888 0.979300 0.514200
1 -0.496933 -77.954453 284.294495 0.113098 0.061499 0.991679 0.363100 0.514000
tile_house01.jpg
1 -0.697937 -0.444017 281.757904 0.075299 0.023500 0.996884 -0.014400 0.514700
1 -87.679535 -0.458727 290.284607 0.160606 -0.018901 0.986838 -0.014500 0.789900
1 -88.449432 -77.844528 297.670105 0.165399 0.096499 0.981494 0.362500 0.792400
tile_house01.jpg
1 -87.679535 -0.458727 290.284607 0.160606 -0.018901 0.986838 -0.014500 0.789900
1 -0.697937 -0.444017 281.757904 0.075299 0.023500 0.996884 -0.014400 0.514700
1 -0.496933 91.131241 284.347412 0.122898 -0.087198 0.988581 0.443600 0.514000
tile_house01.jpg
1 -0.697937 -0.444017 281.757904 0.075299 0.023500 0.996884 -0.014400 0.514700
1 -88.449432 -77.844528 297.670105 0.165399 0.096499 0.981494 0.362500 0.792400
1 -0.496933 -77.954453 284.294495 0.113098 0.061499 0.991679 0.363100 0.514000
tile_house01.jpg
1 -88.449432 -77.844528 297.670105 0.165399 0.096499 0.981494 0.362500 0.792400
0 -154.202438 -0.444017 304.154205 0.192803 0.015600 0.981114 -0.014400 1.000400
0 -151.583237 -197.761765 326.139191 0.180096 0.109998 0.977479 0.962300 0.992100
tile_house01.jpg
1 -0.496933 -77.954453 284.294495 0.113098 0.061499 0.991679 0.363100 0.514000
1 -88.449432 -77.844528 297.670105 0.165399 0.096499 0.981494 0.362500 0.792400
0 -151.583237 -197.761765 326.139191 0.180096 0.109998 0.977479 0.962300 0.992100
tile_house01.jpg
1 88.042068 -0.458727 280.663086 0.076597 0.000700 0.997062 -0.014500 0.783000
1 -0.496933 -77.954453 284.294495 0.113098 0.061499 0.991679 0.363100 0.514000
1 87.967575 -77.793747 276.549896 0.078902 0.033201 0.996329 0.362300 0.782800
tile_house01.jpg
1 87.967575 -77.793747 276.549896 0.078902 0.033201 0.996329 0.362300 0.782800
1 -0.496933 -77.954453 284.294495 0.113098 0.061499 0.991679 0.363100 0.514000
0 -0.560928 -201.177353 296.939606 0.137498 0.095499 0.985888 0.979300 0.514200
tile_house01.jpg
0 156.021057 -0.444017 271.382294 0.068403 -0.003700 0.997651 -0.014400 0.998100
1 87.967575 -77.793747 276.549896 0.078902 0.033201 0.996329 0.362300 0.782800
0 156.021057 -201.177353 284.176300 0.042200 0.084800 0.995504 0.979300 0.998100
tile_house01.jpg
0 -0.560928 200.289139 296.939606 0.156602 -0.110902 0.981416 0.989500 0.514200
1 -87.591232 91.318192 302.086395 0.194297 -0.115798 0.974084 0.444500 0.789600
1 -0.496933 91.131241 284.347412 0.122898 -0.087198 0.988581 0.443600 0.514000
tile_house01.jpg
0 -154.202438 -0.444017 304.154205 0.192803 0.015600 0.981114 -0.014400 1.000400
1 -87.679535 -0.458727 290.284607 0.160606 -0.018901 0.986838 -0.014500 0.789900
1 -87.591232 91.318192 302.086395 0.194297 -0.115798 0.974084 0.444500 0.789600
tile_house01.jpg
1 -0.496933 91.131241 284.347412 0.122898 -0.087198 0.988581 0.443600 0.514000
1 -87.591232 91.318192 302.086395 0.194297 -0.115798 0.974084 0.444500 0.789600
1 -87.679535 -0.458727 290.284607 0.160606 -0.018901 0.986838 -0.014500 0.789900
tile_house01.jpg
0 156.021057 200.289139 284.176300 0.053501 -0.097302 0.993816 0.989500 0.998100
1 -0.496933 91.131241 284.347412 0.122898 -0.087198 0.988581 0.443600 0.514000
1 87.973373 91.050186 277.141602 0.061797 -0.025899 0.997753 0.443200 0.782800
tile_house01.jpg
1 87.973373 91.050186 277.141602 0.061797 -0.025899 0.997753 0.443200 0.782800
1 -0.496933 91.131241 284.347412 0.122898 -0.087198 0.988581 0.443600 0.514000
1 -0.697937 -0.444017 281.757904 0.075299 0.023500 0.996884 -0.014400 0.514700
tile_house01.jpg
1 88.042068 -0.458727 280.663086 0.076597 0.000700 0.997062 -0.014500 0.783000
0 156.021057 -0.444017 271.382294 0.068403 -0.003700 0.997651 -0.014400 0.998100
1 87.973373 91.050186 277.141602 0.061797 -0.025899 0.997753 0.443200 0.782800
tile_ston06.jpg
0 124.081970 -161.002914 304.704498 0.000000 0.000000 1.000000 0.012800 0.830700
0 124.081970 -176.449326 304.704498 0.000000 0.000000 1.000000 0.158300 0.830700
0 139.528259 -176.449326 304.704498 0.000000 0.000000 1.000000 0.158300 0.976100
tile_ston06.jpg
0 139.528259 -176.449326 304.704498 0.000000 0.000000 1.000000 0.158300 0.976100
0 139.528259 -161.002914 304.704498 0.000000 0.000000 1.000000 0.012800 0.976100
0 124.081970 -161.002914 304.704498 0.000000 0.000000 1.000000 0.012800 0.830700
tile_ston06.jpg
0 124.081970 -161.002914 -1.374405 -1.000000 0.000000 0.000000 0.000500 -0.928600
0 124.081970 -176.449326 -1.374405 -1.000000 0.000000 0.000000 0.149100 -0.928600
0 124.081970 -176.449326 304.704498 -1.000000 0.000000 0.000000 0.149100 1.928600
tile_ston06.jpg
0 124.081970 -176.449326 304.704498 -1.000000 0.000000 0.000000 0.149100 1.928600
0 124.081970 -161.002914 304.704498 -1.000000 0.000000 0.000000 0.000500 1.928600
0 124.081970 -161.002914 -1.374405 -1.000000 0.000000 0.000000 0.000500 -0.928600
tile_ston06.jpg
0 124.081970 -176.449326 -1.374405 0.000000 -1.000000 0.000000 0.149100 -0.928600
0 139.528259 -176.449326 -1.374405 0.000000 -1.000000 0.000000 0.296900 -0.928600
0 139.528259 -176.449326 304.704498 0.000000 -1.000000 0.000000 0.296900 1.928600
tile_ston06.jpg
0 139.528259 -176.449326 304.704498 0.000000 -1.000000 0.000000 0.296900 1.928600
0 124.081970 -176.449326 304.704498 0.000000 -1.000000 0.000000 0.149100 1.928600
0 124.081970 -176.449326 -1.374405 0.000000 -1.000000 0.000000 0.149100 -0.928600
tile_ston06.jpg
0 139.528259 -176.449326 -1.374405 1.000000 0.000000 0.000000 0.296900 -0.928600
0 139.528259 -161.002914 -1.374405 1.000000 0.000000 0.000000 0.148300 -0.928600
0 139.528259 -161.002914 304.704498 1.000000 0.000000 0.000000 0.148300 1.928600
tile_ston06.jpg
0 139.528259 -161.002914 304.704498 1.000000 0.000000 0.000000 0.148300 1.928600
0 139.528259 -176.449326 304.704498 1.000000 0.000000 0.000000 0.296900 1.928600
0 139.528259 -176.449326 -1.374405 1.000000 0.000000 0.000000 0.296900 -0.928600
tile_ston06.jpg
0 139.528259 -161.002914 -1.374405 0.000000 1.000000 0.000000 0.148300 -0.928600
0 124.081970 -161.002914 -1.374405 0.000000 1.000000 0.000000 0.000500 -0.928600
0 124.081970 -161.002914 304.704498 0.000000 1.000000 0.000000 0.000500 1.928600
tile_ston06.jpg
0 124.081970 -161.002914 304.704498 0.000000 1.000000 0.000000 0.000500 1.928600
0 139.528259 -161.002914 304.704498 0.000000 1.000000 0.000000 0.148300 1.928600
0 139.528259 -161.002914 -1.374405 0.000000 1.000000 0.000000 0.148300 -0.928600
tile_ston06.jpg
0 124.081665 158.507034 304.704498 0.000000 0.000000 1.000000 0.012800 0.830700
0 139.528076 158.507034 304.704498 0.000000 0.000000 1.000000 0.158300 0.830700
0 139.528076 173.953384 304.704498 0.000000 0.000000 1.000000 0.158300 0.976100
tile_ston06.jpg
0 139.528076 173.953384 304.704498 0.000000 0.000000 1.000000 0.158300 0.976100
0 124.081665 173.953384 304.704498 0.000000 0.000000 1.000000 0.012800 0.976100
0 124.081665 158.507034 304.704498 0.000000 0.000000 1.000000 0.012800 0.830700
tile_ston06.jpg
0 124.081665 158.507034 -1.374405 0.000000 -1.000000 0.000000 0.000500 -0.928600
0 139.528076 158.507034 -1.374405 0.000000 -1.000000 0.000000 0.149100 -0.928600
0 139.528076 158.507034 304.704498 0.000000 -1.000000 0.000000 0.149100 1.928600
tile_ston06.jpg
0 139.528076 158.507034 304.704498 0.000000 -1.000000 0.000000 0.149100 1.928600
0 124.081665 158.507034 304.704498 0.000000 -1.000000 0.000000 0.000500 1.928600
0 124.081665 158.507034 -1.374405 0.000000 -1.000000 0.000000 0.000500 -0.928600
tile_ston06.jpg
0 139.528076 158.507034 -1.374405 1.000000 0.000000 0.000000 0.149100 -0.928600
0 139.528076 173.953384 -1.374405 1.000000 0.000000 0.000000 0.296900 -0.928600
0 139.528076 173.953384 304.704498 1.000000 0.000000 0.000000 0.296900 1.928600
tile_ston06.jpg
0 139.528076 173.953384 304.704498 1.000000 0.000000 0.000000 0.296900 1.928600
0 139.528076 158.507034 304.704498 1.000000 0.000000 0.000000 0.149100 1.928600
0 139.528076 158.507034 -1.374405 1.000000 0.000000 0.000000 0.149100 -0.928600
tile_ston06.jpg
0 139.528076 173.953384 -1.374405 0.000000 1.000000 0.000000 0.296900 -0.928600
0 124.081665 173.953384 -1.374405 0.000000 1.000000 0.000000 0.148300 -0.928600
0 124.081665 173.953384 304.704498 0.000000 1.000000 0.000000 0.148300 1.928600
tile_ston06.jpg
0 124.081665 173.953384 304.704498 0.000000 1.000000 0.000000 0.148300 1.928600
0 139.528076 173.953384 304.704498 0.000000 1.000000 0.000000 0.296900 1.928600
0 139.528076 173.953384 -1.374405 0.000000 1.000000 0.000000 0.296900 -0.928600
tile_ston06.jpg
0 124.081665 173.953384 -1.374405 -1.000000 0.000000 0.000000 0.148300 -0.928600
0 124.081665 158.507034 -1.374405 -1.000000 0.000000 0.000000 0.000500 -0.928600
0 124.081665 158.507034 304.704498 -1.000000 0.000000 0.000000 0.000500 1.928600
tile_ston06.jpg
0 124.081665 158.507034 304.704498 -1.000000 0.000000 0.000000 0.000500 1.928600
0 124.081665 173.953384 304.704498 -1.000000 0.000000 0.000000 0.148300 1.928600
0 124.081665 173.953384 -1.374405 -1.000000 0.000000 0.000000 0.148300 -0.928600
tile_ston06.jpg
0 -131.932526 -176.449020 330.409698 0.000000 0.000000 1.000000 0.012800 0.830700
0 -116.486130 -176.449020 330.409698 0.000000 0.000000 1.000000 0.158300 0.830700
0 -116.486130 -161.002853 330.409698 0.000000 0.000000 1.000000 0.158300 0.976100
tile_ston06.jpg
0 -116.486130 -161.002853 330.409698 0.000000 0.000000 1.000000 0.158300 0.976100
0 -131.932526 -161.002853 330.409698 0.000000 0.000000 1.000000 0.012800 0.976100
0 -131.932526 -176.449020 330.409698 0.000000 0.000000 1.000000 0.012800 0.830700
tile_ston06.jpg
0 -131.932526 -176.449020 -1.374405 0.000000 -1.000000 0.000000 0.000500 -0.928600
0 -116.486130 -176.449020 -1.374405 0.000000 -1.000000 0.000000 0.149100 -0.928600
0 -116.486130 -176.449020 330.409698 0.000000 -1.000000 0.000000 0.149100 1.928600
tile_ston06.jpg
0 -116.486130 -176.449020 330.409698 0.000000 -1.000000 0.000000 0.149100 1.928600
0 -131.932526 -176.449020 330.409698 0.000000 -1.000000 0.000000 0.000500 1.928600
0 -131.932526 -176.449020 -1.374405 0.000000 -1.000000 0.000000 0.000500 -0.928600
tile_ston06.jpg
0 -116.486130 -176.449020 -1.374405 1.000000 0.000000 0.000000 0.149100 -0.928600
0 -116.486130 -161.002853 -1.374405 1.000000 0.000000 0.000000 0.296900 -0.928600
0 -116.486130 -161.002853 330.409698 1.000000 0.000000 0.000000 0.296900 1.928600
tile_ston06.jpg
0 -116.486130 -161.002853 330.409698 1.000000 0.000000 0.000000 0.296900 1.928600
0 -116.486130 -176.449020 330.409698 1.000000 0.000000 0.000000 0.149100 1.928600
0 -116.486130 -176.449020 -1.374405 1.000000 0.000000 0.000000 0.149100 -0.928600
tile_ston06.jpg
0 -116.486130 -161.002853 -1.374405 0.000000 1.000000 0.000000 0.296900 -0.928600
0 -131.932526 -161.002853 -1.374405 0.000000 1.000000 0.000000 0.148300 -0.928600
0 -131.932526 -161.002853 330.409698 0.000000 1.000000 0.000000 0.148300 1.928600
tile_ston06.jpg
0 -131.932526 -161.002853 330.409698 0.000000 1.000000 0.000000 0.148300 1.928600
0 -116.486130 -161.002853 330.409698 0.000000 1.000000 0.000000 0.296900 1.928600
0 -116.486130 -161.002853 -1.374405 0.000000 1.000000 0.000000 0.296900 -0.928600
tile_ston06.jpg
0 -131.932526 -161.002853 -1.374405 -1.000000 0.000000 0.000000 0.148300 -0.928600
0 -131.932526 -176.449020 -1.374405 -1.000000 0.000000 0.000000 0.000500 -0.928600
0 -131.932526 -176.449020 330.409698 -1.000000 0.000000 0.000000 0.000500 1.928600
tile_ston06.jpg
0 -131.932526 -176.449020 330.409698 -1.000000 0.000000 0.000000 0.000500 1.928600
0 -131.932526 -161.002853 330.409698 -1.000000 0.000000 0.000000 0.148300 1.928600
0 -131.932526 -161.002853 -1.374405 -1.000000 0.000000 0.000000 0.148300 -0.928600
tile_ston06.jpg
0 -131.932526 173.953384 330.409698 0.000000 0.000000 1.000000 0.012800 0.830700
0 -131.932526 158.506973 330.409698 0.000000 0.000000 1.000000 0.158300 0.830700
0 -116.486229 158.506973 330.409698 0.000000 0.000000 1.000000 0.158300 0.976100
tile_ston06.jpg
0 -116.486229 158.506973 330.409698 0.000000 0.000000 1.000000 0.158300 0.976100
0 -116.486229 173.953384 330.409698 0.000000 0.000000 1.000000 0.012800 0.976100
0 -131.932526 173.953384 330.409698 0.000000 0.000000 1.000000 0.012800 0.830700
tile_ston06.jpg
0 -131.932526 173.953384 -1.374405 -1.000000 0.000000 0.000000 0.000500 -0.928600
0 -131.932526 158.506973 -1.374405 -1.000000 0.000000 0.000000 0.149100 -0.928600
0 -131.932526 158.506973 330.409698 -1.000000 0.000000 0.000000 0.149100 1.928600
tile_ston06.jpg
0 -131.932526 158.506973 330.409698 -1.000000 0.000000 0.000000 0.149100 1.928600
0 -131.932526 173.953384 330.409698 -1.000000 0.000000 0.000000 0.000500 1.928600
0 -131.932526 173.953384 -1.374405 -1.000000 0.000000 0.000000 0.000500 -0.928600
tile_ston06.jpg
0 -131.932526 158.506973 -1.374405 0.000000 -1.000000 0.000000 0.149100 -0.928600
0 -116.486229 158.506973 -1.374405 0.000000 -1.000000 0.000000 0.296900 -0.928600
0 -116.486229 158.506973 330.409698 0.000000 -1.000000 0.000000 0.296900 1.928600
tile_ston06.jpg
0 -116.486229 158.506973 330.409698 0.000000 -1.000000 0.000000 0.296900 1.928600
0 -131.932526 158.506973 330.409698 0.000000 -1.000000 0.000000 0.149100 1.928600
0 -131.932526 158.506973 -1.374405 0.000000 -1.000000 0.000000 0.149100 -0.928600
tile_ston06.jpg
0 -116.486229 158.506973 -1.374405 1.000000 0.000000 0.000000 0.296900 -0.928600
0 -116.486229 173.953384 -1.374405 1.000000 0.000000 0.000000 0.148300 -0.928600
0 -116.486229 173.953384 330.409698 1.000000 0.000000 0.000000 0.148300 1.928600
tile_ston06.jpg
0 -116.486229 173.953384 330.409698 1.000000 0.000000 0.000000 0.148300 1.928600
0 -116.486229 158.506973 330.409698 1.000000 0.000000 0.000000 0.296900 1.928600
0 -116.486229 158.506973 -1.374405 1.000000 0.000000 0.000000 0.296900 -0.928600
tile_ston06.jpg
0 -116.486229 173.953384 -1.374405 0.000000 1.000000 0.000000 0.148300 -0.928600
0 -131.932526 173.953384 -1.374405 0.000000 1.000000 0.000000 0.000500 -0.928600
0 -131.932526 173.953384 330.409698 0.000000 1.000000 0.000000 0.000500 1.928600
tile_ston06.jpg
0 -131.932526 173.953384 330.409698 0.000000 1.000000 0.000000 0.000500 1.928600
0 -116.486229 173.953384 330.409698 0.000000 1.000000 0.000000 0.148300 1.928600
0 -116.486229 173.953384 -1.374405 0.000000 1.000000 0.000000 0.148300 -0.928600
end
