version 1
nodes
0 "Box01" -1
1 "Box02" -1
2 "Box03" -1
3 "Box04" -1
end
skeleton
time 0
0 -1.456958 -6.849999 30.902340 1.570796 0.000000 -2.268928
1 -111.889977 3.791087 27.486443 -1.570796 -3.141593 0.087267
2 39.357368 46.698364 27.322182 -1.570796 -3.141593 -1.483530
3 -62.929436 8.384827 16.823212 -1.570796 -3.141593 1.047197
end
triangles
tree_09.tga
0 7.626000 -2.736700 1.145300 -0.171498 0.939288 0.297196 0.002500 0.000500
0 -13.611401 -7.168300 1.145300 -0.196096 0.939880 0.279594 0.999500 0.000500
0 -11.728100 -14.737701 27.908199 -0.158596 0.907574 0.388789 0.999500 0.250200
tree_09.tga
0 -11.728100 -14.737701 27.908199 -0.158596 0.907574 0.388789 0.999500 0.250200
0 9.171000 -11.466801 27.908199 0.037798 0.787651 0.614962 0.002500 0.250200
0 7.626000 -2.736700 1.145300 -0.171498 0.939288 0.297196 0.002500 0.000500
tree_09.tga
0 9.171000 -11.466801 27.908199 0.037798 0.787651 0.614962 0.002500 0.250200
0 -11.728100 -14.737701 27.908199 -0.158596 0.907574 0.388789 0.999500 0.250200
0 -10.552999 -25.782000 44.289001 0.270196 0.214597 0.938585 0.999500 0.500000
tree_09.tga
0 -10.552999 -25.782000 44.289001 0.270196 0.214597 0.938585 0.999500 0.500000
0 8.962800 -24.706699 34.761299 0.396916 -0.483420 0.780232 0.002500 0.500000
0 9.171000 -11.466801 27.908199 0.037798 0.787651 0.614962 0.002500 0.250200
tree_09.tga
0 8.962800 -24.706699 34.761299 0.396916 -0.483420 0.780232 0.002500 0.500000
0 -10.552999 -25.782000 44.289001 0.270196 0.214597 0.938585 0.999500 0.500000
0 -11.398801 -33.355804 32.958302 0.322014 -0.728432 0.604726 0.999500 0.749800
tree_09.tga
0 -11.398801 -33.355804 32.958302 0.322014 -0.728432 0.604726 0.999500 0.749800
0 7.574001 -33.115105 23.430500 0.343706 -0.643211 0.684212 0.002500 0.749800
0 8.962800 -24.706699 34.761299 0.396916 -0.483420 0.780232 0.002500 0.500000
tree_09.tga
0 7.574001 -33.115105 23.430500 0.343706 -0.643211 0.684212 0.002500 0.749800
0 -11.398801 -33.355804 32.958302 0.322014 -0.728432 0.604726 0.999500 0.749800
0 -17.321899 -49.915798 23.043800 0.367504 -0.561607 0.741309 0.999500 0.999500
tree_09.tga
0 -17.321899 -49.915798 23.043800 0.367504 -0.561607 0.741309 0.999500 0.999500
0 0.324600 -51.363499 13.516100 0.360711 -0.551816 0.751922 0.002500 0.999500
0 7.574001 -33.115105 23.430500 0.343706 -0.643211 0.684212 0.002500 0.749800
tree_09.tga
0 -2.074600 9.199301 1.177700 -0.974221 -0.013300 0.225205 0.000500 0.007900
0 -1.255900 -16.616899 1.177700 -0.976800 -0.031000 0.211900 0.997500 0.007900
0 5.929400 -16.835199 34.271900 -0.901305 -0.008400 0.433103 0.997500 0.335000
tree_09.tga
0 5.929400 -16.835199 34.271900 -0.901305 -0.008400 0.433103 0.997500 0.335000
0 6.048399 9.664101 34.271900 -0.804034 -0.037102 0.593425 0.000500 0.335000
0 -2.074600 9.199301 1.177700 -0.974221 -0.013300 0.225205 0.000500 0.007900
tree_09.tga
0 6.048399 9.664101 34.271900 -0.804034 -0.037102 0.593425 0.000500 0.335000
0 5.929400 -16.835199 34.271900 -0.901305 -0.008400 0.433103 0.997500 0.335000
0 27.295799 -22.952101 51.211102 -0.433815 -0.164106 0.885931 0.997500 0.662200
tree_09.tga
0 27.295799 -22.952101 51.211102 -0.433815 -0.164106 0.885931 0.997500 0.662200
0 31.790699 5.879701 60.738800 -0.252906 -0.332608 0.908521 0.000500 0.662200
0 6.048399 9.664101 34.271900 -0.804034 -0.037102 0.593425 0.000500 0.335000
tree_09.tga
0 31.790699 5.879701 60.738800 -0.252906 -0.332608 0.908521 0.000500 0.662200
0 27.295799 -22.952101 51.211102 -0.433815 -0.164106 0.885931 0.997500 0.662200
0 52.641800 -35.519001 42.122398 0.014200 -0.404102 0.914604 0.997500 0.989400
tree_09.tga
0 52.641800 -35.519001 42.122398 0.014200 -0.404102 0.914604 0.997500 0.989400
0 75.408699 -24.411201 51.650200 -0.139805 -0.463816 0.874831 0.000500 0.989400
0 31.790699 5.879701 60.738800 -0.252906 -0.332608 0.908521 0.000500 0.662200
tree_09.tga
0 0.417500 -14.025000 1.065901 0.872686 0.388794 0.295395 0.002500 0.000500
0 -9.379701 8.455000 1.065901 0.874179 0.380991 0.301093 0.999500 0.000500
0 -17.666901 3.906100 30.885201 0.777079 0.347791 0.524586 0.999500 0.250200
tree_09.tga
0 -17.666901 3.906100 30.885201 0.777079 0.347791 0.524586 0.999500 0.250200
0 -8.217601 -16.845701 30.885201 0.658933 0.424121 0.621231 0.002500 0.250200
0 0.417500 -14.025000 1.065901 0.872686 0.388794 0.295395 0.002500 0.000500
tree_09.tga
0 -8.217601 -16.845701 30.885201 0.658933 0.424121 0.621231 0.002500 0.250200
0 -17.666901 3.906100 30.885201 0.777079 0.347791 0.524586 0.999500 0.250200
0 -29.136600 -5.029099 38.535099 0.069199 0.310696 0.947987 0.999500 0.500000
tree_09.tga
0 -29.136600 -5.029099 38.535099 0.069199 0.310696 0.947987 0.999500 0.500000
0 -20.127800 -22.502100 48.062901 -0.554590 0.175597 0.813385 0.002500 0.500000
0 -8.217601 -16.845701 30.885201 0.658933 0.424121 0.621231 0.002500 0.250200
tree_09.tga
0 -20.127800 -22.502100 48.062901 -0.554590 0.175597 0.813385 0.002500 0.500000
0 -29.136600 -5.029099 38.535099 0.069199 0.310696 0.947987 0.999500 0.500000
0 -35.815300 -11.864001 25.886900 -0.801886 -0.062599 0.594189 0.999500 0.749800
tree_09.tga
0 -35.815300 -11.864001 25.886900 -0.801886 -0.062599 0.594189 0.999500 0.749800
0 -27.746401 -27.829802 35.414600 -0.747827 -0.090303 0.657724 0.002500 0.749800
0 -20.127800 -22.502100 48.062901 -0.554590 0.175597 0.813385 0.002500 0.500000
tree_09.tga
0 -27.746401 -27.829802 35.414600 -0.747827 -0.090303 0.657724 0.002500 0.749800
0 -35.815300 -11.864001 25.886900 -0.801886 -0.062599 0.594189 0.999500 0.749800
0 -48.303600 -30.982603 14.819599 -0.698506 -0.086101 0.710406 0.999500 0.999500
tree_09.tga
0 -48.303600 -30.982603 14.819599 -0.698506 -0.086101 0.710406 0.999500 0.999500
0 -43.544106 -44.917500 14.819599 -0.671123 -0.229208 0.705024 0.002500 0.999500
0 -27.746401 -27.829802 35.414600 -0.747827 -0.090303 0.657724 0.002500 0.749800
tree_09.tga
0 -10.872300 1.357000 1.523701 0.102101 -0.971505 0.213901 0.000500 0.007900
0 11.815101 3.451200 1.523701 0.089601 -0.970806 0.222501 0.997500 0.007900
0 11.027901 10.470501 32.460300 0.096096 -0.889968 0.445784 0.997500 0.335000
tree_09.tga
0 11.027901 10.470501 32.460300 0.096096 -0.889968 0.445784 0.997500 0.335000
0 -12.261801 7.724101 32.460300 0.196002 -0.779608 0.594806 0.000500 0.335000
0 -10.872300 1.357000 1.523701 0.102101 -0.971505 0.213901 0.000500 0.007900
tree_09.tga
0 -12.261801 7.724101 32.460300 0.196002 -0.779608 0.594806 0.000500 0.335000
0 11.027901 10.470501 32.460300 0.096096 -0.889968 0.445784 0.997500 0.335000
0 4.207201 30.830101 46.811501 0.272491 -0.312289 0.910068 0.997500 0.662200
tree_09.tga
0 4.207201 30.830101 46.811501 0.272491 -0.312289 0.910068 0.997500 0.662200
0 -20.198603 26.448799 56.339298 0.185005 0.117203 0.975724 0.000500 0.662200
0 -12.261801 7.724101 32.460300 0.196002 -0.779608 0.594806 0.000500 0.335000
tree_09.tga
0 -20.198603 26.448799 56.339298 0.185005 0.117203 0.975724 0.000500 0.662200
0 4.207201 30.830101 46.811501 0.272491 -0.312289 0.910068 0.997500 0.662200
0 -12.093802 56.676498 39.111500 0.037198 0.487275 0.872456 0.997500 0.989400
tree_09.tga
0 -12.093802 56.676498 39.111500 0.037198 0.487275 0.872456 0.997500 0.989400
0 -38.278305 47.186703 39.111500 -0.189902 0.524107 0.830210 0.000500 0.989400
0 -20.198603 26.448799 56.339298 0.185005 0.117203 0.975724 0.000500 0.662200
tree_09.tga
1 -103.648804 1.087100 1.383801 0.547103 0.781305 0.300402 0.002500 0.000500
1 -119.215897 11.987200 1.383801 0.547103 0.781305 0.300402 0.999500 0.000500
1 -123.143097 5.711600 24.860001 0.523281 0.747273 0.409585 0.999500 0.250200
tree_09.tga
1 -123.143097 5.711600 24.860001 0.523281 0.747273 0.409585 0.999500 0.250200
1 -107.576103 -5.188600 24.860001 0.557010 0.554910 0.617911 0.002500 0.250200
1 -103.648804 1.087100 1.383801 0.547103 0.781305 0.300402 0.002500 0.000500
tree_09.tga
1 -107.576103 -5.188600 24.860001 0.557010 0.554910 0.617911 0.002500 0.250200
1 -123.143097 5.711600 24.860001 0.523281 0.747273 0.409585 0.999500 0.250200
1 -128.958603 -3.755900 39.229099 0.359894 0.003700 0.932986 0.999500 0.500000
tree_09.tga
1 -128.958603 -3.755900 39.229099 0.359894 0.003700 0.932986 0.999500 0.500000
1 -114.258400 -14.731902 30.871500 0.040802 -0.570129 0.820542 0.002500 0.500000
1 -107.576103 -5.188600 24.860001 0.557010 0.554910 0.617911 0.002500 0.250200
tree_09.tga
1 -114.258400 -14.731902 30.871500 0.040802 -0.570129 0.820542 0.002500 0.500000
1 -128.958603 -3.755900 39.229099 0.359894 0.003700 0.932986 0.999500 0.500000
1 -133.481506 -10.215201 29.289898 -0.125601 -0.702007 0.701007 0.999500 0.749800
tree_09.tga
1 -133.481506 -10.215201 29.289898 -0.125601 -0.702007 0.701007 0.999500 0.749800
1 -118.781197 -21.191200 20.932199 -0.016001 -0.619234 0.785043 0.002500 0.749800
1 -114.258400 -14.731902 30.871500 0.040802 -0.570129 0.820542 0.002500 0.500000
tree_09.tga
1 -118.781197 -21.191200 20.932199 -0.016001 -0.619234 0.785043 0.002500 0.749800
1 -133.481506 -10.215201 29.289898 -0.125601 -0.702007 0.701007 0.999500 0.749800
1 -144.717300 -26.261700 20.592999 0.091198 -0.523090 0.847384 0.999500 0.999500
tree_09.tga
1 -144.717300 -26.261700 20.592999 0.091198 -0.523090 0.847384 0.999500 0.999500
1 -130.016998 -37.237701 12.235399 0.091198 -0.523090 0.847384 0.002500 0.999500
1 -118.781197 -21.191200 20.932199 -0.016001 -0.619234 0.785043 0.002500 0.749800
tree_09.tga
1 -101.677399 12.958500 1.412201 -0.690115 0.690115 0.217905 0.000500 0.007900
1 -117.538399 -2.902400 1.412199 -0.690115 0.690115 0.217905 0.997500 0.007900
1 -112.684502 -7.215200 30.442200 -0.638626 0.638626 0.429317 0.997500 0.335000
tree_09.tga
1 -112.684502 -7.215200 30.442200 -0.638626 0.638626 0.429317 0.997500 0.335000
1 -96.823601 8.645700 30.442202 -0.630079 0.526182 0.571081 0.000500 0.335000
1 -101.677399 12.958500 1.412201 -0.690115 0.690115 0.217905 0.000500 0.007900
tree_09.tga
1 -96.823601 8.645700 30.442202 -0.630079 0.526182 0.571081 0.000500 0.335000
1 -112.684502 -7.215200 30.442200 -0.638626 0.638626 0.429317 0.997500 0.335000
1 -99.329399 -20.570299 45.301102 -0.426803 0.131001 0.894806 0.997500 0.662200
tree_09.tga
1 -99.329399 -20.570299 45.301102 -0.426803 0.131001 0.894806 0.997500 0.662200
1 -82.601700 -4.633601 53.658798 -0.348389 -0.220393 0.911072 0.000500 0.662200
1 -96.823601 8.645700 30.442202 -0.630079 0.526182 0.571081 0.000500 0.335000
tree_09.tga
1 -82.601700 -4.633601 53.658798 -0.348389 -0.220393 0.911072 0.000500 0.662200
1 -99.329399 -20.570299 45.301102 -0.426803 0.131001 0.894806 0.997500 0.662200
1 -82.148003 -34.425301 37.328606 -0.113402 -0.478906 0.870511 0.997500 0.989400
tree_09.tga
1 -82.148003 -34.425301 37.328606 -0.113402 -0.478906 0.870511 0.997500 0.989400
1 -60.349998 -30.650602 45.686302 -0.244193 -0.468987 0.848776 0.000500 0.989400
1 -82.601700 -4.633601 53.658798 -0.348389 -0.220393 0.911072 0.000500 0.662200
tree_09.tga
1 -114.950798 -2.081500 1.314098 0.865000 -0.403400 0.298400 0.002500 0.000500
1 -105.985497 17.144501 1.314100 0.865000 -0.403400 0.298400 0.999500 0.000500
1 -113.292503 20.827301 27.471399 0.767692 -0.357997 0.531495 0.999500 0.250200
tree_09.tga
1 -113.292503 20.827301 27.471399 0.767692 -0.357997 0.531495 0.999500 0.250200
1 -122.257698 1.601300 27.471399 0.735608 -0.237503 0.634407 0.002500 0.250200
1 -114.950798 -2.081500 1.314098 0.865000 -0.403400 0.298400 0.002500 0.000500
tree_09.tga
1 -122.257698 1.601300 27.471399 0.735608 -0.237503 0.634407 0.002500 0.250200
1 -113.292503 20.827301 27.471399 0.767692 -0.357997 0.531495 0.999500 0.250200
1 -125.079002 26.323400 34.181900 0.276601 0.114800 0.954103 0.999500 0.500000
tree_09.tga
1 -125.079002 26.323400 34.181900 0.276601 0.114800 0.954103 0.999500 0.500000
1 -133.177505 7.173200 42.539600 -0.195005 0.460412 0.866022 0.002500 0.500000
1 -122.257698 1.601300 27.471399 0.735608 -0.237503 0.634407 0.002500 0.250200
tree_09.tga
1 -133.177505 7.173200 42.539600 -0.195005 0.460412 0.866022 0.002500 0.500000
1 -125.079002 26.323400 34.181900 0.276601 0.114800 0.954103 0.999500 0.500000
1 -133.056503 30.043400 23.086899 -0.482095 0.513594 0.709792 0.999500 0.749800
tree_09.tga
1 -133.056503 30.043400 23.086899 -0.482095 0.513594 0.709792 0.999500 0.749800
1 -141.154999 10.893300 31.444597 -0.471029 0.427426 0.771647 0.002500 0.749800
1 -133.177505 7.173200 42.539600 -0.195005 0.460412 0.866022 0.002500 0.500000
tree_09.tga
1 -141.154999 10.893300 31.444597 -0.471029 0.427426 0.771647 0.002500 0.749800
1 -133.056503 30.043400 23.086899 -0.482095 0.513594 0.709792 0.999500 0.749800
1 -152.874695 39.284801 13.378797 -0.394591 0.371791 0.840280 0.999500 0.999500
tree_09.tga
1 -152.874695 39.284801 13.378797 -0.394591 0.371791 0.840280 0.999500 0.999500
1 -161.839905 20.058701 13.378797 -0.565592 0.263696 0.781389 0.002500 0.999500
1 -141.154999 10.893300 31.444597 -0.471029 0.427426 0.771647 0.002500 0.749800
tree_09.tga
1 -111.815598 14.681500 1.715700 -0.629527 -0.750232 0.202109 0.000500 0.007900
1 -97.257797 2.466000 1.715702 -0.629527 -0.750232 0.202109 0.997500 0.007900
1 -93.367798 6.511200 28.853003 -0.583565 -0.695458 0.419274 0.997500 0.335000
tree_09.tga
1 -93.367798 6.511200 28.853003 -0.583565 -0.695458 0.419274 0.997500 0.335000
1 -107.925598 18.726700 28.853001 -0.465508 -0.688912 0.555610 0.000500 0.335000
1 -111.815598 14.681500 1.715700 -0.629527 -0.750232 0.202109 0.000500 0.007900
tree_09.tga
1 -107.925598 18.726700 28.853001 -0.465508 -0.688912 0.555610 0.000500 0.335000
1 -93.367798 6.511200 28.853003 -0.583565 -0.695458 0.419274 0.997500 0.335000
1 -83.082298 18.769100 41.441902 -0.080500 -0.486798 0.869797 0.997500 0.662200
tree_09.tga
1 -83.082298 18.769100 41.441902 -0.080500 -0.486798 0.869797 0.997500 0.662200
1 -96.773300 31.060301 49.799599 0.241911 -0.140006 0.960144 0.000500 0.662200
1 -107.925598 18.726700 28.853001 -0.465508 -0.688912 0.555610 0.000500 0.335000
tree_09.tga
1 -96.773300 31.060301 49.799599 0.241911 -0.140006 0.960144 0.000500 0.662200
1 -83.082298 18.769100 41.441902 -0.080500 -0.486798 0.869797 0.997500 0.662200
1 -69.614700 34.819099 34.687405 0.452402 0.213001 0.866004 0.997500 0.989400
tree_09.tga
1 -69.614700 34.819099 34.687405 0.452402 0.213001 0.866004 0.997500 0.989400
1 -84.172501 47.034500 34.687405 0.383384 0.456882 0.802668 0.000500 0.989400
1 -96.773300 31.060301 49.799599 0.241911 -0.140006 0.960144 0.000500 0.662200
tree_09.tga
2 57.846802 -3.389305 0.988506 0.708399 -0.643799 0.289300 0.002500 0.000500
2 70.061897 10.057201 0.988504 0.708585 -0.643686 0.289094 0.999500 0.000500
2 64.077797 14.109001 24.672503 0.679407 -0.617406 0.396504 0.999500 0.250200
tree_09.tga
2 64.077797 14.109001 24.672503 0.679407 -0.617406 0.396504 0.999500 0.250200
2 51.846500 0.653702 24.672504 0.490395 -0.635193 0.596694 0.002500 0.250200
2 57.846802 -3.389305 0.988506 0.708399 -0.643799 0.289300 0.002500 0.000500
tree_09.tga
2 51.846500 0.653702 24.672504 0.490395 -0.635193 0.596694 0.002500 0.250200
2 64.077797 14.109001 24.672503 0.679407 -0.617406 0.396504 0.999500 0.250200
2 55.049900 20.148899 39.168804 -0.030701 -0.384008 0.922819 0.999500 0.500000
tree_09.tga
2 55.049900 20.148899 39.168804 -0.030701 -0.384008 0.922819 0.999500 0.500000
2 42.789101 7.482700 30.737204 -0.575320 0.012801 0.817828 0.002500 0.500000
2 51.846500 0.653702 24.672504 0.490395 -0.635193 0.596694 0.002500 0.250200
tree_09.tga
2 42.789101 7.482700 30.737204 -0.575320 0.012801 0.817828 0.002500 0.500000
2 55.049900 20.148899 39.168804 -0.030701 -0.384008 0.922819 0.999500 0.500000
2 48.944801 24.797600 29.141602 -0.686694 0.199998 0.698894 0.999500 0.749800
tree_09.tga
2 48.944801 24.797600 29.141602 -0.686694 0.199998 0.698894 0.999500 0.749800
2 36.666698 12.125702 20.710001 -0.614970 0.074096 0.785062 0.002500 0.749800
2 42.789101 7.482700 30.737204 -0.575320 0.012801 0.817828 0.002500 0.500000
tree_09.tga
2 36.666698 12.125702 20.710001 -0.614970 0.074096 0.785062 0.002500 0.749800
2 48.944801 24.797600 29.141602 -0.686694 0.199998 0.698894 0.999500 0.749800
2 33.805401 36.418499 20.367802 -0.528894 -0.050399 0.847190 0.999500 0.999500
tree_09.tga
2 33.805401 36.418499 20.367802 -0.528894 -0.050399 0.847190 0.999500 0.999500
2 21.484200 23.732399 11.936102 -0.528285 -0.050299 0.847576 0.002500 0.999500
2 36.666698 12.125702 20.710001 -0.614970 0.074096 0.785062 0.002500 0.749800
tree_09.tga
2 69.632500 -6.015709 1.017204 0.712726 0.669424 0.209508 0.000500 0.007900
2 54.952702 9.621696 1.017204 0.712890 0.669190 0.209697 0.997500 0.007900
2 50.219501 5.487000 30.304104 0.661993 0.621793 0.418495 0.997500 0.335000
tree_09.tga
2 50.219501 5.487000 30.304104 0.661993 0.621793 0.418495 0.997500 0.335000
2 64.918297 -10.154900 30.304106 0.553020 0.621922 0.554420 0.000500 0.335000
2 69.632500 -6.015709 1.017204 0.712726 0.669424 0.209508 0.000500 0.007900
tree_09.tga
2 64.918297 -10.154900 30.304106 0.553020 0.621922 0.554420 0.000500 0.335000
2 50.219501 5.487000 30.304104 0.661993 0.621793 0.418495 0.997500 0.335000
2 35.725300 -5.844902 45.294502 0.153700 0.442899 0.883299 0.997500 0.662200
tree_09.tga
2 35.725300 -5.844902 45.294502 0.153700 0.442899 0.883299 0.997500 0.662200
2 50.488800 -22.307098 53.726105 -0.199800 0.386001 0.900602 0.000500 0.662200
2 64.918297 -10.154900 30.304106 0.553020 0.621922 0.554420 0.000500 0.335000
tree_09.tga
2 50.488800 -22.307098 53.726105 -0.199800 0.386001 0.900602 0.000500 0.662200
2 35.725300 -5.844902 45.294502 0.153700 0.442899 0.883299 0.997500 0.662200
2 20.481197 -20.783203 37.251503 -0.468789 0.160096 0.868680 0.997500 0.989400
tree_09.tga
2 20.481197 -20.783203 37.251503 -0.468789 0.160096 0.868680 0.997500 0.989400
2 22.726000 -41.212898 45.683113 -0.447589 0.298693 0.842880 0.000500 0.989400
2 50.488800 -22.307098 53.726105 -0.199800 0.386001 0.900602 0.000500 0.662200
tree_09.tga
2 55.566200 7.190395 0.918203 -0.439611 -0.853821 0.278807 0.002500 0.000500
2 74.180901 -2.376602 0.918203 -0.439000 -0.854300 0.278300 0.999500 0.000500
2 78.468102 4.018101 27.307003 -0.393591 -0.764183 0.510989 0.999500 0.250200
tree_09.tga
2 78.468102 4.018101 27.307003 -0.393591 -0.764183 0.510989 0.999500 0.250200
2 59.871498 13.607700 27.307003 -0.280402 -0.742605 0.608204 0.002500 0.250200
2 55.566200 7.190395 0.918203 -0.439611 -0.853821 0.278807 0.002500 0.000500
tree_09.tga
2 59.871498 13.607700 27.307003 -0.280402 -0.742605 0.608204 0.002500 0.250200
2 78.468102 4.018101 27.307003 -0.393591 -0.764183 0.510989 0.999500 0.250200
2 84.962303 14.331696 34.076904 0.092002 -0.304608 0.948024 0.999500 0.500000
tree_09.tga
2 84.962303 14.331696 34.076904 0.092002 -0.304608 0.948024 0.999500 0.500000
2 66.396797 23.162001 42.508503 0.478408 0.184603 0.858515 0.002500 0.500000
2 59.871498 13.607700 27.307003 -0.280402 -0.742605 0.608204 0.002500 0.250200
tree_09.tga
2 66.396797 23.162001 42.508503 0.478408 0.184603 0.858515 0.002500 0.500000
2 84.962303 14.331696 34.076904 0.092002 -0.304608 0.948024 0.999500 0.500000
2 89.375702 21.289801 22.883701 0.540989 0.470090 0.697385 0.999500 0.749800
tree_09.tga
2 89.375702 21.289801 22.883701 0.540989 0.470090 0.697385 0.999500 0.749800
2 70.828598 30.146700 31.315401 0.457732 0.465233 0.757654 0.002500 0.749800
2 66.396797 23.162001 42.508503 0.478408 0.184603 0.858515 0.002500 0.500000
tree_09.tga
2 70.828598 30.146700 31.315401 0.457732 0.465233 0.757654 0.002500 0.749800
2 89.375702 21.289801 22.883701 0.540989 0.470090 0.697385 0.999500 0.749800
2 100.401901 38.496101 13.089702 0.400704 0.390104 0.829009 0.999500 0.999500
tree_09.tga
2 100.401901 38.496101 13.089702 0.400704 0.390104 0.829009 0.999500 0.999500
2 81.904099 48.212399 13.089701 0.303613 0.578026 0.757433 0.002500 0.999500
2 70.828598 30.146700 31.315401 0.457732 0.465233 0.757654 0.002500 0.749800
tree_09.tga
2 72.168701 3.112495 1.323404 -0.667291 0.719491 0.192497 0.000500 0.007900
2 58.735600 -9.337605 1.323406 -0.667003 0.719703 0.192701 0.997500 0.007900
2 62.507000 -13.171501 28.700905 -0.621501 0.670001 0.406000 0.997500 0.335000
tree_09.tga
2 62.507000 -13.171501 28.700905 -0.621501 0.670001 0.406000 0.997500 0.335000
2 75.925797 -0.719601 28.700903 -0.633537 0.551232 0.542931 0.000500 0.335000
2 72.168701 3.112495 1.323404 -0.667291 0.719491 0.192497 0.000500 0.007900
tree_09.tga
2 75.925797 -0.719601 28.700903 -0.633537 0.551232 0.542931 0.000500 0.335000
2 62.507000 -13.171501 28.700905 -0.621501 0.670001 0.406000 0.997500 0.335000
2 74.070702 -23.366600 41.401108 -0.479589 0.130197 0.867780 0.997500 0.662200
tree_09.tga
2 74.070702 -23.366600 41.401108 -0.479589 0.130197 0.867780 0.997500 0.662200
2 87.461700 -11.707401 49.832809 -0.156599 -0.252298 0.954894 0.000500 0.662200
2 75.925797 -0.719601 28.700903 -0.633537 0.551232 0.542931 0.000500 0.335000
tree_09.tga
2 87.461700 -11.707401 49.832809 -0.156599 -0.252298 0.954894 0.000500 0.662200
2 74.070702 -23.366600 41.401108 -0.479589 0.130197 0.867780 0.997500 0.662200
2 89.258003 -36.609207 34.586906 0.178004 -0.504410 0.844917 0.997500 0.989400
tree_09.tga
2 89.258003 -36.609207 34.586906 0.178004 -0.504410 0.844917 0.997500 0.989400
2 102.590103 -24.158600 34.586906 0.421388 -0.451187 0.786678 0.000500 0.989400
2 87.461700 -11.707401 49.832809 -0.156599 -0.252298 0.954894 0.000500 0.662200
tree_09.tga
3 -56.614399 12.839901 0.241100 -0.300193 0.861179 0.410190 0.002500 0.000500
3 -73.569901 6.681401 0.961600 -0.295094 0.860881 0.414491 0.999500 0.000500
3 -70.546898 0.689300 15.556899 -0.275288 0.795864 0.539275 0.999500 0.250200
tree_09.tga
3 -70.546898 0.689300 15.556899 -0.275288 0.795864 0.539275 0.999500 0.250200
3 -53.584202 6.860301 15.214900 -0.125903 0.665815 0.735417 0.002500 0.250200
3 -56.614399 12.839901 0.241100 -0.300193 0.861179 0.410190 0.002500 0.000500
tree_09.tga
3 -53.584202 6.860301 15.214900 -0.125903 0.665815 0.735417 0.002500 0.250200
3 -70.546898 0.689300 15.556899 -0.275288 0.795864 0.539275 0.999500 0.250200
3 -66.276199 -8.870300 24.410599 0.142592 0.206288 0.968046 0.999500 0.500000
tree_09.tga
3 -66.276199 -8.870300 24.410599 0.142592 0.206288 0.968046 0.999500 0.500000
3 -49.758099 -3.469499 19.120701 0.363483 -0.220790 0.905059 0.002500 0.500000
3 -53.584202 6.860301 15.214900 -0.125903 0.665815 0.735417 0.002500 0.250200
tree_09.tga
3 -49.758099 -3.469499 19.120701 0.363483 -0.220790 0.905059 0.002500 0.500000
3 -66.276199 -8.870300 24.410599 0.142592 0.206288 0.968046 0.999500 0.500000
3 -63.755100 -15.980598 18.487799 0.395793 -0.382293 0.834985 0.999500 0.749800
tree_09.tga
3 -63.755100 -15.980598 18.487799 0.395793 -0.382293 0.834985 0.999500 0.749800
3 -47.267502 -10.632599 13.095199 0.375494 -0.259396 0.889785 0.002500 0.749800
3 -49.758099 -3.469499 19.120701 0.363483 -0.220790 0.905059 0.002500 0.500000
tree_09.tga
3 -47.267502 -10.632599 13.095199 0.375494 -0.259396 0.889785 0.002500 0.749800
3 -63.755100 -15.980598 18.487799 0.395793 -0.382293 0.834985 0.999500 0.749800
3 -57.451797 -33.574600 13.628297 0.347107 -0.132503 0.928418 0.999500 0.999500
tree_09.tga
3 -57.451797 -33.574600 13.628297 0.347107 -0.132503 0.928418 0.999500 0.999500
3 -40.989899 -28.271099 8.221798 0.347602 -0.132701 0.928205 0.002500 0.999500
3 -47.267502 -10.632599 13.095199 0.375494 -0.259396 0.889785 0.002500 0.749800
tree_09.tga
3 -64.779900 20.840202 0.110802 -0.927532 -0.154505 0.340312 0.000500 0.007900
3 -61.068600 -0.126098 0.960700 -0.926740 -0.150106 0.344415 0.997500 0.007900
3 -54.752602 1.846600 18.815901 -0.819338 -0.133606 0.557526 0.997500 0.335000
tree_09.tga
3 -54.752602 1.846600 18.815901 -0.819338 -0.133606 0.557526 0.997500 0.335000
3 -58.454201 22.829700 18.518602 -0.689183 -0.178796 0.702182 0.000500 0.335000
3 -64.779900 20.840202 0.110802 -0.927532 -0.154505 0.340312 0.000500 0.007900
tree_09.tga
3 -58.454201 22.829700 18.518602 -0.689183 -0.178796 0.702182 0.000500 0.335000
3 -54.752602 1.846600 18.815901 -0.819338 -0.133606 0.557526 0.997500 0.335000
3 -37.038399 5.038799 28.063499 -0.265808 -0.196306 0.943827 0.997500 0.662200
tree_09.tga
3 -37.038399 5.038799 28.063499 -0.265808 -0.196306 0.943827 0.997500 0.662200
3 -40.336403 26.721098 33.535706 -0.034600 -0.298797 0.953689 0.000500 0.662200
3 -58.454201 22.829700 18.518602 -0.689183 -0.178796 0.702182 0.000500 0.335000
tree_09.tga
3 -40.336403 26.721098 33.535706 -0.034600 -0.298797 0.953689 0.000500 0.662200
3 -37.038399 5.038799 28.063499 -0.265808 -0.196306 0.943827 0.997500 0.662200
3 -16.908798 10.834800 22.835001 0.241495 -0.271394 0.931679 0.997500 0.989400
tree_09.tga
3 -16.908798 10.834800 22.835001 0.241495 -0.271394 0.931679 0.997500 0.989400
3 -7.954105 29.879801 28.293404 0.182795 -0.349390 0.918974 0.000500 0.989400
3 -40.336403 26.721098 33.535706 -0.034600 -0.298797 0.953689 0.000500 0.662200
tree_09.tga
3 -60.300701 2.329101 0.768799 0.789376 0.464686 0.401188 0.002500 0.000500
3 -70.384003 19.770203 0.243000 0.789078 0.468187 0.397689 0.999500 0.000500
3 -76.925003 16.621500 16.927401 0.669611 0.397306 0.627510 0.999500 0.250200
tree_09.tga
3 -76.925003 16.621500 16.927401 0.669611 0.397306 0.627510 0.999500 0.250200
3 -66.847504 -0.829400 17.145901 0.530708 0.403006 0.745611 0.002500 0.250200
3 -60.300701 2.329101 0.768799 0.789376 0.464686 0.401188 0.002500 0.000500
tree_09.tga
3 -66.847504 -0.829400 17.145901 0.530708 0.403006 0.745611 0.002500 0.250200
3 -76.925003 16.621500 16.927401 0.669611 0.397306 0.627510 0.999500 0.250200
3 -87.586700 10.509499 21.269699 0.036699 0.208794 0.977271 0.999500 0.500000
tree_09.tga
3 -87.586700 10.509499 21.269699 0.036699 0.208794 0.977271 0.999500 0.500000
3 -77.074097 -6.187701 26.427498 -0.328000 0.084400 0.940900 0.002500 0.500000
3 -66.847504 -0.829400 17.145901 0.530708 0.403006 0.745611 0.002500 0.250200
tree_09.tga
3 -77.074097 -6.187701 26.427498 -0.328000 0.084400 0.940900 0.002500 0.500000
3 -87.586700 10.509499 21.269699 0.036699 0.208794 0.977271 0.999500 0.500000
3 -94.896400 6.211199 14.668098 -0.526680 -0.068897 0.847267 0.999500 0.749800
tree_09.tga
3 -94.896400 6.211199 14.668098 -0.526680 -0.068897 0.847267 0.999500 0.749800
3 -84.350700 -10.428900 19.873999 -0.443918 -0.084904 0.892036 0.002500 0.749800
3 -77.074097 -6.187701 26.427498 -0.328000 0.084400 0.940900 0.002500 0.500000
tree_09.tga
3 -84.350700 -10.428900 19.873999 -0.443918 -0.084904 0.892036 0.002500 0.749800
3 -94.896400 6.211199 14.668098 -0.526680 -0.068897 0.847267 0.999500 0.749800
3 -112.975502 -4.329201 9.491596 -0.350409 -0.052501 0.935124 0.999500 0.999500
tree_09.tga
3 -112.975502 -4.329201 9.491596 -0.350409 -0.052501 0.935124 0.999500 0.999500
3 -102.895302 -21.775803 9.875696 -0.370794 -0.194197 0.908185 0.002500 0.999500
3 -84.350700 -10.428900 19.873999 -0.443918 -0.084904 0.892036 0.002500 0.749800
tree_09.tga
3 -71.633698 13.909201 0.792700 0.252696 -0.913587 0.318595 0.000500 0.007900
3 -54.203701 18.567001 0.132502 0.256111 -0.913740 0.315414 0.997500 0.007900
3 -54.920200 24.338499 17.436302 0.227210 -0.809534 0.541323 0.997500 0.335000
tree_09.tga
3 -54.920200 24.338499 17.436302 0.227210 -0.809534 0.541323 0.997500 0.335000
3 -72.357399 19.668100 17.692499 0.264406 -0.675915 0.687916 0.000500 0.335000
3 -71.633698 13.909201 0.792700 0.252696 -0.913587 0.318595 0.000500 0.007900
tree_09.tga
3 -72.357399 19.668100 17.692499 0.264406 -0.675915 0.687916 0.000500 0.335000
3 -54.920200 24.338499 17.436302 0.227210 -0.809534 0.541323 0.997500 0.335000
3 -58.803005 39.111301 25.506802 0.265391 -0.260191 0.928369 0.997500 0.662200
tree_09.tga
3 -58.803005 39.111301 25.506802 0.265391 -0.260191 0.928369 0.997500 0.662200
3 -75.826698 35.156998 30.956202 0.186708 0.066803 0.980142 0.000500 0.662200
3 -72.357399 19.668100 17.692499 0.264406 -0.675915 0.687916 0.000500 0.335000
tree_09.tga
3 -75.826698 35.156998 30.956202 0.186708 0.066803 0.980142 0.000500 0.662200
3 -58.803005 39.111301 25.506802 0.265391 -0.260191 0.928369 0.997500 0.662200
3 -63.975899 58.300400 20.874104 0.061500 0.371998 0.926194 0.997500 0.989400
tree_09.tga
3 -63.975899 58.300400 20.874104 0.061500 0.371998 0.926194 0.997500 0.989400
3 -81.413902 53.628696 21.043303 -0.110296 0.443885 0.889270 0.000500 0.989400
3 -75.826698 35.156998 30.956202 0.186708 0.066803 0.980142 0.000500 0.662200
end
