version 1
nodes
0 "Box01" -1
end
skeleton
time 0
0 0.135174 -40.037834 0.000000 0.000000 -0.000000 0.000000
end
triangles
desk_big.jpg
0 60.280743 -75.958466 77.709396 0.000000 0.000000 -1.000000 0.127316 0.400091
0 -69.810341 -75.958466 77.709396 0.000000 0.000000 -1.000000 0.127316 0.099909
0 -104.420349 -17.524853 77.709396 0.000000 0.000000 -1.000000 0.403920 0.020047
desk_big.jpg
0 -106.607697 -0.396301 77.709396 -0.995998 -0.089378 0.000000 0.015000 0.485000
0 -105.060478 -17.637724 78.359398 -0.995998 -0.089378 0.000000 0.050449 0.403385
0 -106.607697 -0.396301 78.359398 -0.995998 -0.089378 0.000000 0.050449 0.485000
desk_big.jpg
0 -104.420349 -17.524853 77.709396 -0.683329 -0.187802 -0.705544 0.403920 0.020047
0 -100.465820 -34.355274 78.359398 -0.683329 -0.187802 -0.705544 0.324251 0.029172
0 -105.060478 -17.637724 78.359398 -0.683329 -0.187802 -0.705544 0.403385 0.018570
desk_big.jpg
0 -99.855019 -34.132961 77.709396 -0.639402 -0.305824 -0.705433 0.325303 0.030582
0 -92.963333 -50.041000 78.359398 -0.639402 -0.305824 -0.705433 0.250000 0.046484
0 -100.465820 -34.355274 78.359398 -0.639402 -0.305824 -0.705433 0.324251 0.029172
desk_big.jpg
0 -92.400421 -49.716000 77.709396 -0.575748 -0.413509 -0.705355 0.251538 0.047783
0 -82.780983 -64.218292 78.359398 -0.575748 -0.413509 -0.705355 0.182890 0.069980
0 -92.963333 -50.041000 78.359398 -0.575748 -0.413509 -0.705355 0.250000 0.046484
desk_big.jpg
0 -82.283058 -63.800484 77.709396 -0.494856 -0.507571 -0.705329 0.184868 0.071129
0 -70.228149 -76.456390 78.359398 -0.494856 -0.507571 -0.705329 0.124959 0.098945
0 -82.780983 -64.218292 78.359398 -0.494856 -0.507571 -0.705329 0.182890 0.069980
desk_big.jpg
0 -69.810341 -75.958466 77.709396 -0.399655 -0.585441 -0.705361 0.127316 0.099909
0 -55.686249 -86.383446 78.359398 -0.399655 -0.585441 -0.705361 0.077968 0.132500
0 -70.228149 -76.456390 78.359398 -0.399655 -0.585441 -0.705361 0.124959 0.098945
desk_big.jpg
0 -55.361248 -85.820526 77.709396 -0.293319 -0.645214 -0.705452 0.080633 0.133250
0 -39.597122 -93.697815 78.359398 -0.293319 -0.645214 -0.705452 0.043344 0.169625
0 -55.686249 -86.383446 78.359398 -0.293319 -0.645214 -0.705452 0.077968 0.132500
desk_big.jpg
0 -39.374809 -93.087013 77.709396 -0.179112 -0.685640 -0.705561 0.046236 0.170138
0 -22.449631 -98.177269 78.359398 -0.179112 -0.685640 -0.705561 0.022140 0.209193
0 -39.597122 -93.697815 78.359398 -0.179112 -0.685640 -0.705561 0.043344 0.169625
desk_big.jpg
0 -22.336760 -97.537148 77.709396 -0.060215 -0.705953 -0.705695 0.015000 0.209453
0 -4.764798 -99.685699 78.359398 -0.060215 -0.705953 -0.705695 0.050449 0.250000
0 -22.449631 -98.177269 78.359398 -0.060215 -0.705953 -0.705695 0.050449 0.209193
desk_big.jpg
0 -4.764798 -99.035698 77.709396 0.060204 -0.705818 -0.705830 0.015000 0.250000
0 12.920036 -98.177269 78.359398 0.060204 -0.705818 -0.705830 0.050449 0.290807
0 -4.764798 -99.685699 78.359398 0.060204 -0.705818 -0.705830 0.050449 0.250000
desk_big.jpg
0 12.807165 -97.537148 77.709396 0.179019 -0.685269 -0.705945 0.025170 0.290547
0 30.067526 -93.697815 78.359398 0.179019 -0.685269 -0.705945 0.043344 0.330375
0 12.920036 -98.177269 78.359398 0.179019 -0.685269 -0.705945 0.022140 0.290807
desk_big.jpg
0 29.845213 -93.087013 77.709396 0.293080 -0.644671 -0.706048 0.046236 0.329862
0 46.156651 -86.383446 78.359398 0.293080 -0.644671 -0.706048 0.077968 0.367500
0 30.067526 -93.697815 78.359398 0.293080 -0.644671 -0.706048 0.043344 0.330375
desk_big.jpg
0 45.831654 -85.820526 77.709396 0.399237 -0.584830 -0.706104 0.080633 0.366750
0 60.698555 -76.456390 78.359398 0.399237 -0.584830 -0.706104 0.124959 0.401055
0 46.156651 -86.383446 78.359398 0.399237 -0.584830 -0.706104 0.077968 0.367500
desk_big.jpg
0 60.280743 -75.958466 77.709396 0.494304 -0.507013 -0.706117 0.127316 0.400091
0 73.251389 -64.218292 78.359398 0.494304 -0.507013 -0.706117 0.182890 0.430020
0 60.698555 -76.456390 78.359398 0.494304 -0.507013 -0.706117 0.124959 0.401055
desk_big.jpg
0 72.753464 -63.800484 77.709396 0.575158 -0.413073 -0.706091 0.184868 0.428871
0 83.433739 -50.041000 78.359398 0.575158 -0.413073 -0.706091 0.250000 0.453516
0 73.251389 -64.218292 78.359398 0.575158 -0.413073 -0.706091 0.182890 0.430020
desk_big.jpg
0 82.870827 -49.716000 77.709396 0.638857 -0.305564 -0.706040 0.251538 0.452217
0 90.936226 -34.355274 78.359398 0.638857 -0.305564 -0.706040 0.324251 0.470828
0 83.433739 -50.041000 78.359398 0.638857 -0.305564 -0.706040 0.250000 0.453516
desk_big.jpg
0 90.325424 -34.132961 77.709396 0.682948 -0.187696 -0.705941 0.325303 0.469418
0 95.530876 -17.637724 78.359398 0.682948 -0.187696 -0.705941 0.403385 0.481430
0 90.936226 -34.355274 78.359398 0.682948 -0.187696 -0.705941 0.324251 0.470828
desk_big.jpg
0 94.890755 -17.524853 77.709396 0.705556 -0.063315 -0.705821 0.015000 0.403920
0 97.078102 -0.396301 78.359398 0.705556 -0.063315 -0.705821 0.050449 0.485000
0 95.530876 -17.637724 78.359398 0.705556 -0.063315 -0.705821 0.050449 0.403385
desk_big.jpg
0 97.078102 -0.396301 77.709396 0.000000 1.000000 0.000000 0.015000 0.485000
0 -106.607697 -0.396301 78.359398 0.000000 1.000000 0.000000 0.050449 0.015000
0 97.078102 -0.396301 78.359398 0.000000 1.000000 0.000000 0.050449 0.485000
desk_big.jpg
0 -106.607697 -0.396301 78.359398 -0.995998 -0.089379 0.000000 0.050449 0.485000
0 -105.060478 -17.637724 85.677498 -0.995998 -0.089379 0.000000 0.449551 0.403385
0 -106.607697 -0.396301 85.677498 -0.995998 -0.089379 0.000000 0.449551 0.485000
desk_big.jpg
0 -105.060478 -17.637724 78.359398 -0.964245 -0.265013 0.000000 0.050449 0.403385
0 -100.465820 -34.355274 85.677498 -0.964245 -0.265013 0.000000 0.449551 0.324251
0 -105.060478 -17.637724 85.677498 -0.964245 -0.265013 0.000000 0.449551 0.403385
desk_big.jpg
0 -100.465820 -34.355274 78.359398 -0.902121 -0.431484 0.000000 0.050449 0.324251
0 -92.963333 -50.041000 85.677498 -0.902121 -0.431484 0.000000 0.449551 0.250000
0 -100.465820 -34.355274 85.677498 -0.902121 -0.431484 0.000000 0.449551 0.324251
desk_big.jpg
0 -92.963333 -50.041000 78.359398 -0.812222 -0.583349 0.000000 0.050449 0.250000
0 -82.780983 -64.218292 85.677498 -0.812222 -0.583349 0.000000 0.449551 0.182890
0 -92.963333 -50.041000 85.677498 -0.812222 -0.583349 0.000000 0.449551 0.250000
desk_big.jpg
0 -82.780983 -64.218292 78.359398 -0.698074 -0.716026 0.000000 0.050449 0.069980
0 -70.228149 -76.456390 85.677498 -0.698074 -0.716026 0.000000 0.449551 0.098945
0 -82.780983 -64.218292 85.677498 -0.698074 -0.716026 0.000000 0.449551 0.069980
desk_big.jpg
0 -70.228149 -76.456390 78.359398 -0.563807 -0.825907 0.000000 0.050449 0.098945
0 -55.686249 -86.383446 85.677498 -0.563807 -0.825907 0.000000 0.449551 0.132500
0 -70.228149 -76.456390 85.677498 -0.563807 -0.825907 0.000000 0.449551 0.098945
desk_big.jpg
0 -55.686249 -86.383446 78.359398 -0.413856 -0.910342 0.000000 0.050449 0.132500
0 -39.597122 -93.697815 85.677498 -0.413856 -0.910342 0.000000 0.449551 0.169625
0 -55.686249 -86.383446 85.677498 -0.413856 -0.910342 0.000000 0.449551 0.132500
desk_big.jpg
0 -39.597122 -93.697815 78.359398 -0.252749 -0.967532 0.000000 0.050449 0.169625
0 -22.449631 -98.177269 85.677498 -0.252749 -0.967532 0.000000 0.449551 0.209193
0 -39.597122 -93.697815 85.677498 -0.252749 -0.967532 0.000000 0.449551 0.169625
desk_big.jpg
0 -22.449631 -98.177269 78.359398 -0.084987 -0.996382 0.000000 0.050449 0.209193
0 -4.764798 -99.685699 85.677498 -0.084987 -0.996382 0.000000 0.449551 0.250000
0 -22.449631 -98.177269 85.677498 -0.084987 -0.996382 0.000000 0.449551 0.209193
desk_big.jpg
0 -4.764798 -99.685699 78.359398 0.084987 -0.996382 0.000000 0.050449 0.250000
0 12.920036 -98.177269 85.677498 0.084987 -0.996382 0.000000 0.449551 0.290807
0 -4.764798 -99.685699 85.677498 0.084987 -0.996382 0.000000 0.449551 0.250000
desk_big.jpg
0 12.920036 -98.177269 78.359398 0.252749 -0.967532 0.000000 0.050449 0.290807
0 30.067526 -93.697815 85.677498 0.252749 -0.967532 0.000000 0.449551 0.330375
0 12.920036 -98.177269 85.677498 0.252749 -0.967532 0.000000 0.449551 0.290807
desk_big.jpg
0 30.067526 -93.697815 78.359398 0.413856 -0.910342 0.000000 0.050449 0.330375
0 46.156651 -86.383446 85.677498 0.413856 -0.910342 0.000000 0.449551 0.367500
0 30.067526 -93.697815 85.677498 0.413856 -0.910342 0.000000 0.449551 0.330375
desk_big.jpg
0 46.156651 -86.383446 78.359398 0.563807 -0.825907 0.000000 0.050449 0.367500
0 60.698555 -76.456390 85.677498 0.563807 -0.825907 0.000000 0.449551 0.401055
0 46.156651 -86.383446 85.677498 0.563807 -0.825907 0.000000 0.449551 0.367500
desk_big.jpg
0 60.698555 -76.456390 78.359398 0.698073 -0.716026 0.000000 0.050449 0.401055
0 73.251389 -64.218292 85.677498 0.698073 -0.716026 0.000000 0.449551 0.430020
0 60.698555 -76.456390 85.677498 0.698073 -0.716026 0.000000 0.449551 0.401055
desk_big.jpg
0 73.251389 -64.218292 78.359398 0.812222 -0.583349 0.000000 0.050449 0.182890
0 83.433739 -50.041000 85.677498 0.812222 -0.583349 0.000000 0.449551 0.250000
0 73.251389 -64.218292 85.677498 0.812222 -0.583349 0.000000 0.449551 0.182890
desk_big.jpg
0 83.433739 -50.041000 78.359398 0.902120 -0.431485 0.000000 0.050449 0.250000
0 90.936226 -34.355274 85.677498 0.902120 -0.431485 0.000000 0.449551 0.324251
0 83.433739 -50.041000 85.677498 0.902120 -0.431485 0.000000 0.449551 0.250000
desk_big.jpg
0 90.936226 -34.355274 78.359398 0.964245 -0.265013 0.000000 0.050449 0.324251
0 95.530876 -17.637724 85.677498 0.964245 -0.265013 0.000000 0.449551 0.403385
0 90.936226 -34.355274 85.677498 0.964245 -0.265013 0.000000 0.449551 0.324251
desk_big.jpg
0 95.530876 -17.637724 78.359398 0.995998 -0.089380 0.000000 0.050449 0.403385
0 97.078102 -0.396301 85.677498 0.995998 -0.089380 0.000000 0.449551 0.485000
0 95.530876 -17.637724 85.677498 0.995998 -0.089380 0.000000 0.449551 0.403385
desk_big.jpg
0 97.078102 -0.396301 78.359398 0.000000 1.000000 0.000000 0.050449 0.485000
0 -106.607697 -0.396301 85.677498 0.000000 1.000000 0.000000 0.449551 0.015000
0 97.078102 -0.396301 85.677498 0.000000 1.000000 0.000000 0.449551 0.485000
desk_big.jpg
0 -106.607697 -0.396301 85.677498 -0.991944 -0.126674 0.000000 0.449551 0.485000
0 -104.420349 -17.524853 86.327499 -0.991944 -0.126674 0.000000 0.485000 0.403920
0 -106.607697 -0.396301 86.327499 -0.991944 -0.126674 0.000000 0.485000 0.485000
desk_big.jpg
0 -105.060478 -17.637724 85.677498 -0.683309 -0.187834 0.705555 0.403385 0.018570
0 -99.855019 -34.132961 86.327499 -0.683309 -0.187834 0.705555 0.325303 0.030582
0 -104.420349 -17.524853 86.327499 -0.683309 -0.187834 0.705555 0.403920 0.020047
desk_big.jpg
0 -100.465820 -34.355274 85.677498 -0.639377 -0.305867 0.705437 0.324251 0.029172
0 -92.400421 -49.716000 86.327499 -0.639377 -0.305867 0.705437 0.251538 0.047783
0 -99.855019 -34.132961 86.327499 -0.639377 -0.305867 0.705437 0.325303 0.030582
desk_big.jpg
0 -92.963333 -50.041000 85.677498 -0.575706 -0.413556 0.705361 0.250000 0.046484
0 -82.283058 -63.800484 86.327499 -0.575706 -0.413556 0.705361 0.184868 0.071129
0 -92.400421 -49.716000 86.327499 -0.575706 -0.413556 0.705361 0.251538 0.047783
desk_big.jpg
0 -82.780983 -64.218292 85.677498 -0.494805 -0.507621 0.705329 0.182890 0.069980
0 -69.810341 -75.958466 86.327499 -0.494805 -0.507621 0.705329 0.127316 0.099909
0 -82.283058 -63.800484 86.327499 -0.494805 -0.507621 0.705329 0.184868 0.071129
desk_big.jpg
0 -70.228149 -76.456390 85.677498 -0.399603 -0.585473 0.705364 0.124959 0.098945
0 -55.361248 -85.820526 86.327499 -0.399603 -0.585473 0.705364 0.080633 0.133250
0 -69.810341 -75.958466 86.327499 -0.399603 -0.585473 0.705364 0.127316 0.099909
desk_big.jpg
0 -55.686249 -86.383446 85.677498 -0.293285 -0.645229 0.705452 0.077968 0.132500
0 -39.374809 -93.087013 86.327499 -0.293285 -0.645229 0.705452 0.046236 0.170138
0 -55.361248 -85.820526 86.327499 -0.293285 -0.645229 0.705452 0.080633 0.133250
desk_big.jpg
0 -39.597122 -93.697815 85.677498 -0.179085 -0.685660 0.705549 0.043344 0.169625
0 -22.336760 -97.537148 86.327499 -0.179085 -0.685660 0.705549 0.025170 0.209453
0 -39.374809 -93.087013 86.327499 -0.179085 -0.685660 0.705549 0.046236 0.170138
desk_big.jpg
0 -22.449631 -98.177269 85.677498 -0.060203 -0.705965 0.705683 0.449551 0.209193
0 -4.764798 -99.035698 86.327499 -0.060203 -0.705965 0.705683 0.485000 0.250000
0 -22.336760 -97.537148 86.327499 -0.060203 -0.705965 0.705683 0.485000 0.209453
desk_big.jpg
0 -4.764798 -99.685699 85.677498 0.060192 -0.705830 0.705819 0.449551 0.250000
0 12.807165 -97.537148 86.327499 0.060192 -0.705830 0.705819 0.485000 0.290547
0 -4.764798 -99.035698 86.327499 0.060192 -0.705830 0.705819 0.485000 0.250000
desk_big.jpg
0 12.920036 -98.177269 85.677498 0.178990 -0.685279 0.705943 0.022140 0.290807
0 29.845213 -93.087013 86.327499 0.178990 -0.685279 0.705943 0.046236 0.329862
0 12.807165 -97.537148 86.327499 0.178990 -0.685279 0.705943 0.025170 0.290547
desk_big.jpg
0 30.067526 -93.697815 85.677498 0.293037 -0.644699 0.706040 0.043344 0.330375
0 45.831654 -85.820526 86.327499 0.293037 -0.644699 0.706040 0.080633 0.366750
0 29.845213 -93.087013 86.327499 0.293037 -0.644699 0.706040 0.046236 0.329862
desk_big.jpg
0 46.156651 -86.383446 85.677498 0.399181 -0.584865 0.706107 0.077968 0.367500
0 60.280743 -75.958466 86.327499 0.399181 -0.584865 0.706107 0.127316 0.400091
0 45.831654 -85.820526 86.327499 0.399181 -0.584865 0.706107 0.080633 0.366750
desk_big.jpg
0 60.698555 -76.456390 85.677498 0.494241 -0.507060 0.706128 0.124959 0.401055
0 72.753464 -63.800484 86.327499 0.494241 -0.507060 0.706128 0.184868 0.428871
0 60.280743 -75.958466 86.327499 0.494241 -0.507060 0.706128 0.127316 0.400091
desk_big.jpg
0 73.251389 -64.218292 85.677498 0.575111 -0.413118 0.706102 0.182890 0.430020
0 82.870827 -49.716000 86.327499 0.575111 -0.413118 0.706102 0.251538 0.452217
0 72.753464 -63.800484 86.327499 0.575111 -0.413118 0.706102 0.184868 0.428871
desk_big.jpg
0 83.433739 -50.041000 85.677498 0.638829 -0.305605 0.706048 0.250000 0.453516
0 90.325424 -34.132961 86.327499 0.638829 -0.305605 0.706048 0.325303 0.469418
0 82.870827 -49.716000 86.327499 0.638829 -0.305605 0.706048 0.251538 0.452217
desk_big.jpg
0 90.936226 -34.355274 85.677498 0.682925 -0.187728 0.705954 0.324251 0.470828
0 94.890755 -17.524853 86.327499 0.682925 -0.187728 0.705954 0.403920 0.479953
0 90.325424 -34.132961 86.327499 0.682925 -0.187728 0.705954 0.325303 0.469418
desk_big.jpg
0 95.530876 -17.637724 85.677498 0.701800 -0.089623 0.706713 0.449551 0.403385
0 97.078102 -0.396301 86.327499 0.701800 -0.089623 0.706713 0.485000 0.485000
0 94.890755 -17.524853 86.327499 0.701800 -0.089623 0.706713 0.485000 0.403920
desk_big.jpg
0 97.078102 -0.396301 85.677498 0.000000 1.000000 0.000000 0.449551 0.485000
0 -106.607697 -0.396301 86.327499 0.000000 1.000000 0.000000 0.485000 0.015000
0 97.078102 -0.396301 86.327499 0.000000 1.000000 0.000000 0.485000 0.485000
desk_big.jpg
0 -69.810341 -75.958466 86.327499 0.000000 0.000000 1.000000 0.099909 0.627316
0 60.280743 -75.958466 86.327499 0.000000 0.000000 1.000000 0.400091 0.627316
0 94.890755 -17.524853 86.327499 0.000000 0.000000 1.000000 0.479953 0.903920
desk_big.jpg
0 -106.607697 -0.396301 77.709396 0.000000 0.000000 -1.000000 0.485000 0.015000
0 97.078102 -0.396301 77.709396 0.000000 0.000000 -1.000000 0.485000 0.485000
0 94.890755 -17.524853 77.709396 0.000000 0.000000 -1.000000 0.403920 0.479953
desk_big.jpg
0 94.890755 -17.524853 77.709396 -0.000005 0.000000 -1.000000 0.403920 0.479953
0 90.325424 -34.132961 77.709396 -0.000005 0.000000 -1.000000 0.325303 0.469418
0 82.870827 -49.716000 77.709396 -0.000005 0.000000 -1.000000 0.251538 0.452217
desk_big.jpg
0 82.870827 -49.716000 77.709396 0.000000 0.000000 -1.000000 0.251538 0.452217
0 72.753464 -63.800484 77.709396 0.000000 0.000000 -1.000000 0.184868 0.428871
0 60.280743 -75.958466 77.709396 0.000000 0.000000 -1.000000 0.127316 0.400091
desk_big.jpg
0 60.280743 -75.958466 77.709396 0.000000 0.000000 -1.000000 0.127316 0.400091
0 45.831654 -85.820526 77.709396 0.000000 0.000000 -1.000000 0.080633 0.366750
0 29.845213 -93.087013 77.709396 0.000000 0.000000 -1.000000 0.046236 0.329862
desk_big.jpg
0 29.845213 -93.087013 77.709396 0.000000 0.000000 -1.000000 0.046236 0.329862
0 12.807165 -97.537148 77.709396 0.000000 0.000000 -1.000000 0.025170 0.290547
0 -4.764798 -99.035698 77.709396 0.000000 0.000000 -1.000000 0.018077 0.250000
desk_big.jpg
0 -4.764798 -99.035698 77.709396 0.000000 0.000000 -1.000000 0.018077 0.250000
0 -22.336760 -97.537148 77.709396 0.000000 0.000000 -1.000000 0.025170 0.209453
0 -39.374809 -93.087013 77.709396 0.000000 0.000000 -1.000000 0.046236 0.170138
desk_big.jpg
0 -39.374809 -93.087013 77.709396 0.000000 0.000000 -1.000000 0.046236 0.170138
0 -55.361248 -85.820526 77.709396 0.000000 0.000000 -1.000000 0.080633 0.133250
0 -69.810341 -75.958466 77.709396 0.000000 0.000000 -1.000000 0.127316 0.099909
desk_big.jpg
0 -69.810341 -75.958466 77.709396 0.000000 0.000000 -1.000000 0.127316 0.099909
0 -82.283058 -63.800484 77.709396 0.000000 0.000000 -1.000000 0.184868 0.071129
0 -92.400421 -49.716000 77.709396 0.000000 0.000000 -1.000000 0.251538 0.047783
desk_big.jpg
0 -92.400421 -49.716000 77.709396 0.000005 0.000000 -1.000000 0.251538 0.047783
0 -99.855019 -34.132961 77.709396 0.000005 0.000000 -1.000000 0.325303 0.030582
0 -104.420349 -17.524853 77.709396 0.000005 0.000000 -1.000000 0.403920 0.020047
desk_big.jpg
0 -104.420349 -17.524853 77.709396 0.000000 0.000000 -1.000000 0.403920 0.020047
0 -106.607697 -0.396301 77.709396 0.000000 0.000000 -1.000000 0.485000 0.015000
0 94.890755 -17.524853 77.709396 0.000000 0.000000 -1.000000 0.403920 0.479953
desk_big.jpg
0 94.890755 -17.524853 77.709396 0.000000 0.000000 -1.000000 0.403920 0.479953
0 82.870827 -49.716000 77.709396 0.000000 0.000000 -1.000000 0.251538 0.452217
0 60.280743 -75.958466 77.709396 0.000000 0.000000 -1.000000 0.127316 0.400091
desk_big.jpg
0 60.280743 -75.958466 77.709396 0.000000 0.000000 -1.000000 0.127316 0.400091
0 29.845213 -93.087013 77.709396 0.000000 0.000000 -1.000000 0.046236 0.329862
0 -4.764798 -99.035698 77.709396 0.000000 0.000000 -1.000000 0.018077 0.250000
desk_big.jpg
0 -4.764798 -99.035698 77.709396 0.000000 0.000000 -1.000000 0.018077 0.250000
0 -39.374809 -93.087013 77.709396 0.000000 0.000000 -1.000000 0.046236 0.170138
0 -69.810341 -75.958466 77.709396 0.000000 0.000000 -1.000000 0.127316 0.099909
desk_big.jpg
0 -69.810341 -75.958466 77.709396 0.000000 0.000000 -1.000000 0.127316 0.099909
0 -92.400421 -49.716000 77.709396 0.000000 0.000000 -1.000000 0.251538 0.047783
0 -104.420349 -17.524853 77.709396 0.000000 0.000000 -1.000000 0.403920 0.020047
desk_big.jpg
0 -104.420349 -17.524853 77.709396 0.000000 0.000000 -1.000000 0.403920 0.020047
0 94.890755 -17.524853 77.709396 0.000000 0.000000 -1.000000 0.403920 0.479953
0 60.280743 -75.958466 77.709396 0.000000 0.000000 -1.000000 0.127316 0.400091
desk_big.jpg
0 60.280743 -75.958466 77.709396 0.000000 0.000000 -1.000000 0.127316 0.400091
0 -4.764798 -99.035698 77.709396 0.000000 0.000000 -1.000000 0.018077 0.250000
0 -69.810341 -75.958466 77.709396 0.000000 0.000000 -1.000000 0.127316 0.099909
desk_big.jpg
0 -106.607697 -0.396301 77.709396 -0.701798 -0.089623 -0.706716 0.015000 0.485000
0 -104.420349 -17.524853 77.709396 -0.701798 -0.089623 -0.706716 0.015000 0.403920
0 -105.060478 -17.637724 78.359398 -0.701798 -0.089623 -0.706716 0.050449 0.403385
desk_big.jpg
0 -104.420349 -17.524853 77.709396 -0.682923 -0.187729 -0.705956 0.403920 0.020047
0 -99.855019 -34.132961 77.709396 -0.682923 -0.187729 -0.705956 0.325303 0.030582
0 -100.465820 -34.355274 78.359398 -0.682923 -0.187729 -0.705956 0.324251 0.029172
desk_big.jpg
0 -99.855019 -34.132961 77.709396 -0.638826 -0.305606 -0.706050 0.325303 0.030582
0 -92.400421 -49.716000 77.709396 -0.638826 -0.305606 -0.706050 0.251538 0.047783
0 -92.963333 -50.041000 78.359398 -0.638826 -0.305606 -0.706050 0.250000 0.046484
desk_big.jpg
0 -92.400421 -49.716000 77.709396 -0.575109 -0.413120 -0.706103 0.251538 0.047783
0 -82.283058 -63.800484 77.709396 -0.575109 -0.413120 -0.706103 0.184868 0.071129
0 -82.780983 -64.218292 78.359398 -0.575109 -0.413120 -0.706103 0.182890 0.069980
desk_big.jpg
0 -82.283058 -63.800484 77.709396 -0.494257 -0.507056 -0.706119 0.184868 0.071129
0 -69.810341 -75.958466 77.709396 -0.494257 -0.507056 -0.706119 0.127316 0.099909
0 -70.228149 -76.456390 78.359398 -0.494257 -0.507056 -0.706119 0.124959 0.098945
desk_big.jpg
0 -69.810341 -75.958466 77.709396 -0.399189 -0.584859 -0.706107 0.127316 0.099909
0 -55.361248 -85.820526 77.709396 -0.399189 -0.584859 -0.706107 0.080633 0.133250
0 -55.686249 -86.383446 78.359398 -0.399189 -0.584859 -0.706107 0.077968 0.132500
desk_big.jpg
0 -55.361248 -85.820526 77.709396 -0.293037 -0.644691 -0.706047 0.080633 0.133250
0 -39.374809 -93.087013 77.709396 -0.293037 -0.644691 -0.706047 0.046236 0.170138
0 -39.597122 -93.697815 78.359398 -0.293037 -0.644691 -0.706047 0.043344 0.169625
desk_big.jpg
0 -39.374809 -93.087013 77.709396 -0.178985 -0.685282 -0.705941 0.046236 0.170138
0 -22.336760 -97.537148 77.709396 -0.178985 -0.685282 -0.705941 0.025170 0.209453
0 -22.449631 -98.177269 78.359398 -0.178985 -0.685282 -0.705941 0.022140 0.209193
desk_big.jpg
0 -22.336760 -97.537148 77.709396 -0.060194 -0.705830 -0.705819 0.015000 0.209453
0 -4.764798 -99.035698 77.709396 -0.060194 -0.705830 -0.705819 0.015000 0.250000
0 -4.764798 -99.685699 78.359398 -0.060194 -0.705830 -0.705819 0.050449 0.250000
desk_big.jpg
0 -4.764798 -99.035698 77.709396 0.060205 -0.705963 -0.705685 0.015000 0.250000
0 12.807165 -97.537148 77.709396 0.060205 -0.705963 -0.705685 0.015000 0.290547
0 12.920036 -98.177269 78.359398 0.060205 -0.705963 -0.705685 0.050449 0.290807
desk_big.jpg
0 12.807165 -97.537148 77.709396 0.179079 -0.685654 -0.705556 0.025170 0.290547
0 29.845213 -93.087013 77.709396 0.179079 -0.685654 -0.705556 0.046236 0.329862
0 30.067526 -93.697815 78.359398 0.179079 -0.685654 -0.705556 0.043344 0.330375
desk_big.jpg
0 29.845213 -93.087013 77.709396 0.293287 -0.645242 -0.705440 0.046236 0.329862
0 45.831654 -85.820526 77.709396 0.293287 -0.645242 -0.705440 0.080633 0.366750
0 46.156651 -86.383446 78.359398 0.293287 -0.645242 -0.705440 0.077968 0.367500
desk_big.jpg
0 45.831654 -85.820526 77.709396 0.399609 -0.585475 -0.705359 0.080633 0.366750
0 60.280743 -75.958466 77.709396 0.399609 -0.585475 -0.705359 0.127316 0.400091
0 60.698555 -76.456390 78.359398 0.399609 -0.585475 -0.705359 0.124959 0.401055
desk_big.jpg
0 60.280743 -75.958466 77.709396 0.494805 -0.507616 -0.705333 0.127316 0.400091
0 72.753464 -63.800484 77.709396 0.494805 -0.507616 -0.705333 0.184868 0.428871
0 73.251389 -64.218292 78.359398 0.494805 -0.507616 -0.705333 0.182890 0.430020
desk_big.jpg
0 72.753464 -63.800484 77.709396 0.575708 -0.413555 -0.705360 0.184868 0.428871
0 82.870827 -49.716000 77.709396 0.575708 -0.413555 -0.705360 0.251538 0.452217
0 83.433739 -50.041000 78.359398 0.575708 -0.413555 -0.705360 0.250000 0.453516
desk_big.jpg
0 82.870827 -49.716000 77.709396 0.639381 -0.305867 -0.705435 0.251538 0.452217
0 90.325424 -34.132961 77.709396 0.639381 -0.305867 -0.705435 0.325303 0.469418
0 90.936226 -34.355274 78.359398 0.639381 -0.305867 -0.705435 0.324251 0.470828
desk_big.jpg
0 90.325424 -34.132961 77.709396 0.683310 -0.187836 -0.705553 0.325303 0.469418
0 94.890755 -17.524853 77.709396 0.683310 -0.187836 -0.705553 0.403920 0.479953
0 95.530876 -17.637724 78.359398 0.683310 -0.187836 -0.705553 0.403385 0.481430
desk_big.jpg
0 94.890755 -17.524853 77.709396 0.991944 -0.126676 0.000000 0.015000 0.403920
0 97.078102 -0.396301 77.709396 0.991944 -0.126676 0.000000 0.015000 0.485000
0 97.078102 -0.396301 78.359398 0.991944 -0.126676 0.000000 0.050449 0.485000
desk_big.jpg
0 97.078102 -0.396301 77.709396 0.000000 1.000000 0.000000 0.015000 0.485000
0 -106.607697 -0.396301 77.709396 0.000000 1.000000 0.000000 0.015000 0.015000
0 -106.607697 -0.396301 78.359398 0.000000 1.000000 0.000000 0.050449 0.015000
desk_big.jpg
0 -106.607697 -0.396301 78.359398 -0.995998 -0.089380 0.000000 0.050449 0.485000
0 -105.060478 -17.637724 78.359398 -0.995998 -0.089380 0.000000 0.050449 0.403385
0 -105.060478 -17.637724 85.677498 -0.995998 -0.089380 0.000000 0.449551 0.403385
desk_big.jpg
0 -105.060478 -17.637724 78.359398 -0.964245 -0.265013 0.000000 0.050449 0.403385
0 -100.465820 -34.355274 78.359398 -0.964245 -0.265013 0.000000 0.050449 0.324251
0 -100.465820 -34.355274 85.677498 -0.964245 -0.265013 0.000000 0.449551 0.324251
desk_big.jpg
0 -100.465820 -34.355274 78.359398 -0.902120 -0.431485 0.000000 0.050449 0.324251
0 -92.963333 -50.041000 78.359398 -0.902120 -0.431485 0.000000 0.050449 0.250000
0 -92.963333 -50.041000 85.677498 -0.902120 -0.431485 0.000000 0.449551 0.250000
desk_big.jpg
0 -92.963333 -50.041000 78.359398 -0.812221 -0.583350 0.000000 0.050449 0.250000
0 -82.780983 -64.218292 78.359398 -0.812221 -0.583350 0.000000 0.050449 0.182890
0 -82.780983 -64.218292 85.677498 -0.812221 -0.583350 0.000000 0.449551 0.182890
desk_big.jpg
0 -82.780983 -64.218292 78.359398 -0.698074 -0.716026 0.000000 0.050449 0.069980
0 -70.228149 -76.456390 78.359398 -0.698074 -0.716026 0.000000 0.050449 0.098945
0 -70.228149 -76.456390 85.677498 -0.698074 -0.716026 0.000000 0.449551 0.098945
desk_big.jpg
0 -70.228149 -76.456390 78.359398 -0.563807 -0.825907 0.000000 0.050449 0.098945
0 -55.686249 -86.383446 78.359398 -0.563807 -0.825907 0.000000 0.050449 0.132500
0 -55.686249 -86.383446 85.677498 -0.563807 -0.825907 0.000000 0.449551 0.132500
desk_big.jpg
0 -55.686249 -86.383446 78.359398 -0.413856 -0.910342 0.000000 0.050449 0.132500
0 -39.597122 -93.697815 78.359398 -0.413856 -0.910342 0.000000 0.050449 0.169625
0 -39.597122 -93.697815 85.677498 -0.413856 -0.910342 0.000000 0.449551 0.169625
desk_big.jpg
0 -39.597122 -93.697815 78.359398 -0.252749 -0.967532 0.000000 0.050449 0.169625
0 -22.449631 -98.177269 78.359398 -0.252749 -0.967532 0.000000 0.050449 0.209193
0 -22.449631 -98.177269 85.677498 -0.252749 -0.967532 0.000000 0.449551 0.209193
desk_big.jpg
0 -22.449631 -98.177269 78.359398 -0.084986 -0.996382 0.000000 0.050449 0.209193
0 -4.764798 -99.685699 78.359398 -0.084986 -0.996382 0.000000 0.050449 0.250000
0 -4.764798 -99.685699 85.677498 -0.084986 -0.996382 0.000000 0.449551 0.250000
desk_big.jpg
0 -4.764798 -99.685699 78.359398 0.084986 -0.996382 0.000000 0.050449 0.250000
0 12.920036 -98.177269 78.359398 0.084986 -0.996382 0.000000 0.050449 0.290807
0 12.920036 -98.177269 85.677498 0.084986 -0.996382 0.000000 0.449551 0.290807
desk_big.jpg
0 12.920036 -98.177269 78.359398 0.252749 -0.967532 0.000000 0.050449 0.290807
0 30.067526 -93.697815 78.359398 0.252749 -0.967532 0.000000 0.050449 0.330375
0 30.067526 -93.697815 85.677498 0.252749 -0.967532 0.000000 0.449551 0.330375
desk_big.jpg
0 30.067526 -93.697815 78.359398 0.413856 -0.910342 0.000000 0.050449 0.330375
0 46.156651 -86.383446 78.359398 0.413856 -0.910342 0.000000 0.050449 0.367500
0 46.156651 -86.383446 85.677498 0.413856 -0.910342 0.000000 0.449551 0.367500
desk_big.jpg
0 46.156651 -86.383446 78.359398 0.563807 -0.825907 0.000000 0.050449 0.367500
0 60.698555 -76.456390 78.359398 0.563807 -0.825907 0.000000 0.050449 0.401055
0 60.698555 -76.456390 85.677498 0.563807 -0.825907 0.000000 0.449551 0.401055
desk_big.jpg
0 60.698555 -76.456390 78.359398 0.698074 -0.716026 0.000000 0.050449 0.401055
0 73.251389 -64.218292 78.359398 0.698074 -0.716026 0.000000 0.050449 0.430020
0 73.251389 -64.218292 85.677498 0.698074 -0.716026 0.000000 0.449551 0.430020
desk_big.jpg
0 73.251389 -64.218292 78.359398 0.812221 -0.583350 0.000000 0.050449 0.182890
0 83.433739 -50.041000 78.359398 0.812221 -0.583350 0.000000 0.050449 0.250000
0 83.433739 -50.041000 85.677498 0.812221 -0.583350 0.000000 0.449551 0.250000
desk_big.jpg
0 83.433739 -50.041000 78.359398 0.902121 -0.431484 0.000000 0.050449 0.250000
0 90.936226 -34.355274 78.359398 0.902121 -0.431484 0.000000 0.050449 0.324251
0 90.936226 -34.355274 85.677498 0.902121 -0.431484 0.000000 0.449551 0.324251
desk_big.jpg
0 90.936226 -34.355274 78.359398 0.964245 -0.265013 0.000000 0.050449 0.324251
0 95.530876 -17.637724 78.359398 0.964245 -0.265013 0.000000 0.050449 0.403385
0 95.530876 -17.637724 85.677498 0.964245 -0.265013 0.000000 0.449551 0.403385
desk_big.jpg
0 95.530876 -17.637724 78.359398 0.995998 -0.089380 0.000000 0.050449 0.403385
0 97.078102 -0.396301 78.359398 0.995998 -0.089380 0.000000 0.050449 0.485000
0 97.078102 -0.396301 85.677498 0.995998 -0.089380 0.000000 0.449551 0.485000
desk_big.jpg
0 97.078102 -0.396301 78.359398 0.000000 1.000000 0.000000 0.050449 0.485000
0 -106.607697 -0.396301 78.359398 0.000000 1.000000 0.000000 0.050449 0.015000
0 -106.607697 -0.396301 85.677498 0.000000 1.000000 0.000000 0.449551 0.015000
desk_big.jpg
0 -106.607697 -0.396301 85.677498 -0.705555 -0.063314 0.705822 0.449551 0.485000
0 -105.060478 -17.637724 85.677498 -0.705555 -0.063314 0.705822 0.449551 0.403385
0 -104.420349 -17.524853 86.327499 -0.705555 -0.063314 0.705822 0.485000 0.403920
desk_big.jpg
0 -105.060478 -17.637724 85.677498 -0.682945 -0.187698 0.705943 0.403385 0.018570
0 -100.465820 -34.355274 85.677498 -0.682945 -0.187698 0.705943 0.324251 0.029172
0 -99.855019 -34.132961 86.327499 -0.682945 -0.187698 0.705943 0.325303 0.030582
desk_big.jpg
0 -100.465820 -34.355274 85.677498 -0.638853 -0.305565 0.706043 0.324251 0.029172
0 -92.963333 -50.041000 85.677498 -0.638853 -0.305565 0.706043 0.250000 0.046484
0 -92.400421 -49.716000 86.327499 -0.638853 -0.305565 0.706043 0.251538 0.047783
desk_big.jpg
0 -92.963333 -50.041000 85.677498 -0.575146 -0.413079 0.706097 0.250000 0.046484
0 -82.780983 -64.218292 85.677498 -0.575146 -0.413079 0.706097 0.182890 0.069980
0 -82.283058 -63.800484 86.327499 -0.575146 -0.413079 0.706097 0.184868 0.071129
desk_big.jpg
0 -82.780983 -64.218292 85.677498 -0.494300 -0.507013 0.706120 0.182890 0.069980
0 -70.228149 -76.456390 85.677498 -0.494300 -0.507013 0.706120 0.124959 0.098945
0 -69.810341 -75.958466 86.327499 -0.494300 -0.507013 0.706120 0.127316 0.099909
desk_big.jpg
0 -70.228149 -76.456390 85.677498 -0.399242 -0.584832 0.706100 0.124959 0.098945
0 -55.686249 -86.383446 85.677498 -0.399242 -0.584832 0.706100 0.077968 0.132500
0 -55.361248 -85.820526 86.327499 -0.399242 -0.584832 0.706100 0.080633 0.133250
desk_big.jpg
0 -55.686249 -86.383446 85.677498 -0.293078 -0.644678 0.706042 0.077968 0.132500
0 -39.597122 -93.697815 85.677498 -0.293078 -0.644678 0.706042 0.043344 0.169625
0 -39.374809 -93.087013 86.327499 -0.293078 -0.644678 0.706042 0.046236 0.170138
desk_big.jpg
0 -39.597122 -93.697815 85.677498 -0.179012 -0.685265 0.705951 0.043344 0.169625
0 -22.449631 -98.177269 85.677498 -0.179012 -0.685265 0.705951 0.022140 0.209193
0 -22.336760 -97.537148 86.327499 -0.179012 -0.685265 0.705951 0.025170 0.209453
desk_big.jpg
0 -22.449631 -98.177269 85.677498 -0.060203 -0.705818 0.705830 0.449551 0.209193
0 -4.764798 -99.685699 85.677498 -0.060203 -0.705818 0.705830 0.449551 0.250000
0 -4.764798 -99.035698 86.327499 -0.060203 -0.705818 0.705830 0.485000 0.250000
desk_big.jpg
0 -4.764798 -99.685699 85.677498 0.060213 -0.705951 0.705697 0.449551 0.250000
0 12.920036 -98.177269 85.677498 0.060213 -0.705951 0.705697 0.449551 0.290807
0 12.807165 -97.537148 86.327499 0.060213 -0.705951 0.705697 0.485000 0.290547
desk_big.jpg
0 12.920036 -98.177269 85.677498 0.179110 -0.685641 0.705561 0.022140 0.290807
0 30.067526 -93.697815 85.677498 0.179110 -0.685641 0.705561 0.043344 0.330375
0 29.845213 -93.087013 86.327499 0.179110 -0.685641 0.705561 0.046236 0.329862
desk_big.jpg
0 30.067526 -93.697815 85.677498 0.293324 -0.645212 0.705453 0.043344 0.330375
0 46.156651 -86.383446 85.677498 0.293324 -0.645212 0.705453 0.077968 0.367500
0 45.831654 -85.820526 86.327499 0.293324 -0.645212 0.705453 0.080633 0.366750
desk_big.jpg
0 46.156651 -86.383446 85.677498 0.399657 -0.585438 0.705363 0.077968 0.367500
0 60.698555 -76.456390 85.677498 0.399657 -0.585438 0.705363 0.124959 0.401055
0 60.280743 -75.958466 86.327499 0.399657 -0.585438 0.705363 0.127316 0.400091
desk_big.jpg
0 60.698555 -76.456390 85.677498 0.494853 -0.507571 0.705332 0.124959 0.401055
0 73.251389 -64.218292 85.677498 0.494853 -0.507571 0.705332 0.182890 0.430020
0 72.753464 -63.800484 86.327499 0.494853 -0.507571 0.705332 0.184868 0.428871
desk_big.jpg
0 73.251389 -64.218292 85.677498 0.575742 -0.413510 0.705359 0.182890 0.430020
0 83.433739 -50.041000 85.677498 0.575742 -0.413510 0.705359 0.250000 0.453516
0 82.870827 -49.716000 86.327499 0.575742 -0.413510 0.705359 0.251538 0.452217
desk_big.jpg
0 83.433739 -50.041000 85.677498 0.639406 -0.305824 0.705430 0.250000 0.453516
0 90.936226 -34.355274 85.677498 0.639406 -0.305824 0.705430 0.324251 0.470828
0 90.325424 -34.132961 86.327499 0.639406 -0.305824 0.705430 0.325303 0.469418
desk_big.jpg
0 90.936226 -34.355274 85.677498 0.683329 -0.187803 0.705543 0.324251 0.470828
0 95.530876 -17.637724 85.677498 0.683329 -0.187803 0.705543 0.403385 0.481430
0 94.890755 -17.524853 86.327499 0.683329 -0.187803 0.705543 0.403920 0.479953
desk_big.jpg
0 95.530876 -17.637724 85.677498 0.995998 -0.089377 0.000000 0.449551 0.403385
0 97.078102 -0.396301 85.677498 0.995998 -0.089377 0.000000 0.449551 0.485000
0 97.078102 -0.396301 86.327499 0.995998 -0.089377 0.000000 0.485000 0.485000
desk_big.jpg
0 97.078102 -0.396301 85.677498 0.000000 1.000000 0.000000 0.449551 0.485000
0 -106.607697 -0.396301 85.677498 0.000000 1.000000 0.000000 0.449551 0.015000
0 -106.607697 -0.396301 86.327499 0.000000 1.000000 0.000000 0.485000 0.015000
desk_big.jpg
0 97.078102 -0.396301 86.327499 0.000000 0.000000 1.000000 0.485000 0.985000
0 -106.607697 -0.396301 86.327499 0.000000 0.000000 1.000000 0.015000 0.985000
0 -104.420349 -17.524853 86.327499 0.000000 0.000000 1.000000 0.020047 0.903920
desk_big.jpg
0 -104.420349 -17.524853 86.327499 0.000000 0.000000 1.000000 0.020047 0.903920
0 -99.855019 -34.132961 86.327499 0.000000 0.000000 1.000000 0.030582 0.825303
0 -92.400421 -49.716000 86.327499 0.000000 0.000000 1.000000 0.047783 0.751538
desk_big.jpg
0 -92.400421 -49.716000 86.327499 -0.000005 0.000000 1.000000 0.047783 0.751538
0 -82.283058 -63.800484 86.327499 -0.000005 0.000000 1.000000 0.071129 0.684868
0 -69.810341 -75.958466 86.327499 -0.000005 0.000000 1.000000 0.099909 0.627316
desk_big.jpg
0 -69.810341 -75.958466 86.327499 0.000000 0.000000 1.000000 0.099909 0.627316
0 -55.361248 -85.820526 86.327499 0.000000 0.000000 1.000000 0.133250 0.580633
0 -39.374809 -93.087013 86.327499 0.000000 0.000000 1.000000 0.170138 0.546236
desk_big.jpg
0 -39.374809 -93.087013 86.327499 -0.000001 0.000000 1.000000 0.170138 0.546236
0 -22.336760 -97.537148 86.327499 -0.000001 0.000000 1.000000 0.209453 0.525170
0 -4.764798 -99.035698 86.327499 -0.000001 0.000000 1.000000 0.250000 0.518077
desk_big.jpg
0 -4.764798 -99.035698 86.327499 0.000001 0.000000 1.000000 0.250000 0.518077
0 12.807165 -97.537148 86.327499 0.000001 0.000000 1.000000 0.290547 0.525170
0 29.845213 -93.087013 86.327499 0.000001 0.000000 1.000000 0.329862 0.546236
desk_big.jpg
0 29.845213 -93.087013 86.327499 0.000000 0.000000 1.000000 0.329862 0.546236
0 45.831654 -85.820526 86.327499 0.000000 0.000000 1.000000 0.366750 0.580633
0 60.280743 -75.958466 86.327499 0.000000 0.000000 1.000000 0.400091 0.627316
desk_big.jpg
0 60.280743 -75.958466 86.327499 0.000005 0.000000 1.000000 0.400091 0.627316
0 72.753464 -63.800484 86.327499 0.000005 0.000000 1.000000 0.428871 0.684868
0 82.870827 -49.716000 86.327499 0.000005 0.000000 1.000000 0.452217 0.751538
desk_big.jpg
0 82.870827 -49.716000 86.327499 0.000000 0.000000 1.000000 0.452217 0.751538
0 90.325424 -34.132961 86.327499 0.000000 0.000000 1.000000 0.469418 0.825303
0 94.890755 -17.524853 86.327499 0.000000 0.000000 1.000000 0.479953 0.903920
desk_big.jpg
0 94.890755 -17.524853 86.327499 0.000000 0.000000 1.000000 0.479953 0.903920
0 97.078102 -0.396301 86.327499 0.000000 0.000000 1.000000 0.485000 0.985000
0 -104.420349 -17.524853 86.327499 0.000000 0.000000 1.000000 0.020047 0.903920
desk_big.jpg
0 -104.420349 -17.524853 86.327499 0.000000 0.000000 1.000000 0.020047 0.903920
0 -92.400421 -49.716000 86.327499 0.000000 0.000000 1.000000 0.047783 0.751538
0 -69.810341 -75.958466 86.327499 0.000000 0.000000 1.000000 0.099909 0.627316
desk_big.jpg
0 -69.810341 -75.958466 86.327499 0.000000 0.000000 1.000000 0.099909 0.627316
0 -39.374809 -93.087013 86.327499 0.000000 0.000000 1.000000 0.170138 0.546236
0 -4.764798 -99.035698 86.327499 0.000000 0.000000 1.000000 0.250000 0.518077
desk_big.jpg
0 -4.764798 -99.035698 86.327499 -0.000001 0.000000 1.000000 0.250000 0.518077
0 29.845213 -93.087013 86.327499 -0.000001 0.000000 1.000000 0.329862 0.546236
0 60.280743 -75.958466 86.327499 -0.000001 0.000000 1.000000 0.400091 0.627316
desk_big.jpg
0 60.280743 -75.958466 86.327499 0.000000 0.000000 1.000000 0.400091 0.627316
0 82.870827 -49.716000 86.327499 0.000000 0.000000 1.000000 0.452217 0.751538
0 94.890755 -17.524853 86.327499 0.000000 0.000000 1.000000 0.479953 0.903920
desk_big.jpg
0 94.890755 -17.524853 86.327499 0.000000 0.000000 1.000000 0.479953 0.903920
0 -104.420349 -17.524853 86.327499 0.000000 0.000000 1.000000 0.020047 0.903920
0 -69.810341 -75.958466 86.327499 0.000000 0.000000 1.000000 0.099909 0.627316
desk_big.jpg
0 -69.810341 -75.958466 86.327499 0.000000 0.000000 1.000000 0.099909 0.627316
0 -4.764798 -99.035698 86.327499 0.000000 0.000000 1.000000 0.250000 0.518077
0 60.280743 -75.958466 86.327499 0.000000 0.000000 1.000000 0.400091 0.627316
desk_big.jpg
0 24.035200 -5.904099 0.000000 0.000000 0.000000 -1.000000 0.485000 0.474660
0 25.135201 -44.804100 0.000000 0.000000 0.000000 -1.000000 0.027925 0.485000
0 -23.764799 -45.904099 0.000000 0.000000 0.000000 -1.000000 0.015000 0.025340
desk_big.jpg
0 -23.764799 -45.904099 0.000000 0.000000 -1.000000 0.000000 0.025340 0.015000
0 24.035200 -45.904099 3.000000 0.000000 -1.000000 0.000000 0.474660 0.032738
0 -23.764799 -45.904099 3.000000 0.000000 -1.000000 0.000000 0.025340 0.032738
desk_big.jpg
0 24.035200 -45.904099 0.000000 0.707106 -0.707108 0.000000 0.474660 0.015000
0 25.135201 -44.804100 3.000000 0.707106 -0.707108 0.000000 0.485000 0.032738
0 24.035200 -45.904099 3.000000 0.707106 -0.707108 0.000000 0.474660 0.032738
desk_big.jpg
0 25.135201 -44.804100 0.000000 1.000000 0.000000 0.000000 0.027925 0.015000
0 25.135201 -7.004097 3.000000 1.000000 0.000000 0.000000 0.472075 0.032738
0 25.135201 -44.804100 3.000000 1.000000 0.000000 0.000000 0.027925 0.032738
desk_big.jpg
0 25.135201 -7.004097 0.000000 0.707106 0.707107 0.000000 0.485000 0.015000
0 24.035200 -5.904099 3.000000 0.707106 0.707107 0.000000 0.474660 0.032738
0 25.135201 -7.004097 3.000000 0.707106 0.707107 0.000000 0.485000 0.032738
desk_big.jpg
0 24.035200 -5.904099 0.000000 0.000000 1.000000 0.000000 0.474660 0.015000
0 -23.764799 -5.904099 3.000000 0.000000 1.000000 0.000000 0.025340 0.032738
0 24.035200 -5.904099 3.000000 0.000000 1.000000 0.000000 0.474660 0.032738
desk_big.jpg
0 -23.764799 -5.904099 0.000000 -0.707106 0.707107 0.000000 0.025340 0.015000
0 -24.864799 -7.004097 3.000000 -0.707106 0.707107 0.000000 0.015000 0.032738
0 -23.764799 -5.904099 3.000000 -0.707106 0.707107 0.000000 0.025340 0.032738
desk_big.jpg
0 -24.864799 -7.004097 0.000000 -1.000000 0.000000 0.000000 0.472075 0.015000
0 -24.864799 -44.804100 3.000000 -1.000000 0.000000 0.000000 0.027925 0.032738
0 -24.864799 -7.004097 3.000000 -1.000000 0.000000 0.000000 0.472075 0.032738
desk_big.jpg
0 -24.864799 -44.804100 0.000000 -0.707106 -0.707108 0.000000 0.015000 0.015000
0 -23.764799 -45.904099 3.000000 -0.707106 -0.707108 0.000000 0.025340 0.032738
0 -24.864799 -44.804100 3.000000 -0.707106 -0.707108 0.000000 0.015000 0.032738
desk_big.jpg
0 -23.764799 -45.904099 3.000000 0.000000 -0.808455 0.588558 0.025340 0.032738
0 14.950251 -38.636150 12.983400 0.000000 -0.808455 0.588558 0.389261 0.091768
0 -14.679849 -38.636150 12.983400 0.000000 -0.808455 0.588558 0.110739 0.091768
desk_big.jpg
0 24.035200 -45.904099 3.000000 0.462098 -0.462096 0.756923 0.015000 0.474660
0 16.050251 -37.536148 12.983400 0.462098 -0.462096 0.756923 0.113323 0.399601
0 14.950251 -38.636150 12.983400 0.462098 -0.462096 0.756923 0.100398 0.389261
desk_big.jpg
0 25.135201 -44.804100 3.000000 0.739603 0.000000 0.673043 0.027925 0.032738
0 16.050251 -14.272049 12.983400 0.739603 0.000000 0.673043 0.386677 0.091768
0 16.050251 -37.536148 12.983400 0.739603 0.000000 0.673043 0.113323 0.091768
desk_big.jpg
0 25.135201 -7.004097 3.000000 0.462098 0.462099 0.756921 0.472075 0.485000
0 14.950251 -13.172049 12.983400 0.462098 0.462099 0.756921 0.399602 0.389261
0 16.050251 -14.272049 12.983400 0.462098 0.462099 0.756921 0.386677 0.399601
desk_big.jpg
0 24.035200 -5.904099 3.000000 0.000000 0.808455 0.588558 0.474660 0.032738
0 -14.679849 -13.172049 12.983400 0.000000 0.808455 0.588558 0.110739 0.091768
0 14.950251 -13.172049 12.983400 0.000000 0.808455 0.588558 0.389261 0.091768
desk_big.jpg
0 -23.764799 -5.904099 3.000000 -0.462098 0.462098 0.756922 0.485000 0.025340
0 -15.779849 -14.272049 12.983400 -0.462098 0.462098 0.756922 0.386677 0.100399
0 -14.679849 -13.172049 12.983400 -0.462098 0.462098 0.756922 0.399602 0.110739
desk_big.jpg
0 -24.864799 -7.004097 3.000000 -0.739603 0.000000 0.673043 0.472075 0.032738
0 -15.779849 -37.536148 12.983400 -0.739603 0.000000 0.673043 0.113323 0.091768
0 -15.779849 -14.272049 12.983400 -0.739603 0.000000 0.673043 0.386677 0.091768
desk_big.jpg
0 -24.864799 -44.804100 3.000000 -0.462098 -0.462099 0.756921 0.027925 0.015000
0 -14.679849 -38.636150 12.983400 -0.462098 -0.462099 0.756921 0.100398 0.110739
0 -15.779849 -37.536148 12.983400 -0.462098 -0.462099 0.756921 0.113323 0.100399
desk_big.jpg
0 -14.679849 -38.636150 12.983400 0.000000 -1.000000 0.000000 0.110739 0.091768
0 14.950251 -38.636150 16.000000 0.000000 -1.000000 0.000000 0.389261 0.109604
0 -14.679849 -38.636150 16.000000 0.000000 -1.000000 0.000000 0.110739 0.109604
desk_big.jpg
0 14.950251 -38.636150 12.983400 0.707107 -0.707106 0.000000 0.100398 0.091768
0 16.050251 -37.536148 16.000000 0.707107 -0.707106 0.000000 0.113323 0.109604
0 14.950251 -38.636150 16.000000 0.707107 -0.707106 0.000000 0.100398 0.109604
desk_big.jpg
0 16.050251 -37.536148 12.983400 1.000000 0.000000 0.000000 0.113323 0.091768
0 16.050251 -14.272049 16.000000 1.000000 0.000000 0.000000 0.386677 0.109604
0 16.050251 -37.536148 16.000000 1.000000 0.000000 0.000000 0.113323 0.109604
desk_big.jpg
0 16.050251 -14.272049 12.983400 0.707107 0.707107 0.000000 0.386677 0.091768
0 14.950251 -13.172049 16.000000 0.707107 0.707107 0.000000 0.399602 0.109604
0 16.050251 -14.272049 16.000000 0.707107 0.707107 0.000000 0.386677 0.109604
desk_big.jpg
0 14.950251 -13.172049 12.983400 0.000000 1.000000 0.000000 0.389261 0.091768
0 -14.679849 -13.172049 16.000000 0.000000 1.000000 0.000000 0.110739 0.109604
0 14.950251 -13.172049 16.000000 0.000000 1.000000 0.000000 0.389261 0.109604
desk_big.jpg
0 -14.679849 -13.172049 12.983400 -0.707107 0.707107 0.000000 0.399602 0.091768
0 -15.779849 -14.272049 16.000000 -0.707107 0.707107 0.000000 0.386677 0.109604
0 -14.679849 -13.172049 16.000000 -0.707107 0.707107 0.000000 0.399602 0.109604
desk_big.jpg
0 -15.779849 -14.272049 12.983400 -1.000000 0.000000 0.000000 0.386677 0.091768
0 -15.779849 -37.536148 16.000000 -1.000000 0.000000 0.000000 0.113323 0.109604
0 -15.779849 -14.272049 16.000000 -1.000000 0.000000 0.000000 0.386677 0.109604
desk_big.jpg
0 -15.779849 -37.536148 12.983400 -0.707107 -0.707106 0.000000 0.113323 0.091768
0 -14.679849 -38.636150 16.000000 -0.707107 -0.707106 0.000000 0.100398 0.109604
0 -15.779849 -37.536148 16.000000 -0.707107 -0.707106 0.000000 0.113323 0.109604
desk_big.jpg
0 -14.679849 -38.636150 16.000000 0.000000 -0.993713 0.111961 0.110739 0.109604
0 7.485901 -32.664650 69.000000 0.000000 -0.993713 0.111961 0.319097 0.422981
0 -7.215499 -32.664650 69.000000 0.000000 -0.993713 0.111961 0.180903 0.422981
desk_big.jpg
0 14.950251 -38.636150 16.000000 0.696013 -0.696012 0.176444 0.100398 0.109604
0 8.585901 -31.564650 69.000000 0.696013 -0.696012 0.176444 0.183489 0.422981
0 7.485901 -32.664650 69.000000 0.696013 -0.696012 0.176444 0.170564 0.422981
desk_big.jpg
0 16.050251 -37.536148 16.000000 0.990228 0.000000 0.139460 0.113323 0.109604
0 8.585901 -20.243549 69.000000 0.990228 0.000000 0.139460 0.316511 0.422981
0 8.585901 -31.564650 69.000000 0.990228 0.000000 0.139460 0.183489 0.422981
desk_big.jpg
0 16.050251 -14.272049 16.000000 0.696013 0.696013 0.176444 0.386677 0.109604
0 7.485901 -19.143549 69.000000 0.696013 0.696013 0.176444 0.329436 0.422981
0 8.585901 -20.243549 69.000000 0.696013 0.696013 0.176444 0.316511 0.422981
desk_big.jpg
0 14.950251 -13.172049 16.000000 0.000000 0.993713 0.111961 0.389261 0.109604
0 -7.215499 -19.143549 69.000000 0.000000 0.993713 0.111961 0.180903 0.422981
0 7.485901 -19.143549 69.000000 0.000000 0.993713 0.111961 0.319097 0.422981
desk_big.jpg
0 -14.679849 -13.172049 16.000000 -0.696013 0.696013 0.176444 0.399602 0.109604
0 -8.315499 -20.243549 69.000000 -0.696013 0.696013 0.176444 0.316511 0.422981
0 -7.215499 -19.143549 69.000000 -0.696013 0.696013 0.176444 0.329436 0.422981
desk_big.jpg
0 -15.779849 -14.272049 16.000000 -0.990228 0.000000 0.139461 0.386677 0.109604
0 -8.315499 -31.564650 69.000000 -0.990228 0.000000 0.139461 0.183489 0.422981
0 -8.315499 -20.243549 69.000000 -0.990228 0.000000 0.139461 0.316511 0.422981
desk_big.jpg
0 -15.779849 -37.536148 16.000000 -0.696013 -0.696013 0.176444 0.113323 0.109604
0 -7.215499 -32.664650 69.000000 -0.696013 -0.696013 0.176444 0.170564 0.422981
0 -8.315499 -31.564650 69.000000 -0.696013 -0.696013 0.176444 0.183489 0.422981
desk_big.jpg
0 -7.215499 -32.664650 69.000000 0.000000 -0.918883 -0.394530 0.180903 0.422981
0 12.035201 -36.404099 77.709396 0.000000 -0.918883 -0.394530 0.361860 0.474478
0 -11.764799 -36.404099 77.709396 0.000000 -0.918883 -0.394530 0.138140 0.474478
desk_big.jpg
0 7.485901 -32.664650 69.000000 0.586639 -0.586640 -0.558308 0.319097 0.422981
0 13.135201 -35.304100 77.709396 0.586639 -0.586640 -0.558308 0.372200 0.474478
0 12.035201 -36.404099 77.709396 0.586639 -0.586640 -0.558308 0.361860 0.474478
desk_big.jpg
0 8.585901 -31.564650 69.000000 0.886365 0.000000 -0.462988 0.183489 0.422981
0 13.135201 -16.504099 77.709396 0.886365 0.000000 -0.462988 0.360450 0.474478
0 13.135201 -35.304100 77.709396 0.886365 0.000000 -0.462988 0.139550 0.474478
desk_big.jpg
0 8.585901 -20.243549 69.000000 0.586640 0.586641 -0.558307 0.329437 0.422981
0 12.035201 -15.404099 77.709396 0.586640 0.586641 -0.558307 0.361860 0.474478
0 13.135201 -16.504099 77.709396 0.586640 0.586641 -0.558307 0.372200 0.474478
desk_big.jpg
0 7.485901 -19.143549 69.000000 0.000000 0.918883 -0.394530 0.319097 0.422981
0 -11.764799 -15.404099 77.709396 0.000000 0.918883 -0.394530 0.138140 0.474478
0 12.035201 -15.404099 77.709396 0.000000 0.918883 -0.394530 0.361860 0.474478
desk_big.jpg
0 -7.215499 -19.143549 69.000000 -0.586641 0.586641 -0.558306 0.329436 0.422981
0 -12.864799 -16.504099 77.709396 -0.586641 0.586641 -0.558306 0.360450 0.474478
0 -11.764799 -15.404099 77.709396 -0.586641 0.586641 -0.558306 0.373375 0.474478
desk_big.jpg
0 -8.315499 -20.243549 69.000000 -0.886365 0.000000 -0.462987 0.316511 0.422981
0 -12.864799 -35.304100 77.709396 -0.886365 0.000000 -0.462987 0.139550 0.474478
0 -12.864799 -16.504099 77.709396 -0.886365 0.000000 -0.462987 0.360450 0.474478
desk_big.jpg
0 -8.315499 -31.564650 69.000000 -0.586642 -0.586639 -0.558306 0.170563 0.422981
0 -11.764799 -36.404099 77.709396 -0.586642 -0.586639 -0.558306 0.138140 0.474478
0 -12.864799 -35.304100 77.709396 -0.586642 -0.586639 -0.558306 0.127800 0.474478
desk_big.jpg
0 -11.764799 -36.404099 77.709396 0.000000 -1.000000 0.000000 0.138140 0.474478
0 12.035201 -36.404099 79.488998 0.000000 -1.000000 0.000000 0.361860 0.485000
0 -11.764799 -36.404099 79.488998 0.000000 -1.000000 0.000000 0.138140 0.485000
desk_big.jpg
0 12.035201 -36.404099 77.709396 0.707104 -0.707110 0.000000 0.361860 0.474478
0 13.135201 -35.304100 79.488998 0.707104 -0.707110 0.000000 0.372200 0.485000
0 12.035201 -36.404099 79.488998 0.707104 -0.707110 0.000000 0.361860 0.485000
desk_big.jpg
0 13.135201 -35.304100 77.709396 1.000000 0.000000 0.000000 0.139550 0.474478
0 13.135201 -16.504099 79.488998 1.000000 0.000000 0.000000 0.360450 0.485000
0 13.135201 -35.304100 79.488998 1.000000 0.000000 0.000000 0.139550 0.485000
desk_big.jpg
0 13.135201 -16.504099 77.709396 0.707105 0.707109 0.000000 0.372200 0.474478
0 12.035201 -15.404099 79.488998 0.707105 0.707109 0.000000 0.361860 0.485000
0 13.135201 -16.504099 79.488998 0.707105 0.707109 0.000000 0.372200 0.485000
desk_big.jpg
0 12.035201 -15.404099 77.709396 0.000000 1.000000 0.000000 0.361860 0.474478
0 -11.764799 -15.404099 79.488998 0.000000 1.000000 0.000000 0.138140 0.485000
0 12.035201 -15.404099 79.488998 0.000000 1.000000 0.000000 0.361860 0.485000
desk_big.jpg
0 -11.764799 -15.404099 77.709396 -0.707105 0.707108 0.000000 0.373375 0.474478
0 -12.864799 -16.504099 79.488998 -0.707105 0.707108 0.000000 0.360450 0.485000
0 -11.764799 -15.404099 79.488998 -0.707105 0.707108 0.000000 0.373375 0.485000
desk_big.jpg
0 -12.864799 -16.504099 77.709396 -1.000000 0.000000 0.000000 0.360450 0.474478
0 -12.864799 -35.304100 79.488998 -1.000000 0.000000 0.000000 0.139550 0.485000
0 -12.864799 -16.504099 79.488998 -1.000000 0.000000 0.000000 0.360450 0.485000
desk_big.jpg
0 -12.864799 -35.304100 77.709396 -0.707104 -0.707110 0.000000 0.127800 0.474478
0 -11.764799 -36.404099 79.488998 -0.707104 -0.707110 0.000000 0.138140 0.485000
0 -12.864799 -35.304100 79.488998 -0.707104 -0.707110 0.000000 0.127800 0.485000
desk_big.jpg
0 13.135201 -16.504099 79.488998 0.000000 0.000000 1.000000 0.360450 0.372200
0 -11.764799 -15.404099 79.488998 0.000000 0.000000 1.000000 0.373375 0.138140
0 -12.864799 -35.304100 79.488998 0.000000 0.000000 1.000000 0.139550 0.127800
desk_big.jpg
0 -23.764799 -45.904099 0.000000 0.000000 0.000000 -1.000000 0.015000 0.025340
0 -24.864799 -44.804100 0.000000 0.000000 0.000000 -1.000000 0.027925 0.015000
0 -24.864799 -7.004097 0.000000 0.000000 0.000000 -1.000000 0.472075 0.015000
desk_big.jpg
0 -24.864799 -7.004097 0.000000 0.000000 0.000000 -1.000000 0.472075 0.015000
0 -23.764799 -5.904099 0.000000 0.000000 0.000000 -1.000000 0.485000 0.025340
0 24.035200 -5.904099 0.000000 0.000000 0.000000 -1.000000 0.485000 0.474660
desk_big.jpg
0 24.035200 -5.904099 0.000000 0.000000 0.000000 -1.000000 0.485000 0.474660
0 25.135201 -7.004097 0.000000 0.000000 0.000000 -1.000000 0.472075 0.485000
0 25.135201 -44.804100 0.000000 0.000000 0.000000 -1.000000 0.027925 0.485000
desk_big.jpg
0 25.135201 -44.804100 0.000000 0.000000 0.000000 -1.000000 0.027925 0.485000
0 24.035200 -45.904099 0.000000 0.000000 0.000000 -1.000000 0.015000 0.474660
0 -23.764799 -45.904099 0.000000 0.000000 0.000000 -1.000000 0.015000 0.025340
desk_big.jpg
0 -23.764799 -45.904099 0.000000 0.000000 0.000000 -1.000000 0.015000 0.025340
0 -24.864799 -7.004097 0.000000 0.000000 0.000000 -1.000000 0.472075 0.015000
0 24.035200 -5.904099 0.000000 0.000000 0.000000 -1.000000 0.485000 0.474660
desk_big.jpg
0 -23.764799 -45.904099 0.000000 0.000000 -1.000000 0.000000 0.025340 0.015000
0 24.035200 -45.904099 0.000000 0.000000 -1.000000 0.000000 0.474660 0.015000
0 24.035200 -45.904099 3.000000 0.000000 -1.000000 0.000000 0.474660 0.032738
desk_big.jpg
0 24.035200 -45.904099 0.000000 0.707106 -0.707108 0.000000 0.474660 0.015000
0 25.135201 -44.804100 0.000000 0.707106 -0.707108 0.000000 0.485000 0.015000
0 25.135201 -44.804100 3.000000 0.707106 -0.707108 0.000000 0.485000 0.032738
desk_big.jpg
0 25.135201 -44.804100 0.000000 1.000000 0.000000 0.000000 0.027925 0.015000
0 25.135201 -7.004097 0.000000 1.000000 0.000000 0.000000 0.472075 0.015000
0 25.135201 -7.004097 3.000000 1.000000 0.000000 0.000000 0.472075 0.032738
desk_big.jpg
0 25.135201 -7.004097 0.000000 0.707106 0.707107 0.000000 0.485000 0.015000
0 24.035200 -5.904099 0.000000 0.707106 0.707107 0.000000 0.474660 0.015000
0 24.035200 -5.904099 3.000000 0.707106 0.707107 0.000000 0.474660 0.032738
desk_big.jpg
0 24.035200 -5.904099 0.000000 0.000000 1.000000 0.000000 0.474660 0.015000
0 -23.764799 -5.904099 0.000000 0.000000 1.000000 0.000000 0.025340 0.015000
0 -23.764799 -5.904099 3.000000 0.000000 1.000000 0.000000 0.025340 0.032738
desk_big.jpg
0 -23.764799 -5.904099 0.000000 -0.707106 0.707107 0.000000 0.025340 0.015000
0 -24.864799 -7.004097 0.000000 -0.707106 0.707107 0.000000 0.015000 0.015000
0 -24.864799 -7.004097 3.000000 -0.707106 0.707107 0.000000 0.015000 0.032738
desk_big.jpg
0 -24.864799 -7.004097 0.000000 -1.000000 0.000000 0.000000 0.472075 0.015000
0 -24.864799 -44.804100 0.000000 -1.000000 0.000000 0.000000 0.027925 0.015000
0 -24.864799 -44.804100 3.000000 -1.000000 0.000000 0.000000 0.027925 0.032738
desk_big.jpg
0 -24.864799 -44.804100 0.000000 -0.707106 -0.707108 0.000000 0.015000 0.015000
0 -23.764799 -45.904099 0.000000 -0.707106 -0.707108 0.000000 0.025340 0.015000
0 -23.764799 -45.904099 3.000000 -0.707106 -0.707108 0.000000 0.025340 0.032738
desk_big.jpg
0 -23.764799 -45.904099 3.000000 0.000000 -0.808455 0.588558 0.025340 0.032738
0 24.035200 -45.904099 3.000000 0.000000 -0.808455 0.588558 0.474660 0.032738
0 14.950251 -38.636150 12.983400 0.000000 -0.808455 0.588558 0.389261 0.091768
desk_big.jpg
0 24.035200 -45.904099 3.000000 0.462098 -0.462099 0.756921 0.015000 0.474660
0 25.135201 -44.804100 3.000000 0.462098 -0.462099 0.756921 0.027925 0.485000
0 16.050251 -37.536148 12.983400 0.462098 -0.462099 0.756921 0.113323 0.399601
desk_big.jpg
0 25.135201 -44.804100 3.000000 0.739603 0.000000 0.673043 0.027925 0.032738
0 25.135201 -7.004097 3.000000 0.739603 0.000000 0.673043 0.472075 0.032738
0 16.050251 -14.272049 12.983400 0.739603 0.000000 0.673043 0.386677 0.091768
desk_big.jpg
0 25.135201 -7.004097 3.000000 0.462098 0.462098 0.756922 0.472075 0.485000
0 24.035200 -5.904099 3.000000 0.462098 0.462098 0.756922 0.485000 0.474660
0 14.950251 -13.172049 12.983400 0.462098 0.462098 0.756922 0.399602 0.389261
desk_big.jpg
0 24.035200 -5.904099 3.000000 0.000000 0.808455 0.588558 0.474660 0.032738
0 -23.764799 -5.904099 3.000000 0.000000 0.808455 0.588558 0.025340 0.032738
0 -14.679849 -13.172049 12.983400 0.000000 0.808455 0.588558 0.110739 0.091768
desk_big.jpg
0 -23.764799 -5.904099 3.000000 -0.462098 0.462099 0.756921 0.485000 0.025340
0 -24.864799 -7.004097 3.000000 -0.462098 0.462099 0.756921 0.472075 0.015000
0 -15.779849 -14.272049 12.983400 -0.462098 0.462099 0.756921 0.386677 0.100399
desk_big.jpg
0 -24.864799 -7.004097 3.000000 -0.739603 0.000000 0.673043 0.472075 0.032738
0 -24.864799 -44.804100 3.000000 -0.739603 0.000000 0.673043 0.027925 0.032738
0 -15.779849 -37.536148 12.983400 -0.739603 0.000000 0.673043 0.113323 0.091768
desk_big.jpg
0 -24.864799 -44.804100 3.000000 -0.462098 -0.462097 0.756922 0.027925 0.015000
0 -23.764799 -45.904099 3.000000 -0.462098 -0.462097 0.756922 0.015000 0.025340
0 -14.679849 -38.636150 12.983400 -0.462098 -0.462097 0.756922 0.100398 0.110739
desk_big.jpg
0 -14.679849 -38.636150 12.983400 0.000000 -1.000000 0.000000 0.110739 0.091768
0 14.950251 -38.636150 12.983400 0.000000 -1.000000 0.000000 0.389261 0.091768
0 14.950251 -38.636150 16.000000 0.000000 -1.000000 0.000000 0.389261 0.109604
desk_big.jpg
0 14.950251 -38.636150 12.983400 0.707108 -0.707106 0.000000 0.100398 0.091768
0 16.050251 -37.536148 12.983400 0.707108 -0.707106 0.000000 0.113323 0.091768
0 16.050251 -37.536148 16.000000 0.707108 -0.707106 0.000000 0.113323 0.109604
desk_big.jpg
0 16.050251 -37.536148 12.983400 1.000000 0.000000 0.000000 0.113323 0.091768
0 16.050251 -14.272049 12.983400 1.000000 0.000000 0.000000 0.386677 0.091768
0 16.050251 -14.272049 16.000000 1.000000 0.000000 0.000000 0.386677 0.109604
desk_big.jpg
0 16.050251 -14.272049 12.983400 0.707107 0.707107 0.000000 0.386677 0.091768
0 14.950251 -13.172049 12.983400 0.707107 0.707107 0.000000 0.399602 0.091768
0 14.950251 -13.172049 16.000000 0.707107 0.707107 0.000000 0.399602 0.109604
desk_big.jpg
0 14.950251 -13.172049 12.983400 0.000000 1.000000 0.000000 0.389261 0.091768
0 -14.679849 -13.172049 12.983400 0.000000 1.000000 0.000000 0.110739 0.091768
0 -14.679849 -13.172049 16.000000 0.000000 1.000000 0.000000 0.110739 0.109604
desk_big.jpg
0 -14.679849 -13.172049 12.983400 -0.707107 0.707107 0.000000 0.399602 0.091768
0 -15.779849 -14.272049 12.983400 -0.707107 0.707107 0.000000 0.386677 0.091768
0 -15.779849 -14.272049 16.000000 -0.707107 0.707107 0.000000 0.386677 0.109604
desk_big.jpg
0 -15.779849 -14.272049 12.983400 -1.000000 0.000000 0.000000 0.386677 0.091768
0 -15.779849 -37.536148 12.983400 -1.000000 0.000000 0.000000 0.113323 0.091768
0 -15.779849 -37.536148 16.000000 -1.000000 0.000000 0.000000 0.113323 0.109604
desk_big.jpg
0 -15.779849 -37.536148 12.983400 -0.707108 -0.707106 0.000000 0.113323 0.091768
0 -14.679849 -38.636150 12.983400 -0.707108 -0.707106 0.000000 0.100398 0.091768
0 -14.679849 -38.636150 16.000000 -0.707108 -0.707106 0.000000 0.100398 0.109604
desk_big.jpg
0 -14.679849 -38.636150 16.000000 0.000000 -0.993713 0.111961 0.110739 0.109604
0 14.950251 -38.636150 16.000000 0.000000 -0.993713 0.111961 0.389261 0.109604
0 7.485901 -32.664650 69.000000 0.000000 -0.993713 0.111961 0.319097 0.422981
desk_big.jpg
0 14.950251 -38.636150 16.000000 0.696013 -0.696012 0.176443 0.100398 0.109604
0 16.050251 -37.536148 16.000000 0.696013 -0.696012 0.176443 0.113323 0.109604
0 8.585901 -31.564650 69.000000 0.696013 -0.696012 0.176443 0.183489 0.422981
desk_big.jpg
0 16.050251 -37.536148 16.000000 0.990228 0.000000 0.139460 0.113323 0.109604
0 16.050251 -14.272049 16.000000 0.990228 0.000000 0.139460 0.386677 0.109604
0 8.585901 -20.243549 69.000000 0.990228 0.000000 0.139460 0.316511 0.422981
desk_big.jpg
0 16.050251 -14.272049 16.000000 0.696013 0.696012 0.176444 0.386677 0.109604
0 14.950251 -13.172049 16.000000 0.696013 0.696012 0.176444 0.399602 0.109604
0 7.485901 -19.143549 69.000000 0.696013 0.696012 0.176444 0.329436 0.422981
desk_big.jpg
0 14.950251 -13.172049 16.000000 0.000000 0.993713 0.111961 0.389261 0.109604
0 -14.679849 -13.172049 16.000000 0.000000 0.993713 0.111961 0.110739 0.109604
0 -7.215499 -19.143549 69.000000 0.000000 0.993713 0.111961 0.180903 0.422981
desk_big.jpg
0 -14.679849 -13.172049 16.000000 -0.696013 0.696013 0.176444 0.399602 0.109604
0 -15.779849 -14.272049 16.000000 -0.696013 0.696013 0.176444 0.386677 0.109604
0 -8.315499 -20.243549 69.000000 -0.696013 0.696013 0.176444 0.316511 0.422981
desk_big.jpg
0 -15.779849 -14.272049 16.000000 -0.990228 0.000000 0.139460 0.386677 0.109604
0 -15.779849 -37.536148 16.000000 -0.990228 0.000000 0.139460 0.113323 0.109604
0 -8.315499 -31.564650 69.000000 -0.990228 0.000000 0.139460 0.183489 0.422981
desk_big.jpg
0 -15.779849 -37.536148 16.000000 -0.696013 -0.696012 0.176443 0.113323 0.109604
0 -14.679849 -38.636150 16.000000 -0.696013 -0.696012 0.176443 0.100398 0.109604
0 -7.215499 -32.664650 69.000000 -0.696013 -0.696012 0.176443 0.170564 0.422981
desk_big.jpg
0 -7.215499 -32.664650 69.000000 0.000000 -0.918883 -0.394530 0.180903 0.422981
0 7.485901 -32.664650 69.000000 0.000000 -0.918883 -0.394530 0.319097 0.422981
0 12.035201 -36.404099 77.709396 0.000000 -0.918883 -0.394530 0.361860 0.474478
desk_big.jpg
0 7.485901 -32.664650 69.000000 0.586642 -0.586640 -0.558305 0.319097 0.422981
0 8.585901 -31.564650 69.000000 0.586642 -0.586640 -0.558305 0.329437 0.422981
0 13.135201 -35.304100 77.709396 0.586642 -0.586640 -0.558305 0.372200 0.474478
desk_big.jpg
0 8.585901 -31.564650 69.000000 0.886365 0.000000 -0.462987 0.183489 0.422981
0 8.585901 -20.243549 69.000000 0.886365 0.000000 -0.462987 0.316511 0.422981
0 13.135201 -16.504099 77.709396 0.886365 0.000000 -0.462987 0.360450 0.474478
desk_big.jpg
0 8.585901 -20.243549 69.000000 0.586643 0.586639 -0.558306 0.329437 0.422981
0 7.485901 -19.143549 69.000000 0.586643 0.586639 -0.558306 0.319097 0.422981
0 12.035201 -15.404099 77.709396 0.586643 0.586639 -0.558306 0.361860 0.474478
desk_big.jpg
0 7.485901 -19.143549 69.000000 0.000000 0.918883 -0.394530 0.319097 0.422981
0 -7.215499 -19.143549 69.000000 0.000000 0.918883 -0.394530 0.180903 0.422981
0 -11.764799 -15.404099 77.709396 0.000000 0.918883 -0.394530 0.138140 0.474478
desk_big.jpg
0 -7.215499 -19.143549 69.000000 -0.586642 0.586639 -0.558306 0.329436 0.422981
0 -8.315499 -20.243549 69.000000 -0.586642 0.586639 -0.558306 0.316511 0.422981
0 -12.864799 -16.504099 77.709396 -0.586642 0.586639 -0.558306 0.360450 0.474478
desk_big.jpg
0 -8.315499 -20.243549 69.000000 -0.886365 0.000000 -0.462987 0.316511 0.422981
0 -8.315499 -31.564650 69.000000 -0.886365 0.000000 -0.462987 0.183489 0.422981
0 -12.864799 -35.304100 77.709396 -0.886365 0.000000 -0.462987 0.139550 0.474478
desk_big.jpg
0 -8.315499 -31.564650 69.000000 -0.586640 -0.586641 -0.558306 0.170563 0.422981
0 -7.215499 -32.664650 69.000000 -0.586640 -0.586641 -0.558306 0.180903 0.422981
0 -11.764799 -36.404099 77.709396 -0.586640 -0.586641 -0.558306 0.138140 0.474478
desk_big.jpg
0 -11.764799 -36.404099 77.709396 0.000000 -1.000000 0.000000 0.138140 0.474478
0 12.035201 -36.404099 77.709396 0.000000 -1.000000 0.000000 0.361860 0.474478
0 12.035201 -36.404099 79.488998 0.000000 -1.000000 0.000000 0.361860 0.485000
desk_big.jpg
0 12.035201 -36.404099 77.709396 0.707107 -0.707106 0.000000 0.361860 0.474478
0 13.135201 -35.304100 77.709396 0.707107 -0.707106 0.000000 0.372200 0.474478
0 13.135201 -35.304100 79.488998 0.707107 -0.707106 0.000000 0.372200 0.485000
desk_big.jpg
0 13.135201 -35.304100 77.709396 1.000000 0.000000 0.000000 0.139550 0.474478
0 13.135201 -16.504099 77.709396 1.000000 0.000000 0.000000 0.360450 0.474478
0 13.135201 -16.504099 79.488998 1.000000 0.000000 0.000000 0.360450 0.485000
desk_big.jpg
0 13.135201 -16.504099 77.709396 0.707107 0.707107 0.000000 0.372200 0.474478
0 12.035201 -15.404099 77.709396 0.707107 0.707107 0.000000 0.361860 0.474478
0 12.035201 -15.404099 79.488998 0.707107 0.707107 0.000000 0.361860 0.485000
desk_big.jpg
0 12.035201 -15.404099 77.709396 0.000000 1.000000 0.000000 0.361860 0.474478
0 -11.764799 -15.404099 77.709396 0.000000 1.000000 0.000000 0.138140 0.474478
0 -11.764799 -15.404099 79.488998 0.000000 1.000000 0.000000 0.138140 0.485000
desk_big.jpg
0 -11.764799 -15.404099 77.709396 -0.707107 0.707107 0.000000 0.373375 0.474478
0 -12.864799 -16.504099 77.709396 -0.707107 0.707107 0.000000 0.360450 0.474478
0 -12.864799 -16.504099 79.488998 -0.707107 0.707107 0.000000 0.360450 0.485000
desk_big.jpg
0 -12.864799 -16.504099 77.709396 -1.000000 0.000000 0.000000 0.360450 0.474478
0 -12.864799 -35.304100 77.709396 -1.000000 0.000000 0.000000 0.139550 0.474478
0 -12.864799 -35.304100 79.488998 -1.000000 0.000000 0.000000 0.139550 0.485000
desk_big.jpg
0 -12.864799 -35.304100 77.709396 -0.707108 -0.707105 0.000000 0.127800 0.474478
0 -11.764799 -36.404099 77.709396 -0.707108 -0.707105 0.000000 0.138140 0.474478
0 -11.764799 -36.404099 79.488998 -0.707108 -0.707105 0.000000 0.138140 0.485000
desk_big.jpg
0 -12.864799 -35.304100 79.488998 0.000000 0.000000 1.000000 0.139550 0.127800
0 -11.764799 -36.404099 79.488998 0.000000 0.000000 1.000000 0.126625 0.138140
0 12.035201 -36.404099 79.488998 0.000000 0.000000 1.000000 0.126625 0.361860
desk_big.jpg
0 12.035201 -36.404099 79.488998 0.000000 0.000000 1.000000 0.126625 0.361860
0 13.135201 -35.304100 79.488998 0.000000 0.000000 1.000000 0.139550 0.372200
0 13.135201 -16.504099 79.488998 0.000000 0.000000 1.000000 0.360450 0.372200
desk_big.jpg
0 13.135201 -16.504099 79.488998 0.000000 0.000000 1.000000 0.360450 0.372200
0 12.035201 -15.404099 79.488998 0.000000 0.000000 1.000000 0.373375 0.361860
0 -11.764799 -15.404099 79.488998 0.000000 0.000000 1.000000 0.373375 0.138140
desk_big.jpg
0 -11.764799 -15.404099 79.488998 0.000000 0.000000 1.000000 0.373375 0.138140
0 -12.864799 -16.504099 79.488998 0.000000 0.000000 1.000000 0.360450 0.127800
0 -12.864799 -35.304100 79.488998 0.000000 0.000000 1.000000 0.139550 0.127800
desk_big.jpg
0 -12.864799 -35.304100 79.488998 0.000000 0.000000 1.000000 0.139550 0.127800
0 12.035201 -36.404099 79.488998 0.000000 0.000000 1.000000 0.126625 0.361860
0 13.135201 -16.504099 79.488998 0.000000 0.000000 1.000000 0.360450 0.372200
desk_big.jpg
0 15.185201 -13.004099 14.000000 0.000000 0.000000 -1.000000 0.960000 0.446916
0 16.185202 -37.804100 14.000000 0.000000 0.000000 -1.000000 0.556279 0.460000
0 -14.914799 -38.804100 14.000000 0.000000 0.000000 -1.000000 0.540000 0.053084
desk_big.jpg
0 -14.914799 -38.804100 14.000000 0.000000 -0.998752 0.049940 0.540000 0.053084
0 15.035201 -38.654099 17.000000 0.000000 -0.998752 0.049940 0.960000 0.444953
0 -14.764799 -38.654099 17.000000 0.000000 -0.998752 0.049940 0.960000 0.055047
desk_big.jpg
0 15.185201 -38.804100 14.000000 0.705346 -0.705346 0.070535 0.540000 0.040000
0 16.035200 -37.654099 17.000000 0.705346 -0.705346 0.070535 0.960000 0.058721
0 15.035201 -38.654099 17.000000 0.705346 -0.705346 0.070535 0.960000 0.042442
desk_big.jpg
0 16.185202 -37.804100 14.000000 0.998752 0.000000 0.049938 0.540000 0.056279
0 16.035200 -14.154099 17.000000 0.998752 0.000000 0.049938 0.960000 0.441279
0 16.035200 -37.654099 17.000000 0.998752 0.000000 0.049938 0.960000 0.058721
desk_big.jpg
0 16.185202 -14.004099 14.000000 0.705346 0.705346 0.070535 0.540000 0.443721
0 15.035201 -13.154099 17.000000 0.705346 0.705346 0.070535 0.960000 0.457558
0 16.035200 -14.154099 17.000000 0.705346 0.705346 0.070535 0.960000 0.441279
desk_big.jpg
0 15.185201 -13.004099 14.000000 0.000000 0.998752 0.049937 0.540000 0.446916
0 -14.764799 -13.154099 17.000000 0.000000 0.998752 0.049937 0.960000 0.055047
0 15.035201 -13.154099 17.000000 0.000000 0.998752 0.049937 0.960000 0.444953
desk_big.jpg
0 -14.914799 -13.004099 14.000000 -0.705346 0.705346 0.070534 0.540000 0.460000
0 -15.764799 -14.154099 17.000000 -0.705346 0.705346 0.070534 0.960000 0.441279
0 -14.764799 -13.154099 17.000000 -0.705346 0.705346 0.070534 0.960000 0.457558
desk_big.jpg
0 -15.914799 -14.004099 14.000000 -0.998752 0.000000 0.049937 0.540000 0.443721
0 -15.764799 -37.654099 17.000000 -0.998752 0.000000 0.049937 0.960000 0.058721
0 -15.764799 -14.154099 17.000000 -0.998752 0.000000 0.049937 0.960000 0.441279
desk_big.jpg
0 -15.914799 -37.804100 14.000000 -0.705346 -0.705346 0.070535 0.540000 0.056279
0 -14.764799 -38.654099 17.000000 -0.705346 -0.705346 0.070535 0.960000 0.042442
0 -15.764799 -37.654099 17.000000 -0.705346 -0.705346 0.070535 0.960000 0.058721
desk_big.jpg
0 16.035200 -14.154099 17.000000 0.000000 0.000000 1.000000 0.941279 0.458037
0 -14.764799 -13.154099 17.000000 0.000000 0.000000 1.000000 0.957558 0.055047
0 -15.764799 -37.654099 17.000000 0.000000 0.000000 1.000000 0.558721 0.041963
desk_big.jpg
0 -14.914799 -38.804100 14.000000 0.000000 0.000000 -1.000000 0.540000 0.053084
0 -15.914799 -37.804100 14.000000 0.000000 0.000000 -1.000000 0.556279 0.040000
0 -15.914799 -14.004099 14.000000 0.000000 0.000000 -1.000000 0.943721 0.040000
desk_big.jpg
0 -15.914799 -14.004099 14.000000 0.000000 0.000000 -1.000000 0.943721 0.040000
0 -14.914799 -13.004099 14.000000 0.000000 0.000000 -1.000000 0.960000 0.053084
0 15.185201 -13.004099 14.000000 0.000000 0.000000 -1.000000 0.960000 0.446916
desk_big.jpg
0 15.185201 -13.004099 14.000000 0.000000 0.000000 -1.000000 0.960000 0.446916
0 16.185202 -14.004099 14.000000 0.000000 0.000000 -1.000000 0.943721 0.460000
0 16.185202 -37.804100 14.000000 0.000000 0.000000 -1.000000 0.556279 0.460000
desk_big.jpg
0 16.185202 -37.804100 14.000000 0.000000 0.000000 -1.000000 0.556279 0.460000
0 15.185201 -38.804100 14.000000 0.000000 0.000000 -1.000000 0.540000 0.446916
0 -14.914799 -38.804100 14.000000 0.000000 0.000000 -1.000000 0.540000 0.053084
desk_big.jpg
0 -14.914799 -38.804100 14.000000 0.000000 0.000000 -1.000000 0.540000 0.053084
0 -15.914799 -14.004099 14.000000 0.000000 0.000000 -1.000000 0.943721 0.040000
0 15.185201 -13.004099 14.000000 0.000000 0.000000 -1.000000 0.960000 0.446916
desk_big.jpg
0 -14.914799 -38.804100 14.000000 0.000000 -0.998752 0.049936 0.540000 0.053084
0 15.185201 -38.804100 14.000000 0.000000 -0.998752 0.049936 0.540000 0.446916
0 15.035201 -38.654099 17.000000 0.000000 -0.998752 0.049936 0.960000 0.444953
desk_big.jpg
0 15.185201 -38.804100 14.000000 0.705346 -0.705346 0.070536 0.540000 0.040000
0 16.185202 -37.804100 14.000000 0.705346 -0.705346 0.070536 0.540000 0.056279
0 16.035200 -37.654099 17.000000 0.705346 -0.705346 0.070536 0.960000 0.058721
desk_big.jpg
0 16.185202 -37.804100 14.000000 0.998752 0.000000 0.049938 0.540000 0.056279
0 16.185202 -14.004099 14.000000 0.998752 0.000000 0.049938 0.540000 0.443721
0 16.035200 -14.154099 17.000000 0.998752 0.000000 0.049938 0.960000 0.441279
desk_big.jpg
0 16.185202 -14.004099 14.000000 0.705346 0.705345 0.070535 0.540000 0.443721
0 15.185201 -13.004099 14.000000 0.705346 0.705345 0.070535 0.540000 0.460000
0 15.035201 -13.154099 17.000000 0.705346 0.705345 0.070535 0.960000 0.457558
desk_big.jpg
0 15.185201 -13.004099 14.000000 0.000000 0.998752 0.049939 0.540000 0.446916
0 -14.914799 -13.004099 14.000000 0.000000 0.998752 0.049939 0.540000 0.053084
0 -14.764799 -13.154099 17.000000 0.000000 0.998752 0.049939 0.960000 0.055047
desk_big.jpg
0 -14.914799 -13.004099 14.000000 -0.705346 0.705346 0.070535 0.540000 0.460000
0 -15.914799 -14.004099 14.000000 -0.705346 0.705346 0.070535 0.540000 0.443721
0 -15.764799 -14.154099 17.000000 -0.705346 0.705346 0.070535 0.960000 0.441279
desk_big.jpg
0 -15.914799 -14.004099 14.000000 -0.998752 0.000000 0.049938 0.540000 0.443721
0 -15.914799 -37.804100 14.000000 -0.998752 0.000000 0.049938 0.540000 0.056279
0 -15.764799 -37.654099 17.000000 -0.998752 0.000000 0.049938 0.960000 0.058721
desk_big.jpg
0 -15.914799 -37.804100 14.000000 -0.705346 -0.705346 0.070534 0.540000 0.056279
0 -14.914799 -38.804100 14.000000 -0.705346 -0.705346 0.070534 0.540000 0.040000
0 -14.764799 -38.654099 17.000000 -0.705346 -0.705346 0.070534 0.960000 0.042442
desk_big.jpg
0 -15.764799 -37.654099 17.000000 0.000000 0.000000 1.000000 0.558721 0.041963
0 -14.764799 -38.654099 17.000000 0.000000 0.000000 1.000000 0.542442 0.055047
0 15.035201 -38.654099 17.000000 0.000000 0.000000 1.000000 0.542442 0.444953
desk_big.jpg
0 15.035201 -38.654099 17.000000 0.000000 0.000000 1.000000 0.542442 0.444953
0 16.035200 -37.654099 17.000000 0.000000 0.000000 1.000000 0.558721 0.458037
0 16.035200 -14.154099 17.000000 0.000000 0.000000 1.000000 0.941279 0.458037
desk_big.jpg
0 16.035200 -14.154099 17.000000 0.000000 0.000000 1.000000 0.941279 0.458037
0 15.035201 -13.154099 17.000000 0.000000 0.000000 1.000000 0.957558 0.444953
0 -14.764799 -13.154099 17.000000 0.000000 0.000000 1.000000 0.957558 0.055047
desk_big.jpg
0 -14.764799 -13.154099 17.000000 0.000000 0.000000 1.000000 0.957558 0.055047
0 -15.764799 -14.154099 17.000000 0.000000 0.000000 1.000000 0.941279 0.041963
0 -15.764799 -37.654099 17.000000 0.000000 0.000000 1.000000 0.558721 0.041963
desk_big.jpg
0 -15.764799 -37.654099 17.000000 0.000000 0.000000 1.000000 0.558721 0.041963
0 15.035201 -38.654099 17.000000 0.000000 0.000000 1.000000 0.542442 0.444953
0 16.035200 -14.154099 17.000000 0.000000 0.000000 1.000000 0.941279 0.458037
desk_big.jpg
0 -8.525000 -38.854099 14.590673 0.000000 1.000000 0.000000 0.540000 0.145000
0 -8.525000 -38.854099 16.409327 0.000000 1.000000 0.000000 0.960000 0.145000
0 -6.950000 -38.854099 15.500000 0.000000 1.000000 0.000000 0.750000 0.460000
desk_big.jpg
0 -6.950000 -38.854099 15.500000 0.587641 -0.734556 0.339273 0.750000 0.460000
0 -7.685000 -39.190098 16.045595 0.587641 -0.734556 0.339273 0.876000 0.313000
0 -7.370000 -39.190098 15.500000 0.587641 -0.734556 0.339273 0.750000 0.376000
desk_big.jpg
0 -7.475000 -38.854099 16.409327 0.000000 -0.734557 0.678547 0.960000 0.355000
0 -8.315000 -39.190098 16.045595 0.000000 -0.734557 0.678547 0.876000 0.187000
0 -7.685000 -39.190098 16.045595 0.000000 -0.734557 0.678547 0.876000 0.313000
desk_big.jpg
0 -8.525000 -38.854099 16.409327 -0.587640 -0.734553 0.339279 0.960000 0.145000
0 -8.630000 -39.190098 15.500000 -0.587640 -0.734553 0.339279 0.750000 0.124000
0 -8.315000 -39.190098 16.045595 -0.587640 -0.734553 0.339279 0.876000 0.187000
desk_big.jpg
0 -9.050000 -38.854099 15.500000 -0.587642 -0.734555 -0.339272 0.750000 0.040000
0 -8.315000 -39.190098 14.954404 -0.587642 -0.734555 -0.339272 0.624000 0.187000
0 -8.630000 -39.190098 15.500000 -0.587642 -0.734555 -0.339272 0.750000 0.124000
desk_big.jpg
0 -8.525000 -38.854099 14.590673 0.000000 -0.734557 -0.678547 0.540000 0.145000
0 -7.685000 -39.190098 14.954404 0.000000 -0.734557 -0.678547 0.624000 0.313000
0 -8.315000 -39.190098 14.954404 0.000000 -0.734557 -0.678547 0.624000 0.187000
desk_big.jpg
0 -7.475000 -38.854099 14.590673 0.587639 -0.734558 -0.339272 0.540000 0.355000
0 -7.370000 -39.190098 15.500000 0.587639 -0.734558 -0.339272 0.750000 0.376000
0 -7.685000 -39.190098 14.954404 0.587639 -0.734558 -0.339272 0.624000 0.313000
desk_big.jpg
0 -7.685000 -39.190098 16.045595 0.000000 -1.000000 0.000000 0.876000 0.313000
0 -8.630000 -39.190098 15.500000 0.000000 -1.000000 0.000000 0.750000 0.124000
0 -7.685000 -39.190098 14.954404 0.000000 -1.000000 0.000000 0.624000 0.313000
desk_big.jpg
0 -6.950000 -38.854099 15.500000 0.000000 1.000000 -0.000008 0.750000 0.460000
0 -7.475000 -38.854099 14.590673 0.000000 1.000000 -0.000008 0.540000 0.355000
0 -8.525000 -38.854099 14.590673 0.000000 1.000000 -0.000008 0.540000 0.145000
desk_big.jpg
0 -8.525000 -38.854099 14.590673 0.000000 1.000000 0.000000 0.540000 0.145000
0 -9.050000 -38.854099 15.500000 0.000000 1.000000 0.000000 0.750000 0.040000
0 -8.525000 -38.854099 16.409327 0.000000 1.000000 0.000000 0.960000 0.145000
desk_big.jpg
0 -8.525000 -38.854099 16.409327 0.000000 1.000000 0.000004 0.960000 0.145000
0 -7.475000 -38.854099 16.409327 0.000000 1.000000 0.000004 0.960000 0.355000
0 -6.950000 -38.854099 15.500000 0.000000 1.000000 0.000004 0.750000 0.460000
desk_big.jpg
0 -6.950000 -38.854099 15.500000 0.587639 -0.734555 0.339277 0.750000 0.460000
0 -7.475000 -38.854099 16.409327 0.587639 -0.734555 0.339277 0.960000 0.355000
0 -7.685000 -39.190098 16.045595 0.587639 -0.734555 0.339277 0.876000 0.313000
desk_big.jpg
0 -7.475000 -38.854099 16.409327 0.000000 -0.734561 0.678542 0.960000 0.355000
0 -8.525000 -38.854099 16.409327 0.000000 -0.734561 0.678542 0.960000 0.145000
0 -8.315000 -39.190098 16.045595 0.000000 -0.734561 0.678542 0.876000 0.187000
desk_big.jpg
0 -8.525000 -38.854099 16.409327 -0.587640 -0.734556 0.339274 0.960000 0.145000
0 -9.050000 -38.854099 15.500000 -0.587640 -0.734556 0.339274 0.750000 0.040000
0 -8.630000 -39.190098 15.500000 -0.587640 -0.734556 0.339274 0.750000 0.124000
desk_big.jpg
0 -9.050000 -38.854099 15.500000 -0.587639 -0.734555 -0.339278 0.750000 0.040000
0 -8.525000 -38.854099 14.590673 -0.587639 -0.734555 -0.339278 0.540000 0.145000
0 -8.315000 -39.190098 14.954404 -0.587639 -0.734555 -0.339278 0.624000 0.187000
desk_big.jpg
0 -8.525000 -38.854099 14.590673 0.000000 -0.734560 -0.678544 0.540000 0.145000
0 -7.475000 -38.854099 14.590673 0.000000 -0.734560 -0.678544 0.540000 0.355000
0 -7.685000 -39.190098 14.954404 0.000000 -0.734560 -0.678544 0.624000 0.313000
desk_big.jpg
0 -7.475000 -38.854099 14.590673 0.587641 -0.734554 -0.339275 0.540000 0.355000
0 -6.950000 -38.854099 15.500000 0.587641 -0.734554 -0.339275 0.750000 0.460000
0 -7.370000 -39.190098 15.500000 0.587641 -0.734554 -0.339275 0.750000 0.376000
desk_big.jpg
0 -7.685000 -39.190098 14.954404 0.000000 -1.000000 0.000000 0.624000 0.313000
0 -7.370000 -39.190098 15.500000 0.000000 -1.000000 0.000000 0.750000 0.376000
0 -7.685000 -39.190098 16.045595 0.000000 -1.000000 0.000000 0.876000 0.313000
desk_big.jpg
0 -7.685000 -39.190098 16.045595 0.000000 -1.000000 0.000000 0.876000 0.313000
0 -8.315000 -39.190098 16.045595 0.000000 -1.000000 0.000000 0.876000 0.187000
0 -8.630000 -39.190098 15.500000 0.000000 -1.000000 0.000000 0.750000 0.124000
desk_big.jpg
0 -8.630000 -39.190098 15.500000 0.000000 -1.000000 0.000000 0.750000 0.124000
0 -8.315000 -39.190098 14.954404 0.000000 -1.000000 0.000000 0.624000 0.187000
0 -7.685000 -39.190098 14.954404 0.000000 -1.000000 0.000000 0.624000 0.313000
desk_big.jpg
0 7.745000 -38.854099 14.590673 0.000000 1.000000 0.000000 0.540000 0.145000
0 7.745000 -38.854099 16.409327 0.000000 1.000000 0.000000 0.960000 0.145000
0 9.320000 -38.854099 15.500000 0.000000 1.000000 0.000000 0.750000 0.460000
desk_big.jpg
0 9.320000 -38.854099 15.500000 0.587643 -0.734554 0.339274 0.750000 0.460000
0 8.585000 -39.190098 16.045595 0.587643 -0.734554 0.339274 0.876000 0.313000
0 8.900000 -39.190098 15.500000 0.587643 -0.734554 0.339274 0.750000 0.376000
desk_big.jpg
0 8.795000 -38.854099 16.409327 0.000000 -0.734558 0.678545 0.960000 0.355000
0 7.955000 -39.190098 16.045595 0.000000 -0.734558 0.678545 0.876000 0.187000
0 8.585000 -39.190098 16.045595 0.000000 -0.734558 0.678545 0.876000 0.313000
desk_big.jpg
0 7.745000 -38.854099 16.409327 -0.587642 -0.734555 0.339273 0.960000 0.145000
0 7.640000 -39.190098 15.500000 -0.587642 -0.734555 0.339273 0.750000 0.124000
0 7.955000 -39.190098 16.045595 -0.587642 -0.734555 0.339273 0.876000 0.187000
desk_big.jpg
0 7.220000 -38.854099 15.500000 -0.587642 -0.734555 -0.339272 0.750000 0.040000
0 7.955000 -39.190098 14.954404 -0.587642 -0.734555 -0.339272 0.624000 0.187000
0 7.640000 -39.190098 15.500000 -0.587642 -0.734555 -0.339272 0.750000 0.124000
desk_big.jpg
0 7.745000 -38.854099 14.590673 0.000000 -0.734557 -0.678547 0.540000 0.145000
0 8.585000 -39.190098 14.954404 0.000000 -0.734557 -0.678547 0.624000 0.313000
0 7.955000 -39.190098 14.954404 0.000000 -0.734557 -0.678547 0.624000 0.187000
desk_big.jpg
0 8.795000 -38.854099 14.590673 0.587643 -0.734554 -0.339274 0.540000 0.355000
0 8.900000 -39.190098 15.500000 0.587643 -0.734554 -0.339274 0.750000 0.376000
0 8.585000 -39.190098 14.954404 0.587643 -0.734554 -0.339274 0.624000 0.313000
desk_big.jpg
0 8.585000 -39.190098 16.045595 0.000000 -1.000000 0.000000 0.876000 0.313000
0 7.640000 -39.190098 15.500000 0.000000 -1.000000 0.000000 0.750000 0.124000
0 8.585000 -39.190098 14.954404 0.000000 -1.000000 0.000000 0.624000 0.313000
desk_big.jpg
0 9.320000 -38.854099 15.500000 0.000000 1.000000 0.000000 0.750000 0.460000
0 8.795000 -38.854099 14.590673 0.000000 1.000000 0.000000 0.540000 0.355000
0 7.745000 -38.854099 14.590673 0.000000 1.000000 0.000000 0.540000 0.145000
desk_big.jpg
0 7.745000 -38.854099 14.590673 0.000000 1.000000 0.000000 0.540000 0.145000
0 7.220000 -38.854099 15.500000 0.000000 1.000000 0.000000 0.750000 0.040000
0 7.745000 -38.854099 16.409327 0.000000 1.000000 0.000000 0.960000 0.145000
desk_big.jpg
0 7.745000 -38.854099 16.409327 0.000000 1.000000 0.000000 0.960000 0.145000
0 8.795000 -38.854099 16.409327 0.000000 1.000000 0.000000 0.960000 0.355000
0 9.320000 -38.854099 15.500000 0.000000 1.000000 0.000000 0.750000 0.460000
desk_big.jpg
0 9.320000 -38.854099 15.500000 0.587642 -0.734556 0.339271 0.750000 0.460000
0 8.795000 -38.854099 16.409327 0.587642 -0.734556 0.339271 0.960000 0.355000
0 8.585000 -39.190098 16.045595 0.587642 -0.734556 0.339271 0.876000 0.313000
desk_big.jpg
0 8.795000 -38.854099 16.409327 0.000000 -0.734553 0.678551 0.960000 0.355000
0 7.745000 -38.854099 16.409327 0.000000 -0.734553 0.678551 0.960000 0.145000
0 7.955000 -39.190098 16.045595 0.000000 -0.734553 0.678551 0.876000 0.187000
desk_big.jpg
0 7.745000 -38.854099 16.409327 -0.587641 -0.734554 0.339275 0.960000 0.145000
0 7.220000 -38.854099 15.500000 -0.587641 -0.734554 0.339275 0.750000 0.040000
0 7.640000 -39.190098 15.500000 -0.587641 -0.734554 0.339275 0.750000 0.124000
desk_big.jpg
0 7.220000 -38.854099 15.500000 -0.587640 -0.734553 -0.339279 0.750000 0.040000
0 7.745000 -38.854099 14.590673 -0.587640 -0.734553 -0.339279 0.540000 0.145000
0 7.955000 -39.190098 14.954404 -0.587640 -0.734553 -0.339279 0.624000 0.187000
desk_big.jpg
0 7.745000 -38.854099 14.590673 0.000000 -0.734553 -0.678551 0.540000 0.145000
0 8.795000 -38.854099 14.590673 0.000000 -0.734553 -0.678551 0.540000 0.355000
0 8.585000 -39.190098 14.954404 0.000000 -0.734553 -0.678551 0.624000 0.313000
desk_big.jpg
0 8.795000 -38.854099 14.590673 0.587642 -0.734557 -0.339268 0.540000 0.355000
0 9.320000 -38.854099 15.500000 0.587642 -0.734557 -0.339268 0.750000 0.460000
0 8.900000 -39.190098 15.500000 0.587642 -0.734557 -0.339268 0.750000 0.376000
desk_big.jpg
0 8.585000 -39.190098 14.954404 0.000000 -1.000000 0.000000 0.624000 0.313000
0 8.900000 -39.190098 15.500000 0.000000 -1.000000 0.000000 0.750000 0.376000
0 8.585000 -39.190098 16.045595 0.000000 -1.000000 0.000000 0.876000 0.313000
desk_big.jpg
0 8.585000 -39.190098 16.045595 0.000000 -1.000000 0.000000 0.876000 0.313000
0 7.955000 -39.190098 16.045595 0.000000 -1.000000 0.000000 0.876000 0.187000
0 7.640000 -39.190098 15.500000 0.000000 -1.000000 0.000000 0.750000 0.124000
desk_big.jpg
0 7.640000 -39.190098 15.500000 0.000000 -1.000000 0.000000 0.750000 0.124000
0 7.955000 -39.190098 14.954404 0.000000 -1.000000 0.000000 0.624000 0.187000
0 8.585000 -39.190098 14.954404 0.000000 -1.000000 0.000000 0.624000 0.313000
end
