version 1
nodes
0 "Box01" -1
end
skeleton
time 0
0 0.674047 0.445008 -0.000001 0.000000 0.000000 0.000000
end
triangles
c_wall04.jpg
0 -50.154701 -50.352100 137.016602 0.000000 0.000000 1.000000 0.000500 0.149100
0 49.726898 -50.352100 137.016602 0.000000 0.000000 1.000000 0.999500 0.149100
0 49.726898 49.801102 137.016602 0.000000 0.000000 1.000000 0.999500 0.999500
c_wall04.jpg
0 49.726898 49.801102 137.016602 0.000000 0.000000 1.000000 0.999500 0.999500
0 -50.154701 49.801102 137.016602 0.000000 0.000000 1.000000 0.000500 0.999500
0 -50.154701 -50.352100 137.016602 0.000000 0.000000 1.000000 0.000500 0.149100
c_wall04.jpg
0 49.726898 -50.352100 0.000000 1.000000 0.000000 0.000000 0.000500 0.000500
0 49.726898 49.801102 0.000000 1.000000 0.000000 0.000000 0.999500 0.000500
0 49.726898 49.801102 137.016602 1.000000 0.000000 0.000000 0.999500 0.999500
c_wall04.jpg
0 49.726898 49.801102 137.016602 1.000000 0.000000 0.000000 0.999500 0.999500
0 49.726898 -50.352100 137.016602 1.000000 0.000000 0.000000 0.000500 0.999500
0 49.726898 -50.352100 0.000000 1.000000 0.000000 0.000000 0.000500 0.000500
c_wall04.jpg
0 49.726898 49.801102 0.000000 0.000000 1.000000 0.000000 0.000500 0.000500
0 -50.154701 49.801102 0.000000 0.000000 1.000000 0.000000 0.999500 0.000500
0 -50.154701 49.801102 137.016602 0.000000 1.000000 0.000000 0.999500 0.999500
c_wall04.jpg
0 -50.154701 49.801102 137.016602 0.000000 1.000000 0.000000 0.999500 0.999500
0 49.726898 49.801102 137.016602 0.000000 1.000000 0.000000 0.000500 0.999500
0 49.726898 49.801102 0.000000 0.000000 1.000000 0.000000 0.000500 0.000500
c_wall04.jpg
0 -50.154701 49.801102 0.000000 -1.000000 0.000000 0.000000 0.999500 0.000500
0 -50.154701 -50.352100 0.000000 -1.000000 0.000000 0.000000 0.000500 0.000500
0 -50.154701 -50.352100 137.016602 -1.000000 0.000000 0.000000 0.000500 0.999500
c_wall04.jpg
0 -50.154701 -50.352100 137.016602 -1.000000 0.000000 0.000000 0.000500 0.999500
0 -50.154701 49.801102 137.016602 -1.000000 0.000000 0.000000 0.999500 0.999500
0 -50.154701 49.801102 0.000000 -1.000000 0.000000 0.000000 0.999500 0.000500
c_wall06.jpg
0 -12.211800 -89.265999 43.960300 0.000000 -0.989851 -0.142107 0.380000 0.321000
0 11.784000 -89.265999 43.960300 0.000000 -0.989851 -0.142107 0.620000 0.321000
0 4.819200 -92.805496 68.609398 0.000000 -0.989851 -0.142107 0.550300 0.500700
c_wall06.jpg
0 4.819200 -92.805496 68.609398 0.000000 -0.989851 -0.142107 0.550300 0.500700
0 -5.247000 -92.805496 68.609398 0.000000 -0.989851 -0.142107 0.449700 0.500700
0 -12.211800 -89.265999 43.960300 0.000000 -0.989851 -0.142107 0.380000 0.321000
c_wall06.jpg
0 49.726898 -50.352100 137.016602 0.000000 -0.900522 0.434811 0.999500 0.999500
0 -50.154701 -50.352100 137.016602 0.000000 -0.900522 0.434811 0.000500 0.999500
0 -13.817799 -61.952099 112.994202 0.000000 -0.900522 0.434811 0.363900 0.824400
c_wall06.jpg
0 -13.817799 -61.952099 112.994202 0.000000 -0.900522 0.434811 0.363900 0.824400
0 13.390100 -61.952099 112.994202 0.000000 -0.900522 0.434811 0.636100 0.824400
0 49.726898 -50.352100 137.016602 0.000000 -0.900522 0.434811 0.999500 0.999500
c_wall06.jpg
0 -50.154701 -50.352100 0.000000 0.000000 -0.900522 -0.434811 0.000500 0.000500
0 49.726898 -50.352100 0.000000 0.000000 -0.900522 -0.434811 0.999500 0.000500
0 32.215199 -61.952099 24.022400 0.000000 -0.900522 -0.434811 0.824400 0.175600
c_wall06.jpg
0 32.215199 -61.952099 24.022400 0.000000 -0.900522 -0.434811 0.824400 0.175600
0 -32.643002 -61.952099 24.022400 0.000000 -0.900522 -0.434811 0.175600 0.175600
0 -50.154701 -50.352100 0.000000 0.000000 -0.900522 -0.434811 0.000500 0.000500
c_wall06.jpg
0 49.726898 -50.352100 0.000000 0.304112 -0.952636 0.000000 0.999500 0.000500
0 49.726898 -50.352100 137.016602 0.304112 -0.952636 0.000000 0.999500 0.999500
0 13.390100 -61.952099 112.994202 0.304112 -0.952636 0.000000 0.636100 0.824400
c_wall06.jpg
0 13.390100 -61.952099 112.994202 0.675284 -0.723583 0.142897 0.636100 0.824400
0 32.215199 -61.952099 24.022400 0.675284 -0.723583 0.142897 0.824400 0.175600
0 49.726898 -50.352100 0.000000 0.675284 -0.723583 0.142897 0.999500 0.000500
c_wall06.jpg
0 -50.154701 -50.352100 137.016602 -0.552205 -0.833708 0.000000 0.000500 0.999500
0 -50.154701 -50.352100 0.000000 -0.552205 -0.833708 0.000000 0.000500 0.000500
0 -32.643002 -61.952099 24.022400 -0.552205 -0.833708 0.000000 0.175600 0.175600
c_wall06.jpg
0 -32.643002 -61.952099 24.022400 -0.269199 -0.961396 0.057000 0.175600 0.175600
0 -13.817799 -61.952099 112.994202 -0.269199 -0.961396 0.057000 0.363900 0.824400
0 -50.154701 -50.352100 137.016602 -0.269199 -0.961396 0.057000 0.000500 0.999500
c_wall06.jpg
0 -32.643002 -61.952099 24.022400 0.000000 -0.470303 -0.882505 0.175600 0.175600
0 32.215199 -61.952099 24.022400 0.000000 -0.470303 -0.882505 0.824400 0.175600
0 21.262300 -74.966003 30.958000 0.000000 -0.470303 -0.882505 0.714800 0.226200
c_wall06.jpg
0 21.262300 -74.966003 30.958000 0.000000 -0.470303 -0.882505 0.714800 0.226200
0 -21.690100 -74.966003 30.958000 0.000000 -0.470303 -0.882505 0.285200 0.226200
0 -32.643002 -61.952099 24.022400 0.000000 -0.470303 -0.882505 0.175600 0.175600
c_wall06.jpg
0 32.215199 -61.952099 24.022400 0.900110 -0.391804 0.190502 0.824400 0.175600
0 13.390100 -61.952099 112.994202 0.900110 -0.391804 0.190502 0.636100 0.824400
0 12.128801 -78.649300 84.609200 0.900110 -0.391804 0.190502 0.623400 0.617400
c_wall06.jpg
0 12.128801 -78.649300 84.609200 0.785380 -0.612184 0.091698 0.623400 0.617400
0 21.262300 -74.966003 30.958000 0.785380 -0.612184 0.091698 0.714800 0.226200
0 32.215199 -61.952099 24.022400 0.785380 -0.612184 0.091698 0.824400 0.175600
c_wall06.jpg
0 13.390100 -61.952099 112.994202 0.000000 -0.861934 0.507020 0.636100 0.824400
0 -13.817799 -61.952099 112.994202 0.000000 -0.861934 0.507020 0.363900 0.824400
0 -12.556499 -78.649300 84.609200 0.000000 -0.861934 0.507020 0.376600 0.617400
c_wall06.jpg
0 -12.556499 -78.649300 84.609200 0.000000 -0.861934 0.507020 0.376600 0.617400
0 12.128801 -78.649300 84.609200 0.000000 -0.861934 0.507020 0.623400 0.617400
0 13.390100 -61.952099 112.994202 0.000000 -0.861934 0.507020 0.636100 0.824400
c_wall06.jpg
0 -13.817799 -61.952099 112.994202 -0.796576 -0.580583 0.168495 0.363900 0.824400
0 -32.643002 -61.952099 24.022400 -0.796576 -0.580583 0.168495 0.175600 0.175600
0 -21.690100 -74.966003 30.958000 -0.796576 -0.580583 0.168495 0.285200 0.226200
c_wall06.jpg
0 -21.690100 -74.966003 30.958000 -0.941294 -0.307598 0.139099 0.285200 0.226200
0 -12.556499 -78.649300 84.609200 -0.941294 -0.307598 0.139099 0.376600 0.617400
0 -13.817799 -61.952099 112.994202 -0.941294 -0.307598 0.139099 0.363900 0.824400
c_wall06.jpg
0 -21.690100 -74.966003 30.958000 0.000000 -0.672708 -0.739908 0.285200 0.226200
0 21.262300 -74.966003 30.958000 0.000000 -0.672708 -0.739908 0.714800 0.226200
0 11.784000 -89.265999 43.960300 0.000000 -0.672708 -0.739908 0.620000 0.321000
c_wall06.jpg
0 11.784000 -89.265999 43.960300 0.000000 -0.672708 -0.739908 0.620000 0.321000
0 -12.211800 -89.265999 43.960300 0.000000 -0.672708 -0.739908 0.380000 0.321000
0 -21.690100 -74.966003 30.958000 0.000000 -0.672708 -0.739908 0.285200 0.226200
c_wall06.jpg
0 21.262300 -74.966003 30.958000 0.830992 -0.546495 0.103899 0.714800 0.226200
0 12.128801 -78.649300 84.609200 0.830992 -0.546495 0.103899 0.623400 0.617400
0 4.819200 -92.805496 68.609398 0.830992 -0.546495 0.103899 0.550300 0.500700
c_wall06.jpg
0 4.819200 -92.805496 68.609398 0.889302 -0.415201 0.191701 0.550300 0.500700
0 11.784000 -89.265999 43.960300 0.889302 -0.415201 0.191701 0.620000 0.321000
0 21.262300 -74.966003 30.958000 0.889302 -0.415201 0.191701 0.714800 0.226200
c_wall06.jpg
0 12.128801 -78.649300 84.609200 0.000000 -0.748941 0.662636 0.623400 0.617400
0 -12.556499 -78.649300 84.609200 0.000000 -0.748941 0.662636 0.376600 0.617400
0 -5.247000 -92.805496 68.609398 0.000000 -0.748941 0.662636 0.449700 0.500700
c_wall06.jpg
0 -5.247000 -92.805496 68.609398 0.000000 -0.748941 0.662636 0.449700 0.500700
0 4.819200 -92.805496 68.609398 0.000000 -0.748941 0.662636 0.550300 0.500700
0 12.128801 -78.649300 84.609200 0.000000 -0.748941 0.662636 0.623400 0.617400
c_wall06.jpg
0 -12.556499 -78.649300 84.609200 -0.873268 -0.473183 0.116196 0.376600 0.617400
0 -21.690100 -74.966003 30.958000 -0.873268 -0.473183 0.116196 0.285200 0.226200
0 -12.211800 -89.265999 43.960300 -0.873268 -0.473183 0.116196 0.380000 0.321000
c_wall06.jpg
0 -12.211800 -89.265999 43.960300 -0.803419 -0.577713 0.144103 0.380000 0.321000
0 -5.247000 -92.805496 68.609398 -0.803419 -0.577713 0.144103 0.449700 0.500700
0 -12.556499 -78.649300 84.609200 -0.803419 -0.577713 0.144103 0.376600 0.617400
end
