version 1
nodes
0 "Bone01" -1
1 "Bone02" 0
2 "Bone03" 1
3 "Box12" 0
end
skeleton
time 0
0 -0.000001 29.631584 36.239185 0.000000 0.000000 0.000000
1 -0.000000 0.420019 12.180588 0.000000 0.000000 0.000000
2 0.000003 -66.363190 2.100098 0.000000 0.000000 0.000000
3 -0.450443 -29.415998 4.558048 0.000000 0.000000 0.000000
time 1
0 -0.000001 29.631584 36.239185 0.000000 0.000000 0.000000
1 -0.000000 0.420019 12.180588 -0.235956 0.000000 0.000000
2 0.000003 -66.363197 2.100098 0.000000 0.000000 0.000000
3 -0.450443 -29.415998 4.558048 0.000000 0.000000 0.000000
time 2
0 -0.000001 29.631584 36.239185 0.000000 0.000000 0.000000
1 -0.000000 0.420019 12.180588 -0.507826 0.000000 0.000000
2 0.000003 -66.363182 2.100094 0.000000 0.000000 0.000000
3 -0.450443 -29.415998 4.558048 0.000000 0.000000 0.000000
time 3
0 -0.000001 29.631584 36.239185 0.000000 0.000000 0.000000
1 -0.000000 0.420019 12.180588 -0.787356 0.000000 0.000000
2 0.000003 -66.363190 2.100098 0.000000 0.000000 0.000000
3 -0.450443 -29.415998 4.558048 0.000000 0.000000 0.000000
time 4
0 -0.000001 29.631584 36.239185 0.000000 0.000000 0.000000
1 -0.000000 0.420019 12.180588 -1.044480 0.000000 0.000000
2 0.000003 -66.363197 2.100099 0.000000 0.000000 0.000000
3 -0.450443 -29.415998 4.558048 0.000000 0.000000 0.000000
time 5
0 -0.000001 29.631584 36.239185 0.000000 0.000000 0.000000
1 -0.000000 0.420019 12.180588 -1.266758 0.000000 0.000000
2 0.000003 -66.363197 2.100096 0.000000 0.000000 0.000000
3 -0.450443 -29.415998 4.558048 0.000000 0.000000 0.000000
time 6
0 -0.000001 29.631584 36.239185 0.000000 0.000000 0.000000
1 -0.000000 0.420019 12.180588 -1.460766 0.000000 0.000000
2 0.000003 -66.363197 2.100098 0.000000 0.000000 0.000000
3 -0.450443 -29.415998 4.558048 0.000000 0.000000 0.000000
end
