version 1
nodes
0 "Bone01" -1
1 "Bone02" 0
2 "Bone03" 1
3 "Box12" 0
end
skeleton
time 0
0 -0.000001 29.631584 36.239185 0.000000 0.000000 0.000000
1 -0.000000 0.420019 12.180588 0.000000 0.000000 0.000000
2 0.000003 -66.363190 2.100098 0.000000 0.000000 0.000000
3 -0.450443 -29.415998 4.558048 0.000000 0.000000 0.000000
end
triangles
treasure_chest.jpg
1 -57.733501 -29.527498 47.545399 0.000000 0.000000 -1.000000 0.483700 0.853900
1 -57.733501 29.958700 47.545399 0.000000 0.000000 -1.000000 0.483700 0.996400
1 56.832600 29.958700 47.545399 0.000000 0.000000 -1.000000 0.993900 0.996400
treasure_chest.jpg
1 56.832600 29.958700 47.545399 0.000000 0.000000 -1.000000 0.993900 0.996400
1 56.832600 -29.527498 47.545399 0.000000 0.000000 -1.000000 0.993900 0.853900
1 -57.733501 -29.527498 47.545399 0.000000 0.000000 -1.000000 0.483700 0.853900
treasure_chest.jpg
1 -57.733501 -26.340799 60.651901 0.000000 -0.935620 0.353008 0.480200 0.424300
1 56.832600 -26.340799 60.651901 0.000000 -0.955469 0.295091 0.993400 0.424300
1 56.832600 -19.613199 75.644302 0.000000 -0.811443 0.584431 0.993400 0.471600
treasure_chest.jpg
1 56.832600 -19.613199 75.644302 0.000000 -0.811443 0.584431 0.993400 0.471600
1 -57.733501 -19.613199 75.644302 0.000000 -0.670819 0.741621 0.480200 0.471600
1 -57.733501 -26.340799 60.651901 0.000000 -0.935620 0.353008 0.480200 0.424300
treasure_chest.jpg
1 -57.733501 -19.613199 75.644302 0.000000 -0.670819 0.741621 0.480200 0.471600
1 56.832600 -19.613199 75.644302 0.000000 -0.811443 0.584431 0.993400 0.471600
1 56.832600 -9.698801 81.491699 0.000000 -0.426818 0.904338 0.993400 0.541400
treasure_chest.jpg
1 56.832600 -9.698801 81.491699 0.000000 -0.426818 0.904338 0.993400 0.541400
1 -57.733501 -9.698801 81.491699 0.000000 -0.341317 0.939948 0.480200 0.541400
1 -57.733501 -19.613199 75.644302 0.000000 -0.670819 0.741621 0.480200 0.471600
treasure_chest.jpg
1 -57.733501 -9.698801 81.491699 0.000000 -0.341317 0.939948 0.480200 0.541400
1 56.832600 -9.698801 81.491699 0.000000 -0.426818 0.904338 0.993400 0.541400
1 56.832600 0.215599 84.091499 0.000000 -0.087100 0.996200 0.993400 0.611100
treasure_chest.jpg
1 56.832600 0.215599 84.091499 0.000000 -0.087100 0.996200 0.993400 0.611100
1 -57.733501 0.215599 84.091499 0.000000 0.087100 0.996200 0.480200 0.611100
1 -57.733501 -9.698801 81.491699 0.000000 -0.341317 0.939948 0.480200 0.541400
treasure_chest.jpg
1 -57.733501 0.215599 84.091499 0.000000 0.087100 0.996200 0.480200 0.611100
1 56.832600 0.215599 84.091499 0.000000 -0.087100 0.996200 0.993400 0.611100
1 56.832600 10.129999 81.491699 0.000000 0.341317 0.939948 0.993400 0.680900
treasure_chest.jpg
1 56.832600 10.129999 81.491699 0.000000 0.341317 0.939948 0.993400 0.680900
1 -57.733501 10.129999 81.491699 0.000000 0.426818 0.904338 0.480200 0.680900
1 -57.733501 0.215599 84.091499 0.000000 0.087100 0.996200 0.480200 0.611100
treasure_chest.jpg
1 -57.733501 10.129999 81.491699 0.000000 0.426818 0.904338 0.480200 0.680900
1 56.832600 10.129999 81.491699 0.000000 0.341317 0.939948 0.993400 0.680900
1 56.832600 20.044300 75.644302 0.000000 0.670819 0.741621 0.993400 0.750600
treasure_chest.jpg
1 56.832600 20.044300 75.644302 0.000000 0.670819 0.741621 0.993400 0.750600
1 -57.733501 20.044300 75.644302 0.000000 0.811443 0.584431 0.480200 0.750600
1 -57.733501 10.129999 81.491699 0.000000 0.426818 0.904338 0.480200 0.680900
treasure_chest.jpg
1 -57.733501 20.044300 75.644302 0.000000 0.811443 0.584431 0.480200 0.750600
1 56.832600 20.044300 75.644302 0.000000 0.670819 0.741621 0.993400 0.750600
1 56.832600 26.771900 60.651901 0.000000 0.935620 0.353008 0.993400 0.797900
treasure_chest.jpg
1 56.832600 26.771900 60.651901 0.000000 0.935620 0.353008 0.993400 0.797900
1 -57.733501 26.771900 60.651901 0.000000 0.955469 0.295091 0.480200 0.797900
1 -57.733501 20.044300 75.644302 0.000000 0.811443 0.584431 0.480200 0.750600
treasure_chest.jpg
1 -57.733501 -29.527498 47.545399 0.000000 -0.971681 0.236295 0.480200 0.374700
1 56.832600 -29.527498 47.545399 0.000000 -0.971681 0.236295 0.993400 0.374700
1 56.832600 -26.340799 60.651901 0.000000 -0.955469 0.295091 0.993400 0.424300
treasure_chest.jpg
1 56.832600 -26.340799 60.651901 0.000000 -0.955469 0.295091 0.993400 0.424300
1 -57.733501 -26.340799 60.651901 0.000000 -0.935620 0.353008 0.480200 0.424300
1 -57.733501 -29.527498 47.545399 0.000000 -0.971681 0.236295 0.480200 0.374700
treasure_chest.jpg
1 56.832600 -29.527498 47.545399 1.000000 0.000000 0.000000 0.004100 0.723600
1 56.832600 29.958700 47.545399 1.000000 0.000000 0.000000 0.478800 0.723600
1 56.832600 -19.613199 75.644302 1.000000 0.000000 0.000000 0.083300 0.951100
treasure_chest.jpg
1 56.832600 -19.613199 75.644302 1.000000 0.000000 0.000000 0.083300 0.951100
1 56.832600 -26.340799 60.651901 1.000000 0.000000 0.000000 0.029600 0.829700
1 56.832600 -29.527498 47.545399 1.000000 0.000000 0.000000 0.004100 0.723600
treasure_chest.jpg
1 56.832600 -9.698801 81.491699 1.000000 0.000000 0.000000 0.162400 0.998400
1 56.832600 -19.613199 75.644302 1.000000 0.000000 0.000000 0.083300 0.951100
1 56.832600 29.958700 47.545399 1.000000 0.000000 0.000000 0.478800 0.723600
treasure_chest.jpg
1 56.832600 0.215599 84.091499 1.000000 0.000000 0.000000 0.241500 1.019500
1 56.832600 -9.698801 81.491699 1.000000 0.000000 0.000000 0.162400 0.998400
1 56.832600 29.958700 47.545399 1.000000 0.000000 0.000000 0.478800 0.723600
treasure_chest.jpg
1 56.832600 10.129999 81.491699 1.000000 0.000000 0.000000 0.320600 0.998400
1 56.832600 0.215599 84.091499 1.000000 0.000000 0.000000 0.241500 1.019500
1 56.832600 29.958700 47.545399 1.000000 0.000000 0.000000 0.478800 0.723600
treasure_chest.jpg
1 56.832600 20.044300 75.644302 1.000000 0.000000 0.000000 0.399700 0.951100
1 56.832600 10.129999 81.491699 1.000000 0.000000 0.000000 0.320600 0.998400
1 56.832600 29.958700 47.545399 1.000000 0.000000 0.000000 0.478800 0.723600
treasure_chest.jpg
1 56.832600 26.771900 60.651901 1.000000 0.000000 0.000000 0.453400 0.829700
1 56.832600 20.044300 75.644302 1.000000 0.000000 0.000000 0.399700 0.951100
1 56.832600 29.958700 47.545399 1.000000 0.000000 0.000000 0.478800 0.723600
treasure_chest.jpg
1 56.832600 29.958700 47.545399 0.000000 0.971681 0.236295 0.993400 0.847600
1 -57.733501 29.958700 47.545399 0.000000 0.971681 0.236295 0.480200 0.847600
1 -57.733501 26.771900 60.651901 0.000000 0.955469 0.295091 0.480200 0.797900
treasure_chest.jpg
1 -57.733501 26.771900 60.651901 0.000000 0.955469 0.295091 0.480200 0.797900
1 56.832600 26.771900 60.651901 0.000000 0.935620 0.353008 0.993400 0.797900
1 56.832600 29.958700 47.545399 0.000000 0.971681 0.236295 0.993400 0.847600
treasure_chest.jpg
1 -57.733501 20.044300 75.644302 -1.000000 0.000000 0.000000 0.399700 0.951100
1 -57.733501 26.771900 60.651901 -1.000000 0.000000 0.000000 0.453400 0.829700
1 -57.733501 29.958700 47.545399 -1.000000 0.000000 0.000000 0.478800 0.723600
treasure_chest.jpg
1 -57.733501 10.129999 81.491699 -1.000000 0.000000 0.000000 0.320600 0.998400
1 -57.733501 20.044300 75.644302 -1.000000 0.000000 0.000000 0.399700 0.951100
1 -57.733501 29.958700 47.545399 -1.000000 0.000000 0.000000 0.478800 0.723600
treasure_chest.jpg
1 -57.733501 0.215599 84.091499 -1.000000 0.000000 0.000000 0.241500 1.019500
1 -57.733501 10.129999 81.491699 -1.000000 0.000000 0.000000 0.320600 0.998400
1 -57.733501 29.958700 47.545399 -1.000000 0.000000 0.000000 0.478800 0.723600
treasure_chest.jpg
1 -57.733501 -9.698801 81.491699 -1.000000 0.000000 0.000000 0.162400 0.998400
1 -57.733501 0.215599 84.091499 -1.000000 0.000000 0.000000 0.241500 1.019500
1 -57.733501 29.958700 47.545399 -1.000000 0.000000 0.000000 0.478800 0.723600
treasure_chest.jpg
1 -57.733501 -19.613199 75.644302 -1.000000 0.000000 0.000000 0.083300 0.951100
1 -57.733501 -9.698801 81.491699 -1.000000 0.000000 0.000000 0.162400 0.998400
1 -57.733501 29.958700 47.545399 -1.000000 0.000000 0.000000 0.478800 0.723600
treasure_chest.jpg
1 -57.733501 29.958700 47.545399 -1.000000 0.000000 0.000000 0.478800 0.723600
1 -57.733501 -29.527498 47.545399 -1.000000 0.000000 0.000000 0.004100 0.723600
1 -57.733501 -26.340799 60.651901 -1.000000 0.000000 0.000000 0.029600 0.829700
treasure_chest.jpg
1 -57.733501 -26.340799 60.651901 -1.000000 0.000000 0.000000 0.029600 0.829700
1 -57.733501 -19.613199 75.644302 -1.000000 0.000000 0.000000 0.083300 0.951100
1 -57.733501 29.958700 47.545399 -1.000000 0.000000 0.000000 0.478800 0.723600
treasure_chest.jpg
0 -53.385201 -25.246300 7.672699 0.000000 0.000000 1.000000 0.511800 0.876400
0 52.484299 -25.246300 7.672699 0.000000 0.000000 1.000000 0.961800 0.876400
0 52.484299 25.677500 7.672699 0.000000 0.000000 1.000000 0.961800 0.978600
treasure_chest.jpg
0 52.484299 25.677500 7.672699 0.000000 0.000000 1.000000 0.961800 0.978600
0 -53.385201 25.677500 7.672699 0.000000 0.000000 1.000000 0.511800 0.978600
0 -53.385201 -25.246300 7.672699 0.000000 0.000000 1.000000 0.511800 0.876400
treasure_chest.jpg
0 -57.733501 -29.527500 0.053799 0.000000 -1.000000 0.000000 0.436600 0.005400
0 56.832600 -29.527500 0.053799 0.000000 -1.000000 0.000000 0.995700 0.005400
0 56.832600 -29.527500 46.399399 0.000000 -0.894347 0.447374 0.995700 0.359300
treasure_chest.jpg
0 56.832600 -29.527500 46.399399 0.000000 -0.894347 0.447374 0.995700 0.359300
0 -57.733501 -29.527500 46.399399 0.000000 -0.446613 0.894727 0.436600 0.359300
0 -57.733501 -29.527500 0.053799 0.000000 -1.000000 0.000000 0.436600 0.005400
treasure_chest.jpg
0 -57.733501 -29.527500 46.399399 0.000000 -0.446613 0.894727 0.431100 0.002400
0 56.832600 -29.527500 46.399399 0.000000 -0.894347 0.447374 0.995200 0.002400
0 52.484299 -25.246300 46.395699 0.000000 0.000900 1.000000 0.973800 0.027800
treasure_chest.jpg
0 52.484299 -25.246300 46.395699 0.000000 0.000900 1.000000 0.973800 0.027800
0 -53.385201 -25.246300 46.395699 0.000000 0.000900 1.000000 0.452500 0.027800
0 -57.733501 -29.527500 46.399399 0.000000 -0.446613 0.894727 0.431100 0.002400
treasure_chest.jpg
0 56.832600 -29.527500 0.053799 1.000000 0.000000 0.000000 0.205000 0.005400
0 56.832600 29.958700 0.053799 1.000000 0.000000 0.000000 0.435800 0.005400
0 56.832600 29.958700 46.399399 0.894347 0.000000 0.447374 0.435800 0.356900
treasure_chest.jpg
0 56.832600 29.958700 46.399399 0.894347 0.000000 0.447374 0.435800 0.356900
0 56.832600 -29.527500 46.399399 0.446613 0.000000 0.894727 0.205000 0.356900
0 56.832600 -29.527500 0.053799 1.000000 0.000000 0.000000 0.205000 0.005400
treasure_chest.jpg
0 56.832600 -29.527500 46.399399 0.446613 0.000000 0.894727 0.995200 0.002400
0 56.832600 29.958700 46.399399 0.894347 0.000000 0.447374 0.995200 0.355000
0 52.484299 25.677500 46.395699 -0.000800 0.000000 1.000000 0.973800 0.329700
treasure_chest.jpg
0 52.484299 25.677500 46.395699 -0.000800 0.000000 1.000000 0.973800 0.329700
0 52.484299 -25.246300 46.395699 -0.000800 0.000000 1.000000 0.973800 0.027800
0 56.832600 -29.527500 46.399399 0.446613 0.000000 0.894727 0.995200 0.002400
treasure_chest.jpg
0 56.832600 29.958700 0.053799 0.000000 1.000000 0.000000 0.995700 0.005400
0 -57.733501 29.958700 0.053799 0.000000 1.000000 0.000000 0.436600 0.005400
0 -57.733501 29.958700 46.399399 0.000000 0.894347 0.447374 0.436600 0.359300
treasure_chest.jpg
0 -57.733501 29.958700 46.399399 0.000000 0.894347 0.447374 0.436600 0.359300
0 56.832600 29.958700 46.399399 0.000000 0.446613 0.894727 0.995700 0.359300
0 56.832600 29.958700 0.053799 0.000000 1.000000 0.000000 0.995700 0.005400
treasure_chest.jpg
0 56.832600 29.958700 46.399399 0.000000 0.446613 0.894727 0.995200 0.355000
0 -57.733501 29.958700 46.399399 0.000000 0.894347 0.447374 0.431100 0.355000
0 -53.385201 25.677500 46.395699 0.000000 -0.000900 1.000000 0.452500 0.329700
treasure_chest.jpg
0 -53.385201 25.677500 46.395699 0.000000 -0.000900 1.000000 0.452500 0.329700
0 52.484299 25.677500 46.395699 0.000000 -0.000900 1.000000 0.973800 0.329700
0 56.832600 29.958700 46.399399 0.000000 0.446613 0.894727 0.995200 0.355000
treasure_chest.jpg
0 -57.733501 29.958700 0.053799 -1.000000 0.000000 0.000000 0.435800 0.005400
0 -57.733501 -29.527500 0.053799 -1.000000 0.000000 0.000000 0.205000 0.005400
0 -57.733501 -29.527500 46.399399 -0.894347 0.000000 0.447374 0.205000 0.356900
treasure_chest.jpg
0 -57.733501 -29.527500 46.399399 -0.894347 0.000000 0.447374 0.205000 0.356900
0 -57.733501 29.958700 46.399399 -0.446613 0.000000 0.894727 0.435800 0.356900
0 -57.733501 29.958700 0.053799 -1.000000 0.000000 0.000000 0.435800 0.005400
treasure_chest.jpg
0 -57.733501 29.958700 46.399399 -0.446613 0.000000 0.894727 0.431100 0.355000
0 -57.733501 -29.527500 46.399399 -0.894347 0.000000 0.447374 0.431100 0.002400
0 -53.385201 -25.246300 46.395699 0.000800 0.000000 1.000000 0.452500 0.027800
treasure_chest.jpg
0 -53.385201 -25.246300 46.395699 0.000800 0.000000 1.000000 0.452500 0.027800
0 -53.385201 25.677500 46.395699 0.000800 0.000000 1.000000 0.452500 0.329700
0 -57.733501 29.958700 46.399399 -0.446613 0.000000 0.894727 0.431100 0.355000
treasure_chest.jpg
0 -53.385201 -25.246300 46.395699 0.000000 1.000000 0.000000 0.510300 0.977900
0 52.484299 -25.246300 46.395699 0.000000 1.000000 0.000000 0.971300 0.977900
0 52.484299 -25.246300 7.672699 0.000000 1.000000 0.000000 0.971300 0.886900
treasure_chest.jpg
0 52.484299 -25.246300 7.672699 0.000000 1.000000 0.000000 0.971300 0.886900
0 -53.385201 -25.246300 7.672699 0.000000 1.000000 0.000000 0.510300 0.886900
0 -53.385201 -25.246300 46.395699 0.000000 1.000000 0.000000 0.510300 0.977900
treasure_chest.jpg
0 52.484299 -25.246300 46.395699 -1.000000 0.000000 0.000000 0.003500 0.560100
0 52.484299 25.677500 46.395699 -1.000000 0.000000 0.000000 0.191300 0.560100
0 52.484299 25.677500 7.672699 -1.000000 0.000000 0.000000 0.191300 0.372300
treasure_chest.jpg
0 52.484299 25.677500 7.672699 -1.000000 0.000000 0.000000 0.191300 0.372300
0 52.484299 -25.246300 7.672699 -1.000000 0.000000 0.000000 0.003500 0.372300
0 52.484299 -25.246300 46.395699 -1.000000 0.000000 0.000000 0.003500 0.560100
treasure_chest.jpg
0 52.484299 25.677500 46.395699 0.000000 -1.000000 0.000000 0.466500 0.560100
0 -53.385201 25.677500 46.395699 0.000000 -1.000000 0.000000 0.158500 0.560100
0 -53.385201 25.677500 7.672699 0.000000 -1.000000 0.000000 0.158500 0.372300
treasure_chest.jpg
0 -53.385201 25.677500 7.672699 0.000000 -1.000000 0.000000 0.158500 0.372300
0 52.484299 25.677500 7.672699 0.000000 -1.000000 0.000000 0.466500 0.372300
0 52.484299 25.677500 46.395699 0.000000 -1.000000 0.000000 0.466500 0.560100
treasure_chest.jpg
0 -53.385201 25.677500 46.395699 1.000000 0.000000 0.000000 0.191300 0.560100
0 -53.385201 -25.246300 46.395699 1.000000 0.000000 0.000000 0.003500 0.560100
0 -53.385201 -25.246300 7.672699 1.000000 0.000000 0.000000 0.003500 0.372300
treasure_chest.jpg
0 -53.385201 -25.246300 7.672699 1.000000 0.000000 0.000000 0.003500 0.372300
0 -53.385201 25.677500 7.672699 1.000000 0.000000 0.000000 0.191300 0.372300
0 -53.385201 25.677500 46.395699 1.000000 0.000000 0.000000 0.191300 0.560100
treasure_chest.jpg
0 -6.685800 -34.361401 31.115499 0.000000 -1.000000 0.000000 0.036000 0.075300
0 4.642200 -34.361401 31.115499 0.000000 -1.000000 0.000000 0.162600 0.075300
0 4.642200 -34.361401 48.089001 0.000000 -1.000000 0.000000 0.162600 0.314300
treasure_chest.jpg
0 4.642200 -34.361401 48.089001 0.000000 -1.000000 0.000000 0.162600 0.314300
0 -6.685800 -34.361401 48.089001 0.000000 -1.000000 0.000000 0.036000 0.314300
0 -6.685800 -34.361401 31.115499 0.000000 -1.000000 0.000000 0.036000 0.075300
treasure_chest.jpg
0 4.642200 -26.761299 31.115499 1.000000 0.000000 0.000000 0.194300 0.076000
0 4.642200 -26.761299 48.089001 1.000000 0.000000 0.000000 0.194300 0.316100
0 4.642200 -34.361401 48.089001 1.000000 0.000000 0.000000 0.162600 0.314300
treasure_chest.jpg
0 4.642200 -34.361401 48.089001 1.000000 0.000000 0.000000 0.162600 0.314300
0 4.642200 -34.361401 31.115499 1.000000 0.000000 0.000000 0.162600 0.075300
0 4.642200 -26.761299 31.115499 1.000000 0.000000 0.000000 0.194300 0.076000
treasure_chest.jpg
0 4.642200 -26.761299 48.089001 0.000000 0.000000 1.000000 0.162400 0.357000
0 -6.685800 -26.761299 48.089001 0.000000 0.000000 1.000000 0.036800 0.357000
0 -6.685800 -34.361401 48.089001 0.000000 0.000000 1.000000 0.036000 0.314300
treasure_chest.jpg
0 -6.685800 -34.361401 48.089001 0.000000 0.000000 1.000000 0.036000 0.314300
0 4.642200 -34.361401 48.089001 0.000000 0.000000 1.000000 0.162600 0.314300
0 4.642200 -26.761299 48.089001 0.000000 0.000000 1.000000 0.162400 0.357000
treasure_chest.jpg
0 -6.685800 -26.761299 48.089001 -1.000000 0.000000 0.000000 0.004300 0.316100
0 -6.685800 -26.761299 31.115499 -1.000000 0.000000 0.000000 0.004300 0.076000
0 -6.685800 -34.361401 31.115499 -1.000000 0.000000 0.000000 0.036000 0.075300
treasure_chest.jpg
0 -6.685800 -34.361401 31.115499 -1.000000 0.000000 0.000000 0.036000 0.075300
0 -6.685800 -34.361401 48.089001 -1.000000 0.000000 0.000000 0.036000 0.314300
0 -6.685800 -26.761299 48.089001 -1.000000 0.000000 0.000000 0.004300 0.316100
end
