version 1
nodes
0 "464" -1
1 "Box01" -1
end
skeleton
time 0
0 175.853912 199.864975 -23.006235 1.570796 1.221730 0.000000
1 -176.577057 -0.154882 -82.832672 1.570796 0.000000 1.570796
end
triangles
tree_04.jpg
0 65.896408 200.141006 9.804899 0.000000 1.000000 0.000000 0.000500 0.808700
0 83.343910 200.141006 -12.526801 0.000000 1.000000 0.000000 0.617900 0.999500
0 67.496704 200.141006 -36.021198 0.000000 1.000000 0.000000 0.999500 0.500000
tree_04.jpg
0 65.896408 200.141006 9.804899 0.000000 1.000000 0.000000 0.000500 0.808700
0 40.255203 200.141006 -28.209801 0.000000 1.000000 0.000000 0.617900 0.000500
0 39.266098 200.141006 0.112305 0.000000 1.000000 0.000000 0.000500 0.191300
tree_04.jpg
0 65.896408 200.141006 9.804899 0.000000 1.000000 0.000000 0.000500 0.808700
0 67.496704 200.141006 -36.021198 0.000000 1.000000 0.000000 0.999500 0.500000
0 40.255203 200.141006 -28.209801 0.000000 1.000000 0.000000 0.617900 0.000500
tree_04.jpg
0 65.896400 -199.962997 9.804899 0.000000 -1.000000 0.000000 0.000500 0.808700
0 67.496696 -199.962997 -36.021202 0.000000 -1.000000 0.000000 0.999500 0.500000
0 83.343903 -199.962997 -12.526801 0.000000 -1.000000 0.000000 0.617900 0.999500
tree_04.jpg
0 65.896400 -199.962997 9.804899 0.000000 -1.000000 0.000000 0.000500 0.808700
0 39.266098 -199.962997 0.112303 0.000000 -1.000000 0.000000 0.000500 0.191300
0 40.255203 -199.962997 -28.209803 0.000000 -1.000000 0.000000 0.617900 0.000500
tree_04.jpg
0 65.896400 -199.962997 9.804899 0.000000 -1.000000 0.000000 0.000500 0.808700
0 40.255203 -199.962997 -28.209803 0.000000 -1.000000 0.000000 0.617900 0.000500
0 67.496696 -199.962997 -36.021202 0.000000 -1.000000 0.000000 0.999500 0.500000
tree_04.jpg
0 26.447906 200.141006 9.804892 0.000000 1.000000 0.000000 0.000500 0.808700
0 43.895294 200.141006 -12.526802 0.000000 1.000000 0.000000 0.617900 0.999500
0 28.048096 200.141006 -36.021198 0.000000 1.000000 0.000000 0.999500 0.500000
tree_04.jpg
0 26.447906 200.141006 9.804892 0.000000 1.000000 0.000000 0.000500 0.808700
0 0.806595 200.141006 -28.209803 0.000000 1.000000 0.000000 0.617900 0.000500
0 -0.182404 200.141006 0.112297 0.000000 1.000000 0.000000 0.000500 0.191300
tree_04.jpg
0 26.447906 200.141006 9.804892 0.000000 1.000000 0.000000 0.000500 0.808700
0 28.048096 200.141006 -36.021198 0.000000 1.000000 0.000000 0.999500 0.500000
0 0.806595 200.141006 -28.209803 0.000000 1.000000 0.000000 0.617900 0.000500
tree_04.jpg
0 26.447922 -199.962906 9.804895 0.000000 -1.000000 0.000000 0.000500 0.808700
0 28.048111 -199.962997 -36.021198 0.000000 -1.000000 0.000000 0.999500 0.500000
0 43.895309 -199.962997 -12.526800 0.000000 -1.000000 0.000000 0.617900 0.999500
tree_04.jpg
0 26.447922 -199.962906 9.804895 0.000000 -1.000000 0.000000 0.000500 0.808700
0 -0.182388 -199.962906 0.112299 0.000000 -1.000000 0.000000 0.000500 0.191300
0 0.806610 -199.962906 -28.209801 0.000000 -1.000000 0.000000 0.617900 0.000500
tree_04.jpg
0 26.447922 -199.962906 9.804895 0.000000 -1.000000 0.000000 0.000500 0.808700
0 0.806610 -199.962906 -28.209801 0.000000 -1.000000 0.000000 0.617900 0.000500
0 28.048111 -199.962997 -36.021198 0.000000 -1.000000 0.000000 0.999500 0.500000
tile_ston06.jpg
0 67.496704 200.141006 -36.021198 0.799710 -0.018300 -0.600107 0.393900 0.997800
0 83.343895 3.440201 -12.526802 0.999887 -0.005800 0.013900 0.207900 0.506700
0 67.496696 47.500504 -32.567902 0.794774 -0.005600 -0.606880 0.366600 0.616700
tile_ston06.jpg
0 67.496704 200.141006 -36.021198 0.799710 -0.018300 -0.600107 0.393900 0.997800
0 83.343910 200.141006 -12.526801 0.960896 -0.002600 0.276899 0.207900 0.997800
0 83.343895 3.440201 -12.526802 0.999887 -0.005800 0.013900 0.207900 0.506700
tile_ston06.jpg
0 83.343910 200.141006 -12.526801 0.960896 -0.002600 0.276899 0.207900 0.997800
0 65.896400 -30.309799 8.833601 0.237695 0.010800 0.971280 0.038800 0.422400
0 83.343895 3.440201 -12.526802 0.999887 -0.005800 0.013900 0.207900 0.506700
tile_ston06.jpg
0 83.343910 200.141006 -12.526801 0.960896 -0.002600 0.276899 0.207900 0.997800
0 65.896408 200.141006 9.804899 -0.000900 -0.031400 0.999506 0.031200 0.997800
0 65.896400 -30.309799 8.833601 0.237695 0.010800 0.971280 0.038800 0.422400
tile_ston06.jpg
0 65.896408 200.141006 9.804899 -0.000900 -0.031400 0.999506 0.031200 0.997800
0 39.266113 27.657196 -4.295700 -0.849912 -0.004200 0.526908 0.142800 0.567100
0 65.896400 -30.309799 8.833601 0.237695 0.010800 0.971280 0.038800 0.422400
tile_ston06.jpg
0 65.896408 200.141006 9.804899 -0.000900 -0.031400 0.999506 0.031200 0.997800
0 39.266098 200.141006 0.112305 -0.939544 -0.024099 0.341580 0.107900 0.997800
0 39.266113 27.657196 -4.295700 -0.849912 -0.004200 0.526908 0.142800 0.567100
tile_ston06.jpg
0 39.266098 200.141006 0.112305 -0.939544 -0.024099 0.341580 0.107900 0.997800
0 40.255219 29.387604 -23.020901 -0.998908 0.001200 -0.046700 0.291000 0.571500
0 39.266113 27.657196 -4.295700 -0.849912 -0.004200 0.526908 0.142800 0.567100
tile_ston06.jpg
0 39.266098 200.141006 0.112305 -0.939544 -0.024099 0.341580 0.107900 0.997800
0 40.255203 200.141006 -28.209801 -0.999387 -0.002700 -0.034900 0.332100 0.997800
0 40.255219 29.387604 -23.020901 -0.998908 0.001200 -0.046700 0.291000 0.571500
tile_ston06.jpg
0 67.496696 47.500504 -32.567902 0.794774 -0.005600 -0.606880 0.366600 0.616700
0 83.343903 -199.962997 -12.526801 0.973510 0.008000 -0.228502 0.207900 -0.001200
0 67.496696 -199.962997 -36.021202 0.828875 0.019799 -0.559083 0.393900 -0.001200
tile_ston06.jpg
0 67.496696 47.500504 -32.567902 0.794774 -0.005600 -0.606880 0.366600 0.616700
0 83.343895 3.440201 -12.526802 0.999887 -0.005800 0.013900 0.207900 0.506700
0 83.343903 -199.962997 -12.526801 0.973510 0.008000 -0.228502 0.207900 -0.001200
tile_ston06.jpg
0 83.343895 3.440201 -12.526802 0.999887 -0.005800 0.013900 0.207900 0.506700
0 65.896400 -199.962997 9.804899 0.485691 0.009100 0.874083 0.031200 -0.001200
0 83.343903 -199.962997 -12.526801 0.973510 0.008000 -0.228502 0.207900 -0.001200
tile_ston06.jpg
0 83.343895 3.440201 -12.526802 0.999887 -0.005800 0.013900 0.207900 0.506700
0 65.896400 -30.309799 8.833601 0.237695 0.010800 0.971280 0.038800 0.422400
0 65.896400 -199.962997 9.804899 0.485691 0.009100 0.874083 0.031200 -0.001200
tile_ston06.jpg
0 65.896400 -30.309799 8.833601 0.237695 0.010800 0.971280 0.038800 0.422400
0 39.266098 -199.962997 0.112303 -0.694217 0.022401 0.719417 0.107900 -0.001200
0 65.896400 -199.962997 9.804899 0.485691 0.009100 0.874083 0.031200 -0.001200
tile_ston06.jpg
0 65.896400 -30.309799 8.833601 0.237695 0.010800 0.971280 0.038800 0.422400
0 39.266113 27.657196 -4.295700 -0.849912 -0.004200 0.526908 0.142800 0.567100
0 39.266098 -199.962997 0.112303 -0.694217 0.022401 0.719417 0.107900 -0.001200
tile_ston06.jpg
0 39.266113 27.657196 -4.295700 -0.849912 -0.004200 0.526908 0.142800 0.567100
0 40.255203 -199.962997 -28.209803 -0.999040 0.000700 -0.043802 0.332100 -0.001200
0 39.266098 -199.962997 0.112303 -0.694217 0.022401 0.719417 0.107900 -0.001200
tile_ston06.jpg
0 39.266113 27.657196 -4.295700 -0.849912 -0.004200 0.526908 0.142800 0.567100
0 40.255219 29.387604 -23.020901 -0.998908 0.001200 -0.046700 0.291000 0.571500
0 40.255203 -199.962997 -28.209803 -0.999040 0.000700 -0.043802 0.332100 -0.001200
tile_ston06.jpg
0 43.895294 200.141006 -12.526802 0.781274 -0.003300 0.624179 0.314500 0.997800
0 26.447906 -30.309799 8.833597 0.237695 0.010800 0.971280 0.483600 0.422400
0 43.895294 3.440201 -12.526799 0.778116 0.003100 0.628113 0.314500 0.506700
tile_ston06.jpg
0 43.895294 200.141006 -12.526802 0.781274 -0.003300 0.624179 0.314500 0.997800
0 26.447906 200.141006 9.804892 -0.000900 -0.031400 0.999506 0.491300 0.997800
0 26.447906 -30.309799 8.833597 0.237695 0.010800 0.971280 0.483600 0.422400
tile_ston06.jpg
0 26.447906 200.141006 9.804892 -0.000900 -0.031400 0.999506 0.491300 0.997800
0 -0.182388 27.657196 -4.295704 -0.849912 -0.004200 0.526908 0.379700 0.567100
0 26.447906 -30.309799 8.833597 0.237695 0.010800 0.971280 0.483600 0.422400
tile_ston06.jpg
0 26.447906 200.141006 9.804892 -0.000900 -0.031400 0.999506 0.491300 0.997800
0 -0.182404 200.141006 0.112297 -0.939544 -0.024099 0.341580 0.414600 0.997800
0 -0.182388 27.657196 -4.295704 -0.849912 -0.004200 0.526908 0.379700 0.567100
tile_ston06.jpg
0 -0.182404 200.141006 0.112297 -0.939544 -0.024099 0.341580 0.414600 0.997800
0 0.806610 29.387604 -23.020903 -0.998908 0.001200 -0.046700 0.231400 0.571500
0 -0.182388 27.657196 -4.295704 -0.849912 -0.004200 0.526908 0.379700 0.567100
tile_ston06.jpg
0 -0.182404 200.141006 0.112297 -0.939544 -0.024099 0.341580 0.414600 0.997800
0 0.806595 200.141006 -28.209803 -0.999387 -0.002700 -0.034900 0.190400 0.997800
0 0.806610 29.387604 -23.020903 -0.998908 0.001200 -0.046700 0.231400 0.571500
tile_ston06.jpg
0 43.895294 3.440201 -12.526799 0.778116 0.003100 0.628113 0.314500 0.506700
0 26.447922 -199.962906 9.804895 0.485691 0.009100 0.874083 0.491300 -0.001200
0 43.895309 -199.962997 -12.526800 0.787988 -0.000000 0.615691 0.314500 -0.001200
tile_ston06.jpg
0 43.895294 3.440201 -12.526799 0.778116 0.003100 0.628113 0.314500 0.506700
0 26.447906 -30.309799 8.833597 0.237695 0.010800 0.971280 0.483600 0.422400
0 26.447922 -199.962906 9.804895 0.485691 0.009100 0.874083 0.491300 -0.001200
tile_ston06.jpg
0 26.447906 -30.309799 8.833597 0.237695 0.010800 0.971280 0.483600 0.422400
0 -0.182388 -199.962906 0.112299 -0.694217 0.022401 0.719417 0.414600 -0.001200
0 26.447922 -199.962906 9.804895 0.485691 0.009100 0.874083 0.491300 -0.001200
tile_ston06.jpg
0 26.447906 -30.309799 8.833597 0.237695 0.010800 0.971280 0.483600 0.422400
0 -0.182388 27.657196 -4.295704 -0.849912 -0.004200 0.526908 0.379700 0.567100
0 -0.182388 -199.962906 0.112299 -0.694217 0.022401 0.719417 0.414600 -0.001200
tile_ston06.jpg
0 -0.182388 27.657196 -4.295704 -0.849912 -0.004200 0.526908 0.379700 0.567100
0 0.806610 -199.962906 -28.209801 -0.999040 0.000700 -0.043802 0.190400 -0.001200
0 -0.182388 -199.962906 0.112299 -0.694217 0.022401 0.719417 0.414600 -0.001200
tile_ston06.jpg
0 -0.182388 27.657196 -4.295704 -0.849912 -0.004200 0.526908 0.379700 0.567100
0 0.806610 29.387604 -23.020903 -0.998908 0.001200 -0.046700 0.231400 0.571500
0 0.806610 -199.962906 -28.209801 -0.999040 0.000700 -0.043802 0.190400 -0.001200
tile_ston06.jpg
0 65.927811 177.080002 -53.984695 0.778778 0.248493 -0.575983 0.393900 0.997800
0 72.700111 3.909607 -74.324097 0.999889 -0.008400 0.012300 0.207900 0.506700
0 65.927803 43.795898 -75.987801 0.772358 0.256786 -0.580968 0.366600 0.616700
tile_ston06.jpg
0 65.927811 177.080002 -53.984695 0.778778 0.248493 -0.575983 0.393900 0.997800
0 72.700104 175.336502 -44.096901 0.955453 -0.121407 0.269015 0.207900 0.997800
0 72.700111 3.909607 -74.324097 0.999889 -0.008400 0.012300 0.207900 0.506700
tile_ston06.jpg
0 72.700104 175.336502 -44.096901 0.955453 -0.121407 0.269015 0.207900 0.997800
0 65.243896 -27.089096 -70.520798 0.232203 -0.392605 0.889912 0.038800 0.422400
0 72.700111 3.909607 -74.324097 0.999889 -0.008400 0.012300 0.207900 0.506700
tile_ston06.jpg
0 72.700104 175.336502 -44.096901 0.955453 -0.121407 0.269015 0.207900 0.997800
0 65.243896 173.679306 -34.698399 0.010300 -0.419499 0.907697 0.031200 0.997800
0 65.243896 -27.089096 -70.520798 0.232203 -0.392605 0.889912 0.038800 0.422400
tile_ston06.jpg
0 65.243896 173.679306 -34.698399 0.010300 -0.419499 0.907697 0.031200 0.997800
0 53.863503 24.404205 -67.138603 -0.375990 -0.380990 0.844677 0.142800 0.567100
0 65.243896 -27.089096 -70.520798 0.232203 -0.392605 0.889912 0.038800 0.422400
tile_ston06.jpg
0 65.243896 173.679306 -34.698399 0.010300 -0.419499 0.907697 0.031200 0.997800
0 53.863495 174.398605 -38.777699 -0.316812 -0.409715 0.855432 0.107900 0.997800
0 53.863503 24.404205 -67.138603 -0.375990 -0.380990 0.844677 0.142800 0.567100
tile_ston06.jpg
0 65.927803 43.795898 -75.987801 0.772358 0.256786 -0.580968 0.366600 0.616700
0 72.700111 -173.358505 -105.581299 0.968979 0.103998 -0.224195 0.207900 -0.001200
0 65.927811 -171.615005 -115.469101 0.807111 0.248603 -0.535507 0.393900 -0.001200
tile_ston06.jpg
0 65.927803 43.795898 -75.987801 0.772358 0.256786 -0.580968 0.366600 0.616700
0 72.700111 3.909607 -74.324097 0.999889 -0.008400 0.012300 0.207900 0.506700
0 72.700111 -173.358505 -105.581299 0.968979 0.103998 -0.224195 0.207900 -0.001200
tile_ston06.jpg
0 72.700111 3.909607 -74.324097 0.999889 -0.008400 0.012300 0.207900 0.506700
0 65.243896 -175.015701 -96.182800 0.467422 -0.357017 0.808737 0.031200 -0.001200
0 72.700111 -173.358505 -105.581299 0.968979 0.103998 -0.224195 0.207900 -0.001200
tile_ston06.jpg
0 72.700111 3.909607 -74.324097 0.999889 -0.008400 0.012300 0.207900 0.506700
0 65.243896 -27.089096 -70.520798 0.232203 -0.392605 0.889912 0.038800 0.422400
0 65.243896 -175.015701 -96.182800 0.467422 -0.357017 0.808737 0.031200 -0.001200
tile_ston06.jpg
0 65.243896 -27.089096 -70.520798 0.232203 -0.392605 0.889912 0.038800 0.422400
0 53.863503 -174.296402 -100.262100 -0.354511 -0.370012 0.858728 0.107900 -0.001200
0 65.243896 -175.015701 -96.182800 0.467422 -0.357017 0.808737 0.031200 -0.001200
tile_ston06.jpg
0 65.243896 -27.089096 -70.520798 0.232203 -0.392605 0.889912 0.038800 0.422400
0 53.863503 24.404205 -67.138603 -0.375990 -0.380990 0.844677 0.142800 0.567100
0 53.863503 -174.296402 -100.262100 -0.354511 -0.370012 0.858728 0.107900 -0.001200
tile_ston06.jpg
0 63.843292 173.041901 -113.975594 0.776102 -0.264401 -0.572501 0.393900 0.997800
0 70.615601 3.358505 -73.860603 0.999904 0.003200 0.013500 0.207900 0.506700
0 63.843300 40.270309 -89.065903 0.771612 -0.261604 -0.579809 0.366600 0.616700
tile_ston06.jpg
0 63.843292 173.041901 -113.975594 0.776102 -0.264401 -0.572501 0.393900 0.997800
0 70.615601 174.785400 -104.087799 0.955607 0.119101 0.269502 0.207900 0.997800
0 70.615601 3.358505 -73.860603 0.999904 0.003200 0.013500 0.207900 0.506700
tile_ston06.jpg
0 70.615601 174.785400 -104.087799 0.955607 0.119101 0.269502 0.207900 0.997800
0 63.159401 -24.469894 -59.684502 0.232912 0.400621 0.886146 0.038800 0.422400
0 70.615601 3.358505 -73.860603 0.999904 0.003200 0.013500 0.207900 0.506700
tile_ston06.jpg
0 70.615601 174.785400 -104.087799 0.955607 0.119101 0.269502 0.207900 0.997800
0 63.159393 176.442596 -94.689308 0.008000 0.395801 0.918302 0.031200 0.997800
0 63.159401 -24.469894 -59.684502 0.232912 0.400621 0.886146 0.038800 0.422400
tile_ston06.jpg
0 63.159393 176.442596 -94.689308 0.008000 0.395801 0.918302 0.031200 0.997800
0 51.778992 25.074692 -74.117897 -0.376497 0.374397 0.847394 0.142800 0.567100
0 63.159401 -24.469894 -59.684502 0.232912 0.400621 0.886146 0.038800 0.422400
tile_ston06.jpg
0 63.159393 176.442596 -94.689308 0.008000 0.395801 0.918302 0.031200 0.997800
0 51.778992 175.723297 -98.768509 -0.322514 0.362415 0.874437 0.107900 0.997800
0 51.778992 25.074692 -74.117897 -0.376497 0.374397 0.847394 0.142800 0.567100
tile_ston06.jpg
0 63.843300 40.270309 -89.065903 0.771612 -0.261604 -0.579809 0.366600 0.616700
0 70.615608 -173.909683 -42.603500 0.969480 -0.096698 -0.225295 0.207900 -0.001200
0 63.843307 -175.653091 -52.491295 0.810092 -0.231198 -0.538794 0.393900 -0.001200
tile_ston06.jpg
0 63.843300 40.270309 -89.065903 0.771612 -0.261604 -0.579809 0.366600 0.616700
0 70.615601 3.358505 -73.860603 0.999904 0.003200 0.013500 0.207900 0.506700
0 70.615608 -173.909683 -42.603500 0.969480 -0.096698 -0.225295 0.207900 -0.001200
tile_ston06.jpg
0 70.615601 3.358505 -73.860603 0.999904 0.003200 0.013500 0.207900 0.506700
0 63.159401 -172.252518 -33.205002 0.467007 0.364105 0.805811 0.031200 -0.001200
0 70.615608 -173.909683 -42.603500 0.969480 -0.096698 -0.225295 0.207900 -0.001200
tile_ston06.jpg
0 70.615601 3.358505 -73.860603 0.999904 0.003200 0.013500 0.207900 0.506700
0 63.159401 -24.469894 -59.684502 0.232912 0.400621 0.886146 0.038800 0.422400
0 63.159401 -172.252518 -33.205002 0.467007 0.364105 0.805811 0.031200 -0.001200
tile_ston06.jpg
0 63.159401 -24.469894 -59.684502 0.232912 0.400621 0.886146 0.038800 0.422400
0 51.778999 -172.971695 -37.284199 -0.351398 0.392898 0.849795 0.107900 -0.001200
0 63.159401 -172.252518 -33.205002 0.467007 0.364105 0.805811 0.031200 -0.001200
tile_ston06.jpg
0 63.159401 -24.469894 -59.684502 0.232912 0.400621 0.886146 0.038800 0.422400
0 51.778992 25.074692 -74.117897 -0.376497 0.374397 0.847394 0.142800 0.567100
0 51.778999 -172.971695 -37.284199 -0.351398 0.392898 0.849795 0.107900 -0.001200
tile_wood02.jpg
0 81.165718 -167.239822 -159.817078 0.764099 0.645099 0.000000 0.000500 0.466200
0 59.535797 -145.609879 -16.804798 0.367214 0.930136 -0.000000 0.999500 0.358000
0 81.165710 -167.239822 -16.804800 0.764099 -0.645099 0.000000 0.999500 0.466200
tile_wood02.jpg
0 81.165718 -167.239822 -159.817078 0.764099 0.645099 0.000000 0.000500 0.466200
0 59.535797 -145.609879 -159.817093 0.367214 0.930136 -0.000000 0.000500 0.358000
0 59.535797 -145.609879 -16.804798 0.367214 0.930136 -0.000000 0.999500 0.358000
tile_wood02.jpg
0 59.535805 -188.869705 -159.817078 0.367214 -0.930136 -0.000000 0.000500 0.591300
0 81.165710 -167.239822 -16.804800 0.764099 -0.645099 0.000000 0.999500 0.466200
0 59.535805 -188.869705 -16.804798 0.367214 -0.930136 -0.000000 0.999500 0.591300
tile_wood02.jpg
0 59.535805 -188.869705 -159.817078 0.367214 -0.930136 -0.000000 0.000500 0.591300
0 81.165718 -167.239822 -159.817078 0.764099 0.645099 0.000000 0.000500 0.466200
0 81.165710 -167.239822 -16.804800 0.764099 -0.645099 0.000000 0.999500 0.466200
tile_wood02.jpg
0 81.255104 171.169693 -159.817093 0.764099 0.645099 0.000000 0.000500 0.466200
0 59.446503 192.978302 -16.804798 0.367214 0.930136 -0.000000 0.999500 0.358000
0 81.255096 171.169693 -16.804802 0.764099 -0.645099 0.000000 0.999500 0.466200
tile_wood02.jpg
0 81.255104 171.169693 -159.817093 0.764099 0.645099 0.000000 0.000500 0.466200
0 59.446510 192.978302 -159.817093 0.367214 0.930136 -0.000000 0.000500 0.358000
0 59.446503 192.978302 -16.804798 0.367214 0.930136 -0.000000 0.999500 0.358000
tile_wood02.jpg
0 59.446503 149.361099 -159.817093 0.367214 -0.930136 -0.000000 0.000500 0.591300
0 81.255096 171.169693 -16.804802 0.764099 -0.645099 0.000000 0.999500 0.466200
0 59.446510 149.361206 -16.804802 0.367214 -0.930136 -0.000000 0.999500 0.591300
tile_wood02.jpg
0 59.446503 149.361099 -159.817093 0.367214 -0.930136 -0.000000 0.000500 0.591300
0 81.255104 171.169693 -159.817093 0.764099 0.645099 0.000000 0.000500 0.466200
0 81.255096 171.169693 -16.804802 0.764099 -0.645099 0.000000 0.999500 0.466200
bridge_shadow01.tga
1 63.328491 -163.766205 -157.910995 1.000000 0.000000 0.000000 0.000500 0.012600
1 63.328491 163.950806 -157.910995 1.000000 0.000000 0.000000 0.999500 0.012600
1 63.328491 163.950806 -7.754303 1.000000 0.000000 0.000000 0.999500 0.982600
bridge_shadow01.tga
1 63.328491 163.950806 -7.754303 1.000000 0.000000 0.000000 0.999500 0.982600
1 63.328491 -163.766205 -7.754303 1.000000 0.000000 0.000000 0.000500 0.982600
1 63.328491 -163.766205 -157.910995 1.000000 0.000000 0.000000 0.000500 0.012600
end
