version 1
nodes
0 "Cylinder05" -1
1 "Bone01" -1
2 "Bone02" 1
3 "Bone03" 2
4 "Bone04" 1
5 "Bone05" 4
6 "Bone06" 1
7 "Bone07" 6
8 "Mesh03" 1
end
skeleton
time 0
0 0.225014 -0.024341 0.001930 0.000000 0.000000 -1.570796
1 0.257222 -0.000003 65.951385 0.000000 0.000000 0.000000
2 0.000000 -0.000000 7.228760 0.000000 0.000000 0.000000
3 0.219053 -0.000001 14.019409 0.000000 0.000000 0.000000
4 14.895624 -0.000000 0.219055 0.000000 0.000000 0.000000
5 0.000000 -0.000001 15.990891 0.000000 0.000000 0.000000
6 -15.114677 0.000000 0.000000 0.000000 -0.139034 0.000000
7 -0.657160 -0.000001 17.086159 0.000000 0.000000 0.000000
8 14.897318 4.200824 0.442749 0.000000 0.000000 0.000000
end
triangles
candle.jpg
0 0.225000 -11.260200 0.005700 0.101701 -0.305002 0.946906 0.994000 0.311600
0 2.831300 -0.024300 2.785700 0.735870 0.101496 0.669473 0.821700 0.351600
0 0.225000 -2.630600 2.785700 0.101496 -0.735870 0.669473 0.861700 0.311600
candle.jpg
0 0.225000 -11.260200 0.005700 0.101701 -0.305002 0.946906 0.994000 0.311600
0 11.460800 -0.024300 0.005700 0.305002 0.101701 0.946906 0.821700 0.483900
0 2.831300 -0.024300 2.785700 0.735870 0.101496 0.669473 0.821700 0.351600
candle.jpg
0 11.460800 -0.024300 0.005700 0.305002 0.101701 0.946906 0.821700 0.483900
0 0.225000 2.581900 2.785700 -0.101496 0.735870 0.669473 0.781700 0.311600
0 2.831300 -0.024300 2.785700 0.735870 0.101496 0.669473 0.821700 0.351600
candle.jpg
0 11.460800 -0.024300 0.005700 0.305002 0.101701 0.946906 0.821700 0.483900
0 0.225000 11.211500 0.005700 -0.101701 0.305002 0.946906 0.649400 0.311600
0 0.225000 2.581900 2.785700 -0.101496 0.735870 0.669473 0.781700 0.311600
candle.jpg
0 0.225000 11.211500 0.005700 -0.101701 0.305002 0.946906 0.649400 0.311600
0 -2.381200 -0.024300 2.785700 -0.735870 -0.101496 0.669473 0.821700 0.271600
0 0.225000 2.581900 2.785700 -0.101496 0.735870 0.669473 0.781700 0.311600
candle.jpg
0 0.225000 11.211500 0.005700 -0.101701 0.305002 0.946906 0.649400 0.311600
0 -11.010800 -0.024300 0.005700 -0.305002 -0.101701 0.946906 0.821700 0.139300
0 -2.381200 -0.024300 2.785700 -0.735870 -0.101496 0.669473 0.821700 0.271600
candle.jpg
0 -11.010800 -0.024300 0.005700 -0.305002 -0.101701 0.946906 0.821700 0.139300
0 0.225000 -2.630600 2.785700 0.101496 -0.735870 0.669473 0.861700 0.311600
0 -2.381200 -0.024300 2.785700 -0.735870 -0.101496 0.669473 0.821700 0.271600
candle.jpg
0 -11.010800 -0.024300 0.005700 -0.305002 -0.101701 0.946906 0.821700 0.139300
0 0.225000 -11.260200 0.005700 0.101701 -0.305002 0.946906 0.994000 0.311600
0 0.225000 -2.630600 2.785700 0.101496 -0.735870 0.669473 0.861700 0.311600
candle.jpg
0 0.225000 -2.630600 2.785700 0.101496 -0.735870 0.669473 0.499700 0.061600
0 2.831300 -0.024300 23.010799 0.807584 -0.070799 -0.585488 0.610800 0.496700
0 0.225000 -2.630600 23.010799 -0.070799 -0.807584 -0.585488 0.499700 0.506300
candle.jpg
0 0.225000 -2.630600 2.785700 0.101496 -0.735870 0.669473 0.499700 0.061600
0 2.831300 -0.024300 2.785700 0.735870 0.101496 0.669473 0.610800 0.061600
0 2.831300 -0.024300 23.010799 0.807584 -0.070799 -0.585488 0.610800 0.496700
candle.jpg
0 2.831300 -0.024300 2.785700 0.735870 0.101496 0.669473 0.610800 0.061600
0 0.225000 2.581900 23.010799 0.070799 0.807584 -0.585488 0.499700 0.506300
0 2.831300 -0.024300 23.010799 0.807584 -0.070799 -0.585488 0.610800 0.496700
candle.jpg
0 2.831300 -0.024300 2.785700 0.735870 0.101496 0.669473 0.610800 0.061600
0 0.225000 2.581900 2.785700 -0.101496 0.735870 0.669473 0.499700 0.061600
0 0.225000 2.581900 23.010799 0.070799 0.807584 -0.585488 0.499700 0.506300
candle.jpg
0 0.225000 2.581900 2.785700 -0.101496 0.735870 0.669473 0.499700 0.061600
0 -2.381200 -0.024300 23.010799 -0.807584 0.070799 -0.585488 0.418100 0.506300
0 0.225000 2.581900 23.010799 0.070799 0.807584 -0.585488 0.499700 0.506300
candle.jpg
0 0.225000 2.581900 2.785700 -0.101496 0.735870 0.669473 0.499700 0.061600
0 -2.381200 -0.024300 2.785700 -0.735870 -0.101496 0.669473 0.418100 0.061600
0 -2.381200 -0.024300 23.010799 -0.807584 0.070799 -0.585488 0.418100 0.506300
candle.jpg
0 -2.381200 -0.024300 2.785700 -0.735870 -0.101496 0.669473 0.418100 0.061600
0 0.225000 -2.630600 23.010799 -0.070799 -0.807584 -0.585488 0.499700 0.506300
0 -2.381200 -0.024300 23.010799 -0.807584 0.070799 -0.585488 0.418100 0.506300
candle.jpg
0 -2.381200 -0.024300 2.785700 -0.735870 -0.101496 0.669473 0.418100 0.061600
0 0.225000 -2.630600 2.785700 0.101496 -0.735870 0.669473 0.499700 0.061600
0 0.225000 -2.630600 23.010799 -0.070799 -0.807584 -0.585488 0.499700 0.506300
candle.jpg
0 0.225000 -2.630600 23.010799 -0.070799 -0.807584 -0.585488 0.499700 0.506300
0 7.626700 -0.024300 25.448601 0.962348 0.058797 -0.265386 0.650900 0.559900
0 0.225000 -7.426100 25.448601 0.058797 -0.962348 -0.265386 0.499700 0.559900
candle.jpg
0 0.225000 -2.630600 23.010799 -0.070799 -0.807584 -0.585488 0.499700 0.506300
0 2.831300 -0.024300 23.010799 0.807584 -0.070799 -0.585488 0.610800 0.496700
0 7.626700 -0.024300 25.448601 0.962348 0.058797 -0.265386 0.650900 0.559900
candle.jpg
0 2.831300 -0.024300 23.010799 0.807584 -0.070799 -0.585488 0.610800 0.496700
0 0.225000 7.377400 25.448601 -0.058797 0.962348 -0.265386 0.499700 0.559900
0 7.626700 -0.024300 25.448601 0.962348 0.058797 -0.265386 0.650900 0.559900
candle.jpg
0 2.831300 -0.024300 23.010799 0.807584 -0.070799 -0.585488 0.610800 0.496700
0 0.225000 2.581900 23.010799 0.070799 0.807584 -0.585488 0.499700 0.506300
0 0.225000 7.377400 25.448601 -0.058797 0.962348 -0.265386 0.499700 0.559900
candle.jpg
0 0.225000 2.581900 23.010799 0.070799 0.807584 -0.585488 0.499700 0.506300
0 -7.176700 -0.024300 25.448601 -0.962348 -0.058797 -0.265386 0.367000 0.559900
0 0.225000 7.377400 25.448601 -0.058797 0.962348 -0.265386 0.499700 0.559900
candle.jpg
0 0.225000 2.581900 23.010799 0.070799 0.807584 -0.585488 0.499700 0.506300
0 -2.381200 -0.024300 23.010799 -0.807584 0.070799 -0.585488 0.418100 0.506300
0 -7.176700 -0.024300 25.448601 -0.962348 -0.058797 -0.265386 0.367000 0.559900
candle.jpg
0 -2.381200 -0.024300 23.010799 -0.807584 0.070799 -0.585488 0.418100 0.506300
0 0.225000 -7.426100 25.448601 0.058797 -0.962348 -0.265386 0.499700 0.559900
0 -7.176700 -0.024300 25.448601 -0.962348 -0.058797 -0.265386 0.367000 0.559900
candle.jpg
0 -2.381200 -0.024300 23.010799 -0.807584 0.070799 -0.585488 0.418100 0.506300
0 0.225000 -2.630600 23.010799 -0.070799 -0.807584 -0.585488 0.499700 0.506300
0 0.225000 -7.426100 25.448601 0.058797 -0.962348 -0.265386 0.499700 0.559900
candle.jpg
0 0.225000 -7.426100 25.448601 0.058797 -0.962348 -0.265386 0.499700 0.559900
0 2.795100 -0.024300 30.869600 0.925442 0.025701 0.378017 0.617300 0.679100
0 0.225000 -2.594400 30.869600 0.025701 -0.925442 0.378017 0.499700 0.679100
candle.jpg
0 0.225000 -7.426100 25.448601 0.058797 -0.962348 -0.265386 0.499700 0.559900
0 7.626700 -0.024300 25.448601 0.962348 0.058797 -0.265386 0.650900 0.559900
0 2.795100 -0.024300 30.869600 0.925442 0.025701 0.378017 0.617300 0.679100
candle.jpg
0 7.626700 -0.024300 25.448601 0.962348 0.058797 -0.265386 0.650900 0.559900
0 0.225000 2.545700 30.869600 -0.025701 0.925442 0.378017 0.499700 0.679100
0 2.795100 -0.024300 30.869600 0.925442 0.025701 0.378017 0.617300 0.679100
candle.jpg
0 7.626700 -0.024300 25.448601 0.962348 0.058797 -0.265386 0.650900 0.559900
0 0.225000 7.377400 25.448601 -0.058797 0.962348 -0.265386 0.499700 0.559900
0 0.225000 2.545700 30.869600 -0.025701 0.925442 0.378017 0.499700 0.679100
candle.jpg
0 0.225000 7.377400 25.448601 -0.058797 0.962348 -0.265386 0.499700 0.559900
0 -2.345000 -0.024300 30.869600 -0.925442 -0.025701 0.378017 0.413600 0.679100
0 0.225000 2.545700 30.869600 -0.025701 0.925442 0.378017 0.499700 0.679100
candle.jpg
0 0.225000 7.377400 25.448601 -0.058797 0.962348 -0.265386 0.499700 0.559900
0 -7.176700 -0.024300 25.448601 -0.962348 -0.058797 -0.265386 0.367000 0.559900
0 -2.345000 -0.024300 30.869600 -0.925442 -0.025701 0.378017 0.413600 0.679100
candle.jpg
0 -7.176700 -0.024300 25.448601 -0.962348 -0.058797 -0.265386 0.367000 0.559900
0 0.225000 -2.594400 30.869600 0.025701 -0.925442 0.378017 0.499700 0.679100
0 -2.345000 -0.024300 30.869600 -0.925442 -0.025701 0.378017 0.413600 0.679100
candle.jpg
0 -7.176700 -0.024300 25.448601 -0.962348 -0.058797 -0.265386 0.367000 0.559900
0 0.225000 -7.426100 25.448601 0.058797 -0.962348 -0.265386 0.499700 0.559900
0 0.225000 -2.594400 30.869600 0.025701 -0.925442 0.378017 0.499700 0.679100
candle.jpg
0 0.225000 -2.594400 30.869600 0.025701 -0.925442 0.378017 0.499700 0.679100
0 2.795100 -0.024300 42.993301 0.968004 -0.010800 -0.250701 0.617300 0.945700
0 0.225000 -2.594400 42.993301 -0.010800 -0.968004 -0.250701 0.499700 0.945700
candle.jpg
0 0.225000 -2.594400 30.869600 0.025701 -0.925442 0.378017 0.499700 0.679100
0 2.795100 -0.024300 30.869600 0.925442 0.025701 0.378017 0.617300 0.679100
0 2.795100 -0.024300 42.993301 0.968004 -0.010800 -0.250701 0.617300 0.945700
candle.jpg
0 2.795100 -0.024300 30.869600 0.925442 0.025701 0.378017 0.617300 0.679100
0 0.225000 2.545700 42.993301 0.010800 0.968004 -0.250701 0.499700 0.945700
0 2.795100 -0.024300 42.993301 0.968004 -0.010800 -0.250701 0.617300 0.945700
candle.jpg
0 2.795100 -0.024300 30.869600 0.925442 0.025701 0.378017 0.617300 0.679100
0 0.225000 2.545700 30.869600 -0.025701 0.925442 0.378017 0.499700 0.679100
0 0.225000 2.545700 42.993301 0.010800 0.968004 -0.250701 0.499700 0.945700
candle.jpg
0 0.225000 2.545700 30.869600 -0.025701 0.925442 0.378017 0.499700 0.679100
0 -2.345000 -0.024300 42.993301 -0.968004 0.010800 -0.250701 0.413600 0.945700
0 0.225000 2.545700 42.993301 0.010800 0.968004 -0.250701 0.499700 0.945700
candle.jpg
0 0.225000 2.545700 30.869600 -0.025701 0.925442 0.378017 0.499700 0.679100
0 -2.345000 -0.024300 30.869600 -0.925442 -0.025701 0.378017 0.413600 0.679100
0 -2.345000 -0.024300 42.993301 -0.968004 0.010800 -0.250701 0.413600 0.945700
candle.jpg
0 -2.345000 -0.024300 30.869600 -0.925442 -0.025701 0.378017 0.413600 0.679100
0 0.225000 -2.594400 42.993301 -0.010800 -0.968004 -0.250701 0.499700 0.945700
0 -2.345000 -0.024300 42.993301 -0.968004 0.010800 -0.250701 0.413600 0.945700
candle.jpg
0 -2.345000 -0.024300 30.869600 -0.925442 -0.025701 0.378017 0.413600 0.679100
0 0.225000 -2.594400 30.869600 0.025701 -0.925442 0.378017 0.499700 0.679100
0 0.225000 -2.594400 42.993301 -0.010800 -0.968004 -0.250701 0.499700 0.945700
candle.jpg
0 4.105800 -0.024300 71.706596 0.707088 -0.235696 0.666689 0.390900 0.278000
0 0.225000 3.856400 71.706596 0.288710 0.866030 0.408214 0.317800 0.355800
0 -3.655800 -0.024300 71.706596 -0.707088 0.235696 0.666689 0.244600 0.278000
candle.jpg
0 4.105800 -0.024300 71.706596 0.707088 -0.235696 0.666689 0.390900 0.278000
0 -3.655800 -0.024300 71.706596 -0.707088 0.235696 0.666689 0.244600 0.278000
0 0.225000 -3.905100 71.706596 -0.288710 -0.866030 0.408214 0.317800 0.200200
candle.jpg
0 0.225000 -2.594400 42.993301 -0.010800 -0.968004 -0.250701 0.499700 0.945700
0 2.795100 -0.024300 42.993301 0.968004 -0.010800 -0.250701 0.617300 0.945700
0 4.105800 -0.024300 45.439400 0.845672 -0.281891 -0.453185 0.612600 0.999500
candle.jpg
0 4.105800 -0.024300 45.439400 0.845672 -0.281891 -0.453185 0.612600 0.999500
0 0.225000 -3.905100 45.439400 -0.281891 -0.845672 -0.453185 0.499700 0.999500
0 0.225000 -2.594400 42.993301 -0.010800 -0.968004 -0.250701 0.499700 0.945700
candle.jpg
0 2.795100 -0.024300 42.993301 0.968004 -0.010800 -0.250701 0.617300 0.945700
0 0.225000 2.545700 42.993301 0.010800 0.968004 -0.250701 0.499700 0.945700
0 0.225000 3.856400 45.439400 0.281891 0.845672 -0.453185 0.499700 0.999500
candle.jpg
0 0.225000 3.856400 45.439400 0.281891 0.845672 -0.453185 0.499700 0.999500
0 4.105800 -0.024300 45.439400 0.845672 -0.281891 -0.453185 0.612600 0.999500
0 2.795100 -0.024300 42.993301 0.968004 -0.010800 -0.250701 0.617300 0.945700
candle.jpg
0 0.225000 2.545700 42.993301 0.010800 0.968004 -0.250701 0.499700 0.945700
0 -2.345000 -0.024300 42.993301 -0.968004 0.010800 -0.250701 0.413600 0.945700
0 -3.655800 -0.024300 45.439400 -0.845672 0.281891 -0.453185 0.420300 0.999500
candle.jpg
0 -3.655800 -0.024300 45.439400 -0.845672 0.281891 -0.453185 0.420300 0.999500
0 0.225000 3.856400 45.439400 0.281891 0.845672 -0.453185 0.499700 0.999500
0 0.225000 2.545700 42.993301 0.010800 0.968004 -0.250701 0.499700 0.945700
candle.jpg
0 -2.345000 -0.024300 42.993301 -0.968004 0.010800 -0.250701 0.413600 0.945700
0 0.225000 -2.594400 42.993301 -0.010800 -0.968004 -0.250701 0.499700 0.945700
0 0.225000 -3.905100 45.439400 -0.281891 -0.845672 -0.453185 0.499700 0.999500
candle.jpg
0 0.225000 -3.905100 45.439400 -0.281891 -0.845672 -0.453185 0.499700 0.999500
0 -3.655800 -0.024300 45.439400 -0.845672 0.281891 -0.453185 0.420300 0.999500
0 -2.345000 -0.024300 42.993301 -0.968004 0.010800 -0.250701 0.413600 0.945700
candle.jpg
0 0.225000 -3.905100 45.439400 0.316198 -0.948693 0.000000 0.104900 0.000500
0 4.105800 -0.024300 45.439400 0.948693 0.316198 0.000000 0.206900 0.000500
0 4.105800 -0.024300 71.706596 0.707088 -0.235696 0.666689 0.208900 0.671000
candle.jpg
0 4.105800 -0.024300 71.706596 0.707088 -0.235696 0.666689 0.208900 0.671000
0 0.225000 -3.905100 71.706596 -0.288710 -0.866030 0.408214 0.106900 0.671000
0 0.225000 -3.905100 45.439400 0.316198 -0.948693 0.000000 0.104900 0.000500
candle.jpg
0 4.105800 -0.024300 45.439400 0.948693 0.316198 0.000000 0.206900 0.000500
0 0.225000 3.856400 45.439400 -0.316198 0.948693 0.000000 0.104900 0.000500
0 0.225000 3.856400 71.706596 0.288710 0.866030 0.408214 0.106900 0.671000
candle.jpg
0 0.225000 3.856400 71.706596 0.288710 0.866030 0.408214 0.106900 0.671000
0 4.105800 -0.024300 71.706596 0.707088 -0.235696 0.666689 0.208900 0.671000
0 4.105800 -0.024300 45.439400 0.948693 0.316198 0.000000 0.206900 0.000500
candle.jpg
0 0.225000 3.856400 45.439400 -0.316198 0.948693 0.000000 0.104900 0.000500
0 -3.655800 -0.024300 45.439400 -0.948693 -0.316198 0.000000 0.003000 0.000500
0 -3.655800 -0.024300 71.706596 -0.707088 0.235696 0.666689 0.004900 0.671000
candle.jpg
0 -3.655800 -0.024300 71.706596 -0.707088 0.235696 0.666689 0.004900 0.671000
0 0.225000 3.856400 71.706596 0.288710 0.866030 0.408214 0.106900 0.671000
0 0.225000 3.856400 45.439400 -0.316198 0.948693 0.000000 0.104900 0.000500
candle.jpg
0 -3.655800 -0.024300 45.439400 -0.948693 -0.316198 0.000000 0.003000 0.000500
0 0.225000 -3.905100 45.439400 0.316198 -0.948693 0.000000 0.104900 0.000500
0 0.225000 -3.905100 71.706596 -0.288710 -0.866030 0.408214 0.106900 0.671000
candle.jpg
0 0.225000 -3.905100 71.706596 -0.288710 -0.866030 0.408214 0.106900 0.671000
0 -3.655800 -0.024300 71.706596 -0.707088 0.235696 0.666689 0.004900 0.671000
0 -3.655800 -0.024300 45.439400 -0.948693 -0.316198 0.000000 0.003000 0.000500
candle.jpg
0 3.973800 -2.594400 27.407900 0.293201 -0.933704 -0.205501 0.593500 0.603000
0 17.938000 -0.024300 42.993301 0.850085 -0.007600 -0.526591 0.986300 0.921600
0 15.367900 -2.594400 42.993301 0.023801 -0.987422 -0.156304 0.878600 0.945700
candle.jpg
0 3.973800 -2.594400 27.407900 0.293201 -0.933704 -0.205501 0.593500 0.603000
0 5.791100 -0.024300 25.590700 0.783806 0.277802 -0.555404 0.631800 0.541300
0 17.938000 -0.024300 42.993301 0.850085 -0.007600 -0.526591 0.986300 0.921600
candle.jpg
0 5.791100 -0.024300 25.590700 0.783806 0.277802 -0.555404 0.631800 0.541300
0 15.367900 2.545700 42.993301 -0.019200 0.937298 -0.347999 0.878600 0.945700
0 17.938000 -0.024300 42.993301 0.850085 -0.007600 -0.526591 0.986300 0.921600
candle.jpg
0 5.791100 -0.024300 25.590700 0.783806 0.277802 -0.555404 0.631800 0.541300
0 3.973800 2.545700 27.407900 -0.282594 0.934280 0.217395 0.593500 0.603000
0 15.367900 2.545700 42.993301 -0.019200 0.937298 -0.347999 0.878600 0.945700
candle.jpg
0 3.973800 2.545700 27.407900 -0.282594 0.934280 0.217395 0.593500 0.603000
0 12.797900 -0.024300 42.993301 -0.996593 0.013300 0.081399 0.798500 0.967500
0 15.367900 2.545700 42.993301 -0.019200 0.937298 -0.347999 0.878600 0.945700
candle.jpg
0 3.973800 2.545700 27.407900 -0.282594 0.934280 0.217395 0.593500 0.603000
0 2.156500 -0.024300 29.225201 -0.766800 -0.270300 0.582200 0.530200 0.713000
0 12.797900 -0.024300 42.993301 -0.996593 0.013300 0.081399 0.798500 0.967500
candle.jpg
0 2.156500 -0.024300 29.225201 -0.766800 -0.270300 0.582200 0.530200 0.713000
0 15.367900 -2.594400 42.993301 0.023801 -0.987422 -0.156304 0.878600 0.945700
0 12.797900 -0.024300 42.993301 -0.996593 0.013300 0.081399 0.798500 0.967500
candle.jpg
0 2.156500 -0.024300 29.225201 -0.766800 -0.270300 0.582200 0.530200 0.713000
0 3.973800 -2.594400 27.407900 0.293201 -0.933704 -0.205501 0.593500 0.603000
0 15.367900 -2.594400 42.993301 0.023801 -0.987422 -0.156304 0.878600 0.945700
candle.jpg
0 19.248699 -0.024300 65.881599 0.707088 -0.235696 0.666689 0.390400 0.279700
0 15.367900 3.856400 65.881599 0.288710 0.866030 0.408214 0.317200 0.357600
0 11.487200 -0.024300 65.881599 -0.707088 0.235696 0.666689 0.244100 0.279700
candle.jpg
0 19.248699 -0.024300 65.881599 0.707088 -0.235696 0.666689 0.390400 0.279700
0 11.487200 -0.024300 65.881599 -0.707088 0.235696 0.666689 0.244100 0.279700
0 15.367900 -3.905100 65.881599 -0.288710 -0.866030 0.408214 0.317200 0.201900
candle.jpg
0 15.367900 -2.594400 42.993301 0.023801 -0.987422 -0.156304 0.878600 0.945700
0 17.938000 -0.024300 42.993301 0.850085 -0.007600 -0.526591 0.986300 0.921600
0 19.248699 -0.024300 45.439400 0.845672 -0.281891 -0.453185 0.975700 0.999500
candle.jpg
0 19.248699 -0.024300 45.439400 0.845672 -0.281891 -0.453185 0.975700 0.999500
0 15.367900 -3.905100 45.439400 -0.281891 -0.845672 -0.453185 0.878600 0.999500
0 15.367900 -2.594400 42.993301 0.023801 -0.987422 -0.156304 0.878600 0.945700
candle.jpg
0 17.938000 -0.024300 42.993301 0.850085 -0.007600 -0.526591 0.986300 0.921600
0 15.367900 2.545700 42.993301 -0.019200 0.937298 -0.347999 0.878600 0.945700
0 15.367900 3.856400 45.439400 0.281891 0.845672 -0.453185 0.878600 0.999500
candle.jpg
0 15.367900 3.856400 45.439400 0.281891 0.845672 -0.453185 0.878600 0.999500
0 19.248699 -0.024300 45.439400 0.845672 -0.281891 -0.453185 0.975700 0.999500
0 17.938000 -0.024300 42.993301 0.850085 -0.007600 -0.526591 0.986300 0.921600
candle.jpg
0 15.367900 2.545700 42.993301 -0.019200 0.937298 -0.347999 0.878600 0.945700
0 12.797900 -0.024300 42.993301 -0.996593 0.013300 0.081399 0.798500 0.967500
0 11.487200 -0.024300 45.439400 -0.845672 0.281891 -0.453185 0.781500 0.999500
candle.jpg
0 11.487200 -0.024300 45.439400 -0.845672 0.281891 -0.453185 0.781500 0.999500
0 15.367900 3.856400 45.439400 0.281891 0.845672 -0.453185 0.878600 0.999500
0 15.367900 2.545700 42.993301 -0.019200 0.937298 -0.347999 0.878600 0.945700
candle.jpg
0 12.797900 -0.024300 42.993301 -0.996593 0.013300 0.081399 0.798500 0.967500
0 15.367900 -2.594400 42.993301 0.023801 -0.987422 -0.156304 0.878600 0.945700
0 15.367900 -3.905100 45.439400 -0.281891 -0.845672 -0.453185 0.878600 0.999500
candle.jpg
0 15.367900 -3.905100 45.439400 -0.281891 -0.845672 -0.453185 0.878600 0.999500
0 11.487200 -0.024300 45.439400 -0.845672 0.281891 -0.453185 0.781500 0.999500
0 12.797900 -0.024300 42.993301 -0.996593 0.013300 0.081399 0.798500 0.967500
candle.jpg
0 15.367900 -3.905100 45.439400 0.316198 -0.948693 0.000000 0.110100 0.000500
0 19.248699 -0.024300 45.439400 0.948693 0.316198 0.000000 0.212100 0.000500
0 19.248699 -0.024300 65.881599 0.707088 -0.235696 0.666689 0.216000 0.674100
candle.jpg
0 19.248699 -0.024300 65.881599 0.707088 -0.235696 0.666689 0.216000 0.674100
0 15.367900 -3.905100 65.881599 -0.288710 -0.866030 0.408214 0.114000 0.674100
0 15.367900 -3.905100 45.439400 0.316198 -0.948693 0.000000 0.110100 0.000500
candle.jpg
0 19.248699 -0.024300 45.439400 0.948693 0.316198 0.000000 0.212100 0.000500
0 15.367900 3.856400 45.439400 -0.316198 0.948693 0.000000 0.110100 0.000500
0 15.367900 3.856400 65.881599 0.288710 0.866030 0.408214 0.114000 0.674100
candle.jpg
0 15.367900 3.856400 65.881599 0.288710 0.866030 0.408214 0.114000 0.674100
0 19.248699 -0.024300 65.881599 0.707088 -0.235696 0.666689 0.216000 0.674100
0 19.248699 -0.024300 45.439400 0.948693 0.316198 0.000000 0.212100 0.000500
candle.jpg
0 15.367900 3.856400 45.439400 -0.316198 0.948693 0.000000 0.110100 0.000500
0 11.487200 -0.024300 45.439400 -0.948693 -0.316198 0.000000 0.008100 0.000500
0 11.487200 -0.024300 65.881599 -0.707088 0.235696 0.666689 0.012100 0.674100
candle.jpg
0 11.487200 -0.024300 65.881599 -0.707088 0.235696 0.666689 0.012100 0.674100
0 15.367900 3.856400 65.881599 0.288710 0.866030 0.408214 0.114000 0.674100
0 15.367900 3.856400 45.439400 -0.316198 0.948693 0.000000 0.110100 0.000500
candle.jpg
0 11.487200 -0.024300 45.439400 -0.948693 -0.316198 0.000000 0.008100 0.000500
0 15.367900 -3.905100 45.439400 0.316198 -0.948693 0.000000 0.110100 0.000500
0 15.367900 -3.905100 65.881599 -0.288710 -0.866030 0.408214 0.114000 0.674100
candle.jpg
0 15.367900 -3.905100 65.881599 -0.288710 -0.866030 0.408214 0.114000 0.674100
0 11.487200 -0.024300 65.881599 -0.707088 0.235696 0.666689 0.012100 0.674100
0 11.487200 -0.024300 45.439400 -0.948693 -0.316198 0.000000 0.008100 0.000500
candle.jpg
0 -3.497400 -2.594400 27.407900 -0.293201 -0.933704 -0.205501 0.406500 0.603000
0 -14.891600 -2.594400 42.993301 -0.023801 -0.987422 -0.156304 0.121400 0.945700
0 -17.461599 -0.024300 42.993301 -0.850085 -0.007600 -0.526591 0.041300 0.943300
candle.jpg
0 -3.497400 -2.594400 27.407900 -0.293201 -0.933704 -0.205501 0.406500 0.603000
0 -17.461599 -0.024300 42.993301 -0.850085 -0.007600 -0.526591 0.041300 0.943300
0 -5.314700 -0.024300 25.590700 -0.783806 0.277802 -0.555404 0.377300 0.548600
candle.jpg
0 -5.314700 -0.024300 25.590700 -0.783806 0.277802 -0.555404 0.377300 0.548600
0 -17.461599 -0.024300 42.993301 -0.850085 -0.007600 -0.526591 0.041300 0.943300
0 -14.891600 2.545700 42.993301 0.019200 0.937298 -0.347999 0.121400 0.945700
candle.jpg
0 -5.314700 -0.024300 25.590700 -0.783806 0.277802 -0.555404 0.377300 0.548600
0 -14.891600 2.545700 42.993301 0.019200 0.937298 -0.347999 0.121400 0.945700
0 -3.497400 2.545700 27.407900 0.282594 0.934280 0.217395 0.406500 0.603000
candle.jpg
0 -3.497400 2.545700 27.407900 0.282594 0.934280 0.217395 0.406500 0.603000
0 -14.891600 2.545700 42.993301 0.019200 0.937298 -0.347999 0.121400 0.945700
0 -12.321500 -0.024300 42.993301 0.996593 0.013300 0.081399 0.223200 0.965000
candle.jpg
0 -3.497400 2.545700 27.407900 0.282594 0.934280 0.217395 0.406500 0.603000
0 -12.321500 -0.024300 42.993301 0.996593 0.013300 0.081399 0.223200 0.965000
0 -1.680100 -0.024300 29.225201 0.766800 -0.270300 0.582200 0.463800 0.708200
candle.jpg
0 -1.680100 -0.024300 29.225201 0.766800 -0.270300 0.582200 0.463800 0.708200
0 -12.321500 -0.024300 42.993301 0.996593 0.013300 0.081399 0.223200 0.965000
0 -14.891600 -2.594400 42.993301 -0.023801 -0.987422 -0.156304 0.121400 0.945700
candle.jpg
0 -1.680100 -0.024300 29.225201 0.766800 -0.270300 0.582200 0.463800 0.708200
0 -14.891600 -2.594400 42.993301 -0.023801 -0.987422 -0.156304 0.121400 0.945700
0 -3.497400 -2.594400 27.407900 -0.293201 -0.933704 -0.205501 0.406500 0.603000
candle.jpg
0 -18.772301 -0.024300 65.881599 -0.707088 -0.235696 0.666689 0.242800 0.278000
0 -11.010800 -0.024300 65.881599 0.707088 0.235696 0.666689 0.389200 0.278000
0 -14.891600 3.856400 65.881599 -0.288710 0.866030 0.408214 0.316000 0.355800
candle.jpg
0 -18.772301 -0.024300 65.881599 -0.707088 -0.235696 0.666689 0.242800 0.278000
0 -14.891600 -3.905100 65.881599 0.288710 -0.866030 0.408214 0.316000 0.200200
0 -11.010800 -0.024300 65.881599 0.707088 0.235696 0.666689 0.389200 0.278000
candle.jpg
0 -14.891600 -2.594400 42.993301 -0.023801 -0.987422 -0.156304 0.121400 0.945700
0 -18.772301 -0.024300 45.439400 -0.845672 -0.281891 -0.453185 0.024300 0.999500
0 -17.461599 -0.024300 42.993301 -0.850085 -0.007600 -0.526591 0.041300 0.943300
candle.jpg
0 -18.772301 -0.024300 45.439400 -0.845672 -0.281891 -0.453185 0.024300 0.999500
0 -14.891600 -2.594400 42.993301 -0.023801 -0.987422 -0.156304 0.121400 0.945700
0 -14.891600 -3.905100 45.439400 0.281891 -0.845672 -0.453185 0.121400 0.999500
candle.jpg
0 -17.461599 -0.024300 42.993301 -0.850085 -0.007600 -0.526591 0.041300 0.943300
0 -14.891600 3.856400 45.439400 -0.281891 0.845672 -0.453185 0.121400 0.999500
0 -14.891600 2.545700 42.993301 0.019200 0.937298 -0.347999 0.121400 0.945700
candle.jpg
0 -14.891600 3.856400 45.439400 -0.281891 0.845672 -0.453185 0.121400 0.999500
0 -17.461599 -0.024300 42.993301 -0.850085 -0.007600 -0.526591 0.041300 0.943300
0 -18.772301 -0.024300 45.439400 -0.845672 -0.281891 -0.453185 0.024300 0.999500
candle.jpg
0 -14.891600 2.545700 42.993301 0.019200 0.937298 -0.347999 0.121400 0.945700
0 -11.010800 -0.024300 45.439400 0.845672 0.281891 -0.453185 0.218500 0.999500
0 -12.321500 -0.024300 42.993301 0.996593 0.013300 0.081399 0.223200 0.965000
candle.jpg
0 -11.010800 -0.024300 45.439400 0.845672 0.281891 -0.453185 0.218500 0.999500
0 -14.891600 2.545700 42.993301 0.019200 0.937298 -0.347999 0.121400 0.945700
0 -14.891600 3.856400 45.439400 -0.281891 0.845672 -0.453185 0.121400 0.999500
candle.jpg
0 -12.321500 -0.024300 42.993301 0.996593 0.013300 0.081399 0.223200 0.965000
0 -14.891600 -3.905100 45.439400 0.281891 -0.845672 -0.453185 0.121400 0.999500
0 -14.891600 -2.594400 42.993301 -0.023801 -0.987422 -0.156304 0.121400 0.945700
candle.jpg
0 -14.891600 -3.905100 45.439400 0.281891 -0.845672 -0.453185 0.121400 0.999500
0 -12.321500 -0.024300 42.993301 0.996593 0.013300 0.081399 0.223200 0.965000
0 -11.010800 -0.024300 45.439400 0.845672 0.281891 -0.453185 0.218500 0.999500
candle.jpg
0 -14.891600 -3.905100 45.439400 -0.316198 -0.948693 0.000000 0.102500 0.000500
0 -18.772301 -0.024300 65.881599 -0.707088 -0.235696 0.666689 0.004400 0.674100
0 -18.772301 -0.024300 45.439400 -0.948693 0.316198 0.000000 0.000500 0.000500
candle.jpg
0 -18.772301 -0.024300 65.881599 -0.707088 -0.235696 0.666689 0.004400 0.674100
0 -14.891600 -3.905100 45.439400 -0.316198 -0.948693 0.000000 0.102500 0.000500
0 -14.891600 -3.905100 65.881599 0.288710 -0.866030 0.408214 0.106400 0.674100
candle.jpg
0 -18.772301 -0.024300 45.439400 -0.948693 0.316198 0.000000 0.000500 0.000500
0 -14.891600 3.856400 65.881599 -0.288710 0.866030 0.408214 0.106400 0.674100
0 -14.891600 3.856400 45.439400 0.316198 0.948693 0.000000 0.102500 0.000500
candle.jpg
0 -14.891600 3.856400 65.881599 -0.288710 0.866030 0.408214 0.106400 0.674100
0 -18.772301 -0.024300 45.439400 -0.948693 0.316198 0.000000 0.000500 0.000500
0 -18.772301 -0.024300 65.881599 -0.707088 -0.235696 0.666689 0.004400 0.674100
candle.jpg
0 -14.891600 3.856400 45.439400 0.316198 0.948693 0.000000 0.102500 0.000500
0 -11.010800 -0.024300 65.881599 0.707088 0.235696 0.666689 0.208400 0.674100
0 -11.010800 -0.024300 45.439400 0.948693 -0.316198 0.000000 0.204400 0.000500
candle.jpg
0 -11.010800 -0.024300 65.881599 0.707088 0.235696 0.666689 0.208400 0.674100
0 -14.891600 3.856400 45.439400 0.316198 0.948693 0.000000 0.102500 0.000500
0 -14.891600 3.856400 65.881599 -0.288710 0.866030 0.408214 0.106400 0.674100
candle.jpg
0 -11.010800 -0.024300 45.439400 0.948693 -0.316198 0.000000 0.204400 0.000500
0 -14.891600 -3.905100 65.881599 0.288710 -0.866030 0.408214 0.106400 0.674100
0 -14.891600 -3.905100 45.439400 -0.316198 -0.948693 0.000000 0.102500 0.000500
candle.jpg
0 -14.891600 -3.905100 65.881599 0.288710 -0.866030 0.408214 0.106400 0.674100
0 -11.010800 -0.024300 45.439400 0.948693 -0.316198 0.000000 0.204400 0.000500
0 -11.010800 -0.024300 65.881599 0.707088 0.235696 0.666689 0.208400 0.674100
candle2.jpg
4 10.960500 0.006800 66.394096 0.000000 -1.000000 -0.000200 0.013000 0.184100
4 19.348600 0.006800 66.394096 0.000000 -1.000000 -0.000200 0.987700 0.184100
4 15.155400 0.003900 81.772202 0.000000 -1.000000 -0.000200 0.498400 0.997200
candle2.jpg
4 15.145900 3.791900 66.394096 -1.000000 0.000000 0.000600 0.006400 0.138200
4 15.145900 -4.596200 66.394096 -1.000000 0.000000 0.000600 1.005400 0.138200
4 15.155400 0.003900 81.772202 -1.000000 0.000000 0.000600 0.504900 1.004500
candle2.jpg
2 -4.194300 0.006800 71.690300 0.000000 -1.000000 -0.000200 0.014100 0.186400
2 4.193700 0.006800 71.690300 0.000000 -1.000000 -0.000200 0.988700 0.186400
2 0.000600 0.003900 87.068298 0.000000 -1.000000 -0.000200 0.499400 0.999500
candle2.jpg
2 -0.009000 3.791900 71.690300 -1.000000 0.000000 0.000600 0.006400 0.138100
2 -0.009000 -4.596200 71.690300 -1.000000 0.000000 0.000600 1.007400 0.138100
2 0.000600 0.003900 87.068298 -1.000000 0.000000 0.000600 0.503000 1.004300
candle2.jpg
6 -19.321301 0.006800 65.773804 0.000000 -1.000000 -0.000200 0.012300 0.184100
6 -11.014200 0.006800 66.936302 0.000000 -1.000000 -0.000200 0.987000 0.184100
6 -17.298100 0.003900 81.584801 0.000000 -1.000000 -0.000200 0.497700 0.997200
candle2.jpg
6 -15.176300 3.791900 66.353798 -0.990432 0.000000 -0.138004 0.006400 0.138200
6 -15.176300 -4.596200 66.353798 -0.990432 0.000000 -0.138004 1.005400 0.138200
6 -17.298100 0.003900 81.584801 -0.990432 0.000000 -0.138004 0.504900 1.004500
end
