version 1
nodes
0 "ihix01" -1
1 "Box03" -1
2 "Mesh03" -1
end
skeleton
time 0
0 36.774452 -35.189026 -0.000050 0.000000 0.000000 1.570796
1 -83.752708 403.725861 66.306488 0.000000 0.000000 0.000000
2 -41.130951 1478.354736 41.099430 0.000000 0.000000 0.000000
end
triangles
tile_wood02.jpg
0 90.112801 -193.901398 303.837189 0.000000 0.000000 1.000000 -0.279200 -0.279200
0 90.112801 194.467300 303.837189 0.000000 0.000000 1.000000 1.279200 -0.279200
0 -189.759003 194.467300 303.837189 0.000000 0.000000 1.000000 1.279200 1.279200
tile_wood02.jpg
0 -189.759003 194.467300 303.837189 0.000000 0.000000 1.000000 1.279200 1.279200
0 -189.759003 -193.901398 303.837189 0.000000 0.000000 1.000000 -0.279200 1.279200
0 90.112801 -193.901398 303.837189 0.000000 0.000000 1.000000 -0.279200 -0.279200
tile_ston04.jpg
0 -5.168201 399.450592 0.818900 0.000000 1.000000 0.000000 0.486900 0.058700
0 -203.161896 399.450592 0.818900 0.000000 1.000000 0.000000 -0.424600 0.058700
0 -203.161804 399.450592 130.557098 0.000000 1.000000 0.000000 -0.424600 0.793100
tile_ston04.jpg
0 -203.161804 399.450592 130.557098 0.000000 1.000000 0.000000 -0.424600 0.793100
0 -5.168301 399.450592 130.557098 0.000000 1.000000 0.000000 0.486900 0.793100
0 -5.168201 399.450592 0.818900 0.000000 1.000000 0.000000 0.486900 0.058700
tile_ston04.jpg
0 -302.532196 300.234894 -0.000100 -1.000000 0.000000 0.000000 1.828800 0.000500
0 -302.532196 -299.570892 0.000000 -1.000000 0.000000 0.000000 -1.355500 0.000500
0 -302.532196 -299.570892 157.553604 -1.000000 0.000000 0.000000 -1.355500 0.999500
tile_ston04.jpg
0 -302.532196 -299.570892 157.553604 -1.000000 0.000000 0.000000 -1.355500 0.999500
0 -302.532196 300.234894 157.553604 -1.000000 0.000000 0.000000 1.828800 0.999500
0 -302.532196 300.234894 -0.000100 -1.000000 0.000000 0.000000 1.828800 0.000500
tile_ston04.jpg
0 -302.532196 -299.570892 0.000000 0.000000 -1.000000 0.000000 -0.882000 0.054000
0 297.769012 -299.570892 0.000000 0.000000 -1.000000 0.000000 1.881500 0.054000
0 144.617493 -299.570892 157.553604 0.000000 -1.000000 0.000000 1.176500 0.946000
tile_ston04.jpg
0 144.617493 -299.570892 157.553604 0.000000 -1.000000 0.000000 1.176500 0.946000
0 -302.532196 -299.570892 157.553604 0.000000 -1.000000 0.000000 -0.882000 0.946000
0 -302.532196 -299.570892 0.000000 0.000000 -1.000000 0.000000 -0.882000 0.054000
tile_ston04.jpg
0 297.769012 300.234802 -0.000100 0.000000 1.000000 0.000000 1.881500 0.054000
0 144.617493 300.234894 157.553604 0.000000 1.000000 0.000000 1.176500 0.946000
0 237.125580 300.234894 110.368797 0.000000 1.000000 0.000000 1.602300 0.678900
tile_ston04.jpg
0 297.769012 -299.570892 0.000000 0.000000 -1.000000 0.000000 1.881500 0.054000
0 237.125580 -299.570892 110.368797 0.000000 -1.000000 0.000000 1.602300 0.678900
0 144.617493 -299.570892 157.553604 0.000000 -1.000000 0.000000 1.176500 0.946000
tile_ston04.jpg
0 -244.127106 248.999603 157.553604 0.000000 0.000000 1.000000 1.572700 1.542000
0 144.617493 248.999603 157.553604 0.000000 0.000000 1.000000 1.572700 -0.133200
0 144.617493 300.234894 157.553604 0.000000 0.000000 1.000000 1.793700 -0.133200
tile_ston04.jpg
0 144.617493 300.234894 157.553604 0.000000 0.000000 1.000000 1.793700 -0.133200
0 -302.532196 300.234894 157.553604 0.000000 0.000000 1.000000 1.793700 1.793700
0 -244.127106 248.999603 157.553604 0.000000 0.000000 1.000000 1.572700 1.542000
tile_ston04.jpg
0 144.617493 -248.433701 157.553604 0.000000 0.000000 1.000000 -0.573100 -0.133200
0 -244.127106 -248.433701 157.553604 0.000000 0.000000 1.000000 -0.573100 1.542000
0 -302.532196 -299.570892 157.553604 0.000000 0.000000 1.000000 -0.793700 1.793700
tile_ston04.jpg
0 -302.532196 -299.570892 157.553604 0.000000 0.000000 1.000000 -0.793700 1.793700
0 144.617493 -299.570892 157.553604 0.000000 0.000000 1.000000 -0.793700 -0.133200
0 144.617493 -248.433701 157.553604 0.000000 0.000000 1.000000 -0.573100 -0.133200
tile_ston04.jpg
0 297.876404 248.999603 110.368797 1.000000 -0.000100 -0.001000 1.556800 0.700300
0 297.761810 248.999603 -0.000100 1.000000 -0.000100 -0.001000 1.556800 0.000500
0 297.769012 300.234802 -0.000100 1.000000 -0.000100 -0.001000 1.828800 0.000500
tile_ston04.jpg
0 297.769012 300.234802 -0.000100 1.000000 0.000000 -0.001000 1.828800 0.000500
0 297.876404 300.234894 110.368797 1.000000 0.000000 -0.001000 1.828800 0.700300
0 297.876404 248.999603 110.368797 1.000000 0.000000 -0.001000 1.556800 0.700300
tile_ston04.jpg
0 297.761810 -248.433701 0.000000 1.000000 0.000000 -0.001000 -1.084100 0.000500
0 297.876404 -248.433701 110.368797 1.000000 0.000000 -0.001000 -1.084100 0.700300
0 297.876404 -299.570892 110.368797 1.000000 0.000000 -0.001000 -1.355500 0.700300
tile_ston04.jpg
0 297.876404 -299.570892 110.368797 1.000000 0.000100 -0.001000 -1.355500 0.700300
0 297.769012 -299.570892 0.000000 1.000000 0.000100 -0.001000 -1.355500 0.000500
0 297.761810 -248.433701 0.000000 1.000000 0.000100 -0.001000 -1.084100 0.000500
tile_ston04.jpg
0 237.125580 -248.433701 110.368797 0.454399 0.000000 0.890798 -0.573100 -0.531900
0 144.617493 -248.433701 157.553604 0.454399 0.000000 0.890798 -0.573100 -0.133200
0 144.617493 -299.570892 157.553604 0.454399 0.000000 0.890798 -0.793700 -0.133200
tile_ston04.jpg
0 144.617493 -299.570892 157.553604 0.454399 0.000000 0.890798 -0.793700 -0.133200
0 237.125580 -299.570892 110.368797 0.454399 0.000000 0.890798 -0.793700 -0.531900
0 237.125580 -248.433701 110.368797 0.454399 0.000000 0.890798 -0.573100 -0.531900
tile_ston04.jpg
0 144.617493 248.999603 157.553604 0.454399 0.000000 0.890798 1.572700 -0.133200
0 237.125580 248.999603 110.368797 0.454399 0.000000 0.890798 1.572700 -0.531900
0 237.125580 300.234894 110.368797 0.454399 0.000000 0.890798 1.793700 -0.531900
tile_ston04.jpg
0 237.125580 300.234894 110.368797 0.454399 0.000000 0.890798 1.793700 -0.531900
0 144.617493 300.234894 157.553604 0.454399 0.000000 0.890798 1.793700 -0.133200
0 144.617493 248.999603 157.553604 0.454399 0.000000 0.890798 1.572700 -0.133200
tile_ston04.jpg
0 144.617493 -248.433701 157.553604 0.000000 1.000000 0.000000 1.176500 0.946000
0 237.125580 -248.433701 110.368797 0.000000 1.000000 0.000000 1.602300 0.678900
0 297.761810 -248.433701 0.000000 0.000000 1.000000 0.000000 1.881500 0.054000
tile_ston04.jpg
0 237.125580 248.999603 110.368797 0.000000 -1.000000 0.000000 1.602300 0.678900
0 144.617493 248.999603 157.553604 0.000000 -1.000000 0.000000 1.176500 0.946000
0 297.761810 248.999603 -0.000100 0.000000 -1.000000 0.000000 1.881500 0.054000
tile_ston04.jpg
0 144.617493 -248.433701 157.553604 0.000000 1.000000 0.000000 1.176500 0.946000
0 297.761810 -248.433701 0.000000 0.000000 1.000000 0.000000 1.881500 0.054000
0 144.617493 -248.433701 0.000000 0.000000 1.000000 0.000000 1.176500 0.054000
tile_ston04.jpg
0 144.617493 248.999603 157.553604 0.000000 -1.000000 0.000000 1.176500 0.946000
0 144.617493 248.999603 -0.000100 0.000000 -1.000000 0.000000 1.176500 0.054000
0 297.761810 248.999603 -0.000100 0.000000 -1.000000 0.000000 1.881500 0.054000
tile_ston04.jpg
0 -244.127106 -248.433701 157.553604 0.000000 0.000000 1.000000 -0.573100 1.542000
0 -244.127106 248.999603 157.553604 0.000000 0.000000 1.000000 1.572700 1.542000
0 -302.532196 300.234894 157.553604 0.000000 0.000000 1.000000 1.793700 1.793700
tile_ston04.jpg
0 -302.532196 300.234894 157.553604 0.000000 0.000000 1.000000 1.793700 1.793700
0 -302.532196 -299.570892 157.553604 0.000000 0.000000 1.000000 -0.793700 1.793700
0 -244.127106 -248.433701 157.553604 0.000000 0.000000 1.000000 -0.573100 1.542000
tile_ston04.jpg
0 297.769012 300.234802 -0.000100 0.000000 1.000000 0.000000 1.881500 0.054000
0 237.125580 300.234894 110.368797 0.000000 1.000000 0.000000 1.602300 0.678900
0 297.876404 300.234894 110.368797 0.000000 1.000000 0.000000 1.882000 0.678900
tile_ston04.jpg
0 297.769012 -299.570892 0.000000 0.000000 -1.000000 0.000000 1.881500 0.054000
0 297.876404 -299.570892 110.368797 0.000000 -1.000000 0.000000 1.882000 0.678900
0 237.125580 -299.570892 110.368797 0.000000 -1.000000 0.000000 1.602300 0.678900
tile_ston04.jpg
0 297.761810 248.999603 -0.000100 0.000000 -1.000000 0.000000 1.881500 0.054000
0 297.876404 248.999603 110.368797 0.000000 -1.000000 0.000000 1.882000 0.678900
0 237.125580 248.999603 110.368797 0.000000 -1.000000 0.000000 1.602300 0.678900
tile_ston04.jpg
0 237.125580 300.234894 110.368797 0.000000 0.000000 1.000000 1.793700 -0.531900
0 237.125580 248.999603 110.368797 0.000000 0.000000 1.000000 1.572700 -0.531900
0 297.876404 248.999603 110.368797 0.000000 0.000000 1.000000 1.572700 -0.793700
tile_ston04.jpg
0 297.876404 248.999603 110.368797 0.000000 0.000000 1.000000 1.572700 -0.793700
0 297.876404 300.234894 110.368797 0.000000 0.000000 1.000000 1.793700 -0.793700
0 237.125580 300.234894 110.368797 0.000000 0.000000 1.000000 1.793700 -0.531900
tile_ston04.jpg
0 297.761810 -248.433701 0.000000 0.000000 1.000000 0.000000 1.881500 0.054000
0 237.125580 -248.433701 110.368797 0.000000 1.000000 0.000000 1.602300 0.678900
0 297.876404 -248.433701 110.368797 0.000000 1.000000 0.000000 1.882000 0.678900
tile_ston04.jpg
0 237.125580 -248.433701 110.368797 0.000000 0.000000 1.000000 -0.573100 -0.531900
0 237.125580 -299.570892 110.368797 0.000000 0.000000 1.000000 -0.793700 -0.531900
0 297.876404 -299.570892 110.368797 0.000000 0.000000 1.000000 -0.793700 -0.793700
tile_ston04.jpg
0 297.876404 -299.570892 110.368797 0.000000 0.000000 1.000000 -0.793700 -0.793700
0 297.876404 -248.433701 110.368797 0.000000 0.000000 1.000000 -0.573100 -0.793700
0 237.125580 -248.433701 110.368797 0.000000 0.000000 1.000000 -0.573100 -0.531900
tile_ston04.jpg
0 297.769012 300.234802 -0.000100 0.000000 0.997303 -0.073400 1.881500 0.054000
0 -302.532196 300.234894 -0.000100 0.000000 0.997303 -0.073400 -0.882000 0.054000
0 -203.161896 300.295105 0.818900 0.000000 0.997303 -0.073400 -0.424600 0.058700
tile_ston04.jpg
0 -203.161896 300.295105 0.818900 0.000000 0.997303 -0.073400 -0.424600 0.058700
0 -5.168201 300.295105 0.818900 0.000000 0.997303 -0.073400 0.486900 0.058700
0 297.769012 300.234802 -0.000100 0.000000 0.997303 -0.073400 1.881500 0.054000
tile_ston04.jpg
0 -302.532196 300.234894 -0.000100 -0.000600 1.000000 0.000000 -0.882000 0.054000
0 -302.532196 300.234894 157.553604 -0.000600 1.000000 0.000000 -0.882000 0.946000
0 -203.161804 300.295105 130.557098 -0.000600 1.000000 0.000000 -0.424600 0.793100
tile_ston04.jpg
0 -203.161804 300.295105 130.557098 -0.000600 1.000000 0.000000 -0.424600 0.793100
0 -203.161896 300.295105 0.818900 -0.000600 1.000000 0.000000 -0.424600 0.058700
0 -302.532196 300.234894 -0.000100 -0.000600 1.000000 0.000000 -0.882000 0.054000
tile_ston04.jpg
0 -302.532196 300.234894 157.553604 -0.000000 0.999998 0.002200 -0.882000 0.946000
0 144.617493 300.234894 157.553604 -0.000000 0.999998 0.002200 1.176500 0.946000
0 -5.168301 300.295105 130.557098 -0.000000 0.999998 0.002200 0.486900 0.793100
tile_ston04.jpg
0 -5.168301 300.295105 130.557098 -0.000000 0.999998 0.002200 0.486900 0.793100
0 -203.161804 300.295105 130.557098 -0.000000 0.999998 0.002200 -0.424600 0.793100
0 -302.532196 300.234894 157.553604 -0.000000 0.999998 0.002200 -0.882000 0.946000
tile_ston04.jpg
0 144.617493 300.234894 157.553604 0.000200 1.000000 0.000200 1.176500 0.946000
0 297.769012 300.234802 -0.000100 0.000200 1.000000 0.000200 1.881500 0.054000
0 -5.168201 300.295105 0.818900 0.000200 1.000000 0.000200 0.486900 0.058700
tile_ston04.jpg
0 -5.168201 300.295105 0.818900 0.000400 1.000000 0.000000 0.486900 0.058700
0 -5.168301 300.295105 130.557098 0.000400 1.000000 0.000000 0.486900 0.793100
0 144.617493 300.234894 157.553604 0.000400 1.000000 0.000000 1.176500 0.946000
tile_ston04.jpg
0 -203.161896 300.295105 0.818900 -1.000000 0.000000 0.000000 1.829100 0.005700
0 -203.161804 300.295105 130.557098 -1.000000 0.000000 0.000000 1.829100 0.828300
0 -203.161804 399.450592 130.557098 -1.000000 0.000000 0.000000 2.355500 0.828300
tile_ston04.jpg
0 -203.161804 399.450592 130.557098 -1.000000 0.000000 0.000000 2.355500 0.828300
0 -203.161896 399.450592 0.818900 -1.000000 0.000000 0.000000 2.355500 0.005700
0 -203.161896 300.295105 0.818900 -1.000000 0.000000 0.000000 1.829100 0.005700
tile_ston04.jpg
0 -5.168301 300.295105 130.557098 1.000000 0.000000 0.000000 1.829100 0.828300
0 -5.168201 300.295105 0.818900 1.000000 0.000000 0.000000 1.829100 0.005700
0 -5.168201 399.450592 0.818900 1.000000 0.000000 0.000000 2.355500 0.005700
tile_ston04.jpg
0 -5.168201 399.450592 0.818900 1.000000 0.000000 0.000000 2.355500 0.005700
0 -5.168301 399.450592 130.557098 1.000000 0.000000 0.000000 2.355500 0.828300
0 -5.168301 300.295105 130.557098 1.000000 0.000000 0.000000 1.829100 0.828300
c_wall04.jpg
0 144.636505 37.927299 179.154404 1.000000 0.000100 0.000100 0.694800 0.607000
0 144.617493 248.999603 157.553604 1.000000 0.000100 0.000100 1.606400 0.502500
0 144.636505 13.664799 205.658707 1.000000 0.000100 0.000100 0.590000 0.735200
c_wall04.jpg
0 144.617493 248.999603 286.791412 1.000000 0.000100 0.000000 1.606400 1.127500
0 144.636505 13.664799 205.658707 1.000000 0.000100 0.000000 0.590000 0.735200
0 144.617493 248.999603 157.553604 1.000000 0.000100 0.000000 1.606400 0.502500
c_wall04.jpg
0 144.617493 248.999603 157.553604 0.000000 1.000000 0.000000 0.958600 0.456400
0 -244.127106 248.999603 157.553604 0.000000 1.000000 0.000000 -0.998900 0.456400
0 -244.127106 248.999603 286.791412 0.000000 1.000000 0.000000 -0.998900 1.141500
c_wall04.jpg
0 -244.127106 248.999603 286.791412 0.000000 1.000000 0.000000 -0.998900 1.141500
0 144.617493 248.999603 286.791412 0.000000 1.000000 0.000000 0.958600 1.141500
0 144.617493 248.999603 157.553604 0.000000 1.000000 0.000000 0.958600 0.456400
c_wall04.jpg
0 -244.127106 248.999603 157.553604 -1.000000 0.000000 0.000000 1.606400 0.502500
0 -244.127106 -248.433701 157.553604 -1.000000 0.000000 0.000000 -0.542100 0.502500
0 -244.127106 -248.433701 286.791412 -1.000000 0.000000 0.000000 -0.542100 1.127500
c_wall04.jpg
0 -244.127106 -248.433701 286.791412 -1.000000 0.000000 0.000000 -0.542100 1.127500
0 -244.127106 248.999603 286.791412 -1.000000 0.000000 0.000000 1.606400 1.127500
0 -244.127106 248.999603 157.553604 -1.000000 0.000000 0.000000 1.606400 0.502500
c_wall04.jpg
0 -244.127106 -248.433701 157.553604 0.000000 -1.000000 0.000000 -0.998900 0.456400
0 144.617493 -248.433701 157.553604 0.000000 -1.000000 0.000000 0.958600 0.456400
0 144.617493 -248.433701 286.791412 0.000000 -1.000000 0.000000 0.958600 1.141500
c_wall04.jpg
0 144.617493 -248.433701 286.791412 0.000000 -1.000000 0.000000 0.958600 1.141500
0 -244.127106 -248.433701 286.791412 0.000000 -1.000000 0.000000 -0.998900 1.141500
0 -244.127106 -248.433701 157.553604 0.000000 -1.000000 0.000000 -0.998900 0.456400
c_wall04.jpg
0 144.617493 248.999603 157.553604 1.000000 0.000100 0.000000 1.606400 0.502500
0 144.636505 37.927299 179.154404 1.000000 0.000100 0.000000 0.694800 0.607000
0 144.617493 248.999603 -0.000100 1.000000 0.000100 0.000000 1.606400 -0.259400
c_wall04.jpg
0 144.617493 248.999603 286.791412 1.000000 0.000000 0.000100 1.606400 1.127500
0 144.636505 -33.153198 221.411194 1.000000 0.000000 0.000100 0.387800 0.811300
0 144.636505 13.664799 205.658707 1.000000 0.000000 0.000100 0.590000 0.735200
c_wall04.jpg
0 144.636505 -33.153198 221.411194 1.000000 0.000000 0.000100 0.387800 0.811300
0 144.617493 -248.433701 286.791412 1.000000 0.000000 0.000100 -0.542100 1.127500
0 144.636505 -79.971199 205.658707 1.000000 0.000000 0.000100 0.185600 0.735200
c_wall04.jpg
0 144.617493 -248.433701 157.553604 1.000000 -0.000100 0.000000 -0.542100 0.502500
0 144.636505 -79.971199 205.658707 1.000000 -0.000100 0.000000 0.185600 0.735200
0 144.617493 -248.433701 286.791412 1.000000 -0.000100 0.000000 -0.542100 1.127500
c_wall04.jpg
0 144.617493 -248.433701 0.000000 1.000000 -0.000100 0.000000 -0.542100 -0.259400
0 144.636505 -104.241302 179.154404 1.000000 -0.000100 0.000000 0.080700 0.607000
0 144.617493 -248.433701 157.553604 1.000000 -0.000100 0.000000 -0.542100 0.502500
c_wall04.jpg
0 144.617493 248.999603 286.791412 1.000000 0.000000 0.000300 1.606400 1.127500
0 144.617493 -248.433701 286.791412 1.000000 0.000000 0.000300 -0.542100 1.127500
0 144.636505 -33.153198 221.411194 1.000000 0.000000 0.000300 0.387800 0.811300
c_wall04.jpg
0 144.617493 -248.433701 157.553604 1.000000 -0.000200 0.000100 -0.542100 0.502500
0 144.636505 -104.241302 179.154404 1.000000 -0.000200 0.000100 0.080700 0.607000
0 144.636505 -79.971199 205.658707 1.000000 -0.000200 0.000100 0.185600 0.735200
c_wall04.jpg
0 144.617493 -248.433701 0.000000 1.000000 -0.000100 0.000000 -0.542100 -0.259400
0 144.636505 -104.295601 -0.151200 1.000000 -0.000100 0.000000 0.080500 -0.260100
0 144.636505 -104.241302 179.154404 1.000000 -0.000100 0.000000 0.080700 0.607000
c_wall04.jpg
0 144.636505 37.925201 -0.108900 1.000000 0.000100 0.000000 0.694800 -0.259900
0 144.617493 248.999603 -0.000100 1.000000 0.000100 0.000000 1.606400 -0.259400
0 144.636505 37.927299 179.154404 1.000000 0.000100 0.000000 0.694800 0.607000
c_wall04.jpg
0 144.636505 13.664799 205.658707 -0.000000 -0.737619 -0.675217 0.539800 0.808000
0 101.219200 37.927200 179.154404 -0.000000 -0.877854 -0.478929 0.321200 0.667500
0 144.636505 37.927299 179.154404 0.000000 -0.970897 -0.239499 0.539800 0.667500
c_wall04.jpg
0 101.219101 13.664799 205.658707 -0.000000 -0.737619 -0.675217 0.321200 0.808000
0 101.219200 37.927200 179.154404 -0.000000 -0.877854 -0.478929 0.321200 0.667500
0 144.636505 13.664799 205.658707 -0.000000 -0.737619 -0.675217 0.539800 0.808000
c_wall04.jpg
0 144.636505 -104.241302 179.154404 -0.000000 0.877746 -0.479125 0.539800 0.667500
0 101.219101 -79.971199 205.658707 -0.000000 0.737523 -0.675322 0.321200 0.808000
0 144.636505 -79.971199 205.658707 -0.000000 0.737523 -0.675322 0.539800 0.808000
c_wall04.jpg
0 101.219101 -104.241302 179.154404 0.000200 0.970850 -0.239688 0.321200 0.667500
0 101.219101 -79.971199 205.658707 -0.000000 0.737523 -0.675322 0.321200 0.808000
0 144.636505 -104.241302 179.154404 -0.000000 0.877746 -0.479125 0.539800 0.667500
c_wall04.jpg
0 144.636505 -104.295601 -0.151200 0.000200 1.000000 -0.000200 0.539800 -0.283000
0 101.219101 -104.241302 179.154404 0.000200 0.970850 -0.239688 0.321200 0.667500
0 144.636505 -104.241302 179.154404 -0.000000 0.877746 -0.479125 0.539800 0.667500
c_wall04.jpg
0 101.219101 -104.275597 -0.081000 0.000500 1.000000 -0.000200 0.321200 -0.282600
0 101.219101 -104.241302 179.154404 0.000200 0.970850 -0.239688 0.321200 0.667500
0 144.636505 -104.295601 -0.151200 0.000200 1.000000 -0.000200 0.539800 -0.283000
c_wall04.jpg
0 144.636505 37.927299 179.154404 0.000000 -0.970897 -0.239499 0.539800 0.667500
0 101.219101 37.925095 0.003800 0.000000 -1.000000 0.000000 0.321200 -0.282200
0 144.636505 37.925201 -0.108900 0.000000 -1.000000 0.000000 0.539800 -0.282800
c_wall04.jpg
0 101.219200 37.927200 179.154404 -0.000000 -0.877854 -0.478929 0.321200 0.667500
0 101.219101 37.925095 0.003800 0.000000 -1.000000 0.000000 0.321200 -0.282200
0 144.636505 37.927299 179.154404 0.000000 -0.970897 -0.239499 0.539800 0.667500
tile_wood03.jpg
0 144.617493 -248.433701 286.791412 0.642385 0.000000 0.766382 -0.761400 0.299500
0 144.617493 248.999603 286.791412 0.642385 0.000000 0.766382 1.761400 0.299500
0 90.112801 194.467300 332.477112 0.642385 0.000000 0.766382 1.484900 0.828000
tile_wood03.jpg
0 90.112801 194.467300 332.477112 0.642385 0.000000 0.766382 1.484900 0.828000
0 90.112801 -193.901398 332.477112 0.642385 0.000000 0.766382 -0.484900 0.828000
0 144.617493 -248.433701 286.791412 0.642385 0.000000 0.766382 -0.761400 0.299500
tile_wood03.jpg
0 144.617493 248.999603 286.791412 0.000000 0.642218 0.766522 1.443500 0.309200
0 -244.127106 248.999603 286.791412 0.000000 0.642218 0.766522 -0.443800 0.309300
0 -189.759094 194.467300 332.477112 0.000000 0.642218 0.766522 -0.179800 0.821100
tile_wood03.jpg
0 -189.759094 194.467300 332.477112 0.000000 0.642218 0.766522 -0.179800 0.821100
0 90.112801 194.467300 332.477112 0.000000 0.642218 0.766522 1.178900 0.821100
0 144.617493 248.999603 286.791412 0.000000 0.642218 0.766522 1.443500 0.309200
tile_wood03.jpg
0 -244.127106 248.999603 286.791412 -0.643307 0.000000 0.765608 1.761400 0.299500
0 -244.127106 -248.433701 286.791412 -0.643307 0.000000 0.765608 -0.761400 0.299500
0 -189.759094 -193.901398 332.477112 -0.643307 0.000000 0.765608 -0.484900 0.828000
tile_wood03.jpg
0 -189.759094 -193.901398 332.477112 -0.643307 0.000000 0.765608 -0.484900 0.828000
0 -189.759094 194.467300 332.477112 -0.643307 0.000000 0.765608 1.484900 0.828000
0 -244.127106 248.999603 286.791412 -0.643307 0.000000 0.765608 1.761400 0.299500
tile_wood03.jpg
0 -244.127106 -248.433701 286.791412 -0.000000 -0.642218 0.766522 -0.443800 0.309300
0 144.617493 -248.433701 286.791412 -0.000000 -0.642218 0.766522 1.443500 0.309300
0 90.112801 -193.901398 332.477112 -0.000000 -0.642218 0.766522 1.178900 0.821100
tile_wood03.jpg
0 90.112801 -193.901398 332.477112 -0.000000 -0.642218 0.766522 1.178900 0.821100
0 -189.759094 -193.901398 332.477112 -0.000000 -0.642218 0.766522 -0.179800 0.821100
0 -244.127106 -248.433701 286.791412 -0.000000 -0.642218 0.766522 -0.443800 0.309300
tile_wood03.jpg
0 90.112801 -193.901398 332.477112 -1.000000 0.000000 0.000000 -0.484900 0.828000
0 90.112801 194.467300 332.477112 -1.000000 0.000000 0.000000 1.484900 0.828000
0 90.112801 194.467300 303.837189 -1.000000 0.000000 0.000000 1.484900 0.496700
tile_wood03.jpg
0 90.112801 194.467300 303.837189 -1.000000 0.000000 0.000000 1.484900 0.496700
0 90.112801 -193.901398 303.837189 -1.000000 0.000000 0.000000 -0.484900 0.496700
0 90.112801 -193.901398 332.477112 -1.000000 0.000000 0.000000 -0.484900 0.828000
tile_wood03.jpg
0 90.112801 194.467300 332.477112 0.000000 -1.000000 0.000000 1.178900 0.821100
0 -189.759094 194.467300 332.477112 0.000000 -1.000000 0.000000 -0.179800 0.821100
0 -189.759003 194.467300 303.837189 0.000000 -1.000000 0.000000 -0.179800 0.500200
tile_wood03.jpg
0 -189.759003 194.467300 303.837189 0.000000 -1.000000 0.000000 -0.179800 0.500200
0 90.112801 194.467300 303.837189 0.000000 -1.000000 0.000000 1.178900 0.500200
0 90.112801 194.467300 332.477112 0.000000 -1.000000 0.000000 1.178900 0.821100
tile_wood03.jpg
0 -189.759094 194.467300 332.477112 1.000000 0.000000 0.000000 1.484900 0.828000
0 -189.759094 -193.901398 332.477112 1.000000 0.000000 0.000000 -0.484900 0.828000
0 -189.759003 -193.901398 303.837189 1.000000 0.000000 0.000000 -0.484900 0.496700
tile_wood03.jpg
0 -189.759003 -193.901398 303.837189 1.000000 0.000000 0.000000 -0.484900 0.496700
0 -189.759003 194.467300 303.837189 1.000000 0.000000 0.000000 1.484900 0.496700
0 -189.759094 194.467300 332.477112 1.000000 0.000000 0.000000 1.484900 0.828000
tile_wood03.jpg
0 -189.759094 -193.901398 332.477112 0.000000 1.000000 0.000000 -0.179800 0.821100
0 90.112801 -193.901398 332.477112 0.000000 1.000000 0.000000 1.178900 0.821100
0 90.112801 -193.901398 303.837189 0.000000 1.000000 0.000000 1.178900 0.500200
tile_wood03.jpg
0 90.112801 -193.901398 303.837189 0.000000 1.000000 0.000000 1.178900 0.500200
0 -189.759003 -193.901398 303.837189 0.000000 1.000000 0.000000 -0.179800 0.500200
0 -189.759094 -193.901398 332.477112 0.000000 1.000000 0.000000 -0.179800 0.821100
tile_house01.jpg
0 101.219101 13.664799 205.658707 1.000000 0.000000 0.000000 0.929300 0.092100
0 101.219101 -33.153198 221.411102 1.000000 0.000000 0.000000 1.000300 0.252900
0 101.219200 37.927200 179.154404 1.000000 0.000000 0.000000 0.809800 0.008700
tile_house01.jpg
0 101.219101 -104.241302 179.154404 1.000000 0.000000 0.000000 0.809800 0.497000
0 101.219101 -33.153198 221.411102 1.000000 0.000000 0.000000 1.000300 0.252900
0 101.219101 -79.971199 205.658707 1.000000 0.000000 0.000000 0.929300 0.413700
tile_house01.jpg
0 101.219101 -104.275597 -0.081000 1.000000 0.000000 0.000000 0.001300 0.497100
0 101.219101 -33.153198 221.411102 1.000000 0.000000 0.000000 1.000300 0.252900
0 101.219101 -104.241302 179.154404 1.000000 0.000000 0.000000 0.809800 0.497000
tile_house01.jpg
0 101.219101 37.925095 0.003800 1.000000 0.000000 0.000000 0.001700 0.008800
0 101.219101 -33.153198 221.411102 1.000000 0.000000 0.000000 1.000300 0.252900
0 101.219101 -104.275597 -0.081000 1.000000 0.000000 0.000000 0.001300 0.497100
tile_house01.jpg
0 101.219200 37.927200 179.154404 1.000000 0.000000 0.000000 0.809800 0.008700
0 101.219101 -33.153198 221.411102 1.000000 0.000000 0.000000 1.000300 0.252900
0 101.219101 37.925095 0.003800 1.000000 0.000000 0.000000 0.001700 0.008800
tile_ston01.jpg
0 279.599213 248.801880 0.063700 1.000000 0.000000 0.000000 1.826700 0.385200
0 279.599213 248.801880 17.875099 1.000000 0.000000 0.000000 1.826700 0.499100
0 279.599091 -248.507004 17.875099 1.000000 0.000000 0.000000 -0.826700 0.499100
tile_ston01.jpg
0 279.599213 248.801880 0.063700 1.000000 0.000000 0.000000 1.826700 0.385200
0 279.599091 -248.507004 17.875099 1.000000 0.000000 0.000000 -0.826700 0.499100
0 279.599091 -248.507004 0.063700 1.000000 0.000000 0.000000 -0.826700 0.385200
tile_ston01.jpg
0 279.599213 248.801880 17.875099 0.000000 0.000000 1.000000 1.618100 0.041700
0 251.421387 248.801880 17.875099 0.000000 0.000000 1.000000 1.618100 0.185400
0 251.421387 -248.507004 17.875099 0.000000 0.000000 1.000000 -0.618100 0.185400
tile_ston01.jpg
0 279.599213 248.801880 17.875099 0.000000 0.000000 1.000000 1.618100 0.041700
0 251.421387 -248.507004 17.875099 0.000000 0.000000 1.000000 -0.618100 0.185400
0 279.599091 -248.507004 17.875099 0.000000 0.000000 1.000000 -0.618100 0.041700
tile_ston01.jpg
0 251.421387 248.801880 17.875099 1.000000 0.000000 0.000300 1.826700 0.499100
0 251.415985 248.801880 35.957298 1.000000 0.000000 0.000300 1.826700 0.614800
0 251.415985 -248.507004 35.957199 1.000000 0.000000 0.000300 -0.826700 0.614800
tile_ston01.jpg
0 251.421387 248.801880 17.875099 1.000000 0.000000 0.000300 1.826700 0.499100
0 251.415985 -248.507004 35.957199 1.000000 0.000000 0.000300 -0.826700 0.614800
0 251.421387 -248.507004 17.875099 1.000000 0.000000 0.000300 -0.826700 0.499100
tile_ston01.jpg
0 251.415985 248.801880 35.957298 0.000100 0.000000 1.000000 1.618100 0.185400
0 99.819702 248.801880 35.970699 0.000100 0.000000 1.000000 1.618100 0.958300
0 99.819702 -248.507004 35.970600 0.000100 0.000000 1.000000 -0.618100 0.958300
tile_ston01.jpg
0 251.415985 248.801880 35.957298 0.000100 0.000000 1.000000 1.618100 0.185400
0 99.819702 -248.507004 35.970600 0.000100 0.000000 1.000000 -0.618100 0.958300
0 251.415985 -248.507004 35.957199 0.000100 0.000000 1.000000 -0.618100 0.185400
horse_drawn_01.jpg
1 -216.764709 300.046692 127.138603 0.000000 0.000000 -1.000000 0.118100 0.402600
1 -216.764709 408.200714 127.138603 0.000000 0.000000 -1.000000 0.497500 0.402600
1 13.612000 408.200714 127.138603 0.000000 0.000000 -1.000000 0.497500 0.402600
horse_drawn_01.jpg
1 13.612000 408.200714 127.138603 0.000000 0.000000 -1.000000 0.497500 0.402600
1 13.611900 300.046692 127.138603 0.000000 0.000000 -1.000000 0.118100 0.402600
1 -216.764709 300.046692 127.138603 0.000000 0.000000 -1.000000 0.118100 0.402600
horse_drawn_01.jpg
1 -216.764709 300.046692 140.179001 0.000000 0.000000 1.000000 0.545200 0.725100
1 13.611900 300.046692 140.179001 0.000000 0.000000 1.000000 0.910900 0.725100
1 13.612000 408.200714 140.179001 0.000000 0.000000 1.000000 0.910900 0.953500
horse_drawn_01.jpg
1 13.612000 408.200714 140.179001 0.000000 0.000000 1.000000 0.910900 0.953500
1 -216.764709 408.200714 140.179001 0.000000 0.000000 1.000000 0.545200 0.953500
1 -216.764709 300.046692 140.179001 0.000000 0.000000 1.000000 0.545200 0.725100
horse_drawn_01.jpg
1 13.611900 300.046692 127.138603 1.000000 0.000000 0.000000 0.118100 0.402600
1 13.612000 408.200714 127.138603 1.000000 0.000000 0.000000 0.497500 0.402600
1 13.612000 408.200714 140.179001 1.000000 0.000000 0.000000 0.497500 0.432200
horse_drawn_01.jpg
1 13.612000 408.200714 140.179001 1.000000 0.000000 0.000000 0.497500 0.432200
1 13.611900 300.046692 140.179001 1.000000 0.000000 0.000000 0.118100 0.432200
1 13.611900 300.046692 127.138603 1.000000 0.000000 0.000000 0.118100 0.402600
horse_drawn_01.jpg
1 13.612000 408.200714 127.138603 0.000000 1.000000 0.000000 0.946700 0.773500
1 -216.764709 408.200714 127.138603 0.000000 1.000000 0.000000 0.524900 0.773500
1 -216.764709 408.200714 140.179001 0.000000 1.000000 0.000000 0.524900 0.821100
horse_drawn_01.jpg
1 -216.764709 408.200714 140.179001 0.000000 1.000000 0.000000 0.524900 0.821100
1 13.612000 408.200714 140.179001 0.000000 1.000000 0.000000 0.946700 0.821100
1 13.612000 408.200714 127.138603 0.000000 1.000000 0.000000 0.946700 0.773500
horse_drawn_01.jpg
1 -216.764709 408.200714 127.138603 -1.000000 0.000000 0.000000 0.497500 0.402600
1 -216.764709 300.046692 127.138603 -1.000000 0.000000 0.000000 0.118100 0.402600
1 -216.764709 300.046692 140.179001 -1.000000 0.000000 0.000000 0.118100 0.432200
horse_drawn_01.jpg
1 -216.764709 300.046692 140.179001 -1.000000 0.000000 0.000000 0.118100 0.432200
1 -216.764709 408.200714 140.179001 -1.000000 0.000000 0.000000 0.497500 0.432200
1 -216.764709 408.200714 127.138603 -1.000000 0.000000 0.000000 0.497500 0.402600
horse_drawn_01.jpg
1 89.266502 305.134003 75.781502 0.000000 0.000000 1.000000 0.877600 0.820200
1 105.442101 305.134003 75.781502 0.000000 0.000000 1.000000 0.877600 0.901600
1 105.442101 388.587189 75.781502 0.000000 0.000000 1.000000 0.575100 0.901600
horse_drawn_01.jpg
1 105.442101 388.587189 75.781502 0.000000 0.000000 1.000000 0.575100 0.901600
1 89.266502 388.587189 75.781502 0.000000 0.000000 1.000000 0.575100 0.820200
1 89.266502 305.134003 75.781502 0.000000 0.000000 1.000000 0.877600 0.820200
horse_drawn_01.jpg
1 105.442101 305.134003 70.028397 1.000000 0.000000 0.000000 0.434700 0.558300
1 105.442101 388.587189 70.028397 1.000000 0.000000 0.000000 0.434700 0.706100
1 105.442101 388.587189 75.781502 1.000000 0.000000 0.000000 0.418600 0.706100
horse_drawn_01.jpg
1 105.442101 388.587189 75.781502 1.000000 0.000000 0.000000 0.418600 0.706100
1 105.442101 305.134003 75.781502 1.000000 0.000000 0.000000 0.418600 0.558300
1 105.442101 305.134003 70.028397 1.000000 0.000000 0.000000 0.434700 0.558300
horse_drawn_01.jpg
1 89.266502 388.587189 70.028397 -1.000000 0.000000 0.000000 0.377100 0.134200
1 89.266502 305.134003 70.028397 -1.000000 0.000000 0.000000 0.163300 0.134200
1 89.266502 305.134003 75.781502 -1.000000 0.000000 0.000000 0.163300 0.147800
horse_drawn_01.jpg
1 89.266502 305.134003 75.781502 -1.000000 0.000000 0.000000 0.163300 0.147800
1 89.266502 388.587189 75.781502 -1.000000 0.000000 0.000000 0.377100 0.147800
1 89.266502 388.587189 70.028397 -1.000000 0.000000 0.000000 0.377100 0.134200
horse_drawn_01.jpg
1 64.003700 305.134003 94.026001 0.000000 0.000000 1.000000 0.877600 0.820800
1 80.179298 305.134003 94.026001 0.000000 0.000000 1.000000 0.877600 0.902200
1 80.179298 388.587189 94.026001 0.000000 0.000000 1.000000 0.575100 0.902200
horse_drawn_01.jpg
1 80.179298 388.587189 94.026001 0.000000 0.000000 1.000000 0.575100 0.902200
1 64.003700 388.587189 94.026001 0.000000 0.000000 1.000000 0.575100 0.820800
1 64.003700 305.134003 94.026001 0.000000 0.000000 1.000000 0.877600 0.820800
horse_drawn_01.jpg
1 80.179298 305.134003 88.272903 1.000000 0.000000 0.000000 0.435100 0.558300
1 80.179298 388.587189 88.272903 1.000000 0.000000 0.000000 0.435100 0.706100
1 80.179298 388.587189 94.026001 1.000000 0.000000 0.000000 0.419000 0.706100
horse_drawn_01.jpg
1 80.179298 388.587189 94.026001 1.000000 0.000000 0.000000 0.419000 0.706100
1 80.179298 305.134003 94.026001 1.000000 0.000000 0.000000 0.419000 0.558300
1 80.179298 305.134003 88.272903 1.000000 0.000000 0.000000 0.435100 0.558300
horse_drawn_01.jpg
1 64.003700 388.587189 88.272903 -1.000000 0.000000 0.000000 0.377100 0.177200
1 64.003700 305.134003 88.272903 -1.000000 0.000000 0.000000 0.163300 0.177200
1 64.003700 305.134003 94.026001 -1.000000 0.000000 0.000000 0.163300 0.190700
horse_drawn_01.jpg
1 64.003700 305.134003 94.026001 -1.000000 0.000000 0.000000 0.163300 0.190700
1 64.003700 388.587189 94.026001 -1.000000 0.000000 0.000000 0.377100 0.190700
1 64.003700 388.587189 88.272903 -1.000000 0.000000 0.000000 0.377100 0.177200
horse_drawn_01.jpg
1 37.948997 305.134003 108.478500 0.000000 0.000000 1.000000 0.877600 0.821100
1 54.124702 305.134003 108.478500 0.000000 0.000000 1.000000 0.877600 0.902400
1 54.124702 388.587189 108.478500 0.000000 0.000000 1.000000 0.575100 0.902400
horse_drawn_01.jpg
1 54.124702 388.587189 108.478500 0.000000 0.000000 1.000000 0.575100 0.902400
1 37.948997 388.587189 108.478500 0.000000 0.000000 1.000000 0.575100 0.821100
1 37.948997 305.134003 108.478500 0.000000 0.000000 1.000000 0.877600 0.821100
horse_drawn_01.jpg
1 54.124702 305.134003 102.725403 1.000000 0.000000 0.000000 0.435500 0.558300
1 54.124702 388.587189 102.725403 1.000000 0.000000 0.000000 0.435500 0.706100
1 54.124702 388.587189 108.478500 1.000000 0.000000 0.000000 0.419400 0.706100
horse_drawn_01.jpg
1 54.124702 388.587189 108.478500 1.000000 0.000000 0.000000 0.419400 0.706100
1 54.124702 305.134003 108.478500 1.000000 0.000000 0.000000 0.419400 0.558300
1 54.124702 305.134003 102.725403 1.000000 0.000000 0.000000 0.435500 0.558300
horse_drawn_01.jpg
1 37.948997 388.587189 102.725403 -1.000000 0.000000 0.000000 0.377100 0.211200
1 37.948997 305.134003 102.725403 -1.000000 0.000000 0.000000 0.163300 0.211200
1 37.948997 305.134003 108.478500 -1.000000 0.000000 0.000000 0.163300 0.224800
horse_drawn_01.jpg
1 37.948997 305.134003 108.478500 -1.000000 0.000000 0.000000 0.163300 0.224800
1 37.948997 388.587189 108.478500 -1.000000 0.000000 0.000000 0.377100 0.224800
1 37.948997 388.587189 102.725403 -1.000000 0.000000 0.000000 0.377100 0.211200
horse_drawn_01.jpg
1 13.255798 305.134003 122.896004 0.000000 0.000000 1.000000 0.877600 0.819200
1 29.431404 305.134003 122.896004 0.000000 0.000000 1.000000 0.877600 0.900600
1 29.431404 388.587189 122.896004 0.000000 0.000000 1.000000 0.575100 0.900600
horse_drawn_01.jpg
1 29.431404 388.587189 122.896004 0.000000 0.000000 1.000000 0.575100 0.900600
1 13.255798 388.587189 122.896004 0.000000 0.000000 1.000000 0.575100 0.819200
1 13.255798 305.134003 122.896004 0.000000 0.000000 1.000000 0.877600 0.819200
horse_drawn_01.jpg
1 29.431404 305.134003 117.142799 1.000000 0.000000 0.000000 0.434800 0.558300
1 29.431404 388.587189 117.142799 1.000000 0.000000 0.000000 0.434800 0.706100
1 29.431404 388.587189 122.896004 1.000000 0.000000 0.000000 0.418700 0.706100
horse_drawn_01.jpg
1 29.431404 388.587189 122.896004 1.000000 0.000000 0.000000 0.418700 0.706100
1 29.431404 305.134003 122.896004 1.000000 0.000000 0.000000 0.418700 0.558300
1 29.431404 305.134003 117.142799 1.000000 0.000000 0.000000 0.434800 0.558300
horse_drawn_01.jpg
1 13.255798 388.587189 117.142799 -1.000000 0.000000 0.000000 0.377100 0.245200
1 13.255798 305.134003 117.142799 -1.000000 0.000000 0.000000 0.163300 0.245200
1 13.255798 305.134003 122.896004 -1.000000 0.000000 0.000000 0.163300 0.258700
horse_drawn_01.jpg
1 13.255798 305.134003 122.896004 -1.000000 0.000000 0.000000 0.163300 0.258700
1 13.255798 388.587189 122.896004 -1.000000 0.000000 0.000000 0.377100 0.258700
1 13.255798 388.587189 117.142799 -1.000000 0.000000 0.000000 0.377100 0.245200
horse_drawn_01.jpg
1 13.346504 305.020508 115.649300 0.000000 1.000000 0.000000 0.167200 0.205900
1 13.346504 305.020508 141.307098 0.000000 1.000000 0.000000 0.167200 0.266300
1 106.165108 305.020508 83.785599 0.000000 1.000000 0.000000 0.425800 0.266000
horse_drawn_01.jpg
1 106.165108 305.020508 83.785599 0.000000 1.000000 0.000000 0.425800 0.266000
1 106.165108 305.020508 58.127701 0.000000 1.000000 0.000000 0.425800 0.205600
1 13.346504 305.020508 115.649300 0.000000 1.000000 0.000000 0.167200 0.205900
horse_drawn_01.jpg
1 106.165108 305.020508 83.785599 0.526795 0.000000 0.849992 0.162700 0.166600
1 13.346504 305.020508 141.307098 0.526795 0.000000 0.849992 0.162700 0.264500
1 13.346504 299.959106 141.307098 0.526795 0.000000 0.849992 0.138700 0.264500
horse_drawn_01.jpg
1 13.346504 299.959106 141.307098 0.526795 0.000000 0.849992 0.138700 0.264500
1 106.165108 299.959106 83.785599 0.526795 0.000000 0.849992 0.138700 0.166600
1 106.165108 305.020508 83.785599 0.526795 0.000000 0.849992 0.162700 0.166600
horse_drawn_01.jpg
1 13.346504 393.664093 115.649300 0.000000 1.000000 0.000000 0.167200 0.205900
1 13.346504 393.664093 141.307098 0.000000 1.000000 0.000000 0.167200 0.266300
1 106.165108 393.664093 83.785599 0.000000 1.000000 0.000000 0.425800 0.266000
horse_drawn_01.jpg
1 106.165108 393.664093 83.785599 0.000000 1.000000 0.000000 0.425800 0.266000
1 106.165108 393.664093 58.127701 0.000000 1.000000 0.000000 0.425800 0.205600
1 13.346504 393.664093 115.649300 0.000000 1.000000 0.000000 0.167200 0.205900
horse_drawn_01.jpg
1 13.346504 388.602692 115.649300 0.000000 -1.000000 0.000000 0.167200 0.205900
1 106.165108 388.602692 58.127701 0.000000 -1.000000 0.000000 0.425800 0.205600
1 106.165108 388.602692 83.785599 0.000000 -1.000000 0.000000 0.425800 0.266000
horse_drawn_01.jpg
1 106.165108 388.602692 83.785599 0.000000 -1.000000 0.000000 0.425800 0.266000
1 13.346504 388.602692 141.307098 0.000000 -1.000000 0.000000 0.167200 0.266300
1 13.346504 388.602692 115.649300 0.000000 -1.000000 0.000000 0.167200 0.205900
horse_drawn_01.jpg
1 106.165108 393.664093 83.785599 0.526795 0.000000 0.849992 0.401300 0.166600
1 13.346504 393.664093 141.307098 0.526795 0.000000 0.849992 0.401300 0.264500
1 13.346504 388.602692 141.307098 0.526795 0.000000 0.849992 0.377200 0.264500
horse_drawn_01.jpg
1 13.346504 388.602692 141.307098 0.526795 0.000000 0.849992 0.377200 0.264500
1 106.165108 388.602692 83.785599 0.526795 0.000000 0.849992 0.377200 0.166600
1 106.165108 393.664093 83.785599 0.526795 0.000000 0.849992 0.401300 0.166600
horse_drawn_01.jpg
1 13.346504 393.664093 141.307098 -1.000000 0.000000 0.000000 0.401300 0.264500
1 13.346504 393.664093 115.649300 -1.000000 0.000000 0.000000 0.401300 0.241600
1 13.346504 388.602692 115.649300 -1.000000 0.000000 0.000000 0.377200 0.241600
horse_drawn_01.jpg
1 13.346504 388.602692 115.649300 -1.000000 0.000000 0.000000 0.377200 0.241600
1 13.346504 388.602692 141.307098 -1.000000 0.000000 0.000000 0.377200 0.264500
1 13.346504 393.664093 141.307098 -1.000000 0.000000 0.000000 0.401300 0.264500
horse_drawn_01.jpg
1 -17.214401 387.916290 -0.025101 0.000000 -1.000000 0.000000 0.201800 0.604600
1 -0.639603 387.916290 -0.025101 0.000000 -1.000000 0.000000 0.269700 0.604600
1 -0.639603 387.916290 126.967300 0.000000 -1.000000 0.000000 0.269700 0.457300
horse_drawn_01.jpg
1 -0.639603 387.916290 126.967300 0.000000 -1.000000 0.000000 0.269700 0.457300
1 -17.214401 387.916290 126.967300 0.000000 -1.000000 0.000000 0.201800 0.457300
1 -17.214401 387.916290 -0.025101 0.000000 -1.000000 0.000000 0.201800 0.604600
horse_drawn_01.jpg
1 -0.639603 387.916290 -0.025101 1.000000 0.000000 0.000000 0.183400 0.609400
1 -0.639603 404.491089 -0.025101 1.000000 0.000000 0.000000 0.262200 0.609400
1 -0.639603 404.491089 126.967300 1.000000 0.000000 0.000000 0.262200 0.450000
horse_drawn_01.jpg
1 -0.639603 404.491089 126.967300 1.000000 0.000000 0.000000 0.262200 0.450000
1 -0.639603 387.916290 126.967300 1.000000 0.000000 0.000000 0.183400 0.450000
1 -0.639603 387.916290 -0.025101 1.000000 0.000000 0.000000 0.183400 0.609400
horse_drawn_01.jpg
1 -0.639603 404.491089 -0.025101 0.000000 1.000000 0.000000 0.269700 0.604600
1 -17.214401 404.491089 -0.025101 0.000000 1.000000 0.000000 0.201800 0.604600
1 -17.214401 404.491089 126.967300 0.000000 1.000000 0.000000 0.201800 0.457300
horse_drawn_01.jpg
1 -17.214401 404.491089 126.967300 0.000000 1.000000 0.000000 0.201800 0.457300
1 -0.639603 404.491089 126.967300 0.000000 1.000000 0.000000 0.269700 0.457300
1 -0.639603 404.491089 -0.025101 0.000000 1.000000 0.000000 0.269700 0.604600
horse_drawn_01.jpg
1 -17.214401 404.491089 -0.025101 -1.000000 0.000000 0.000000 0.262200 0.609400
1 -17.214401 387.916290 -0.025101 -1.000000 0.000000 0.000000 0.183400 0.609400
1 -17.214401 387.916290 126.967300 -1.000000 0.000000 0.000000 0.183400 0.450000
horse_drawn_01.jpg
1 -17.214401 387.916290 126.967300 -1.000000 0.000000 0.000000 0.183400 0.450000
1 -17.214401 404.491089 126.967300 -1.000000 0.000000 0.000000 0.262200 0.450000
1 -17.214401 404.491089 -0.025101 -1.000000 0.000000 0.000000 0.262200 0.609400
horse_drawn_01.jpg
1 -208.565002 387.916290 -0.025101 0.000000 -1.000000 0.000000 0.023300 0.834600
1 -191.990097 387.916290 -0.025101 0.000000 -1.000000 0.000000 0.069500 0.834600
1 -191.990097 387.916290 126.967300 0.000000 -1.000000 0.000000 0.069500 0.834600
horse_drawn_01.jpg
1 -191.990097 387.916290 126.967300 0.000000 -1.000000 0.000000 0.069500 0.834600
1 -208.565002 387.916290 126.967300 0.000000 -1.000000 0.000000 0.023300 0.834600
1 -208.565002 387.916290 -0.025101 0.000000 -1.000000 0.000000 0.023300 0.834600
horse_drawn_01.jpg
1 -191.990097 387.916290 -0.025101 1.000000 0.000000 0.000000 0.183400 0.609400
1 -191.990097 404.491089 -0.025101 1.000000 0.000000 0.000000 0.262200 0.609400
1 -191.990097 404.491089 126.967300 1.000000 0.000000 0.000000 0.262200 0.450000
horse_drawn_01.jpg
1 -191.990097 404.491089 126.967300 1.000000 0.000000 0.000000 0.262200 0.450000
1 -191.990097 387.916290 126.967300 1.000000 0.000000 0.000000 0.183400 0.450000
1 -191.990097 387.916290 -0.025101 1.000000 0.000000 0.000000 0.183400 0.609400
horse_drawn_01.jpg
1 -191.990097 404.491089 -0.025101 0.000000 1.000000 0.000000 0.270800 0.604600
1 -208.565002 404.491089 -0.025101 0.000000 1.000000 0.000000 0.202900 0.604600
1 -208.565002 404.491089 126.967300 0.000000 1.000000 0.000000 0.202900 0.457300
horse_drawn_01.jpg
1 -208.565002 404.491089 126.967300 0.000000 1.000000 0.000000 0.202900 0.457300
1 -191.990097 404.491089 126.967300 0.000000 1.000000 0.000000 0.270800 0.457300
1 -191.990097 404.491089 -0.025101 0.000000 1.000000 0.000000 0.270800 0.604600
horse_drawn_01.jpg
1 -208.565002 404.491089 -0.025101 -1.000000 0.000000 0.000000 0.262200 0.609400
1 -208.565002 387.916290 -0.025101 -1.000000 0.000000 0.000000 0.183400 0.609400
1 -208.565002 387.916290 126.967300 -1.000000 0.000000 0.000000 0.183400 0.450000
horse_drawn_01.jpg
1 -208.565002 387.916290 126.967300 -1.000000 0.000000 0.000000 0.183400 0.450000
1 -208.565002 404.491089 126.967300 -1.000000 0.000000 0.000000 0.262200 0.450000
1 -208.565002 404.491089 -0.025101 -1.000000 0.000000 0.000000 0.262200 0.609400
horse_drawn_01.jpg
1 169.112701 305.134003 25.570400 0.000000 0.000000 1.000000 0.877600 0.820800
1 185.288300 305.134003 25.570400 0.000000 0.000000 1.000000 0.877600 0.902200
1 185.288300 388.587189 25.570400 0.000000 0.000000 1.000000 0.575100 0.902200
horse_drawn_01.jpg
1 185.288300 388.587189 25.570400 0.000000 0.000000 1.000000 0.575100 0.902200
1 169.112701 388.587189 25.570400 0.000000 0.000000 1.000000 0.575100 0.820800
1 169.112701 305.134003 25.570400 0.000000 0.000000 1.000000 0.877600 0.820800
horse_drawn_01.jpg
1 185.288300 305.134003 19.817299 1.000000 0.000000 0.000000 0.435100 0.558300
1 185.288300 388.587189 19.817299 1.000000 0.000000 0.000000 0.435100 0.706100
1 185.288300 388.587189 25.570400 1.000000 0.000000 0.000000 0.419000 0.706100
horse_drawn_01.jpg
1 185.288300 388.587189 25.570400 1.000000 0.000000 0.000000 0.419000 0.706100
1 185.288300 305.134003 25.570400 1.000000 0.000000 0.000000 0.419000 0.558300
1 185.288300 305.134003 19.817299 1.000000 0.000000 0.000000 0.435100 0.558300
horse_drawn_01.jpg
1 169.112701 388.587189 19.817299 -1.000000 0.000000 0.000000 0.377100 0.177200
1 169.112701 305.134003 19.817299 -1.000000 0.000000 0.000000 0.163300 0.177200
1 169.112701 305.134003 25.570400 -1.000000 0.000000 0.000000 0.163300 0.190700
horse_drawn_01.jpg
1 169.112701 305.134003 25.570400 -1.000000 0.000000 0.000000 0.163300 0.190700
1 169.112701 388.587189 25.570400 -1.000000 0.000000 0.000000 0.377100 0.190700
1 169.112701 388.587189 19.817299 -1.000000 0.000000 0.000000 0.377100 0.177200
horse_drawn_01.jpg
1 143.057983 305.134003 42.509800 0.000000 0.000000 1.000000 0.877600 0.821100
1 159.233582 305.134003 42.509800 0.000000 0.000000 1.000000 0.877600 0.902400
1 159.233582 388.587189 42.509800 0.000000 0.000000 1.000000 0.575100 0.902400
horse_drawn_01.jpg
1 159.233582 388.587189 42.509800 0.000000 0.000000 1.000000 0.575100 0.902400
1 143.057983 388.587189 42.509800 0.000000 0.000000 1.000000 0.575100 0.821100
1 143.057983 305.134003 42.509800 0.000000 0.000000 1.000000 0.877600 0.821100
horse_drawn_01.jpg
1 159.233582 305.134003 36.756699 1.000000 0.000000 0.000000 0.435500 0.558300
1 159.233582 388.587189 36.756699 1.000000 0.000000 0.000000 0.435500 0.706100
1 159.233582 388.587189 42.509800 1.000000 0.000000 0.000000 0.419400 0.706100
horse_drawn_01.jpg
1 159.233582 388.587189 42.509800 1.000000 0.000000 0.000000 0.419400 0.706100
1 159.233582 305.134003 42.509800 1.000000 0.000000 0.000000 0.419400 0.558300
1 159.233582 305.134003 36.756699 1.000000 0.000000 0.000000 0.435500 0.558300
horse_drawn_01.jpg
1 143.057983 388.587189 36.756699 -1.000000 0.000000 0.000000 0.377100 0.211200
1 143.057983 305.134003 36.756699 -1.000000 0.000000 0.000000 0.163300 0.211200
1 143.057983 305.134003 42.509800 -1.000000 0.000000 0.000000 0.163300 0.224800
horse_drawn_01.jpg
1 143.057983 305.134003 42.509800 -1.000000 0.000000 0.000000 0.163300 0.224800
1 143.057983 388.587189 42.509800 -1.000000 0.000000 0.000000 0.377100 0.224800
1 143.057983 388.587189 36.756699 -1.000000 0.000000 0.000000 0.377100 0.211200
horse_drawn_01.jpg
1 118.364693 305.134003 56.849499 0.000000 0.000000 1.000000 0.877600 0.819200
1 134.540283 305.134003 56.849499 0.000000 0.000000 1.000000 0.877600 0.900600
1 134.540283 388.587189 56.849499 0.000000 0.000000 1.000000 0.575100 0.900600
horse_drawn_01.jpg
1 134.540283 388.587189 56.849499 0.000000 0.000000 1.000000 0.575100 0.900600
1 118.364693 388.587189 56.849499 0.000000 0.000000 1.000000 0.575100 0.819200
1 118.364693 305.134003 56.849499 0.000000 0.000000 1.000000 0.877600 0.819200
horse_drawn_01.jpg
1 134.540283 305.134003 51.096401 1.000000 0.000000 0.000000 0.434800 0.558300
1 134.540283 388.587189 51.096401 1.000000 0.000000 0.000000 0.434800 0.706100
1 134.540283 388.587189 56.849499 1.000000 0.000000 0.000000 0.418700 0.706100
horse_drawn_01.jpg
1 134.540283 388.587189 56.849499 1.000000 0.000000 0.000000 0.418700 0.706100
1 134.540283 305.134003 56.849499 1.000000 0.000000 0.000000 0.418700 0.558300
1 134.540283 305.134003 51.096401 1.000000 0.000000 0.000000 0.434800 0.558300
horse_drawn_01.jpg
1 118.364693 388.587189 51.096401 -1.000000 0.000000 0.000000 0.377100 0.245200
1 118.364693 305.134003 51.096401 -1.000000 0.000000 0.000000 0.163300 0.245200
1 118.364693 305.134003 56.849499 -1.000000 0.000000 0.000000 0.163300 0.258700
horse_drawn_01.jpg
1 118.364693 305.134003 56.849499 -1.000000 0.000000 0.000000 0.163300 0.258700
1 118.364693 388.587189 56.849499 -1.000000 0.000000 0.000000 0.377100 0.258700
1 118.364693 388.587189 51.096401 -1.000000 0.000000 0.000000 0.377100 0.245200
horse_drawn_01.jpg
1 106.101402 305.020508 58.008598 0.000000 1.000000 0.000000 0.167200 0.205900
1 106.101402 305.020508 83.666496 0.000000 1.000000 0.000000 0.167200 0.266300
1 198.919983 305.020508 26.144897 0.000000 1.000000 0.000000 0.425800 0.266000
horse_drawn_01.jpg
1 198.919983 305.020508 26.144897 0.000000 1.000000 0.000000 0.425800 0.266000
1 198.919983 305.020508 0.487099 0.000000 1.000000 0.000000 0.425800 0.205600
1 106.101402 305.020508 58.008598 0.000000 1.000000 0.000000 0.167200 0.205900
horse_drawn_01.jpg
1 198.919983 305.020508 0.487099 1.000000 0.000000 0.000000 0.162700 0.127300
1 198.919983 305.020508 26.144897 1.000000 0.000000 0.000000 0.162700 0.166600
1 198.919983 299.959106 26.144897 1.000000 0.000000 0.000000 0.138700 0.166600
horse_drawn_01.jpg
1 198.919983 299.959106 26.144897 1.000000 0.000000 0.000000 0.138700 0.166600
1 198.919983 299.959106 0.487099 1.000000 0.000000 0.000000 0.138700 0.127300
1 198.919983 305.020508 0.487099 1.000000 0.000000 0.000000 0.162700 0.127300
horse_drawn_01.jpg
1 198.919983 305.020508 26.144897 0.526795 0.000000 0.849992 0.162700 0.166600
1 106.101402 305.020508 83.666496 0.526795 0.000000 0.849992 0.162700 0.264500
1 106.101402 299.959106 83.666496 0.526795 0.000000 0.849992 0.138700 0.264500
horse_drawn_01.jpg
1 106.101402 299.959106 83.666496 0.526795 0.000000 0.849992 0.138700 0.264500
1 198.919983 299.959106 26.144897 0.526795 0.000000 0.849992 0.138700 0.166600
1 198.919983 305.020508 26.144897 0.526795 0.000000 0.849992 0.162700 0.166600
horse_drawn_01.jpg
1 106.101402 393.664093 58.008598 0.000000 1.000000 0.000000 0.167200 0.205900
1 106.101402 393.664093 83.666496 0.000000 1.000000 0.000000 0.167200 0.266300
1 198.919983 393.664093 26.144897 0.000000 1.000000 0.000000 0.425800 0.266000
horse_drawn_01.jpg
1 198.919983 393.664093 26.144897 0.000000 1.000000 0.000000 0.425800 0.266000
1 198.919983 393.664093 0.487099 0.000000 1.000000 0.000000 0.425800 0.205600
1 106.101402 393.664093 58.008598 0.000000 1.000000 0.000000 0.167200 0.205900
horse_drawn_01.jpg
1 106.101402 388.602692 58.008598 0.000000 -1.000000 0.000000 0.167200 0.205900
1 198.919983 388.602692 0.487099 0.000000 -1.000000 0.000000 0.425800 0.205600
1 198.919983 388.602692 26.144897 0.000000 -1.000000 0.000000 0.425800 0.266000
horse_drawn_01.jpg
1 198.919983 388.602692 26.144897 0.000000 -1.000000 0.000000 0.425800 0.266000
1 106.101402 388.602692 83.666496 0.000000 -1.000000 0.000000 0.167200 0.266300
1 106.101402 388.602692 58.008598 0.000000 -1.000000 0.000000 0.167200 0.205900
horse_drawn_01.jpg
1 198.919983 393.664093 0.487099 1.000000 0.000000 0.000000 0.401300 0.127300
1 198.919983 393.664093 26.144897 1.000000 0.000000 0.000000 0.401300 0.166600
1 198.919983 388.602692 26.144897 1.000000 0.000000 0.000000 0.377200 0.166600
horse_drawn_01.jpg
1 198.919983 388.602692 26.144897 1.000000 0.000000 0.000000 0.377200 0.166600
1 198.919983 388.602692 0.487099 1.000000 0.000000 0.000000 0.377200 0.127300
1 198.919983 393.664093 0.487099 1.000000 0.000000 0.000000 0.401300 0.127300
horse_drawn_01.jpg
1 198.919983 393.664093 26.144897 0.526795 0.000000 0.849992 0.401300 0.166600
1 106.101402 393.664093 83.666496 0.526795 0.000000 0.849992 0.401300 0.264500
1 106.101402 388.602692 83.666496 0.526795 0.000000 0.849992 0.377200 0.264500
horse_drawn_01.jpg
1 106.101402 388.602692 83.666496 0.526795 0.000000 0.849992 0.377200 0.264500
1 198.919983 388.602692 26.144897 0.526795 0.000000 0.849992 0.377200 0.166600
1 198.919983 393.664093 26.144897 0.526795 0.000000 0.849992 0.401300 0.166600
tile_ston06.jpg
2 -253.350693 165.699829 163.464203 -1.000000 0.000000 0.000000 0.558700 0.490100
2 -253.350693 74.292236 163.464203 -1.000000 0.000000 0.000000 0.951800 0.490100
2 -253.350693 74.292236 250.060898 -1.000000 0.000000 0.000000 0.951800 0.993000
tile_ston06.jpg
2 -253.350693 74.292236 250.060898 -1.000000 0.000000 0.000000 0.951800 0.993000
2 -253.350693 165.699829 250.060898 -1.000000 0.000000 0.000000 0.558700 0.993000
2 -253.350693 165.699829 163.464203 -1.000000 0.000000 0.000000 0.558700 0.490100
tile_ston06.jpg
2 -243.763702 165.699829 163.464203 0.000000 0.000000 -1.000000 0.564900 0.999500
2 -243.763702 74.292236 163.464203 0.000000 0.000000 -1.000000 0.950200 0.999500
2 -253.350693 74.292236 163.464203 0.000000 0.000000 -1.000000 0.950200 0.935300
tile_ston06.jpg
2 -253.350693 74.292236 163.464203 0.000000 0.000000 -1.000000 0.950200 0.935300
2 -253.350693 165.699829 163.464203 0.000000 0.000000 -1.000000 0.564900 0.935300
2 -243.763702 165.699829 163.464203 0.000000 0.000000 -1.000000 0.564900 0.999500
tile_ston06.jpg
2 -243.763702 74.292236 163.464203 0.000000 -1.000000 0.000000 0.991700 0.490100
2 -243.763702 74.292236 250.060898 0.000000 -1.000000 0.000000 0.991700 0.993000
2 -253.350693 74.292236 250.060898 0.000000 -1.000000 0.000000 0.951800 0.993000
tile_ston06.jpg
2 -253.350693 74.292236 250.060898 0.000000 -1.000000 0.000000 0.951800 0.993000
2 -253.350693 74.292236 163.464203 0.000000 -1.000000 0.000000 0.951800 0.490100
2 -243.763702 74.292236 163.464203 0.000000 -1.000000 0.000000 0.991700 0.490100
tile_ston06.jpg
2 -243.763702 74.292236 250.060898 0.000000 0.000000 1.000000 0.950200 0.999500
2 -243.763702 165.699829 250.060898 0.000000 0.000000 1.000000 0.564900 0.999500
2 -253.350693 165.699829 250.060898 0.000000 0.000000 1.000000 0.564900 0.935300
tile_ston06.jpg
2 -253.350693 165.699829 250.060898 0.000000 0.000000 1.000000 0.564900 0.935300
2 -253.350693 74.292236 250.060898 0.000000 0.000000 1.000000 0.950200 0.935300
2 -243.763702 74.292236 250.060898 0.000000 0.000000 1.000000 0.950200 0.999500
tile_ston06.jpg
2 -243.763702 165.699829 250.060898 0.000000 1.000000 0.000000 0.510200 0.993000
2 -243.763702 165.699829 163.464203 0.000000 1.000000 0.000000 0.510200 0.490100
2 -253.350693 165.699829 163.464203 0.000000 1.000000 0.000000 0.558700 0.490100
tile_ston06.jpg
2 -253.350693 165.699829 163.464203 0.000000 1.000000 0.000000 0.558700 0.490100
2 -253.350693 165.699829 250.060898 0.000000 1.000000 0.000000 0.558700 0.993000
2 -243.763702 165.699829 250.060898 0.000000 1.000000 0.000000 0.510200 0.993000
tile_ston06.jpg
2 -253.350693 -75.472778 163.464203 -1.000000 0.000000 0.000000 0.558700 0.490100
2 -253.350693 -166.880371 163.464203 -1.000000 0.000000 0.000000 0.951800 0.490100
2 -253.350693 -166.880371 250.060898 -1.000000 0.000000 0.000000 0.951800 0.993000
tile_ston06.jpg
2 -253.350693 -166.880371 250.060898 -1.000000 0.000000 0.000000 0.951800 0.993000
2 -253.350693 -75.472778 250.060898 -1.000000 0.000000 0.000000 0.558700 0.993000
2 -253.350693 -75.472778 163.464203 -1.000000 0.000000 0.000000 0.558700 0.490100
tile_ston06.jpg
2 -243.763702 -75.472778 163.464203 0.000000 0.000000 -1.000000 0.564900 0.999500
2 -243.763702 -166.880371 163.464203 0.000000 0.000000 -1.000000 0.950200 0.999500
2 -253.350693 -166.880371 163.464203 0.000000 0.000000 -1.000000 0.950200 0.935300
tile_ston06.jpg
2 -253.350693 -166.880371 163.464203 0.000000 0.000000 -1.000000 0.950200 0.935300
2 -253.350693 -75.472778 163.464203 0.000000 0.000000 -1.000000 0.564900 0.935300
2 -243.763702 -75.472778 163.464203 0.000000 0.000000 -1.000000 0.564900 0.999500
tile_ston06.jpg
2 -243.763702 -166.880371 163.464203 0.000000 -1.000000 0.000000 0.991700 0.490100
2 -243.763702 -166.880371 250.060898 0.000000 -1.000000 0.000000 0.991700 0.993000
2 -253.350693 -166.880371 250.060898 0.000000 -1.000000 0.000000 0.951800 0.993000
tile_ston06.jpg
2 -253.350693 -166.880371 250.060898 0.000000 -1.000000 0.000000 0.951800 0.993000
2 -253.350693 -166.880371 163.464203 0.000000 -1.000000 0.000000 0.951800 0.490100
2 -243.763702 -166.880371 163.464203 0.000000 -1.000000 0.000000 0.991700 0.490100
tile_ston06.jpg
2 -243.763702 -166.880371 250.060898 0.000000 0.000000 1.000000 0.950200 0.999500
2 -243.763702 -75.472778 250.060898 0.000000 0.000000 1.000000 0.564900 0.999500
2 -253.350693 -75.472778 250.060898 0.000000 0.000000 1.000000 0.564900 0.935300
tile_ston06.jpg
2 -253.350693 -75.472778 250.060898 0.000000 0.000000 1.000000 0.564900 0.935300
2 -253.350693 -166.880371 250.060898 0.000000 0.000000 1.000000 0.950200 0.935300
2 -243.763702 -166.880371 250.060898 0.000000 0.000000 1.000000 0.950200 0.999500
tile_ston06.jpg
2 -243.763702 -75.472778 250.060898 0.000000 1.000000 0.000000 0.510200 0.993000
2 -243.763702 -75.472778 163.464203 0.000000 1.000000 0.000000 0.510200 0.490100
2 -253.350693 -75.472778 163.464203 0.000000 1.000000 0.000000 0.558700 0.490100
tile_ston06.jpg
2 -253.350693 -75.472778 163.464203 0.000000 1.000000 0.000000 0.558700 0.490100
2 -253.350693 -75.472778 250.060898 0.000000 1.000000 0.000000 0.558700 0.993000
2 -243.763702 -75.472778 250.060898 0.000000 1.000000 0.000000 0.510200 0.993000
tile_ston06.jpg
2 154.378693 96.899902 122.021103 1.000000 0.000000 0.000000 0.558700 0.490100
2 154.378693 188.307495 122.021103 1.000000 0.000000 0.000000 0.951800 0.490100
2 154.378693 188.307495 208.617798 1.000000 0.000000 0.000000 0.951800 0.993000
tile_ston06.jpg
2 154.378693 188.307495 208.617798 1.000000 0.000000 0.000000 0.951800 0.993000
2 154.378693 96.899902 208.617798 1.000000 0.000000 0.000000 0.558700 0.993000
2 154.378693 96.899902 122.021103 1.000000 0.000000 0.000000 0.558700 0.490100
tile_ston06.jpg
2 144.791794 96.899902 122.021103 0.000000 0.000000 -1.000000 0.564900 0.999500
2 144.791794 188.307495 122.021103 0.000000 0.000000 -1.000000 0.950200 0.999500
2 154.378693 188.307495 122.021103 0.000000 0.000000 -1.000000 0.950200 0.935300
tile_ston06.jpg
2 154.378693 188.307495 122.021103 0.000000 0.000000 -1.000000 0.950200 0.935300
2 154.378693 96.899902 122.021103 0.000000 0.000000 -1.000000 0.564900 0.935300
2 144.791794 96.899902 122.021103 0.000000 0.000000 -1.000000 0.564900 0.999500
tile_ston06.jpg
2 144.791794 188.307495 122.021103 0.000000 1.000000 0.000000 0.991700 0.490100
2 144.791794 188.307495 208.617798 0.000000 1.000000 0.000000 0.991700 0.993000
2 154.378693 188.307495 208.617798 0.000000 1.000000 0.000000 0.951800 0.993000
tile_ston06.jpg
2 154.378693 188.307495 208.617798 0.000000 1.000000 0.000000 0.951800 0.993000
2 154.378693 188.307495 122.021103 0.000000 1.000000 0.000000 0.951800 0.490100
2 144.791794 188.307495 122.021103 0.000000 1.000000 0.000000 0.991700 0.490100
tile_ston06.jpg
2 144.791794 188.307495 208.617798 0.000000 0.000000 1.000000 0.950200 0.999500
2 144.791794 96.899902 208.617798 0.000000 0.000000 1.000000 0.564900 0.999500
2 154.378693 96.899902 208.617798 0.000000 0.000000 1.000000 0.564900 0.935300
tile_ston06.jpg
2 154.378693 96.899902 208.617798 0.000000 0.000000 1.000000 0.564900 0.935300
2 154.378693 188.307495 208.617798 0.000000 0.000000 1.000000 0.950200 0.935300
2 144.791794 188.307495 208.617798 0.000000 0.000000 1.000000 0.950200 0.999500
tile_ston06.jpg
2 144.791794 96.899902 208.617798 0.000000 -1.000000 0.000000 0.510200 0.993000
2 144.791794 96.899902 122.021103 0.000000 -1.000000 0.000000 0.510200 0.490100
2 154.378693 96.899902 122.021103 0.000000 -1.000000 0.000000 0.558700 0.490100
tile_ston06.jpg
2 154.378693 96.899902 122.021103 0.000000 -1.000000 0.000000 0.558700 0.490100
2 154.378693 96.899902 208.617798 0.000000 -1.000000 0.000000 0.558700 0.993000
2 144.791794 96.899902 208.617798 0.000000 -1.000000 0.000000 0.510200 0.993000
end
