version 1
nodes
0 "Cylinder02" -1
end
skeleton
time 0
0 0.328889 8.644060 0.008728 -0.000000 -0.000000 -0.000000
end
triangles
stone_statue01.jpg
0 66.437202 -2.308400 156.611496 0.850619 -0.524312 -0.039301 0.499000 0.321700
0 85.729500 49.120300 199.978394 0.856481 0.492389 -0.154897 0.625700 0.410900
0 80.035599 -88.457802 198.109695 0.908184 -0.306095 -0.285495 0.374300 0.416800
stone_statue01.jpg
0 66.437202 -2.308400 156.611496 0.850619 -0.524312 -0.039301 0.499000 0.321700
0 64.939796 55.874496 156.611496 0.634509 0.758711 0.147502 0.686600 0.314400
0 85.729500 49.120300 199.978394 0.856481 0.492389 -0.154897 0.625700 0.410900
stone_statue01.jpg
0 64.939796 55.874496 156.611496 0.634509 0.758711 0.147502 0.686600 0.314400
0 0.328900 97.106400 193.164200 0.000000 0.981628 -0.190805 0.762700 0.396900
0 85.729500 49.120300 199.978394 0.856481 0.492389 -0.154897 0.625700 0.410900
stone_statue01.jpg
0 64.939796 55.874496 156.611496 0.634509 0.758711 0.147502 0.686600 0.314400
0 0.328900 78.697899 155.724594 0.000000 0.987630 -0.156805 0.762700 0.319800
0 0.328900 97.106400 193.164200 0.000000 0.981628 -0.190805 0.762700 0.396900
stone_statue01.jpg
0 -34.671600 -51.659004 156.611496 -0.432897 -0.814194 -0.386897 0.146000 0.321700
0 36.522800 -139.451904 200.597702 0.391079 -0.855855 -0.338482 0.308600 0.424300
0 -35.865002 -139.451904 200.597702 -0.381313 -0.923032 -0.051102 0.224900 0.409800
stone_statue01.jpg
0 -34.671600 -51.659004 156.611496 -0.432897 -0.814194 -0.386897 0.146000 0.321700
0 35.329399 -51.659004 156.611496 0.563799 -0.738998 -0.368799 0.381700 0.321700
0 36.522800 -139.451904 200.597702 0.391079 -0.855855 -0.338482 0.308600 0.424300
stone_statue01.jpg
0 35.329399 -51.659004 156.611496 0.563799 -0.738998 -0.368799 0.381700 0.321700
0 80.035599 -88.457802 198.109695 0.908184 -0.306095 -0.285495 0.374300 0.416800
0 36.522800 -139.451904 200.597702 0.391079 -0.855855 -0.338482 0.308600 0.424300
stone_statue01.jpg
0 35.329399 -51.659004 156.611496 0.563799 -0.738998 -0.368799 0.381700 0.321700
0 66.437202 -2.308400 156.611496 0.850619 -0.524312 -0.039301 0.499000 0.321700
0 80.035599 -88.457802 198.109695 0.908184 -0.306095 -0.285495 0.374300 0.416800
stone_statue01.jpg
0 80.035599 -88.457802 198.109695 0.908184 -0.306095 -0.285495 0.374300 0.416800
0 78.031799 57.146698 308.700806 0.923177 0.381491 0.046999 0.642100 0.634800
0 71.282898 -71.824203 275.423706 0.819403 -0.519302 0.242701 0.401900 0.566300
stone_statue01.jpg
0 80.035599 -88.457802 198.109695 0.908184 -0.306095 -0.285495 0.374300 0.416800
0 85.729500 49.120300 199.978394 0.856481 0.492389 -0.154897 0.625700 0.410900
0 78.031799 57.146698 308.700806 0.923177 0.381491 0.046999 0.642100 0.634800
stone_statue01.jpg
0 85.729500 49.120300 199.978394 0.856481 0.492389 -0.154897 0.625700 0.410900
0 0.328900 106.067200 303.809814 0.000000 0.999523 -0.030901 0.762700 0.624700
0 78.031799 57.146698 308.700806 0.923177 0.381491 0.046999 0.642100 0.634800
stone_statue01.jpg
0 85.729500 49.120300 199.978394 0.856481 0.492389 -0.154897 0.625700 0.410900
0 0.328900 97.106400 193.164200 0.000000 0.981628 -0.190805 0.762700 0.396900
0 0.328900 106.067200 303.809814 0.000000 0.999523 -0.030901 0.762700 0.624700
stone_statue01.jpg
0 -35.865002 -139.451904 200.597702 -0.381313 -0.923032 -0.051102 0.224900 0.409800
0 25.115999 -82.000298 309.009796 0.426198 -0.877195 0.221099 0.302200 0.635400
0 -24.458300 -82.000298 309.009796 -0.466190 -0.884682 -0.002200 0.217700 0.635400
stone_statue01.jpg
0 -35.865002 -139.451904 200.597702 -0.381313 -0.923032 -0.051102 0.224900 0.409800
0 36.522800 -139.451904 200.597702 0.391079 -0.855855 -0.338482 0.308600 0.424300
0 25.115999 -82.000298 309.009796 0.426198 -0.877195 0.221099 0.302200 0.635400
stone_statue01.jpg
0 36.522800 -139.451904 200.597702 0.391079 -0.855855 -0.338482 0.308600 0.424300
0 71.282898 -71.824203 275.423706 0.819403 -0.519302 0.242701 0.401900 0.566300
0 25.115999 -82.000298 309.009796 0.426198 -0.877195 0.221099 0.302200 0.635400
stone_statue01.jpg
0 36.522800 -139.451904 200.597702 0.391079 -0.855855 -0.338482 0.308600 0.424300
0 80.035599 -88.457802 198.109695 0.908184 -0.306095 -0.285495 0.374300 0.416800
0 71.282898 -71.824203 275.423706 0.819403 -0.519302 0.242701 0.401900 0.566300
stone_statue01.jpg
0 71.282898 -71.824203 275.423706 0.819403 -0.519302 0.242701 0.401900 0.566300
0 78.031799 57.146698 308.700806 0.923177 0.381491 0.046999 0.642100 0.634800
0 67.465302 -28.379698 362.603394 0.833109 -0.481605 0.272003 0.485200 0.745700
stone_statue01.jpg
0 25.115999 -82.000298 309.009796 0.426198 -0.877195 0.221099 0.302200 0.635400
0 67.465302 -28.379698 362.603394 0.833109 -0.481605 0.272003 0.485200 0.745700
0 20.516500 -51.779999 366.749512 0.778695 -0.527097 0.340298 0.314600 0.768800
stone_statue01.jpg
0 25.115999 -82.000298 309.009796 0.426198 -0.877195 0.221099 0.302200 0.635400
0 71.282898 -71.824203 275.423706 0.819403 -0.519302 0.242701 0.401900 0.566300
0 67.465302 -28.379698 362.603394 0.833109 -0.481605 0.272003 0.485200 0.745700
stone_statue01.jpg
0 67.465302 -28.379698 362.603394 0.833109 -0.481605 0.272003 0.485200 0.745700
0 68.686897 65.701103 403.220093 0.872485 0.486892 0.041299 0.607100 0.829300
0 67.380600 5.811900 404.948700 0.914194 -0.384198 0.128999 0.462400 0.820800
stone_statue01.jpg
0 67.465302 -28.379698 362.603394 0.833109 -0.481605 0.272003 0.485200 0.745700
0 78.031799 57.146698 308.700806 0.923177 0.381491 0.046999 0.642100 0.634800
0 68.686897 65.701103 403.220093 0.872485 0.486892 0.041299 0.607100 0.829300
stone_statue01.jpg
0 78.031799 57.146698 308.700806 0.923177 0.381491 0.046999 0.642100 0.634800
0 0.328900 105.968498 400.853790 0.000000 1.000000 0.000800 0.762700 0.824500
0 68.686897 65.701103 403.220093 0.872485 0.486892 0.041299 0.607100 0.829300
stone_statue01.jpg
0 78.031799 57.146698 308.700806 0.923177 0.381491 0.046999 0.642100 0.634800
0 0.328900 106.067200 303.809814 0.000000 0.999523 -0.030901 0.762700 0.624700
0 0.328900 105.968498 400.853790 0.000000 1.000000 0.000800 0.762700 0.824500
stone_statue01.jpg
0 -11.762200 -123.198608 330.528687 -0.586728 -0.786837 0.191409 0.246300 0.672400
0 9.566300 -49.961205 418.439514 0.503893 -0.796789 0.333495 0.274700 0.887200
0 -8.908500 -49.961205 418.439514 -0.588989 -0.761386 0.270895 0.237100 0.884800
stone_statue01.jpg
0 -11.762200 -123.198608 330.528687 -0.586728 -0.786837 0.191409 0.246300 0.672400
0 12.420000 -123.198608 330.528687 0.621901 -0.740001 -0.256200 0.273200 0.679700
0 9.566300 -49.961205 418.439514 0.503893 -0.796789 0.333495 0.274700 0.887200
stone_statue01.jpg
0 20.516500 -51.779999 366.749512 0.778695 -0.527097 0.340298 0.314600 0.768800
0 67.465302 -28.379698 362.603394 0.833109 -0.481605 0.272003 0.485200 0.745700
0 67.380600 5.811900 404.948700 0.914194 -0.384198 0.128999 0.462400 0.820800
stone_statue01.jpg
0 67.380600 5.811900 404.948700 0.914194 -0.384198 0.128999 0.462400 0.820800
0 59.373299 71.007401 475.006500 0.745900 0.275300 0.606500 0.675600 0.977100
0 54.222099 24.733500 477.940399 0.695527 -0.225709 0.682127 0.625500 0.983200
stone_statue01.jpg
0 67.380600 5.811900 404.948700 0.914194 -0.384198 0.128999 0.462400 0.820800
0 68.686897 65.701103 403.220093 0.872485 0.486892 0.041299 0.607100 0.829300
0 59.373299 71.007401 475.006500 0.745900 0.275300 0.606500 0.675600 0.977100
stone_statue01.jpg
0 68.686897 65.701103 403.220093 0.872485 0.486892 0.041299 0.607100 0.829300
0 0.328900 103.447502 474.787598 0.000000 0.889003 0.457902 0.762700 0.976700
0 59.373299 71.007401 475.006500 0.745900 0.275300 0.606500 0.675600 0.977100
stone_statue01.jpg
0 68.686897 65.701103 403.220093 0.872485 0.486892 0.041299 0.607100 0.829300
0 0.328900 105.968498 400.853790 0.000000 1.000000 0.000800 0.762700 0.824500
0 0.328900 103.447502 474.787598 0.000000 0.889003 0.457902 0.762700 0.976700
stone_statue01.jpg
0 -8.908500 -49.961205 418.439514 -0.588989 -0.761386 0.270895 0.237100 0.884800
0 9.566300 -49.961205 418.439514 0.503893 -0.796789 0.333495 0.274700 0.887200
0 0.328900 -17.273701 480.423706 0.000000 -0.699870 0.714270 0.262700 0.988300
stone_statue01.jpg
0 62.243301 -19.536699 418.753998 0.717399 -0.696599 -0.009400 0.426300 0.863700
0 67.380600 5.811900 404.948700 0.914194 -0.384198 0.128999 0.462400 0.820800
0 54.222099 24.733500 477.940399 0.695527 -0.225709 0.682127 0.625500 0.983200
stone_statue01.jpg
0 0.328900 38.456402 485.878693 0.000000 0.046501 0.998918 0.762700 0.999500
0 54.222099 24.733500 477.940399 0.695527 -0.225709 0.682127 0.625500 0.983200
0 59.373299 71.007401 475.006500 0.745900 0.275300 0.606500 0.675600 0.977100
stone_statue01.jpg
0 0.328900 38.456402 485.878693 0.000000 0.046501 0.998918 0.762700 0.999500
0 59.373299 71.007401 475.006500 0.745900 0.275300 0.606500 0.675600 0.977100
0 0.328900 103.447502 474.787598 0.000000 0.889003 0.457902 0.762700 0.976700
stone_statue01.jpg
0 -24.458300 -82.000298 309.009796 -0.466190 -0.884682 -0.002200 0.217700 0.635400
0 25.115999 -82.000298 309.009796 0.426198 -0.877195 0.221099 0.302200 0.635400
0 12.420000 -123.198608 330.528687 0.621901 -0.740001 -0.256200 0.273200 0.679700
stone_statue01.jpg
0 12.420000 -123.198608 330.528687 0.621901 -0.740001 -0.256200 0.273200 0.679700
0 -11.762200 -123.198608 330.528687 -0.586728 -0.786837 0.191409 0.246300 0.672400
0 -24.458300 -82.000298 309.009796 -0.466190 -0.884682 -0.002200 0.217700 0.635400
stone_statue01.jpg
0 25.115999 -82.000298 309.009796 0.426198 -0.877195 0.221099 0.302200 0.635400
0 20.516500 -51.779999 366.749512 0.778695 -0.527097 0.340298 0.314600 0.768800
0 12.420000 -123.198608 330.528687 0.621901 -0.740001 -0.256200 0.273200 0.679700
stone_statue01.jpg
0 9.566300 -49.961205 418.439514 0.503893 -0.796789 0.333495 0.274700 0.887200
0 12.420000 -123.198608 330.528687 0.621901 -0.740001 -0.256200 0.273200 0.679700
0 20.516500 -51.779999 366.749512 0.778695 -0.527097 0.340298 0.314600 0.768800
stone_statue01.jpg
0 62.243301 -19.536699 418.753998 0.717399 -0.696599 -0.009400 0.426300 0.863700
0 54.222099 24.733500 477.940399 0.695527 -0.225709 0.682127 0.625500 0.983200
0 0.328900 -17.273701 480.423706 0.000000 -0.699870 0.714270 0.262700 0.988300
stone_statue01.jpg
0 0.328900 -17.273701 480.423706 0.000000 -0.699870 0.714270 0.262700 0.988300
0 9.566300 -49.961205 418.439514 0.503893 -0.796789 0.333495 0.274700 0.887200
0 62.243301 -19.536699 418.753998 0.717399 -0.696599 -0.009400 0.426300 0.863700
stone_statue01.jpg
0 62.243301 -19.536699 418.753998 0.717399 -0.696599 -0.009400 0.426300 0.863700
0 9.566300 -49.961205 418.439514 0.503893 -0.796789 0.333495 0.274700 0.887200
0 16.920000 -31.821402 397.606415 0.730179 -0.668381 -0.141796 0.312100 0.837100
stone_statue01.jpg
0 16.920000 -31.821402 397.606415 0.730179 -0.668381 -0.141796 0.312100 0.837100
0 67.380600 5.811900 404.948700 0.914194 -0.384198 0.128999 0.462400 0.820800
0 62.243301 -19.536699 418.753998 0.717399 -0.696599 -0.009400 0.426300 0.863700
stone_statue01.jpg
0 16.920000 -31.821402 397.606415 0.730179 -0.668381 -0.141796 0.312100 0.837100
0 20.516500 -51.779999 366.749512 0.778695 -0.527097 0.340298 0.314600 0.768800
0 67.380600 5.811900 404.948700 0.914194 -0.384198 0.128999 0.462400 0.820800
stone_statue01.jpg
0 16.920000 -31.821402 397.606415 0.730179 -0.668381 -0.141796 0.312100 0.837100
0 9.566300 -49.961205 418.439514 0.503893 -0.796789 0.333495 0.274700 0.887200
0 20.516500 -51.779999 366.749512 0.778695 -0.527097 0.340298 0.314600 0.768800
stone_statue01.jpg
0 -65.779404 -2.308400 156.611496 -0.928493 -0.359697 0.092299 0.003500 0.321700
0 -79.377899 -88.457802 198.109695 -0.908184 -0.306095 -0.285495 0.133900 0.407100
0 -85.071701 49.120300 199.978394 -0.856481 0.492389 -0.154897 -0.097400 0.410900
stone_statue01.jpg
0 -65.779404 -2.308400 156.611496 -0.928493 -0.359697 0.092299 0.977900 0.321700
0 -85.071701 49.120300 199.978394 -0.856481 0.492389 -0.154897 0.902600 0.410900
0 -64.281998 55.874496 156.611496 -0.545396 0.837694 0.028500 0.872300 0.321700
stone_statue01.jpg
0 -64.281998 55.874496 156.611496 -0.545396 0.837694 0.028500 0.872300 0.321700
0 -85.071701 49.120300 199.978394 -0.856481 0.492389 -0.154897 0.902600 0.410900
0 0.328900 97.106400 193.164200 0.000000 0.981628 -0.190805 0.762700 0.396900
stone_statue01.jpg
0 -64.281998 55.874496 156.611496 -0.545396 0.837694 0.028500 0.872300 0.321700
0 0.328900 97.106400 193.164200 0.000000 0.981628 -0.190805 0.762700 0.396900
0 0.328900 78.697899 155.724594 0.000000 0.987630 -0.156805 0.762700 0.319800
stone_statue01.jpg
0 -34.671600 -51.659004 156.611496 -0.432897 -0.814194 -0.386897 0.146000 0.321700
0 -35.865002 -139.451904 200.597702 -0.381313 -0.923032 -0.051102 0.224900 0.409800
0 -79.377899 -88.457802 198.109695 -0.908184 -0.306095 -0.285495 0.133900 0.407100
stone_statue01.jpg
0 -34.671600 -51.659004 156.611496 -0.432897 -0.814194 -0.386897 0.146000 0.321700
0 -79.377899 -88.457802 198.109695 -0.908184 -0.306095 -0.285495 0.133900 0.407100
0 -65.779404 -2.308400 156.611496 -0.928493 -0.359697 0.092299 0.003500 0.321700
stone_statue01.jpg
0 -79.377899 -88.457802 198.109695 -0.908184 -0.306095 -0.285495 0.133900 0.407100
0 -70.625099 -71.824203 275.423706 -0.819403 -0.519302 0.242701 0.126400 0.566300
0 -77.374001 57.146698 308.700806 -0.923177 0.381491 0.046999 -0.114300 0.634800
stone_statue01.jpg
0 -79.377899 -88.457802 198.109695 -0.908184 -0.306095 -0.285495 0.133900 0.407100
0 -77.374001 57.146698 308.700806 -0.923177 0.381491 0.046999 -0.114300 0.634800
0 -85.071701 49.120300 199.978394 -0.856481 0.492389 -0.154897 -0.097400 0.410900
stone_statue01.jpg
0 -85.071701 49.120300 199.978394 -0.856481 0.492389 -0.154897 0.902600 0.410900
0 -77.374001 57.146698 308.700806 -0.923177 0.381491 0.046999 0.885700 0.634800
0 0.328900 106.067200 303.809814 0.000000 0.999523 -0.030901 0.762700 0.624700
stone_statue01.jpg
0 -85.071701 49.120300 199.978394 -0.856481 0.492389 -0.154897 0.902600 0.410900
0 0.328900 106.067200 303.809814 0.000000 0.999523 -0.030901 0.762700 0.624700
0 0.328900 97.106400 193.164200 0.000000 0.981628 -0.190805 0.762700 0.396900
stone_statue01.jpg
0 -35.865002 -139.451904 200.597702 -0.381313 -0.923032 -0.051102 0.224900 0.409800
0 -24.458300 -82.000298 309.009796 -0.466190 -0.884682 -0.002200 0.217700 0.635400
0 -70.625099 -71.824203 275.423706 -0.819403 -0.519302 0.242701 0.126400 0.566300
stone_statue01.jpg
0 -35.865002 -139.451904 200.597702 -0.381313 -0.923032 -0.051102 0.224900 0.409800
0 -70.625099 -71.824203 275.423706 -0.819403 -0.519302 0.242701 0.126400 0.566300
0 -79.377899 -88.457802 198.109695 -0.908184 -0.306095 -0.285495 0.133900 0.407100
stone_statue01.jpg
0 -70.625099 -71.824203 275.423706 -0.819403 -0.519302 0.242701 0.126400 0.566300
0 -66.807503 -28.379698 362.603394 -0.833109 -0.481605 0.272003 0.045100 0.745700
0 -77.374001 57.146698 308.700806 -0.923177 0.381491 0.046999 -0.114300 0.634800
stone_statue01.jpg
0 -24.458300 -82.000298 309.009796 -0.466190 -0.884682 -0.002200 0.217700 0.635400
0 -19.858700 -51.779900 366.749512 -0.778695 -0.527097 0.340298 0.211900 0.771200
0 -66.807503 -28.379698 362.603394 -0.833109 -0.481605 0.272003 0.045100 0.745700
stone_statue01.jpg
0 -24.458300 -82.000298 309.009796 -0.466190 -0.884682 -0.002200 0.217700 0.635400
0 -66.807503 -28.379698 362.603394 -0.833109 -0.481605 0.272003 0.045100 0.745700
0 -70.625099 -71.824203 275.423706 -0.819403 -0.519302 0.242701 0.126400 0.566300
stone_statue01.jpg
0 -66.807503 -28.379698 362.603394 -0.833109 -0.481605 0.272003 0.045100 0.745700
0 -66.722801 5.811900 404.948700 -0.914194 -0.384198 0.128999 0.037800 0.837700
0 -68.029198 65.701103 403.220093 -0.872485 0.486892 0.041299 0.018700 0.817300
stone_statue01.jpg
0 -66.807503 -28.379698 362.603394 -0.833109 -0.481605 0.272003 0.045100 0.745700
0 -68.029198 65.701103 403.220093 -0.872485 0.486892 0.041299 0.018700 0.817300
0 -77.374001 57.146698 308.700806 -0.923177 0.381491 0.046999 -0.114300 0.634800
stone_statue01.jpg
0 -77.374001 57.146698 308.700806 -0.923177 0.381491 0.046999 0.885700 0.634800
0 -68.029198 65.701103 403.220093 -0.872485 0.486892 0.041299 0.866800 0.829300
0 0.328900 105.968498 400.853790 0.000000 1.000000 0.000800 0.762700 0.824500
stone_statue01.jpg
0 -77.374001 57.146698 308.700806 -0.923177 0.381491 0.046999 0.885700 0.634800
0 0.328900 105.968498 400.853790 0.000000 1.000000 0.000800 0.762700 0.824500
0 0.328900 106.067200 303.809814 0.000000 0.999523 -0.030901 0.762700 0.624700
stone_statue01.jpg
0 -19.858700 -51.779900 366.749512 -0.778695 -0.527097 0.340298 0.211900 0.771200
0 -66.722801 5.811900 404.948700 -0.914194 -0.384198 0.128999 0.037800 0.837700
0 -66.807503 -28.379698 362.603394 -0.833109 -0.481605 0.272003 0.045100 0.745700
stone_statue01.jpg
0 -66.722801 5.811900 404.948700 -0.914194 -0.384198 0.128999 0.958900 0.832900
0 -53.564400 24.733500 477.940399 -0.695527 -0.225709 0.682127 0.902800 0.983200
0 -58.715500 71.007401 475.006500 -0.745900 0.275300 0.606500 0.851100 0.977100
stone_statue01.jpg
0 -66.722801 5.811900 404.948700 -0.914194 -0.384198 0.128999 0.958900 0.832900
0 -58.715500 71.007401 475.006500 -0.745900 0.275300 0.606500 0.851100 0.977100
0 -68.029198 65.701103 403.220093 -0.872485 0.486892 0.041299 0.866800 0.829300
stone_statue01.jpg
0 -68.029198 65.701103 403.220093 -0.872485 0.486892 0.041299 0.866800 0.829300
0 -58.715500 71.007401 475.006500 -0.745900 0.275300 0.606500 0.851100 0.977100
0 0.328900 103.447502 474.787598 0.000000 0.889003 0.457902 0.762700 0.976700
stone_statue01.jpg
0 -68.029198 65.701103 403.220093 -0.872485 0.486892 0.041299 0.866800 0.829300
0 0.328900 103.447502 474.787598 0.000000 0.889003 0.457902 0.762700 0.976700
0 0.328900 105.968498 400.853790 0.000000 1.000000 0.000800 0.762700 0.824500
stone_statue01.jpg
0 -61.585499 -19.536699 418.753998 -0.717399 -0.696599 -0.009400 0.108100 0.873400
0 -53.564400 24.733500 477.940399 -0.695527 -0.225709 0.682127 -0.097200 0.983200
0 -66.722801 5.811900 404.948700 -0.914194 -0.384198 0.128999 0.037800 0.837700
stone_statue01.jpg
0 0.328900 38.456402 485.878693 0.000000 0.046501 0.998918 0.762700 0.999500
0 -58.715500 71.007401 475.006500 -0.745900 0.275300 0.606500 0.851100 0.977100
0 -53.564400 24.733500 477.940399 -0.695527 -0.225709 0.682127 0.902800 0.983200
stone_statue01.jpg
0 0.328900 38.456402 485.878693 0.000000 0.046501 0.998918 0.762700 0.999500
0 0.328900 103.447502 474.787598 0.000000 0.889003 0.457902 0.762700 0.976700
0 -58.715500 71.007401 475.006500 -0.745900 0.275300 0.606500 0.851100 0.977100
stone_statue01.jpg
0 -24.458300 -82.000298 309.009796 -0.466190 -0.884682 -0.002200 0.217700 0.635400
0 -11.762200 -123.198608 330.528687 -0.586728 -0.786837 0.191409 0.246300 0.672400
0 -19.858700 -51.779900 366.749512 -0.778695 -0.527097 0.340298 0.211900 0.771200
stone_statue01.jpg
0 -8.908500 -49.961205 418.439514 -0.588989 -0.761386 0.270895 0.237100 0.884800
0 -19.858700 -51.779900 366.749512 -0.778695 -0.527097 0.340298 0.211900 0.771200
0 -11.762200 -123.198608 330.528687 -0.586728 -0.786837 0.191409 0.246300 0.672400
stone_statue01.jpg
0 -61.585499 -19.536699 418.753998 -0.717399 -0.696599 -0.009400 0.108100 0.873400
0 0.328900 -17.273701 480.423706 0.000000 -0.699870 0.714270 0.262700 0.988300
0 -53.564400 24.733500 477.940399 -0.695527 -0.225709 0.682127 -0.097200 0.983200
stone_statue01.jpg
0 0.328900 -17.273701 480.423706 0.000000 -0.699870 0.714270 0.262700 0.988300
0 -61.585499 -19.536699 418.753998 -0.717399 -0.696599 -0.009400 0.108100 0.873400
0 -8.908500 -49.961205 418.439514 -0.588989 -0.761386 0.270895 0.237100 0.884800
stone_statue01.jpg
0 -61.585499 -19.536699 418.753998 -0.717399 -0.696599 -0.009400 0.108100 0.873400
0 -16.262300 -31.821402 397.606293 -0.730179 -0.668381 -0.141796 0.174400 0.822600
0 -8.908500 -49.961205 418.439514 -0.588989 -0.761386 0.270895 0.237100 0.884800
stone_statue01.jpg
0 -16.262300 -31.821402 397.606293 -0.730179 -0.668381 -0.141796 0.174400 0.822600
0 -61.585499 -19.536699 418.753998 -0.717399 -0.696599 -0.009400 0.108100 0.873400
0 -66.722801 5.811900 404.948700 -0.914194 -0.384198 0.128999 0.037800 0.837700
stone_statue01.jpg
0 -16.262300 -31.821402 397.606293 -0.730179 -0.668381 -0.141796 0.174400 0.822600
0 -66.722801 5.811900 404.948700 -0.914194 -0.384198 0.128999 0.037800 0.837700
0 -19.858700 -51.779900 366.749512 -0.778695 -0.527097 0.340298 0.211900 0.771200
stone_statue01.jpg
0 -16.262300 -31.821402 397.606293 -0.730179 -0.668381 -0.141796 0.174400 0.822600
0 -19.858700 -51.779900 366.749512 -0.778695 -0.527097 0.340298 0.211900 0.771200
0 -8.908500 -49.961205 418.439514 -0.588989 -0.761386 0.270895 0.237100 0.884800
stone_statue01.jpg
0 119.528801 -10.134100 115.170799 0.858658 -0.236588 0.454678 0.562300 0.229100
0 134.953705 -16.492800 0.606600 0.607687 -0.775083 0.173096 0.515500 0.000500
0 132.851303 44.656601 0.606500 0.931385 0.352194 0.092098 0.589400 0.000500
stone_statue01.jpg
0 119.528801 -10.134100 115.170799 0.858658 -0.236588 0.454678 0.562300 0.229100
0 132.851303 44.656601 0.606500 0.931385 0.352194 0.092098 0.589400 0.000500
0 117.783997 49.162796 115.170799 0.745709 0.594707 0.300403 0.639700 0.229100
stone_statue01.jpg
0 64.939796 55.874496 156.611496 0.634509 0.758711 0.147502 0.686600 0.314400
0 91.045403 68.040100 0.603600 0.324298 0.943095 0.073500 0.640700 0.000500
0 0.328900 93.156197 0.603700 0.000000 0.995841 0.091104 0.762700 0.000500
stone_statue01.jpg
0 64.939796 55.874496 156.611496 0.634509 0.758711 0.147502 0.686600 0.314400
0 0.328900 93.156197 0.603700 0.000000 0.995841 0.091104 0.762700 0.000500
0 0.328900 78.697899 155.724594 0.000000 0.987630 -0.156805 0.762700 0.319800
stone_statue01.jpg
0 -34.671600 -51.659004 156.611496 -0.432897 -0.814194 -0.386897 0.146000 0.321700
0 -48.813301 -96.490799 0.603700 -0.417794 -0.875388 0.243197 0.181800 0.000500
0 49.471100 -96.490799 0.603700 0.275303 -0.929509 0.245402 0.344800 0.000500
stone_statue01.jpg
0 -34.671600 -51.659004 156.611496 -0.432897 -0.814194 -0.386897 0.146000 0.321700
0 49.471100 -96.490799 0.603700 0.275303 -0.929509 0.245402 0.344800 0.000500
0 35.329399 -51.659004 156.611496 0.563799 -0.738998 -0.368799 0.381700 0.321700
stone_statue01.jpg
0 35.329399 -51.659004 156.611496 0.563799 -0.738998 -0.368799 0.381700 0.321700
0 49.471100 -96.490799 0.603700 0.275303 -0.929509 0.245402 0.344800 0.000500
0 93.147797 -42.831604 0.603800 0.711132 -0.662830 0.234411 0.467400 0.000500
stone_statue01.jpg
0 35.329399 -51.659004 156.611496 0.563799 -0.738998 -0.368799 0.381700 0.321700
0 93.147797 -42.831604 0.603800 0.711132 -0.662830 0.234411 0.467400 0.000500
0 66.437202 -2.308400 156.611496 0.850619 -0.524312 -0.039301 0.499000 0.321700
stone_statue01.jpg
0 -118.871002 -10.134100 115.170799 -0.835123 -0.443412 0.325509 -0.018000 0.236400
0 -132.193497 44.656601 0.606500 -0.797488 0.594991 0.099998 -0.060000 0.000500
0 -134.295898 -16.492800 0.606600 -0.877013 -0.465007 0.120902 0.015000 0.000500
stone_statue01.jpg
0 -118.871002 -10.134100 115.170799 -0.835123 -0.443412 0.325509 -0.018000 0.236400
0 -117.126297 49.162796 115.170799 -0.795593 0.342397 0.499796 -0.096800 0.236400
0 -132.193497 44.656601 0.606500 -0.797488 0.594991 0.099998 -0.060000 0.000500
stone_statue01.jpg
0 -64.281998 55.874496 156.611496 -0.545396 0.837694 0.028500 0.872300 0.321700
0 0.328900 93.156197 0.603700 0.000000 0.995841 0.091104 0.762700 0.000500
0 -90.387703 68.040100 0.603600 -0.377604 0.919009 0.113301 0.887100 0.000500
stone_statue01.jpg
0 -64.281998 55.874496 156.611496 -0.545396 0.837694 0.028500 0.872300 0.321700
0 0.328900 78.697899 155.724594 0.000000 0.987630 -0.156805 0.762700 0.319800
0 0.328900 93.156197 0.603700 0.000000 0.995841 0.091104 0.762700 0.000500
stone_statue01.jpg
0 -34.671600 -51.659004 156.611496 -0.432897 -0.814194 -0.386897 0.146000 0.321700
0 -92.489998 -42.831604 0.603800 -0.580791 -0.788388 0.202797 0.062600 0.000500
0 -48.813301 -96.490799 0.603700 -0.417794 -0.875388 0.243197 0.181800 0.000500
stone_statue01.jpg
0 -34.671600 -51.659004 156.611496 -0.432897 -0.814194 -0.386897 0.146000 0.321700
0 -65.779404 -2.308400 156.611496 -0.928493 -0.359697 0.092299 0.003500 0.321700
0 -92.489998 -42.831604 0.603800 -0.580791 -0.788388 0.202797 0.062600 0.000500
stone_statue01.jpg
0 54.222099 24.733500 477.940399 0.695527 -0.225709 0.682127 0.625500 0.983200
0 0.328900 38.456402 485.878693 0.000000 0.046501 0.998918 -0.237300 0.999500
0 0.328900 -17.273701 480.423706 0.000000 -0.699870 0.714270 0.262700 0.988300
stone_statue01.jpg
0 0.328900 38.456402 485.878693 0.000000 0.046501 0.998918 -0.237300 0.999500
0 -53.564400 24.733500 477.940399 -0.695527 -0.225709 0.682127 -0.097200 0.983200
0 0.328900 -17.273701 480.423706 0.000000 -0.699870 0.714270 0.262700 0.988300
stone_statue01.jpg
0 64.939796 55.874496 156.611496 0.634509 0.758711 0.147502 0.686600 0.314400
0 66.437202 -2.308400 156.611496 0.850619 -0.524312 -0.039301 0.499000 0.321700
0 119.528801 -10.134100 115.170799 0.858658 -0.236588 0.454678 0.562300 0.229100
stone_statue01.jpg
0 119.528801 -10.134100 115.170799 0.858658 -0.236588 0.454678 0.562300 0.229100
0 117.783997 49.162796 115.170799 0.745709 0.594707 0.300403 0.639700 0.229100
0 64.939796 55.874496 156.611496 0.634509 0.758711 0.147502 0.686600 0.314400
stone_statue01.jpg
0 -65.779404 -2.308400 156.611496 -0.928493 -0.359697 0.092299 0.977900 0.321700
0 -64.281998 55.874496 156.611496 -0.545396 0.837694 0.028500 0.872300 0.321700
0 -117.126297 49.162796 115.170799 -0.795593 0.342397 0.499796 0.926900 0.236400
stone_statue01.jpg
0 -117.126297 49.162796 115.170799 -0.795593 0.342397 0.499796 -0.096800 0.236400
0 -118.871002 -10.134100 115.170799 -0.835123 -0.443412 0.325509 -0.018000 0.236400
0 -65.779404 -2.308400 156.611496 -0.928493 -0.359697 0.092299 0.003500 0.321700
stone_statue01.jpg
0 66.437202 -2.308400 156.611496 0.850619 -0.524312 -0.039301 0.499000 0.321700
0 93.147797 -42.831604 0.603800 0.711132 -0.662830 0.234411 0.467400 0.000500
0 134.953705 -16.492800 0.606600 0.607687 -0.775083 0.173096 0.515500 0.000500
stone_statue01.jpg
0 134.953705 -16.492800 0.606600 0.607687 -0.775083 0.173096 0.515500 0.000500
0 119.528801 -10.134100 115.170799 0.858658 -0.236588 0.454678 0.562300 0.229100
0 66.437202 -2.308400 156.611496 0.850619 -0.524312 -0.039301 0.499000 0.321700
stone_statue01.jpg
0 91.045403 68.040100 0.603600 0.324298 0.943095 0.073500 0.640700 0.000500
0 64.939796 55.874496 156.611496 0.634509 0.758711 0.147502 0.686600 0.314400
0 117.783997 49.162796 115.170799 0.745709 0.594707 0.300403 0.639700 0.229100
stone_statue01.jpg
0 117.783997 49.162796 115.170799 0.745709 0.594707 0.300403 0.639700 0.229100
0 132.851303 44.656601 0.606500 0.931385 0.352194 0.092098 0.589400 0.000500
0 91.045403 68.040100 0.603600 0.324298 0.943095 0.073500 0.640700 0.000500
stone_statue01.jpg
0 -92.489998 -42.831604 0.603800 -0.580791 -0.788388 0.202797 0.062600 0.000500
0 -65.779404 -2.308400 156.611496 -0.928493 -0.359697 0.092299 0.003500 0.321700
0 -118.871002 -10.134100 115.170799 -0.835123 -0.443412 0.325509 -0.018000 0.236400
stone_statue01.jpg
0 -118.871002 -10.134100 115.170799 -0.835123 -0.443412 0.325509 -0.018000 0.236400
0 -134.295898 -16.492800 0.606600 -0.877013 -0.465007 0.120902 0.015000 0.000500
0 -92.489998 -42.831604 0.603800 -0.580791 -0.788388 0.202797 0.062600 0.000500
stone_statue01.jpg
0 -64.281998 55.874496 156.611496 -0.545396 0.837694 0.028500 0.872300 0.321700
0 -90.387703 68.040100 0.603600 -0.377604 0.919009 0.113301 0.887100 0.000500
0 -132.193497 44.656601 0.606500 -0.797488 0.594991 0.099998 0.940000 0.000500
stone_statue01.jpg
0 -132.193497 44.656601 0.606500 -0.797488 0.594991 0.099998 0.940000 0.000500
0 -117.126297 49.162796 115.170799 -0.795593 0.342397 0.499796 0.926900 0.236400
0 -64.281998 55.874496 156.611496 -0.545396 0.837694 0.028500 0.872300 0.321700
end
