version 1
nodes
0 "Box01" -1
end
skeleton
time 0
0 -0.014404 0.015221 0.000000 0.000000 0.000000 0.000000
end
triangles
deep_wall01.jpg
0 -47.007099 -46.977501 270.122986 0.000000 0.000000 1.000000 0.222900 0.776200
0 46.978298 -46.977501 270.122986 0.000000 0.000000 1.000000 0.222900 0.222700
0 46.978298 47.007999 270.122986 0.000000 0.000000 1.000000 0.776500 0.222700
deep_wall01.jpg
0 46.978298 47.007999 270.122986 0.000000 0.000000 1.000000 0.776500 0.222700
0 -47.007099 47.007999 270.122986 0.000000 0.000000 1.000000 0.776500 0.776200
0 -47.007099 -46.977501 270.122986 0.000000 0.000000 1.000000 0.222900 0.776200
deep_wall01.jpg
0 -100.014397 -99.984802 0.000000 0.000000 -1.000000 0.000000 -0.150200 -0.019800
0 99.985603 -99.984802 0.000000 0.000000 -1.000000 0.000000 1.151400 -0.019800
0 99.985603 -99.984802 61.431599 0.000000 -1.000000 0.000000 1.151400 0.326400
deep_wall01.jpg
0 99.985603 -99.984802 61.431599 0.000000 -1.000000 0.000000 1.151400 0.326400
0 -100.014397 -99.984802 61.431599 0.000000 -1.000000 0.000000 -0.150200 0.326400
0 -100.014397 -99.984802 0.000000 0.000000 -1.000000 0.000000 -0.150200 -0.019800
deep_wall01.jpg
0 -100.014397 -99.984802 61.431599 0.000000 -0.930218 0.367007 -0.150200 0.326400
0 99.985603 -99.984802 61.431599 0.000000 -0.930218 0.367007 1.151400 0.326400
0 84.882599 -84.841202 99.815498 0.000000 -0.930218 0.367007 1.053100 0.542700
deep_wall01.jpg
0 84.882599 -84.841202 99.815498 0.000300 -0.930660 0.365884 1.053100 0.542700
0 -84.981499 -84.890602 99.815498 0.000300 -0.930660 0.365884 -0.052300 0.542700
0 -100.014397 -99.984802 61.431599 0.000300 -0.930660 0.365884 -0.150200 0.326400
deep_wall01.jpg
0 -74.708801 -74.617996 269.819885 0.000300 -0.809885 0.586589 0.014500 1.500800
0 74.610001 -74.568604 269.819885 0.000300 -0.809885 0.586589 0.986200 1.500800
0 62.015999 -62.015202 287.157898 0.000300 -0.809885 0.586589 0.904300 1.598500
deep_wall01.jpg
0 62.015999 -62.015202 287.157898 0.000000 -0.808874 0.587981 0.904300 1.598500
0 -62.044800 -62.015202 287.157898 0.000000 -0.808874 0.587981 0.096900 1.598500
0 -74.708801 -74.617996 269.819885 0.000000 -0.808874 0.587981 0.014500 1.500800
deep_wall01.jpg
0 99.985603 -99.984802 0.000000 1.000000 0.000000 0.000000 -0.155200 -0.018000
0 99.985603 100.015198 0.000000 1.000000 0.000000 0.000000 1.154600 -0.018000
0 99.985603 100.015198 61.431599 1.000000 0.000000 0.000000 1.154600 0.326500
deep_wall01.jpg
0 99.985603 100.015198 61.431599 1.000000 0.000000 0.000000 1.154600 0.326500
0 99.985603 -99.984802 61.431599 1.000000 0.000000 0.000000 -0.155200 0.326500
0 99.985603 -99.984802 0.000000 1.000000 0.000000 0.000000 -0.155200 -0.018000
deep_wall01.jpg
0 99.985603 -99.984802 61.431599 0.930136 0.000000 0.367214 -0.155200 0.326500
0 99.985603 100.015198 61.431599 0.930136 0.000000 0.367214 1.154600 0.326500
0 84.833298 85.022797 99.815498 0.930136 0.000000 0.367214 1.056500 0.541700
deep_wall01.jpg
0 84.833298 85.022797 99.815498 0.930579 0.000300 0.366092 1.056500 0.541700
0 84.882599 -84.841202 99.815498 0.930579 0.000300 0.366092 -0.056100 0.541700
0 99.985603 -99.984802 61.431599 0.930579 0.000300 0.366092 -0.155200 0.326500
deep_wall01.jpg
0 74.610001 -74.568604 269.819885 0.810096 0.000300 0.586297 0.011200 1.494900
0 74.560600 74.750198 269.820007 0.810096 0.000300 0.586297 0.989200 1.494900
0 62.015999 62.045700 287.157898 0.810096 0.000300 0.586297 0.906000 1.592100
deep_wall01.jpg
0 62.015999 62.045700 287.157898 0.809086 0.000000 0.587690 0.906000 1.592100
0 62.015999 -62.015202 287.157898 0.809086 0.000000 0.587690 0.093400 1.592100
0 74.610001 -74.568604 269.819885 0.809086 0.000000 0.587690 0.011200 1.494900
deep_wall01.jpg
0 99.985603 100.015198 0.000000 0.000000 1.000000 0.000000 1.151400 -0.019800
0 -100.014397 100.015198 0.000000 0.000000 1.000000 0.000000 -0.150200 -0.019800
0 -100.014397 100.015198 61.431599 0.000000 1.000000 0.000000 -0.150200 0.326400
deep_wall01.jpg
0 -100.014397 100.015198 61.431599 0.000000 1.000000 0.000000 -0.150200 0.326400
0 99.985603 100.015198 61.431599 0.000000 1.000000 0.000000 1.151400 0.326400
0 99.985603 100.015198 0.000000 0.000000 1.000000 0.000000 1.151400 -0.019800
deep_wall01.jpg
0 99.985603 100.015198 61.431599 0.000000 0.931054 0.364882 1.151400 0.326400
0 -100.014397 100.015198 61.431599 0.000000 0.931054 0.364882 -0.150200 0.326400
0 -85.030800 84.973503 99.815498 0.000000 0.931054 0.364882 -0.052700 0.542700
deep_wall01.jpg
0 -85.030800 84.973503 99.815498 -0.000300 0.931514 0.363705 -0.052700 0.542700
0 84.833298 85.022797 99.815498 -0.000300 0.931514 0.363705 1.052800 0.542700
0 99.985603 100.015198 61.431599 -0.000300 0.931514 0.363705 1.151400 0.326400
deep_wall01.jpg
0 74.560600 74.750198 269.820007 -0.000300 0.807615 0.589711 0.985900 1.500800
0 -74.758202 74.700798 269.820007 -0.000300 0.807615 0.589711 0.014200 1.500800
0 -62.044800 62.045601 287.157898 -0.000300 0.807615 0.589711 0.096900 1.598500
deep_wall01.jpg
0 -62.044800 62.045601 287.157898 0.000000 0.806599 0.591099 0.096900 1.598500
0 62.015999 62.045700 287.157898 0.000000 0.806599 0.591099 0.904300 1.598500
0 74.560600 74.750198 269.820007 0.000000 0.806599 0.591099 0.985900 1.500800
deep_wall01.jpg
0 -100.014397 100.015198 0.000000 -1.000000 0.000000 0.000000 1.154600 -0.018000
0 -100.014397 -99.984802 0.000000 -1.000000 0.000000 0.000000 -0.155200 -0.018000
0 -100.014397 -99.984802 61.431599 -1.000000 0.000000 0.000000 -0.155200 0.326500
deep_wall01.jpg
0 -100.014397 -99.984802 61.431599 -1.000000 0.000000 0.000000 -0.155200 0.326500
0 -100.014397 100.015198 61.431599 -1.000000 0.000000 0.000000 1.154600 0.326500
0 -100.014397 100.015198 0.000000 -1.000000 0.000000 0.000000 1.154600 -0.018000
deep_wall01.jpg
0 -100.014397 100.015198 61.431599 -0.931122 0.000000 0.364709 1.154600 0.326500
0 -100.014397 -99.984802 61.431599 -0.931122 0.000000 0.364709 -0.155200 0.326500
0 -84.981499 -84.890602 99.815498 -0.931122 0.000000 0.364709 -0.056400 0.541700
deep_wall01.jpg
0 -84.981499 -84.890602 99.815498 -0.931595 -0.000300 0.363498 -0.056400 0.541700
0 -85.030800 84.973503 99.815498 -0.931595 -0.000300 0.363498 1.056100 0.541700
0 -100.014397 100.015198 61.431599 -0.931595 -0.000300 0.363498 1.154600 0.326500
deep_wall01.jpg
0 -74.758202 74.700798 269.820007 -0.807402 -0.000300 0.590002 0.988800 1.494900
0 -74.708801 -74.617996 269.819885 -0.807402 -0.000300 0.590002 0.010900 1.494900
0 -62.044800 -62.015202 287.157898 -0.807402 -0.000300 0.590002 0.093400 1.592100
deep_wall01.jpg
0 -62.044800 -62.015202 287.157898 -0.806434 0.000000 0.591325 0.093400 1.592100
0 -62.044800 62.045601 287.157898 -0.806434 0.000000 0.591325 0.906000 1.592100
0 -74.758202 74.700798 269.820007 -0.806434 0.000000 0.591325 0.988800 1.494900
deep_wall01.jpg
0 -62.044800 -62.015202 287.157898 0.000000 0.749689 0.661790 0.096900 1.598500
0 62.015999 -62.015202 287.157898 0.000000 0.749689 0.661790 0.904300 1.598500
0 46.978298 -46.977501 270.122986 0.000000 0.749689 0.661790 0.806400 1.502500
deep_wall01.jpg
0 46.978298 -46.977501 270.122986 0.000000 0.749689 0.661790 0.806400 1.502500
0 -47.007099 -46.977501 270.122986 0.000000 0.749689 0.661790 0.194800 1.502500
0 -62.044800 -62.015202 287.157898 0.000000 0.749689 0.661790 0.096900 1.598500
deep_wall01.jpg
0 62.015999 -62.015202 287.157898 -0.749689 0.000000 0.661790 0.093400 1.592100
0 62.015999 62.045700 287.157898 -0.749689 0.000000 0.661790 0.906000 1.592100
0 46.978298 47.007999 270.122986 -0.749689 0.000000 0.661790 0.807500 1.496600
deep_wall01.jpg
0 46.978298 47.007999 270.122986 -0.749689 0.000000 0.661790 0.807500 1.496600
0 46.978298 -46.977501 270.122986 -0.749689 0.000000 0.661790 0.191900 1.496600
0 62.015999 -62.015202 287.157898 -0.749689 0.000000 0.661790 0.093400 1.592100
deep_wall01.jpg
0 62.015999 62.045700 287.157898 0.000000 -0.749689 0.661790 0.904300 1.598500
0 -62.044800 62.045601 287.157898 0.000000 -0.749689 0.661790 0.096900 1.598500
0 -47.007099 47.007999 270.122986 0.000000 -0.749689 0.661790 0.194800 1.502500
deep_wall01.jpg
0 -47.007099 47.007999 270.122986 0.000000 -0.749689 0.661790 0.194800 1.502500
0 46.978298 47.007999 270.122986 0.000000 -0.749689 0.661790 0.806400 1.502500
0 62.015999 62.045700 287.157898 0.000000 -0.749689 0.661790 0.904300 1.598500
deep_wall01.jpg
0 -62.044800 62.045601 287.157898 0.749689 0.000000 0.661790 0.906000 1.592100
0 -62.044800 -62.015202 287.157898 0.749689 0.000000 0.661790 0.093400 1.592100
0 -47.007099 -46.977501 270.122986 0.749689 0.000000 0.661790 0.191900 1.496600
deep_wall01.jpg
0 -47.007099 -46.977501 270.122986 0.749689 0.000000 0.661790 0.191900 1.496600
0 -47.007099 47.007999 270.122986 0.749689 0.000000 0.661790 0.807500 1.496600
0 -62.044800 62.045601 287.157898 0.749689 0.000000 0.661790 0.906000 1.592100
deep_wall01.jpg
0 -84.981499 -84.890602 99.815498 0.000300 -0.946980 -0.321293 -0.052300 0.542700
0 84.882599 -84.841202 99.815498 0.000300 -0.946980 -0.321293 1.053100 0.542700
0 41.374401 -98.690002 140.600494 0.000300 -0.946980 -0.321293 0.769900 0.772600
deep_wall01.jpg
0 41.374401 -98.690002 140.600494 0.000000 -0.947254 -0.320484 0.769900 0.772600
0 -43.123798 -98.690002 140.600494 0.000000 -0.947254 -0.320484 0.220100 0.772600
0 -84.981499 -84.890602 99.815498 0.000000 -0.947254 -0.320484 -0.052300 0.542700
deep_wall01.jpg
0 84.882599 -84.841202 99.815498 0.358491 -0.930277 0.077898 1.053100 0.542700
0 74.610001 -74.568604 269.819885 0.358491 -0.930277 0.077898 0.986200 1.500800
0 36.263599 -93.579201 219.257294 0.358491 -0.930277 0.077898 0.736700 1.215900
deep_wall01.jpg
0 36.263599 -93.579201 219.257294 0.373084 -0.923960 0.084296 0.736700 1.215900
0 41.374401 -98.690002 140.600494 0.373084 -0.923960 0.084296 0.769900 0.772600
0 84.882599 -84.841202 99.815498 0.373084 -0.923960 0.084296 1.053100 0.542700
deep_wall01.jpg
0 74.610001 -74.568604 269.819885 0.000300 -0.936267 0.351288 0.986200 1.500800
0 -74.708801 -74.617996 269.819885 0.000300 -0.936267 0.351288 0.014500 1.500800
0 -38.013000 -93.579201 219.257294 0.000300 -0.936267 0.351288 0.253300 1.215900
deep_wall01.jpg
0 -38.013000 -93.579201 219.257294 0.000000 -0.936033 0.351912 0.253300 1.215900
0 36.263599 -93.579201 219.257294 0.000000 -0.936033 0.351912 0.736700 1.215900
0 74.610001 -74.568604 269.819885 0.000000 -0.936033 0.351912 0.986200 1.500800
deep_wall01.jpg
0 -74.708801 -74.617996 269.819885 -0.380389 -0.921472 0.078698 0.014500 1.500800
0 -84.981499 -84.890602 99.815498 -0.380389 -0.921472 0.078698 -0.052300 0.542700
0 -43.123798 -98.690002 140.600494 -0.380389 -0.921472 0.078698 0.220100 0.772600
deep_wall01.jpg
0 -43.123798 -98.690002 140.600494 -0.363710 -0.927726 0.083902 0.220100 0.772600
0 -38.013000 -93.579201 219.257294 -0.363710 -0.927726 0.083902 0.253300 1.215900
0 -74.708801 -74.617996 269.819885 -0.363710 -0.927726 0.083902 0.014500 1.500800
deep_wall01.jpg
0 -43.123798 -98.690002 140.600494 0.000000 -0.658809 -0.752310 0.220100 0.772600
0 41.374401 -98.690002 140.600494 0.000000 -0.658809 -0.752310 0.769900 0.772600
0 28.204599 -113.576103 153.635498 0.000000 -0.658809 -0.752310 0.684200 0.846000
deep_wall01.jpg
0 28.204599 -113.576103 153.635498 0.000000 -0.658809 -0.752310 0.684200 0.846000
0 -30.474600 -113.576103 153.635498 0.000000 -0.658809 -0.752310 0.302400 0.846000
0 -43.123798 -98.690002 140.600494 0.000000 -0.658809 -0.752310 0.220100 0.772600
deep_wall01.jpg
0 41.374401 -98.690002 140.600494 0.783992 -0.614094 0.090799 -0.146800 0.770400
0 36.263599 -93.579201 219.257294 0.783992 -0.614094 0.090799 -0.113300 1.211400
0 24.655500 -110.027000 208.258301 0.783992 -0.614094 0.090799 -0.221000 1.149700
deep_wall01.jpg
0 24.655500 -110.027000 208.258301 0.783992 -0.614094 0.090799 -0.221000 1.149700
0 28.204599 -113.576103 153.635498 0.783992 -0.614094 0.090799 -0.244300 0.843500
0 41.374401 -98.690002 140.600494 0.783992 -0.614094 0.090799 -0.146800 0.770400
deep_wall01.jpg
0 36.263599 -93.579201 219.257294 0.000000 -0.555876 0.831265 0.736700 1.215900
0 -38.013000 -93.579201 219.257294 0.000000 -0.555876 0.831265 0.253300 1.215900
0 -26.925501 -110.027000 208.258301 0.000000 -0.555876 0.831265 0.325500 1.153900
deep_wall01.jpg
0 -26.925501 -110.027000 208.258301 0.000000 -0.555876 0.831265 0.325500 1.153900
0 24.655500 -110.027000 208.258301 0.000000 -0.555876 0.831265 0.661100 1.153900
0 36.263599 -93.579201 219.257294 0.000000 -0.555876 0.831265 0.736700 1.215900
deep_wall01.jpg
0 -38.013000 -93.579201 219.257294 -0.796674 -0.597581 0.090597 -0.113300 1.211400
0 -43.123798 -98.690002 140.600494 -0.796674 -0.597581 0.090597 -0.146800 0.770400
0 -30.474600 -113.576103 153.635498 -0.796674 -0.597581 0.090597 -0.244300 0.843500
deep_wall01.jpg
0 -30.474600 -113.576103 153.635498 -0.796674 -0.597581 0.090597 -0.244300 0.843500
0 -26.925501 -110.027000 208.258301 -0.796674 -0.597581 0.090597 -0.221000 1.149700
0 -38.013000 -93.579201 219.257294 -0.796674 -0.597581 0.090597 -0.113300 1.211400
deep_wall01.jpg
0 84.833298 85.022797 99.815498 -0.000300 0.947081 -0.320994 1.052800 0.542700
0 -85.030800 84.973503 99.815498 -0.000300 0.947081 -0.320994 -0.052700 0.542700
0 -41.600601 98.811600 140.600494 -0.000300 0.947081 -0.320994 0.230000 0.772600
deep_wall01.jpg
0 -41.600601 98.811600 140.600494 0.000000 0.947315 -0.320305 0.230000 0.772600
0 42.897499 98.811600 140.600494 0.000000 0.947315 -0.320305 0.779900 0.772600
0 84.833298 85.022797 99.815498 0.000000 0.947315 -0.320305 1.052800 0.542700
deep_wall01.jpg
0 -85.030800 84.973503 99.815498 -0.358907 0.930117 0.077901 -0.052700 0.542700
0 -74.758202 74.700798 269.820007 -0.358907 0.930117 0.077901 0.014200 1.500800
0 -36.489899 93.700897 219.257294 -0.358907 0.930117 0.077901 0.263200 1.215900
deep_wall01.jpg
0 -36.489899 93.700897 219.257294 -0.373497 0.923793 0.084299 0.263200 1.215900
0 -41.600601 98.811600 140.600494 -0.373497 0.923793 0.084299 0.230000 0.772600
0 -85.030800 84.973503 99.815498 -0.373497 0.923793 0.084299 -0.052700 0.542700
deep_wall01.jpg
0 -74.758202 74.700798 269.820007 -0.000300 0.936300 0.351200 0.014200 1.500800
0 74.560600 74.750198 269.820007 -0.000300 0.936300 0.351200 0.985900 1.500800
0 37.786701 93.700798 219.257294 -0.000300 0.936300 0.351200 0.746600 1.215900
deep_wall01.jpg
0 37.786701 93.700798 219.257294 0.000000 0.936078 0.351792 0.746600 1.215900
0 -36.489899 93.700897 219.257294 0.000000 0.936078 0.351792 0.263200 1.215900
0 -74.758202 74.700798 269.820007 0.000000 0.936078 0.351792 0.014200 1.500800
deep_wall01.jpg
0 74.560600 74.750198 269.820007 0.379602 0.921805 0.078600 0.985900 1.500800
0 84.833298 85.022797 99.815498 0.379602 0.921805 0.078600 1.052800 0.542700
0 42.897499 98.811600 140.600494 0.379602 0.921805 0.078600 0.779900 0.772600
deep_wall01.jpg
0 42.897499 98.811600 140.600494 0.362915 0.928037 0.083903 0.779900 0.772600
0 37.786701 93.700798 219.257294 0.362915 0.928037 0.083903 0.746600 1.215900
0 74.560600 74.750198 269.820007 0.362915 0.928037 0.083903 0.985900 1.500800
deep_wall01.jpg
0 42.897499 98.811600 140.600494 0.000000 0.658809 -0.752310 0.779900 0.772600
0 -41.600601 98.811600 140.600494 0.000000 0.658809 -0.752310 0.230000 0.772600
0 -28.430901 113.697701 153.635498 0.000000 0.658809 -0.752310 0.315700 0.846000
deep_wall01.jpg
0 -28.430901 113.697701 153.635498 0.000000 0.658809 -0.752310 0.315700 0.846000
0 30.248301 113.697701 153.635498 0.000000 0.658809 -0.752310 0.697500 0.846000
0 42.897499 98.811600 140.600494 0.000000 0.658809 -0.752310 0.779900 0.772600
deep_wall01.jpg
0 -41.600601 98.811600 140.600494 -0.783992 0.614094 0.090799 1.146800 0.770400
0 -36.489899 93.700897 219.257294 -0.783992 0.614094 0.090799 1.113300 1.211400
0 -24.881800 110.148598 208.258301 -0.783992 0.614094 0.090799 1.221000 1.149700
deep_wall01.jpg
0 -24.881800 110.148598 208.258301 -0.783992 0.614094 0.090799 1.221000 1.149700
0 -28.430901 113.697701 153.635498 -0.783992 0.614094 0.090799 1.244300 0.843500
0 -41.600601 98.811600 140.600494 -0.783992 0.614094 0.090799 1.146800 0.770400
deep_wall01.jpg
0 -36.489899 93.700897 219.257294 0.000000 0.555876 0.831265 0.263200 1.215900
0 37.786701 93.700798 219.257294 0.000000 0.555876 0.831265 0.746600 1.215900
0 26.699200 110.148598 208.258301 0.000000 0.555876 0.831265 0.674400 1.153900
deep_wall01.jpg
0 26.699200 110.148598 208.258301 0.000000 0.555876 0.831265 0.674400 1.153900
0 -24.881800 110.148598 208.258301 0.000000 0.555876 0.831265 0.338800 1.153900
0 -36.489899 93.700897 219.257294 0.000000 0.555876 0.831265 0.263200 1.215900
deep_wall01.jpg
0 37.786701 93.700798 219.257294 0.796674 0.597581 0.090597 1.113300 1.211400
0 42.897499 98.811600 140.600494 0.796674 0.597581 0.090597 1.146800 0.770400
0 30.248301 113.697701 153.635498 0.796674 0.597581 0.090597 1.244300 0.843500
deep_wall01.jpg
0 30.248301 113.697701 153.635498 0.796674 0.597581 0.090597 1.244300 0.843500
0 26.699200 110.148598 208.258301 0.796674 0.597581 0.090597 1.221000 1.149700
0 37.786701 93.700798 219.257294 0.796674 0.597581 0.090597 1.113300 1.211400
deep_wall01.jpg
0 84.882599 -84.841202 99.815498 0.947254 0.000300 -0.320484 -0.056100 0.541700
0 84.833298 85.022797 99.815498 0.947254 0.000300 -0.320484 1.056500 0.541700
0 98.643600 41.532299 140.600494 0.947254 0.000300 -0.320484 0.771600 0.770400
deep_wall01.jpg
0 98.643600 41.532299 140.600494 0.947517 0.000000 -0.319706 0.771600 0.770400
0 98.643600 -42.965801 140.600494 0.947517 0.000000 -0.319706 0.218200 0.770400
0 84.882599 -84.841202 99.815498 0.947517 0.000000 -0.319706 -0.056100 0.541700
deep_wall01.jpg
0 84.833298 85.022797 99.815498 0.930504 0.357902 0.077900 1.056500 0.541700
0 74.560600 74.750198 269.820007 0.930504 0.357902 0.077900 0.989200 1.494900
0 93.532799 36.421501 219.257294 0.930504 0.357902 0.077900 0.738100 1.211400
deep_wall01.jpg
0 93.532799 36.421501 219.257294 0.924196 0.372498 0.084300 0.738100 1.211400
0 98.643600 41.532299 140.600494 0.924196 0.372498 0.084300 0.771600 0.770400
0 84.833298 85.022797 99.815498 0.924196 0.372498 0.084300 1.056500 0.541700
deep_wall01.jpg
0 74.560600 74.750198 269.820007 0.936489 0.000300 0.350696 0.989200 1.494900
0 74.610001 -74.568604 269.819885 0.936489 0.000300 0.350696 0.011200 1.494900
0 93.532799 -37.855099 219.257294 0.936489 0.000300 0.350696 0.251700 1.211400
deep_wall01.jpg
0 93.532799 -37.855099 219.257294 0.936267 0.000000 0.351288 0.251700 1.211400
0 93.532799 36.421501 219.257294 0.936267 0.000000 0.351288 0.738100 1.211400
0 74.560600 74.750198 269.820007 0.936267 0.000000 0.351288 0.989200 1.494900
deep_wall01.jpg
0 74.610001 -74.568604 269.819885 0.921840 -0.379516 0.078603 0.011200 1.494900
0 84.882599 -84.841202 99.815498 0.921840 -0.379516 0.078603 -0.056100 0.541700
0 98.643600 -42.965801 140.600494 0.921840 -0.379516 0.078603 0.218200 0.770400
deep_wall01.jpg
0 98.643600 -42.965801 140.600494 0.928085 -0.362794 0.083899 0.218200 0.770400
0 93.532799 -37.855099 219.257294 0.928085 -0.362794 0.083899 0.251700 1.211400
0 74.610001 -74.568604 269.819885 0.928085 -0.362794 0.083899 0.011200 1.494900
deep_wall01.jpg
0 98.643600 -42.965801 140.600494 0.658809 0.000000 -0.752310 0.218200 0.770400
0 98.643600 41.532299 140.600494 0.658809 0.000000 -0.752310 0.771600 0.770400
0 113.529701 28.362600 153.635498 0.658809 0.000000 -0.752310 0.685400 0.843500
deep_wall01.jpg
0 113.529701 28.362600 153.635498 0.658809 0.000000 -0.752310 0.685400 0.843500
0 113.529701 -30.316700 153.635498 0.658809 0.000000 -0.752310 0.301000 0.843500
0 98.643600 -42.965801 140.600494 0.658809 0.000000 -0.752310 0.218200 0.770400
deep_wall01.jpg
0 98.643600 41.532299 140.600494 0.614094 0.783992 0.090799 1.142600 0.772600
0 93.532799 36.421501 219.257294 0.614094 0.783992 0.090799 1.109400 1.215900
0 109.980598 24.813499 208.258301 0.614094 0.783992 0.090799 1.216400 1.153900
deep_wall01.jpg
0 109.980598 24.813499 208.258301 0.614094 0.783992 0.090799 1.216400 1.153900
0 113.529701 28.362600 153.635498 0.614094 0.783992 0.090799 1.239500 0.846000
0 98.643600 41.532299 140.600494 0.614094 0.783992 0.090799 1.142600 0.772600
deep_wall01.jpg
0 93.532799 36.421501 219.257294 0.555876 0.000000 0.831265 0.738100 1.211400
0 93.532799 -37.855099 219.257294 0.555876 0.000000 0.831265 0.251700 1.211400
0 109.980598 -26.767500 208.258301 0.555876 0.000000 0.831265 0.324300 1.149700
deep_wall01.jpg
0 109.980598 -26.767500 208.258301 0.555876 0.000000 0.831265 0.324300 1.149700
0 109.980598 24.813499 208.258301 0.555876 0.000000 0.831265 0.662100 1.149700
0 93.532799 36.421501 219.257294 0.555876 0.000000 0.831265 0.738100 1.211400
deep_wall01.jpg
0 93.532799 -37.855099 219.257294 0.597581 -0.796674 0.090597 1.109400 1.215900
0 98.643600 -42.965801 140.600494 0.597581 -0.796674 0.090597 1.142600 0.772600
0 113.529701 -30.316700 153.635498 0.597581 -0.796674 0.090597 1.239500 0.846000
deep_wall01.jpg
0 113.529701 -30.316700 153.635498 0.597581 -0.796674 0.090597 1.239500 0.846000
0 109.980598 -26.767500 208.258301 0.597581 -0.796674 0.090597 1.216400 1.153900
0 93.532799 -37.855099 219.257294 0.597581 -0.796674 0.090597 1.109400 1.215900
deep_wall01.jpg
0 -85.030800 84.973503 99.815498 -0.946807 -0.000300 -0.321802 1.056100 0.541700
0 -84.981499 -84.890602 99.815498 -0.946807 -0.000300 -0.321802 -0.056400 0.541700
0 -98.858002 -41.442699 140.600494 -0.946807 -0.000300 -0.321802 0.228200 0.770400
deep_wall01.jpg
0 -98.858002 -41.442699 140.600494 -0.947051 0.000000 -0.321083 0.228200 0.770400
0 -98.858002 43.055500 140.600494 -0.947051 0.000000 -0.321083 0.781600 0.770400
0 -85.030800 84.973503 99.815498 -0.947051 0.000000 -0.321083 1.056100 0.541700
deep_wall01.jpg
0 -84.981499 -84.890602 99.815498 -0.929889 -0.359496 0.077899 -0.056400 0.541700
0 -74.708801 -74.617996 269.819885 -0.929889 -0.359496 0.077899 0.010900 1.494900
0 -93.747299 -36.331902 219.257294 -0.929889 -0.359496 0.077899 0.261600 1.211400
deep_wall01.jpg
0 -93.747299 -36.331902 219.257294 -0.923542 -0.374117 0.084304 0.261600 1.211400
0 -98.858002 -41.442699 140.600494 -0.923542 -0.374117 0.084304 0.228200 0.770400
0 -84.981499 -84.890602 99.815498 -0.923542 -0.374117 0.084304 -0.056400 0.541700
deep_wall01.jpg
0 -74.708801 -74.617996 269.819885 -0.936078 -0.000300 0.351792 0.010900 1.494900
0 -74.758202 74.700798 269.820007 -0.936078 -0.000300 0.351792 0.988800 1.494900
0 -93.747200 37.944698 219.257294 -0.936078 -0.000300 0.351792 0.748100 1.211400
deep_wall01.jpg
0 -93.747200 37.944698 219.257294 -0.935856 0.000000 0.352383 0.748100 1.211400
0 -93.747299 -36.331902 219.257294 -0.935856 0.000000 0.352383 0.261600 1.211400
0 -74.708801 -74.617996 269.819885 -0.935856 0.000000 0.352383 0.010900 1.494900
deep_wall01.jpg
0 -74.758202 74.700798 269.820007 -0.921422 0.380509 0.078702 0.988800 1.494900
0 -85.030800 84.973503 99.815498 -0.921422 0.380509 0.078702 1.056100 0.541700
0 -98.858002 43.055500 140.600494 -0.921422 0.380509 0.078702 0.781600 0.770400
deep_wall01.jpg
0 -98.858002 43.055500 140.600494 -0.927692 0.363797 0.083899 0.781600 0.770400
0 -93.747200 37.944698 219.257294 -0.927692 0.363797 0.083899 0.748100 1.211400
0 -74.758202 74.700798 269.820007 -0.927692 0.363797 0.083899 0.988800 1.494900
deep_wall01.jpg
0 -98.858002 43.055500 140.600494 -0.658809 0.000000 -0.752310 0.781600 0.770400
0 -98.858002 -41.442699 140.600494 -0.658809 0.000000 -0.752310 0.228200 0.770400
0 -113.744102 -28.273001 153.635498 -0.658809 0.000000 -0.752310 0.314400 0.843500
deep_wall01.jpg
0 -113.744102 -28.273001 153.635498 -0.658809 0.000000 -0.752310 0.314400 0.843500
0 -113.744102 30.406300 153.635498 -0.658809 0.000000 -0.752310 0.698700 0.843500
0 -98.858002 43.055500 140.600494 -0.658809 0.000000 -0.752310 0.781600 0.770400
deep_wall01.jpg
0 -98.858002 -41.442699 140.600494 -0.614094 -0.783992 0.090799 -0.142600 0.772600
0 -93.747299 -36.331902 219.257294 -0.614094 -0.783992 0.090799 -0.109400 1.215900
0 -110.195000 -24.723801 208.258301 -0.614094 -0.783992 0.090799 -0.216400 1.153900
deep_wall01.jpg
0 -110.195000 -24.723801 208.258301 -0.614094 -0.783992 0.090799 -0.216400 1.153900
0 -113.744102 -28.273001 153.635498 -0.614094 -0.783992 0.090799 -0.239500 0.846000
0 -98.858002 -41.442699 140.600494 -0.614094 -0.783992 0.090799 -0.142600 0.772600
deep_wall01.jpg
0 -93.747299 -36.331902 219.257294 -0.555876 0.000000 0.831265 0.261600 1.211400
0 -93.747200 37.944698 219.257294 -0.555876 0.000000 0.831265 0.748100 1.211400
0 -110.195000 26.857100 208.258301 -0.555876 0.000000 0.831265 0.675500 1.149700
deep_wall01.jpg
0 -110.195000 26.857100 208.258301 -0.555876 0.000000 0.831265 0.675500 1.149700
0 -110.195000 -24.723801 208.258301 -0.555876 0.000000 0.831265 0.337700 1.149700
0 -93.747299 -36.331902 219.257294 -0.555876 0.000000 0.831265 0.261600 1.211400
deep_wall01.jpg
0 -93.747200 37.944698 219.257294 -0.597581 0.796674 0.090597 -0.109400 1.215900
0 -98.858002 43.055500 140.600494 -0.597581 0.796674 0.090597 -0.142600 0.772600
0 -113.744102 30.406300 153.635498 -0.597581 0.796674 0.090597 -0.239500 0.846000
deep_wall01.jpg
0 -113.744102 30.406300 153.635498 -0.597581 0.796674 0.090597 -0.239500 0.846000
0 -110.195000 26.857100 208.258301 -0.597581 0.796674 0.090597 -0.216400 1.153900
0 -93.747200 37.944698 219.257294 -0.597581 0.796674 0.090597 -0.109400 1.215900
deep_wall01.jpg
0 -30.474600 -113.576103 153.635498 0.000000 0.064800 0.997898 -0.169300 0.678900
0 28.204599 -113.576103 153.635498 0.000000 0.064800 0.997898 -0.169300 0.333200
0 28.204599 -91.223198 152.183105 0.000000 0.064800 0.997898 -0.037700 0.333200
deep_wall01.jpg
0 28.204599 -91.223198 152.183105 0.000000 0.064800 0.997898 -0.037700 0.333200
0 -30.474600 -91.223198 152.183105 0.000000 0.064800 0.997898 -0.037700 0.678900
0 -30.474600 -113.576103 153.635498 0.000000 0.064800 0.997898 -0.169300 0.678900
deep_wall01.jpg
0 28.204599 -113.576103 153.635498 -0.997902 -0.004200 -0.064600 -0.244300 0.843500
0 24.655500 -110.027000 208.258301 -0.997902 -0.004200 -0.064600 -0.221000 1.149700
0 24.655500 -87.674103 206.805893 -0.997902 -0.004200 -0.064600 -0.074600 1.141600
deep_wall01.jpg
0 24.655500 -87.674103 206.805893 -0.997902 -0.004200 -0.064600 -0.074600 1.141600
0 28.204599 -91.223198 152.183105 -0.997902 -0.004200 -0.064600 -0.097900 0.835300
0 28.204599 -113.576103 153.635498 -0.997902 -0.004200 -0.064600 -0.244300 0.843500
deep_wall01.jpg
0 -26.925501 -110.027000 208.258301 0.997902 -0.004200 -0.064600 -0.221000 1.149700
0 -30.474600 -113.576103 153.635498 0.997902 -0.004200 -0.064600 -0.244300 0.843500
0 -30.474600 -91.223198 152.183105 0.997902 -0.004200 -0.064600 -0.097900 0.835300
deep_wall01.jpg
0 -30.474600 -91.223198 152.183105 0.997902 -0.004200 -0.064600 -0.097900 0.835300
0 -26.925501 -87.674103 206.805893 0.997902 -0.004200 -0.064600 -0.074600 1.141600
0 -26.925501 -110.027000 208.258301 0.997902 -0.004200 -0.064600 -0.221000 1.149700
deep_wall01.jpg
0 30.248301 113.697701 153.635498 0.000000 -0.064800 0.997898 1.169300 0.321200
0 -28.430901 113.697701 153.635498 0.000000 -0.064800 0.997898 1.169300 0.666800
0 -28.430901 91.344902 152.183105 0.000000 -0.064800 0.997898 1.037700 0.666800
deep_wall01.jpg
0 -28.430901 91.344902 152.183105 0.000000 -0.064800 0.997898 1.037700 0.666800
0 30.248301 91.344902 152.183105 0.000000 -0.064800 0.997898 1.037700 0.321200
0 30.248301 113.697701 153.635498 0.000000 -0.064800 0.997898 1.169300 0.321200
deep_wall01.jpg
0 -28.430901 113.697701 153.635498 0.997902 0.004200 -0.064600 1.244300 0.843500
0 -24.881800 110.148598 208.258301 0.997902 0.004200 -0.064600 1.221000 1.149700
0 -24.881800 87.795799 206.805893 0.997902 0.004200 -0.064600 1.074600 1.141600
deep_wall01.jpg
0 -24.881800 87.795799 206.805893 0.997902 0.004200 -0.064600 1.074600 1.141600
0 -28.430901 91.344902 152.183105 0.997902 0.004200 -0.064600 1.097900 0.835300
0 -28.430901 113.697701 153.635498 0.997902 0.004200 -0.064600 1.244300 0.843500
deep_wall01.jpg
0 26.699200 110.148598 208.258301 -0.997902 0.004200 -0.064600 1.221000 1.149700
0 30.248301 113.697701 153.635498 -0.997902 0.004200 -0.064600 1.244300 0.843500
0 30.248301 91.344902 152.183105 -0.997902 0.004200 -0.064600 1.097900 0.835300
deep_wall01.jpg
0 30.248301 91.344902 152.183105 -0.997902 0.004200 -0.064600 1.097900 0.835300
0 26.699200 87.795799 206.805893 -0.997902 0.004200 -0.064600 1.074600 1.141600
0 26.699200 110.148598 208.258301 -0.997902 0.004200 -0.064600 1.221000 1.149700
deep_wall01.jpg
0 113.529701 -30.316700 153.635498 -0.064800 0.000000 0.997898 0.321100 -0.169300
0 113.529701 28.362600 153.635498 -0.064800 0.000000 0.997898 0.666700 -0.169300
0 91.176804 28.362600 152.183105 -0.064800 0.000000 0.997898 0.666700 -0.037700
deep_wall01.jpg
0 91.176804 28.362600 152.183105 -0.064800 0.000000 0.997898 0.666700 -0.037700
0 91.176804 -30.316700 152.183105 -0.064800 0.000000 0.997898 0.321100 -0.037700
0 113.529701 -30.316700 153.635498 -0.064800 0.000000 0.997898 0.321100 -0.169300
deep_wall01.jpg
0 113.529701 28.362600 153.635498 0.004200 -0.997902 -0.064600 1.239500 0.846000
0 109.980598 24.813499 208.258301 0.004200 -0.997902 -0.064600 1.216400 1.153900
0 87.627701 24.813499 206.805893 0.004200 -0.997902 -0.064600 1.070900 1.145700
deep_wall01.jpg
0 87.627701 24.813499 206.805893 0.004200 -0.997902 -0.064600 1.070900 1.145700
0 91.176804 28.362600 152.183105 0.004200 -0.997902 -0.064600 1.094000 0.837800
0 113.529701 28.362600 153.635498 0.004200 -0.997902 -0.064600 1.239500 0.846000
deep_wall01.jpg
0 109.980598 -26.767500 208.258301 0.004200 0.997902 -0.064600 1.216400 1.153900
0 113.529701 -30.316700 153.635498 0.004200 0.997902 -0.064600 1.239500 0.846000
0 91.176804 -30.316700 152.183105 0.004200 0.997902 -0.064600 1.094000 0.837800
deep_wall01.jpg
0 91.176804 -30.316700 152.183105 0.004200 0.997902 -0.064600 1.094000 0.837800
0 87.627701 -26.767500 206.805893 0.004200 0.997902 -0.064600 1.070900 1.145700
0 109.980598 -26.767500 208.258301 0.004200 0.997902 -0.064600 1.216400 1.153900
deep_wall01.jpg
0 -113.744102 30.406300 153.635498 0.064800 0.000000 0.997898 0.678700 1.169300
0 -113.744102 -28.273001 153.635498 0.064800 0.000000 0.997898 0.333100 1.169300
0 -91.391296 -28.273001 152.183105 0.064800 0.000000 0.997898 0.333100 1.037700
deep_wall01.jpg
0 -91.391296 -28.273001 152.183105 0.064800 0.000000 0.997898 0.333100 1.037700
0 -91.391296 30.406300 152.183105 0.064800 0.000000 0.997898 0.678700 1.037700
0 -113.744102 30.406300 153.635498 0.064800 0.000000 0.997898 0.678700 1.169300
deep_wall01.jpg
0 -113.744102 -28.273001 153.635498 -0.004200 0.997902 -0.064600 -0.239500 0.846000
0 -110.195000 -24.723801 208.258301 -0.004200 0.997902 -0.064600 -0.216400 1.153900
0 -87.842102 -24.723801 206.805893 -0.004200 0.997902 -0.064600 -0.070900 1.145700
deep_wall01.jpg
0 -87.842102 -24.723801 206.805893 -0.004200 0.997902 -0.064600 -0.070900 1.145700
0 -91.391296 -28.273001 152.183105 -0.004200 0.997902 -0.064600 -0.094000 0.837800
0 -113.744102 -28.273001 153.635498 -0.004200 0.997902 -0.064600 -0.239500 0.846000
deep_wall01.jpg
0 -110.195000 26.857100 208.258301 -0.004200 -0.997902 -0.064600 -0.216400 1.153900
0 -113.744102 30.406300 153.635498 -0.004200 -0.997902 -0.064600 -0.239500 0.846000
0 -91.391296 30.406300 152.183105 -0.004200 -0.997902 -0.064600 -0.094000 0.837800
deep_wall01.jpg
0 -91.391296 30.406300 152.183105 -0.004200 -0.997902 -0.064600 -0.094000 0.837800
0 -87.842102 26.857100 206.805893 -0.004200 -0.997902 -0.064600 -0.070900 1.145700
0 -110.195000 26.857100 208.258301 -0.004200 -0.997902 -0.064600 -0.216400 1.153900
deep_wall02.jpg
0 -30.474600 -91.223198 152.183105 0.000000 -0.997898 0.064800 0.650600 0.006400
0 28.204599 -91.223198 152.183105 0.000000 -0.997898 0.064800 0.347300 0.006400
0 24.655500 -87.674103 206.805893 0.000000 -0.997898 0.064800 0.347400 0.363200
deep_wall02.jpg
0 24.655500 -87.674103 206.805893 0.000000 -0.997898 0.064800 0.347400 0.363200
0 -26.925501 -87.674103 206.805893 0.000000 -0.997898 0.064800 0.650600 0.363100
0 -30.474600 -91.223198 152.183105 0.000000 -0.997898 0.064800 0.650600 0.006400
deep_wall02.jpg
0 30.248301 91.344902 152.183105 0.000000 0.997898 0.064800 0.650700 0.006400
0 -28.430901 91.344902 152.183105 0.000000 0.997898 0.064800 0.347500 0.006500
0 -24.881800 87.795799 206.805893 0.000000 0.997898 0.064800 0.347400 0.363200
deep_wall02.jpg
0 -24.881800 87.795799 206.805893 0.000000 0.997898 0.064800 0.347400 0.363200
0 26.699200 87.795799 206.805893 0.000000 0.997898 0.064800 0.650600 0.363200
0 30.248301 91.344902 152.183105 0.000000 0.997898 0.064800 0.650700 0.006400
deep_wall02.jpg
0 91.176804 -30.316700 152.183105 0.997898 0.000000 0.064800 0.347200 0.006400
0 91.176804 28.362600 152.183105 0.997898 0.000000 0.064800 0.650700 0.006400
0 87.627701 24.813499 206.805893 0.997898 0.000000 0.064800 0.650500 0.363100
deep_wall02.jpg
0 87.627701 24.813499 206.805893 0.997898 0.000000 0.064800 0.650500 0.363100
0 87.627701 -26.767500 206.805893 0.997898 0.000000 0.064800 0.347100 0.363200
0 91.176804 -30.316700 152.183105 0.997898 0.000000 0.064800 0.347200 0.006400
deep_wall02.jpg
0 -91.391296 30.406300 152.183105 -0.997898 0.000000 0.064800 0.347200 0.006500
0 -91.391296 -28.273001 152.183105 -0.997898 0.000000 0.064800 0.650700 0.006500
0 -87.842102 -24.723801 206.805893 -0.997898 0.000000 0.064800 0.650600 0.363200
deep_wall02.jpg
0 -87.842102 -24.723801 206.805893 -0.997898 0.000000 0.064800 0.650600 0.363200
0 -87.842102 26.857100 206.805893 -0.997898 0.000000 0.064800 0.347400 0.363200
0 -91.391296 30.406300 152.183105 -0.997898 0.000000 0.064800 0.347200 0.006500
end
