version 1
nodes
0 "Object01" -1
end
skeleton
time 0
0 17.794605 109.895309 -83.604317 0.000000 0.000000 1.570796
end
triangles
wood01.jpg
0 137.728302 -23.260895 1.735100 0.000000 0.000000 -1.000000 0.483900 0.250400
0 -41.835800 -39.925400 1.735100 0.000000 0.000000 -1.000000 0.211400 0.211900
0 -41.835800 42.417099 1.735100 0.000000 0.000000 -1.000000 0.211400 0.402100
wood01.jpg
0 -41.835800 42.417099 1.735100 0.000000 0.000000 -1.000000 0.211400 0.402100
0 137.728302 25.752502 1.735100 0.000000 0.000000 -1.000000 0.483900 0.363600
0 137.728302 -23.260895 1.735100 0.000000 0.000000 -1.000000 0.483900 0.250400
wood01.jpg
0 -41.835800 -39.925400 1.735100 0.000000 0.000000 -1.000000 0.211400 0.211900
0 -102.139099 -15.288803 1.735100 0.000000 0.000000 -1.000000 0.119900 0.268800
0 -102.139099 17.780502 1.735100 0.000000 0.000000 -1.000000 0.119900 0.345200
wood01.jpg
0 -102.139099 17.780502 1.735100 0.000000 0.000000 -1.000000 0.119900 0.345200
0 -41.835800 42.417099 1.735100 0.000000 0.000000 -1.000000 0.211400 0.402100
0 -41.835800 -39.925400 1.735100 0.000000 0.000000 -1.000000 0.211400 0.211900
wood01.jpg
0 132.652100 -19.623901 10.227196 0.000000 0.000000 1.000000 0.476200 0.258800
0 132.652100 21.912903 10.227196 0.000000 0.000000 1.000000 0.476200 0.354700
0 -40.825100 36.035400 10.227196 0.000000 0.000000 1.000000 0.212900 0.387300
wood01.jpg
0 -40.825100 36.035400 10.227196 0.000000 0.000000 1.000000 0.212900 0.387300
0 -40.825100 -33.746399 10.227196 0.000000 0.000000 1.000000 0.212900 0.226100
0 132.652100 -19.623901 10.227196 0.000000 0.000000 1.000000 0.476200 0.258800
wood01.jpg
0 -40.825100 -33.746399 10.227196 0.000000 0.000000 1.000000 0.212900 0.226100
0 -40.825100 36.035400 10.227196 0.000000 0.000000 1.000000 0.212900 0.387300
0 -93.773300 15.156898 10.227196 0.000000 0.000000 1.000000 0.132600 0.339100
wood01.jpg
0 -93.773300 15.156898 10.227196 0.000000 0.000000 1.000000 0.132600 0.339100
0 -93.773300 -12.867897 10.227196 0.000000 0.000000 1.000000 0.132600 0.274400
0 -40.825100 -33.746399 10.227196 0.000000 0.000000 1.000000 0.212900 0.226100
wood01.jpg
0 137.728302 -23.260895 1.735100 0.858321 0.000000 0.513113 0.450800 0.070600
0 137.728302 25.752502 1.735100 0.858321 0.000000 0.513113 0.211300 0.070600
0 132.652100 21.912903 10.227196 0.858321 0.000000 0.513113 0.230000 0.115400
wood01.jpg
0 132.652100 21.912903 10.227196 0.858321 0.000000 0.513113 0.230000 0.115400
0 132.652100 -19.623901 10.227196 0.858321 0.000000 0.513113 0.433100 0.115400
0 137.728302 -23.260895 1.735100 0.858321 0.000000 0.513113 0.450800 0.070600
wood01.jpg
0 137.728302 25.752502 1.735100 0.073797 0.849762 0.521976 0.494300 0.070500
0 -41.835800 42.417099 1.735100 0.074404 0.801440 0.593429 0.251700 0.070600
0 -40.825100 36.035400 10.227196 0.073797 0.849762 0.521976 0.255900 0.117900
wood01.jpg
0 -40.825100 36.035400 10.227196 0.073797 0.849762 0.521976 0.255900 0.117900
0 132.652100 21.912903 10.227196 0.072599 0.891787 0.446593 0.473100 0.117900
0 137.728302 25.752502 1.735100 0.073797 0.849762 0.521976 0.494300 0.070500
wood01.jpg
0 -41.835800 -39.925400 1.735100 0.074902 -0.857019 0.509812 0.251700 0.070600
0 137.728302 -23.260895 1.735100 0.083297 -0.897063 0.433982 0.494300 0.070500
0 132.652100 -19.623901 10.227196 0.074902 -0.857019 0.509812 0.473100 0.117900
wood01.jpg
0 132.652100 -19.623901 10.227196 0.074902 -0.857019 0.509812 0.473100 0.117900
0 -40.825100 -33.746399 10.227196 0.065999 -0.810585 0.581890 0.255900 0.117900
0 -41.835800 -39.925400 1.735100 0.074902 -0.857019 0.509812 0.251700 0.070600
wood01.jpg
0 -41.835800 42.417099 1.735100 -0.305292 0.760280 0.573385 0.251700 0.070600
0 -102.139099 17.780502 1.735100 -0.315904 0.773109 0.550007 0.126800 0.070600
0 -93.773300 15.156898 10.227196 -0.305292 0.760280 0.573385 0.161600 0.117900
wood01.jpg
0 -93.773300 15.156898 10.227196 -0.305292 0.760280 0.573385 0.161600 0.117900
0 -40.825100 36.035400 10.227196 -0.294498 0.746795 0.596296 0.255900 0.117900
0 -41.835800 42.417099 1.735100 -0.305292 0.760280 0.573385 0.251700 0.070600
wood01.jpg
0 -102.139099 17.780502 1.735100 -0.712387 0.000000 0.701787 0.250200 0.070500
0 -102.139099 -15.288803 1.735100 -0.712387 0.000000 0.701787 0.411900 0.070500
0 -93.773300 -12.867897 10.227196 -0.712387 0.000000 0.701787 0.400000 0.115400
wood01.jpg
0 -93.773300 -12.867897 10.227196 -0.712387 0.000000 0.701787 0.400000 0.115400
0 -93.773300 15.156898 10.227196 -0.712387 0.000000 0.701787 0.263100 0.115400
0 -102.139099 17.780502 1.735100 -0.712387 0.000000 0.701787 0.250200 0.070500
wood01.jpg
0 -102.139099 -15.288803 1.735100 -0.309121 -0.770452 0.557538 0.126800 0.070600
0 -41.835800 -39.925400 1.735100 -0.307102 -0.751805 0.583504 0.251700 0.070600
0 -40.825100 -33.746399 10.227196 -0.309121 -0.770452 0.557538 0.255900 0.117900
wood01.jpg
0 -40.825100 -33.746399 10.227196 -0.309121 -0.770452 0.557538 0.255900 0.117900
0 -93.773300 -12.867897 10.227196 -0.310894 -0.788286 0.530990 0.161600 0.117900
0 -102.139099 -15.288803 1.735100 -0.309121 -0.770452 0.557538 0.126800 0.070600
end
