version 1
nodes
0 "Cylinder01" -1
end
skeleton
time 0
0 -0.164661 -9.927568 22.526966 1.570796 0.000000 3.141593
end
triangles
tombstone.jpg
0 -0.164700 -9.927600 117.300690 0.000000 -1.000000 0.000000 0.246100 0.993400
0 -38.940701 -9.927603 94.913300 0.000000 -1.000000 0.000000 0.031400 0.898400
0 -44.939301 -9.927604 72.526001 0.000000 -1.000000 0.000000 -0.001800 0.803500
tombstone.jpg
0 -0.164700 -9.927600 117.300690 0.000000 -1.000000 0.000000 0.246100 0.993400
0 -22.552000 -9.927602 111.302002 0.000000 -1.000000 0.000000 0.122100 0.967900
0 -38.940701 -9.927603 94.913300 0.000000 -1.000000 0.000000 0.031400 0.898400
tombstone.jpg
0 -0.164700 -9.927600 117.300690 0.000000 -1.000000 0.000000 0.246100 0.993400
0 38.611401 -9.927597 94.913300 0.000000 -1.000000 0.000000 0.460900 0.898400
0 22.222700 -9.927598 111.302002 0.000000 -1.000000 0.000000 0.370100 0.967900
tombstone.jpg
0 -0.164700 -9.927600 117.300690 0.000000 -1.000000 0.000000 0.246100 0.993400
0 44.610001 -9.927596 72.526001 0.000000 -1.000000 0.000000 0.494100 0.803500
0 38.611401 -9.927597 94.913300 0.000000 -1.000000 0.000000 0.460900 0.898400
tombstone.jpg
0 -0.164700 -9.927600 117.300690 0.000000 -1.000000 0.000000 0.246100 0.993400
0 44.767899 -9.927596 0.139601 0.000000 -1.000000 0.000000 0.495000 0.496600
0 44.610001 -9.927596 72.526001 0.000000 -1.000000 0.000000 0.494100 0.803500
tombstone.jpg
0 -0.164700 -9.927600 117.300690 0.000000 -1.000000 0.000000 0.246100 0.993400
0 -44.991299 -9.927604 0.046900 0.000000 -1.000000 0.000000 -0.002100 0.496200
0 44.767899 -9.927596 0.139601 0.000000 -1.000000 0.000000 0.495000 0.496600
tombstone.jpg
0 -0.164700 -9.927600 117.300690 0.000000 -1.000000 0.000000 0.246100 0.993400
0 -44.939301 -9.927604 72.526001 0.000000 -1.000000 0.000000 -0.001800 0.803500
0 -44.991299 -9.927604 0.046900 0.000000 -1.000000 0.000000 -0.002100 0.496200
tombstone.jpg
0 -44.939301 -9.927604 72.526001 -0.984727 -0.000000 0.174105 0.582200 0.221800
0 -38.940704 9.707396 94.913300 -0.907068 -0.000000 0.420985 0.361900 0.003200
0 -44.939304 9.707396 72.526001 -0.996174 -0.000000 0.087398 0.582200 0.003200
tombstone.jpg
0 -44.939301 -9.927604 72.526001 -0.984727 -0.000000 0.174105 0.582200 0.221800
0 -38.940701 -9.927603 94.913300 -0.818089 -0.000000 0.575092 0.361900 0.221800
0 -38.940704 9.707396 94.913300 -0.907068 -0.000000 0.420985 0.361900 0.003200
tombstone.jpg
0 -38.940701 -9.927603 94.913300 -0.818089 -0.000000 0.575092 0.361900 0.221800
0 -22.552002 9.707397 111.302002 -0.575092 -0.000000 0.818089 0.165000 0.003200
0 -38.940704 9.707396 94.913300 -0.907068 -0.000000 0.420985 0.361900 0.003200
tombstone.jpg
0 -38.940701 -9.927603 94.913300 -0.818089 -0.000000 0.575092 0.361900 0.221800
0 -22.552000 -9.927602 111.302002 -0.420985 -0.000000 0.907068 0.165000 0.221800
0 -22.552002 9.707397 111.302002 -0.575092 -0.000000 0.818089 0.165000 0.003200
tombstone.jpg
0 -22.552000 -9.927602 111.302002 -0.420985 -0.000000 0.907068 0.165000 0.221800
0 -0.164702 9.707399 117.300690 -0.089003 -0.000000 0.996031 -0.002500 0.003200
0 -22.552002 9.707397 111.302002 -0.575092 -0.000000 0.818089 0.165000 0.003200
tombstone.jpg
0 -22.552000 -9.927602 111.302002 -0.420985 -0.000000 0.907068 0.165000 0.221800
0 -0.164700 -9.927600 117.300690 0.089003 0.000000 0.996031 -0.002500 0.221800
0 -0.164702 9.707399 117.300690 -0.089003 -0.000000 0.996031 -0.002500 0.003200
tombstone.jpg
0 -0.164700 -9.927600 117.300690 0.089003 0.000000 0.996031 -0.002500 0.221800
0 22.222698 9.707401 111.302002 0.420985 0.000000 0.907068 0.165000 0.003200
0 -0.164702 9.707399 117.300690 -0.089003 -0.000000 0.996031 -0.002500 0.003200
tombstone.jpg
0 -0.164700 -9.927600 117.300690 0.089003 0.000000 0.996031 -0.002500 0.221800
0 22.222700 -9.927598 111.302002 0.575092 0.000000 0.818089 0.165000 0.221800
0 22.222698 9.707401 111.302002 0.420985 0.000000 0.907068 0.165000 0.003200
tombstone.jpg
0 22.222700 -9.927598 111.302002 0.575092 0.000000 0.818089 0.165000 0.221800
0 38.611397 9.707403 94.913300 0.818089 0.000000 0.575092 0.361900 0.003200
0 22.222698 9.707401 111.302002 0.420985 0.000000 0.907068 0.165000 0.003200
tombstone.jpg
0 22.222700 -9.927598 111.302002 0.575092 0.000000 0.818089 0.165000 0.221800
0 38.611401 -9.927597 94.913300 0.907068 0.000000 0.420985 0.361900 0.221800
0 38.611397 9.707403 94.913300 0.818089 0.000000 0.575092 0.361900 0.003200
tombstone.jpg
0 38.611401 -9.927597 94.913300 0.907068 0.000000 0.420985 0.361900 0.221800
0 44.609997 9.707403 72.526001 0.984638 0.000000 0.174607 0.582200 0.003200
0 38.611397 9.707403 94.913300 0.818089 0.000000 0.575092 0.361900 0.003200
tombstone.jpg
0 38.611401 -9.927597 94.913300 0.907068 0.000000 0.420985 0.361900 0.221800
0 44.610001 -9.927596 72.526001 0.996085 0.000000 0.088399 0.582200 0.221800
0 44.609997 9.707403 72.526001 0.984638 0.000000 0.174607 0.582200 0.003200
tombstone.jpg
0 44.610001 -9.927596 72.526001 0.996085 0.000000 0.088399 0.582200 0.221800
0 44.767895 9.707403 0.139601 0.999998 0.000000 0.002200 0.995700 0.003200
0 44.609997 9.707403 72.526001 0.984638 0.000000 0.174607 0.582200 0.003200
tombstone.jpg
0 44.610001 -9.927596 72.526001 0.996085 0.000000 0.088399 0.582200 0.221800
0 44.767899 -9.927596 0.139601 0.999998 0.000000 0.002200 0.995700 0.221800
0 44.767895 9.707403 0.139601 0.999998 0.000000 0.002200 0.995700 0.003200
tombstone.jpg
0 -44.991299 -9.927604 0.046900 -1.000000 -0.000000 0.000700 0.996500 0.221800
0 -44.939304 9.707396 72.526001 -0.996174 -0.000000 0.087398 0.582200 0.003200
0 -44.991302 9.707396 0.046900 -1.000000 -0.000000 0.000700 0.996500 0.003200
tombstone.jpg
0 -44.991299 -9.927604 0.046900 -1.000000 -0.000000 0.000700 0.996500 0.221800
0 -44.939301 -9.927604 72.526001 -0.984727 -0.000000 0.174105 0.582200 0.221800
0 -44.939304 9.707396 72.526001 -0.996174 -0.000000 0.087398 0.582200 0.003200
tombstone.jpg
0 -0.164702 9.707399 117.300690 -0.000000 1.000000 0.000000 0.741600 0.992200
0 -44.939304 9.707396 72.526001 -0.000000 1.000000 0.000000 0.989600 0.802300
0 -38.940704 9.707396 94.913300 -0.000000 1.000000 0.000000 0.956400 0.897300
tombstone.jpg
0 -0.164702 9.707399 117.300690 -0.000000 1.000000 0.000000 0.741600 0.992200
0 -38.940704 9.707396 94.913300 -0.000000 1.000000 0.000000 0.956400 0.897300
0 -22.552002 9.707397 111.302002 -0.000000 1.000000 0.000000 0.865600 0.966700
tombstone.jpg
0 -0.164702 9.707399 117.300690 -0.000000 1.000000 0.000000 0.741600 0.992200
0 22.222698 9.707401 111.302002 -0.000000 1.000000 0.000000 0.617700 0.966700
0 38.611397 9.707403 94.913300 -0.000000 1.000000 0.000000 0.526900 0.897300
tombstone.jpg
0 -0.164702 9.707399 117.300690 -0.000000 1.000000 0.000000 0.741600 0.992200
0 38.611397 9.707403 94.913300 -0.000000 1.000000 0.000000 0.526900 0.897300
0 44.609997 9.707403 72.526001 -0.000000 1.000000 0.000000 0.493700 0.802300
tombstone.jpg
0 -0.164702 9.707399 117.300690 -0.000000 1.000000 0.000000 0.741600 0.992200
0 44.609997 9.707403 72.526001 -0.000000 1.000000 0.000000 0.493700 0.802300
0 44.767895 9.707403 0.139601 -0.000000 1.000000 0.000000 0.492800 0.495400
tombstone.jpg
0 -0.164702 9.707399 117.300690 -0.000000 1.000000 0.000000 0.741600 0.992200
0 44.767895 9.707403 0.139601 -0.000000 1.000000 0.000000 0.492800 0.495400
0 -44.991302 9.707396 0.046900 -0.000000 1.000000 0.000000 0.989900 0.495000
tombstone.jpg
0 -0.164702 9.707399 117.300690 -0.000000 1.000000 0.000000 0.741600 0.992200
0 -44.991302 9.707396 0.046900 -0.000000 1.000000 0.000000 0.989900 0.495000
0 -44.939304 9.707396 72.526001 -0.000000 1.000000 0.000000 0.989600 0.802300
end
