version 1
nodes
0 "Box01" -1
1 "Cylinder02" -1
end
skeleton
time 0
0 0.463523 1.234280 -0.084233 0.000000 0.000000 0.000000
1 -67.244713 93.749664 43.511734 1.520942 -0.185155 0.313113
end
triangles
grave_02.jpg
0 -48.299198 -104.690498 1.680400 0.000000 0.000000 1.000000 0.623600 0.150800
0 49.226299 -104.690498 1.680400 0.000000 0.000000 1.000000 0.903200 0.150800
0 49.226299 107.158997 1.680400 0.000000 0.000000 1.000000 0.903200 0.912000
grave_02.jpg
0 49.226299 107.158997 1.680400 0.000000 0.000000 1.000000 0.903200 0.912000
0 -48.299198 107.158997 1.680400 0.000000 0.000000 1.000000 0.623600 0.912000
0 -48.299198 -104.690498 1.680400 0.000000 0.000000 1.000000 0.623600 0.150800
grave_02.jpg
0 -61.465099 -119.373802 -0.084200 0.000000 -1.000000 0.000000 0.526300 0.601800
0 62.392200 -119.373802 -0.084200 0.000000 -1.000000 0.000000 0.526300 0.243300
0 62.392200 -119.373802 42.909599 0.000000 -1.000000 0.000000 0.617800 0.243300
grave_02.jpg
0 62.392200 -119.373802 42.909599 0.000000 -1.000000 0.000000 0.617800 0.243300
0 -61.465099 -119.373802 42.909599 0.000000 -1.000000 0.000000 0.617800 0.601800
0 -61.465099 -119.373802 -0.084200 0.000000 -1.000000 0.000000 0.526300 0.601800
grave_02.jpg
0 62.392200 -119.373802 -0.084200 1.000000 0.000000 0.000000 0.905000 0.909500
0 62.392200 121.842400 -0.084200 1.000000 0.000000 0.000000 0.909700 0.145600
0 62.392200 121.842400 42.909599 1.000000 0.000000 0.000000 0.996100 0.145600
grave_02.jpg
0 62.392200 121.842400 42.909599 1.000000 0.000000 0.000000 0.996100 0.145600
0 62.392200 -119.373802 42.909599 1.000000 0.000000 0.000000 0.991400 0.909500
0 62.392200 -119.373802 -0.084200 1.000000 0.000000 0.000000 0.905000 0.909500
grave_02.jpg
0 62.392200 121.842400 -0.084200 0.000000 1.000000 0.000000 0.526300 0.243300
0 -61.465099 121.842400 -0.084200 0.000000 1.000000 0.000000 0.526300 0.601800
0 -61.465099 121.842400 42.909599 0.000000 1.000000 0.000000 0.617800 0.601800
grave_02.jpg
0 -61.465099 121.842400 42.909599 0.000000 1.000000 0.000000 0.617800 0.601800
0 62.392200 121.842400 42.909599 0.000000 1.000000 0.000000 0.617800 0.243300
0 62.392200 121.842400 -0.084200 0.000000 1.000000 0.000000 0.526300 0.243300
grave_02.jpg
0 -61.465099 121.842400 -0.084200 -1.000000 0.000000 0.000000 0.908100 0.146000
0 -61.465099 -119.373802 -0.084200 -1.000000 0.000000 0.000000 0.908200 0.910000
0 -61.465099 -119.373802 42.909599 -1.000000 0.000000 0.000000 0.994600 0.910000
grave_02.jpg
0 -61.465099 -119.373802 42.909599 -1.000000 0.000000 0.000000 0.994600 0.910000
0 -61.465099 121.842400 42.909599 -1.000000 0.000000 0.000000 0.994500 0.146000
0 -61.465099 121.842400 -0.084200 -1.000000 0.000000 0.000000 0.908100 0.146000
grave_02.jpg
0 -61.465099 -119.373802 42.909599 0.000000 -0.000800 1.000000 -0.001000 -0.001900
0 62.392200 -119.373802 42.909599 0.000000 -0.000800 1.000000 0.515500 -0.001900
0 49.226299 -104.690498 42.923199 0.000000 -0.000800 1.000000 0.493100 0.035000
grave_02.jpg
0 49.226299 -104.690498 42.923199 0.000000 -0.000800 1.000000 0.493100 0.035000
0 -48.299198 -104.690498 42.923199 0.000000 -0.000800 1.000000 0.025400 0.035000
0 -61.465099 -119.373802 42.909599 0.000000 -0.000800 1.000000 -0.001000 -0.001900
grave_02.jpg
0 62.392200 -119.373802 42.909599 0.001000 0.000000 1.000000 0.515500 -0.001900
0 62.392200 121.842400 42.909599 0.001000 0.000000 1.000000 0.515500 0.997100
0 49.226299 107.158997 42.923199 0.001000 0.000000 1.000000 0.493100 0.965000
grave_02.jpg
0 49.226299 107.158997 42.923199 0.001000 0.000000 1.000000 0.493100 0.965000
0 49.226299 -104.690498 42.923199 0.001000 0.000000 1.000000 0.493100 0.035000
0 62.392200 -119.373802 42.909599 0.001000 0.000000 1.000000 0.515500 -0.001900
grave_02.jpg
0 62.392200 121.842400 42.909599 0.000000 0.000800 1.000000 0.515500 0.997100
0 -61.465099 121.842400 42.909599 0.000000 0.000800 1.000000 -0.001000 0.997100
0 -48.299198 107.158997 42.923199 0.000000 0.000800 1.000000 0.025400 0.965000
grave_02.jpg
0 -48.299198 107.158997 42.923199 0.000000 0.000800 1.000000 0.025400 0.965000
0 49.226299 107.158997 42.923199 0.000000 0.000800 1.000000 0.493100 0.965000
0 62.392200 121.842400 42.909599 0.000000 0.000800 1.000000 0.515500 0.997100
grave_02.jpg
0 -61.465099 121.842400 42.909599 -0.001000 0.000000 1.000000 -0.001000 0.997100
0 -61.465099 -119.373802 42.909599 -0.001000 0.000000 1.000000 -0.001000 -0.001900
0 -48.299198 -104.690498 42.923199 -0.001000 0.000000 1.000000 0.025400 0.035000
grave_02.jpg
0 -48.299198 -104.690498 42.923199 -0.001000 0.000000 1.000000 0.025400 0.035000
0 -48.299198 107.158997 42.923199 -0.001000 0.000000 1.000000 0.025400 0.965000
0 -61.465099 121.842400 42.909599 -0.001000 0.000000 1.000000 -0.001000 0.997100
grave_02.jpg
0 -48.299198 -104.690498 42.923199 0.000000 1.000000 0.000000 0.906900 0.993600
0 49.226299 -104.690498 42.923199 0.000000 1.000000 0.000000 0.633800 0.993600
0 49.226299 -104.690498 1.680400 0.000000 1.000000 0.000000 0.633800 0.919400
grave_02.jpg
0 49.226299 -104.690498 1.680400 0.000000 1.000000 0.000000 0.633800 0.919400
0 -48.299198 -104.690498 1.680400 0.000000 1.000000 0.000000 0.906900 0.919400
0 -48.299198 -104.690498 42.923199 0.000000 1.000000 0.000000 0.906900 0.993600
grave_02.jpg
0 49.226299 -104.690498 42.923199 -1.000000 0.000000 0.000000 0.639600 0.998600
0 49.226299 107.158997 42.923199 -1.000000 0.000000 0.000000 0.905400 0.998400
0 49.226299 107.158997 1.680400 -1.000000 0.000000 0.000000 0.904100 0.916200
grave_02.jpg
0 49.226299 107.158997 1.680400 -1.000000 0.000000 0.000000 0.904100 0.916200
0 49.226299 -104.690498 1.680400 -1.000000 0.000000 0.000000 0.640300 0.916500
0 49.226299 -104.690498 42.923199 -1.000000 0.000000 0.000000 0.639600 0.998600
grave_02.jpg
0 49.226299 107.158997 42.923199 0.000000 -1.000000 0.000000 0.633800 0.993600
0 -48.299198 107.158997 42.923199 0.000000 -1.000000 0.000000 0.906900 0.993600
0 -48.299198 107.158997 1.680400 0.000000 -1.000000 0.000000 0.906900 0.919400
grave_02.jpg
0 -48.299198 107.158997 1.680400 0.000000 -1.000000 0.000000 0.906900 0.919400
0 49.226299 107.158997 1.680400 0.000000 -1.000000 0.000000 0.633800 0.919400
0 49.226299 107.158997 42.923199 0.000000 -1.000000 0.000000 0.633800 0.993600
grave_02.jpg
0 -48.299198 107.158997 42.923199 1.000000 0.000000 0.000000 0.905400 0.998400
0 -48.299198 -104.690498 42.923199 1.000000 0.000000 0.000000 0.639600 0.998700
0 -48.299198 -104.690498 1.680400 1.000000 0.000000 0.000000 0.640300 0.916500
grave_02.jpg
0 -48.299198 -104.690498 1.680400 1.000000 0.000000 0.000000 0.640300 0.916500
0 -48.299198 107.158997 1.680400 1.000000 0.000000 0.000000 0.904100 0.916300
0 -48.299198 107.158997 42.923199 1.000000 0.000000 0.000000 0.905400 0.998400
grave_02.jpg
1 -16.816200 110.076599 53.439701 -0.298907 0.953023 -0.049001 0.990900 0.003100
1 -55.644798 98.589897 66.898499 -0.298907 0.953023 -0.049001 0.868000 0.124000
1 -28.995701 106.803596 64.084297 -0.298907 0.953023 -0.049001 0.956600 0.077800
grave_02.jpg
1 -16.816200 110.076599 53.439701 -0.298907 0.953023 -0.049001 0.990900 0.003100
1 -86.724701 88.527397 60.779800 -0.298907 0.953023 -0.049001 0.758500 0.124000
1 -55.644798 98.589897 66.898499 -0.298907 0.953023 -0.049001 0.868000 0.124000
grave_02.jpg
1 -16.816200 110.076599 53.439701 -0.298907 0.953023 -0.049001 0.990900 0.003100
1 -110.363899 80.459602 48.065201 -0.298907 0.953023 -0.049001 0.669900 0.077800
1 -86.724701 88.527397 60.779800 -0.298907 0.953023 -0.049001 0.758500 0.124000
grave_02.jpg
1 -16.816200 110.076599 53.439701 -0.298907 0.953023 -0.049001 0.990900 0.003100
1 -117.532997 77.468201 33.611401 -0.298907 0.953023 -0.049001 0.636100 0.003100
1 -110.363899 80.459602 48.065201 -0.298907 0.953023 -0.049001 0.669900 0.077800
grave_02.jpg
1 -16.816200 110.076599 53.439701 0.828531 0.284610 0.482218 0.479800 0.973600
1 39.371399 -111.172394 75.287498 0.714826 0.257609 0.650124 0.402200 0.031200
1 51.550896 -107.899384 64.642899 0.828531 0.284610 0.482218 0.479800 0.031200
grave_02.jpg
1 -16.816200 110.076599 53.439701 0.828531 0.284610 0.482218 0.479800 0.973600
1 -28.995701 106.803596 64.084297 0.564116 0.217906 0.796423 0.402200 0.973600
1 39.371399 -111.172394 75.287498 0.714826 0.257609 0.650124 0.402200 0.031200
grave_02.jpg
1 -28.995701 106.803596 64.084297 0.564116 0.217906 0.796423 0.402200 0.973600
1 12.722298 -119.386108 78.101700 0.209490 0.115595 0.970954 0.302400 0.031200
1 39.371399 -111.172394 75.287498 0.714826 0.257609 0.650124 0.402200 0.031200
grave_02.jpg
1 -28.995701 106.803596 64.084297 0.564116 0.217906 0.796423 0.402200 0.973600
1 -55.644798 98.589897 66.898499 0.005300 0.052999 0.998581 0.302400 0.973600
1 12.722298 -119.386108 78.101700 0.209490 0.115595 0.970954 0.302400 0.031200
grave_02.jpg
1 -55.644798 98.589897 66.898499 0.005300 0.052999 0.998581 0.302400 0.973600
1 -18.357594 -129.448593 71.982903 -0.377786 -0.070997 0.923167 0.203100 0.031200
1 12.722298 -119.386108 78.101700 0.209490 0.115595 0.970954 0.302400 0.031200
grave_02.jpg
1 -55.644798 98.589897 66.898499 0.005300 0.052999 0.998581 0.302400 0.973600
1 -86.724701 88.527397 60.779800 -0.556629 -0.132407 0.820142 0.203100 0.973600
1 -18.357594 -129.448593 71.982903 -0.377786 -0.070997 0.923167 0.203100 0.031200
grave_02.jpg
1 -86.724701 88.527397 60.779800 -0.556629 -0.132407 0.820142 0.203100 0.973600
1 -41.996796 -137.516403 59.268398 -0.820701 -0.230500 0.522800 0.103300 0.031200
1 -18.357594 -129.448593 71.982903 -0.377786 -0.070997 0.923167 0.203100 0.031200
grave_02.jpg
1 -86.724701 88.527397 60.779800 -0.556629 -0.132407 0.820142 0.203100 0.973600
1 -110.363899 80.459602 48.065201 -0.905922 -0.267307 0.328408 0.103300 0.973600
1 -41.996796 -137.516403 59.268398 -0.820701 -0.230500 0.522800 0.103300 0.031200
grave_02.jpg
1 -110.363899 80.459602 48.065201 -0.905922 -0.267307 0.328408 0.103300 0.973600
1 -49.165894 -140.507797 44.814499 -0.948138 -0.290812 0.128305 0.026200 0.031200
1 -41.996796 -137.516403 59.268398 -0.820701 -0.230500 0.522800 0.103300 0.031200
grave_02.jpg
1 -110.363899 80.459602 48.065201 -0.905922 -0.267307 0.328408 0.103300 0.973600
1 -117.532997 77.468201 33.611401 -0.948138 -0.290812 0.128305 0.026200 0.973600
1 -49.165894 -140.507797 44.814499 -0.948138 -0.290812 0.128305 0.026200 0.031200
grave_02.jpg
1 51.550896 -107.899384 64.642899 0.298907 -0.953023 0.049001 0.990900 0.003100
1 39.371399 -111.172394 75.287498 0.298907 -0.953023 0.049001 0.956600 0.077800
1 12.722298 -119.386108 78.101700 0.298907 -0.953023 0.049001 0.868000 0.124000
grave_02.jpg
1 51.550896 -107.899384 64.642899 0.298907 -0.953023 0.049001 0.990900 0.003100
1 12.722298 -119.386108 78.101700 0.298907 -0.953023 0.049001 0.868000 0.124000
1 -18.357594 -129.448593 71.982903 0.298907 -0.953023 0.049001 0.758500 0.124000
grave_02.jpg
1 51.550896 -107.899384 64.642899 0.298907 -0.953023 0.049001 0.990900 0.003100
1 -18.357594 -129.448593 71.982903 0.298907 -0.953023 0.049001 0.758500 0.124000
1 -41.996796 -137.516403 59.268398 0.298907 -0.953023 0.049001 0.669900 0.077800
grave_02.jpg
1 51.550896 -107.899384 64.642899 0.298907 -0.953023 0.049001 0.990900 0.003100
1 -41.996796 -137.516403 59.268398 0.298907 -0.953023 0.049001 0.669900 0.077800
1 -49.165894 -140.507797 44.814499 0.298907 -0.953023 0.049001 0.636100 0.003100
end
