version 1
nodes
0 "QuadPatch01" -1
1 "QuadPatch02" -1
2 "QuadPatch03" -1
3 "QuadPatch04" -1
4 "QuadPatch05" -1
end
skeleton
time 0
0 -15.491014 103.789009 0.000000 0.000000 0.000000 -2.530727
1 71.062393 43.984077 0.000000 0.000000 0.000000 2.443461
2 51.440811 -193.348404 0.000000 0.000000 0.000000 -0.872665
3 138.333679 -87.217331 0.000000 0.000000 0.000000 -2.530727
4 -128.709198 150.976578 0.000000 0.000000 0.000000 0.959931
end
triangles
tree_08.tga
0 -46.316299 74.652100 2.673200 -0.020100 -0.186201 0.982306 0.000000 0.000000
0 -14.803200 99.361603 7.263900 0.050301 -0.038000 0.998011 1.000000 0.000000
0 -39.767300 134.609207 24.150499 -0.077101 -0.216602 0.973211 1.000000 1.000000
tree_08.tga
0 -39.767300 134.609207 24.150499 -0.077101 -0.216602 0.973211 1.000000 1.000000
0 -66.179710 102.850197 14.398500 -0.235105 -0.063101 0.969920 0.000000 1.000000
0 -46.316299 74.652100 2.673200 -0.020100 -0.186201 0.982306 0.000000 0.000000
tree_08.tga
0 -66.179710 102.850197 14.398500 -0.235105 -0.063101 0.969920 0.000000 0.000000
0 -39.767300 134.609207 24.150499 -0.077101 -0.216602 0.973211 1.000000 0.000000
0 -71.114098 163.791504 7.083700 -0.371205 0.081001 0.925011 1.000000 1.000000
tree_08.tga
0 -71.114098 163.791504 7.083700 -0.371205 0.081001 0.925011 1.000000 1.000000
0 -88.047501 152.238602 2.438700 -0.318613 0.087503 0.943837 0.000000 1.000000
0 -66.179710 102.850197 14.398500 -0.235105 -0.063101 0.969920 0.000000 0.000000
tree_08.tga
0 -23.044203 40.430595 14.656700 0.003100 0.123997 0.992278 0.000000 0.000000
0 12.215600 61.289600 3.041200 0.267095 0.083098 0.960081 1.000000 0.000000
0 -14.803200 99.361603 7.263900 0.050301 -0.038000 0.998011 1.000000 1.000000
tree_08.tga
0 -14.803200 99.361603 7.263900 0.050301 -0.038000 0.998011 1.000000 1.000000
0 -46.316299 74.652100 2.673200 -0.020100 -0.186201 0.982306 0.000000 1.000000
0 -23.044203 40.430595 14.656700 0.003100 0.123997 0.992278 0.000000 0.000000
tree_08.tga
0 -30.901199 152.117004 3.041200 -0.164801 0.216801 0.962205 0.000000 0.000000
0 -5.197900 130.538803 20.464199 -0.147905 0.204007 0.967732 1.000000 0.000000
0 18.252502 157.337494 12.745700 0.012600 0.004800 0.999909 1.000000 1.000000
tree_08.tga
0 18.252502 157.337494 12.745700 0.012600 0.004800 0.999909 1.000000 1.000000
0 -7.647099 190.547119 24.150499 0.216009 -0.121205 0.968839 0.000000 1.000000
0 -30.901199 152.117004 3.041200 -0.164801 0.216801 0.962205 0.000000 0.000000
tree_08.tga
0 -7.647099 190.547119 24.150499 0.216009 -0.121205 0.968839 0.000000 0.000000
0 18.252502 157.337494 12.745700 0.012600 0.004800 0.999909 1.000000 0.000000
0 43.705097 204.972794 2.871800 0.374198 0.034800 0.926696 1.000000 1.000000
tree_08.tga
0 43.705097 204.972794 2.871800 0.374198 0.034800 0.926696 1.000000 1.000000
0 31.506496 215.505005 6.650500 0.360998 0.084899 0.928694 0.000000 1.000000
0 -7.647099 190.547119 24.150499 0.216009 -0.121205 0.968839 0.000000 0.000000
tree_08.tga
0 -64.751602 129.674393 14.398500 -0.102002 0.059301 0.993015 0.000000 0.000000
0 -30.879601 102.169403 3.499500 -0.083700 -0.454502 0.886804 1.000000 0.000000
0 -5.197900 130.538803 20.464199 -0.147905 0.204007 0.967732 1.000000 1.000000
tree_08.tga
0 -5.197900 130.538803 20.464199 -0.147905 0.204007 0.967732 1.000000 1.000000
0 -30.901199 152.117004 3.041200 -0.164801 0.216801 0.962205 0.000000 1.000000
0 -64.751602 129.674393 14.398500 -0.102002 0.059301 0.993015 0.000000 0.000000
tree_08.tga
0 28.263206 111.352303 8.093600 -0.234195 0.059299 0.970379 0.000000 0.000000
0 8.955100 83.853500 -0.544900 -0.157302 -0.067901 0.985213 1.000000 0.000000
0 44.626003 51.600197 24.150499 -0.048402 0.124505 0.991038 1.000000 1.000000
tree_08.tga
0 44.626003 51.600197 24.150499 -0.048402 0.124505 0.991038 1.000000 1.000000
0 69.494698 85.423691 14.656700 0.259208 0.087703 0.961831 0.000000 1.000000
0 28.263206 111.352303 8.093600 -0.234195 0.059299 0.970379 0.000000 0.000000
tree_08.tga
0 69.494698 85.423691 14.656700 0.259208 0.087703 0.961831 0.000000 0.000000
0 44.626003 51.600197 24.150499 -0.048402 0.124505 0.991038 1.000000 0.000000
0 88.406311 36.281502 6.886700 0.374181 -0.002600 0.927352 1.000000 1.000000
tree_08.tga
0 88.406311 36.281502 6.886700 0.374181 -0.002600 0.927352 1.000000 1.000000
0 98.582001 51.381199 2.635700 0.383514 0.001600 0.923534 0.000000 1.000000
0 69.494698 85.423691 14.656700 0.259208 0.087703 0.961831 0.000000 0.000000
tree_08.tga
0 -0.450499 131.417801 6.712600 0.033499 -0.144295 0.988967 0.000000 0.000000
0 -26.387199 95.695702 9.436800 0.239199 -0.100100 0.965797 1.000000 0.000000
0 8.955100 83.853500 -0.544900 -0.157302 -0.067901 0.985213 1.000000 1.000000
tree_08.tga
0 8.955100 83.853500 -0.544900 -0.157302 -0.067901 0.985213 1.000000 1.000000
0 28.263206 111.352303 8.093600 -0.234195 0.059299 0.970379 0.000000 1.000000
0 -0.450499 131.417801 6.712600 0.033499 -0.144295 0.988967 0.000000 0.000000
tree_08.tga
0 31.385700 108.087097 2.775200 0.006100 0.267603 0.963510 0.000000 0.000000
0 3.671201 121.510399 0.563700 0.057402 -0.044902 0.997341 1.000000 0.000000
0 -10.431600 91.512001 11.838100 -0.126103 0.325708 0.937023 1.000000 1.000000
tree_08.tga
0 -10.431600 91.512001 11.838100 -0.126103 0.325708 0.937023 1.000000 1.000000
0 9.168801 58.639397 28.378099 -0.239889 0.064497 0.968656 0.000000 1.000000
0 31.385700 108.087097 2.775200 0.006100 0.267603 0.963510 0.000000 0.000000
tree_08.tga
0 9.168801 58.639397 28.378099 -0.239889 0.064497 0.968656 0.000000 0.000000
0 -10.431600 91.512001 11.838100 -0.126103 0.325708 0.937023 1.000000 0.000000
0 -27.256302 44.177898 12.169700 -0.352283 -0.148393 0.924055 1.000000 1.000000
tree_08.tga
0 -27.256302 44.177898 12.169700 -0.352283 -0.148393 0.924055 1.000000 1.000000
0 -2.140703 32.466301 12.169700 -0.208897 -0.447994 0.869289 0.000000 1.000000
0 9.168801 58.639397 28.378099 -0.239889 0.064497 0.968656 0.000000 0.000000
tree_08.tga
0 47.400002 142.076996 3.499500 0.043399 -0.230997 0.971986 0.000000 0.000000
0 10.509902 164.771896 21.993601 0.156801 -0.458204 0.874907 1.000000 0.000000
0 3.671201 121.510399 0.563700 0.057402 -0.044902 0.997341 1.000000 1.000000
tree_08.tga
0 3.671201 121.510399 0.563700 0.057402 -0.044902 0.997341 1.000000 1.000000
0 31.385700 108.087097 2.775200 0.006100 0.267603 0.963510 0.000000 1.000000
0 47.400002 142.076996 3.499500 0.043399 -0.230997 0.971986 0.000000 0.000000
tree_08.tga
1 34.940102 66.217796 2.673200 -0.185100 -0.028800 0.982298 0.000000 0.000000
1 66.963898 42.173801 7.263900 -0.023700 -0.058401 0.998012 1.000000 0.000000
1 94.549202 75.410004 24.150499 -0.229201 0.018400 0.973205 1.000000 1.000000
tree_08.tga
1 94.549202 75.410004 24.150499 -0.229201 0.018400 0.973205 1.000000 1.000000
1 57.036400 92.702599 14.398500 -0.121801 0.210802 0.969911 0.000000 1.000000
1 34.940102 66.217796 2.673200 -0.185100 -0.028800 0.982298 0.000000 0.000000
tree_08.tga
1 57.036400 92.702599 14.398500 -0.121801 0.210802 0.969911 0.000000 0.000000
1 94.549202 75.410004 24.150499 -0.229201 0.018400 0.973205 1.000000 0.000000
1 114.624100 113.241592 7.083700 -0.017900 0.379506 0.925016 1.000000 1.000000
tree_08.tga
1 114.624100 113.241592 7.083700 -0.017900 0.379506 0.925016 1.000000 1.000000
1 99.082100 126.607895 2.438700 0.002100 0.330412 0.943834 0.000000 1.000000
1 57.036400 92.702599 14.398500 -0.121801 0.210802 0.969911 0.000000 0.000000
tree_08.tga
1 7.907898 34.881500 14.656700 0.120597 0.029099 0.992275 0.000000 0.000000
1 37.182098 6.221901 3.041200 0.149397 -0.236495 0.960079 1.000000 0.000000
1 66.963898 42.173801 7.263900 -0.023700 -0.058401 0.998012 1.000000 1.000000
tree_08.tga
1 66.963898 42.173801 7.263900 -0.023700 -0.058401 0.998012 1.000000 1.000000
1 34.940102 66.217796 2.673200 -0.185100 -0.028800 0.982298 0.000000 1.000000
1 7.907898 34.881500 14.656700 0.120597 0.029099 0.992275 0.000000 0.000000
tree_08.tga
1 113.755203 71.377296 3.041200 0.166800 0.215299 0.962198 0.000000 0.000000
1 99.564697 40.965000 20.464199 0.158709 0.195611 0.967754 1.000000 0.000000
1 131.519699 25.249701 12.745700 0.007900 -0.010900 0.999909 1.000000 1.000000
tree_08.tga
1 131.519699 25.249701 12.745700 0.007900 -0.010900 0.999909 1.000000 1.000000
1 156.894394 58.862099 24.150499 -0.061103 -0.240011 0.968845 0.000000 1.000000
1 113.755203 71.377296 3.041200 0.166800 0.215299 0.962198 0.000000 0.000000
tree_08.tga
1 156.894394 58.862099 24.150499 -0.061103 -0.240011 0.968845 0.000000 0.000000
1 131.519699 25.249701 12.745700 0.007900 -0.010900 0.999909 1.000000 0.000000
1 184.119507 12.993301 2.871800 0.130501 -0.352402 0.926705 1.000000 1.000000
tree_08.tga
1 184.119507 12.993301 2.871800 0.130501 -0.352402 0.926705 1.000000 1.000000
1 191.135590 27.502199 6.650500 0.175402 -0.326703 0.928708 0.000000 1.000000
1 156.894394 58.862099 24.150499 -0.061103 -0.240011 0.968845 0.000000 0.000000
tree_08.tga
1 83.316200 98.265800 14.398500 0.030900 0.113901 0.993011 0.000000 0.000000
1 65.515198 58.429100 3.499500 -0.460697 -0.036800 0.886794 1.000000 0.000000
1 99.564697 40.965000 20.464199 0.158709 0.195611 0.967754 1.000000 1.000000
tree_08.tga
1 99.564697 40.965000 20.464199 0.158709 0.195611 0.967754 1.000000 1.000000
1 113.755203 71.377296 3.041200 0.166800 0.215299 0.962198 0.000000 1.000000
1 83.316200 98.265800 14.398500 0.030900 0.113901 0.993011 0.000000 0.000000
tree_08.tga
1 89.692299 3.678299 8.093600 -0.003400 0.241593 0.970372 0.000000 0.000000
1 58.133301 15.211203 -0.544900 -0.106302 0.134303 0.985222 1.000000 0.000000
1 36.211300 -27.591896 24.150499 0.107704 0.079003 0.991039 1.000000 1.000000
tree_08.tga
1 36.211300 -27.591896 24.150499 0.107704 0.079003 0.991039 1.000000 1.000000
1 75.318802 -42.859100 14.656700 0.151807 -0.227611 0.961846 0.000000 1.000000
1 89.692299 3.678299 8.093600 -0.003400 0.241593 0.970372 0.000000 0.000000
tree_08.tga
1 75.318802 -42.859100 14.656700 0.151807 -0.227611 0.961846 0.000000 0.000000
1 36.211300 -27.591896 24.150499 0.107704 0.079003 0.991039 1.000000 0.000000
1 32.745705 -73.845299 6.886700 0.094296 -0.362086 0.927363 1.000000 1.000000
tree_08.tga
1 32.745705 -73.845299 6.886700 0.094296 -0.362086 0.927363 1.000000 1.000000
1 49.964600 -79.766090 2.635700 0.100804 -0.370016 0.923540 0.000000 1.000000
1 75.318802 -42.859100 14.656700 0.151807 -0.227611 0.961846 0.000000 0.000000
tree_08.tga
1 101.642502 36.606899 6.712600 -0.130696 -0.069698 0.988970 0.000000 0.000000
1 60.424801 52.414299 9.436800 -0.034700 -0.256997 0.965789 1.000000 0.000000
1 58.133301 15.211203 -0.544900 -0.106302 0.134303 0.985222 1.000000 1.000000
tree_08.tga
1 58.133301 15.211203 -0.544900 -0.106302 0.134303 0.985222 1.000000 1.000000
1 89.692299 3.678299 8.093600 -0.003400 0.241593 0.970372 0.000000 1.000000
1 101.642502 36.606899 6.712600 -0.130696 -0.069698 0.988970 0.000000 0.000000
tree_08.tga
1 87.346603 -0.182899 2.775200 0.260100 0.063400 0.963498 0.000000 0.000000
1 93.139503 30.061501 0.563700 -0.028501 -0.067103 0.997339 1.000000 0.000000
1 60.513199 35.919498 11.838100 0.281912 0.206109 0.937040 1.000000 1.000000
tree_08.tga
1 60.513199 35.919498 11.838100 0.281912 0.206109 0.937040 1.000000 1.000000
1 33.833599 8.479000 28.378099 0.000200 0.248390 0.968660 0.000000 1.000000
1 87.346603 -0.182899 2.775200 0.260100 0.063400 0.963498 0.000000 0.000000
tree_08.tga
1 33.833599 8.479000 28.378099 0.000200 0.248390 0.968660 0.000000 0.000000
1 60.513199 35.919498 11.838100 0.281912 0.206109 0.937040 1.000000 0.000000
1 10.437401 39.919998 12.169700 -0.234489 0.301886 0.924056 1.000000 1.000000
tree_08.tga
1 10.437401 39.919998 12.169700 -0.234489 0.301886 0.924056 1.000000 1.000000
1 5.625298 12.629002 12.169700 -0.486796 0.085799 0.869292 0.000000 1.000000
1 33.833599 8.479000 28.378099 0.000200 0.248390 0.968660 0.000000 0.000000
tree_08.tga
1 124.323196 -6.854301 3.499500 -0.211897 -0.101699 0.971986 0.000000 0.000000
1 136.696899 34.652603 21.993601 -0.402009 -0.270006 0.874920 1.000000 0.000000
1 93.139503 30.061501 0.563700 -0.028501 -0.067103 0.997339 1.000000 1.000000
tree_08.tga
1 93.139503 30.061501 0.563700 -0.028501 -0.067103 0.997339 1.000000 1.000000
1 87.346603 -0.182899 2.775200 0.260100 0.063400 0.963498 0.000000 1.000000
1 124.323196 -6.854301 3.499500 -0.211897 -0.101699 0.971986 0.000000 0.000000
tree_08.tga
2 83.153503 -221.516998 2.673200 0.187299 -0.003800 0.982296 0.000000 0.000000
2 55.791401 -192.277298 7.263900 0.033500 0.053401 0.998011 1.000000 0.000000
2 22.853703 -220.218506 24.150499 0.222503 -0.057901 0.973211 1.000000 1.000000
tree_08.tga
2 22.853703 -220.218506 24.150499 0.222503 -0.057901 0.973211 1.000000 1.000000
2 56.793903 -243.762405 14.398500 0.083401 -0.228704 0.969917 0.000000 1.000000
2 83.153503 -221.516998 2.673200 0.187299 -0.003800 0.982296 0.000000 0.000000
tree_08.tga
2 56.793903 -243.762405 14.398500 0.083401 -0.228704 0.969917 0.000000 0.000000
2 22.853703 -220.218506 24.150499 0.222503 -0.057901 0.973211 1.000000 0.000000
2 -3.485500 -253.989410 7.083700 -0.048300 -0.376898 0.924995 1.000000 1.000000
tree_08.tga
2 -3.485500 -253.989410 7.083700 -0.048300 -0.376898 0.924995 1.000000 1.000000
2 9.499302 -269.851410 2.438700 -0.059403 -0.325014 0.943842 0.000000 1.000000
2 56.793903 -243.762405 14.398500 0.083401 -0.228704 0.969917 0.000000 0.000000
tree_08.tga
2 115.216400 -195.350800 14.656700 -0.123797 -0.007700 0.992278 0.000000 0.000000
2 91.363701 -162.043198 3.041200 -0.105997 0.258893 0.960073 1.000000 0.000000
2 55.791401 -192.277298 7.263900 0.033500 0.053401 0.998011 1.000000 1.000000
tree_08.tga
2 55.791401 -192.277298 7.263900 0.033500 0.053401 0.998011 1.000000 1.000000
2 83.153503 -221.516998 2.673200 0.187299 -0.003800 0.982296 0.000000 1.000000
2 115.216400 -195.350800 14.656700 -0.123797 -0.007700 0.992278 0.000000 0.000000
tree_08.tga
2 4.639801 -212.912003 3.041200 -0.201696 -0.183097 0.962182 0.000000 0.000000
2 23.895699 -185.425903 20.464199 -0.190308 -0.165107 0.967741 1.000000 0.000000
2 -4.844803 -164.400299 12.745700 -0.005900 0.012100 0.999909 1.000000 1.000000
tree_08.tga
2 -4.844803 -164.400299 12.745700 -0.005900 0.012100 0.999909 1.000000 1.000000
2 -35.670799 -193.095795 24.150499 0.101903 0.225806 0.968828 0.000000 1.000000
2 4.639801 -212.912003 3.041200 -0.201696 -0.183097 0.962182 0.000000 0.000000
tree_08.tga
2 -35.670799 -193.095795 24.150499 0.101903 0.225806 0.968828 0.000000 0.000000
2 -4.844803 -164.400299 12.745700 -0.005900 0.012100 0.999909 1.000000 0.000000
2 -54.517204 -143.196304 2.871800 -0.067301 0.369704 0.926709 1.000000 1.000000
tree_08.tga
2 -54.517204 -143.196304 2.871800 -0.067301 0.369704 0.926709 1.000000 1.000000
2 -63.946205 -156.266418 6.650500 -0.116001 0.352203 0.928707 0.000000 1.000000
2 -35.670799 -193.095795 24.150499 0.101903 0.225806 0.968828 0.000000 0.000000
tree_08.tga
2 29.947302 -244.677597 14.398500 -0.050201 -0.106801 0.993012 0.000000 0.000000
2 54.395401 -208.537292 3.499500 0.460094 -0.043799 0.886789 1.000000 0.000000
2 23.895699 -185.425903 20.464199 -0.190308 -0.165107 0.967741 1.000000 1.000000
tree_08.tga
2 23.895699 -185.425903 20.464199 -0.190308 -0.165107 0.967741 1.000000 1.000000
2 4.639801 -212.912003 3.041200 -0.201696 -0.183097 0.962182 0.000000 1.000000
2 29.947302 -244.677597 14.398500 -0.050201 -0.106801 0.993012 0.000000 0.000000
tree_08.tga
2 40.092896 -150.419907 8.093600 -0.038599 -0.238494 0.970377 0.000000 0.000000
2 69.169800 -167.257797 -0.544900 0.081301 -0.150802 0.985215 1.000000 0.000000
2 98.191399 -128.911591 24.150499 -0.119804 -0.059102 0.991037 1.000000 1.000000
tree_08.tga
2 98.191399 -128.911591 24.150499 -0.119804 -0.059102 0.991037 1.000000 1.000000
2 62.329296 -107.085403 14.656700 -0.110005 0.250511 0.961844 0.000000 1.000000
2 40.092896 -150.419907 8.093600 -0.038599 -0.238494 0.970377 0.000000 0.000000
tree_08.tga
2 62.329296 -107.085403 14.656700 -0.110005 0.250511 0.961844 0.000000 0.000000
2 98.191399 -128.911591 24.150499 -0.119804 -0.059102 0.991037 1.000000 0.000000
2 109.636200 -83.962692 6.886700 -0.029999 0.372981 0.927354 1.000000 1.000000
tree_08.tga
2 109.636200 -83.962692 6.886700 -0.029999 0.372981 0.927354 1.000000 1.000000
2 93.707001 -75.141891 2.635700 -0.035001 0.381914 0.923535 0.000000 1.000000
2 62.329296 -107.085403 14.656700 -0.110005 0.250511 0.961844 0.000000 0.000000
tree_08.tga
2 22.606298 -180.773193 6.712600 0.140796 0.045899 0.988974 0.000000 0.000000
2 60.452900 -203.497803 9.436800 0.078799 0.247095 0.965782 1.000000 0.000000
2 69.169800 -167.257797 -0.544900 0.081301 -0.150802 0.985215 1.000000 1.000000
tree_08.tga
2 69.169800 -167.257797 -0.544900 0.081301 -0.150802 0.985215 1.000000 1.000000
2 40.092896 -150.419907 8.093600 -0.038599 -0.238494 0.970377 0.000000 1.000000
2 22.606298 -180.773193 6.712600 0.140796 0.045899 0.988974 0.000000 0.000000
tree_08.tga
2 43.073502 -147.024704 2.775200 -0.267104 -0.017200 0.963514 0.000000 0.000000
2 32.116798 -175.803696 0.563700 0.039702 0.061103 0.997342 1.000000 0.000000
2 63.230099 -187.238205 11.838100 -0.313415 -0.154007 0.937045 1.000000 1.000000
tree_08.tga
2 63.230099 -187.238205 11.838100 -0.313415 -0.154007 0.937045 1.000000 1.000000
2 94.269402 -164.847397 28.378099 -0.043398 -0.244589 0.968655 0.000000 1.000000
2 43.073502 -147.024704 2.775200 -0.267104 -0.017200 0.963514 0.000000 0.000000
tree_08.tga
2 94.269402 -164.847397 28.378099 -0.043398 -0.244589 0.968655 0.000000 0.000000
2 63.230099 -187.238205 11.838100 -0.313415 -0.154007 0.937045 1.000000 0.000000
2 111.850502 -199.873398 12.169700 0.178494 -0.337989 0.924069 1.000000 1.000000
tree_08.tga
2 111.850502 -199.873398 12.169700 0.178494 -0.337989 0.924069 1.000000 1.000000
2 121.328499 -173.832703 12.169700 0.464491 -0.169097 0.869284 0.000000 1.000000
2 94.269402 -164.847397 28.378099 -0.043398 -0.244589 0.968655 0.000000 0.000000
tree_08.tga
2 7.817196 -134.033798 3.499500 0.226393 0.063398 0.971971 0.000000 0.000000
2 -11.576103 -172.761398 21.993601 0.442805 0.196102 0.874910 1.000000 0.000000
2 32.116798 -175.803696 0.563700 0.039702 0.061103 0.997342 1.000000 1.000000
tree_08.tga
2 32.116798 -175.803696 0.563700 0.039702 0.061103 0.997342 1.000000 1.000000
2 43.073502 -147.024704 2.775200 -0.267104 -0.017200 0.963514 0.000000 1.000000
2 7.817196 -134.033798 3.499500 0.226393 0.063398 0.971971 0.000000 0.000000
tree_08.tga
3 107.508400 -116.354202 2.673200 -0.020100 -0.186201 0.982306 0.000000 0.000000
3 139.021500 -91.644798 7.263900 0.050301 -0.038000 0.998011 1.000000 0.000000
3 114.057404 -56.397095 24.150499 -0.077101 -0.216602 0.973211 1.000000 1.000000
tree_08.tga
3 114.057404 -56.397095 24.150499 -0.077101 -0.216602 0.973211 1.000000 1.000000
3 87.644997 -88.156197 14.398500 -0.235105 -0.063101 0.969920 0.000000 1.000000
3 107.508400 -116.354202 2.673200 -0.020100 -0.186201 0.982306 0.000000 0.000000
tree_08.tga
3 87.644997 -88.156197 14.398500 -0.235105 -0.063101 0.969920 0.000000 0.000000
3 114.057404 -56.397095 24.150499 -0.077101 -0.216602 0.973211 1.000000 0.000000
3 82.710602 -27.214798 7.083700 -0.371205 0.081001 0.925011 1.000000 1.000000
tree_08.tga
3 82.710602 -27.214798 7.083700 -0.371205 0.081001 0.925011 1.000000 1.000000
3 65.777199 -38.767696 2.438700 -0.318613 0.087503 0.943837 0.000000 1.000000
3 87.644997 -88.156197 14.398500 -0.235105 -0.063101 0.969920 0.000000 0.000000
tree_08.tga
3 130.780502 -150.575806 14.656700 0.003100 0.123997 0.992278 0.000000 0.000000
3 166.040298 -129.716797 3.041200 0.267095 0.083098 0.960081 1.000000 0.000000
3 139.021500 -91.644798 7.263900 0.050301 -0.038000 0.998011 1.000000 1.000000
tree_08.tga
3 139.021500 -91.644798 7.263900 0.050301 -0.038000 0.998011 1.000000 1.000000
3 107.508400 -116.354202 2.673200 -0.020100 -0.186201 0.982306 0.000000 1.000000
3 130.780502 -150.575806 14.656700 0.003100 0.123997 0.992278 0.000000 0.000000
tree_08.tga
3 122.923500 -38.889400 3.041200 -0.164801 0.216801 0.962205 0.000000 0.000000
3 148.626801 -60.467598 20.464199 -0.147905 0.204007 0.967732 1.000000 0.000000
3 172.077194 -33.668896 12.745700 0.012600 0.004800 0.999909 1.000000 1.000000
tree_08.tga
3 172.077194 -33.668896 12.745700 0.012600 0.004800 0.999909 1.000000 1.000000
3 146.177597 -0.459297 24.150499 0.216009 -0.121205 0.968839 0.000000 1.000000
3 122.923500 -38.889400 3.041200 -0.164801 0.216801 0.962205 0.000000 0.000000
tree_08.tga
3 146.177597 -0.459297 24.150499 0.216009 -0.121205 0.968839 0.000000 0.000000
3 172.077194 -33.668896 12.745700 0.012600 0.004800 0.999909 1.000000 0.000000
3 197.529800 13.966400 2.871800 0.374198 0.034800 0.926696 1.000000 1.000000
tree_08.tga
3 197.529800 13.966400 2.871800 0.374198 0.034800 0.926696 1.000000 1.000000
3 185.331207 24.498604 6.650500 0.360998 0.084899 0.928694 0.000000 1.000000
3 146.177597 -0.459297 24.150499 0.216009 -0.121205 0.968839 0.000000 0.000000
tree_08.tga
3 89.073097 -61.332001 14.398500 -0.102002 0.059301 0.993015 0.000000 0.000000
3 122.945099 -88.836899 3.499500 -0.083700 -0.454502 0.886804 1.000000 0.000000
3 148.626801 -60.467598 20.464199 -0.147905 0.204007 0.967732 1.000000 1.000000
tree_08.tga
3 148.626801 -60.467598 20.464199 -0.147905 0.204007 0.967732 1.000000 1.000000
3 122.923500 -38.889400 3.041200 -0.164801 0.216801 0.962205 0.000000 1.000000
3 89.073097 -61.332001 14.398500 -0.102002 0.059301 0.993015 0.000000 0.000000
tree_08.tga
3 182.087906 -79.654099 8.093600 -0.234195 0.059299 0.970379 0.000000 0.000000
3 162.779800 -107.152802 -0.544900 -0.157302 -0.067901 0.985213 1.000000 0.000000
3 198.450699 -139.406097 24.150499 -0.048402 0.124505 0.991038 1.000000 1.000000
tree_08.tga
3 198.450699 -139.406097 24.150499 -0.048402 0.124505 0.991038 1.000000 1.000000
3 223.319397 -105.582703 14.656700 0.259208 0.087703 0.961831 0.000000 1.000000
3 182.087906 -79.654099 8.093600 -0.234195 0.059299 0.970379 0.000000 0.000000
tree_08.tga
3 223.319397 -105.582703 14.656700 0.259208 0.087703 0.961831 0.000000 0.000000
3 198.450699 -139.406097 24.150499 -0.048402 0.124505 0.991038 1.000000 0.000000
3 242.231018 -154.724899 6.886700 0.374181 -0.002600 0.927352 1.000000 1.000000
tree_08.tga
3 242.231018 -154.724899 6.886700 0.374181 -0.002600 0.927352 1.000000 1.000000
3 252.406708 -139.625122 2.635700 0.383514 0.001600 0.923534 0.000000 1.000000
3 223.319397 -105.582703 14.656700 0.259208 0.087703 0.961831 0.000000 0.000000
tree_08.tga
3 153.374207 -59.588600 6.712600 0.033499 -0.144295 0.988967 0.000000 0.000000
3 127.437500 -95.310600 9.436800 0.239199 -0.100100 0.965797 1.000000 0.000000
3 162.779800 -107.152802 -0.544900 -0.157302 -0.067901 0.985213 1.000000 1.000000
tree_08.tga
3 162.779800 -107.152802 -0.544900 -0.157302 -0.067901 0.985213 1.000000 1.000000
3 182.087906 -79.654099 8.093600 -0.234195 0.059299 0.970379 0.000000 1.000000
3 153.374207 -59.588600 6.712600 0.033499 -0.144295 0.988967 0.000000 0.000000
tree_08.tga
3 185.210403 -82.919197 2.775200 0.006100 0.267603 0.963510 0.000000 0.000000
3 157.495895 -69.495903 0.563700 0.057402 -0.044902 0.997341 1.000000 0.000000
3 143.393097 -99.494301 11.838100 -0.126103 0.325708 0.937023 1.000000 1.000000
tree_08.tga
3 143.393097 -99.494301 11.838100 -0.126103 0.325708 0.937023 1.000000 1.000000
3 162.993500 -132.366898 28.378099 -0.239889 0.064497 0.968656 0.000000 1.000000
3 185.210403 -82.919197 2.775200 0.006100 0.267603 0.963510 0.000000 0.000000
tree_08.tga
3 162.993500 -132.366898 28.378099 -0.239889 0.064497 0.968656 0.000000 0.000000
3 143.393097 -99.494301 11.838100 -0.126103 0.325708 0.937023 1.000000 0.000000
3 126.568398 -146.828400 12.169700 -0.352283 -0.148393 0.924055 1.000000 1.000000
tree_08.tga
3 126.568398 -146.828400 12.169700 -0.352283 -0.148393 0.924055 1.000000 1.000000
3 151.684006 -158.539993 12.169700 -0.208897 -0.447994 0.869289 0.000000 1.000000
3 162.993500 -132.366898 28.378099 -0.239889 0.064497 0.968656 0.000000 0.000000
tree_08.tga
3 201.224701 -48.929295 3.499500 0.043399 -0.230997 0.971986 0.000000 0.000000
3 164.334595 -26.234501 21.993601 0.156801 -0.458204 0.874907 1.000000 0.000000
3 157.495895 -69.495903 0.563700 0.057402 -0.044902 0.997341 1.000000 1.000000
tree_08.tga
3 157.495895 -69.495903 0.563700 0.057402 -0.044902 0.997341 1.000000 1.000000
3 185.210403 -82.919197 2.775200 0.006100 0.267603 0.963510 0.000000 1.000000
3 201.224701 -48.929295 3.499500 0.043399 -0.230997 0.971986 0.000000 0.000000
tree_08.tga
4 -109.708298 188.899200 2.673200 -0.044800 0.181899 0.982296 0.000000 0.000000
4 -130.869797 154.901703 7.263900 -0.060301 0.018500 0.998009 1.000000 0.000000
4 -95.355789 130.318100 24.150499 -0.001700 0.229903 0.973212 1.000000 1.000000
tree_08.tga
4 -95.355789 130.318100 24.150499 -0.001700 0.229903 0.973212 1.000000 1.000000
4 -81.398499 169.195297 14.398500 0.199402 0.139701 0.969909 0.000000 1.000000
4 -109.708298 188.899200 2.673200 -0.044800 0.181899 0.982296 0.000000 0.000000
tree_08.tga
4 -81.398499 169.195297 14.398500 0.199402 0.139701 0.969909 0.000000 0.000000
4 -95.355789 130.318100 24.150499 -0.001700 0.229903 0.973212 1.000000 0.000000
4 -55.918503 113.616898 7.083700 0.376506 0.050901 0.925015 1.000000 1.000000
tree_08.tga
4 -55.918503 113.616898 7.083700 0.376506 0.050901 0.925015 1.000000 1.000000
4 -43.957703 130.264603 2.438700 0.329314 0.026801 0.943840 0.000000 1.000000
4 -81.398499 169.195297 14.398500 0.199402 0.139701 0.969909 0.000000 0.000000
tree_08.tga
4 -143.281403 213.097397 14.656700 0.039499 -0.117597 0.992276 0.000000 0.000000
4 -169.280594 181.436798 3.041200 -0.222596 -0.169397 0.960081 1.000000 0.000000
4 -130.869797 154.901703 7.263900 -0.060301 0.018500 0.998009 1.000000 1.000000
tree_08.tga
4 -130.869797 154.901703 7.263900 -0.060301 0.018500 0.998009 1.000000 1.000000
4 -109.708298 188.899200 2.673200 -0.044800 0.181899 0.982296 0.000000 1.000000
4 -143.281403 213.097397 14.656700 0.039499 -0.117597 0.992276 0.000000 0.000000
tree_08.tga
4 -97.699203 110.833702 3.041200 0.229095 -0.147397 0.962180 0.000000 0.000000
4 -129.232605 122.319603 20.464199 0.208710 -0.141106 0.967744 1.000000 0.000000
4 -142.103104 89.116501 12.745700 -0.010200 -0.008800 0.999909 1.000000 1.000000
tree_08.tga
4 -142.103104 89.116501 12.745700 -0.010200 -0.008800 0.999909 1.000000 1.000000
4 -106.407097 66.767899 24.150499 -0.244506 0.040001 0.968822 0.000000 1.000000
4 -97.699203 110.833702 3.041200 0.229095 -0.147397 0.962180 0.000000 0.000000
tree_08.tga
4 -106.407097 66.767899 24.150499 -0.244506 0.040001 0.968822 0.000000 0.000000
4 -142.103104 89.116501 12.745700 -0.010200 -0.008800 0.999909 1.000000 0.000000
4 -149.728500 35.648689 2.871800 -0.339701 -0.160701 0.926703 1.000000 1.000000
tree_08.tga
4 -149.728500 35.648689 2.871800 -0.339701 -0.160701 0.926703 1.000000 1.000000
4 -134.663300 29.923790 6.650500 -0.310200 -0.203200 0.928701 0.000000 1.000000
4 -106.407097 66.767899 24.150499 -0.244506 0.040001 0.968822 0.000000 0.000000
tree_08.tga
4 -73.566101 143.500397 14.398500 0.116102 -0.020800 0.993019 0.000000 0.000000
4 -114.802597 157.761703 3.499500 -0.076801 0.455706 0.886811 1.000000 0.000000
4 -129.232605 122.319603 20.464199 0.208710 -0.141106 0.967744 1.000000 1.000000
tree_08.tga
4 -129.232605 122.319603 20.464199 0.208710 -0.141106 0.967744 1.000000 1.000000
4 -97.699203 110.833702 3.041200 0.229095 -0.147397 0.962180 0.000000 1.000000
4 -73.566101 143.500397 14.398500 0.116102 -0.020800 0.993019 0.000000 0.000000
tree_08.tga
4 -167.237900 128.904602 8.093600 0.240392 0.024399 0.970369 0.000000 0.000000
4 -158.499405 161.348801 -0.544900 0.124602 0.117602 0.985213 1.000000 0.000000
4 -203.050293 179.456696 24.150499 0.088103 -0.100404 0.991038 1.000000 1.000000
tree_08.tga
4 -203.050293 179.456696 24.150499 0.088103 -0.100404 0.991038 1.000000 1.000000
4 -214.851013 139.167496 14.656700 -0.213509 -0.171107 0.961840 0.000000 1.000000
4 -167.237900 128.904602 8.093600 0.240392 0.024399 0.970369 0.000000 0.000000
tree_08.tga
4 -214.851013 139.167496 14.656700 -0.213509 -0.171107 0.961840 0.000000 0.000000
4 -203.050293 179.456696 24.150499 0.088103 -0.100404 0.991038 1.000000 0.000000
4 -249.429718 178.877899 6.886700 -0.352486 -0.125495 0.927364 1.000000 1.000000
tree_08.tga
4 -249.429718 178.877899 6.886700 -0.352486 -0.125495 0.927364 1.000000 1.000000
4 -253.827301 161.208496 2.635700 -0.359820 -0.132607 0.923550 0.000000 1.000000
4 -214.851013 139.167496 14.656700 -0.213509 -0.171107 0.961840 0.000000 0.000000
tree_08.tga
4 -133.393005 119.869904 6.712600 -0.080798 0.124097 0.988975 0.000000 0.000000
4 -121.238197 162.308502 9.436800 -0.259000 0.012200 0.965800 1.000000 0.000000
4 -158.499405 161.348801 -0.544900 0.124602 0.117602 0.985213 1.000000 1.000000
tree_08.tga
4 -158.499405 161.348801 -0.544900 0.124602 0.117602 0.985213 1.000000 1.000000
4 -167.237900 128.904602 8.093600 0.240392 0.024399 0.970369 0.000000 1.000000
4 -133.393005 119.869904 6.712600 -0.080798 0.124097 0.988975 0.000000 0.000000
tree_08.tga
4 -171.288803 130.904907 2.775200 0.085800 -0.253599 0.963497 0.000000 0.000000
4 -140.654694 127.770103 0.563700 -0.069303 0.022601 0.997340 1.000000 0.000000
4 -137.662506 160.782700 11.838100 0.229907 -0.262908 0.937028 1.000000 1.000000
tree_08.tga
4 -137.662506 160.782700 11.838100 0.229907 -0.262908 0.937028 1.000000 1.000000
4 -167.323898 184.969193 28.378099 0.247488 0.021399 0.968655 0.000000 1.000000
4 -171.288803 130.904907 2.775200 0.085800 -0.253599 0.963497 0.000000 0.000000
tree_08.tga
4 -167.323898 184.969193 28.378099 0.247488 0.021399 0.968655 0.000000 0.000000
4 -137.662506 160.782700 11.838100 0.229907 -0.262908 0.937028 1.000000 0.000000
4 -138.041702 211.016602 12.169700 0.280289 0.259890 0.924065 1.000000 1.000000
tree_08.tga
4 -138.041702 211.016602 12.169700 0.280289 0.259890 0.924065 1.000000 1.000000
4 -165.648193 213.431900 12.169700 0.043098 0.492476 0.869258 0.000000 1.000000
4 -167.323898 184.969193 28.378099 0.247488 0.021399 0.968655 0.000000 0.000000
tree_08.tga
4 -174.712097 93.487595 3.499500 -0.119799 0.202198 0.971990 0.000000 0.000000
4 -132.284698 84.778603 21.993601 -0.304012 0.376915 0.874935 1.000000 0.000000
4 -140.654694 127.770103 0.563700 -0.069303 0.022601 0.997340 1.000000 1.000000
tree_08.tga
4 -140.654694 127.770103 0.563700 -0.069303 0.022601 0.997340 1.000000 1.000000
4 -171.288803 130.904907 2.775200 0.085800 -0.253599 0.963497 0.000000 1.000000
4 -174.712097 93.487595 3.499500 -0.119799 0.202198 0.971990 0.000000 0.000000
end
