version 1
nodes
0 "GeoSphere01" -1
end
skeleton
time 0
0 -9.770645 -53.010803 25.896732 -0.000000 0.000000 0.000000
end
triangles
ston01.jpg
0 -11.998100 -43.019100 26.485100 -0.219396 -0.010200 0.975583 0.325500 0.845600
0 14.042000 -43.480301 17.318001 0.724769 -0.040998 0.687771 0.479300 0.823400
0 -5.660000 -31.338400 18.660299 0.138506 0.762633 0.631828 0.396400 0.897800
ston01.jpg
0 -11.998100 -43.019100 26.485100 -0.219396 -0.010200 0.975583 0.325500 0.845600
0 -5.660000 -31.338400 18.660299 0.138506 0.762633 0.631828 0.396400 0.897800
0 -33.325901 -32.127998 11.388500 -0.732471 0.503180 0.458582 0.222100 0.902300
ston01.jpg
0 -11.998100 -43.019100 26.485100 -0.219396 -0.010200 0.975583 0.325500 0.845600
0 -33.325901 -32.127998 11.388500 -0.732471 0.503180 0.458582 0.222100 0.902300
0 -35.993698 -50.238201 7.920700 -0.808293 -0.381697 0.448296 0.179000 0.743300
ston01.jpg
0 -11.998100 -43.019100 26.485100 -0.219396 -0.010200 0.975583 0.325500 0.845600
0 -35.993698 -50.238201 7.920700 -0.808293 -0.381697 0.448296 0.179000 0.743300
0 -10.846700 -54.611301 18.660299 0.030001 -0.773315 0.633312 0.323600 0.715700
ston01.jpg
0 -11.998100 -43.019100 26.485100 -0.219396 -0.010200 0.975583 0.325500 0.845600
0 -10.846700 -54.611301 18.660299 0.030001 -0.773315 0.633312 0.323600 0.715700
0 14.042000 -43.480301 17.318001 0.724769 -0.040998 0.687771 0.479300 0.823400
ston01.jpg
0 14.042000 -43.480301 17.318001 0.724769 -0.040998 0.687771 0.479300 0.823400
0 20.474100 -53.794701 -0.108700 0.708265 -0.597871 0.375382 0.456200 0.654000
0 17.359900 -26.937700 -0.108700 0.662330 0.619728 0.421019 0.485100 0.867600
ston01.jpg
0 -5.660000 -31.338400 18.660299 0.138506 0.762633 0.631828 0.396400 0.897800
0 17.359900 -26.937700 -0.108700 0.662330 0.619728 0.421019 0.485100 0.867600
0 -17.380199 -25.082899 -1.272400 -0.335614 0.929638 0.152106 0.350100 0.890800
ston01.jpg
0 -33.325901 -32.127998 11.388500 -0.732471 0.503180 0.458582 0.222100 0.902300
0 -17.380199 -25.082899 -1.272400 -0.335614 0.929638 0.152106 0.350100 0.890800
0 -41.491798 -43.019100 -0.381599 -0.999118 0.040001 0.012800 0.171100 0.762300
ston01.jpg
0 -35.993698 -50.238201 7.920700 -0.808293 -0.381697 0.448296 0.179000 0.743300
0 -41.491798 -43.019100 -0.381599 -0.999118 0.040001 0.012800 0.171100 0.762300
0 -22.570499 -61.877800 -1.272400 -0.441884 -0.864068 0.241091 0.253300 0.601800
ston01.jpg
0 -10.846700 -54.611301 18.660299 0.030001 -0.773315 0.633312 0.323600 0.715700
0 -22.570499 -61.877800 -1.272400 -0.441884 -0.864068 0.241091 0.253300 0.601800
0 20.474100 -53.794701 -0.108700 0.708265 -0.597871 0.375382 0.456200 0.654000
ston01.jpg
0 17.359900 -26.937700 -0.108700 0.662330 0.619728 0.421019 0.485100 0.867600
0 -5.660000 -31.338400 18.660299 0.138506 0.762633 0.631828 0.396400 0.897800
0 14.042000 -43.480301 17.318001 0.724769 -0.040998 0.687771 0.479300 0.823400
ston01.jpg
0 -17.380199 -25.082899 -1.272400 -0.335614 0.929638 0.152106 0.350100 0.890800
0 -33.325901 -32.127998 11.388500 -0.732471 0.503180 0.458582 0.222100 0.902300
0 -5.660000 -31.338400 18.660299 0.138506 0.762633 0.631828 0.396400 0.897800
ston01.jpg
0 -41.491798 -43.019100 -0.381599 -0.999118 0.040001 0.012800 0.171100 0.762300
0 -35.993698 -50.238201 7.920700 -0.808293 -0.381697 0.448296 0.179000 0.743300
0 -33.325901 -32.127998 11.388500 -0.732471 0.503180 0.458582 0.222100 0.902300
ston01.jpg
0 -22.570499 -61.877800 -1.272400 -0.441884 -0.864068 0.241091 0.253300 0.601800
0 -10.846700 -54.611301 18.660299 0.030001 -0.773315 0.633312 0.323600 0.715700
0 -35.993698 -50.238201 7.920700 -0.808293 -0.381697 0.448296 0.179000 0.743300
ston01.jpg
0 20.474100 -53.794701 -0.108700 0.708265 -0.597871 0.375382 0.456200 0.654000
0 14.042000 -43.480301 17.318001 0.724769 -0.040998 0.687771 0.479300 0.823400
0 -10.846700 -54.611301 18.660299 0.030001 -0.773315 0.633312 0.323600 0.715700
ston01.jpg
0 45.159901 -3.614502 16.892500 0.033401 0.015900 0.999316 0.325500 0.845600
0 51.644100 -10.059399 15.392900 0.652004 -0.099901 0.751605 0.479300 0.823400
0 48.075100 0.869400 11.746900 0.519693 0.639092 0.566993 0.396400 0.897800
ston01.jpg
0 45.159901 -3.614502 16.892500 0.033401 0.015900 0.999316 0.325500 0.845600
0 48.075100 0.869400 11.746900 0.519693 0.639092 0.566993 0.396400 0.897800
0 30.576000 3.547401 15.089800 -0.462596 0.519395 0.718494 0.222100 0.902300
ston01.jpg
0 45.159901 -3.614502 16.892500 0.033401 0.015900 0.999316 0.325500 0.845600
0 30.576000 3.547401 15.089800 -0.462596 0.519395 0.718494 0.222100 0.902300
0 35.217800 -7.146400 13.004200 -0.733690 -0.334596 0.591392 0.179000 0.743300
ston01.jpg
0 45.159901 -3.614502 16.892500 0.033401 0.015900 0.999316 0.325500 0.845600
0 35.217800 -7.146400 13.004200 -0.733690 -0.334596 0.591392 0.179000 0.743300
0 40.899101 -15.563202 11.746900 -0.126801 -0.628007 0.767808 0.323600 0.715700
ston01.jpg
0 45.159901 -3.614502 16.892500 0.033401 0.015900 0.999316 0.325500 0.845600
0 40.899101 -15.563202 11.746900 -0.126801 -0.628007 0.767808 0.323600 0.715700
0 51.644100 -10.059399 15.392900 0.652004 -0.099901 0.751605 0.479300 0.823400
ston01.jpg
0 51.644100 -10.059399 15.392900 0.652004 -0.099901 0.751605 0.479300 0.823400
0 65.260696 -13.897701 -0.595400 0.671439 -0.542231 0.505129 0.456200 0.654000
0 63.212799 3.763298 -0.595400 0.691530 0.468721 0.549624 0.485100 0.867600
ston01.jpg
0 48.075100 0.869400 11.746900 0.519693 0.639092 0.566993 0.396400 0.897800
0 63.212799 3.763298 -0.595400 0.691530 0.468721 0.549624 0.485100 0.867600
0 41.620701 8.180199 -1.360600 -0.066697 0.959958 0.272088 0.350100 0.890800
ston01.jpg
0 30.576000 3.547401 15.089800 -0.462596 0.519395 0.718494 0.222100 0.902300
0 41.620701 8.180199 -1.360600 -0.066697 0.959958 0.272088 0.350100 0.890800
0 25.765099 -3.614502 -0.774900 -0.984442 0.001100 0.175707 0.171100 0.762300
ston01.jpg
0 35.217800 -7.146400 13.004200 -0.733690 -0.334596 0.591392 0.179000 0.743300
0 25.765099 -3.614502 -0.774900 -0.984442 0.001100 0.175707 0.171100 0.762300
0 38.158100 -24.988600 -1.360600 -0.556707 -0.644508 0.524106 0.253300 0.601800
ston01.jpg
0 40.899101 -15.563202 11.746900 -0.126801 -0.628007 0.767808 0.323600 0.715700
0 38.158100 -24.988600 -1.360600 -0.556707 -0.644508 0.524106 0.253300 0.601800
0 65.260696 -13.897701 -0.595400 0.671439 -0.542231 0.505129 0.456200 0.654000
ston01.jpg
0 63.212799 3.763298 -0.595400 0.691530 0.468721 0.549624 0.485100 0.867600
0 48.075100 0.869400 11.746900 0.519693 0.639092 0.566993 0.396400 0.897800
0 51.644100 -10.059399 15.392900 0.652004 -0.099901 0.751605 0.479300 0.823400
ston01.jpg
0 41.620701 8.180199 -1.360600 -0.066697 0.959958 0.272088 0.350100 0.890800
0 30.576000 3.547401 15.089800 -0.462596 0.519395 0.718494 0.222100 0.902300
0 48.075100 0.869400 11.746900 0.519693 0.639092 0.566993 0.396400 0.897800
ston01.jpg
0 25.765099 -3.614502 -0.774900 -0.984442 0.001100 0.175707 0.171100 0.762300
0 35.217800 -7.146400 13.004200 -0.733690 -0.334596 0.591392 0.179000 0.743300
0 30.576000 3.547401 15.089800 -0.462596 0.519395 0.718494 0.222100 0.902300
ston01.jpg
0 38.158100 -24.988600 -1.360600 -0.556707 -0.644508 0.524106 0.253300 0.601800
0 40.899101 -15.563202 11.746900 -0.126801 -0.628007 0.767808 0.323600 0.715700
0 35.217800 -7.146400 13.004200 -0.733690 -0.334596 0.591392 0.179000 0.743300
ston01.jpg
0 65.260696 -13.897701 -0.595400 0.671439 -0.542231 0.505129 0.456200 0.654000
0 51.644100 -10.059399 15.392900 0.652004 -0.099901 0.751605 0.479300 0.823400
0 40.899101 -15.563202 11.746900 -0.126801 -0.628007 0.767808 0.323600 0.715700
ston01.jpg
0 -35.688000 18.944801 19.529600 -0.312512 -0.114104 0.943036 0.325500 0.845600
0 -21.952801 25.827599 11.371200 0.873997 0.084100 0.478598 0.479300 0.823400
0 -40.600399 33.141998 14.815800 0.191389 0.721757 0.665160 0.396400 0.897800
ston01.jpg
0 -35.688000 18.944801 19.529600 -0.312512 -0.114104 0.943036 0.325500 0.845600
0 -40.600399 33.141998 14.815800 0.191389 0.721757 0.665160 0.396400 0.897800
0 -48.991501 35.738602 8.943699 -0.889390 0.305596 0.339996 0.222100 0.902300
ston01.jpg
0 -35.688000 18.944801 19.529600 -0.312512 -0.114104 0.943036 0.325500 0.845600
0 -48.991501 35.738602 8.943699 -0.889390 0.305596 0.339996 0.222100 0.902300
0 -47.853298 14.596001 6.854700 -0.865809 -0.405904 0.292603 0.179000 0.743300
ston01.jpg
0 -35.688000 18.944801 19.529600 -0.312512 -0.114104 0.943036 0.325500 0.845600
0 -47.853298 14.596001 6.854700 -0.865809 -0.405904 0.292603 0.179000 0.743300
0 -34.994400 11.961502 14.815800 0.350999 -0.789997 0.502698 0.323600 0.715700
ston01.jpg
0 -35.688000 18.944801 19.529600 -0.312512 -0.114104 0.943036 0.325500 0.845600
0 -34.994400 11.961502 14.815800 0.350999 -0.789997 0.502698 0.323600 0.715700
0 -21.952801 25.827599 11.371200 0.873997 0.084100 0.478598 0.479300 0.823400
ston01.jpg
0 -21.952801 25.827599 11.371200 0.873997 0.084100 0.478598 0.479300 0.823400
0 -21.207500 19.614098 -2.940701 0.927092 -0.359797 0.105099 0.456200 0.654000
0 -23.083500 35.793098 -2.940701 0.735487 0.603489 0.307994 0.485100 0.867600
ston01.jpg
0 -40.600399 33.141998 14.815800 0.191389 0.721757 0.665160 0.396400 0.897800
0 -23.083500 35.793098 -2.940701 0.735487 0.603489 0.307994 0.485100 0.867600
0 -38.026001 39.982697 -3.641701 -0.204005 0.965623 0.161104 0.350100 0.890800
ston01.jpg
0 -48.991501 35.738602 8.943699 -0.889390 0.305596 0.339996 0.222100 0.902300
0 -38.026001 39.982697 -3.641701 -0.204005 0.965623 0.161104 0.350100 0.890800
0 -49.805801 18.944801 -3.105101 -0.985090 -0.094599 -0.143699 0.171100 0.762300
ston01.jpg
0 -47.853298 14.596001 6.854700 -0.865809 -0.405904 0.292603 0.179000 0.743300
0 -49.805801 18.944801 -3.105101 -0.985090 -0.094599 -0.143699 0.171100 0.762300
0 -38.407398 7.584099 -3.641701 -0.304717 -0.947252 0.099305 0.253300 0.601800
ston01.jpg
0 -34.994400 11.961502 14.815800 0.350999 -0.789997 0.502698 0.323600 0.715700
0 -38.407398 7.584099 -3.641701 -0.304717 -0.947252 0.099305 0.253300 0.601800
0 -21.207500 19.614098 -2.940701 0.927092 -0.359797 0.105099 0.456200 0.654000
ston01.jpg
0 -23.083500 35.793098 -2.940701 0.735487 0.603489 0.307994 0.485100 0.867600
0 -40.600399 33.141998 14.815800 0.191389 0.721757 0.665160 0.396400 0.897800
0 -21.952801 25.827599 11.371200 0.873997 0.084100 0.478598 0.479300 0.823400
ston01.jpg
0 -38.026001 39.982697 -3.641701 -0.204005 0.965623 0.161104 0.350100 0.890800
0 -48.991501 35.738602 8.943699 -0.889390 0.305596 0.339996 0.222100 0.902300
0 -40.600399 33.141998 14.815800 0.191389 0.721757 0.665160 0.396400 0.897800
ston01.jpg
0 -49.805801 18.944801 -3.105101 -0.985090 -0.094599 -0.143699 0.171100 0.762300
0 -47.853298 14.596001 6.854700 -0.865809 -0.405904 0.292603 0.179000 0.743300
0 -48.991501 35.738602 8.943699 -0.889390 0.305596 0.339996 0.222100 0.902300
ston01.jpg
0 -38.407398 7.584099 -3.641701 -0.304717 -0.947252 0.099305 0.253300 0.601800
0 -34.994400 11.961502 14.815800 0.350999 -0.789997 0.502698 0.323600 0.715700
0 -47.853298 14.596001 6.854700 -0.865809 -0.405904 0.292603 0.179000 0.743300
ston01.jpg
0 -21.207500 19.614098 -2.940701 0.927092 -0.359797 0.105099 0.456200 0.654000
0 -21.952801 25.827599 11.371200 0.873997 0.084100 0.478598 0.479300 0.823400
0 -34.994400 11.961502 14.815800 0.350999 -0.789997 0.502698 0.323600 0.715700
end
