version 1
nodes
0 "Bone01" -1
1 "Bone02" 0
2 "Bone03" 1
3 "Bone04" 2
4 "Bone05" 1
5 "Bone06" 4
6 "Bone07" 1
7 "Bone08" 6
8 "notice_3" 1
9 "notice_10" 1
10 "notice_6" 1
11 "tree01" 0
12 "Box35" 0
13 "Dummy13" -1
14 "Dummy14" -1
15 "Dummy15" -1
end
skeleton
time 0
0 -1.060429 0.000000 -6.580078 0.000000 0.000000 0.000000
1 0.000000 -0.000016 363.332245 0.000000 0.000000 0.000000
2 -22.474161 -0.000002 35.584106 0.000000 0.003083 -0.453786
3 -335.017456 -19.288229 144.209167 -0.000000 -0.000000 0.026180
4 18.728466 -0.000002 48.694031 -0.000000 -0.028857 0.331613
5 204.242157 -20.081881 168.556168 0.000000 -0.000000 -0.087266
6 -36.754292 -34.469303 28.092712 -0.000000 -0.004858 0.907571
7 -232.232681 24.844921 43.075485 0.000000 0.000000 -0.139626
8 39.290146 -1.136083 -151.039703 0.000000 0.000000 0.000000
9 -25.318588 27.405317 -156.415680 0.000000 0.000000 0.000000
10 -1.511986 -36.795662 -153.582565 0.000000 0.000000 0.000000
11 -1.616028 5.110130 6.580078 -0.000000 0.000000 0.000000
12 292.519836 17.856632 498.351227 1.296266 0.880262 -1.597431
13 0.000000 0.000000 0.000000 0.000000 0.000000 0.000000
14 0.000000 0.000000 0.000000 0.000000 0.000000 0.000000
15 0.000000 0.000000 0.000000 0.000000 0.000000 0.000000
time 1
0 -1.060429 0.000000 -6.580078 0.000000 0.000000 0.000000
1 0.000000 -0.000016 363.332245 0.000000 0.000000 0.000000
2 -22.474161 -0.000002 35.584106 0.000000 0.001642 -0.453786
3 -335.017487 -19.288231 144.209213 0.000000 0.000000 0.026180
4 18.728466 -0.000002 48.694031 -0.000000 -0.030297 0.331613
5 204.242142 -20.081881 168.556198 -0.000000 -0.000000 -0.087266
6 -36.754292 -34.469303 28.092712 -0.000000 -0.008006 0.907571
7 -232.232681 24.844925 43.075485 -0.000000 -0.000000 -0.139626
8 39.290146 -1.136083 -151.039703 0.000000 0.000000 0.000000
9 -25.318588 27.405317 -156.415680 0.000000 0.000000 0.000000
10 -1.511986 -36.795662 -153.582565 0.000000 0.000000 0.000000
11 -1.616028 5.110130 6.580078 -0.000000 0.000000 0.000000
12 292.519836 17.856632 498.351227 1.296266 0.880262 -1.597431
13 0.000000 0.000000 0.000000 0.000000 0.000000 0.000000
14 0.000000 0.000000 0.000000 0.000000 0.000000 0.000000
15 0.000000 0.000000 0.000000 0.000000 0.000000 0.000000
time 2
0 -1.060429 0.000000 -6.580078 0.000000 0.000000 0.000000
1 0.000000 -0.000016 363.332245 0.000000 0.000000 0.000000
2 -22.474161 -0.000002 35.584106 -0.000000 -0.002247 -0.453786
3 -335.017456 -19.288231 144.209213 0.000000 -0.000000 0.026180
4 18.728466 -0.000002 48.694031 0.000000 -0.034172 0.331613
5 204.242142 -20.081888 168.556183 -0.000000 0.000000 -0.087266
6 -36.754292 -34.469303 28.092712 0.000000 -0.016534 0.907571
7 -232.232681 24.844919 43.075493 -0.000000 0.000000 -0.139626
8 39.290146 -1.136083 -151.039703 0.000000 0.000000 0.000000
9 -25.318588 27.405317 -156.415680 0.000000 0.000000 0.000000
10 -1.511986 -36.795662 -153.582565 0.000000 0.000000 0.000000
11 -1.616028 5.110130 6.580078 -0.000000 0.000000 0.000000
12 292.519836 17.856632 498.351227 1.296266 0.880262 -1.597431
13 0.000000 0.000000 0.000000 0.000000 0.000000 0.000000
14 0.000000 0.000000 0.000000 0.000000 0.000000 0.000000
15 0.000000 0.000000 0.000000 0.000000 0.000000 0.000000
time 3
0 -1.060429 0.000000 -6.580078 0.000000 0.000000 0.000000
1 0.000000 -0.000016 363.332245 0.000000 0.000000 0.000000
2 -22.474161 -0.000002 35.584106 -0.000000 -0.007936 -0.453786
3 -335.017426 -19.288219 144.209198 0.000000 -0.000000 0.026180
4 18.728466 -0.000002 48.694031 0.000000 -0.039814 0.331613
5 204.242142 -20.081882 168.556183 0.000000 0.000000 -0.087266
6 -36.754292 -34.469303 28.092712 0.000000 -0.029077 0.907571
7 -232.232697 24.844933 43.075489 -0.000000 -0.000000 -0.139626
8 39.290146 -1.136083 -151.039703 0.000000 0.000000 0.000000
9 -25.318588 27.405317 -156.415680 0.000000 0.000000 0.000000
10 -1.511986 -36.795662 -153.582565 0.000000 0.000000 0.000000
11 -1.616028 5.110130 6.580078 -0.000000 0.000000 0.000000
12 292.519836 17.856632 498.351227 1.296266 0.880262 -1.597431
13 0.000000 0.000000 0.000000 0.000000 0.000000 0.000000
14 0.000000 0.000000 0.000000 0.000000 0.000000 0.000000
15 0.000000 0.000000 0.000000 0.000000 0.000000 0.000000
time 4
0 -1.060429 0.000000 -6.580078 0.000000 0.000000 0.000000
1 0.000000 -0.000016 363.332245 0.000000 0.000000 0.000000
2 -22.474161 -0.000002 35.584106 -0.000000 -0.014777 -0.453786
3 -335.017456 -19.288233 144.209229 0.000000 -0.000000 0.026180
4 18.728466 -0.000002 48.694031 0.000000 -0.046558 0.331613
5 204.242157 -20.081888 168.556152 -0.000000 -0.000000 -0.087266
6 -36.754292 -34.469303 28.092712 0.000000 -0.044265 0.907571
7 -232.232697 24.844919 43.075466 0.000000 0.000000 -0.139626
8 39.290146 -1.136083 -151.039703 0.000000 0.000000 0.000000
9 -25.318588 27.405317 -156.415680 0.000000 0.000000 0.000000
10 -1.511986 -36.795662 -153.582565 0.000000 0.000000 0.000000
11 -1.616028 5.110130 6.580078 -0.000000 0.000000 0.000000
12 292.519836 17.856632 498.351227 1.296266 0.880262 -1.597431
13 0.000000 0.000000 0.000000 0.000000 0.000000 0.000000
14 0.000000 0.000000 0.000000 0.000000 0.000000 0.000000
15 0.000000 0.000000 0.000000 0.000000 0.000000 0.000000
time 5
0 -1.060429 0.000000 -6.580078 0.000000 0.000000 0.000000
1 0.000000 -0.000016 363.332245 0.000000 0.000000 0.000000
2 -22.474161 -0.000002 35.584106 0.000000 -0.022118 -0.453786
3 -335.017456 -19.288233 144.209198 0.000000 0.000000 0.026180
4 18.728466 -0.000002 48.694031 0.000000 -0.053739 0.331613
5 204.242157 -20.081884 168.556152 0.000000 0.000000 -0.087266
6 -36.754292 -34.469303 28.092712 -0.000000 -0.060705 0.907571
7 -232.232697 24.844923 43.075470 0.000000 0.000000 -0.139626
8 39.290146 -1.136083 -151.039703 0.000000 0.000000 0.000000
9 -25.318588 27.405317 -156.415680 0.000000 0.000000 0.000000
10 -1.511986 -36.795662 -153.582565 0.000000 0.000000 0.000000
11 -1.616028 5.110130 6.580078 -0.000000 0.000000 0.000000
12 292.519836 17.856632 498.351227 1.296266 0.880262 -1.597431
13 0.000000 0.000000 0.000000 0.000000 0.000000 0.000000
14 0.000000 0.000000 0.000000 0.000000 0.000000 0.000000
15 0.000000 0.000000 0.000000 0.000000 0.000000 0.000000
time 6
0 -1.060429 0.000000 -6.580078 0.000000 0.000000 0.000000
1 0.000000 -0.000016 363.332245 0.000000 0.000000 0.000000
2 -22.474161 -0.000002 35.584106 -0.000000 -0.029299 -0.453786
3 -335.017456 -19.288227 144.209229 -0.000000 -0.000000 0.026180
4 18.728466 -0.000002 48.694031 0.000000 -0.060700 0.331613
5 204.242142 -20.081882 168.556168 -0.000000 0.000000 -0.087266
6 -36.754292 -34.469303 28.092712 0.000000 -0.076982 0.907571
7 -232.232697 24.844917 43.075478 0.000000 0.000000 -0.139626
8 39.290146 -1.136083 -151.039703 0.000000 0.000000 0.000000
9 -25.318588 27.405317 -156.415680 0.000000 0.000000 0.000000
10 -1.511986 -36.795662 -153.582565 0.000000 0.000000 0.000000
11 -1.616028 5.110130 6.580078 -0.000000 0.000000 0.000000
12 292.519836 17.856632 498.351227 1.296266 0.880262 -1.597431
13 0.000000 0.000000 0.000000 0.000000 0.000000 0.000000
14 0.000000 0.000000 0.000000 0.000000 0.000000 0.000000
15 0.000000 0.000000 0.000000 0.000000 0.000000 0.000000
time 7
0 -1.060429 0.000000 -6.580078 0.000000 0.000000 0.000000
1 0.000000 -0.000016 363.332245 0.000000 0.000000 0.000000
2 -22.474161 -0.000002 35.584106 0.000000 -0.035659 -0.453786
3 -335.017456 -19.288237 144.209244 -0.000000 -0.000000 0.026180
4 18.728466 -0.000002 48.694031 0.000000 -0.066789 0.331613
5 204.242157 -20.081882 168.556198 0.000000 -0.000000 -0.087266
6 -36.754292 -34.469303 28.092712 0.000000 -0.091657 0.907571
7 -232.232697 24.844925 43.075466 0.000000 -0.000000 -0.139626
8 39.290146 -1.136083 -151.039703 0.000000 0.000000 0.000000
9 -25.318588 27.405317 -156.415680 0.000000 0.000000 0.000000
10 -1.511986 -36.795662 -153.582565 0.000000 0.000000 0.000000
11 -1.616028 5.110130 6.580078 -0.000000 0.000000 0.000000
12 292.519836 17.856632 498.351227 1.296266 0.880262 -1.597431
13 0.000000 0.000000 0.000000 0.000000 0.000000 0.000000
14 0.000000 0.000000 0.000000 0.000000 0.000000 0.000000
15 0.000000 0.000000 0.000000 0.000000 0.000000 0.000000
time 8
0 -1.060429 0.000000 -6.580078 0.000000 0.000000 0.000000
1 0.000000 -0.000016 363.332245 0.000000 0.000000 0.000000
2 -22.474161 -0.000002 35.584106 0.000000 -0.040527 -0.453786
3 -335.017426 -19.288221 144.209183 -0.000000 0.000000 0.026180
4 18.728466 -0.000002 48.694031 0.000000 -0.071359 0.331613
5 204.242157 -20.081884 168.556168 0.000000 -0.000000 -0.087266
6 -36.754292 -34.469303 28.092712 -0.000000 -0.103283 0.907571
7 -232.232681 24.844913 43.075466 -0.000000 -0.000000 -0.139626
8 39.290146 -1.136083 -151.039703 0.000000 0.000000 0.000000
9 -25.318588 27.405317 -156.415680 0.000000 0.000000 0.000000
10 -1.511986 -36.795662 -153.582565 0.000000 0.000000 0.000000
11 -1.616028 5.110130 6.580078 -0.000000 0.000000 0.000000
12 292.519836 17.856632 498.351227 1.296266 0.880262 -1.597431
13 0.000000 0.000000 0.000000 0.000000 0.000000 0.000000
14 0.000000 0.000000 0.000000 0.000000 0.000000 0.000000
15 0.000000 0.000000 0.000000 0.000000 0.000000 0.000000
time 9
0 -1.060429 0.000000 -6.580078 0.000000 0.000000 0.000000
1 0.000000 -0.000016 363.332245 0.000000 0.000000 0.000000
2 -22.474161 -0.000002 35.584106 -0.000000 -0.043234 -0.453786
3 -335.017456 -19.288216 144.209183 0.000000 0.000000 0.026180
4 18.728466 -0.000002 48.694031 -0.000000 -0.073765 0.331613
5 204.242157 -20.081888 168.556198 0.000000 0.000000 -0.087266
6 -36.754292 -34.469303 28.092712 0.000000 -0.110405 0.907571
7 -232.232697 24.844927 43.075462 -0.000000 -0.000000 -0.139626
8 39.290146 -1.136083 -151.039703 0.000000 0.000000 0.000000
9 -25.318588 27.405317 -156.415680 0.000000 0.000000 0.000000
10 -1.511986 -36.795662 -153.582565 0.000000 0.000000 0.000000
11 -1.616028 5.110130 6.580078 -0.000000 0.000000 0.000000
12 292.519836 17.856632 498.351227 1.296266 0.880262 -1.597431
13 0.000000 0.000000 0.000000 0.000000 0.000000 0.000000
14 0.000000 0.000000 0.000000 0.000000 0.000000 0.000000
15 0.000000 0.000000 0.000000 0.000000 0.000000 0.000000
time 10
0 -1.060429 0.000000 -6.580078 0.000000 0.000000 0.000000
1 0.000000 -0.000016 363.332245 0.000000 0.000000 0.000000
2 -22.474161 -0.000002 35.584106 -0.000000 -0.043684 -0.453786
3 -335.017456 -19.288214 144.209198 0.000000 0.000000 0.026180
4 18.728466 -0.000002 48.694031 0.000000 -0.073859 0.331613
5 204.242157 -20.081884 168.556229 0.000000 -0.000000 -0.087266
6 -36.754292 -34.469303 28.092712 0.000000 -0.113148 0.907571
7 -232.232697 24.844934 43.075466 0.000000 0.000000 -0.139626
8 39.290146 -1.136083 -151.039703 0.000000 0.000000 0.000000
9 -25.318588 27.405317 -156.415680 0.000000 0.000000 0.000000
10 -1.511986 -36.795662 -153.582565 0.000000 0.000000 0.000000
11 -1.616028 5.110130 6.580078 -0.000000 0.000000 0.000000
12 292.519836 17.856632 498.351227 1.296266 0.880262 -1.597431
13 0.000000 0.000000 0.000000 0.000000 0.000000 0.000000
14 0.000000 0.000000 0.000000 0.000000 0.000000 0.000000
15 0.000000 0.000000 0.000000 0.000000 0.000000 0.000000
time 11
0 -1.060429 0.000000 -6.580078 0.000000 0.000000 0.000000
1 0.000000 -0.000016 363.332245 0.000000 0.000000 0.000000
2 -22.474161 -0.000002 35.584106 -0.000000 -0.042422 -0.453786
3 -335.017487 -19.288231 144.209198 0.000000 -0.000000 0.026180
4 18.728466 -0.000002 48.694031 -0.000000 -0.072133 0.331613
5 204.242157 -20.081886 168.556152 -0.000000 -0.000000 -0.087266
6 -36.754292 -34.469303 28.092712 -0.000000 -0.112896 0.907571
7 -232.232697 24.844919 43.075478 0.000000 -0.000000 -0.139626
8 39.290146 -1.136083 -151.039703 0.000000 0.000000 0.000000
9 -25.318588 27.405317 -156.415680 0.000000 0.000000 0.000000
10 -1.511986 -36.795662 -153.582565 0.000000 0.000000 0.000000
11 -1.616028 5.110130 6.580078 -0.000000 0.000000 0.000000
12 292.519836 17.856632 498.351227 1.296266 0.880262 -1.597431
13 0.000000 0.000000 0.000000 0.000000 0.000000 0.000000
14 0.000000 0.000000 0.000000 0.000000 0.000000 0.000000
15 0.000000 0.000000 0.000000 0.000000 0.000000 0.000000
time 12
0 -1.060429 0.000000 -6.580078 0.000000 0.000000 0.000000
1 0.000000 -0.000016 363.332245 0.000000 0.000000 0.000000
2 -22.474161 -0.000002 35.584106 0.000000 -0.039732 -0.453786
3 -335.017426 -19.288221 144.209229 0.000000 0.000000 0.026180
4 18.728466 -0.000002 48.694031 -0.000000 -0.068901 0.331613
5 204.242142 -20.081884 168.556198 0.000000 0.000000 -0.087266
6 -36.754292 -34.469303 28.092712 0.000000 -0.110086 0.907571
7 -232.232697 24.844923 43.075447 0.000000 -0.000000 -0.139626
8 39.290146 -1.136083 -151.039703 0.000000 0.000000 0.000000
9 -25.318588 27.405317 -156.415680 0.000000 0.000000 0.000000
10 -1.511986 -36.795662 -153.582565 0.000000 0.000000 0.000000
11 -1.616028 5.110130 6.580078 -0.000000 0.000000 0.000000
12 292.519836 17.856632 498.351227 1.296266 0.880262 -1.597431
13 0.000000 0.000000 0.000000 0.000000 0.000000 0.000000
14 0.000000 0.000000 0.000000 0.000000 0.000000 0.000000
15 0.000000 0.000000 0.000000 0.000000 0.000000 0.000000
time 13
0 -1.060429 0.000000 -6.580078 0.000000 0.000000 0.000000
1 0.000000 -0.000016 363.332245 0.000000 0.000000 0.000000
2 -22.474161 -0.000002 35.584106 0.000000 -0.035902 -0.453786
3 -335.017487 -19.288233 144.209213 0.000000 0.000000 0.026180
4 18.728466 -0.000002 48.694031 -0.000000 -0.064474 0.331613
5 204.242142 -20.081882 168.556183 -0.000000 -0.000000 -0.087266
6 -36.754292 -34.469303 28.092712 -0.000000 -0.105155 0.907571
7 -232.232681 24.844923 43.075466 -0.000000 0.000000 -0.139626
8 39.290146 -1.136083 -151.039703 0.000000 0.000000 0.000000
9 -25.318588 27.405317 -156.415680 0.000000 0.000000 0.000000
10 -1.511986 -36.795662 -153.582565 0.000000 0.000000 0.000000
11 -1.616028 5.110130 6.580078 -0.000000 0.000000 0.000000
12 292.519836 17.856632 498.351227 1.296266 0.880262 -1.597431
13 0.000000 0.000000 0.000000 0.000000 0.000000 0.000000
14 0.000000 0.000000 0.000000 0.000000 0.000000 0.000000
15 0.000000 0.000000 0.000000 0.000000 0.000000 0.000000
time 14
0 -1.060429 0.000000 -6.580078 0.000000 0.000000 0.000000
1 0.000000 -0.000016 363.332245 0.000000 0.000000 0.000000
2 -22.474161 -0.000002 35.584106 0.000000 -0.031220 -0.453786
3 -335.017487 -19.288227 144.209183 0.000000 0.000000 0.026180
4 18.728466 -0.000002 48.694031 -0.000000 -0.059163 0.331613
5 204.242157 -20.081882 168.556137 -0.000000 -0.000000 -0.087266
6 -36.754292 -34.469303 28.092712 0.000000 -0.098544 0.907571
7 -232.232697 24.844929 43.075466 -0.000000 -0.000000 -0.139626
8 39.290146 -1.136083 -151.039703 0.000000 0.000000 0.000000
9 -25.318588 27.405317 -156.415680 0.000000 0.000000 0.000000
10 -1.511986 -36.795662 -153.582565 0.000000 0.000000 0.000000
11 -1.616028 5.110130 6.580078 -0.000000 0.000000 0.000000
12 292.519836 17.856632 498.351227 1.296266 0.880262 -1.597431
13 0.000000 0.000000 0.000000 0.000000 0.000000 0.000000
14 0.000000 0.000000 0.000000 0.000000 0.000000 0.000000
15 0.000000 0.000000 0.000000 0.000000 0.000000 0.000000
time 15
0 -1.060429 0.000000 -6.580078 0.000000 0.000000 0.000000
1 0.000000 -0.000016 363.332245 0.000000 0.000000 0.000000
2 -22.474161 -0.000002 35.584106 0.000000 -0.025977 -0.453786
3 -335.017426 -19.288210 144.209167 -0.000000 0.000000 0.026180
4 18.728466 -0.000002 48.694031 0.000000 -0.053286 0.331613
5 204.242157 -20.081884 168.556168 0.000000 -0.000000 -0.087266
6 -36.754292 -34.469303 28.092712 0.000000 -0.090698 0.907571
7 -232.232681 24.844929 43.075466 -0.000000 0.000000 -0.139626
8 39.290146 -1.136083 -151.039703 0.000000 0.000000 0.000000
9 -25.318588 27.405317 -156.415680 0.000000 0.000000 0.000000
10 -1.511986 -36.795662 -153.582565 0.000000 0.000000 0.000000
11 -1.616028 5.110130 6.580078 -0.000000 0.000000 0.000000
12 292.519836 17.856632 498.351227 1.296266 0.880262 -1.597431
13 0.000000 0.000000 0.000000 0.000000 0.000000 0.000000
14 0.000000 0.000000 0.000000 0.000000 0.000000 0.000000
15 0.000000 0.000000 0.000000 0.000000 0.000000 0.000000
time 16
0 -1.060429 0.000000 -6.580078 0.000000 0.000000 0.000000
1 0.000000 -0.000016 363.332245 0.000000 0.000000 0.000000
2 -22.474161 -0.000002 35.584106 0.000000 -0.020465 -0.453786
3 -335.017456 -19.288227 144.209183 -0.000000 0.000000 0.026180
4 18.728466 -0.000002 48.694031 -0.000000 -0.047165 0.331613
5 204.242142 -20.081884 168.556198 -0.000000 0.000000 -0.087266
6 -36.754292 -34.469303 28.092712 0.000000 -0.082064 0.907571
7 -232.232681 24.844925 43.075474 0.000000 0.000000 -0.139626
8 39.290146 -1.136083 -151.039703 0.000000 0.000000 0.000000
9 -25.318588 27.405317 -156.415680 0.000000 0.000000 0.000000
10 -1.511986 -36.795662 -153.582565 0.000000 0.000000 0.000000
11 -1.616028 5.110130 6.580078 -0.000000 0.000000 0.000000
12 292.519836 17.856632 498.351227 1.296266 0.880262 -1.597431
13 0.000000 0.000000 0.000000 0.000000 0.000000 0.000000
14 0.000000 0.000000 0.000000 0.000000 0.000000 0.000000
15 0.000000 0.000000 0.000000 0.000000 0.000000 0.000000
time 17
0 -1.060429 0.000000 -6.580078 0.000000 0.000000 0.000000
1 0.000000 -0.000016 363.332245 0.000000 0.000000 0.000000
2 -22.474161 -0.000002 35.584106 0.000000 -0.014979 -0.453786
3 -335.017456 -19.288216 144.209213 -0.000000 -0.000000 0.026180
4 18.728466 -0.000002 48.694031 0.000000 -0.041129 0.331613
5 204.242142 -20.081882 168.556213 -0.000000 0.000000 -0.087266
6 -36.754292 -34.469303 28.092712 0.000000 -0.073094 0.907571
7 -232.232697 24.844919 43.075474 -0.000000 0.000000 -0.139626
8 39.290146 -1.136083 -151.039703 0.000000 0.000000 0.000000
9 -25.318588 27.405317 -156.415680 0.000000 0.000000 0.000000
10 -1.511986 -36.795662 -153.582565 0.000000 0.000000 0.000000
11 -1.616028 5.110130 6.580078 -0.000000 0.000000 0.000000
12 292.519836 17.856632 498.351227 1.296266 0.880262 -1.597431
13 0.000000 0.000000 0.000000 0.000000 0.000000 0.000000
14 0.000000 0.000000 0.000000 0.000000 0.000000 0.000000
15 0.000000 0.000000 0.000000 0.000000 0.000000 0.000000
time 18
0 -1.060429 0.000000 -6.580078 0.000000 0.000000 0.000000
1 0.000000 -0.000016 363.332245 0.000000 0.000000 0.000000
2 -22.474161 -0.000002 35.584106 0.000000 -0.009814 -0.453786
3 -335.017456 -19.288225 144.209198 -0.000000 0.000000 0.026180
4 18.728466 -0.000002 48.694031 0.000000 -0.035511 0.331613
5 204.242157 -20.081884 168.556152 0.000000 -0.000000 -0.087266
6 -36.754292 -34.469303 28.092712 0.000000 -0.064242 0.907571
7 -232.232697 24.844915 43.075462 0.000000 0.000000 -0.139626
8 39.290146 -1.136083 -151.039703 0.000000 0.000000 0.000000
9 -25.318588 27.405317 -156.415680 0.000000 0.000000 0.000000
10 -1.511986 -36.795662 -153.582565 0.000000 0.000000 0.000000
11 -1.616028 5.110130 6.580078 -0.000000 0.000000 0.000000
12 292.519836 17.856632 498.351227 1.296266 0.880262 -1.597431
13 0.000000 0.000000 0.000000 0.000000 0.000000 0.000000
14 0.000000 0.000000 0.000000 0.000000 0.000000 0.000000
15 0.000000 0.000000 0.000000 0.000000 0.000000 0.000000
time 19
0 -1.060429 0.000000 -6.580078 0.000000 0.000000 0.000000
1 0.000000 -0.000016 363.332245 0.000000 0.000000 0.000000
2 -22.474161 -0.000002 35.584106 0.000000 -0.005267 -0.453786
3 -335.017456 -19.288218 144.209183 0.000000 0.000000 0.026180
4 18.728466 -0.000002 48.694031 0.000000 -0.030649 0.331613
5 204.242142 -20.081882 168.556213 0.000000 0.000000 -0.087266
6 -36.754292 -34.469303 28.092712 0.000000 -0.055964 0.907571
7 -232.232681 24.844923 43.075485 -0.000000 0.000000 -0.139626
8 39.290146 -1.136083 -151.039703 0.000000 0.000000 0.000000
9 -25.318588 27.405317 -156.415680 0.000000 0.000000 0.000000
10 -1.511986 -36.795662 -153.582565 0.000000 0.000000 0.000000
11 -1.616028 5.110130 6.580078 -0.000000 0.000000 0.000000
12 292.519836 17.856632 498.351227 1.296266 0.880262 -1.597431
13 0.000000 0.000000 0.000000 0.000000 0.000000 0.000000
14 0.000000 0.000000 0.000000 0.000000 0.000000 0.000000
15 0.000000 0.000000 0.000000 0.000000 0.000000 0.000000
time 20
0 -1.060429 0.000000 -6.580078 0.000000 0.000000 0.000000
1 0.000000 -0.000016 363.332245 0.000000 0.000000 0.000000
2 -22.474161 -0.000002 35.584106 0.000000 -0.001635 -0.453786
3 -335.017456 -19.288223 144.209198 -0.000000 0.000000 0.026180
4 18.728466 -0.000002 48.694031 0.000000 -0.026884 0.331613
5 204.242157 -20.081888 168.556198 -0.000000 0.000000 -0.087266
6 -36.754292 -34.469303 28.092712 0.000000 -0.048713 0.907571
7 -232.232697 24.844927 43.075470 -0.000000 -0.000000 -0.139626
8 39.290146 -1.136083 -151.039703 0.000000 0.000000 0.000000
9 -25.318588 27.405317 -156.415680 0.000000 0.000000 0.000000
10 -1.511986 -36.795662 -153.582565 0.000000 0.000000 0.000000
11 -1.616028 5.110130 6.580078 -0.000000 0.000000 0.000000
12 292.519836 17.856632 498.351227 1.296266 0.880262 -1.597431
13 0.000000 0.000000 0.000000 0.000000 0.000000 0.000000
14 0.000000 0.000000 0.000000 0.000000 0.000000 0.000000
15 0.000000 0.000000 0.000000 0.000000 0.000000 0.000000
time 21
0 -1.060429 0.000000 -6.580078 0.000000 0.000000 0.000000
1 0.000000 -0.000016 363.332245 0.000000 0.000000 0.000000
2 -22.474161 -0.000002 35.584106 0.000000 0.000788 -0.453786
3 -335.017426 -19.288227 144.209183 0.000000 -0.000000 0.026180
4 18.728466 -0.000002 48.694031 0.000000 -0.024557 0.331613
5 204.242157 -20.081884 168.556183 0.000000 -0.000000 -0.087266
6 -36.754292 -34.469303 28.092712 0.000000 -0.042943 0.907571
7 -232.232697 24.844925 43.075478 0.000000 0.000000 -0.139626
8 39.290146 -1.136083 -151.039703 0.000000 0.000000 0.000000
9 -25.318588 27.405317 -156.415680 0.000000 0.000000 0.000000
10 -1.511986 -36.795662 -153.582565 0.000000 0.000000 0.000000
11 -1.616028 5.110130 6.580078 -0.000000 0.000000 0.000000
12 292.519836 17.856632 498.351227 1.296266 0.880262 -1.597431
13 0.000000 0.000000 0.000000 0.000000 0.000000 0.000000
14 0.000000 0.000000 0.000000 0.000000 0.000000 0.000000
15 0.000000 0.000000 0.000000 0.000000 0.000000 0.000000
time 22
0 -1.060429 0.000000 -6.580078 0.000000 0.000000 0.000000
1 0.000000 -0.000016 363.332245 0.000000 0.000000 0.000000
2 -22.474161 -0.000002 35.584106 0.000000 0.002343 -0.453786
3 -335.017487 -19.288221 144.209198 -0.000000 0.000000 0.026180
4 18.728466 -0.000002 48.694031 0.000000 -0.023285 0.331613
5 204.242157 -20.081882 168.556183 -0.000000 -0.000000 -0.087266
6 -36.754292 -34.469303 28.092712 0.000000 -0.038131 0.907571
7 -232.232712 24.844931 43.075455 0.000000 -0.000000 -0.139626
8 39.290146 -1.136083 -151.039703 0.000000 0.000000 0.000000
9 -25.318588 27.405317 -156.415680 0.000000 0.000000 0.000000
10 -1.511986 -36.795662 -153.582565 0.000000 0.000000 0.000000
11 -1.616028 5.110130 6.580078 -0.000000 0.000000 0.000000
12 292.519836 17.856632 498.351227 1.296266 0.880262 -1.597431
13 0.000000 0.000000 0.000000 0.000000 0.000000 0.000000
14 0.000000 0.000000 0.000000 0.000000 0.000000 0.000000
15 0.000000 0.000000 0.000000 0.000000 0.000000 0.000000
time 23
0 -1.060429 0.000000 -6.580078 0.000000 0.000000 0.000000
1 0.000000 -0.000016 363.332245 0.000000 0.000000 0.000000
2 -22.474161 -0.000002 35.584106 -0.000000 0.003567 -0.453786
3 -335.017456 -19.288227 144.209167 -0.000000 -0.000000 0.026180
4 18.728466 -0.000002 48.694031 -0.000000 -0.022461 0.331613
5 204.242157 -20.081884 168.556168 -0.000000 -0.000000 -0.087266
6 -36.754292 -34.469303 28.092712 0.000000 -0.033460 0.907571
7 -232.232681 24.844917 43.075447 -0.000000 -0.000000 -0.139626
8 39.290146 -1.136083 -151.039703 0.000000 0.000000 0.000000
9 -25.318588 27.405317 -156.415680 0.000000 0.000000 0.000000
10 -1.511986 -36.795662 -153.582565 0.000000 0.000000 0.000000
11 -1.616028 5.110130 6.580078 -0.000000 0.000000 0.000000
12 292.519836 17.856632 498.351227 1.296266 0.880262 -1.597431
13 0.000000 0.000000 0.000000 0.000000 0.000000 0.000000
14 0.000000 0.000000 0.000000 0.000000 0.000000 0.000000
15 0.000000 0.000000 0.000000 0.000000 0.000000 0.000000
time 24
0 -1.060429 0.000000 -6.580078 0.000000 0.000000 0.000000
1 0.000000 -0.000016 363.332245 0.000000 0.000000 0.000000
2 -22.474161 -0.000002 35.584106 0.000000 0.004461 -0.453786
3 -335.017456 -19.288214 144.209198 -0.000000 -0.000000 0.026180
4 18.728466 -0.000002 48.694031 0.000000 -0.022083 0.331613
5 204.242157 -20.081888 168.556168 -0.000000 -0.000000 -0.087266
6 -36.754292 -34.469303 28.092712 0.000000 -0.028931 0.907571
7 -232.232697 24.844921 43.075462 -0.000000 0.000000 -0.139626
8 39.290146 -1.136083 -151.039703 0.000000 0.000000 0.000000
9 -25.318588 27.405317 -156.415680 0.000000 0.000000 0.000000
10 -1.511986 -36.795662 -153.582565 0.000000 0.000000 0.000000
11 -1.616028 5.110130 6.580078 -0.000000 0.000000 0.000000
12 292.519836 17.856632 498.351227 1.296266 0.880262 -1.597431
13 0.000000 0.000000 0.000000 0.000000 0.000000 0.000000
14 0.000000 0.000000 0.000000 0.000000 0.000000 0.000000
15 0.000000 0.000000 0.000000 0.000000 0.000000 0.000000
time 25
0 -1.060429 0.000000 -6.580078 0.000000 0.000000 0.000000
1 0.000000 -0.000016 363.332245 0.000000 0.000000 0.000000
2 -22.474161 -0.000002 35.584106 0.000000 0.005025 -0.453786
3 -335.017456 -19.288233 144.209198 0.000000 0.000000 0.026180
4 18.728466 -0.000002 48.694031 0.000000 -0.022153 0.331613
5 204.242142 -20.081882 168.556198 -0.000000 0.000000 -0.087266
6 -36.754292 -34.469303 28.092712 -0.000000 -0.024547 0.907571
7 -232.232681 24.844919 43.075443 0.000000 0.000000 -0.139626
8 39.290146 -1.136083 -151.039703 0.000000 0.000000 0.000000
9 -25.318588 27.405317 -156.415680 0.000000 0.000000 0.000000
10 -1.511986 -36.795662 -153.582565 0.000000 0.000000 0.000000
11 -1.616028 5.110130 6.580078 -0.000000 0.000000 0.000000
12 292.519836 17.856632 498.351227 1.296266 0.880262 -1.597431
13 0.000000 0.000000 0.000000 0.000000 0.000000 0.000000
14 0.000000 0.000000 0.000000 0.000000 0.000000 0.000000
15 0.000000 0.000000 0.000000 0.000000 0.000000 0.000000
time 26
0 -1.060429 0.000000 -6.580078 0.000000 0.000000 0.000000
1 0.000000 -0.000016 363.332245 0.000000 0.000000 0.000000
2 -22.474161 -0.000002 35.584106 -0.000000 0.005261 -0.453786
3 -335.017426 -19.288219 144.209183 -0.000000 -0.000000 0.026180
4 18.728466 -0.000002 48.694031 -0.000000 -0.022667 0.331613
5 204.242142 -20.081884 168.556183 0.000000 0.000000 -0.087266
6 -36.754292 -34.469303 28.092712 0.000000 -0.020309 0.907571
7 -232.232697 24.844921 43.075466 -0.000000 -0.000000 -0.139626
8 39.290146 -1.136083 -151.039703 0.000000 0.000000 0.000000
9 -25.318588 27.405317 -156.415680 0.000000 0.000000 0.000000
10 -1.511986 -36.795662 -153.582565 0.000000 0.000000 0.000000
11 -1.616028 5.110130 6.580078 -0.000000 0.000000 0.000000
12 292.519836 17.856632 498.351227 1.296266 0.880262 -1.597431
13 0.000000 0.000000 0.000000 0.000000 0.000000 0.000000
14 0.000000 0.000000 0.000000 0.000000 0.000000 0.000000
15 0.000000 0.000000 0.000000 0.000000 0.000000 0.000000
time 27
0 -1.060429 0.000000 -6.580078 0.000000 0.000000 0.000000
1 0.000000 -0.000016 363.332245 0.000000 0.000000 0.000000
2 -22.474161 -0.000002 35.584106 0.000000 0.005170 -0.453786
3 -335.017426 -19.288223 144.209167 0.000000 -0.000000 0.026180
4 18.728466 -0.000002 48.694031 0.000000 -0.023624 0.331613
5 204.242157 -20.081886 168.556198 -0.000000 0.000000 -0.087266
6 -36.754292 -34.469303 28.092712 0.000000 -0.016220 0.907571
7 -232.232697 24.844919 43.075478 -0.000000 0.000000 -0.139626
8 39.290146 -1.136083 -151.039703 0.000000 0.000000 0.000000
9 -25.318588 27.405317 -156.415680 0.000000 0.000000 0.000000
10 -1.511986 -36.795662 -153.582565 0.000000 0.000000 0.000000
11 -1.616028 5.110130 6.580078 -0.000000 0.000000 0.000000
12 292.519836 17.856632 498.351227 1.296266 0.880262 -1.597431
13 0.000000 0.000000 0.000000 0.000000 0.000000 0.000000
14 0.000000 0.000000 0.000000 0.000000 0.000000 0.000000
15 0.000000 0.000000 0.000000 0.000000 0.000000 0.000000
time 28
0 -1.060429 0.000000 -6.580078 0.000000 0.000000 0.000000
1 0.000000 -0.000016 363.332245 0.000000 0.000000 0.000000
2 -22.474161 -0.000002 35.584106 0.000000 0.004754 -0.453786
3 -335.017456 -19.288225 144.209167 -0.000000 -0.000000 0.026180
4 18.728466 -0.000002 48.694031 0.000000 -0.025021 0.331613
5 204.242142 -20.081882 168.556213 -0.000000 0.000000 -0.087266
6 -36.754292 -34.469303 28.092712 0.000000 -0.012281 0.907571
7 -232.232697 24.844929 43.075455 -0.000000 0.000000 -0.139626
8 39.290146 -1.136083 -151.039703 0.000000 0.000000 0.000000
9 -25.318588 27.405317 -156.415680 0.000000 0.000000 0.000000
10 -1.511986 -36.795662 -153.582565 0.000000 0.000000 0.000000
11 -1.616028 5.110130 6.580078 -0.000000 0.000000 0.000000
12 292.519836 17.856632 498.351227 1.296266 0.880262 -1.597431
13 0.000000 0.000000 0.000000 0.000000 0.000000 0.000000
14 0.000000 0.000000 0.000000 0.000000 0.000000 0.000000
15 0.000000 0.000000 0.000000 0.000000 0.000000 0.000000
time 29
0 -1.060429 0.000000 -6.580078 0.000000 0.000000 0.000000
1 0.000000 -0.000016 363.332245 0.000000 0.000000 0.000000
2 -22.474161 -0.000002 35.584106 0.000000 0.004015 -0.453786
3 -335.017426 -19.288216 144.209213 0.000000 -0.000000 0.026180
4 18.728466 -0.000002 48.694031 0.000000 -0.026854 0.331613
5 204.242157 -20.081890 168.556183 -0.000000 -0.000000 -0.087266
6 -36.754292 -34.469303 28.092712 0.000000 -0.008493 0.907571
7 -232.232681 24.844921 43.075497 0.000000 0.000000 -0.139626
8 39.290146 -1.136083 -151.039703 0.000000 0.000000 0.000000
9 -25.318588 27.405317 -156.415680 0.000000 0.000000 0.000000
10 -1.511986 -36.795662 -153.582565 0.000000 0.000000 0.000000
11 -1.616028 5.110130 6.580078 -0.000000 0.000000 0.000000
12 292.519836 17.856632 498.351227 1.296266 0.880262 -1.597431
13 0.000000 0.000000 0.000000 0.000000 0.000000 0.000000
14 0.000000 0.000000 0.000000 0.000000 0.000000 0.000000
15 0.000000 0.000000 0.000000 0.000000 0.000000 0.000000
time 30
0 -1.060429 0.000000 -6.580078 0.000000 0.000000 0.000000
1 0.000000 -0.000016 363.332245 0.000000 0.000000 0.000000
2 -22.474161 -0.000002 35.584106 0.000000 0.003083 -0.453786
3 -335.017456 -19.288229 144.209213 -0.000000 -0.000000 0.026180
4 18.728466 -0.000002 48.694031 -0.000000 -0.028857 0.331613
5 204.242142 -20.081881 168.556168 0.000000 -0.000000 -0.087266
6 -36.754292 -34.469303 28.092712 -0.000000 -0.004858 0.907571
7 -232.232681 24.844921 43.075474 -0.000000 -0.000000 -0.139626
8 39.290146 -1.136083 -151.039703 0.000000 0.000000 0.000000
9 -25.318588 27.405317 -156.415680 0.000000 0.000000 0.000000
10 -1.511986 -36.795662 -153.582565 0.000000 0.000000 0.000000
11 -1.616028 5.110130 6.580078 -0.000000 0.000000 0.000000
12 292.519836 17.856632 498.351227 1.296266 0.880262 -1.597431
13 0.000000 0.000000 0.000000 0.000000 0.000000 0.000000
14 0.000000 0.000000 0.000000 0.000000 0.000000 0.000000
15 0.000000 0.000000 0.000000 0.000000 0.000000 0.000000
end
