version 1
nodes
0 "Box08" -1
1 "Box29" -1
2 "Mesh01" -1
3 "Mesh02" -1
4 "Bone01" -1
5 "Bone02" -1
6 "Bone03" -1
end
skeleton
time 0
0 -87.379456 218.179901 1.167014 0.000000 0.000000 0.000000
1 82.087402 283.263336 171.414062 1.570796 0.000000 1.570796
2 82.087402 283.263336 171.414062 1.570796 0.000000 1.570796
3 82.087402 283.263336 171.414062 1.570796 0.000000 1.570796
4 -178.377151 12.383331 379.865356 0.000000 0.000000 0.000000
5 -178.377167 149.017273 379.865356 0.000000 0.000000 0.000000
6 -178.377167 282.433624 379.865356 0.000000 0.000000 0.000000
end
