version 1
nodes
0 "Box04" -1
1 "Object01" -1
end
skeleton
time 0
0 -249.321198 -0.593441 -63.988266 0.000000 0.000000 0.000000
1 -249.321198 -0.593445 0.261433 0.000000 0.000000 0.000000
end
triangles
tile_01.jpg
0 -199.326797 -23.120300 225.456497 0.000000 0.000000 1.000000 -2.218900 0.171900
0 198.826508 -23.114901 225.456497 0.000000 0.000000 1.000000 2.890200 0.171900
0 198.826508 38.736599 225.456497 0.000000 0.000000 1.000000 2.890200 1.340800
tile_01.jpg
0 198.826508 38.736599 225.456497 0.000000 0.000000 1.000000 2.890200 1.340800
0 -199.326797 38.731300 225.456497 0.000000 0.000000 1.000000 -2.218900 1.340800
0 -199.326797 -23.120300 225.456497 0.000000 0.000000 1.000000 -2.218900 0.171900
tile_01.jpg
0 -199.326797 -23.120300 -1.613899 0.000000 -1.000000 0.000000 -1.188500 -1.029300
0 198.826508 -23.114901 -1.613899 0.000000 -1.000000 0.000000 3.871100 -1.029300
0 198.826508 -23.114901 225.456497 0.000000 -1.000000 0.000000 3.871100 2.473200
tile_01.jpg
0 198.826508 -23.114901 225.456497 0.000000 -1.000000 0.000000 3.871100 2.473200
0 -199.326797 -23.120300 225.456497 0.000000 -1.000000 0.000000 -1.188500 2.473200
0 -199.326797 -23.120300 -1.613899 0.000000 -1.000000 0.000000 -1.188500 -1.029300
tile_01.jpg
0 198.826508 -23.114901 -1.613899 1.000000 0.000000 0.000000 0.240200 -1.030800
0 198.826508 38.736599 -1.613899 1.000000 0.000000 0.000000 0.953600 -1.030800
0 198.826508 38.736599 225.456497 1.000000 0.000000 0.000000 0.953600 2.479200
tile_01.jpg
0 198.826508 38.736599 225.456497 1.000000 0.000000 0.000000 0.953600 2.479200
0 198.826508 -23.114901 225.456497 1.000000 0.000000 0.000000 0.240200 2.479200
0 198.826508 -23.114901 -1.613899 1.000000 0.000000 0.000000 0.240200 -1.030800
tile_01.jpg
0 198.826508 38.736599 -1.613899 0.002200 0.999992 0.003400 3.871100 -1.029300
0 -199.326797 40.290501 -1.485699 0.004500 0.999966 0.006900 -1.188500 -1.029300
0 -199.326797 38.731300 225.456497 0.002200 0.999992 0.003400 -1.188500 2.473200
tile_01.jpg
0 -199.326797 38.731300 225.456497 0.002200 0.999992 0.003400 -1.188500 2.473200
0 198.826508 38.736599 225.456497 0.000000 1.000000 0.000000 3.871100 2.473200
0 198.826508 38.736599 -1.613899 0.002200 0.999992 0.003400 3.871100 -1.029300
tile_01.jpg
0 -167.833893 -36.527302 236.536514 0.000000 0.000000 1.000000 0.219600 0.999500
0 -121.767899 -36.527302 236.536514 0.000000 0.000000 1.000000 1.000000 0.999500
0 -121.767899 -22.337799 236.536514 0.000000 0.000000 1.000000 1.000000 0.510200
tile_01.jpg
0 -121.767899 -22.337799 236.536514 0.000000 0.000000 1.000000 1.000000 0.510200
0 -167.833893 -22.337799 236.536514 0.000000 0.000000 1.000000 0.219600 0.510200
0 -167.833893 -36.527302 236.536514 0.000000 0.000000 1.000000 0.219600 0.999500
tile_01.jpg
0 -167.833893 -36.527302 181.791397 0.000000 -1.000000 0.000000 0.549100 0.481200
0 -121.767899 -36.527302 181.791397 0.000000 -1.000000 0.000000 0.998100 0.481200
0 -121.767899 -36.527302 236.536514 0.000000 -1.000000 0.000000 0.998100 0.999500
tile_01.jpg
0 -121.767899 -36.527302 236.536514 0.000000 -1.000000 0.000000 0.998100 0.999500
0 -167.833893 -36.527302 236.536514 0.000000 -1.000000 0.000000 0.549100 0.999500
0 -167.833893 -36.527302 181.791397 0.000000 -1.000000 0.000000 0.549100 0.481200
tile_01.jpg
0 -121.767899 -36.527302 181.791397 1.000000 0.000000 0.000000 0.982200 0.483600
0 -121.767899 3.229300 181.791397 1.000000 0.000000 0.000000 0.409500 0.483600
0 -121.767899 -22.337799 236.536514 1.000000 0.000000 0.000000 0.625700 0.999500
tile_01.jpg
0 -121.767899 -22.337799 236.536514 1.000000 0.000000 0.000000 0.625700 0.999500
0 -121.767899 -36.527302 236.536514 1.000000 0.000000 0.000000 0.982200 0.999500
0 -121.767899 -36.527302 181.791397 1.000000 0.000000 0.000000 0.982200 0.483600
tile_01.jpg
0 -121.767899 3.229300 181.791397 0.000000 0.906086 0.423093 -0.203200 2.139100
0 -167.833893 3.229300 181.791397 0.000000 0.906086 0.423093 -0.788600 2.139100
0 -167.833893 -22.337799 236.536514 0.000000 0.906086 0.423093 -0.788600 2.983500
tile_01.jpg
0 -167.833893 -22.337799 236.536514 0.000000 0.906086 0.423093 -0.788600 2.983500
0 -121.767899 -22.337799 236.536514 0.000000 0.906086 0.423093 -0.203200 2.983500
0 -121.767899 3.229300 181.791397 0.000000 0.906086 0.423093 -0.203200 2.139100
tile_01.jpg
0 -167.833893 3.229300 181.791397 -1.000000 0.000000 0.000000 0.409500 0.483600
0 -167.833893 -36.527302 181.791397 -1.000000 0.000000 0.000000 0.982200 0.483600
0 -167.833893 -36.527302 236.536514 -1.000000 0.000000 0.000000 0.982200 0.999500
tile_01.jpg
0 -167.833893 -36.527302 236.536514 -1.000000 0.000000 0.000000 0.982200 0.999500
0 -167.833893 -22.337799 236.536514 -1.000000 0.000000 0.000000 0.625700 0.999500
0 -167.833893 3.229300 181.791397 -1.000000 0.000000 0.000000 0.409500 0.483600
tile_01.jpg
0 -71.050903 -36.527302 236.536514 0.000000 0.000000 1.000000 0.219000 0.999500
0 -24.985001 -36.527302 236.536514 0.000000 0.000000 1.000000 0.999500 0.999500
0 -24.985001 -22.337799 236.536514 0.000000 0.000000 1.000000 0.999500 0.510200
tile_01.jpg
0 -24.985001 -22.337799 236.536514 0.000000 0.000000 1.000000 0.999500 0.510200
0 -71.050903 -22.337799 236.536514 0.000000 0.000000 1.000000 0.219000 0.510200
0 -71.050903 -36.527302 236.536514 0.000000 0.000000 1.000000 0.219000 0.999500
tile_01.jpg
0 -71.050903 -36.527302 181.791397 0.000000 -1.000000 0.000000 0.548600 0.481200
0 -24.985001 -36.527302 181.791397 0.000000 -1.000000 0.000000 0.997500 0.481200
0 -24.985001 -36.527302 236.536514 0.000000 -1.000000 0.000000 0.997500 0.999500
tile_01.jpg
0 -24.985001 -36.527302 236.536514 0.000000 -1.000000 0.000000 0.997500 0.999500
0 -71.050903 -36.527302 236.536514 0.000000 -1.000000 0.000000 0.548600 0.999500
0 -71.050903 -36.527302 181.791397 0.000000 -1.000000 0.000000 0.548600 0.481200
tile_01.jpg
0 -24.985001 -36.527302 181.791397 1.000000 0.000000 0.000000 0.982200 0.483600
0 -24.985001 3.229300 181.791397 1.000000 0.000000 0.000000 0.409500 0.483600
0 -24.985001 -22.337799 236.536514 1.000000 0.000000 0.000000 0.625700 0.999500
tile_01.jpg
0 -24.985001 -22.337799 236.536514 1.000000 0.000000 0.000000 0.625700 0.999500
0 -24.985001 -36.527302 236.536514 1.000000 0.000000 0.000000 0.982200 0.999500
0 -24.985001 -36.527302 181.791397 1.000000 0.000000 0.000000 0.982200 0.483600
tile_01.jpg
0 -24.985001 3.229300 181.791397 0.000000 0.906086 0.423093 0.421900 0.000500
0 -71.050903 3.229300 181.791397 0.000000 0.906086 0.423093 0.000500 0.000500
0 -71.050903 -22.337799 236.536514 0.000000 0.906086 0.423093 0.000500 0.441500
tile_01.jpg
0 -71.050903 -22.337799 236.536514 0.000000 0.906086 0.423093 0.000500 0.441500
0 -24.985001 -22.337799 236.536514 0.000000 0.906086 0.423093 0.421900 0.441500
0 -24.985001 3.229300 181.791397 0.000000 0.906086 0.423093 0.421900 0.000500
tile_01.jpg
0 -71.050903 3.229300 181.791397 -1.000000 0.000000 0.000000 0.409500 0.483600
0 -71.050903 -36.527302 181.791397 -1.000000 0.000000 0.000000 0.982200 0.483600
0 -71.050903 -36.527302 236.536514 -1.000000 0.000000 0.000000 0.982200 0.999500
tile_01.jpg
0 -71.050903 -36.527302 236.536514 -1.000000 0.000000 0.000000 0.982200 0.999500
0 -71.050903 -22.337799 236.536514 -1.000000 0.000000 0.000000 0.625700 0.999500
0 -71.050903 3.229300 181.791397 -1.000000 0.000000 0.000000 0.409500 0.483600
tile_01.jpg
0 32.260010 -36.527302 236.536514 0.000000 0.000000 1.000000 0.219600 0.999500
0 78.325897 -36.527302 236.536514 0.000000 0.000000 1.000000 1.000100 0.999500
0 78.325897 -22.337799 236.536514 0.000000 0.000000 1.000000 1.000100 0.510200
tile_01.jpg
0 78.325897 -22.337799 236.536514 0.000000 0.000000 1.000000 1.000100 0.510200
0 32.260010 -22.337799 236.536514 0.000000 0.000000 1.000000 0.219600 0.510200
0 32.260010 -36.527302 236.536514 0.000000 0.000000 1.000000 0.219600 0.999500
tile_01.jpg
0 32.260010 -36.527302 181.791397 0.000000 -1.000000 0.000000 0.549200 0.481200
0 78.325897 -36.527302 181.791397 0.000000 -1.000000 0.000000 0.998100 0.481200
0 78.325897 -36.527302 236.536514 0.000000 -1.000000 0.000000 0.998100 0.999500
tile_01.jpg
0 78.325897 -36.527302 236.536514 0.000000 -1.000000 0.000000 0.998100 0.999500
0 32.260010 -36.527302 236.536514 0.000000 -1.000000 0.000000 0.549200 0.999500
0 32.260010 -36.527302 181.791397 0.000000 -1.000000 0.000000 0.549200 0.481200
tile_01.jpg
0 78.325897 -36.527302 181.791397 1.000000 0.000000 0.000000 0.982200 0.483600
0 78.325897 3.229300 181.791397 1.000000 0.000000 0.000000 0.409500 0.483600
0 78.325897 -22.337799 236.536514 1.000000 0.000000 0.000000 0.625700 0.999500
tile_01.jpg
0 78.325897 -22.337799 236.536514 1.000000 0.000000 0.000000 0.625700 0.999500
0 78.325897 -36.527302 236.536514 1.000000 0.000000 0.000000 0.982200 0.999500
0 78.325897 -36.527302 181.791397 1.000000 0.000000 0.000000 0.982200 0.483600
tile_01.jpg
0 78.325897 3.229300 181.791397 0.000000 0.906086 0.423093 0.999500 0.000500
0 32.260010 3.229300 181.791397 0.000000 0.906086 0.423093 0.578100 0.000500
0 32.260010 -22.337799 236.536514 0.000000 0.906086 0.423093 0.578100 0.441500
tile_01.jpg
0 32.260010 -22.337799 236.536514 0.000000 0.906086 0.423093 0.578100 0.441500
0 78.325897 -22.337799 236.536514 0.000000 0.906086 0.423093 0.999500 0.441500
0 78.325897 3.229300 181.791397 0.000000 0.906086 0.423093 0.999500 0.000500
tile_01.jpg
0 32.260010 3.229300 181.791397 -1.000000 0.000000 0.000000 0.409500 0.483600
0 32.260010 -36.527302 181.791397 -1.000000 0.000000 0.000000 0.982200 0.483600
0 32.260010 -36.527302 236.536514 -1.000000 0.000000 0.000000 0.982200 0.999500
tile_01.jpg
0 32.260010 -36.527302 236.536514 -1.000000 0.000000 0.000000 0.982200 0.999500
0 32.260010 -22.337799 236.536514 -1.000000 0.000000 0.000000 0.625700 0.999500
0 32.260010 3.229300 181.791397 -1.000000 0.000000 0.000000 0.409500 0.483600
tile_01.jpg
0 131.751984 -36.527302 236.536514 0.000000 0.000000 1.000000 0.219000 0.999500
0 177.817902 -36.527302 236.536514 0.000000 0.000000 1.000000 0.999500 0.999500
0 177.817902 -22.337799 236.536514 0.000000 0.000000 1.000000 0.999500 0.510200
tile_01.jpg
0 177.817902 -22.337799 236.536514 0.000000 0.000000 1.000000 0.999500 0.510200
0 131.751984 -22.337799 236.536514 0.000000 0.000000 1.000000 0.219000 0.510200
0 131.751984 -36.527302 236.536514 0.000000 0.000000 1.000000 0.219000 0.999500
tile_01.jpg
0 131.751984 -36.527302 181.791397 0.000000 -1.000000 0.000000 0.550600 0.481200
0 177.817902 -36.527302 181.791397 0.000000 -1.000000 0.000000 0.999500 0.481200
0 177.817902 -36.527302 236.536514 0.000000 -1.000000 0.000000 0.999500 0.999500
tile_01.jpg
0 177.817902 -36.527302 236.536514 0.000000 -1.000000 0.000000 0.999500 0.999500
0 131.751984 -36.527302 236.536514 0.000000 -1.000000 0.000000 0.550600 0.999500
0 131.751984 -36.527302 181.791397 0.000000 -1.000000 0.000000 0.550600 0.481200
tile_01.jpg
0 177.817902 -36.527302 181.791397 1.000000 0.000000 0.000000 0.982200 0.483600
0 177.817902 3.229300 181.791397 1.000000 0.000000 0.000000 0.409500 0.483600
0 177.817902 -22.337799 236.536514 1.000000 0.000000 0.000000 0.625700 0.999500
tile_01.jpg
0 177.817902 -22.337799 236.536514 1.000000 0.000000 0.000000 0.625700 0.999500
0 177.817902 -36.527302 236.536514 1.000000 0.000000 0.000000 0.982200 0.999500
0 177.817902 -36.527302 181.791397 1.000000 0.000000 0.000000 0.982200 0.483600
tile_01.jpg
0 177.817902 3.229300 181.791397 0.000000 0.906086 0.423093 3.604100 2.139100
0 131.751984 3.229300 181.791397 0.000000 0.906086 0.423093 3.018700 2.139100
0 131.751984 -22.337799 236.536514 0.000000 0.906086 0.423093 3.018700 2.983500
tile_01.jpg
0 131.751984 -22.337799 236.536514 0.000000 0.906086 0.423093 3.018700 2.983500
0 177.817902 -22.337799 236.536514 0.000000 0.906086 0.423093 3.604100 2.983500
0 177.817902 3.229300 181.791397 0.000000 0.906086 0.423093 3.604100 2.139100
tile_01.jpg
0 131.751984 3.229300 181.791397 -1.000000 0.000000 0.000000 0.409500 0.483600
0 131.751984 -36.527302 181.791397 -1.000000 0.000000 0.000000 0.982200 0.483600
0 131.751984 -36.527302 236.536514 -1.000000 0.000000 0.000000 0.982200 0.999500
tile_01.jpg
0 131.751984 -36.527302 236.536514 -1.000000 0.000000 0.000000 0.982200 0.999500
0 131.751984 -22.337799 236.536514 -1.000000 0.000000 0.000000 0.625700 0.999500
0 131.751984 3.229300 181.791397 -1.000000 0.000000 0.000000 0.409500 0.483600
tile_01.jpg
0 -199.326797 40.290501 -1.485699 -1.000000 0.000000 0.000000 0.953600 -1.030800
0 -199.326797 -23.120300 -1.613899 -1.000000 0.000000 0.000000 0.240200 -1.030800
0 -199.326797 -23.120300 225.456497 -1.000000 0.000000 0.000000 0.240200 2.479200
tile_01.jpg
0 -199.326797 -23.120300 225.456497 -1.000000 0.000000 0.000000 0.240200 2.479200
0 -199.326797 38.731300 225.456497 -1.000000 0.000000 0.000000 0.953600 2.479200
0 -199.326797 40.290501 -1.485699 -1.000000 0.000000 0.000000 0.953600 -1.030800
tile_03.jpg
1 -199.326797 -43.036499 62.892101 -0.000200 0.000800 1.000000 -2.204000 -0.380300
1 198.826508 -43.036499 62.892101 0.000000 0.000000 1.000000 2.887900 -0.380300
1 198.826508 41.849701 62.892101 -0.000200 0.000800 1.000000 2.887900 1.014800
tile_03.jpg
1 198.826508 41.849701 62.892101 -0.000200 0.000800 1.000000 2.887900 1.014800
1 -199.326797 40.290501 62.764000 -0.000400 0.001500 0.999999 -2.204000 1.014800
1 -199.326797 -43.036499 62.892101 -0.000200 0.000800 1.000000 -2.204000 -0.380300
tile_03.jpg
1 -199.326797 -43.036499 0.261400 0.000000 -1.000000 0.000000 -1.188500 -1.991400
1 198.826508 -43.036499 0.261400 0.000000 -1.000000 0.000000 3.871100 -1.991400
1 198.826508 -43.036499 62.892101 0.000000 -1.000000 0.000000 3.871100 -1.025300
tile_03.jpg
1 198.826508 -43.036499 62.892101 0.000000 -1.000000 0.000000 3.871100 -1.025300
1 -199.326797 -43.036499 62.892101 0.000000 -1.000000 0.000000 -1.188500 -1.025300
1 -199.326797 -43.036499 0.261400 0.000000 -1.000000 0.000000 -1.188500 -1.991400
tile_03.jpg
1 198.826508 -43.036499 0.261400 1.000000 0.000000 0.000000 0.000500 0.000500
1 198.826508 41.849701 0.261400 1.000000 0.000000 0.000000 0.999500 0.000500
1 198.826508 41.849701 62.892101 1.000000 0.000000 0.000000 0.999500 0.999500
tile_03.jpg
1 198.826508 41.849701 62.892101 1.000000 0.000000 0.000000 0.999500 0.999500
1 198.826508 -43.036499 62.892101 1.000000 0.000000 0.000000 0.000500 0.999500
1 198.826508 -43.036499 0.261400 1.000000 0.000000 0.000000 0.000500 0.000500
tile_03.jpg
1 198.826508 41.849701 0.261400 -0.002300 0.999919 0.012500 3.871100 -1.991400
1 -199.326797 41.849701 0.261400 0.000000 0.999690 0.024900 -1.188500 -1.991400
1 -199.326797 40.290501 62.764000 -0.002300 0.999919 0.012500 -1.188500 -1.025300
tile_03.jpg
1 -199.326797 40.290501 62.764000 -0.002300 0.999919 0.012500 -1.188500 -1.025300
1 198.826508 41.849701 62.892101 -0.004500 0.999990 0.000000 3.871100 -1.025300
1 198.826508 41.849701 0.261400 -0.002300 0.999919 0.012500 3.871100 -1.991400
tile_03.jpg
1 -199.326797 41.849701 0.261400 -1.000000 0.000000 0.000000 0.999500 0.000500
1 -199.326797 -43.036499 0.261400 -1.000000 0.000000 0.000000 0.000500 0.000500
1 -199.326797 -43.036499 62.892101 -1.000000 0.000000 0.000000 0.000500 0.999500
tile_03.jpg
1 -199.326797 -43.036499 62.892101 -1.000000 0.000000 0.000000 0.000500 0.999500
1 -199.326797 40.290501 62.764000 -1.000000 0.000000 0.000000 0.999500 0.999500
1 -199.326797 41.849701 0.261400 -1.000000 0.000000 0.000000 0.999500 0.000500
end
