version 1
nodes
0 "Box01" -1
end
skeleton
time 0
0 16.858028 0.727444 -0.000003 0.000000 0.000000 1.570796
end
triangles
wood01.jpg
0 130.317093 -18.427500 9.194100 0.000000 0.000000 1.000000 0.491900 0.203000
0 130.317093 19.679701 9.194100 0.000000 0.000000 1.000000 0.491900 0.325100
0 -41.761700 35.516998 9.194100 0.000000 0.000000 1.000000 0.212800 0.375800
wood01.jpg
0 -41.761700 35.516998 9.194100 0.000000 0.000000 1.000000 0.212800 0.375800
0 -41.761700 -34.264801 9.194100 0.000000 0.000000 1.000000 0.212800 0.152300
0 130.317093 -18.427500 9.194100 0.000000 0.000000 1.000000 0.491900 0.203000
wood01.jpg
0 -41.761700 -34.264801 9.194100 0.000000 0.000000 1.000000 0.212800 0.152300
0 -41.761700 35.516998 9.194100 0.000000 0.000000 1.000000 0.212800 0.375800
0 -97.239700 13.600600 9.194100 0.000000 0.000000 1.000000 0.118400 0.305600
wood01.jpg
0 -97.239700 13.600600 9.194100 0.000000 0.000000 1.000000 0.118400 0.305600
0 -97.239700 -12.348400 9.194100 0.000000 0.000000 1.000000 0.118400 0.222500
0 -41.761700 -34.264801 9.194100 0.000000 0.000000 1.000000 0.212800 0.152300
wood01.jpg
0 136.791702 -23.779301 0.804100 1.000000 0.000000 0.000000 0.517600 0.066200
0 136.791702 25.234200 0.804100 1.000000 0.000000 0.000000 0.053600 0.066200
0 136.791702 25.234200 64.532997 1.000000 0.000000 0.000000 0.053600 0.432300
wood01.jpg
0 136.791702 25.234200 64.532997 1.000000 0.000000 0.000000 0.053600 0.432300
0 136.791702 -23.779301 64.532997 1.000000 0.000000 0.000000 0.517600 0.432300
0 136.791702 -23.779301 0.804100 1.000000 0.000000 0.000000 0.517600 0.066200
wood01.jpg
0 136.791702 25.234200 0.804100 0.092402 0.995722 0.000000 0.512200 0.072500
0 -42.772400 41.898701 0.804100 0.092402 0.995722 0.000000 0.093800 0.072500
0 -42.772400 41.898701 64.532997 0.092402 0.995722 0.000000 0.093800 0.427000
wood01.jpg
0 -42.772400 41.898701 64.532997 0.092402 0.995722 0.000000 0.093800 0.427000
0 136.791702 25.234200 64.532997 0.092402 0.995722 0.000000 0.512200 0.427000
0 136.791702 25.234200 0.804100 0.092402 0.995722 0.000000 0.512200 0.072500
wood01.jpg
0 -42.772400 41.898701 0.804100 -0.378208 0.925721 0.000000 0.362500 0.070500
0 -103.075699 17.262100 0.804100 -0.378208 0.925721 0.000000 0.093100 0.070500
0 -103.075699 17.262100 64.532997 -0.378208 0.925721 0.000000 0.093100 0.428900
wood01.jpg
0 -103.075699 17.262100 64.532997 -0.378208 0.925721 0.000000 0.093100 0.428900
0 -42.772400 41.898701 64.532997 -0.378208 0.925721 0.000000 0.362500 0.428900
0 -42.772400 41.898701 0.804100 -0.378208 0.925721 0.000000 0.362500 0.070500
wood01.jpg
0 -103.075699 17.262100 0.804100 -1.000000 0.000000 0.000000 0.100200 0.066200
0 -103.075699 -15.807201 0.804100 -1.000000 0.000000 0.000000 0.471000 0.066200
0 -103.075699 -15.807201 64.532997 -1.000000 0.000000 0.000000 0.471000 0.432300
wood01.jpg
0 -103.075699 -15.807201 64.532997 -1.000000 0.000000 0.000000 0.471000 0.432300
0 -103.075699 17.262100 64.532997 -1.000000 0.000000 0.000000 0.100200 0.432300
0 -103.075699 17.262100 0.804100 -1.000000 0.000000 0.000000 0.100200 0.066200
wood01.jpg
0 -103.075699 -15.807201 0.804100 -0.378208 -0.925720 0.000000 0.093100 0.070500
0 -42.772400 -40.443802 0.804100 -0.378208 -0.925720 0.000000 0.362500 0.070500
0 -42.772400 -40.443802 64.532997 -0.378208 -0.925720 0.000000 0.362500 0.428900
wood01.jpg
0 -42.772400 -40.443802 64.532997 -0.378208 -0.925720 0.000000 0.362500 0.428900
0 -103.075699 -15.807201 64.532997 -0.378208 -0.925720 0.000000 0.093100 0.428900
0 -103.075699 -15.807201 0.804100 -0.378208 -0.925720 0.000000 0.093100 0.070500
wood01.jpg
0 -42.772400 -40.443802 0.804100 0.092402 -0.995722 0.000000 0.093800 0.072500
0 136.791702 -23.779301 0.804100 0.092402 -0.995722 0.000000 0.512200 0.072500
0 136.791702 -23.779301 64.532997 0.092402 -0.995722 0.000000 0.512200 0.427000
wood01.jpg
0 136.791702 -23.779301 64.532997 0.092402 -0.995722 0.000000 0.512200 0.427000
0 -42.772400 -40.443802 64.532997 0.092402 -0.995722 0.000000 0.093800 0.427000
0 -42.772400 -40.443802 0.804100 0.092402 -0.995722 0.000000 0.093800 0.072500
wood01.jpg
0 136.791702 -23.779301 64.532997 0.000800 0.000000 1.000000 0.562200 0.974300
0 136.791702 25.234200 64.532997 0.000800 0.000000 1.000000 0.870500 0.974300
0 130.317093 19.679701 64.538200 0.000800 0.000000 1.000000 0.835600 0.961900
wood01.jpg
0 130.317093 19.679701 64.538200 0.000800 0.000000 1.000000 0.835600 0.961900
0 130.317093 -18.427500 64.538200 0.000800 0.000000 1.000000 0.595900 0.961900
0 136.791702 -23.779301 64.532997 0.000800 0.000000 1.000000 0.562200 0.974300
wood01.jpg
0 136.791702 25.234200 64.532997 0.000100 0.000800 1.000000 0.963200 0.978000
0 -42.772400 41.898701 64.532997 0.000100 0.000800 1.000000 0.620600 0.980300
0 -41.761700 35.516998 64.538200 0.000100 0.000800 1.000000 0.617900 0.932400
wood01.jpg
0 -41.761700 35.516998 64.538200 0.000100 0.000800 1.000000 0.617900 0.932400
0 130.317093 19.679701 64.538200 0.000100 0.000800 1.000000 0.964100 0.934500
0 136.791702 25.234200 64.532997 0.000100 0.000800 1.000000 0.963200 0.978000
wood01.jpg
0 -42.772400 -40.443802 64.532997 0.000100 -0.000900 1.000000 0.620600 0.980300
0 136.791702 -23.779301 64.532997 0.000100 -0.000900 1.000000 0.963200 0.978000
0 130.317093 -18.427500 64.538200 0.000100 -0.000900 1.000000 0.964100 0.935500
wood01.jpg
0 130.317093 -18.427500 64.538200 0.000100 -0.000900 1.000000 0.964100 0.935500
0 -41.761700 -34.264801 64.538200 0.000100 -0.000900 1.000000 0.617900 0.933500
0 -42.772400 -40.443802 64.532997 0.000100 -0.000900 1.000000 0.620600 0.980300
wood01.jpg
0 -42.772400 41.898701 64.532997 -0.000300 0.000900 1.000000 0.620600 0.980300
0 -103.075699 17.262100 64.532997 -0.000300 0.000900 1.000000 0.506200 0.979700
0 -97.239700 13.600600 64.538200 -0.000300 0.000900 1.000000 0.506300 0.930300
wood01.jpg
0 -97.239700 13.600600 64.538200 -0.000300 0.000800 1.000000 0.506300 0.930300
0 -41.761700 35.516998 64.538200 -0.000300 0.000800 1.000000 0.617900 0.932400
0 -42.772400 41.898701 64.532997 -0.000300 0.000800 1.000000 0.620600 0.980300
wood01.jpg
0 -103.075699 17.262100 64.532997 -0.000900 -0.000000 1.000000 0.866300 0.975300
0 -103.075699 -15.807201 64.532997 -0.000900 -0.000000 1.000000 0.566700 0.975300
0 -97.239700 -12.348400 64.538200 -0.000900 -0.000000 1.000000 0.598100 0.965500
wood01.jpg
0 -97.239700 -12.348400 64.538200 -0.000900 -0.000000 1.000000 0.598100 0.965500
0 -97.239700 13.600600 64.538200 -0.000900 -0.000000 1.000000 0.833100 0.965500
0 -103.075699 17.262100 64.532997 -0.000900 -0.000000 1.000000 0.866300 0.975300
wood01.jpg
0 -103.075699 -15.807201 64.532997 -0.000300 -0.000800 1.000000 0.506200 0.979700
0 -42.772400 -40.443802 64.532997 -0.000300 -0.000800 1.000000 0.620600 0.980300
0 -41.761700 -34.264801 64.538200 -0.000300 -0.000800 1.000000 0.617900 0.933500
wood01.jpg
0 -41.761700 -34.264801 64.538200 -0.000400 -0.000900 1.000000 0.617900 0.933500
0 -97.239700 -12.348400 64.538200 -0.000400 -0.000900 1.000000 0.506300 0.931300
0 -103.075699 -15.807201 64.532997 -0.000400 -0.000900 1.000000 0.506200 0.979700
wood01.jpg
0 130.317093 -18.427500 64.538200 -1.000000 0.000000 0.000000 0.486300 0.432300
0 130.317093 19.679701 64.538200 -1.000000 0.000000 0.000000 0.086100 0.432300
0 130.317093 19.679701 9.194100 -1.000000 0.000000 0.000000 0.086100 0.103900
wood01.jpg
0 130.317093 19.679701 9.194100 -1.000000 0.000000 0.000000 0.086100 0.103900
0 130.317093 -18.427500 9.194100 -1.000000 0.000000 0.000000 0.486300 0.103900
0 130.317093 -18.427500 64.538200 -1.000000 0.000000 0.000000 0.486300 0.432300
wood01.jpg
0 130.317093 19.679701 64.538200 -0.091600 -0.995796 0.000000 0.495300 0.427000
0 -41.761700 35.516998 64.538200 -0.091600 -0.995796 0.000000 0.096400 0.427000
0 -41.761700 35.516998 9.194100 -0.091600 -0.995796 0.000000 0.096400 0.127700
wood01.jpg
0 -41.761700 35.516998 9.194100 -0.091600 -0.995796 0.000000 0.096400 0.127700
0 130.317093 19.679701 9.194100 -0.091600 -0.995796 0.000000 0.495300 0.127700
0 130.317093 19.679701 64.538200 -0.091600 -0.995796 0.000000 0.495300 0.427000
wood01.jpg
0 -41.761700 -34.264801 64.538200 -0.091600 0.995796 0.000000 0.096400 0.427000
0 130.317093 -18.427500 64.538200 -0.091600 0.995796 0.000000 0.495300 0.427000
0 130.317093 -18.427500 9.194100 -0.091600 0.995796 0.000000 0.495300 0.127700
wood01.jpg
0 130.317093 -18.427500 9.194100 -0.091600 0.995796 0.000000 0.495300 0.127700
0 -41.761700 -34.264801 9.194100 -0.091600 0.995796 0.000000 0.096400 0.127700
0 -41.761700 -34.264801 64.538200 -0.091600 0.995796 0.000000 0.096400 0.427000
wood01.jpg
0 -41.761700 35.516998 64.538200 0.367387 -0.930068 0.000000 0.367000 0.428900
0 -97.239700 13.600600 64.538200 0.367387 -0.930068 0.000000 0.119200 0.428900
0 -97.239700 13.600600 9.194100 0.367387 -0.930068 0.000000 0.119200 0.106500
wood01.jpg
0 -97.239700 13.600600 9.194100 0.367387 -0.930068 0.000000 0.119200 0.106500
0 -41.761700 35.516998 9.194100 0.367387 -0.930068 0.000000 0.367000 0.106500
0 -41.761700 35.516998 64.538200 0.367387 -0.930068 0.000000 0.367000 0.428900
wood01.jpg
0 -97.239700 13.600600 64.538200 1.000000 0.000000 0.000000 0.121600 0.432300
0 -97.239700 -12.348400 64.538200 1.000000 0.000000 0.000000 0.450800 0.432300
0 -97.239700 -12.348400 9.194100 1.000000 0.000000 0.000000 0.450800 0.103900
wood01.jpg
0 -97.239700 -12.348400 9.194100 1.000000 0.000000 0.000000 0.450800 0.103900
0 -97.239700 13.600600 9.194100 1.000000 0.000000 0.000000 0.121600 0.103900
0 -97.239700 13.600600 64.538200 1.000000 0.000000 0.000000 0.121600 0.432300
wood01.jpg
0 -97.239700 -12.348400 64.538200 0.367387 0.930068 0.000000 0.119200 0.428900
0 -41.761700 -34.264801 64.538200 0.367387 0.930068 0.000000 0.367000 0.428900
0 -41.761700 -34.264801 9.194100 0.367387 0.930068 0.000000 0.367000 0.106500
wood01.jpg
0 -41.761700 -34.264801 9.194100 0.367387 0.930068 0.000000 0.367000 0.106500
0 -97.239700 -12.348400 9.194100 0.367387 0.930068 0.000000 0.119200 0.106500
0 -97.239700 -12.348400 64.538200 0.367387 0.930068 0.000000 0.119200 0.428900
end
