version 1
nodes
0 "Cylinder02" -1
end
skeleton
time 0
0 2.940582 7.652008 -0.053520 0.000000 -0.000000 0.000000
end
triangles
tree_03.jpg
0 58.531799 7.652000 -1.268900 0.683123 0.065924 0.727322 0.759500 0.000800
0 47.449600 25.071501 18.280800 0.869901 0.335895 0.361173 0.821300 0.277700
0 48.552399 7.652000 23.102699 0.974845 0.106884 0.195585 0.761400 0.346000
tree_03.jpg
0 52.512699 33.105900 7.135000 0.433571 0.258652 0.863200 0.836400 0.119800
0 39.514599 44.869999 -1.267100 0.388961 0.430894 0.814272 0.885200 0.000800
0 34.898201 40.868900 13.031600 0.514229 0.820308 0.250328 0.887000 0.203300
tree_03.jpg
0 39.514599 44.869999 -1.267100 0.388961 0.430894 0.814272 0.885200 0.000800
0 15.658100 48.855202 17.604799 0.509200 0.696407 0.505700 0.952500 0.268100
0 34.898201 40.868900 13.031600 0.514229 0.820308 0.250328 0.887000 0.203300
tree_03.jpg
0 21.270000 68.144302 11.813000 0.289935 0.381381 0.877773 0.954300 0.186100
0 2.296600 60.556702 -1.283500 -0.266117 0.839724 0.473334 0.996100 0.000500
0 1.681300 54.656898 20.926901 -0.189581 0.937664 0.291282 0.997400 0.315200
tree_03.jpg
0 2.296600 60.556702 -1.283500 -0.266117 0.839724 0.473334 -0.003900 0.000500
0 -13.206299 48.501598 19.745899 -0.355078 0.737751 0.574145 0.045200 0.298400
0 1.681300 54.656898 20.926901 -0.189581 0.937664 0.291282 -0.002600 0.315200
tree_03.jpg
0 -34.930000 44.881001 -1.264200 -0.531705 0.473440 0.702242 0.108500 0.000800
0 -37.126598 25.202700 21.735001 -0.811190 0.467371 0.351476 0.164500 0.326600
0 -31.535500 40.923302 18.291800 -0.766814 0.629558 0.125111 0.108700 0.277800
tree_03.jpg
0 -53.906300 27.201599 8.666000 -0.458496 0.125202 0.879833 0.182400 0.141500
0 -50.232800 7.652000 -1.256900 -0.709742 -0.080402 0.699858 0.239300 0.000900
0 -43.368500 7.652000 25.579000 -0.963099 -0.112967 0.244291 0.237600 0.381100
tree_03.jpg
0 -50.232800 7.652000 -1.256900 -0.709742 -0.080402 0.699858 0.239300 0.000900
0 -37.583000 -8.588699 27.395000 -0.930866 -0.190295 0.311890 0.306600 0.406800
0 -43.368500 7.652000 25.579000 -0.963099 -0.112967 0.244291 0.237600 0.381100
tree_03.jpg
0 -50.074501 -13.048700 9.873200 -0.572008 0.025226 0.819860 0.307200 0.158600
0 -38.271198 -24.219200 -1.283500 -0.457737 -0.651266 0.605252 0.357500 0.000500
0 -31.535500 -25.564800 29.293301 -0.750048 -0.615792 0.241306 0.376100 0.433700
tree_03.jpg
0 -38.271198 -24.219200 -1.283500 -0.457737 -0.651266 0.605252 0.357500 0.000500
0 -23.033800 -38.551601 23.185699 -0.422909 -0.828003 0.368184 0.425200 0.347200
0 -31.535500 -25.564800 29.293301 -0.750048 -0.615792 0.241306 0.376100 0.433700
tree_03.jpg
0 1.075800 -44.813499 -1.283100 -0.142450 -0.881112 0.450944 0.500800 0.000600
0 17.963600 -37.989201 23.197100 0.143125 -0.895225 0.422003 0.556500 0.347300
0 1.681300 -39.323700 13.031600 0.042489 -0.974345 0.221011 0.503000 0.203300
tree_03.jpg
0 39.551800 -29.821098 -1.283500 0.596061 -0.695373 0.401457 0.627800 0.000500
0 39.705898 -29.757202 -1.283500 0.505516 -0.766518 0.396111 0.628300 0.000500
0 34.898201 -25.564800 33.626801 0.699477 -0.703495 0.125803 0.628200 0.495100
tree_03.jpg
0 39.705898 -29.757202 -1.283500 0.505516 -0.766518 0.396111 0.628300 0.000500
0 49.366299 -11.664000 11.479700 0.805706 -0.216172 0.551459 0.694600 0.181300
0 34.898201 -25.564800 33.626801 0.699477 -0.703495 0.125803 0.628200 0.495100
tree_03.jpg
0 48.552399 7.652000 23.102699 0.974845 0.106884 0.195585 0.761400 0.346000
0 35.189899 39.901402 69.235199 0.829758 0.554911 0.059788 0.884200 0.999500
0 48.548100 7.652000 69.235199 0.989415 -0.135095 0.052987 0.761400 0.999500
tree_03.jpg
0 48.552399 7.652000 23.102699 0.974845 0.106884 0.195585 0.761400 0.346000
0 47.449600 25.071501 18.280800 0.869901 0.335895 0.361173 0.821300 0.277700
0 35.189899 39.901402 69.235199 0.829758 0.554911 0.059788 0.884200 0.999500
tree_03.jpg
0 34.898201 40.868900 13.031600 0.514229 0.820308 0.250328 0.887000 0.203300
0 2.940600 53.259499 69.235199 0.204990 0.978512 0.022208 0.993600 0.999500
0 35.189899 39.901402 69.235199 0.829758 0.554911 0.059788 0.884200 0.999500
tree_03.jpg
0 34.898201 40.868900 13.031600 0.514229 0.820308 0.250328 0.887000 0.203300
0 15.658100 48.855202 17.604799 0.509200 0.696407 0.505700 0.952500 0.268100
0 2.940600 53.259499 69.235199 0.204990 0.978512 0.022208 0.993600 0.999500
tree_03.jpg
0 1.681300 54.656898 20.926901 -0.189581 0.937664 0.291282 -0.002600 0.315200
0 -29.308800 39.901402 69.235199 -0.549391 0.834554 0.041095 0.105400 0.999500
0 2.940600 53.259499 69.235199 0.204990 0.978512 0.022208 -0.006400 0.999500
tree_03.jpg
0 1.681300 54.656898 20.926901 -0.189581 0.937664 0.291282 -0.002600 0.315200
0 -13.206299 48.501598 19.745899 -0.355078 0.737751 0.574145 0.045200 0.298400
0 -29.308800 39.901402 69.235199 -0.549391 0.834554 0.041095 0.105400 0.999500
tree_03.jpg
0 -31.535500 40.923302 18.291800 -0.766814 0.629558 0.125111 0.108700 0.277800
0 -42.666901 7.652000 69.235199 -0.983703 0.178112 0.024594 0.237400 0.999500
0 -29.308800 39.901402 69.235199 -0.549391 0.834554 0.041095 0.105400 0.999500
tree_03.jpg
0 -31.535500 40.923302 18.291800 -0.766814 0.629558 0.125111 0.108700 0.277800
0 -37.126598 25.202700 21.735001 -0.811190 0.467371 0.351476 0.164500 0.326600
0 -42.666901 7.652000 69.235199 -0.983703 0.178112 0.024594 0.237400 0.999500
tree_03.jpg
0 -43.368500 7.652000 25.579000 -0.963099 -0.112967 0.244291 0.237600 0.381100
0 -29.308800 -24.597401 69.235199 -0.850759 -0.523587 0.045443 0.379200 0.999500
0 -42.666901 7.652000 69.235199 -0.983703 0.178112 0.024594 0.237400 0.999500
tree_03.jpg
0 -43.368500 7.652000 25.579000 -0.963099 -0.112967 0.244291 0.237600 0.381100
0 -37.583000 -8.588699 27.395000 -0.930866 -0.190295 0.311890 0.306600 0.406800
0 -29.308800 -24.597401 69.235199 -0.850759 -0.523587 0.045443 0.379200 0.999500
tree_03.jpg
0 -31.535500 -25.564800 29.293301 -0.750048 -0.615792 0.241306 0.376100 0.433700
0 2.940600 -37.955502 69.235199 -0.194897 -0.971893 0.132061 0.507400 0.999500
0 -29.308800 -24.597401 69.235199 -0.850759 -0.523587 0.045443 0.379200 0.999500
tree_03.jpg
0 -31.535500 -25.564800 29.293301 -0.750048 -0.615792 0.241306 0.376100 0.433700
0 -23.033800 -38.551601 23.185699 -0.422909 -0.828003 0.368184 0.425200 0.347200
0 2.940600 -37.955502 69.235199 -0.194897 -0.971893 0.132061 0.507400 0.999500
tree_03.jpg
0 1.681300 -39.323700 13.031600 0.042489 -0.974345 0.221011 0.503000 0.203300
0 35.189899 -24.597298 69.235199 0.498356 -0.861247 0.099476 0.631400 0.999500
0 2.940600 -37.955502 69.235199 -0.194897 -0.971893 0.132061 0.507400 0.999500
tree_03.jpg
0 1.681300 -39.323700 13.031600 0.042489 -0.974345 0.221011 0.503000 0.203300
0 17.963600 -37.989201 23.197100 0.143125 -0.895225 0.422003 0.556500 0.347300
0 35.189899 -24.597298 69.235199 0.498356 -0.861247 0.099476 0.631400 0.999500
tree_03.jpg
0 34.898201 -25.564800 33.626801 0.699477 -0.703495 0.125803 0.628200 0.495100
0 48.548100 7.652000 69.235199 0.989415 -0.135095 0.052987 0.761400 0.999500
0 35.189899 -24.597298 69.235199 0.498356 -0.861247 0.099476 0.631400 0.999500
tree_03.jpg
0 34.898201 -25.564800 33.626801 0.699477 -0.703495 0.125803 0.628200 0.495100
0 49.366299 -11.664000 11.479700 0.805706 -0.216172 0.551459 0.694600 0.181300
0 48.548100 7.652000 69.235199 0.989415 -0.135095 0.052987 0.761400 0.999500
tree_03.jpg
0 39.551800 -29.821098 -1.283500 0.596061 -0.695373 0.401457 0.627800 0.000500
0 34.898201 -25.564800 33.626801 0.699477 -0.703495 0.125803 0.628200 0.495100
0 17.963600 -37.989201 23.197100 0.143125 -0.895225 0.422003 0.556500 0.347300
tree_03.jpg
0 17.963600 -37.989201 23.197100 0.143125 -0.895225 0.422003 0.556500 0.347300
0 34.898201 -25.564800 33.626801 0.699477 -0.703495 0.125803 0.628200 0.495100
0 35.189899 -24.597298 69.235199 0.498356 -0.861247 0.099476 0.631400 0.999500
tree_03.jpg
0 1.075800 -44.813499 -1.283100 -0.142450 -0.881112 0.450944 0.500800 0.000600
0 1.681300 -39.323700 13.031600 0.042489 -0.974345 0.221011 0.503000 0.203300
0 -23.033800 -38.551601 23.185699 -0.422909 -0.828003 0.368184 0.425200 0.347200
tree_03.jpg
0 -23.033800 -38.551601 23.185699 -0.422909 -0.828003 0.368184 0.425200 0.347200
0 1.681300 -39.323700 13.031600 0.042489 -0.974345 0.221011 0.503000 0.203300
0 2.940600 -37.955502 69.235199 -0.194897 -0.971893 0.132061 0.507400 0.999500
tree_03.jpg
0 58.531799 7.652000 -1.268900 0.683123 0.065924 0.727322 0.759500 0.000800
0 48.552399 7.652000 23.102699 0.974845 0.106884 0.195585 0.761400 0.346000
0 49.366299 -11.664000 11.479700 0.805706 -0.216172 0.551459 0.694600 0.181300
tree_03.jpg
0 49.366299 -11.664000 11.479700 0.805706 -0.216172 0.551459 0.694600 0.181300
0 48.552399 7.652000 23.102699 0.974845 0.106884 0.195585 0.761400 0.346000
0 48.548100 7.652000 69.235199 0.989415 -0.135095 0.052987 0.761400 0.999500
tree_03.jpg
0 58.670898 7.652000 -1.276400 0.387566 0.075397 0.918754 0.759500 0.000600
0 52.512699 33.105900 7.135000 0.433571 0.258652 0.863200 0.836400 0.119800
0 58.531799 7.652000 -1.268900 0.683123 0.065924 0.727322 0.759500 0.000800
tree_03.jpg
0 58.670898 7.652000 -1.276400 0.387566 0.075397 0.918754 0.759500 0.000600
0 58.531799 7.652000 -1.268900 0.683123 0.065924 0.727322 0.759500 0.000800
0 49.366299 -11.664000 11.479700 0.805706 -0.216172 0.551459 0.694600 0.181300
tree_03.jpg
0 52.512699 33.105900 7.135000 0.433571 0.258652 0.863200 0.836400 0.119800
0 34.898201 40.868900 13.031600 0.514229 0.820308 0.250328 0.887000 0.203300
0 47.449600 25.071501 18.280800 0.869901 0.335895 0.361173 0.821300 0.277700
tree_03.jpg
0 47.449600 25.071501 18.280800 0.869901 0.335895 0.361173 0.821300 0.277700
0 34.898201 40.868900 13.031600 0.514229 0.820308 0.250328 0.887000 0.203300
0 35.189899 39.901402 69.235199 0.829758 0.554911 0.059788 0.884200 0.999500
tree_03.jpg
0 58.531799 7.652000 -1.268900 0.683123 0.065924 0.727322 0.759500 0.000800
0 52.512699 33.105900 7.135000 0.433571 0.258652 0.863200 0.836400 0.119800
0 47.449600 25.071501 18.280800 0.869901 0.335895 0.361173 0.821300 0.277700
tree_03.jpg
0 39.705898 45.061298 -1.283500 0.264951 0.270856 0.925439 0.885200 0.000500
0 21.270000 68.144302 11.813000 0.289935 0.381381 0.877773 0.954300 0.186100
0 39.514599 44.869999 -1.267100 0.388961 0.430894 0.814272 0.885200 0.000800
tree_03.jpg
0 52.512699 33.105900 7.135000 0.433571 0.258652 0.863200 0.836400 0.119800
0 39.705898 45.061298 -1.283500 0.264951 0.270856 0.925439 0.885200 0.000500
0 39.514599 44.869999 -1.267100 0.388961 0.430894 0.814272 0.885200 0.000800
tree_03.jpg
0 21.270000 68.144302 11.813000 0.289935 0.381381 0.877773 0.954300 0.186100
0 1.681300 54.656898 20.926901 -0.189581 0.937664 0.291282 0.997400 0.315200
0 15.658100 48.855202 17.604799 0.509200 0.696407 0.505700 0.952500 0.268100
tree_03.jpg
0 15.658100 48.855202 17.604799 0.509200 0.696407 0.505700 0.952500 0.268100
0 1.681300 54.656898 20.926901 -0.189581 0.937664 0.291282 0.997400 0.315200
0 2.940600 53.259499 69.235199 0.204990 0.978512 0.022208 0.993600 0.999500
tree_03.jpg
0 39.514599 44.869999 -1.267100 0.388961 0.430894 0.814272 0.885200 0.000800
0 21.270000 68.144302 11.813000 0.289935 0.381381 0.877773 0.954300 0.186100
0 15.658100 48.855202 17.604799 0.509200 0.696407 0.505700 0.952500 0.268100
tree_03.jpg
0 -34.930000 44.881001 -1.264200 -0.531705 0.473440 0.702242 0.108500 0.000800
0 -31.535500 40.923302 18.291800 -0.766814 0.629558 0.125111 0.108700 0.277800
0 -13.206299 48.501598 19.745899 -0.355078 0.737751 0.574145 0.045200 0.298400
tree_03.jpg
0 -13.206299 48.501598 19.745899 -0.355078 0.737751 0.574145 0.045200 0.298400
0 -31.535500 40.923302 18.291800 -0.766814 0.629558 0.125111 0.108700 0.277800
0 -29.308800 39.901402 69.235199 -0.549391 0.834554 0.041095 0.105400 0.999500
tree_03.jpg
0 -35.112598 45.061298 -1.283500 -0.300789 0.118217 0.946335 0.108500 0.000500
0 -53.906300 27.201599 8.666000 -0.458496 0.125202 0.879833 0.182400 0.141500
0 -34.930000 44.881001 -1.264200 -0.531705 0.473440 0.702242 0.108500 0.000800
tree_03.jpg
0 -35.112598 45.061298 -1.283500 -0.300789 0.118217 0.946335 0.108500 0.000500
0 -34.930000 44.881001 -1.264200 -0.531705 0.473440 0.702242 0.108500 0.000800
0 -13.206299 48.501598 19.745899 -0.355078 0.737751 0.574145 0.045200 0.298400
tree_03.jpg
0 -53.906300 27.201599 8.666000 -0.458496 0.125202 0.879833 0.182400 0.141500
0 -43.368500 7.652000 25.579000 -0.963099 -0.112967 0.244291 0.237600 0.381100
0 -37.126598 25.202700 21.735001 -0.811190 0.467371 0.351476 0.164500 0.326600
tree_03.jpg
0 -37.126598 25.202700 21.735001 -0.811190 0.467371 0.351476 0.164500 0.326600
0 -43.368500 7.652000 25.579000 -0.963099 -0.112967 0.244291 0.237600 0.381100
0 -42.666901 7.652000 69.235199 -0.983703 0.178112 0.024594 0.237400 0.999500
tree_03.jpg
0 -34.930000 44.881001 -1.264200 -0.531705 0.473440 0.702242 0.108500 0.000800
0 -53.906300 27.201599 8.666000 -0.458496 0.125202 0.879833 0.182400 0.141500
0 -37.126598 25.202700 21.735001 -0.811190 0.467371 0.351476 0.164500 0.326600
tree_03.jpg
0 -50.608002 7.652000 -1.283500 -0.415765 -0.000394 0.909472 0.239400 0.000500
0 -50.074501 -13.048700 9.873200 -0.572008 0.025226 0.819860 0.307200 0.158600
0 -50.232800 7.652000 -1.256900 -0.709742 -0.080402 0.699858 0.239300 0.000900
tree_03.jpg
0 -53.906300 27.201599 8.666000 -0.458496 0.125202 0.879833 0.182400 0.141500
0 -50.608002 7.652000 -1.283500 -0.415765 -0.000394 0.909472 0.239400 0.000500
0 -50.232800 7.652000 -1.256900 -0.709742 -0.080402 0.699858 0.239300 0.000900
tree_03.jpg
0 -50.074501 -13.048700 9.873200 -0.572008 0.025226 0.819860 0.307200 0.158600
0 -31.535500 -25.564800 29.293301 -0.750048 -0.615792 0.241306 0.376100 0.433700
0 -37.583000 -8.588699 27.395000 -0.930866 -0.190295 0.311890 0.306600 0.406800
tree_03.jpg
0 -37.583000 -8.588699 27.395000 -0.930866 -0.190295 0.311890 0.306600 0.406800
0 -31.535500 -25.564800 29.293301 -0.750048 -0.615792 0.241306 0.376100 0.433700
0 -29.308800 -24.597401 69.235199 -0.850759 -0.523587 0.045443 0.379200 0.999500
tree_03.jpg
0 -50.232800 7.652000 -1.256900 -0.709742 -0.080402 0.699858 0.239300 0.000900
0 -50.074501 -13.048700 9.873200 -0.572008 0.025226 0.819860 0.307200 0.158600
0 -37.583000 -8.588699 27.395000 -0.930866 -0.190295 0.311890 0.306600 0.406800
tree_03.jpg
0 -65.235199 -12.567900 -1.281700 -0.626033 0.361176 0.691111 0.293700 0.000600
0 -70.452301 -36.502602 -1.281700 -0.372796 -0.293410 0.880303 0.339200 0.000600
0 -60.166500 -20.956499 8.255800 -0.264517 -0.154599 0.951909 0.318000 0.135700
tree_03.jpg
0 -13.206299 48.501598 19.745899 -0.355078 0.737751 0.574145 0.045200 0.298400
0 2.296600 60.556702 -1.283500 -0.266117 0.839724 0.473334 -0.003900 0.000500
0 -9.637300 74.856697 -1.277000 0.364368 0.550110 0.751408 0.021500 0.000600
tree_03.jpg
0 -9.637300 74.856697 -1.277000 0.364368 0.550110 0.751408 0.021500 0.000600
0 -28.409599 79.497002 -1.284700 -0.313387 0.423088 0.850168 0.054600 0.000500
0 -13.206299 48.501598 19.745899 -0.355078 0.737751 0.574145 0.045200 0.298400
tree_03.jpg
0 -35.112598 45.061298 -1.283500 -0.300789 0.118217 0.946335 0.108500 0.000500
0 -13.206299 48.501598 19.745899 -0.355078 0.737751 0.574145 0.045200 0.298400
0 -28.409599 79.497002 -1.284700 -0.313387 0.423088 0.850168 0.054600 0.000500
tree_03.jpg
0 -38.271198 -24.219200 -1.283500 -0.457737 -0.651266 0.605252 0.357500 0.000500
0 -50.074501 -13.048700 9.873200 -0.572008 0.025226 0.819860 0.307200 0.158600
0 -60.166500 -20.956499 8.255800 -0.264517 -0.154599 0.951909 0.318000 0.135700
tree_03.jpg
0 -60.166500 -20.956499 8.255800 -0.264517 -0.154599 0.951909 0.318000 0.135700
0 -70.452301 -36.502602 -1.281700 -0.372796 -0.293410 0.880303 0.339200 0.000600
0 -38.271198 -24.219200 -1.283500 -0.457737 -0.651266 0.605252 0.357500 0.000500
tree_03.jpg
0 49.366299 -11.664000 11.479700 0.805706 -0.216172 0.551459 0.694600 0.181300
0 39.705898 -29.757202 -1.283500 0.505516 -0.766518 0.396111 0.628300 0.000500
0 65.038803 -21.764000 -1.284200 0.494994 -0.273904 0.824595 0.683300 0.000500
tree_03.jpg
0 58.670898 7.652000 -1.276400 0.387566 0.075397 0.918754 0.759500 0.000600
0 49.366299 -11.664000 11.479700 0.805706 -0.216172 0.551459 0.694600 0.181300
0 65.038803 -21.764000 -1.284200 0.494994 -0.273904 0.824595 0.683300 0.000500
tree_03.jpg
0 39.551800 -29.821098 -1.283500 0.596061 -0.695373 0.401457 0.627800 0.000500
0 17.963600 -37.989201 23.197100 0.143125 -0.895225 0.422003 0.556500 0.347300
0 19.351999 -50.493401 6.868200 0.324983 -0.461434 0.825509 0.547800 0.116000
tree_03.jpg
0 19.351999 -50.493401 6.868200 0.324983 -0.461434 0.825509 0.547800 0.116000
0 30.469500 -46.957901 -1.243100 0.615812 -0.172829 0.768704 0.577400 0.001100
0 39.551800 -29.821098 -1.283500 0.596061 -0.695373 0.401457 0.627800 0.000500
tree_03.jpg
0 17.963600 -37.989201 23.197100 0.143125 -0.895225 0.422003 0.556500 0.347300
0 1.075800 -44.813499 -1.283100 -0.142450 -0.881112 0.450944 0.500800 0.000600
0 9.897000 -56.045601 -1.243100 -0.444030 -0.546446 0.710095 0.521800 0.001100
tree_03.jpg
0 9.897000 -56.045601 -1.243100 -0.444030 -0.546446 0.710095 0.521800 0.001100
0 19.351999 -50.493401 6.868200 0.324983 -0.461434 0.825509 0.547800 0.116000
0 17.963600 -37.989201 23.197100 0.143125 -0.895225 0.422003 0.556500 0.347300
tree_03.jpg
0 1.075800 -44.813499 -1.283100 -0.142450 -0.881112 0.450944 0.500800 0.000600
0 -23.033800 -38.551601 23.185699 -0.422909 -0.828003 0.368184 0.425200 0.347200
0 -37.654400 -51.011799 -1.256700 -0.479115 -0.632207 0.608903 0.409900 0.000900
tree_03.jpg
0 52.512699 33.105900 7.135000 0.433571 0.258652 0.863200 0.836400 0.119800
0 58.670898 7.652000 -1.276400 0.387566 0.075397 0.918754 0.759500 0.000600
0 61.872501 25.542601 -1.282700 0.533735 -0.241495 0.810436 0.807200 0.000600
tree_03.jpg
0 61.872501 25.542601 -1.282700 0.533735 -0.241495 0.810436 0.807200 0.000600
0 72.042397 37.714001 -1.286800 0.352815 0.181978 0.917827 0.824800 0.000500
0 52.512699 33.105900 7.135000 0.433571 0.258652 0.863200 0.836400 0.119800
tree_03.jpg
0 39.705898 45.061298 -1.283500 0.264951 0.270856 0.925439 0.885200 0.000500
0 52.512699 33.105900 7.135000 0.433571 0.258652 0.863200 0.836400 0.119800
0 72.042397 37.714001 -1.286800 0.352815 0.181978 0.917827 0.824800 0.000500
tree_03.jpg
0 21.270000 68.144302 11.813000 0.289935 0.381381 0.877773 0.954300 0.186100
0 39.705898 45.061298 -1.283500 0.264951 0.270856 0.925439 0.885200 0.000500
0 33.606899 69.583900 -1.268100 0.684608 0.273376 0.675705 0.931100 0.000800
tree_03.jpg
0 33.606899 69.583900 -1.268100 0.684608 0.273376 0.675705 0.931100 0.000800
0 26.087500 82.172699 -0.828900 0.041311 0.661028 0.749223 0.953800 0.007000
0 21.270000 68.144302 11.813000 0.289935 0.381381 0.877773 0.954300 0.186100
tree_03.jpg
0 -53.906300 27.201599 8.666000 -0.458496 0.125202 0.879833 0.182400 0.141500
0 -35.112598 45.061298 -1.283500 -0.300789 0.118217 0.946335 0.108500 0.000500
0 -64.354301 47.590199 -1.251700 -0.271398 0.304991 0.912866 0.150600 0.001000
tree_03.jpg
0 -64.354301 47.590199 -1.251700 -0.271398 0.304991 0.912866 0.150600 0.001000
0 -66.668999 37.071400 -1.269500 -0.676349 -0.148208 0.721517 0.172900 0.000700
0 -53.906300 27.201599 8.666000 -0.458496 0.125202 0.879833 0.182400 0.141500
tree_03.jpg
0 -50.608002 7.652000 -1.283500 -0.415765 -0.000394 0.909472 0.239400 0.000500
0 -53.906300 27.201599 8.666000 -0.458496 0.125202 0.879833 0.182400 0.141500
0 -66.668999 37.071400 -1.269500 -0.676349 -0.148208 0.721517 0.172900 0.000700
tree_03.jpg
0 -50.074501 -13.048700 9.873200 -0.572008 0.025226 0.819860 0.307200 0.158600
0 -50.608002 7.652000 -1.283500 -0.415765 -0.000394 0.909472 0.239400 0.000500
0 -65.235199 -12.567900 -1.281700 -0.626033 0.361176 0.691111 0.293700 0.000600
tree_03.jpg
0 -65.235199 -12.567900 -1.281700 -0.626033 0.361176 0.691111 0.293700 0.000600
0 -60.166500 -20.956499 8.255800 -0.264517 -0.154599 0.951909 0.318000 0.135700
0 -50.074501 -13.048700 9.873200 -0.572008 0.025226 0.819860 0.307200 0.158600
tree_03.jpg
0 30.469500 -46.957901 -1.243100 0.615812 -0.172829 0.768704 0.577400 0.001100
0 19.351999 -50.493401 6.868200 0.324983 -0.461434 0.825509 0.547800 0.116000
0 23.756399 -73.180702 3.278500 0.025475 -0.151412 0.988142 0.542100 0.065200
tree_03.jpg
0 19.351999 -50.493401 6.868200 0.324983 -0.461434 0.825509 0.547800 0.116000
0 9.897000 -56.045601 -1.243100 -0.444030 -0.546446 0.710095 0.521800 0.001100
0 23.756399 -73.180702 3.278500 0.025475 -0.151412 0.988142 0.542100 0.065200
tree_03.jpg
0 -37.654400 -51.011799 -1.256700 -0.479115 -0.632207 0.608903 0.409900 0.000900
0 -23.033800 -38.551601 23.185699 -0.422909 -0.828003 0.368184 0.425200 0.347200
0 -38.271198 -24.219200 -1.283500 -0.457737 -0.651266 0.605252 0.357500 0.000500
tree_03.jpg
0 2.296600 60.556702 -1.283500 -0.266117 0.839724 0.473334 0.996100 0.000500
0 21.270000 68.144302 11.813000 0.289935 0.381381 0.877773 0.954300 0.186100
0 26.087500 82.172699 -0.828900 0.041311 0.661028 0.749223 0.953800 0.007000
tree_04.jpg
0 2.940600 53.259499 69.235199 0.000000 0.000000 1.000000 0.500000 0.999500
0 48.548100 7.652000 69.235199 0.000000 0.000000 1.000000 0.999500 0.500000
0 35.189899 39.901402 69.235199 0.000000 0.000000 1.000000 0.853200 0.853200
tree_04.jpg
0 2.940600 53.259499 69.235199 0.000000 0.000000 1.000000 0.500000 0.999500
0 -29.308800 39.901402 69.235199 0.000000 0.000000 1.000000 0.146800 0.853200
0 -42.666901 7.652000 69.235199 0.000000 0.000000 1.000000 0.000500 0.500000
tree_04.jpg
0 2.940600 53.259499 69.235199 0.000000 0.000000 1.000000 0.500000 0.999500
0 -42.666901 7.652000 69.235199 0.000000 0.000000 1.000000 0.000500 0.500000
0 -29.308800 -24.597401 69.235199 0.000000 0.000000 1.000000 0.146800 0.146800
tree_04.jpg
0 2.940600 53.259499 69.235199 0.000000 0.000000 1.000000 0.500000 0.999500
0 -29.308800 -24.597401 69.235199 0.000000 0.000000 1.000000 0.146800 0.146800
0 2.940600 -37.955502 69.235199 0.000000 0.000000 1.000000 0.500000 0.000500
tree_04.jpg
0 2.940600 53.259499 69.235199 0.000000 0.000000 1.000000 0.500000 0.999500
0 2.940600 -37.955502 69.235199 0.000000 0.000000 1.000000 0.500000 0.000500
0 35.189899 -24.597298 69.235199 0.000000 0.000000 1.000000 0.853200 0.146800
tree_04.jpg
0 2.940600 53.259499 69.235199 0.000000 0.000000 1.000000 0.500000 0.999500
0 35.189899 -24.597298 69.235199 0.000000 0.000000 1.000000 0.853200 0.146800
0 48.548100 7.652000 69.235199 0.000000 0.000000 1.000000 0.999500 0.500000
end
