version 1
nodes
0 "Box13" -1
end
skeleton
time 0
0 -7.072189 0.182766 79.532784 0.000000 0.000000 0.000000
end
triangles
desk_big.jpg
0 -101.784302 -34.814301 105.375504 0.000000 0.000000 1.000000 0.565100 0.456900
0 101.685303 -34.814301 105.375504 0.000000 0.000000 1.000000 0.565100 0.997200
0 101.685303 35.179798 105.375504 0.000000 0.000000 1.000000 0.014500 0.997200
desk_big.jpg
0 101.685303 35.179798 105.375504 0.000000 0.000000 1.000000 0.014500 0.997200
0 -101.784302 35.179798 105.375504 0.000000 0.000000 1.000000 0.014500 0.456900
0 -101.784302 -34.814301 105.375504 0.000000 0.000000 1.000000 0.565100 0.456900
desk_big.jpg
0 -101.784302 -34.814301 94.663597 0.000000 -1.000000 0.000000 0.017900 0.828500
0 101.685303 -34.814301 94.663597 0.000000 -1.000000 0.000000 0.017900 0.282600
0 101.685303 -34.814301 105.375504 0.000000 -1.000000 0.000000 0.100000 0.282600
desk_big.jpg
0 101.685303 -34.814301 105.375504 0.000000 -1.000000 0.000000 0.100000 0.282600
0 -101.784302 -34.814301 105.375504 0.000000 -1.000000 0.000000 0.100000 0.828500
0 -101.784302 -34.814301 94.663597 0.000000 -1.000000 0.000000 0.017900 0.828500
desk_big.jpg
0 101.685303 -34.814301 94.663597 1.000000 0.000000 0.000000 0.563300 0.877500
0 101.685303 35.179798 94.663597 1.000000 0.000000 0.000000 0.018300 0.877500
0 101.685303 35.179798 105.375504 1.000000 0.000000 0.000000 0.018300 0.996900
desk_big.jpg
0 101.685303 35.179798 105.375504 1.000000 0.000000 0.000000 0.018300 0.996900
0 101.685303 -34.814301 105.375504 1.000000 0.000000 0.000000 0.563300 0.996900
0 101.685303 -34.814301 94.663597 1.000000 0.000000 0.000000 0.563300 0.877500
desk_big.jpg
0 101.685303 35.179798 94.663597 0.000000 1.000000 0.000000 0.017900 0.282600
0 -101.784302 35.179798 94.663597 0.000000 1.000000 0.000000 0.017900 0.828500
0 -101.784302 35.179798 105.375504 0.000000 1.000000 0.000000 0.100000 0.828500
desk_big.jpg
0 -101.784302 35.179798 105.375504 0.000000 1.000000 0.000000 0.100000 0.828500
0 101.685303 35.179798 105.375504 0.000000 1.000000 0.000000 0.100000 0.282600
0 101.685303 35.179798 94.663597 0.000000 1.000000 0.000000 0.017900 0.282600
desk_big.jpg
0 -101.784302 35.179798 94.663597 -1.000000 0.000000 0.000000 0.018300 0.877500
0 -101.784302 -34.814301 94.663597 -1.000000 0.000000 0.000000 0.563300 0.877500
0 -101.784302 -34.814301 105.375504 -1.000000 0.000000 0.000000 0.563300 0.996900
desk_big.jpg
0 -101.784302 -34.814301 105.375504 -1.000000 0.000000 0.000000 0.563300 0.996900
0 -101.784302 35.179798 105.375504 -1.000000 0.000000 0.000000 0.018300 0.996900
0 -101.784302 35.179798 94.663597 -1.000000 0.000000 0.000000 0.018300 0.877500
desk_big.jpg
0 -70.683197 -15.668300 0.000000 0.000000 0.970524 -0.241006 0.733800 0.186900
0 -60.683201 -2.156000 80.000000 0.000000 0.970524 -0.241006 0.783600 0.994600
0 -60.683201 -15.668300 0.000000 0.000000 0.970524 -0.241006 0.783000 0.187100
desk_big.jpg
0 -60.683201 -2.156000 80.000000 0.000000 0.970524 -0.241006 0.783600 0.994600
0 -70.683197 -15.668300 0.000000 0.000000 0.970524 -0.241006 0.733800 0.186900
0 -70.683197 -2.156000 80.000000 0.000000 0.970524 -0.241006 0.734300 0.994400
desk_big.jpg
0 -60.683201 -15.668300 0.000000 1.000000 0.000000 0.000000 0.783000 0.187100
0 -60.683201 -10.800800 80.000000 1.000000 0.000000 0.000000 0.733900 0.994400
0 -60.683201 -24.313000 0.000000 1.000000 0.000000 0.000000 0.733200 0.186900
desk_big.jpg
0 -60.683201 -10.800800 80.000000 1.000000 0.000000 0.000000 0.733900 0.994400
0 -60.683201 -15.668300 0.000000 1.000000 0.000000 0.000000 0.783000 0.187100
0 -60.683201 -2.156000 80.000000 1.000000 0.000000 0.000000 0.783600 0.994600
desk_big.jpg
0 -60.683201 -24.313000 0.000000 0.000000 -0.970524 0.241006 0.733200 0.186900
0 -70.683197 -10.800800 80.000000 0.000000 -0.970524 0.241006 0.684100 0.994600
0 -70.683197 -24.313000 0.000000 0.000000 -0.970524 0.241006 0.683800 0.186800
desk_big.jpg
0 -70.683197 -10.800800 80.000000 0.000000 -0.970524 0.241006 0.684100 0.994600
0 -60.683201 -24.313000 0.000000 0.000000 -0.970524 0.241006 0.733200 0.186900
0 -60.683201 -10.800800 80.000000 0.000000 -0.970524 0.241006 0.733900 0.994400
desk_big.jpg
0 -70.683197 -24.313000 0.000000 -1.000000 0.000000 0.000000 0.683800 0.186800
0 -70.683197 -2.156000 80.000000 -1.000000 0.000000 0.000000 0.734300 0.994400
0 -70.683197 -15.668300 0.000000 -1.000000 0.000000 0.000000 0.733800 0.186900
desk_big.jpg
0 -70.683197 -2.156000 80.000000 -1.000000 0.000000 0.000000 0.734300 0.994400
0 -70.683197 -24.313000 0.000000 -1.000000 0.000000 0.000000 0.683800 0.186800
0 -70.683197 -10.800800 80.000000 -1.000000 0.000000 0.000000 0.684100 0.994600
desk_big.jpg
0 59.949097 -15.668300 0.000000 0.000000 0.970524 -0.241006 0.733900 0.186700
0 69.949097 -2.156000 80.000000 0.000000 0.970524 -0.241006 0.784200 0.994200
0 69.949097 -15.668300 0.000000 0.000000 0.970524 -0.241006 0.783700 0.186500
desk_big.jpg
0 69.949097 -2.156000 80.000000 0.000000 0.970524 -0.241006 0.784200 0.994200
0 59.949097 -15.668300 0.000000 0.000000 0.970524 -0.241006 0.733900 0.186700
0 59.949097 -2.156000 80.000000 0.000000 0.970524 -0.241006 0.734400 0.994300
desk_big.jpg
0 69.949097 -15.668300 0.000000 1.000000 0.000000 0.000000 0.783700 0.186500
0 69.949097 -10.800800 80.000000 1.000000 0.000000 0.000000 0.734000 0.994300
0 69.949097 -24.313000 0.000000 1.000000 0.000000 0.000000 0.733400 0.186700
desk_big.jpg
0 69.949097 -10.800800 80.000000 1.000000 0.000000 0.000000 0.734000 0.994300
0 69.949097 -15.668300 0.000000 1.000000 0.000000 0.000000 0.783700 0.186500
0 69.949097 -2.156000 80.000000 1.000000 0.000000 0.000000 0.784200 0.994200
desk_big.jpg
0 69.949097 -24.313000 0.000000 0.000000 -0.970524 0.241006 0.733400 0.186700
0 59.949097 -10.800800 80.000000 0.000000 -0.970524 0.241006 0.684700 0.994100
0 59.949097 -24.313000 0.000000 0.000000 -0.970524 0.241006 0.683900 0.186800
desk_big.jpg
0 59.949097 -10.800800 80.000000 0.000000 -0.970524 0.241006 0.684700 0.994100
0 69.949097 -24.313000 0.000000 0.000000 -0.970524 0.241006 0.733400 0.186700
0 69.949097 -10.800800 80.000000 0.000000 -0.970524 0.241006 0.734000 0.994300
desk_big.jpg
0 59.949097 -24.313000 0.000000 -1.000000 0.000000 0.000000 0.683900 0.186800
0 59.949097 -2.156000 80.000000 -1.000000 0.000000 0.000000 0.734400 0.994300
0 59.949097 -15.668300 0.000000 -1.000000 0.000000 0.000000 0.733900 0.186700
desk_big.jpg
0 59.949097 -2.156000 80.000000 -1.000000 0.000000 0.000000 0.734400 0.994300
0 59.949097 -24.313000 0.000000 -1.000000 0.000000 0.000000 0.683900 0.186800
0 59.949097 -10.800800 80.000000 -1.000000 0.000000 0.000000 0.684700 0.994100
desk_big.jpg
0 -101.784302 -8.584200 1.064201 0.000000 -1.000000 0.000000 0.565100 0.456900
0 101.685303 -8.584200 1.064201 0.000000 -1.000000 0.000000 0.565100 0.997200
0 101.685303 -8.584200 95.136497 0.000000 -1.000000 0.000000 0.014500 0.997200
desk_big.jpg
0 101.685303 -8.584200 95.136497 0.000000 -1.000000 0.000000 0.014500 0.997200
0 -101.784302 -8.584200 95.136497 0.000000 -1.000000 0.000000 0.014500 0.456900
0 -101.784302 -8.584200 1.064201 0.000000 -1.000000 0.000000 0.565100 0.456900
desk_big.jpg
0 101.685303 6.775800 1.064201 1.000000 0.000000 0.000000 0.563300 0.877500
0 101.685303 6.775800 95.136497 1.000000 0.000000 0.000000 0.018300 0.877500
0 101.685303 -8.584200 95.136497 1.000000 0.000000 0.000000 0.018300 0.996900
desk_big.jpg
0 101.685303 -8.584200 95.136497 1.000000 0.000000 0.000000 0.018300 0.996900
0 101.685303 -8.584200 1.064201 1.000000 0.000000 0.000000 0.563300 0.996900
0 101.685303 6.775800 1.064201 1.000000 0.000000 0.000000 0.563300 0.877500
desk_big.jpg
0 101.685303 6.775800 95.136497 0.000000 0.000000 1.000000 0.017900 0.282600
0 -101.784302 6.775800 95.136497 0.000000 0.000000 1.000000 0.017900 0.828500
0 -101.784302 -8.584200 95.136497 0.000000 0.000000 1.000000 0.100000 0.828500
desk_big.jpg
0 -101.784302 -8.584200 95.136497 0.000000 0.000000 1.000000 0.100000 0.828500
0 101.685303 -8.584200 95.136497 0.000000 0.000000 1.000000 0.100000 0.282600
0 101.685303 6.775800 95.136497 0.000000 0.000000 1.000000 0.017900 0.282600
desk_big.jpg
0 -101.784302 6.775800 95.136497 -1.000000 0.000000 0.000000 0.018300 0.877500
0 -101.784302 6.775800 1.064201 -1.000000 0.000000 0.000000 0.563300 0.877500
0 -101.784302 -8.584200 1.064201 -1.000000 0.000000 0.000000 0.563300 0.996900
desk_big.jpg
0 -101.784302 -8.584200 1.064201 -1.000000 0.000000 0.000000 0.563300 0.996900
0 -101.784302 -8.584200 95.136497 -1.000000 0.000000 0.000000 0.018300 0.996900
0 -101.784302 6.775800 95.136497 -1.000000 0.000000 0.000000 0.018300 0.877500
end
