version 1
nodes
0 "bonee01" -1
1 "bonee02" 0
2 "bonee03" 1
3 "bonee04" 2
4 "bonee05" 3
5 "bonee06" 4
6 "Box24" 0
7 "Object04" 0
end
skeleton
time 0
0 7.732557 -11.717213 114.941452 1.570796 0.000000 0.000000
1 4.000702 -0.000001 0.000000 -0.000000 0.261799 -0.698132
2 22.715281 0.000006 0.000000 0.000000 -0.349066 -0.000000
3 26.854652 -0.000008 0.000001 0.000000 -0.349066 0.000000
4 24.975847 0.000000 -0.000001 0.000000 -0.174533 -0.000000
5 21.434248 0.000006 0.000002 -0.000000 -0.000000 0.000000
6 2.267883 164.376328 -11.514021 1.570796 0.959931 1.570796
7 1.019318 164.376328 -11.514021 -1.570796 2.181662 -1.570796
end
triangles
badge_01.jpg
0 12.526400 -0.211000 29.774002 0.693886 0.720085 -0.000000 0.587700 0.223300
0 10.015100 2.209000 29.774002 0.693886 0.720085 -0.000000 0.727600 0.223300
0 10.015100 2.209000 142.283493 0.693886 0.720085 -0.000000 0.727600 0.757600
badge_01.jpg
0 10.015100 2.209000 142.283493 0.693886 0.720085 -0.000000 0.727600 0.757600
0 12.526400 -0.211000 142.283493 0.693886 0.720085 -0.000000 0.587700 0.757600
0 12.526400 -0.211000 29.774002 0.693886 0.720085 -0.000000 0.587700 0.223300
badge_01.jpg
0 10.015100 2.209000 29.774002 -0.687390 0.726289 -0.000000 0.727600 0.223300
0 7.474500 -0.195700 29.774002 -0.687390 0.726289 -0.000000 0.869100 0.223300
0 7.474500 -0.195700 142.283493 -0.687390 0.726289 -0.000000 0.869100 0.757600
badge_01.jpg
0 7.474500 -0.195700 142.283493 -0.687390 0.726289 -0.000000 0.869100 0.757600
0 10.015100 2.209000 142.283493 -0.687390 0.726289 -0.000000 0.727600 0.757600
0 10.015100 2.209000 29.774002 -0.687390 0.726289 -0.000000 0.727600 0.223300
badge_01.jpg
0 7.474500 -0.195700 29.774002 -0.693886 -0.720085 0.000000 0.869100 0.223300
0 9.985800 -2.615800 29.774002 -0.693886 -0.720085 0.000000 0.729200 0.223300
0 9.985800 -2.615700 142.283493 -0.693886 -0.720085 0.000000 0.729200 0.757600
badge_01.jpg
0 9.985800 -2.615700 142.283493 -0.693886 -0.720085 0.000000 0.729200 0.757600
0 7.474500 -0.195700 142.283493 -0.693886 -0.720085 0.000000 0.869100 0.757600
0 7.474500 -0.195700 29.774002 -0.693886 -0.720085 0.000000 0.869100 0.223300
badge_01.jpg
0 9.985800 -2.615800 29.774002 0.687390 -0.726289 0.000000 0.729200 0.223300
0 12.526400 -0.211000 29.774002 0.687390 -0.726289 0.000000 0.587700 0.223300
0 12.526400 -0.211000 142.283493 0.687390 -0.726289 0.000000 0.587700 0.757600
badge_01.jpg
0 12.526400 -0.211000 142.283493 0.687390 -0.726289 0.000000 0.587700 0.757600
0 9.985800 -2.615700 142.283493 0.687390 -0.726289 0.000000 0.729200 0.757600
0 9.985800 -2.615800 29.774002 0.687390 -0.726289 0.000000 0.729200 0.223300
badge_01.jpg
0 12.526400 -0.211000 29.774002 0.665065 -0.702664 0.252887 0.871100 0.623700
0 9.985800 -2.615800 29.774002 0.665065 -0.702664 0.252887 0.635500 0.623700
0 9.920200 -13.425300 -0.083199 0.665065 -0.702664 0.252887 0.635400 0.939100
badge_01.jpg
0 9.920200 -13.425300 -0.083199 0.665112 -0.702613 0.252905 0.635400 0.939100
0 23.844900 -0.245400 -0.083199 0.665112 -0.702613 0.252905 0.884200 0.939100
0 12.526400 -0.211000 29.774002 0.665112 -0.702613 0.252905 0.871100 0.623700
badge_01.jpg
0 9.985800 -2.615800 29.774002 -0.671222 -0.696523 0.253608 0.635500 0.623700
0 7.474500 -0.195700 29.774002 -0.671222 -0.696523 0.253608 0.402600 0.623700
0 -3.844000 -0.161600 -0.083199 -0.671222 -0.696523 0.253608 0.389500 0.939100
badge_01.jpg
0 -3.844000 -0.161600 -0.083199 -0.671222 -0.696523 0.253608 0.389500 0.939100
0 9.920200 -13.425300 -0.083199 -0.671222 -0.696523 0.253608 0.635400 0.939100
0 9.985800 -2.615800 29.774002 -0.671222 -0.696523 0.253608 0.635500 0.623700
badge_01.jpg
0 7.474500 -0.195700 29.774002 -0.665065 0.702664 0.252887 0.402600 0.623700
0 10.015100 2.209000 29.774002 -0.665065 0.702664 0.252887 0.638200 0.623700
0 10.080700 13.018501 -0.083099 -0.665065 0.702664 0.252887 0.638300 0.939100
badge_01.jpg
0 10.080700 13.018501 -0.083099 -0.665112 0.702613 0.252905 0.638300 0.939100
0 -3.844000 -0.161600 -0.083199 -0.665112 0.702613 0.252905 0.389500 0.939100
0 7.474500 -0.195700 29.774002 -0.665112 0.702613 0.252905 0.402600 0.623700
badge_01.jpg
0 10.015100 2.209000 29.774002 0.671222 0.696523 0.253608 0.638200 0.623700
0 12.526400 -0.211000 29.774002 0.671222 0.696523 0.253608 0.871100 0.623700
0 23.844900 -0.245400 -0.083199 0.671222 0.696523 0.253608 0.884200 0.939100
badge_01.jpg
0 23.844900 -0.245400 -0.083199 0.671222 0.696523 0.253608 0.884200 0.939100
0 10.080700 13.018501 -0.083099 0.671222 0.696523 0.253608 0.638300 0.939100
0 10.015100 2.209000 29.774002 0.671222 0.696523 0.253608 0.638200 0.623700
badge_01.jpg
0 12.526400 -0.211000 142.283493 0.672629 0.698030 -0.245611 0.838200 0.814300
0 10.015100 2.209000 142.283493 0.672629 0.698030 -0.245611 0.763600 0.814300
0 10.032800 5.128000 150.629303 0.672629 0.698030 -0.245611 0.764100 0.860700
badge_01.jpg
0 10.032800 5.128000 150.629303 0.672684 0.697983 -0.245594 0.764100 0.860700
0 15.582800 -0.220300 150.629303 0.672684 0.697983 -0.245594 0.929000 0.860700
0 12.526400 -0.211000 142.283493 0.672684 0.697983 -0.245594 0.838200 0.814300
badge_01.jpg
0 10.015100 2.209000 142.283493 -0.666468 0.704166 -0.244888 0.763600 0.814300
0 7.474500 -0.195700 142.283493 -0.666468 0.704166 -0.244888 0.688100 0.814300
0 4.417900 -0.186500 150.629303 -0.666468 0.704166 -0.244888 0.597300 0.860700
badge_01.jpg
0 4.417900 -0.186500 150.629303 -0.666468 0.704166 -0.244888 0.597300 0.860700
0 10.032800 5.128000 150.629303 -0.666468 0.704166 -0.244888 0.764100 0.860700
0 10.015100 2.209000 142.283493 -0.666468 0.704166 -0.244888 0.763600 0.814300
badge_01.jpg
0 7.474500 -0.195700 142.283493 -0.672684 -0.697983 -0.245594 0.688100 0.814300
0 9.985800 -2.615700 142.283493 -0.672684 -0.697983 -0.245594 0.762700 0.814300
0 9.968100 -5.534800 150.629303 -0.672684 -0.697983 -0.245594 0.762200 0.860700
badge_01.jpg
0 9.968100 -5.534800 150.629303 -0.672629 -0.698030 -0.245611 0.762200 0.860700
0 4.417900 -0.186500 150.629303 -0.672629 -0.698030 -0.245611 0.597300 0.860700
0 7.474500 -0.195700 142.283493 -0.672629 -0.698030 -0.245611 0.688100 0.814300
badge_01.jpg
0 9.985800 -2.615700 142.283493 0.666468 -0.704166 -0.244888 0.762700 0.814300
0 12.526400 -0.211000 142.283493 0.666468 -0.704166 -0.244888 0.838200 0.814300
0 15.582800 -0.220300 150.629303 0.666468 -0.704166 -0.244888 0.929000 0.860700
badge_01.jpg
0 15.582800 -0.220300 150.629303 0.666515 -0.704116 -0.244906 0.929000 0.860700
0 9.968100 -5.534800 150.629303 0.666515 -0.704116 -0.244906 0.762200 0.860700
0 9.985800 -2.615700 142.283493 0.666515 -0.704116 -0.244906 0.762700 0.814300
badge_01.jpg
0 15.582800 -0.220300 150.629303 0.688000 0.713899 0.130400 0.929000 0.860700
0 10.032800 5.128000 150.629303 0.688000 0.713899 0.130400 0.764100 0.860700
0 10.000400 -0.203300 179.989105 0.688000 0.713899 0.130400 0.763100 0.980400
badge_01.jpg
0 10.032800 5.128000 150.629303 -0.681592 0.720092 0.129999 0.764100 0.860700
0 4.417900 -0.186500 150.629303 -0.681592 0.720092 0.129999 0.597300 0.860700
0 10.000400 -0.203300 179.989105 -0.681592 0.720092 0.129999 0.763100 0.980400
badge_01.jpg
0 4.417900 -0.186500 150.629303 -0.688000 -0.713899 0.130400 0.597300 0.860700
0 9.968100 -5.534800 150.629303 -0.688000 -0.713899 0.130400 0.762200 0.860700
0 10.000400 -0.203300 179.989105 -0.688000 -0.713899 0.130400 0.763100 0.980400
badge_01.jpg
0 9.968100 -5.534800 150.629303 0.681592 -0.720092 0.129999 0.762200 0.860700
0 15.582800 -0.220300 150.629303 0.681592 -0.720092 0.129999 0.929000 0.860700
0 10.000400 -0.203300 179.989105 0.681592 -0.720092 0.129999 0.763100 0.980400
badge_03.tga
1 10.166201 5.473200 83.576897 0.535813 -0.843521 -0.037101 0.227000 0.000700
1 39.972500 5.473101 119.098503 0.010200 -0.999911 -0.008600 0.227000 0.999200
0 12.964400 0.016300 136.289902 0.883611 -0.458606 -0.094401 0.000500 0.999500
badge_03.tga
0 12.964400 0.016300 136.289902 0.883611 -0.458606 -0.094401 0.000500 0.999500
0 12.964400 0.016400 89.899597 0.889821 0.456311 0.000000 0.000500 0.000500
1 10.166201 5.473200 83.576897 0.535813 -0.843521 -0.037101 0.227000 0.000700
badge_03.tga
2 33.682201 3.479701 63.857800 -0.136597 -0.983976 0.114597 0.508300 0.000900
2 63.472099 3.479600 99.359901 -0.222792 -0.956764 0.186993 0.508300 0.998900
1 39.972500 5.473101 119.098503 0.010200 -0.999911 -0.008600 0.227000 0.999200
badge_03.tga
1 39.972500 5.473101 119.098503 0.010200 -0.999911 -0.008600 0.227000 0.999200
1 10.166201 5.473200 83.576897 0.535813 -0.843521 -0.037101 0.227000 0.000700
2 33.682201 3.479701 63.857800 -0.136597 -0.983976 0.114597 0.508300 0.000900
badge_03.tga
3 53.660599 -7.835397 47.106903 -0.348697 -0.890392 0.292597 0.765100 0.001100
3 83.434402 -7.835398 82.589897 -0.370110 -0.875523 0.310608 0.765100 0.998600
2 63.472099 3.479600 99.359901 -0.222792 -0.956764 0.186993 0.508300 0.998900
badge_03.tga
2 63.472099 3.479600 99.359901 -0.222792 -0.956764 0.186993 0.508300 0.998900
2 33.682201 3.479701 63.857800 -0.136597 -0.983976 0.114597 0.508300 0.000900
3 53.660599 -7.835397 47.106903 -0.348697 -0.890392 0.292597 0.765100 0.001100
badge_03.tga
3 83.434402 -7.835398 82.589897 -0.370110 -0.875523 0.310608 0.765100 0.998600
3 53.660599 -7.835397 47.106903 -0.348697 -0.890392 0.292597 0.765100 0.001100
4 69.047592 -21.543697 34.208900 -0.431904 -0.825907 0.362403 0.999500 0.001300
badge_03.tga
4 98.567993 -21.555798 69.898804 -0.439780 -0.821263 0.363484 0.996800 0.998700
3 83.434402 -7.835398 82.589897 -0.439780 -0.821263 0.363484 0.765100 0.998600
4 69.047592 -21.543697 34.208900 -0.439780 -0.821263 0.363484 0.999500 0.001300
end
