version 1
nodes
0 "Dummy00" -1
1 "Dummy01" -1
2 "Dummy02" -1
3 "Mesh02" -1
4 "Cylinder02" -1
5 "Bone01" -1
6 "Bone02" 5
7 "Bone03" 6
8 "Bone04" 7
9 "Bone05" 8
10 "Mesh01" 5
end
skeleton
time 0
0 0.000000 0.000000 0.000000 0.000000 0.000000 0.000000
1 0.000000 0.000000 0.000000 0.000000 0.000000 0.000000
2 0.000000 0.000000 0.000000 0.000000 0.000000 0.000000
3 0.055099 -62.288750 208.164734 -0.000253 -0.000000 0.000000
4 0.055099 -62.277519 208.146988 0.000000 -0.000000 0.000000
5 -0.081355 -62.322540 248.572464 0.000000 -0.000000 0.000000
6 -0.144830 0.000004 -2.606949 0.000000 -0.001538 0.000000
7 0.434491 0.000000 -40.117970 0.000000 0.087228 0.000000
8 -0.434489 -0.000004 11.007098 0.000000 -0.699160 0.000000
9 0.869000 0.000000 9.848469 0.000000 -0.000000 0.000000
10 0.136453 0.033791 -40.407730 -0.000253 -0.000000 0.000000
time 1
0 0.000000 0.000000 0.000000 0.000000 0.000000 0.000000
1 0.000000 0.000000 0.000000 0.000000 0.000000 0.000000
2 0.000000 0.000000 0.000000 0.000000 0.000000 0.000000
3 0.055099 -62.288750 208.164734 -0.000253 -0.000000 0.000000
4 0.055099 -62.277519 208.146988 0.000000 -0.000000 0.000000
5 -0.081355 -62.322540 248.572464 0.000000 -0.000000 0.000000
6 -0.144830 0.000004 -2.606949 0.000000 -0.034943 0.000000
7 0.434490 -0.000004 -40.117939 0.000000 0.152157 0.000000
8 -0.434490 0.000004 11.007090 0.000000 -0.400151 0.000000
9 0.868979 0.000004 9.848462 0.000000 -0.000000 0.000000
10 0.136453 0.033791 -40.407730 -0.000253 -0.000000 0.000000
time 2
0 0.000000 0.000000 0.000000 0.000000 0.000000 0.000000
1 0.000000 0.000000 0.000000 0.000000 0.000000 0.000000
2 0.000000 0.000000 0.000000 0.000000 0.000000 0.000000
3 0.055099 -62.288750 208.164734 -0.000253 -0.000000 0.000000
4 0.055099 -62.277519 208.146988 0.000000 -0.000000 0.000000
5 -0.081355 -62.322540 248.572464 0.000000 -0.000000 0.000000
6 -0.144830 0.000004 -2.606949 0.000000 -0.064331 0.000000
7 0.434493 0.000000 -40.117943 0.000000 0.014714 0.000000
8 -0.434490 0.000000 11.007094 0.000000 -0.721030 0.000000
9 0.868989 0.000004 9.848452 0.000000 -0.000000 0.000000
10 0.136453 0.033791 -40.407730 -0.000253 -0.000000 0.000000
time 3
0 0.000000 0.000000 0.000000 0.000000 0.000000 0.000000
1 0.000000 0.000000 0.000000 0.000000 0.000000 0.000000
2 0.000000 0.000000 0.000000 0.000000 0.000000 0.000000
3 0.055099 -62.288750 208.164734 -0.000253 -0.000000 0.000000
4 0.055099 -62.277519 208.146988 0.000000 -0.000000 0.000000
5 -0.081355 -62.322540 248.572464 0.000000 -0.000000 0.000000
6 -0.144830 0.000004 -2.606949 0.000000 -0.081000 0.000000
7 0.434489 -0.000004 -40.117954 0.000000 0.136860 0.000000
8 -0.434489 0.000004 11.007097 0.000000 0.024546 0.000000
9 0.868992 0.000000 9.848494 0.000000 -0.000000 0.000000
10 0.136453 0.033791 -40.407730 -0.000253 -0.000000 0.000000
time 4
0 0.000000 0.000000 0.000000 0.000000 0.000000 0.000000
1 0.000000 0.000000 0.000000 0.000000 0.000000 0.000000
2 0.000000 0.000000 0.000000 0.000000 0.000000 0.000000
3 0.055099 -62.288750 208.164734 -0.000253 -0.000000 0.000000
4 0.055099 -62.277519 208.146988 0.000000 -0.000000 0.000000
5 -0.081355 -62.322540 248.572464 0.000000 -0.000000 0.000000
6 -0.144830 0.000004 -2.606949 0.000000 -0.097507 0.000000
7 0.434491 -0.000004 -40.117962 0.000000 0.073789 0.000000
8 -0.434479 0.000004 11.007112 0.000000 -0.634959 0.000000
9 0.868962 0.000000 9.848439 0.000000 -0.000000 0.000000
10 0.136453 0.033791 -40.407730 -0.000253 -0.000000 0.000000
time 5
0 0.000000 0.000000 0.000000 0.000000 0.000000 0.000000
1 0.000000 0.000000 0.000000 0.000000 0.000000 0.000000
2 0.000000 0.000000 0.000000 0.000000 0.000000 0.000000
3 0.055099 -62.288750 208.164734 -0.000253 -0.000000 0.000000
4 0.055099 -62.277519 208.146988 0.000000 -0.000000 0.000000
5 -0.081355 -62.322540 248.572464 0.000000 -0.000000 0.000000
6 -0.144830 0.000004 -2.606949 0.000000 -0.096101 0.000000
7 0.434490 0.000000 -40.117966 0.000000 0.110380 0.000000
8 -0.434490 0.000004 11.007107 0.000000 0.032586 0.000000
9 0.868979 -0.000004 9.848424 0.000000 -0.000000 0.000000
10 0.136453 0.033791 -40.407730 -0.000253 -0.000000 0.000000
time 6
0 0.000000 0.000000 0.000000 0.000000 0.000000 0.000000
1 0.000000 0.000000 0.000000 0.000000 0.000000 0.000000
2 0.000000 0.000000 0.000000 0.000000 0.000000 0.000000
3 0.055099 -62.288750 208.164734 -0.000253 -0.000000 0.000000
4 0.055099 -62.277519 208.146988 0.000000 -0.000000 0.000000
5 -0.081355 -62.322540 248.572464 0.000000 -0.000000 0.000000
6 -0.144830 0.000004 -2.606949 0.000000 -0.097279 0.000000
7 0.434488 -0.000004 -40.117947 0.000000 0.037816 0.000000
8 -0.434478 0.000000 11.007126 0.000000 -0.558508 0.000000
9 0.868997 0.000004 9.848480 0.000000 -0.000000 0.000000
10 0.136453 0.033791 -40.407730 -0.000253 -0.000000 0.000000
time 7
0 0.000000 0.000000 0.000000 0.000000 0.000000 0.000000
1 0.000000 0.000000 0.000000 0.000000 0.000000 0.000000
2 0.000000 0.000000 0.000000 0.000000 0.000000 0.000000
3 0.055099 -62.288750 208.164734 -0.000253 -0.000000 0.000000
4 0.055099 -62.277519 208.146988 0.000000 -0.000000 0.000000
5 -0.081355 -62.322540 248.572464 0.000000 -0.000000 0.000000
6 -0.144830 0.000004 -2.606949 0.000000 -0.074601 0.000000
7 0.434489 -0.000004 -40.117973 0.000000 0.056801 0.000000
8 -0.434490 0.000004 11.007078 0.000000 0.266606 0.000000
9 0.868977 0.000000 9.848473 0.000000 -0.000000 0.000000
10 0.136453 0.033791 -40.407730 -0.000253 -0.000000 0.000000
time 8
0 0.000000 0.000000 0.000000 0.000000 0.000000 0.000000
1 0.000000 0.000000 0.000000 0.000000 0.000000 0.000000
2 0.000000 0.000000 0.000000 0.000000 0.000000 0.000000
3 0.055099 -62.288750 208.164734 -0.000253 -0.000000 0.000000
4 0.055099 -62.277519 208.146988 0.000000 -0.000000 0.000000
5 -0.081355 -62.322540 248.572464 0.000000 -0.000000 0.000000
6 -0.144830 0.000004 -2.606949 0.000000 -0.036370 0.000000
7 0.434491 -0.000004 -40.117966 0.000000 -0.004666 0.000000
8 -0.434472 0.000000 11.007093 0.000000 -0.246195 0.000000
9 0.868990 0.000000 9.848455 0.000000 -0.000000 0.000000
10 0.136453 0.033791 -40.407730 -0.000253 -0.000000 0.000000
time 9
0 0.000000 0.000000 0.000000 0.000000 0.000000 0.000000
1 0.000000 0.000000 0.000000 0.000000 0.000000 0.000000
2 0.000000 0.000000 0.000000 0.000000 0.000000 0.000000
3 0.055099 -62.288750 208.164734 -0.000253 -0.000000 0.000000
4 0.055099 -62.277519 208.146988 0.000000 -0.000000 0.000000
5 -0.081355 -62.322540 248.572464 0.000000 -0.000000 0.000000
6 -0.144830 0.000004 -2.606949 0.000000 0.018872 0.000000
7 0.434492 -0.000008 -40.117931 0.000000 -0.051816 0.000000
8 -0.434478 0.000004 11.007106 0.000000 0.197479 0.000000
9 0.868984 0.000000 9.848455 0.000000 -0.000000 0.000000
10 0.136453 0.033791 -40.407730 -0.000253 -0.000000 0.000000
time 10
0 0.000000 0.000000 0.000000 0.000000 0.000000 0.000000
1 0.000000 0.000000 0.000000 0.000000 0.000000 0.000000
2 0.000000 0.000000 0.000000 0.000000 0.000000 0.000000
3 0.055099 -62.288750 208.164734 -0.000253 -0.000000 0.000000
4 0.055099 -62.277519 208.146988 0.000000 -0.000000 0.000000
5 -0.081355 -62.322540 248.572464 0.000000 -0.000000 0.000000
6 -0.144830 0.000004 -2.606949 0.000000 0.075992 0.000000
7 0.434490 -0.000004 -40.117973 0.000000 0.067508 0.000000
8 -0.434480 0.000004 11.007098 0.000000 0.509259 0.000000
9 0.868983 0.000008 9.848465 0.000000 -0.000000 0.000000
10 0.136453 0.033791 -40.407730 -0.000253 -0.000000 0.000000
time 11
0 0.000000 0.000000 0.000000 0.000000 0.000000 0.000000
1 0.000000 0.000000 0.000000 0.000000 0.000000 0.000000
2 0.000000 0.000000 0.000000 0.000000 0.000000 0.000000
3 0.055099 -62.288750 208.164734 -0.000253 -0.000000 0.000000
4 0.055099 -62.277519 208.146988 0.000000 -0.000000 0.000000
5 -0.081355 -62.322540 248.572464 0.000000 -0.000000 0.000000
6 -0.144830 0.000004 -2.606949 0.000000 0.133623 0.000000
7 0.434492 -0.000004 -40.117973 0.000000 0.064269 0.000000
8 -0.434490 -0.000004 11.007094 0.000000 0.471853 0.000000
9 0.868981 0.000000 9.848460 0.000000 -0.000000 0.000000
10 0.136453 0.033791 -40.407730 -0.000253 -0.000000 0.000000
time 12
0 0.000000 0.000000 0.000000 0.000000 0.000000 0.000000
1 0.000000 0.000000 0.000000 0.000000 0.000000 0.000000
2 0.000000 0.000000 0.000000 0.000000 0.000000 0.000000
3 0.055099 -62.288750 208.164734 -0.000253 -0.000000 0.000000
4 0.055099 -62.277519 208.146988 0.000000 -0.000000 0.000000
5 -0.081355 -62.322540 248.572464 0.000000 -0.000000 0.000000
6 -0.144830 0.000004 -2.606949 0.000000 0.182591 0.000000
7 0.434489 0.000000 -40.117958 0.000000 -0.047726 0.000000
8 -0.434490 0.000000 11.007091 0.000000 0.285128 0.000000
9 0.868974 0.000000 9.848454 0.000000 -0.000000 0.000000
10 0.136453 0.033791 -40.407730 -0.000253 -0.000000 0.000000
time 13
0 0.000000 0.000000 0.000000 0.000000 0.000000 0.000000
1 0.000000 0.000000 0.000000 0.000000 0.000000 0.000000
2 0.000000 0.000000 0.000000 0.000000 0.000000 0.000000
3 0.055099 -62.288750 208.164734 -0.000253 -0.000000 0.000000
4 0.055099 -62.277519 208.146988 0.000000 -0.000000 0.000000
5 -0.081355 -62.322540 248.572464 0.000000 -0.000000 0.000000
6 -0.144830 0.000004 -2.606949 0.000000 0.209116 0.000000
7 0.434494 0.000000 -40.117950 0.000000 -0.053228 0.000000
8 -0.434495 0.000000 11.007114 0.000000 -0.592694 0.000000
9 0.868999 -0.000004 9.848473 0.000000 -0.000000 0.000000
10 0.136453 0.033791 -40.407730 -0.000253 -0.000000 0.000000
time 14
0 0.000000 0.000000 0.000000 0.000000 0.000000 0.000000
1 0.000000 0.000000 0.000000 0.000000 0.000000 0.000000
2 0.000000 0.000000 0.000000 0.000000 0.000000 0.000000
3 0.055099 -62.288750 208.164734 -0.000253 -0.000000 0.000000
4 0.055099 -62.277519 208.146988 0.000000 -0.000000 0.000000
5 -0.081355 -62.322540 248.572464 0.000000 -0.000000 0.000000
6 -0.144830 0.000004 -2.606949 0.000000 0.223348 0.000000
7 0.434492 -0.000004 -40.117966 0.000000 -0.007811 0.000000
8 -0.434493 0.000004 11.007094 0.000000 0.232032 0.000000
9 0.868983 0.000000 9.848470 0.000000 -0.000000 0.000000
10 0.136453 0.033791 -40.407730 -0.000253 -0.000000 0.000000
time 15
0 0.000000 0.000000 0.000000 0.000000 0.000000 0.000000
1 0.000000 0.000000 0.000000 0.000000 0.000000 0.000000
2 0.000000 0.000000 0.000000 0.000000 0.000000 0.000000
3 0.055099 -62.288750 208.164734 -0.000253 -0.000000 0.000000
4 0.055099 -62.277519 208.146988 0.000000 -0.000000 0.000000
5 -0.081355 -62.322540 248.572464 0.000000 -0.000000 0.000000
6 -0.144830 0.000004 -2.606949 0.000000 0.211201 0.000000
7 0.434490 -0.000008 -40.117962 0.000000 0.048948 0.000000
8 -0.434488 0.000000 11.007083 0.000000 0.343506 0.000000
9 0.868992 0.000000 9.848478 0.000000 0.000000 0.000000
10 0.136453 0.033791 -40.407730 -0.000253 -0.000000 0.000000
time 16
0 0.000000 0.000000 0.000000 0.000000 0.000000 0.000000
1 0.000000 0.000000 0.000000 0.000000 0.000000 0.000000
2 0.000000 0.000000 0.000000 0.000000 0.000000 0.000000
3 0.055099 -62.288750 208.164734 -0.000253 -0.000000 0.000000
4 0.055099 -62.277519 208.146988 0.000000 -0.000000 0.000000
5 -0.081355 -62.322540 248.572464 0.000000 -0.000000 0.000000
6 -0.144830 0.000004 -2.606949 0.000000 0.184878 0.000000
7 0.434494 -0.000004 -40.117954 0.000000 0.129562 0.000000
8 -0.434492 0.000000 11.007104 0.000000 0.346018 0.000000
9 0.868982 0.000000 9.848462 0.000000 -0.000000 0.000000
10 0.136453 0.033791 -40.407730 -0.000253 -0.000000 0.000000
time 17
0 0.000000 0.000000 0.000000 0.000000 0.000000 0.000000
1 0.000000 0.000000 0.000000 0.000000 0.000000 0.000000
2 0.000000 0.000000 0.000000 0.000000 0.000000 0.000000
3 0.055099 -62.288750 208.164734 -0.000253 -0.000000 0.000000
4 0.055099 -62.277519 208.146988 0.000000 -0.000000 0.000000
5 -0.081355 -62.322540 248.572464 0.000000 -0.000000 0.000000
6 -0.144830 0.000004 -2.606949 0.000000 0.154677 0.000000
7 0.434492 -0.000004 -40.117950 0.000000 0.038677 0.000000
8 -0.434490 0.000000 11.007082 0.000000 -0.131042 0.000000
9 0.868987 0.000000 9.848454 0.000000 -0.000000 0.000000
10 0.136453 0.033791 -40.407730 -0.000253 -0.000000 0.000000
time 18
0 0.000000 0.000000 0.000000 0.000000 0.000000 0.000000
1 0.000000 0.000000 0.000000 0.000000 0.000000 0.000000
2 0.000000 0.000000 0.000000 0.000000 0.000000 0.000000
3 0.055099 -62.288750 208.164734 -0.000253 -0.000000 0.000000
4 0.055099 -62.277519 208.146988 0.000000 -0.000000 0.000000
5 -0.081355 -62.322540 248.572464 0.000000 -0.000000 0.000000
6 -0.144830 0.000004 -2.606949 0.000000 0.110294 0.000000
7 0.434488 -0.000004 -40.117954 0.000000 0.009875 0.000000
8 -0.434491 -0.000004 11.007113 0.000000 0.389275 0.000000
9 0.868987 0.000004 9.848473 0.000000 -0.000000 0.000000
10 0.136453 0.033791 -40.407730 -0.000253 -0.000000 0.000000
time 19
0 0.000000 0.000000 0.000000 0.000000 0.000000 0.000000
1 0.000000 0.000000 0.000000 0.000000 0.000000 0.000000
2 0.000000 0.000000 0.000000 0.000000 0.000000 0.000000
3 0.055099 -62.288750 208.164734 -0.000253 -0.000000 0.000000
4 0.055099 -62.277519 208.146988 0.000000 -0.000000 0.000000
5 -0.081355 -62.322540 248.572464 0.000000 -0.000000 0.000000
6 -0.144830 0.000004 -2.606949 0.000000 0.053627 0.000000
7 0.434490 -0.000008 -40.117939 0.000000 -0.057908 0.000000
8 -0.434490 -0.000004 11.007097 0.000000 0.435422 0.000000
9 0.868982 0.000000 9.848481 0.000000 -0.000000 0.000000
10 0.136453 0.033791 -40.407730 -0.000253 -0.000000 0.000000
time 20
0 0.000000 0.000000 0.000000 0.000000 0.000000 0.000000
1 0.000000 0.000000 0.000000 0.000000 0.000000 0.000000
2 0.000000 0.000000 0.000000 0.000000 0.000000 0.000000
3 0.055099 -62.288750 208.164734 -0.000253 -0.000000 0.000000
4 0.055099 -62.277519 208.146988 0.000000 -0.000000 0.000000
5 -0.081355 -62.322540 248.572464 0.000000 -0.000000 0.000000
6 -0.144830 0.000004 -2.606949 0.000000 -0.018055 0.000000
7 0.434491 0.000000 -40.117970 0.000000 0.022693 0.000000
8 -0.434490 0.000004 11.007109 0.000000 -0.052076 0.000000
9 0.868987 0.000000 9.848455 0.000000 -0.000000 0.000000
10 0.136453 0.033791 -40.407730 -0.000253 -0.000000 0.000000
end
